/* XPM */
static char *noname[] = { /* width height ncolors chars_per_pixel */ "41 17 4 1",
/* colors */
"` c #000000",
"a c #0000AA",
"b c #AA0000",
"c c #AAAAAA",
/* pixels */
"cccccccccccc`cccccccccccccccccccccccccccc",
"cccccccccc```cccccccccccccccccccccccccccc",
"cccccccccc```cccccccccccccccccccccccccccc",
"ccccccccc````cccccccccccccbbccbbbcccbbbcc",
"cccccccc`````cccccccccccbbbbbbbbbbbbbbbcc",
"cccccccc`c```ccccccccccccbbbcccbbbcccbbbc",
"ccccccc`cc```cccaacccccccbbbcccbbbcccbbbc",
"cccccc``cc```cccaacccccccbbbcccbbbcccbbbc",
"ccccc``ccc```ccaaaaaaaaccbbbcccbbbcccbbbc",
"ccccc````````ccaaaaaaaaccbbbcccbbbcccbbbc",
"cccc``cccc```cccaacccccccbbbcccbbbcccbbbc",
"ccc``ccccc```cccaaccccccbbbbbcbbbbbcbbbbb",
"ccc`cccccc```cccaaccccccccccccccccccccccc",
"cc``cccccc```cccaaccccccccccccccccccccccc",
"`````ccc``````ccaacccaacccccccccccccccccc",
"ccccccccccccccccaaaaaaaaccccccccccccccccc",
"cccccccccccccccccaaaaaccccccccccccccccccc"
};
