/* XPM */
static char *noname[] = {
/* width height ncolors chars_per_pixel */
"25 25 3 1",
/* colors */
"` c #000000",
"a c #0000AA",
"b c #FFFFFF",
/* pixels */
"`````````````````````````",
"`bb`bb`bb`bb`bb`bb`bb`bb`",
"`bb`bb`bb`bb`bb`bb`bb`bb`",
"`````````````````````````",
"`bb`bb`bb`aa`aa`aa`bb`bb`",
"`bb`bb`bb`aa`aa`aa`bb`bb`",
"`````````````````````````",
"`bb`bb`bb`aa`bb`aa`bb`bb`",
"`bb`bb`bb`aa`bb`aa`bb`bb`",
"`````````````````````````",
"`bb`aa`aa`bb`bb`bb`aa`bb`",
"`bb`aa`aa`bb`bb`bb`aa`bb`",
"`````````````````````````",
"`bb`aa`bb`bb`bb`bb`aa`bb`",
"`bb`aa`bb`bb`bb`bb`aa`bb`",
"`````````````````````````",
"`bb`aa`aa`aa`aa`aa`aa`bb`",
"`bb`aa`aa`aa`aa`aa`aa`bb`",
"`````````````````````````",
"`bb`bb`aa`bb`bb`aa`bb`bb`",
"`bb`bb`aa`bb`bb`aa`bb`bb`",
"`````````````````````````",
"`bb`bb`bb`bb`bb`bb`bb`bb`",
"`bb`bb`bb`bb`bb`bb`bb`bb`",
"`````````````````````````"
};
