/* XPM */
static char *xpm_find_bits[] = {
/* width height ncolors chars_per_pixel */
"16 16 3 1",
/* colors */
"` c #000000",
"a c #FFFFFF",
"b c #FFFFFF",
/* pixels */
"aa`b`aaaaa`b`aaa",
"a`bbb`aaa`bbb`aa",
"a`bbb`aaa`bbb`aa",
"`bbbbb`a`bbbbb`a",
"`bbbbb`a`bbbbb`a",
"`bbbbb`a`bbbbb`a",
"`bbbbb`a`bbbbb`a",
"`bbbbb`a`bbbbb`a",
"`bb``b`a`bb``b`a",
"`bb``b`a`bb``b`a",
"`bbbbb`a`bbbbb`a",
"`bbbbb`a`bbbbb`a",
"a`bbb`aaa`bbb`aa",
"a`bbb`aaa`bbb`aa",
"aa`b`aaaaa`b`aaa",
"aa```aaaaa```aaa"
};
