/* XPM */
static char *xpm_glossary_bits[] = {
/* width height ncolors chars_per_pixel */
"16 16 3 1",
/* colors */
"` c #000000",
"a c #FFFFFF",
"b c #FFFFFF",
/* pixels */
"aaaaaaaaaaaaaaaa",
"a``````aa``````a",
"`b`bbbb`bbbbb`b`",
"`b`bbbbb`bbbb`b`",
"`b`bbbb`bbbbb`b`",
"`b`bbbbb`bbbb`b`",
"`b`bbbb`bbbbb`b`",
"`b`bbbbb`bbbb`b`",
"`b`bbbb`bbbbb`b`",
"`b`bbbbb`bbbb`b`",
"`b`bbbb`bbbbb`b`",
"`b`````b``````b`",
"``b`b`b`b`b`b`b`",
"a``````b```````a",
"aaaaaaa``aaaaaaa",
"aaaaaaaaaaaaaaaa"
};
