/* XPM */
static char *xpm_index_bits[] = {
/* width height ncolors chars_per_pixel */
"16 16 3 1",
/* colors */
"` c #FFFFFF",
"a c #FFFFFF",
"b c #545454",
/* pixels */
"`````bbbbb``````",
"```bbbbbbbbb````",
"``bbbbbabbbbb```",
"`bbbbbaaabbbbb``",
"`bbbbbbabbbbbb``",
"bbbbbbbbbbbbbbb`",
"bbbbbaaaabbbbbb`",
"bbbbbbaaabbbbbb`",
"bbbbbbaaabbbbbb`",
"bbbbbbaaabbbbbb`",
"`bbbbbaaabbbbb``",
"`bbbbaaaaabbbb``",
"``bbbbbbbbbbb```",
"```bbbbbbbbb````",
"`````bbbbb``````",
"````````````````"
};
