/* XPM */
static char *xpm_next_bits[] = {
/* width height ncolors chars_per_pixel */
"16 16 4 1",
/* colors */
"` c #000000",
"a c #FFFFFF",
"b c #FFFFFF",
"c c #545454",
/* pixels */
"a``aaaaaaaaaaaaa",
"a`c``aaaaaaaaaaa",
"a`ccc``aaaaaaaaa",
"a`ccccc``aaaaaaa",
"a`ccccccc``aaaaa",
"a`ccccccccc``aaa",
"a`ccccccccccc``a",
"a`cccccccccccccb",
"a`cccccccccccbba",
"a`cccccccccbbaaa",
"a`cccccccbbaaaaa",
"a`cccccbbaaaaaaa",
"a`cccbbaaaaaaaaa",
"a`cbbaaaaaaaaaaa",
"a`baaaaaaaaaaaaa",
"aaaaaaaaaaaaaaaa"
};
