/* XPM */
static char *xpm_previous_bits[] = {
/* width height ncolors chars_per_pixel */
"16 16 4 1",
/* colors */
"` c #000000",
"a c #FFFFFF",
"b c #FFFFFF",
"c c #545454",
/* pixels */
"aaaaaaaaaaaaa``a",
"aaaaaaaaaaa``c`a",
"aaaaaaaaa``ccc`a",
"aaaaaaa``ccccc`a",
"aaaaa``ccccccc`a",
"aaa``ccccccccc`a",
"a``ccccccccccc`a",
"bccccccccccccc`a",
"abbccccccccccc`a",
"aaabbccccccccc`a",
"aaaaabbccccccc`a",
"aaaaaaabbccccc`a",
"aaaaaaaaabbccc`a",
"aaaaaaaaaaabbc`a",
"aaaaaaaaaaaaab`a",
"aaaaaaaaaaaaaaaa"
};
