/* XPM */
static char *xpm_printer_bits[] = {
/* width height ncolors chars_per_pixel */
"16 16 3 1",
/* colors */
"` c #000000",
"a c #A9A9A9",
"b c #FFFFFF",
/* pixels */
"bbbbbbbbbbbbbbbb",
"bb``````````bbbb",
"bb`bbbbbbbb`bbbb",
"bb`b`bbbb`b`bbbb",
"bb`bbb``bbb`bbbb",
"bb`b`bbbb`b`bbbb",
"bb`bbb``bbb`bbbb",
"bb`b`bbbb`b`bbbb",
"````````````````",
"`a`aaaaaaaa`a`a`",
"``````````````a`",
"`a`aaaaaaaa`a```",
"`a``````````a`bb",
"`aaaaaaaaaaaa`bb",
"``````````````bb",
"bbbbbbbbbbbbbbbb"
};
