#define BASHFUL1_width 64
#define BASHFUL1_height 64
static unsigned char BASHFUL1_bits[] = {
 0x00,0x00,0x00,0x00,0x00,0x00,0x00,0x00,0x00,0x00,0x00,0x00,0x00,0x00,0x00,
 0x00,0x00,0x00,0x00,0x00,0x00,0x00,0x00,0x00,0x00,0x00,0x00,0x00,0x00,0x00,
 0x00,0x00,0x00,0x00,0x00,0x00,0x00,0x00,0x00,0x00,0x00,0x00,0x00,0x00,0x00,
 0x00,0x00,0x00,0x00,0x00,0x00,0x00,0x00,0x00,0x00,0x00,0x00,0x40,0x00,0x40,
 0x00,0x00,0x00,0x00,0x00,0x40,0x00,0x20,0x00,0x00,0x00,0x00,0x00,0x40,0x00,
 0x10,0x00,0x00,0x00,0x00,0x00,0x80,0x07,0x10,0x00,0x00,0x00,0x00,0x00,0x00,
 0x04,0x08,0x00,0x00,0x00,0x00,0x00,0x00,0x08,0x04,0x00,0x00,0x00,0x00,0x00,
 0x00,0xe8,0x05,0x00,0x00,0x00,0x00,0x00,0x00,0xf8,0x07,0x00,0x00,0x00,0x00,
 0xc0,0x00,0x5c,0x0d,0x00,0x00,0x00,0x00,0xc0,0x03,0xac,0x0e,0x00,0x00,0x00,
 0x00,0x00,0x0f,0x5c,0x0d,0x00,0x00,0x00,0x00,0x00,0x3c,0xf8,0x07,0x00,0x00,
 0x00,0x00,0x00,0xf0,0xe0,0x01,0x00,0x00,0x00,0x00,0x00,0xc0,0xc3,0x00,0x00,
 0x00,0x00,0x00,0x00,0x00,0xff,0x0f,0x00,0x00,0x00,0x00,0x00,0x00,0xfc,0x0f,
 0x00,0x00,0x00,0x00,0x00,0x00,0xae,0x1e,0x00,0x00,0x00,0x00,0x00,0x00,0x56,
 0x1d,0x00,0x00,0x00,0x00,0x00,0x00,0xae,0x1a,0x00,0x00,0x00,0x00,0x00,0x00,
 0x56,0x15,0x00,0x00,0x00,0x00,0x00,0x00,0xaa,0x1a,0x00,0x00,0x00,0x00,0x00,
 0x00,0x56,0x15,0x00,0x00,0x00,0x00,0xc0,0xff,0xab,0xfa,0x03,0x00,0x00,0x00,
 0xc0,0xff,0x57,0xf5,0x7f,0x00,0x00,0x00,0x00,0x00,0xab,0x3a,0x7c,0x00,0x00,
 0x00,0x00,0x00,0x57,0x35,0x00,0x00,0x00,0x00,0x00,0x00,0xab,0x3a,0x00,0x00,
 0x00,0x00,0x00,0x00,0x57,0x35,0x00,0x00,0x00,0x00,0x00,0x00,0xab,0x3a,0x00,
 0x00,0x00,0x00,0x00,0x00,0x57,0x75,0x00,0x00,0x00,0x00,0x00,0x00,0xab,0xfa,
 0x01,0x00,0x00,0x00,0x00,0x00,0x57,0xbd,0x03,0x00,0x00,0x00,0x00,0x00,0xae,
 0x1e,0x06,0x00,0x00,0x00,0x00,0x00,0x5c,0x0f,0x1c,0x00,0x00,0x00,0x00,0x00,
 0xb8,0x06,0x38,0x00,0x00,0x00,0x00,0x00,0xf0,0x03,0x20,0x00,0x00,0x00,0x00,
 0x00,0xe0,0x01,0x00,0x00,0x00,0x00,0x00,0x00,0xc0,0x00,0x00,0x00,0x00,0x00,
 0x00,0x00,0x00,0x00,0x00,0x00,0x00,0x00,0x00,0x00,0x00,0x00,0x00,0x00,0x00,
 0x00,0x00,0x00,0x00,0x00,0x00,0x00,0x00,0x00,0x00,0x00,0x00,0x00,0x00,0x00,
 0x00,0x00,0x00,0x00,0x00,0x00,0x00,0x00,0x00,0x00,0x00,0x00,0x00,0x00,0x00,
 0x00,0x00,0x00,0x00,0x00,0x00,0x00,0x00,0x00,0x00,0x00,0x00,0x00,0x00,0x00,
 0x00,0x00,0x00,0x00,0x00,0x00,0x00,0x00,0x00,0x00,0x00,0x00,0x00,0x00,0x00,
 0x00,0x00,0x00,0x00,0x00,0x00,0x00,0x00,0x00,0x00,0x00,0x00,0x00,0x00,0x00,
 0x00,0x00,0x00,0x00,0x00,0x00,0x00,0x00,0x00,0x00,0x00,0x00,0x00,0x00,0x00,
 0x00,0x00,0x00,0x00,0x00,0x00,0x00,0x00,0x00,0x00,0x00,0x00,0x00,0x00,0x00,
 0x00,0x00,0x00,0x00,0x00,0x00,0x00,0x00,0x00,0x00,0x00,0x00,0x00,0x00,0x00,
 0x00,0x00,0x00,0x00,0x00,0x00,0x00,0x00,0x00,0x00,0x00,0x00,0x00,0x00,0x00,
 0x00,0x00};
