#define bluepics1_width 64
#define bluepics1_height 64
static unsigned char bluepics1_bits[] = {
 0x00,0x00,0x00,0x00,0x00,0x00,0x00,0x00,0x00,0x00,0x00,0x00,0x00,0x00,0x00,
 0x00,0x00,0x00,0x00,0x00,0x00,0x00,0x00,0x00,0x00,0x00,0x00,0x00,0x00,0x00,
 0x00,0x00,0x00,0x00,0x00,0x00,0x00,0x00,0x00,0x00,0x00,0x00,0x00,0x00,0x00,
 0x00,0x00,0x00,0x00,0x00,0x8c,0x81,0x01,0x00,0x00,0x00,0x00,0x00,0x18,0x83,
 0x01,0x00,0x00,0x00,0x00,0x00,0x18,0x83,0x01,0x00,0x00,0x00,0x00,0x00,0x18,
 0x83,0x01,0x00,0x00,0x00,0x00,0x00,0x18,0x86,0x01,0x00,0x00,0x00,0x00,0x00,
 0x18,0xcc,0x00,0x00,0x00,0x00,0x00,0x10,0x30,0xcc,0x00,0x00,0x00,0x00,0x00,
 0x10,0x30,0xcc,0x00,0x00,0x00,0x00,0x00,0x20,0x30,0x6c,0x00,0x00,0x00,0x00,
 0x00,0x20,0x30,0x6c,0x00,0x00,0x00,0x00,0x00,0x40,0x60,0x6c,0x7c,0x00,0x00,
 0x00,0x00,0x40,0xc0,0x3f,0x82,0x00,0x00,0x00,0x80,0x83,0x23,0x10,0x01,0x01,
 0x00,0x00,0x00,0x7c,0x24,0xa0,0x00,0x02,0x00,0x00,0x00,0x40,0x24,0xa0,0x00,
 0x04,0x00,0x00,0x00,0x20,0x28,0xa0,0x00,0x08,0x00,0x00,0x00,0x20,0x38,0xe0,
 0x00,0x10,0x00,0x00,0x00,0x20,0x38,0xe0,0x00,0x10,0x00,0x00,0x00,0x20,0x28,
 0xa0,0x00,0x08,0x00,0x00,0x00,0x40,0x24,0xa0,0x00,0x04,0x00,0x00,0x00,0x40,
 0x24,0xa0,0x00,0x02,0x00,0x00,0x00,0x80,0x23,0x10,0x01,0x01,0x00,0x00,0x00,
 0x00,0xc0,0x0f,0x82,0x00,0x00,0x00,0x00,0x00,0x00,0x00,0x7c,0x00,0x00,0x00,
 0x00,0x00,0x00,0x00,0x00,0x00,0x00,0x00,0x00,0x00,0x00,0x00,0x00,0x00,0x00,
 0x00,0x00,0x00,0x00,0x00,0x00,0x00,0x00,0x00,0x00,0x00,0x00,0x00,0x00,0x00,
 0x00,0x00,0x00,0x00,0x00,0x00,0x00,0x00,0x00,0x00,0x00,0x00,0x00,0x00,0x00,
 0x00,0x00,0x00,0x00,0x00,0x00,0x00,0x00,0x00,0x00,0x00,0x00,0x00,0x00,0x00,
 0x00,0x00,0x00,0x00,0x00,0x00,0x00,0x00,0x00,0x00,0x00,0x00,0x00,0x00,0x00,
 0x00,0x00,0x00,0x00,0x00,0x00,0x00,0x00,0x00,0x00,0x00,0x00,0x00,0x00,0x00,
 0x00,0x00,0x00,0x00,0x00,0x00,0x00,0x00,0x00,0x00,0x00,0x00,0x00,0x00,0x00,
 0x00,0x00,0x00,0x00,0x00,0x00,0x00,0x00,0x00,0x00,0x00,0x00,0x00,0x00,0x00,
 0x00,0x00,0x00,0x00,0x00,0x00,0x00,0x00,0x00,0x00,0x00,0x00,0x00,0x00,0x00,
 0x00,0x00,0x00,0x00,0x00,0x00,0x00,0x00,0x00,0x00,0x00,0x00,0x00,0x00,0x00,
 0x00,0x00,0x00,0x00,0x00,0x00,0x00,0x00,0x00,0x00,0x00,0x00,0x00,0x00,0x00,
 0x00,0x00,0x00,0x00,0x00,0x00,0x00,0x00,0x00,0x00,0x00,0x00,0x00,0x00,0x00,
 0x00,0x00,0x00,0x00,0x00,0x00,0x00,0x00,0x00,0x00,0x00,0x00,0x00,0x00,0x00,
 0x00,0x00,0x00,0x00,0x00,0x00,0x00,0x00,0x00,0x00,0x00,0x00,0x00,0x00,0x00,
 0x00,0x00,0x00,0x00,0x00,0x00,0x00,0x00,0x00,0x00,0x00,0x00,0x00,0x00,0x00,
 0x00,0x00,0x00,0x00,0x00,0x00,0x00,0x00,0x00,0x00,0x00,0x00,0x00,0x00,0x00,
 0x00,0x00,0x00,0x00,0x00,0x00,0x00,0x00,0x00,0x00,0x00,0x00,0x00,0x00,0x00,
 0x00,0x00,0x00,0x00,0x00,0x00,0x00,0x00,0x00,0x00,0x00,0x00,0x00,0x00,0x00,
 0x00,0x00};
