#define circleexplode5_width 64
#define circleexplode5_height 64
static unsigned char circleexplode5_bits[] = {
 0x00,0x80,0xff,0xff,0x3f,0x00,0x00,0x00,0x00,0x80,0xff,0xff,0x7f,0x00,0x00,
 0x00,0x00,0x80,0x7f,0xff,0x00,0x00,0x00,0x00,0x00,0x00,0x00,0xfc,0x00,0x00,
 0x00,0x00,0x00,0x00,0x00,0x00,0x00,0x00,0x00,0x00,0x00,0x00,0x00,0x00,0x00,
 0x00,0x00,0x00,0x00,0x00,0x00,0x00,0x00,0x00,0x00,0x00,0x00,0x00,0x00,0x00,
 0x00,0x00,0x00,0x00,0x00,0x00,0x00,0x00,0x00,0x00,0x00,0x00,0x00,0x00,0x00,
 0x00,0x00,0x00,0x00,0x00,0x00,0x00,0x00,0x00,0x00,0x00,0x00,0x00,0x00,0x00,
 0x00,0x00,0x00,0x00,0x00,0x00,0x00,0x00,0x00,0x00,0x00,0x00,0x00,0x00,0x00,
 0x00,0x00,0x04,0x00,0x00,0x00,0x00,0x00,0x00,0xc0,0x16,0x00,0x00,0x00,0x00,
 0x00,0x00,0xe0,0x00,0x00,0x00,0x00,0x00,0x00,0xcc,0xff,0xf3,0x00,0x00,0x00,
 0x00,0x00,0xe1,0xff,0x2f,0x00,0x00,0x00,0x00,0x80,0x02,0xfc,0xff,0x00,0x00,
 0x00,0x00,0x80,0xc4,0xff,0x7f,0x01,0x00,0x00,0x00,0x00,0xfe,0xff,0x7f,0x03,
 0x00,0x00,0x00,0xe0,0xff,0xff,0xbf,0x01,0x00,0x00,0x00,0xf0,0xff,0xff,0xdf,
 0x01,0x00,0x00,0x00,0xe4,0xff,0xff,0xef,0x02,0x00,0x00,0x00,0xec,0xff,0xff,
 0xef,0x00,0x00,0x00,0x00,0xec,0xff,0xff,0xf7,0x01,0x00,0x00,0x00,0xf8,0xff,
 0xff,0x7b,0x00,0x00,0x00,0x00,0x00,0x00,0x00,0x7c,0x00,0x00,0x00,0x00,0xd8,
 0xff,0xff,0x3f,0x00,0x00,0x00,0x00,0x00,0x00,0x00,0x1e,0x00,0x00,0x00,0x00,
 0xc0,0xff,0xff,0x07,0x08,0x00,0x00,0x00,0xe4,0xff,0x0f,0x7e,0x01,0x00,0x00,
 0x00,0xf0,0xff,0xff,0x0f,0x00,0x00,0x00,0x00,0xc0,0xff,0x7f,0x09,0x10,0x00,
 0x00,0x00,0x00,0xff,0x03,0x08,0x00,0x02,0x00,0x00,0x3e,0x00,0x20,0x00,0x0a,
 0x00,0x00,0x00,0x00,0xa0,0x21,0x00,0x00,0x0f,0x00,0x00,0x00,0x00,0x00,0x00,
 0x00,0x07,0x00,0x00,0x00,0x00,0x00,0x00,0x00,0x07,0x00,0x00,0x00,0x00,0x00,
 0x00,0x00,0x07,0x00,0x00,0x00,0x00,0x00,0x00,0x80,0x03,0x00,0x00,0x00,0x00,
 0x00,0x00,0x00,0x00,0x00,0x00,0x00,0x00,0x00,0x00,0x00,0x00,0x00,0x00,0x00,
 0x00,0x00,0x00,0x00,0x00,0x00,0x00,0x00,0x00,0x00,0x00,0x00,0x00,0x00,0x00,
 0x00,0x00,0x00,0x00,0x00,0x00,0x00,0x00,0x00,0x00,0x00,0x00,0x00,0x00,0x00,
 0x00,0x00,0x00,0x00,0x00,0x00,0x00,0x00,0x00,0x00,0x00,0x00,0x00,0x00,0x00,
 0x00,0x00,0x00,0x00,0x00,0x00,0x00,0x00,0x00,0x00,0x00,0x00,0x00,0x00,0x00,
 0x00,0x00,0x00,0x00,0x00,0x00,0x00,0x00,0x00,0x00,0x00,0x00,0x00,0x00,0x00,
 0x00,0x00,0x00,0x00,0x00,0x00,0x00,0x00,0x00,0x00,0x00,0x00,0x00,0x00,0x00,
 0x00,0x00,0x00,0x00,0x00,0x00,0x00,0x00,0x00,0x00,0x00,0x00,0x00,0x00,0x00,
 0x00,0x00,0x00,0x00,0x00,0x00,0x00,0x00,0x00,0x00,0x00,0x00,0x00,0x00,0x00,
 0x00,0x00,0x00,0x00,0x00,0x00,0x00,0x00,0x00,0x00,0x00,0x00,0x00,0x00,0x00,
 0x00,0x00,0x00,0x00,0x00,0x00,0x00,0x00,0x00,0x00,0x00,0x00,0x00,0x00,0x00,
 0x00,0x00,0x00,0x00,0x00,0x00,0x00,0x00,0x00,0x00,0x00,0x00,0x00,0x00,0x00,
 0x00,0x00};
