#define fruit3_width 64
#define fruit3_height 64
static unsigned char fruit3_bits[] = {
 0x00,0x00,0x00,0x00,0x00,0x00,0x00,0x00,0x00,0x00,0x00,0x00,0x00,0x00,0x00,
 0x00,0x00,0x00,0x03,0x00,0x00,0x00,0x00,0x00,0x00,0x80,0x04,0x00,0x00,0x00,
 0x00,0x00,0x00,0x40,0x08,0x00,0x00,0x00,0x00,0x00,0x00,0x40,0x08,0x00,0x00,
 0x00,0x00,0x00,0x00,0x20,0x08,0x00,0x00,0x00,0x00,0x00,0x00,0x20,0x08,0x00,
 0x00,0x00,0x00,0x00,0x00,0x10,0x09,0x00,0x00,0x00,0x00,0x00,0x00,0x10,0x0a,
 0x00,0x00,0x00,0x00,0x00,0x00,0x08,0x88,0x07,0x00,0x00,0x00,0x00,0x70,0x08,
 0xc8,0x0f,0x00,0x00,0x00,0x00,0xfc,0x09,0xe8,0x18,0x00,0x00,0x00,0x00,0x86,
 0x0b,0x38,0x30,0x00,0x00,0x00,0x00,0x3e,0x0e,0x88,0x7f,0x00,0x00,0x00,0x00,
 0xff,0x08,0x68,0x70,0x00,0x00,0x00,0x00,0xbf,0x09,0x34,0x00,0x00,0x00,0x00,
 0x00,0xff,0x0a,0x1c,0x00,0x00,0x00,0x00,0x00,0x87,0x0d,0x1c,0x00,0x00,0x00,
 0x00,0x00,0x03,0x07,0x1c,0x00,0x00,0x00,0x00,0x00,0x01,0x0e,0x1e,0x00,0x00,
 0x00,0x00,0x00,0x01,0x0c,0x1e,0x00,0x00,0x00,0x00,0x00,0x00,0x1c,0x1f,0x00,
 0x00,0x00,0x00,0x00,0x00,0xf8,0x3f,0x00,0x00,0x00,0x00,0x00,0x00,0xf0,0x7f,
 0x00,0x00,0x00,0x00,0x00,0x00,0xf0,0x7f,0x00,0x00,0x00,0x00,0x00,0x00,0xf0,
 0xff,0x00,0x00,0x00,0x00,0x00,0x00,0xe0,0xff,0x01,0x00,0x00,0x00,0x00,0x00,
 0xe0,0xef,0x03,0x00,0x00,0x00,0x00,0x00,0xc0,0xef,0x07,0x00,0x00,0x00,0x00,
 0x00,0xc0,0xff,0x1f,0x00,0x00,0x00,0x00,0x00,0x80,0xff,0x3f,0x00,0x00,0x00,
 0x00,0x00,0x80,0xff,0xff,0x00,0x00,0x00,0x00,0x00,0x00,0xff,0xff,0x01,0x00,
 0x00,0x00,0x00,0x00,0xfe,0xff,0x03,0x00,0x00,0x00,0x00,0x00,0xfc,0xfd,0x0f,
 0x00,0x00,0x00,0x00,0x00,0xf8,0xfb,0x3f,0x00,0x00,0x00,0x00,0x00,0xf0,0xe7,
 0xff,0x00,0x00,0x00,0x00,0x00,0xc0,0x9f,0xff,0x03,0x00,0x00,0x00,0x00,0x00,
 0xff,0xff,0x07,0x00,0x00,0x00,0x00,0x00,0xfc,0xff,0x0f,0x00,0x00,0x00,0x00,
 0x00,0xf0,0xff,0x1f,0x00,0x00,0x00,0x00,0x00,0x00,0xff,0x1f,0x00,0x00,0x00,
 0x00,0x00,0x00,0xe0,0x0f,0x00,0x00,0x00,0x00,0x00,0x00,0x00,0x00,0x00,0x00,
 0x00,0x00,0x00,0x00,0x00,0x00,0x00,0x00,0x00,0x00,0x00,0x00,0x00,0x00,0x00,
 0x00,0x00,0x00,0x00,0x00,0x00,0x00,0x00,0x00,0x00,0x00,0x00,0x00,0x00,0x00,
 0x00,0x00,0x00,0x00,0x00,0x00,0x00,0x00,0x00,0x00,0x00,0x00,0x00,0x00,0x00,
 0x00,0x00,0x00,0x00,0x00,0x00,0x00,0x00,0x00,0x00,0x00,0x00,0x00,0x00,0x00,
 0x00,0x00,0x00,0x00,0x00,0x00,0x00,0x00,0x00,0x00,0x00,0x00,0x00,0x00,0x00,
 0x00,0x00,0x00,0x00,0x00,0x00,0x00,0x00,0x00,0x00,0x00,0x00,0x00,0x00,0x00,
 0x00,0x00,0x00,0x00,0x00,0x00,0x00,0x00,0x00,0x00,0x00,0x00,0x00,0x00,0x00,
 0x00,0x00,0x00,0x00,0x00,0x00,0x00,0x00,0x00,0x00,0x00,0x00,0x00,0x00,0x00,
 0x00,0x00,0x00,0x00,0x00,0x00,0x00,0x00,0x00,0x00,0x00,0x00,0x00,0x00,0x00,
 0x00,0x00,0x00,0x00,0x00,0x00,0x00,0x00,0x00,0x00,0x00,0x00,0x00,0x00,0x00,
 0x00,0x00};
