#define cdesk_width 16
#define cdesk_height 16
static char cdesk_bits[] = {
   0xff, 0xff, 0xff, 0xff, 0x4b, 0xd2, 0x93, 0xe4, 0x27, 0xc9, 0x4b, 0xd2,
   0x93, 0xe4, 0x27, 0xc9, 0x4b, 0xd2, 0x93, 0xe4, 0x27, 0xc9, 0x4b, 0xd2,
   0x93, 0xe4, 0x27, 0xc9, 0xff, 0xff, 0xff, 0xff};
