#define cercle3_width 11
#define cercle3_height 12
#define cercle3_x_hot -1
#define cercle3_y_hot -1
static char cercle3_bits[] = {
   0xf8, 0xf8, 0xfc, 0xf9, 0x06, 0xfb, 0x03, 0xfe, 0x03, 0xfe, 0x03, 0xfe,
   0x03, 0xfe, 0x03, 0xfe, 0x06, 0xfb, 0xfc, 0xf9, 0xf8, 0xf8, 0x00, 0xf8};
