#define cicon_width 16
#define cicon_height 16
static char cicon_bits[] = {
   0x00, 0x00, 0x00, 0x00, 0xfc, 0x3f, 0x04, 0x20, 0x64, 0x20, 0x64, 0x20,
   0x04, 0x20, 0x64, 0x20, 0x64, 0x20, 0x64, 0x20, 0x64, 0x24, 0xc4, 0x26,
   0x84, 0x23, 0x04, 0x20, 0xfc, 0x3f, 0x00, 0x00};
