#define close_width 13
#define close_height 13
#define close_x_hot -1
#define close_y_hot -1
static char close_bits[] = {
   0x00, 0x00, 0x06, 0x0c, 0x0e, 0x0e, 0x1c, 0x07, 0xb8, 0x03, 0xf0, 0x01,
   0xe0, 0x00, 0xf0, 0x01, 0xb8, 0x03, 0x1c, 0x07, 0x0e, 0x0e, 0x06, 0x0c,
   0x00, 0x00};
