#define combo3_width 11
#define combo3_height 11
#define combo3_x_hot -1
#define combo3_y_hot -1
static char combo3_bits[] = {
   0x00, 0x00, 0x00, 0x00, 0x00, 0x02, 0x00, 0x03, 0x00, 0x03, 0x00, 0x03,
   0x00, 0x03, 0x00, 0x03, 0xf8, 0x03, 0xfc, 0x03, 0x00, 0x00};
