#define combo2_width 11
#define combo2_height 11
#define combo2_x_hot -1
#define combo2_y_hot -1
static char combo2_bits[] = {
   0x00, 0x00, 0xfe, 0x03, 0xfe, 0x01, 0x06, 0x00, 0x06, 0x00, 0x06, 0x00,
   0x06, 0x00, 0x06, 0x00, 0x06, 0x00, 0x02, 0x00, 0x00, 0x00};
