#define down4g_width 11
#define down4g_height 11
#define down4g_x_hot -1
#define down4g_y_hot -1
static char down4g_bits[] = {
   0x00, 0x00, 0xfe, 0x01, 0x02, 0x00, 0x04, 0x00, 0x04, 0x00, 0x08, 0x00,
   0x08, 0x00, 0x10, 0x00, 0x10, 0x00, 0x00, 0x00, 0x00, 0x00};
