#define down4l_width 11
#define down4l_height 11
#define down4l_x_hot -1
#define down4l_y_hot -1
static char down4l_bits[] = {
   0x00, 0x00, 0x00, 0x02, 0x00, 0x02, 0x00, 0x01, 0x00, 0x01, 0x80, 0x00,
   0x80, 0x00, 0x40, 0x00, 0x40, 0x00, 0x20, 0x00, 0x00, 0x00};
