#define graytil_width 8
#define graytil_height 8
#define graytil_x_hot -1
#define graytil_y_hot -1
static char graytil_bits[] = {
   0x55, 0xaa, 0x55, 0xaa, 0x55, 0xaa, 0x55, 0xaa};
