#define mbric_width 16
#define mbric_height 16
static char mbric_bits[] = {
   0xff, 0xff, 0x11, 0x11, 0x11, 0x11, 0x11, 0x11, 0xff, 0xff, 0x44, 0x44,
   0x44, 0x44, 0x44, 0x44, 0xff, 0xff, 0x11, 0x11, 0x11, 0x11, 0x11, 0x11,
   0xff, 0xff, 0x44, 0x44, 0x44, 0x44, 0x44, 0x44};
