#define mgray2_width 16
#define mgray2_height 16
static char mgray2_bits[] = {
   0x11, 0x11, 0x44, 0x44, 0x11, 0x11, 0x44, 0x44, 0x11, 0x11, 0x44, 0x44,
   0x11, 0x11, 0x44, 0x44, 0x11, 0x11, 0x44, 0x44, 0x11, 0x11, 0x44, 0x44,
   0x11, 0x11, 0x44, 0x44, 0x11, 0x11, 0x44, 0x44};
