#define popup3_width 21
#define popup3_height 21
static char popup3_bits[] = {
   0x00, 0x00, 0x00, 0x00, 0x00, 0x00, 0x80, 0x3f, 0x00, 0xe0, 0xe0, 0x00,
   0x30, 0x80, 0x01, 0x18, 0x00, 0x00, 0x08, 0x00, 0x00, 0x0c, 0x00, 0x00,
   0x04, 0x00, 0x00, 0x04, 0x00, 0x00, 0x04, 0x00, 0x00, 0x04, 0x00, 0x00,
   0x04, 0x00, 0x00, 0x0c, 0x00, 0x00, 0x08, 0x00, 0x00, 0x18, 0x00, 0x00,
   0x30, 0x00, 0x00, 0x60, 0x00, 0x00, 0x00, 0x00, 0x00, 0x00, 0x00, 0x00,
   0x00, 0x00, 0x00};
