#define rightMmask_width 11
#define rightMmask_height 11
static char rightMmask_bits[] = {
   0x00, 0x00, 0x06, 0x00, 0x1a, 0x00, 0x62, 0x00, 0x82, 0x01, 0x02, 0x02,
   0x82, 0x01, 0x62, 0x00, 0x1a, 0x00, 0x06, 0x00, 0x00, 0x00};
