#define up_width 11
#define up_height 11
#define up_x_hot -1
#define up_y_hot -1
static char up_bits[] = {
   0x00, 0xf8, 0x20, 0xf8, 0x70, 0xf8, 0x70, 0xf8, 0xf8, 0xf8, 0xf8, 0xf8,
   0xfc, 0xf9, 0xfc, 0xf9, 0xfe, 0xfb, 0xfe, 0xfb, 0x00, 0xf8};
