#define up4g_width 11
#define up4g_height 11
static char up4g_bits[] = {
   0x00, 0x00, 0x20, 0x00, 0x10, 0x00, 0x10, 0x00, 0x08, 0x00, 0x08, 0x00,
   0x04, 0x00, 0x04, 0x00, 0x02, 0x00, 0x02, 0x00, 0x00, 0x00};
