#define up4l_width 11
#define up4l_height 11
static char up4l_bits[] = {
   0x00, 0x00, 0x00, 0x00, 0x40, 0x00, 0x40, 0x00, 0x80, 0x00, 0x80, 0x00,
   0x00, 0x01, 0x00, 0x01, 0x00, 0x02, 0xfc, 0x03, 0x00, 0x00};
