#define upMmask_width 11
#define upMmask_height 11
static char upMmask_bits[] = {
   0x00, 0x00, 0x20, 0x00, 0x50, 0x00, 0x50, 0x00, 0x88, 0x00, 0x88, 0x00,
   0x04, 0x01, 0x04, 0x01, 0x02, 0x02, 0xfe, 0x03, 0x00, 0x00};
