#define val1_width 25
#define val1_height 15
#define val1_x_hot -1
#define val1_y_hot -1
static char val1_bits[] = {
   0x00, 0x1e, 0xfe, 0x01, 0x00, 0x1f, 0xfe, 0x00, 0x80, 0x19, 0x06, 0x00,
   0xc0, 0x18, 0x06, 0x00, 0x60, 0xf8, 0x07, 0x00, 0x30, 0xf8, 0x07, 0x00,
   0x18, 0x00, 0x00, 0x00, 0x0c, 0x00, 0x00, 0x00, 0x18, 0x00, 0x00, 0x00,
   0x30, 0x00, 0x00, 0x00, 0x60, 0x00, 0x00, 0x00, 0xc0, 0x00, 0x00, 0x00,
   0x80, 0x01, 0x00, 0x00, 0x00, 0x07, 0x00, 0x00, 0x00, 0x0e, 0x00, 0x00};
