#define val2_width 25
#define val2_height 15
#define val2_x_hot -1
#define val2_y_hot -1
static char val2_bits[] = {
   0x00, 0x00, 0x00, 0x00, 0x00, 0x00, 0x00, 0x01, 0x00, 0x00, 0x80, 0x01,
   0x00, 0x00, 0x80, 0x01, 0x00, 0x00, 0x80, 0x01, 0x00, 0x00, 0x80, 0x01,
   0x00, 0x00, 0x80, 0x01, 0x00, 0x00, 0x80, 0x01, 0x00, 0x00, 0x80, 0x01,
   0x00, 0xf8, 0xff, 0x01, 0x00, 0xf8, 0xff, 0x01, 0x00, 0x18, 0x00, 0x00,
   0x00, 0x18, 0x00, 0x00, 0x00, 0x18, 0x00, 0x00, 0x00, 0x10, 0x00, 0x00};
