/* XPM */
static char * mgdiff_xpm[] = {
"50 50 3 1",
" 	s None	c None",
".	c black",
"X	c white",
"                                                  ",
"                                                  ",
"                                                  ",
"                                                  ",
"                 ..                ..             ",
"      ............                ..              ",
"    ..                            .. ...          ",
"   ..     ..      .             ... ..            ",
" ..   ....     ....    ..........  ..   ...       ",
"     .     ....   ......     .. .........         ",
"   ..   ....  ....          .  ..  .. ...  ....   ",
"  ..   ..   ..     .................    ....      ",
" ..  ..   ..     .................... .....       ",
" .  ..  ...   .........................    ..     ",
".  ..X...   ............................    .     ",
"  .  ..    ............X......X.X..X....     ..   ",
"    .    ..........X.X...X.X.X.X.X.XXX...     .   ",
"   .    .......XX..X..X.....X.X.X.X.X.X...        ",
"  .    ....XXXX.X.X.X........X.X.X....XX....      ",
" .    ...XX.X.XXX.....X.......X.X.X.XX.......     ",
" .   ...X.XXX.X.X..X.X.........X.X..X.XXX.....    ",
".......XXXX.XXXXX.X...X.......X.X.X..X...X.....   ",
"......XX.XXXXXX.X.X..X.X.....XXX.X..XXXXX.XXX.....",
"......XXXX..X.XXX.....X.X...XX.XX.X.XX...XX...X...",
".....XX.X.XXXXX.XX.X.X.X.X.XX..X.X.XXXXX.XX.X...XX",
"  .X..XXX.X.X.XXXX..X.X.X.X.X.X.X..XXXX.XX..X..X..",
"  .X..X.XXXXXX.X.XX..X.X.X.X.X.X..XXXXXXX...X.X.  ",
"  ...X.XXX..X.XXXX.X..X.X.X.X.X..XXXXXXX..XX.X.   ",
"   ......XXX.X.X.XXXX..X.X.X.X..XXXXXXX..X....    ",
"    .X.X....XXXXXX.X.XX.......XXXXXXXXX.XXX. ..   ",
"     ..X.X...XX..X.X.XXXXXXXXXXXXXXXX..XXX..   .  ",
"      ..X.XX.....XXXXXXXXXXXXXXXXX....X....    .  ",
"        ....X.X...................XXXXXXX...      ",
"          .....X.XXXXXXXXXXXXXXXXXXX.....  ..     ",
"              ....XXXXXXXXXXXXXXXX......    ..    ",
"                 ....XXXXXXXXXXX... .  ..         ",
"                     ............   .   ..        ",
"                                         ..       ",
"                                          .       ",
"                  .         ..     ..             ",
"                  .   .    .  .   .  .            ",
"                  .        .      .               ",
"               ....  ..    .      .               ",
"              .   .   .   ....   ....             ",
"              .   .   .    .      .               ",
"              .   .   .    .      .               ",
"              .   .   .    .      .               ",
"               ....  ...   .      .               ",
"                                                  ",
"                                                  "};
