#define grey16_width 16
#define grey16_height 16
static char grey16_bits[] = {
   0x88, 0x88, 0x0, 0x0, 0x0, 0x0, 0x0, 0x0, 0x88, 0x88, 0x0, 0x0,
   0x0, 0x0, 0x0, 0x0, 0x88, 0x88, 0x0, 0x0, 0x0, 0x0, 0x0, 0x0,
   0x88, 0x88, 0x0, 0x0, 0x0, 0x0, 0x0, 0x0 };
