#define grey64_width 16
#define grey64_height 16
static char grey64_bits[] = {
   0xaa, 0xaa, 0x0, 0x0, 0xaa, 0xaa, 0x0, 0x0, 0xaa, 0xaa, 0x0, 0x0,
   0xaa, 0xaa, 0x0, 0x0, 0xaa, 0xaa, 0x0, 0x0, 0xaa, 0xaa, 0x0, 0x0,
   0xaa, 0xaa, 0x0, 0x0, 0xaa, 0xaa, 0x0, 0x0 };
