#define file_width 16
#define file_height 16
static char file_bits[] = {
   0x00, 0x00, 0xfe, 0x7f, 0x02, 0x40, 0xc2, 0x4f, 0x02, 0x40, 0xf2, 0x4f,
   0x02, 0x40, 0xf2, 0x4f, 0x02, 0x40, 0xf2, 0x4f, 0x02, 0x40, 0xf2, 0x4f,
   0x02, 0x40, 0x02, 0x40, 0xfe, 0x7f, 0x00, 0x00};
