#define find_width 16
#define find_height 16
static char find_bits[] = {
   0x1c, 0x1c, 0x3e, 0x3e, 0x3e, 0x3e, 0x7f, 0x7f, 0x7f, 0x7f, 0x7f, 0x7f,
   0x7f, 0x7f, 0x7f, 0x7f, 0x7f, 0x7f, 0x7f, 0x7f, 0x7f, 0x7f, 0x7f, 0x7f,
   0x3e, 0x3e, 0x3e, 0x3e, 0x1c, 0x1c, 0x1c, 0x1c};
