#define help1_width 40
#define help1_height 40
static char help1_bits[] = {
   0x00, 0x00, 0x00, 0x00, 0x00, 0x00, 0x00, 0x00, 0x00, 0x00, 0x00, 0x00,
   0x00, 0x00, 0x00, 0x00, 0x00, 0x00, 0x00, 0x00, 0xf0, 0xff, 0xff, 0xff,
   0x00, 0xf0, 0xff, 0xff, 0xbf, 0x00, 0x50, 0x00, 0x00, 0xc0, 0x00, 0xb0,
   0x01, 0x00, 0x80, 0x00, 0x50, 0xfe, 0xff, 0xff, 0x0f, 0x90, 0x11, 0x00,
   0x00, 0x08, 0x10, 0xde, 0x9f, 0xfc, 0x0b, 0x10, 0x50, 0x20, 0x02, 0x0a,
   0xd0, 0x10, 0xc0, 0x01, 0x08, 0x50, 0x13, 0x00, 0x00, 0x08, 0x50, 0x52,
   0x02, 0x20, 0x0a, 0xd0, 0x52, 0x00, 0x00, 0x0a, 0x10, 0x53, 0x08, 0x08,
   0x0a, 0x30, 0x50, 0x30, 0x06, 0x0a, 0x50, 0x50, 0x30, 0x06, 0x0a, 0xb0,
   0x51, 0x40, 0x01, 0x0a, 0x50, 0x9e, 0x80, 0x00, 0x09, 0x90, 0x11, 0xfe,
   0x7f, 0x08, 0x10, 0x9e, 0x80, 0x00, 0x09, 0x30, 0x50, 0x40, 0x01, 0x0a,
   0x50, 0x50, 0x30, 0x06, 0x0a, 0xb0, 0x51, 0x30, 0x06, 0x0a, 0x50, 0x5e,
   0x08, 0x08, 0x0a, 0x90, 0x51, 0x00, 0x00, 0x0a, 0x10, 0x5e, 0x02, 0x20,
   0x0a, 0x10, 0x50, 0x00, 0x00, 0x0a, 0x30, 0x10, 0x00, 0x00, 0x08, 0x50,
   0x10, 0xc0, 0x01, 0x08, 0xa0, 0x51, 0x20, 0x02, 0x0a, 0x40, 0xde, 0xbf,
   0xfe, 0x0b, 0x80, 0x11, 0x00, 0x00, 0x08, 0x00, 0xfe, 0xff, 0xff, 0x0f,
   0x00, 0x00, 0x00, 0x00, 0x00, 0x00, 0x00, 0x00, 0x00, 0x00, 0x00, 0x00,
   0x00, 0x00, 0x00, 0x00, 0x00, 0x00, 0x00, 0x00};
