#define stack_width 16
#define stack_height 16
static char stack_bits[] = {
   0x00, 0x00, 0x00, 0x00, 0xf0, 0x07, 0x8c, 0x18, 0xc2, 0x21, 0x0c, 0x18,
   0xf2, 0x27, 0x0c, 0x18, 0xf2, 0x27, 0x0c, 0x18, 0xf2, 0x27, 0x0c, 0x18,
   0xf0, 0x07, 0x00, 0x00, 0x00, 0x00, 0x00, 0x00};
