#define stop2_width 32
#define stop2_height 32
static char stop2_bits[] = {
   0x00, 0x00, 0x00, 0x00, 0x00, 0xfc, 0x3f, 0x00, 0x00, 0x02, 0x40, 0x00,
   0x00, 0x01, 0x80, 0x00, 0x80, 0x00, 0x00, 0x01, 0x40, 0x00, 0x00, 0x02,
   0x20, 0x00, 0x00, 0x04, 0x10, 0x00, 0x00, 0x08, 0x08, 0x00, 0x00, 0x10,
   0x04, 0x00, 0x00, 0x20, 0xe2, 0x7c, 0xce, 0x43, 0x12, 0x11, 0x51, 0x44,
   0x12, 0x10, 0x51, 0x44, 0x12, 0x10, 0x51, 0x44, 0x22, 0x10, 0x51, 0x44,
   0x42, 0x10, 0xd1, 0x43, 0x82, 0x10, 0x51, 0x40, 0x02, 0x11, 0x51, 0x40,
   0x02, 0x11, 0x51, 0x40, 0x02, 0x11, 0x51, 0x40, 0x12, 0x11, 0x51, 0x40,
   0xe2, 0x10, 0x4e, 0x40, 0x04, 0x00, 0x00, 0x20, 0x08, 0x00, 0x00, 0x10,
   0x10, 0x00, 0x00, 0x08, 0x20, 0x00, 0x00, 0x04, 0x40, 0x00, 0x00, 0x02,
   0x80, 0x00, 0x00, 0x01, 0x00, 0x01, 0x80, 0x00, 0x00, 0x02, 0x40, 0x00,
   0x00, 0xfc, 0x3f, 0x00, 0x00, 0x00, 0x00, 0x00};
