#define warning3_width 32
#define warning3_height 32
static char warning3_bits[] = {
   0x00, 0x00, 0x00, 0x00, 0x00, 0xf8, 0x1f, 0x00, 0x00, 0x06, 0x60, 0x00,
   0x80, 0x01, 0x80, 0x01, 0x40, 0x00, 0x00, 0x02, 0x20, 0x00, 0x00, 0x04,
   0x10, 0x00, 0x00, 0x08, 0x08, 0x00, 0x00, 0x10, 0x08, 0x00, 0x00, 0x10,
   0x04, 0x00, 0x00, 0x20, 0x04, 0x00, 0x00, 0x20, 0x02, 0x00, 0x00, 0x40,
   0x02, 0x00, 0x00, 0x40, 0x02, 0x00, 0x00, 0x40, 0x02, 0x00, 0x00, 0x40,
   0x02, 0x00, 0x00, 0x40, 0x02, 0x00, 0x00, 0x40, 0x02, 0x00, 0x00, 0x40,
   0x02, 0x00, 0x00, 0x40, 0x02, 0x00, 0x00, 0x40, 0x02, 0x00, 0x00, 0x40,
   0x04, 0x00, 0x00, 0x20, 0x04, 0x00, 0x00, 0x20, 0x08, 0x00, 0x00, 0x10,
   0x08, 0x00, 0x00, 0x10, 0x10, 0x00, 0x00, 0x08, 0x20, 0x00, 0x00, 0x04,
   0x40, 0x00, 0x00, 0x02, 0x80, 0x01, 0x80, 0x01, 0x00, 0x06, 0x60, 0x00,
   0x00, 0xf8, 0x1f, 0x00, 0x00, 0x00, 0x00, 0x00};
