#define BASHFUL0_width 64
#define BASHFUL0_height 64
static unsigned char BASHFUL0_bits[] = {
 0x00,0x00,0x00,0x00,0x00,0x00,0x00,0x00,0x00,0x00,0x00,0x00,0x00,0x00,0x00,
 0x00,0x00,0x00,0x00,0x00,0x00,0x00,0x00,0x00,0x00,0x00,0x00,0x00,0x00,0x00,
 0x00,0x00,0x00,0x00,0x00,0x00,0x00,0x00,0x00,0x00,0x00,0x00,0x00,0x00,0x00,
 0x00,0x00,0x00,0x00,0x00,0x00,0x00,0x00,0x00,0x00,0x00,0x00,0x00,0x01,0x80,
 0x00,0x00,0x00,0x00,0x00,0x00,0x01,0x80,0x00,0x00,0x00,0x00,0x00,0x00,0x02,
 0x80,0x00,0x00,0x00,0x00,0x00,0x00,0x02,0x78,0x00,0x00,0x00,0x00,0x00,0x00,
 0x04,0x08,0x00,0x00,0x00,0x00,0x00,0x00,0x08,0x04,0x00,0x00,0x00,0x00,0x00,
 0x00,0xe8,0x05,0x00,0x00,0x00,0x00,0x00,0x00,0xf8,0x07,0x00,0x00,0x00,0x00,
 0x00,0x00,0xac,0x0e,0xc0,0x00,0x00,0x00,0x00,0x00,0x5c,0x0d,0xf0,0x00,0x00,
 0x00,0x00,0x00,0xac,0x0e,0x3c,0x00,0x00,0x00,0x00,0x00,0xf8,0x07,0x0f,0x00,
 0x00,0x00,0x00,0x00,0xe0,0xc1,0x03,0x00,0x00,0x00,0x00,0x00,0xc0,0xf0,0x00,
 0x00,0x00,0x00,0x00,0x00,0xfc,0x3f,0x00,0x00,0x00,0x00,0x00,0x00,0xfc,0x0f,
 0x00,0x00,0x00,0x00,0x00,0x00,0x5e,0x1d,0x00,0x00,0x00,0x00,0x00,0x00,0xae,
 0x1a,0x00,0x00,0x00,0x00,0x00,0x00,0x56,0x1d,0x00,0x00,0x00,0x00,0x00,0x00,
 0xaa,0x1a,0x00,0x00,0x00,0x00,0x00,0x00,0x56,0x15,0x00,0x00,0x00,0x00,0x00,
 0x00,0xaa,0x1a,0x00,0x00,0x00,0x00,0x00,0xf0,0x57,0xf5,0xff,0x00,0x00,0x00,
 0x80,0xff,0xab,0xfa,0xff,0x00,0x00,0x00,0x80,0x0f,0x57,0x35,0x00,0x00,0x00,
 0x00,0x00,0x00,0xab,0x3a,0x00,0x00,0x00,0x00,0x00,0x00,0x57,0x35,0x00,0x00,
 0x00,0x00,0x00,0x00,0xab,0x3a,0x00,0x00,0x00,0x00,0x00,0x00,0x57,0x35,0x00,
 0x00,0x00,0x00,0x00,0x80,0xab,0x3a,0x00,0x00,0x00,0x00,0x00,0xe0,0x57,0x35,
 0x00,0x00,0x00,0x00,0x00,0x70,0xaf,0x3a,0x00,0x00,0x00,0x00,0x00,0x18,0x5e,
 0x1d,0x00,0x00,0x00,0x00,0x00,0x0e,0xbc,0x0e,0x00,0x00,0x00,0x00,0x00,0x07,
 0x58,0x07,0x00,0x00,0x00,0x00,0x00,0x01,0xf0,0x03,0x00,0x00,0x00,0x00,0x00,
 0x00,0xe0,0x01,0x00,0x00,0x00,0x00,0x00,0x00,0xc0,0x00,0x00,0x00,0x00,0x00,
 0x00,0x00,0x00,0x00,0x00,0x00,0x00,0x00,0x00,0x00,0x00,0x00,0x00,0x00,0x00,
 0x00,0x00,0x00,0x00,0x00,0x00,0x00,0x00,0x00,0x00,0x00,0x00,0x00,0x00,0x00,
 0x00,0x00,0x00,0x00,0x00,0x00,0x00,0x00,0x00,0x00,0x00,0x00,0x00,0x00,0x00,
 0x00,0x00,0x00,0x00,0x00,0x00,0x00,0x00,0x00,0x00,0x00,0x00,0x00,0x00,0x00,
 0x00,0x00,0x00,0x00,0x00,0x00,0x00,0x00,0x00,0x00,0x00,0x00,0x00,0x00,0x00,
 0x00,0x00,0x00,0x00,0x00,0x00,0x00,0x00,0x00,0x00,0x00,0x00,0x00,0x00,0x00,
 0x00,0x00,0x00,0x00,0x00,0x00,0x00,0x00,0x00,0x00,0x00,0x00,0x00,0x00,0x00,
 0x00,0x00,0x00,0x00,0x00,0x00,0x00,0x00,0x00,0x00,0x00,0x00,0x00,0x00,0x00,
 0x00,0x00,0x00,0x00,0x00,0x00,0x00,0x00,0x00,0x00,0x00,0x00,0x00,0x00,0x00,
 0x00,0x00,0x00,0x00,0x00,0x00,0x00,0x00,0x00,0x00,0x00,0x00,0x00,0x00,0x00,
 0x00,0x00};
