#define left_width 64
#define left_height 64
static unsigned char left_bits[] = {
 0xff,0xff,0xff,0xff,0xff,0x0f,0x00,0x00,0xff,0xff,0xff,0xff,0xff,0x0f,0x00,
 0x00,0x03,0x00,0x00,0x00,0x00,0x0c,0x00,0x00,0x03,0x00,0x00,0x00,0x00,0x0c,
 0x00,0x00,0x03,0x00,0x00,0x00,0x00,0x0c,0x00,0x00,0x03,0x00,0x00,0x00,0x00,
 0x0c,0x00,0x00,0x03,0x00,0x00,0x00,0x00,0x0c,0x00,0x00,0x03,0x00,0x00,0x00,
 0x00,0x0c,0x00,0x00,0x03,0x00,0x08,0x00,0x00,0x0c,0x00,0x00,0x03,0x00,0x0c,
 0x00,0x00,0x0c,0x00,0x00,0x03,0x00,0x0e,0x00,0x00,0x0c,0x00,0x00,0x03,0x00,
 0x0f,0x00,0x00,0x0c,0x00,0x00,0x03,0x80,0x0f,0x00,0x00,0x0c,0x00,0x00,0x03,
 0xc0,0x0f,0x00,0x00,0x0c,0x00,0x00,0x03,0xe0,0x0f,0x00,0x00,0x0c,0x00,0x00,
 0x03,0xf0,0x0f,0x00,0x00,0x0c,0x00,0x00,0x03,0xf8,0xff,0xff,0xff,0x0c,0x00,
 0x00,0x03,0xfc,0xff,0xff,0xff,0x0c,0x00,0x00,0x03,0xfe,0xff,0xff,0xff,0x0c,
 0x00,0x00,0x03,0xff,0xff,0xff,0xff,0x0c,0x00,0x00,0x83,0xff,0xff,0xff,0xff,
 0x0c,0x00,0x00,0xc3,0xff,0xff,0xff,0xff,0x0c,0x00,0x00,0xc3,0xff,0xff,0xff,
 0xff,0x0c,0x00,0x00,0x83,0xff,0xff,0xff,0xff,0x0c,0x00,0x00,0x03,0xff,0xff,
 0xff,0xff,0x0c,0x00,0x00,0x03,0xfe,0xff,0xff,0xff,0x0c,0x00,0x00,0x03,0xfc,
 0xff,0xff,0xff,0x0c,0x00,0x00,0x03,0xf8,0xff,0xff,0xff,0x0c,0x00,0x00,0x03,
 0xf0,0x0f,0x00,0x00,0x0c,0x00,0x00,0x03,0xe0,0x0f,0x00,0x00,0x0c,0x00,0x00,
 0x03,0xc0,0x0f,0x00,0x00,0x0c,0x00,0x00,0x03,0x80,0x0f,0x00,0x00,0x0c,0x00,
 0x00,0x03,0x00,0x0f,0x00,0x00,0x0c,0x00,0x00,0x03,0x00,0x0e,0x00,0x00,0x0c,
 0x00,0x00,0x03,0x00,0x0c,0x00,0x00,0x0c,0x00,0x00,0x03,0x00,0x08,0x00,0x00,
 0x0c,0x00,0x00,0x03,0x00,0x00,0x00,0x00,0x0c,0x00,0x00,0x03,0x00,0x00,0x00,
 0x00,0x0c,0x00,0x00,0x03,0x00,0x00,0x00,0x00,0x0c,0x00,0x00,0x03,0x00,0x00,
 0x00,0x00,0x0c,0x00,0x00,0x03,0x00,0x00,0x00,0x00,0x0c,0x00,0x00,0x03,0x00,
 0x00,0x00,0x00,0x0c,0x00,0x00,0xff,0xff,0xff,0xff,0xff,0x0f,0x00,0x00,0xff,
 0xff,0xff,0xff,0xff,0x0f,0x00,0x00,0x00,0x00,0x00,0x00,0x00,0x00,0x00,0x00,
 0x00,0x00,0x00,0x00,0x00,0x00,0x00,0x00,0x00,0x00,0x00,0x00,0x00,0x00,0x00,
 0x00,0x00,0x00,0x00,0x00,0x00,0x00,0x00,0x00,0x00,0x00,0x00,0x00,0x00,0x00,
 0x00,0x00,0x00,0x00,0x00,0x00,0x00,0x00,0x00,0x00,0x00,0x00,0x00,0x00,0x00,
 0x00,0x00,0x00,0x00,0x00,0x00,0x00,0x00,0x00,0x00,0x00,0x00,0x00,0x00,0x00,
 0x00,0x00,0x00,0x00,0x00,0x00,0x00,0x00,0x00,0x00,0x00,0x00,0x00,0x00,0x00,
 0x00,0x00,0x00,0x00,0x00,0x00,0x00,0x00,0x00,0x00,0x00,0x00,0x00,0x00,0x00,
 0x00,0x00,0x00,0x00,0x00,0x00,0x00,0x00,0x00,0x00,0x00,0x00,0x00,0x00,0x00,
 0x00,0x00,0x00,0x00,0x00,0x00,0x00,0x00,0x00,0x00,0x00,0x00,0x00,0x00,0x00,
 0x00,0x00,0x00,0x00,0x00,0x00,0x00,0x00,0x00,0x00,0x00,0x00,0x00,0x00,0x00,
 0x00,0x00,0x00,0x00,0x00,0x00,0x00,0x00,0x00,0x00,0x00,0x00,0x00,0x00,0x00,
 0x00,0x00};
