#define SHADOW1_width 64
#define SHADOW1_height 64
static unsigned char SHADOW1_bits[] = {
 0x00,0x00,0x00,0x00,0x00,0x00,0x00,0x00,0x00,0x00,0x00,0x00,0x00,0x00,0x00,
 0x00,0x00,0x00,0x00,0x00,0x00,0x00,0x00,0x00,0x00,0x00,0x00,0x00,0x00,0x00,
 0x00,0x00,0x00,0x00,0x00,0x00,0x00,0x00,0x00,0x00,0x00,0x00,0x00,0x00,0x00,
 0x00,0x00,0x00,0x00,0x00,0x00,0x00,0x00,0x00,0x00,0x00,0x00,0x40,0x00,0x20,
 0x00,0x00,0x00,0x00,0x00,0x40,0x00,0x20,0x00,0x00,0x00,0x00,0x00,0x40,0x00,
 0x10,0x00,0x00,0x00,0x00,0x00,0x80,0x07,0x10,0x00,0x00,0x00,0x00,0x00,0x00,
 0x04,0x08,0x00,0x00,0x00,0x00,0x00,0x00,0xc8,0x04,0x00,0x00,0x00,0x00,0x00,
 0x00,0xe8,0x05,0x00,0x00,0x00,0x00,0x00,0x00,0xf8,0x05,0x00,0x00,0x00,0x00,
 0xc0,0x00,0x58,0x07,0x00,0x00,0x00,0x00,0xc0,0x03,0xb8,0x06,0x00,0x00,0x00,
 0x00,0x00,0x0f,0x58,0x07,0x00,0x00,0x00,0x00,0x00,0x3c,0xb8,0x06,0x00,0x00,
 0x00,0x00,0x00,0xf0,0x5c,0x0f,0x00,0x00,0x00,0x00,0x00,0xc0,0xaf,0x0a,0x00,
 0x00,0x00,0x00,0x00,0x00,0x57,0x0d,0x00,0x00,0x00,0x00,0x00,0x00,0xae,0x1a,
 0x00,0x00,0x00,0x00,0x00,0x00,0x56,0x1d,0x00,0x00,0x00,0x00,0xc0,0xff,0xaf,
 0x1a,0x00,0x00,0x00,0x00,0xc0,0xff,0x57,0x1d,0x00,0x00,0x00,0x00,0x00,0x00,
 0xae,0xfa,0x07,0x00,0x00,0x00,0x00,0x00,0x56,0xfd,0xff,0x01,0x00,0x00,0x00,
 0x00,0xae,0x1a,0xf8,0x01,0x00,0x00,0x00,0x00,0x56,0x1d,0x00,0x00,0x00,0x00,
 0x00,0x00,0xae,0x1a,0x00,0x00,0x00,0x00,0x00,0x00,0x56,0x1d,0x00,0x00,0x00,
 0x00,0x00,0x00,0xae,0x3a,0x00,0x00,0x00,0x00,0x00,0x00,0x56,0x7d,0x00,0x00,
 0x00,0x00,0x00,0x00,0xae,0xda,0x00,0x00,0x00,0x00,0x00,0x00,0x56,0x9d,0x01,
 0x00,0x00,0x00,0x00,0x00,0xae,0x1a,0x03,0x00,0x00,0x00,0x00,0x00,0x56,0x1d,
 0x06,0x00,0x00,0x00,0x00,0x00,0xae,0x1a,0x0c,0x00,0x00,0x00,0x00,0x00,0x54,
 0x0d,0x18,0x00,0x00,0x00,0x00,0x00,0xac,0x0e,0x30,0x00,0x00,0x00,0x00,0x00,
 0x58,0x07,0x20,0x00,0x00,0x00,0x00,0x00,0xf0,0x03,0x00,0x00,0x00,0x00,0x00,
 0x00,0xe0,0x01,0x00,0x00,0x00,0x00,0x00,0x00,0xc0,0x00,0x00,0x00,0x00,0x00,
 0x00,0x00,0x00,0x00,0x00,0x00,0x00,0x00,0x00,0x00,0x00,0x00,0x00,0x00,0x00,
 0x00,0x00,0x00,0x00,0x00,0x00,0x00,0x00,0x00,0x00,0x00,0x00,0x00,0x00,0x00,
 0x00,0x00,0x00,0x00,0x00,0x00,0x00,0x00,0x00,0x00,0x00,0x00,0x00,0x00,0x00,
 0x00,0x00,0x00,0x00,0x00,0x00,0x00,0x00,0x00,0x00,0x00,0x00,0x00,0x00,0x00,
 0x00,0x00,0x00,0x00,0x00,0x00,0x00,0x00,0x00,0x00,0x00,0x00,0x00,0x00,0x00,
 0x00,0x00,0x00,0x00,0x00,0x00,0x00,0x00,0x00,0x00,0x00,0x00,0x00,0x00,0x00,
 0x00,0x00,0x00,0x00,0x00,0x00,0x00,0x00,0x00,0x00,0x00,0x00,0x00,0x00,0x00,
 0x00,0x00,0x00,0x00,0x00,0x00,0x00,0x00,0x00,0x00,0x00,0x00,0x00,0x00,0x00,
 0x00,0x00,0x00,0x00,0x00,0x00,0x00,0x00,0x00,0x00,0x00,0x00,0x00,0x00,0x00,
 0x00,0x00,0x00,0x00,0x00,0x00,0x00,0x00,0x00,0x00,0x00,0x00,0x00,0x00,0x00,
 0x00,0x00};
