#define sidtool_width 64
#define sidtool_height 64
static unsigned char sidtool_bits[] = {
 0x00,0x00,0x30,0x00,0x00,0x00,0x00,0x00,0x00,0x00,0xf0,0xe0,0xff,0x01,0x00,
 0x00,0x00,0x00,0xf0,0xf3,0xff,0x03,0x00,0x00,0x00,0x00,0xf0,0xf7,0xff,0x03,
 0x00,0x00,0x00,0x00,0xf0,0xff,0xff,0x07,0x00,0x00,0x00,0x00,0xf0,0xdf,0xff,
 0x07,0x00,0x00,0x60,0x00,0xf0,0xef,0xff,0x0f,0x00,0x00,0x60,0x30,0xf0,0xef,
 0xff,0x0f,0x00,0x00,0x60,0x18,0xf0,0xf7,0xff,0xff,0xff,0x3f,0x60,0x18,0xf0,
 0xfb,0xff,0xff,0xff,0x7f,0x30,0x0c,0xf0,0xfd,0xff,0xff,0xff,0xff,0x30,0x06,
 0xf0,0xfd,0xff,0xff,0xff,0xff,0x30,0x06,0xe0,0xfe,0xff,0xff,0xff,0xff,0x30,
 0x03,0x40,0xfe,0x7f,0xf0,0xff,0xff,0xb0,0x01,0x40,0xf8,0xff,0xff,0xff,0xff,
 0xb0,0x01,0x40,0xe8,0x7f,0x00,0x00,0xf0,0xff,0xe0,0x43,0x88,0xff,0xff,0xff,
 0x7f,0x7f,0xf0,0x07,0x88,0x3e,0x00,0x00,0x80,0xff,0xf8,0x0f,0x80,0xdc,0xff,
 0xff,0xff,0xff,0xfd,0x1f,0x80,0xe4,0xff,0xff,0xff,0xff,0xfd,0x3f,0x00,0x80,
 0xff,0xff,0xff,0xff,0xfd,0x7f,0x00,0x00,0xfe,0xff,0xff,0xff,0xff,0xff,0x00,
 0x00,0xfc,0xff,0xff,0xff,0xff,0xff,0x00,0x00,0xfe,0xff,0xff,0xff,0xfd,0x7f,
 0x00,0x84,0xff,0xff,0xff,0xff,0xfd,0x3f,0x00,0xe4,0xff,0xff,0xff,0xff,0xfd,
 0x1f,0x88,0xfc,0xff,0xff,0xff,0xff,0xf8,0x0f,0x88,0xfe,0xff,0xff,0xff,0x7f,
 0xf0,0x87,0x88,0xff,0xff,0xff,0xff,0x3f,0xe0,0x83,0xc8,0xff,0x57,0xff,0xff,
 0x00,0x00,0x80,0xa8,0xff,0xaf,0xff,0xff,0x00,0x00,0x80,0xbe,0xff,0x57,0xff,
 0xff,0x00,0x00,0x80,0xbf,0xff,0xaf,0xff,0xff,0x00,0x00,0xe0,0xdf,0xff,0xff,
 0xff,0xff,0x00,0x00,0xe0,0xdf,0xff,0xff,0xff,0x7f,0x00,0x00,0xe0,0xdf,0xff,
 0xff,0x01,0x00,0x00,0x00,0xe0,0x3f,0xfc,0xff,0x01,0x00,0x00,0x00,0xe0,0x07,
 0xfc,0xff,0x01,0x00,0x00,0x00,0x60,0x00,0xfe,0xff,0x01,0x00,0x00,0x00,0x00,
 0x00,0xfe,0xff,0x01,0x00,0x00,0x00,0x00,0x00,0xff,0xff,0x01,0x00,0x00,0x00,
 0x00,0x00,0xff,0xff,0x01,0x00,0x00,0x00,0x80,0xff,0xff,0xff,0x01,0x00,0x00,
 0x00,0xc0,0xff,0xff,0xff,0x01,0x00,0x00,0x00,0xe0,0xff,0xff,0xff,0x01,0x00,
 0x00,0x00,0x00,0x00,0x00,0x00,0x00,0x00,0x00,0x00,0x00,0x00,0x00,0x00,0x00,
 0x00,0x00,0x00,0x00,0x00,0x00,0x00,0x00,0x00,0xff,0xff,0xff,0xff,0xff,0xff,
 0xff,0xff,0x00,0x00,0x00,0x00,0x00,0x00,0x00,0x00,0x00,0x00,0x00,0x00,0x00,
 0x00,0x00,0x00,0x00,0x00,0x00,0x00,0x00,0x00,0x00,0x00,0x00,0x00,0x04,0x08,
 0x01,0x00,0x70,0x00,0x00,0x00,0x00,0x08,0x01,0x00,0x40,0x00,0x00,0x1c,0x07,
 0xcb,0xc7,0xe1,0x40,0x00,0x00,0x22,0x84,0x0c,0x21,0x12,0x41,0x00,0x00,0x02,
 0x84,0x08,0x21,0x12,0x41,0x00,0x00,0x1c,0x84,0x08,0x21,0x12,0x41,0x00,0x00,
 0x20,0x84,0x08,0x21,0x12,0x41,0x00,0x00,0x22,0x84,0x0c,0x21,0x12,0x41,0x00,
 0x00,0x1c,0x04,0x0b,0xc6,0xe1,0x40,0x00,0x00,0x00,0x00,0x00,0x00,0x00,0x00,
 0x00,0x00,0x00,0x00,0x00,0x00,0x00,0x00,0x00,0x00,0x00,0x00,0x00,0x00,0x00,
 0x00,0x00};
