#define vtx_width 64
#define vtx_height 64
static char vtx_bits[] = {
 0x55,0x55,0x55,0x55,0x55,0x55,0x55,0x55,0x00,0x00,0x00,0x00,0x00,0x00,0x00,
 0x00,0x55,0x55,0x55,0x55,0x55,0x55,0x55,0x55,0x00,0x00,0x00,0x00,0x00,0x00,
 0x00,0x00,0x55,0x55,0x55,0x55,0x55,0x55,0x55,0x55,0xff,0xff,0xff,0xff,0xff,
 0x1f,0x00,0x00,0x01,0x00,0x00,0x00,0x00,0x50,0x55,0x55,0x01,0x00,0x00,0x00,
 0x00,0x70,0x00,0x00,0x19,0xc6,0x00,0x03,0x00,0x70,0x55,0x55,0x19,0xc6,0x00,
 0x03,0x00,0x70,0x00,0x00,0x19,0x06,0x00,0x03,0x00,0x70,0x55,0x55,0x19,0x06,
 0x00,0x03,0x00,0x70,0x00,0x00,0x19,0xf6,0xe0,0xf3,0xf1,0x71,0x55,0x55,0x31,
 0xf3,0xf0,0xfb,0xfb,0x73,0x00,0x00,0x31,0xc3,0x38,0x1b,0x1b,0x73,0x55,0x55,
 0x31,0xc3,0x18,0x1b,0x1b,0x73,0x00,0x00,0xe1,0xc1,0x18,0xfb,0x1b,0x73,0x55,
 0x55,0xe1,0xc1,0x18,0xfb,0x19,0xf3,0xff,0x3f,0xe1,0xc1,0x18,0x1b,0x18,0x03,
 0x00,0x60,0xc1,0xc0,0x38,0x3b,0x18,0x03,0x00,0xe0,0xc1,0xf0,0xf3,0xb3,0xf9,
 0x73,0x90,0xe1,0xc1,0xf0,0xe3,0xa3,0xf1,0x71,0x90,0xe1,0x01,0x00,0x00,0x80,
 0x01,0xe0,0x88,0xe1,0x01,0x00,0x00,0xe0,0x07,0xe0,0xe8,0xe7,0xff,0xff,0xff,
 0xe7,0xe7,0xc3,0xe5,0xe7,0xfc,0xff,0xff,0x87,0xf1,0xc7,0x85,0xe1,0xfd,0xff,
 0xff,0x87,0x31,0x86,0x82,0xe1,0x00,0x00,0x00,0x84,0x31,0x86,0x82,0xe1,0x55,
 0x55,0x55,0x85,0xf1,0x47,0x87,0xe1,0x00,0x00,0x00,0x84,0xf1,0x43,0x87,0xe1,
 0x55,0x55,0x55,0x85,0x31,0x20,0x8e,0xe1,0x00,0x00,0x00,0x84,0x71,0x20,0x8e,
 0xe1,0x55,0x55,0x55,0x85,0xe7,0x17,0x9c,0xe7,0x00,0x00,0x00,0x04,0xc7,0x17,
 0x1c,0xe7,0x55,0x55,0x55,0x05,0x00,0x00,0x00,0xe0,0x00,0x00,0x00,0x04,0x00,
 0x00,0x00,0xe0,0x55,0x55,0x55,0xfd,0xff,0xff,0xff,0xff,0x00,0x00,0x00,0xf0,
 0xff,0xff,0xff,0xff,0x55,0x55,0x55,0xf5,0xff,0xff,0xff,0xff,0x00,0x00,0x00,
 0x00,0x00,0x00,0x00,0x00,0x55,0x55,0x55,0x55,0x55,0x55,0x55,0x55,0x00,0x00,
 0x00,0x00,0x00,0x00,0x00,0x00,0x55,0x55,0x55,0x55,0x55,0x55,0x55,0x55,0x00,
 0x00,0x00,0x00,0x00,0x00,0x00,0x00,0x55,0x55,0x55,0x55,0x55,0x55,0x55,0x55,
 0x00,0x00,0x00,0x00,0x00,0x00,0x00,0x00,0x55,0x55,0x55,0x55,0x55,0x55,0x55,
 0x55,0x00,0x00,0x00,0x00,0x00,0x00,0x00,0x00,0x55,0x55,0xfd,0xff,0xff,0x5f,
 0x55,0x55,0x00,0x00,0x04,0x00,0x00,0x30,0x00,0x00,0x55,0x55,0x35,0xe3,0xc1,
 0x77,0x55,0x55,0x00,0x00,0x34,0xe3,0xc1,0x37,0x00,0x00,0x55,0x55,0x35,0x33,
 0xc3,0x70,0x55,0x55,0x00,0x00,0x34,0x33,0xc3,0x33,0x00,0x00,0x55,0x55,0xe5,
 0x31,0xc3,0x77,0x55,0x55,0x00,0x00,0xe4,0x31,0x03,0x36,0x00,0x00,0x55,0x55,
 0xc5,0xe0,0xd9,0x77,0x55,0x55,0x00,0x00,0xc4,0xe0,0xd9,0x33,0x00,0x00,0x55,
 0x55,0x05,0x00,0x00,0x70,0x55,0x55,0x00,0x00,0xfc,0xff,0xff,0x3f,0x00,0x00,
 0x55,0x55,0xf9,0xff,0xff,0x7f,0x55,0x55,0x00,0x00,0x00,0x00,0x00,0x00,0x00,
 0x00,0x55,0x55,0x55,0x55,0x55,0x55,0x55,0x55,0x00,0x00,0x00,0x00,0x00,0x00,
 0x00,0x00};
