#define ControlBoxOn_width 32
#define ControlBoxOn_height 32
static char ControlBoxOn_bits[] = {
   0xff, 0xff, 0xff, 0xff, 0xff, 0xff, 0xff, 0xff, 0xff, 0xff, 0xff, 0xff,
   0xff, 0xff, 0xff, 0xff, 0xff, 0xff, 0xff, 0xff, 0xff, 0xff, 0xff, 0xff,
   0xff, 0xff, 0xff, 0xff, 0xff, 0xff, 0xff, 0xff, 0xff, 0xff, 0xff, 0xff,
   0xff, 0x01, 0x80, 0xff, 0xff, 0xfd, 0xbf, 0xff, 0xff, 0xfd, 0xbf, 0xff,
   0xff, 0xfd, 0xbf, 0xff, 0xff, 0xfd, 0xbf, 0xff, 0xff, 0xfd, 0xbf, 0xff,
   0xff, 0xfd, 0xbf, 0xff, 0xff, 0xfd, 0xbf, 0xff, 0xff, 0xfd, 0xbf, 0xff,
   0xff, 0xfd, 0xbf, 0xff, 0xff, 0xfd, 0xbf, 0xff, 0xff, 0xfd, 0xbf, 0xff,
   0xff, 0xfd, 0xbf, 0xff, 0xff, 0x01, 0x80, 0xff, 0xff, 0xff, 0xff, 0xff,
   0xff, 0xff, 0xff, 0xff, 0xff, 0xff, 0xff, 0xff, 0xff, 0xff, 0xff, 0xff,
   0xff, 0xff, 0xff, 0xff, 0xff, 0xff, 0xff, 0xff, 0xff, 0xff, 0xff, 0xff,
   0xff, 0xff, 0xff, 0xff, 0xff, 0xff, 0xff, 0xff};
