#define info_width 64
#define info_height 64
static char info_bits[] = {
   0x00, 0x00, 0x00, 0x00, 0x00, 0x00, 0x00, 0x00, 0x00, 0x00, 0x00, 0x00,
   0x00, 0x00, 0x00, 0x00, 0x00, 0x00, 0x00, 0xf0, 0x7f, 0x00, 0x00, 0x00,
   0x00, 0x00, 0x00, 0x0f, 0x80, 0x07, 0x00, 0x00, 0x00, 0x00, 0xe0, 0x00,
   0x00, 0x38, 0x00, 0x00, 0x00, 0x00, 0x18, 0x00, 0x00, 0xc0, 0x00, 0x00,
   0x00, 0x00, 0x04, 0xc0, 0x07, 0x00, 0x01, 0x00, 0x00, 0x00, 0x03, 0xe0,
   0x0f, 0x00, 0x06, 0x00, 0x00, 0x80, 0x00, 0xf0, 0x1f, 0x00, 0x08, 0x00,
   0x00, 0x60, 0x00, 0xf0, 0x1f, 0x00, 0x30, 0x00, 0x00, 0x10, 0x00, 0xf0,
   0x1f, 0x00, 0x40, 0x00, 0x00, 0x08, 0x00, 0xf0, 0x1f, 0x00, 0x80, 0x00,
   0x00, 0x04, 0x00, 0xf0, 0x1f, 0x00, 0x00, 0x01, 0x00, 0x04, 0x00, 0xe0,
   0x0f, 0x00, 0x00, 0x01, 0x00, 0x02, 0x00, 0xc0, 0x07, 0x00, 0x00, 0x02,
   0x00, 0x01, 0x00, 0x00, 0x00, 0x00, 0x00, 0x04, 0x00, 0x01, 0x00, 0x00,
   0x00, 0x00, 0x00, 0x04, 0x80, 0x00, 0x00, 0x00, 0x00, 0x00, 0x00, 0x08,
   0x40, 0x00, 0x00, 0xfc, 0x1f, 0x00, 0x00, 0x10, 0x40, 0x00, 0x00, 0xfc,
   0x1f, 0x00, 0x00, 0x10, 0x20, 0x00, 0x00, 0xfc, 0x1f, 0x00, 0x00, 0x20,
   0x20, 0x00, 0x00, 0xfc, 0x1f, 0x00, 0x00, 0x20, 0x20, 0x00, 0x00, 0x80,
   0x1f, 0x00, 0x00, 0x20, 0x10, 0x00, 0x00, 0x80, 0x1f, 0x00, 0x00, 0x40,
   0x10, 0x00, 0x00, 0x80, 0x1f, 0x00, 0x00, 0x40, 0x10, 0x00, 0x00, 0x80,
   0x1f, 0x00, 0x00, 0x40, 0x10, 0x00, 0x00, 0x80, 0x1f, 0x00, 0x00, 0x40,
   0x08, 0x00, 0x00, 0x80, 0x1f, 0x00, 0x00, 0x80, 0x08, 0x00, 0x00, 0x80,
   0x1f, 0x00, 0x00, 0x80, 0x08, 0x00, 0x00, 0x80, 0x1f, 0x00, 0x00, 0x80,
   0x08, 0x00, 0x00, 0x80, 0x1f, 0x00, 0x00, 0x80, 0x08, 0x00, 0x00, 0x80,
   0x1f, 0x00, 0x00, 0x80, 0x08, 0x00, 0x00, 0x80, 0x1f, 0x00, 0x00, 0x80,
   0x08, 0x00, 0x00, 0x80, 0x1f, 0x00, 0x00, 0x80, 0x08, 0x00, 0x00, 0x80,
   0x1f, 0x00, 0x00, 0x80, 0x08, 0x00, 0x00, 0x80, 0x1f, 0x00, 0x00, 0x80,
   0x08, 0x00, 0x00, 0x80, 0x1f, 0x00, 0x00, 0x80, 0x08, 0x00, 0x00, 0x80,
   0x1f, 0x00, 0x00, 0x80, 0x10, 0x00, 0x00, 0x80, 0x1f, 0x00, 0x00, 0x40,
   0x10, 0x00, 0x00, 0x80, 0x1f, 0x00, 0x00, 0x40, 0x10, 0x00, 0x00, 0x80,
   0x1f, 0x00, 0x00, 0x40, 0x10, 0x00, 0x00, 0x80, 0x1f, 0x00, 0x00, 0x40,
   0x20, 0x00, 0x00, 0x80, 0x1f, 0x00, 0x00, 0x20, 0x20, 0x00, 0x00, 0x80,
   0x1f, 0x00, 0x00, 0x20, 0x20, 0x00, 0x00, 0x80, 0x1f, 0x00, 0x00, 0x20,
   0x40, 0x00, 0x00, 0x80, 0x1f, 0x00, 0x00, 0x10, 0x40, 0x00, 0x00, 0x80,
   0x1f, 0x00, 0x00, 0x10, 0x80, 0x00, 0x00, 0x80, 0x1f, 0x00, 0x00, 0x08,
   0x00, 0x01, 0x00, 0x80, 0x1f, 0x00, 0x00, 0x04, 0x00, 0x01, 0x00, 0x80,
   0x1f, 0x00, 0x00, 0x04, 0x00, 0x02, 0x00, 0x80, 0x1f, 0x00, 0x00, 0x02,
   0x00, 0x04, 0x00, 0x80, 0x1f, 0x00, 0x00, 0x01, 0x00, 0x04, 0x00, 0x80,
   0x1f, 0x00, 0x00, 0x01, 0x00, 0x08, 0x00, 0x80, 0x1f, 0x00, 0x80, 0x00,
   0x00, 0x10, 0x00, 0xfe, 0xff, 0x03, 0x40, 0x00, 0x00, 0x60, 0x00, 0xfe,
   0xff, 0x03, 0x30, 0x00, 0x00, 0x80, 0x00, 0xfe, 0xff, 0x03, 0x08, 0x00,
   0x00, 0x00, 0x03, 0xfe, 0xff, 0x03, 0x06, 0x00, 0x00, 0x00, 0x04, 0x00,
   0x00, 0x00, 0x01, 0x00, 0x00, 0x00, 0x18, 0x00, 0x00, 0xc0, 0x00, 0x00,
   0x00, 0x00, 0xe0, 0x00, 0x00, 0x38, 0x00, 0x00, 0x00, 0x00, 0x00, 0x0f,
   0x80, 0x07, 0x00, 0x00, 0x00, 0x00, 0x00, 0xf0, 0x7f, 0x00, 0x00, 0x00,
   0x00, 0x00, 0x00, 0x00, 0x00, 0x00, 0x00, 0x00};
