#define noname_width 131
#define noname_height 275
static char noname_bits[] = {
 0xaa,0x2a,0x25,0x55,0x55,0x55,0x55,0x55,0x95,0xaa,0xaa,0x2a,0x55,0x55,0x55,
 0xa5,0x02,0x55,0x55,0xd5,0xaa,0xaa,0xaa,0xaa,0xaa,0xaa,0xaa,0xaa,0xaa,0xaa,
 0xaa,0x54,0x55,0x05,0xaa,0xaa,0x2a,0x55,0x55,0x55,0x55,0x55,0x55,0x55,0x55,
 0x55,0x55,0x55,0xa5,0xaa,0x02,0xaa,0xaa,0xaa,0xaa,0x52,0x55,0x55,0x55,0x55,
 0x95,0xaa,0xaa,0xaa,0xaa,0xaa,0xaa,0x02,0x55,0x55,0x55,0x55,0x95,0xaa,0xaa,
 0x92,0xaa,0xaa,0x4a,0x55,0x29,0x49,0x55,0x55,0x05,0xaa,0xa4,0xaa,0xaa,0x6a,
 0x55,0x55,0xad,0xaa,0xaa,0xaa,0x54,0xd5,0xaa,0xaa,0xaa,0x02,0x55,0x55,0x55,
 0x55,0x95,0x92,0xaa,0x54,0x55,0x55,0x55,0xa5,0x2a,0x55,0x55,0x95,0x04,0xa9,
 0xaa,0xaa,0xaa,0xaa,0xaa,0xaa,0xaa,0xaa,0xaa,0xaa,0xaa,0xaa,0xaa,0xaa,0x52,
 0x03,0x4a,0x55,0x52,0x55,0x55,0x55,0x55,0x55,0xaa,0x54,0x55,0x55,0x55,0x55,
 0x55,0xaa,0x04,0xb5,0xaa,0xaa,0x2a,0x55,0x55,0x55,0x55,0x55,0xab,0xaa,0xaa,
 0x4a,0x55,0x55,0x55,0x03,0x4a,0x55,0x55,0x55,0x55,0x55,0x4a,0xa9,0xaa,0x54,
 0x55,0x55,0xb5,0xaa,0x94,0x2a,0x05,0xaa,0xaa,0xaa,0xaa,0xaa,0xaa,0x55,0x55,
 0x55,0xab,0xaa,0xaa,0xaa,0xaa,0xaa,0xaa,0x02,0x55,0x55,0x55,0x52,0x55,0x55,
 0xfd,0x97,0x52,0x54,0x55,0x55,0x95,0xaa,0xaa,0xaa,0x02,0x55,0xa9,0xaa,0xad,
 0xaa,0xaa,0xfa,0x6b,0x55,0x2b,0x55,0x55,0x55,0x55,0x55,0x55,0x05,0xaa,0x56,
 0x55,0xaa,0xaa,0x6a,0x7f,0xbf,0x55,0x55,0x55,0x55,0x55,0x55,0x55,0x55,0x01,
 0x55,0xa9,0xaa,0xaa,0xaa,0xaa,0xff,0xff,0x55,0x55,0x55,0x55,0x55,0x55,0x55,
 0x55,0x05,0xaa,0x56,0x55,0x55,0x55,0xfd,0xff,0x7f,0x57,0x55,0x55,0x55,0xaa,
 0xaa,0xaa,0x52,0x05,0x55,0x55,0xd5,0xaa,0xaa,0x56,0xff,0xef,0xaf,0xaa,0xaa,
 0xaa,0x55,0x55,0xa5,0xaa,0x02,0xff,0xff,0xbf,0xff,0xdd,0xfd,0xbf,0xff,0x5f,
 0x55,0x55,0x55,0xaa,0xaa,0x5a,0x55,0x05,0xdb,0xaa,0xea,0xaa,0xb6,0xfe,0xff,
 0xfd,0xbf,0xaa,0xaa,0xaa,0x55,0x55,0xa5,0xaa,0x02,0xff,0xff,0xff,0xff,0xff,
 0xff,0xf7,0xff,0xff,0xff,0xff,0xff,0xff,0xbf,0x7b,0x6f,0x07,0xff,0xff,0xff,
 0xff,0xff,0xf7,0xff,0xff,0xef,0xff,0xff,0xbf,0xad,0xea,0xae,0xdb,0x02,0xff,
 0xff,0xff,0xff,0x7f,0xff,0xff,0xff,0xff,0xff,0xff,0xff,0xff,0xff,0xff,0xff,
 0x07,0xff,0xff,0xff,0xff,0xff,0xff,0xff,0xff,0xff,0xff,0xff,0xff,0xff,0xff,
 0xff,0xff,0x07,0xff,0xff,0xff,0xff,0xdf,0xbf,0xff,0xff,0xff,0xff,0xff,0xfe,
 0xff,0xff,0xff,0xff,0x07,0xff,0xff,0xff,0xff,0xff,0xfb,0xff,0xbf,0xff,0xfe,
 0xf7,0xff,0xff,0xff,0xff,0xff,0x07,0xbf,0xff,0xff,0xff,0x7f,0xff,0x7f,0xff,
 0xff,0xff,0xff,0xff,0xff,0xff,0xff,0xff,0x07,0xff,0xf7,0xff,0xff,0xff,0xff,
 0xff,0xff,0xff,0xff,0xff,0xff,0xff,0xff,0xff,0xf7,0x07,0xff,0xff,0xff,0xff,
 0xff,0x7f,0xff,0xff,0xff,0xef,0xff,0xff,0xff,0xff,0xbe,0xff,0x07,0xff,0xff,
 0xff,0xff,0xff,0xed,0xf7,0xff,0xff,0xff,0xff,0xff,0xff,0xff,0xff,0xff,0x07,
 0xff,0xff,0xff,0xff,0xff,0x77,0xdf,0xff,0xf7,0xff,0xff,0xff,0xff,0xef,0xff,
 0xff,0x07,0xff,0xff,0xfd,0xff,0xff,0xdd,0xfb,0x7f,0xff,0xff,0xff,0xff,0xff,
 0xff,0xff,0xbf,0x07,0xff,0xff,0xff,0xff,0xdf,0xf7,0x6f,0xdb,0xff,0xff,0xff,
 0x77,0xff,0xfe,0xff,0xff,0x07,0xbf,0xff,0xff,0xff,0xff,0xfb,0xfa,0xff,0xfe,
 0xff,0xff,0xff,0xff,0xff,0xfb,0xff,0x07,0xff,0xff,0xff,0xff,0xff,0x57,0xd7,
 0xef,0xff,0xff,0xbf,0xff,0xf7,0xff,0xff,0xfb,0x07,0xff,0xff,0xff,0xff,0xff,
 0xf7,0xfd,0xff,0xfe,0xff,0xff,0xff,0xff,0xff,0xbf,0xff,0x07,0xff,0xff,0x7f,
 0x7f,0xff,0xdf,0xd7,0xab,0xff,0xff,0xfe,0xff,0xff,0xff,0xff,0xff,0x07,0xff,
 0xff,0xff,0xff,0xff,0xf7,0x7a,0xff,0xff,0xff,0xff,0xff,0xff,0xff,0xff,0xff,
 0x07,0xff,0xff,0xff,0xff,0xff,0xdf,0xef,0x55,0xfd,0xff,0xff,0xff,0xff,0xff,
 0xff,0xff,0x07,0xff,0xef,0xff,0xff,0xff,0xfb,0x5a,0xff,0xff,0xff,0xff,0xff,
 0xff,0xff,0xff,0xff,0x07,0xf7,0xff,0xff,0xff,0xff,0xdf,0xf7,0xad,0xef,0xff,
 0xff,0xff,0xff,0xff,0xff,0xff,0x07,0xff,0xff,0xff,0xff,0xff,0xf7,0x5a,0xff,
 0xfd,0xff,0xff,0xff,0xff,0xf7,0xff,0xff,0x07,0xff,0xff,0xff,0xff,0xff,0xaf,
 0xf5,0xaa,0xf6,0xff,0xff,0xff,0x7d,0xff,0xfe,0xff,0x07,0xff,0xff,0xff,0xff,
 0xff,0xfb,0x5d,0xff,0xff,0xff,0xff,0xff,0xff,0xff,0xff,0xf7,0x07,0xff,0xff,
 0xff,0x7f,0xff,0xdf,0xeb,0xb5,0xd5,0x5e,0xff,0xff,0xff,0xff,0xdf,0xff,0x07,
 0xff,0xff,0xff,0xff,0xff,0x7f,0xbd,0x7e,0xff,0xff,0xff,0xff,0xff,0xff,0xff,
 0xff,0x07,0xff,0xde,0x7b,0xff,0xff,0xff,0xa6,0xd5,0x15,0x05,0xff,0xff,0xff,
 0xff,0xff,0xff,0x07,0xff,0xff,0xff,0xff,0xff,0xbf,0xfb,0x7e,0x5f,0xbf,0xfd,
 0xff,0xff,0xff,0xff,0xff,0x07,0xff,0xff,0xff,0xff,0xff,0xff,0xad,0xeb,0x7d,
 0x55,0xfb,0xff,0xff,0xff,0xff,0xff,0x07,0xef,0xff,0xff,0xff,0xff,0x7f,0xdb,
 0x5d,0xaf,0x56,0xfd,0xff,0xff,0xff,0xff,0xff,0x07,0xff,0xff,0xff,0xff,0xff,
 0xff,0x6d,0xfb,0x36,0x1f,0xa1,0xff,0xff,0xff,0xff,0xdf,0x07,0xff,0xff,0xff,
 0xff,0xbf,0xff,0xde,0x56,0x7f,0x55,0xf5,0xff,0xff,0xff,0xff,0xff,0x07,0xff,
 0xff,0xff,0xef,0xff,0x0f,0xa0,0xef,0x0b,0xad,0xfa,0xff,0xff,0xff,0xff,0xff,
 0x07,0xff,0xff,0xff,0xff,0xff,0x1f,0xd0,0xba,0x5f,0xae,0xb6,0xff,0xff,0xff,
 0xff,0xff,0x07,0xff,0xff,0xff,0xff,0xff,0x01,0xc9,0xef,0x05,0xaa,0x1b,0xfc,
 0xff,0xff,0xff,0xff,0x07,0xff,0xff,0xff,0xff,0xff,0x07,0x52,0x7b,0x17,0x5d,
 0x7f,0xfa,0xff,0xff,0xff,0xff,0x07,0xff,0xff,0xff,0xff,0xff,0x41,0xad,0xff,
 0x00,0xfe,0x0f,0xe0,0xff,0xff,0xff,0xff,0x07,0x77,0x77,0x7f,0xff,0xff,0x05,
 0x55,0xbd,0x07,0xfa,0x3f,0xd0,0xff,0xff,0xff,0xff,0x07,0xaa,0xaa,0xd2,0x52,
 0x2a,0xd0,0xdb,0x3e,0x00,0xfd,0x0f,0x00,0xff,0x7f,0xff,0xfe,0x07,0xb7,0xdd,
 0x6d,0xad,0xf5,0x40,0x6d,0xff,0x02,0xfc,0x1f,0x80,0xbd,0xff,0xf7,0xef,0x07,
 0x6a,0x6b,0xdb,0x76,0x17,0xaa,0xda,0x0a,0x00,0xfe,0x07,0x00,0xda,0x52,0xad,
 0x5a,0x02,0x5d,0xb5,0x56,0xdb,0x3a,0x40,0x6f,0x75,0x01,0xf8,0x07,0x00,0xbc,
 0xdd,0xdb,0xae,0x07,0xd5,0x56,0x6d,0x55,0x0d,0x68,0xb5,0x0b,0x00,0xff,0x03,
 0x04,0xf0,0xb6,0xb6,0x75,0x05,0x6a,0xdb,0xb6,0xad,0x5b,0x52,0xdd,0xaa,0x00,
 0xfc,0x06,0x0a,0x58,0x6b,0xdb,0x5a,0x05,0x5b,0xb5,0x55,0x5b,0x07,0x49,0x6b,
 0x01,0xa0,0xff,0x41,0x05,0xe8,0xd6,0xaa,0xd5,0x02,0xaa,0xad,0xda,0x6a,0x15,
 0x50,0xb5,0x2a,0x00,0x7d,0x01,0x03,0x50,0xbb,0x76,0xbb,0x06,0xb5,0x6a,0xab,
 0xd6,0x0a,0x55,0x55,0x01,0xac,0xfe,0xe8,0x00,0xa8,0x6a,0x4d,0xd5,0x05,0xd6,
 0x56,0x6d,0x6b,0x05,0x90,0xaa,0x24,0x51,0xff,0x21,0x13,0xc0,0xad,0xf6,0xb6,
 0x02,0xad,0x5a,0x55,0x55,0x5b,0x55,0x55,0x02,0x42,0xff,0x5f,0x00,0xa1,0x76,
 0xab,0x6d,0x07,0x55,0xd5,0xd6,0xb6,0x25,0xa4,0x2a,0xa1,0x94,0xff,0xa2,0x05,
 0x40,0xab,0xb5,0xaa,0x02,0x6a,0xab,0xb5,0xaa,0xaa,0x49,0x95,0x14,0xc9,0xff,
 0x5f,0x00,0xb0,0x56,0x6b,0xdb,0x06,0xb6,0x5a,0x55,0xb5,0x55,0xaa,0x54,0x82,
 0x24,0xff,0x55,0x00,0xa0,0x7b,0xad,0x6d,0x03,0xd5,0x6a,0xdb,0x56,0x4b,0x91,
 0x8a,0x28,0xc9,0xff,0x17,0x48,0x80,0xd6,0x5a,0x55,0x05,0x5a,0x5b,0x55,0x6b,
 0xa5,0x4a,0x55,0x4a,0x25,0xff,0xbf,0x22,0x40,0x55,0xad,0xad,0x05,0x55,0x55,
 0x55,0x95,0x2a,0x55,0x2a,0x11,0xc2,0xd7,0xab,0x5a,0x85,0x6e,0x6b,0xb5,0x02,
 0xaa,0xaa,0xaa,0xaa,0x95,0x92,0x4a,0x4a,0x29,0xff,0x2f,0x95,0x28,0xab,0xb5,
 0x56,0x05,0x55,0xb5,0xb5,0x6a,0xa1,0x24,0x29,0x54,0xe4,0xcb,0x6b,0x55,0x82,
 0x54,0x4a,0x55,0x05,0xd5,0x56,0x55,0x55,0xad,0xaa,0x4a,0x25,0x91,0xef,0xaf,
 0xaa,0x84,0xaa,0xb6,0xaa,0x02,0xaa,0xaa,0xaa,0x55,0x21,0x45,0x92,0x48,0xf5,
 0xeb,0x5b,0x8b,0x02,0x6a,0xa9,0xaa,0x02,0xad,0xaa,0xaa,0xaa,0xaa,0x32,0x49,
 0x26,0x95,0xf7,0xd7,0x6a,0x00,0xad,0x56,0x55,0x05,0xaa,0xaa,0x56,0xb5,0x50,
 0x45,0x25,0x49,0xea,0xfb,0xbf,0x80,0xa0,0x54,0x55,0x55,0x05,0x55,0x55,0x55,
 0x55,0x91,0xb4,0x48,0x55,0xa5,0xd7,0x57,0x53,0x02,0xaa,0xaa,0xaa,0x02,0xd5,
 0xaa,0xaa,0xaa,0x24,0x4b,0x11,0xa2,0xd4,0xff,0xbb,0x14,0x00,0x55,0x55,0x55,
 0x05,0xaa,0x6a,0x55,0x5b,0xa1,0x24,0x4a,0x29,0x49,0xef,0x5f,0xa5,0x40,0xa8,
 0xaa,0xaa,0x02,0x55,0x55,0x55,0x55,0x48,0xab,0x90,0x44,0xa2,0xbe,0x77,0x15,
 0x00,0x54,0x55,0x55,0x05,0xad,0xaa,0xaa,0xaa,0xa2,0xaa,0x4a,0x92,0x8a,0xef,
 0xaf,0xaa,0x02,0xd9,0x56,0xad,0x02,0x52,0x55,0x55,0x55,0xa8,0x2a,0xa9,0x54,
 0x80,0x7f,0xdf,0x54,0x0a,0x50,0xa9,0xaa,0x02,0xad,0xaa,0xaa,0xaa,0xa0,0xaa,
 0x14,0x89,0x2a,0xff,0x6f,0x55,0x05,0xaa,0x56,0x55,0x05,0xaa,0x6a,0x55,0x55,
 0x54,0x85,0xa2,0x12,0x80,0xff,0xbf,0x22,0x2a,0x50,0x55,0x55,0x05,0x6a,0x55,
 0xad,0x2a,0x50,0xab,0x94,0xa4,0x42,0xbf,0x57,0x99,0x51,0xb4,0xaa,0xaa,0x02,
 0x55,0xab,0xaa,0xaa,0x4a,0x25,0x55,0x12,0x80,0xff,0x7f,0x65,0x84,0xa0,0xaa,
 0xaa,0x02,0xaa,0xaa,0xaa,0x2a,0xd0,0x4a,0x25,0x89,0xa0,0xff,0xab,0x2a,0x52,
 0x54,0x55,0x55,0x05,0x55,0x55,0x55,0x2d,0x44,0x95,0x48,0x12,0x40,0xbd,0x57,
 0x55,0x01,0x50,0x55,0x55,0x05,0xaa,0x5a,0xad,0x15,0xa8,0x55,0x55,0x49,0x50,
 0xff,0xd7,0xaa,0x04,0xa0,0xaa,0xaa,0x02,0x55,0xa5,0x52,0xa5,0x2a,0xa5,0x2a,
 0x25,0x48,0xff,0xa7,0xaa,0x2a,0x50,0xab,0xaa,0x02,0x55,0x55,0xad,0x1a,0x55,
 0x55,0x92,0x12,0x50,0xf5,0xdf,0x56,0x92,0x40,0x55,0x55,0x05,0xa4,0x94,0x50,
 0x42,0x52,0x95,0x24,0x05,0xaa,0x5a,0xa5,0xad,0x44,0xa2,0xaa,0xaa,0x02,0x2a,
 0xa5,0x96,0xaa,0x54,0xa5,0xaa,0x08,0xa0,0xf6,0xaf,0xaa,0x2a,0x89,0x54,0x55,
 0x02,0x52,0x52,0x52,0x02,0x49,0x95,0x24,0x81,0xaa,0x2a,0x54,0x2b,0x69,0x25,
 0x89,0x20,0x01,0x49,0x29,0x29,0x55,0xa5,0x52,0x95,0x02,0x54,0xb5,0xab,0xad,
 0x94,0x92,0x52,0x96,0x04,0x2a,0xa5,0x52,0x00,0xa8,0x24,0x52,0xd0,0x4a,0x55,
 0x5a,0x55,0x2b,0x54,0xa4,0x48,0x01,0xa5,0x54,0x8a,0x55,0x54,0x55,0x29,0x02,
 0xa5,0xaa,0xaa,0xaa,0x54,0x95,0x2a,0xa5,0x04,0x48,0x89,0x54,0x00,0x55,0x81,
 0x82,0xa8,0x94,0x6a,0x55,0xab,0x4b,0x25,0x41,0x12,0x01,0xaa,0x54,0xa5,0x42,
 0xa4,0xaa,0x54,0xa4,0xaa,0xaa,0xaa,0x5a,0x25,0x95,0xac,0xa4,0x02,0x95,0x52,
 0x29,0x91,0x29,0x25,0x25,0x49,0x55,0x55,0x55,0x0b,0x00,0x00,0x11,0x49,0x04,
 0x52,0x4a,0xaa,0x40,0x54,0x49,0x89,0xa4,0x24,0x55,0xa9,0xad,0x52,0x01,0xaa,
 0xaa,0x02,0xa4,0x94,0x44,0x2b,0x2b,0x12,0x00,0x2a,0x55,0xa9,0xaa,0x2a,0x08,
 0x42,0x49,0x04,0x01,0x55,0xa5,0xaa,0x94,0xaa,0xa9,0xaa,0x52,0xa5,0xaa,0x54,
 0x55,0x42,0x11,0x92,0xaa,0x04,0x92,0x54,0x24,0x2a,0xa8,0x02,0x40,0xa4,0x94,
 0x4a,0x69,0x2d,0xbd,0xa5,0x24,0x51,0x01,0x49,0x8a,0x92,0x92,0x54,0xa9,0x2a,
 0x55,0x4a,0x35,0x55,0x55,0xd2,0x4a,0x4a,0x0a,0x02,0xaa,0x52,0x25,0x24,0x01,
 0x4a,0x52,0xa9,0x52,0x42,0x55,0x95,0x0a,0x20,0x29,0x69,0x01,0x92,0x54,0x52,
 0xa9,0x68,0x95,0x94,0x94,0x2a,0xb5,0x52,0x55,0x15,0x90,0x92,0x92,0x04,0x2a,
 0x89,0x94,0x00,0xaa,0x50,0x22,0x25,0xd5,0x4a,0x54,0xab,0x02,0x28,0x24,0x24,
 0x01,0x49,0xa5,0x4a,0x48,0xa9,0x2a,0x55,0xa9,0x2a,0x29,0x55,0x55,0x01,0x94,
 0xaa,0x92,0x04,0x92,0x54,0x24,0x12,0x52,0x45,0x49,0x12,0x50,0xaa,0x52,0x05,
 0x80,0x25,0x90,0x54,0x02,0xaa,0x92,0x12,0xa0,0xaa,0xaa,0xaa,0xaa,0x4d,0x55,
 0xa9,0x15,0x40,0x94,0x2a,0x25,0x01,0x44,0x2a,0x45,0x92,0x54,0x5f,0x55,0x25,
 0x95,0x92,0x52,0x2a,0x14,0x35,0x44,0x92,0x02,0x2a,0x45,0x19,0x20,0xa5,0x6a,
 0xad,0xaa,0xa4,0x4a,0xaa,0x4a,0x01,0xaa,0x29,0x89,0x00,0x52,0x54,0x02,0x80,
 0xd4,0xfd,0x7b,0xad,0x12,0x94,0x40,0x21,0xba,0x00,0x48,0x25,0x05,0x49,0x25,
 0x09,0x44,0xaa,0xfe,0xae,0x57,0xd5,0x52,0xad,0x94,0x24,0x20,0x90,0x50,0x02,
 0x2a,0x49,0x85,0x58,0x55,0xdd,0xff,0xfd,0x95,0xae,0xaa,0x55,0x41,0x0b,0x2a,
 0xa5,0x04,0x92,0x54,0x12,0x52,0x6b,0xfb,0xfe,0xbf,0xae,0x6a,0x6b,0x25,0x81,
 0x04,0x90,0x14,0x02,0xa4,0x92,0x08,0x24,0x54,0x55,0xaf,0xfa,0xff,0xff,0xff,
 0x80,0x04,0x00,0x25,0xa9,0x00,0x55,0xa9,0x22,0x49,0xb5,0xfa,0xff,0xff,0xef,
 0xff,0xff,0x55,0x02,0x04,0x90,0x24,0x05,0x22,0x22,0x81,0x00,0xaa,0xda,0x77,
 0xeb,0xff,0xff,0xbf,0x08,0x2d,0x40,0x25,0x49,0x02,0x94,0x9a,0x28,0x00,0x5a,
 0xf5,0xde,0x5b,0xff,0xfd,0xfb,0x43,0x09,0x00,0x52,0x25,0x01,0x29,0xa1,0x82,
 0xa4,0x2a,0x1e,0xfe,0xf7,0x7f,0x57,0x2d,0x09,0x00,0xa8,0x88,0x48,0x05,0x94,
 0x54,0x20,0x41,0x5d,0xfa,0xfa,0xad,0xee,0xff,0xdb,0x52,0x00,0x02,0x25,0xa5,
 0x00,0x29,0xa5,0x00,0xa8,0x12,0x1d,0xf7,0xf7,0x15,0x00,0x55,0x05,0x41,0x28,
 0x52,0x12,0x05,0x92,0x2a,0x92,0xa2,0x8e,0x7e,0xed,0x5d,0x0b,0x60,0x6d,0x55,
 0x00,0x42,0x29,0x49,0x02,0x2a,0x91,0x04,0xa8,0xa0,0xaf,0x92,0xff,0x02,0x00,
 0xa8,0x8a,0x04,0x10,0x84,0x92,0x00,0x89,0x4a,0x52,0x92,0x16,0x5d,0x61,0xaf,
 0x0a,0x00,0x54,0x2b,0x41,0x41,0x51,0x54,0x05,0x52,0x14,0x80,0x00,0x40,0xaf,
 0x80,0xfd,0x00,0x00,0x68,0x15,0x00,0x20,0x54,0x09,0x01,0xaa,0x4a,0x50,0x8a,
 0x94,0xbe,0xa2,0x7e,0x17,0x00,0x50,0x15,0x10,0x08,0x21,0x52,0x02,0x24,0x11,
 0x01,0x24,0xa1,0x57,0x09,0xdf,0x00,0x00,0x48,0x25,0x04,0xa0,0x48,0xa5,0x04,
 0x92,0x54,0x24,0x49,0x94,0xbe,0x82,0x76,0x01,0x00,0x50,0x15,0x00,0x09,0xa4,
 0x48,0x02,0xaa,0x92,0x4a,0x21,0xa1,0x57,0x21,0x1f,0x40,0x82,0xa4,0x0a,0x00,
 0x50,0x10,0x25,0x01,0x25,0x49,0x51,0x8a,0x94,0xae,0x48,0x3f,0x00,0x20,0x50,
 0x55,0x20,0x89,0x48,0x92,0x02,0x54,0x2a,0x8a,0x3a,0xa2,0xaf,0x02,0x2f,0x00,
 0x00,0xa4,0x02,0x00,0x00,0x90,0x24,0x04,0x92,0x4a,0x55,0xad,0x48,0x9b,0x00,
 0x3d,0x40,0x00,0x50,0x2d,0x00,0x20,0xa0,0x92,0x02,0x4a,0x24,0x91,0x5a,0xa5,
 0xa7,0xea,0xaf,0x5f,0x0b,0x48,0xa5,0xba,0x0a,0x28,0xa5,0x00,0xa5,0x92,0x2a,
 0xb5,0x4a,0x5f,0x55,0xbb,0xa4,0x24,0xa0,0x92,0x54,0x25,0x80,0x28,0x05,0x48,
 0x2a,0xa2,0x6a,0xa9,0xab,0xea,0xaf,0x5b,0xdb,0xaf,0x45,0xea,0xdf,0x55,0x42,
 0x02,0x2a,0x49,0x49,0xba,0xaa,0x4f,0x55,0xdf,0xaa,0x6a,0xa9,0x2a,0xf5,0xb5,
 0x82,0x2a,0x01,0x49,0xa5,0x2a,0xa5,0xd3,0xb6,0xda,0xb5,0xaa,0xaa,0x52,0xd1,
 0xab,0x4b,0x54,0x88,0x04,0x2a,0x29,0x49,0xed,0xaa,0xaf,0x6a,0x5f,0xb5,0xaa,
 0xaa,0x4a,0xd5,0x25,0x25,0x25,0x01,0xa4,0x44,0x92,0xda,0x6b,0x4b,0xd5,0xeb,
 0x56,0xd5,0xa2,0xba,0x6b,0x91,0x88,0x48,0x02,0x2a,0x55,0x55,0xb5,0xa5,0x6f,
 0xb5,0xbf,0xb5,0x6d,0x95,0xca,0xd6,0x25,0x25,0x25,0x01,0xa2,0x28,0x22,0xed,
 0x5a,0x4d,0xd5,0x4b,0x6b,0xab,0xa8,0x1c,0x68,0x89,0x48,0x48,0x02,0x29,0x95,
 0xa9,0xf6,0xa7,0xb6,0x6a,0xaf,0x5a,0x55,0x45,0xe5,0xd6,0x52,0x24,0x95,0x02,
 0x4a,0x22,0x92,0xaa,0x52,0xed,0xd7,0x5b,0x55,0x55,0xa9,0x0a,0x7d,0x89,0x92,
 0x20,0x04,0x52,0xa9,0xaa,0x7e,0x2b,0x95,0xaa,0xaf,0xb6,0x55,0x25,0x55,0xd5,
 0x25,0x49,0x96,0x02,0x24,0x55,0x44,0xa7,0xa5,0xfa,0xf7,0x2b,0xa9,0x0a,0x48,
 0x90,0x3e,0x48,0x92,0x50,0x00,0x53,0x09,0x53,0xdd,0x16,0x6a,0xab,0x57,0xd6,
 0xaa,0xaa,0xa6,0xea,0x25,0x49,0x0a,0x05,0x84,0x54,0x94,0x56,0xa3,0x44,0xd5,
 0xae,0x04,0x00,0x50,0xa9,0x1f,0x92,0x24,0xa9,0x00,0x55,0xa5,0xa5,0xda,0x4a,
 0xb5,0x54,0xab,0x2a,0x89,0xaa,0x52,0xeb,0x24,0x91,0x44,0x02,0x14,0x12,0x4a,
 0x6e,0x29,0x41,0x55,0xb5,0x02,0x00,0x40,0xff,0x1f,0x92,0x24,0x29,0x05,0x52,
 0x55,0x29,0xf5,0x8a,0x5a,0xaa,0xaa,0x1a,0x20,0xa9,0xb5,0x55,0x49,0x92,0x84,
 0x00,0x4a,0xa2,0x52,0xdd,0x23,0x89,0xa4,0xaa,0x22,0x01,0xa4,0xaa,0x02,0x22,
 0x49,0x52,0x02,0x52,0x29,0x49,0xf2,0xaa,0x54,0x55,0xb5,0x4a,0x48,0x49,0x55,
 0xab,0x94,0x24,0x29,0x02,0x24,0x95,0x92,0xd4,0x4b,0xa5,0x4a,0xad,0x2a,0x00,
 0xa0,0x48,0x24,0x21,0x89,0x44,0x01,0x95,0x4a,0xa9,0xaa,0x27,0x55,0x52,0x55,
 0x95,0x24,0x49,0x55,0x49,0x4a,0x52,0x22,0x02,0x52,0x90,0x44,0x22,0xa8,0xa4,
 0xaa,0x6a,0x01,0x02,0x20,0x22,0xa5,0x94,0x84,0x94,0x04,0x29,0x55,0x52,0x95,
 0x25,0x95,0xaa,0xaa,0xaa,0x40,0x52,0x55,0x12,0x22,0x29,0x25,0x01,0x52,0xa5,
 0x4a,0x54,0x52,0x2a,0x95,0xaa,0x92,0x14,0xa8,0x88,0xa4,0x48,0x52,0x48,0x02,
 0x4a,0x92,0x24,0xa3,0x94,0x52,0xa9,0x6a,0x25,0x01,0x42,0xa5,0x52,0x25,0x09,
 0x25,0x01,0x94,0x54,0xaa,0x14,0xa1,0xa4,0xaa,0xaa,0x12,0x24,0x28,0x49,0x04,
 0x4a,0x52,0x92,0x04,0x4a,0x25,0x25,0xa9,0x2a,0x55,0x55,0x55,0x49,0x09,0x81,
 0x2a,0xb5,0x22,0x49,0x49,0x02,0x90,0x48,0x92,0x92,0x44,0x49,0x52,0x55,0x15,
 0x20,0x54,0xa4,0x44,0x94,0x24,0x22,0x01,0x56,0x2a,0x55,0x49,0x55,0xaa,0xaa,
 0x5a,0x55,0x85,0x80,0x12,0x2a,0x25,0x49,0x49,0x02,0xa9,0x52,0x48,0x2a,0x52,
 0x91,0x24,0xa5,0x0a,0x10,0xb2,0xa4,0x90,0x48,0x12,0x12,0x01,0x12,0x89,0xa6,
 0x4a,0x89,0xaa,0xaa,0x5a,0xab,0x44,0x04,0x95,0x4a,0x92,0x44,0x49,0x02,0xa4,
 0x52,0x89,0x94,0x52,0x25,0xa5,0xaa,0x42,0x00,0x50,0x52,0x92,0x24,0x29,0x92,
 0x04,0x95,0x54,0x52,0xa5,0xa4,0xaa,0x52,0x55,0x2d,0x52,0x4a,0x29,0x49,0x92,
 0x44,0x49,0x01,0x52,0x22,0x25,0x92,0x12,0x91,0x94,0xaa,0x8a,0x08,0x91,0x44,
 0x92,0x24,0x29,0x12,0x02,0x24,0x55,0x52,0xa9,0x48,0x4d,0x55,0x55,0x55,0x22,
 0x48,0x2a,0x49,0x92,0x04,0x49,0x01,0x49,0x89,0x94,0x4a,0xa5,0x54,0x52,0x95,
 0x8a,0x88,0x92,0x50,0x92,0x24,0x52,0x92,0x04,0xaa,0x52,0xa5,0x24,0x52,0x22,
 0x55,0x55,0x25,0x02,0x48,0x15,0x55,0x49,0x29,0x49,0x02,0x04,0x8a,0x14,0x55,
 0x89,0xda,0x2a,0xa9,0x4a,0xa8,0x2a,0xa9,0x88,0x24,0x42,0x92,0x00,0xd2,0x52,
 0xa5,0x92,0x54,0x95,0xa4,0x2a,0x29,0x05,0xa4,0x12,0x55,0x49,0xa9,0x24,0x05,
 0x15,0x25,0xaa,0x54,0x22,0x29,0xa9,0xaa,0x42,0x50,0x29,0x49,0x42,0x92,0x44,
 0x91,0x00,0x52,0x51,0x49,0x92,0x94,0x4a,0x55,0x55,0x29,0x05,0xa4,0x24,0x29,
 0x49,0x2a,0x4a,0x02,0x94,0x4a,0x95,0x4a,0x22,0xa9,0xaa,0x92,0x84,0xa8,0x52,
 0x49,0x92,0x24,0x91,0x10,0x01,0x4a,0x94,0xa4,0x24,0x51,0x55,0x4a,0xaa,0x42,
 0x04,0x54,0x55,0x49,0x92,0x48,0x4a,0x02,0x52,0x21,0x49,0xa9,0x94,0xa4,0x52,
 0x55,0x14,0x51,0x49,0x21,0x92,0x48,0x92,0x24,0x01,0xa9,0xaa,0x2a,0x55,0x4a,
 0x95,0xaa,0xaa,0x42,0x0a,0x54,0x4d,0x25,0x25,0x49,0x52,0x02,0x12,0x45,0xa4,
 0x88,0x90,0x54,0x54,0xa5,0xaa,0xa0,0x2a,0x91,0x48,0x48,0x12,0x89,0x04,0x4a,
 0xa9,0x2a,0x55,0x55,0xaa,0x2a,0x55,0x29,0x15,0xa9,0x2a,0x25,0x25,0x49,0x22,
 0x01,0x54,0x4a,0x48,0x29,0x4a,0x91,0xa4,0x2a,0x42,0x40,0xa4,0x4a,0x94,0x94,
 0x24,0x89,0x04,0x92,0x52,0x55,0x95,0x52,0x4d,0x52,0x55,0x55,0x15,0x55,0x25,
 0x45,0x22,0x89,0x24,0x01,0x2a,0x89,0x22,0x49,0x04,0x51,0x95,0x8a,0x94,0x24,
 0x50,0x95,0xa8,0x94,0x24,0x91,0x04,0x91,0x54,0x99,0xa4,0xaa,0xaa,0xa4,0x6a,
 0x52,0x92,0xaa,0x4a,0x25,0x22,0x49,0x24,0x01,0xaa,0x22,0xa5,0x2a,0x51,0x92,
 0x4a,0x8a,0x4a,0x49,0x40,0x29,0x49,0x89,0x90,0x82,0x04,0x25,0x95,0x52,0x92,
 0x94,0xaa,0x52,0x55,0xa5,0x84,0x2a,0x95,0x54,0x52,0x24,0x54,0x00,0x94,0x54,
 0x8a,0x24,0x49,0x24,0xa9,0x2a,0x12,0x2a,0x04,0x40,0x21,0x85,0x92,0x90,0x02,
 0xa5,0x4a,0xa9,0xaa,0x92,0xaa,0x94,0x4a,0x55,0x85,0x22,0x81,0x94,0x50,0x24,
 0x25,0x01,0x94,0x24,0x55,0x92,0xa4,0x44,0xa5,0x94,0x24,0x28,0x89,0x24,0x4a,
 0x45,0x91,0x88,0x04,0x52,0xaa,0x24,0x55,0x52,0xaa,0x54,0xab,0x52,0x93,0x24,
 0x08,0x25,0x29,0x24,0x25,0x01,0x4a,0x91,0x4a,0x22,0x85,0x12,0x55,0x24,0xa5,
 0x44,0x92,0x52,0x48,0x92,0x92,0x88,0x04,0xa5,0x4a,0x51,0x55,0x51,0xa9,0xaa,
 0x95,0x14,0x29,0x49,0x49,0x95,0x24,0x49,0x24,0x01,0x48,0x12,0x95,0x24,0x2a,
 0xa5,0x44,0xaa,0x52,0x42,0x92,0xaa,0x50,0x92,0x24,0x49,0x04,0x2a,0xa9,0xa4,
 0x52,0x95,0x2a,0x55,0x2b,0x29,0x29,0x29,0x49,0x8a,0x24,0x49,0x92,0x02,0xa9,
 0x52,0x49,0x4a,0x50,0x54,0xa9,0xa4,0x4a,0xa5,0x44,0x92,0x52,0x12,0x84,0x48,
 0x00,0x14,0x29,0x2a,0x29,0x8d,0x4a,0x55,0x55,0xaa,0x12,0xaa,0x2a,0x29,0x49,
 0x29,0x25,0x02,0xa9,0x42,0x51,0x55,0x22,0x91,0x24,0x45,0x09,0x4a,0x11,0x49,
 0x42,0x22,0x21,0x48,0x01,0x44,0xaa,0x94,0x24,0xa9,0x4a,0x55,0x55,0xaa,0x91,
 0xa4,0x24,0x29,0x49,0x4a,0x25,0x02,0x95,0x94,0x22,0x49,0x92,0x54,0x52,0x95,
 0x54,0x4a,0x4a,0x4a,0x4a,0x12,0x11,0x92,0x00,0xa9,0x52,0x55,0x55,0xa5,0xaa,
 0x4a,0xa5,0x92,0x24,0x29,0xa5,0xa2,0xa4,0xa4,0x44,0x02,0x92,0x24,0x24,0x49,
 0x14,0x91,0x54,0x15,0x25,0x49,0xa5,0x48,0x14,0x89,0x92,0x88,0x04,0x4a,0x95,
 0x92,0xa4,0xa2,0xaa,0xaa,0xaa,0x54,0x52,0x92,0xaa,0x4a,0x52,0x24,0x25,0x01,
 0x14,0x52,0xa5,0x2a,0x15,0x45,0x91,0x24,0x49,0x89,0x54,0x12,0x91,0x44,0x89,
 0x48,0x02,0x52,0x95,0x54,0x95,0x48,0x29,0x55,0x55,0x55,0x52,0x92,0xaa,0x4a,
 0x29,0x24,0x25,0x01,0xaa,0x28,0x89,0xa8,0x52,0x52,0xaa,0x8a,0x20,0xa4,0x24,
 0x49,0x28,0x42,0x49,0x48,0x02,0x12,0x45,0x65,0x4a,0x4a,0x55,0x49,0x65,0x96,
 0x12,0x55,0x95,0x92,0xaa,0x24,0x25,0x01,0xaa,0x94,0x94,0x92,0x94,0xa4,0xaa,
 0x8a,0x28,0xa5,0xa4,0x24,0x25,0x09,0x89,0x88,0x04,0x45,0x52,0x4a,0x55,0x42,
 0x2a,0x55,0xb5,0x4a,0x51,0x92,0x92,0x48,0x52,0x52,0x52,0x02,0xa8,0xaa,0x24,
 0xaa,0xac,0x52,0xa9,0x42,0x92,0xa4,0x54,0x55,0x25,0x89,0x88,0x44,0x00,0x2a,
 0x89,0xaa,0x92,0x22,0xa9,0x4a,0x5a,0x55,0x2a,0xaa,0x24,0x92,0x54,0x52,0x92,
 0x02,0xa5,0x52,0xa4,0x24,0x95,0x4a,0x54,0x25,0xa9,0x50,0x91,0x92,0x24,0x41,
 0x85,0x28,0x02,0x29,0xa9,0x52,0x55,0x49,0x52,0x53,0x95,0x24,0x15,0x55,0xa9,
 0x52,0x2a,0x28,0x45,0x01,0x52,0x92,0x8a,0x2a,0x92,0x54,0xa4,0xaa,0xaa,0x4a,
 0x4a,0x42,0x8a,0xa4,0x22,0x28,0x02,0x94,0x4a,0x52,0x49,0x49,0x55,0x55,0xa5,
 0x54,0xa4,0x52,0x35,0xa1,0x12,0x49,0x45,0x01,0x49,0x55,0x25,0x92,0x92,0xa2,
 0x52,0x15,0x49,0x49,0x24,0x49,0x4a,0xa4,0x94,0x12,0x05,0xa5,0x28,0xa9,0xaa,
 0x54,0x59,0x49,0x55,0xa5,0xaa,0x92,0x24,0xa5,0x2a,0x42,0xa8,0x00,0x2a,0xa5,
 0x24,0x25,0x09,0x2a,0x55,0x55,0x4a,0x44,0xaa,0x92,0x14,0x41,0x29,0x45,0x02,
 0x94,0x2a,0x95,0x94,0xd2,0xaa,0x4a,0x95,0xa4,0x2a,0x21,0x49,0x45,0x2a,0x4a,
 0x29,0x02,0x51,0x52,0x52,0xa9,0x24,0x49,0x52,0xa5,0x12,0x51,0x4a,0x2a,0x28,
 0x49,0x21,0x44,0x01,0x4a,0x25,0x49,0x26,0x95,0x54,0x29,0x95,0xd4,0x24,0x55,
 0x45,0x45,0x52,0x94,0x22,0x02,0x24,0x88,0x24,0x49,0x48,0x95,0x52,0x55,0x49,
 0x4a,0xa8,0x2a,0x55,0x85,0x22,0x49,0x01,0x92,0x52,0x49,0x92,0x2a,0x52,0x55,
 0x95,0x24,0x25,0x25,0x91,0x52,0x52,0x95,0x54,0x02,0xaa,0x0a,0x95,0x24,0x91,
 0xaa,0xa4,0x4a,0x92,0xa8,0x52,0x42,0x08,0x09,0x20,0x02,0x01,0x49,0x52,0x49,
 0xaa,0xa4,0x54,0x52,0xa9,0x54,0x92,0x28,0x29,0x44,0x44,0x95,0x54,0x02,0xb7,
 0x7d,0xb7,0x55,0x13,0x49,0x95,0xaa,0xaa,0x24,0x45,0xd5,0x55,0x29,0x49,0x82,
 0x00,0x6a,0xab,0xd5,0xda,0xa4,0xa4,0x52,0x55,0xab,0x92,0xa8,0x2a,0x2a,0x95,
 0x24,0x51,0x02,0xdd,0x56,0xad,0xb5,0x15,0x95,0xa4,0xea,0x56,0x54,0x91,0xf6,
 0xf7,0xf7,0xfb,0xae,0x05,0x6b,0xbb,0xdb,0xda,0xa2,0x52,0x55,0xaa,0xba,0x4a,
 0xa4,0x5a,0xad,0xba,0x56,0x77,0x05,0xd6,0x6a,0xb5,0x56,0x15,0x55,0x48,0xb5,
 0x4b,0x91,0x4a,0xd5,0x7a,0xd7,0xdd,0xda,0x07,0x75,0xdb,0xae,0xed,0xa2,0x48,
 0xa5,0x6a,0x5d,0x4a,0xa2,0x6e,0xd7,0x7a,0x6b,0x77,0x05,0xaf,0xad,0x75,0x5b,
 0x15,0x95,0xaa,0xda,0x2a,0xa9,0x94,0xda,0xaa,0x55,0xad,0xad,0x05,0xd5,0x76,
 0xad,0xd5,0x4a,0x52,0x92,0x6a,0xd7,0x24,0x49,0x6d,0xdb,0xba,0xdb,0xf6,0x06,
 0xbd,0xad,0x5b,0xbb,0x91,0x24,0xa9,0xda,0x1a,0x49,0xd2,0xb6,0xb6,0xa6,0xb6,
 0xaa,0x05,0xd6,0x76,0xad,0x6d,0x49,0x52,0xa5,0xaa,0x6d,0x25,0x45,0xdb,0xd5,
 0xba,0xd5,0x6e,0x05,0x00,0x00,0x40,0x00,0x25,0x95,0xaa,0x5a,0xab,0x54,0xa8,
 0x6e,0xaf,0x6b,0xbb,0xb5,0x07,0x21,0x95,0x2a,0xaa,0xa8,0xa8,0x94,0x6a,0x35,
 0x25,0xa5,0xb5,0x75,0xdd,0xd6,0x6e,0x05,0xae,0xaa,0x54,0x55,0x45,0x92,0x52,
 0x05,0x00,0x94,0x04,0x00,0x00,0x00,0x00,0x00,0x00,0x52,0x55,0x25,0x89,0x28,
 0x55,0x55,0x15,0x80,0x49,0xa9,0x00,0x00,0x00,0x00,0x00,0x00,0x08,0x02,0x92,
 0x24,0x55,0x22,0xa4,0x6a,0xb7,0x92,0x92,0xfa,0xb6,0x52,0x55,0xd5,0x02,0xa5,
 0x69,0x49,0xaa,0x24,0x55,0x93,0x94,0x48,0x54,0x49,0x0a,0x55,0x14,0x22,0x29,
 0x02,0x2a,0x8a,0xaa,0x44,0x49,0x48,0x54,0x8b,0x12,0x49,0x24,0xd1,0x48,0x41,
 0x08,0x80,0x00,0x55,0x65,0x92,0x52,0x2a,0x55,0xd5,0xab,0x48,0xa5,0x92,0x24,
 0x55,0x90,0xa2,0x2a,0x02,0x20,0x89,0x24,0x95,0x54,0x55,0xbd,0x16,0x25,0x0a,
 0x55,0x4a,0x22,0x25,0x15,0x44,0x01,0x96,0x54,0xaa,0xa4,0x4a,0xa9,0xda,0xdb,
 0x52,0xa9,0xa8,0x52,0x49,0x49,0x42,0x29,0x02,0xa8,0x92,0x44,0x92,0x52,0x55,
 0xaf,0x16,0x8a,0xfe,0x0f,0x49,0x2a,0x92,0x54,0x45,0x01,0x4b,0xa4,0x2a,0x55,
 0xaa,0xaa,0xda,0x5b,0xa5,0xae,0xb6,0xa4,0x12,0x55,0xa5,0xa8,0x04,0xb4,0x55,
 0xd5,0xaa,0x55,0xd5,0x56,0xad,0xa8,0xff,0x57,0x15,0xa5,0x08,0x12,0x05,0x01,
 0x4b,0x55,0x55,0xaa,0xaa,0x5a,0x6b,0x5f,0x25,0xfd,0x17,0x49,0x52,0x65,0x49,
 0xb1,0x04,0x54,0xaa,0xaa,0xaa,0xaa,0x6a,0xd5,0xb6,0xda,0xff,0xad,0xa4,0x04,
 0x89,0x24,0x4a,0x01,0x49,0x55,0x55,0x55,0x55,0x5b,0x55,0x6f,0xab,0xde,0x17,
 0x29,0xa9,0x54,0x49,0x51,0x02,0x24,0xa9,0xaa,0x54,0xed,0x56,0xd5,0xbf,0xda,
 0xfb,0x56,0x45,0x02,0x21,0x12,0x02,0x01,0x52,0x4a,0x95,0xaa,0x5a,0xab,0xd6,
 0xad,0x6a,0xff,0x4b,0x29,0xa9,0x94,0xa4,0x54,0x02,0x04,0x21,0x20,0x41,0xa2,
 0xdc,0xfb,0x52,0x55,0xff,0xb5,0xaa,0xaa,0x22,0x10,0x81,0x00,0x49,0x08,0x55,
 0xaa,0x5a,0x65,0xbd,0x57,0xd5,0x6d,0x97,0xaa,0x52,0x4a,0x45,0x54,0x02,0x20,
 0xa1,0x88,0x24,0x21,0x95,0x56,0x94,0xb4,0xf7,0x2a,0x49,0x8a,0x08,0x92,0x02,
 0x01,0x0a,0x14,0x52,0x92,0x54,0xa9,0xb5,0x57,0x6a,0xbd,0xa5,0xa4,0x52,0x52,
 0x49,0xa8,0x00,0xa4,0xa0,0x84,0x48,0x02,0x04,0x48,0x90,0xa4,0x52,0x15,0x09,
 0x88,0x04,0x04,0x01,0x02,0x11,0x15,0x51,0x12,0xa9,0x42,0x25,0x4a,0x92,0xaa,
 0xa2,0xa4,0x52,0x52,0x51,0xa8,0x00,0x44,0x40,0x04,0x49,0x24,0x14,0x42,0x01,
 0x41,0x24,0x08,0x02,0x00,0x00,0x00,0x02,0x00,0x11,0x15,0x51,0x02,0x89,0xa2,
 0x28,0x54,0x28,0x49,0x85,0x50,0x8a,0x24,0x09,0x00,0x02,0x40,0x40,0x04,0x08,
 0x20,0x08,0x42,0x01,0x81,0x24,0x52,0x02,0x20,0x00,0x24,0x91,0x00,0x14,0x12,
 0x81,0x42,0x8a,0x44,0x29,0x48,0x24,0x49,0x09,0x50,0x09,0x4a,0x01,0x00,0x00,
 0x40,0x00,0x14,0x88,0x20,0x12,0x00,0x02,0x00,0x00,0x00,0x00,0x00,0x00,0x00,
 0x04,0x00,0x15,0x95,0x40,0x22,0x14,0x01,0x92,0x00,0x00,0x54,0x25,0x05,0x40,
 0x00,0x90,0x90,0x00,0x00,0x40,0x12,0x81,0x42,0x54,0x08,0xaa,0x54,0x91,0x08,
 0x90,0x02,0x11,0x00,0x00,0x00,0x48,0x15,0x44,0x28,0x90,0x82,0xa2,0x00,0x01,
 0x24,0x25,0x01,0x28,0x84,0x04,0x01,0x00,0x00,0x80,0x00,0x80,0x00,0x10,0x00,
 0x02,0x90,0x00,0x00,0x88,0x00,0x20,0x12,0x04,0x01};
