#define noname_width 150
#define noname_height 233
static char noname_bits[] = {
 0xff,0xff,0xff,0xff,0xff,0xff,0xff,0xff,0xff,0xff,0xff,0xff,0xff,0xff,0xff,
 0xff,0xff,0xff,0x3f,0xff,0xff,0xff,0xff,0xff,0xff,0xff,0xff,0xff,0xff,0xff,
 0xff,0xff,0xff,0xff,0xff,0xff,0xff,0x3f,0xff,0xff,0xff,0xff,0xff,0xff,0xff,
 0xff,0xff,0xff,0xff,0xff,0xff,0xff,0xff,0xff,0xff,0xff,0x3f,0xff,0xff,0xff,
 0xff,0xff,0xff,0xff,0xff,0xff,0xff,0xff,0xff,0xff,0xff,0xff,0xff,0xff,0xff,
 0x3f,0xff,0xff,0xff,0xff,0xff,0xff,0xff,0xff,0xff,0xff,0xff,0xff,0xff,0xff,
 0xff,0xff,0xff,0xff,0x3f,0xff,0xff,0xff,0xff,0xff,0xff,0xff,0xff,0xff,0xff,
 0xff,0xff,0xff,0xff,0xff,0xff,0xff,0xff,0x3f,0xff,0xff,0xff,0xff,0xff,0xff,
 0xff,0xff,0xff,0xff,0xff,0xff,0xff,0xff,0xff,0xff,0xff,0xff,0x3f,0xff,0xff,
 0xff,0xff,0xff,0xff,0xff,0xff,0xff,0xff,0xff,0xff,0xff,0xff,0xff,0xff,0xff,
 0xff,0x3f,0xad,0xb6,0xdd,0xbd,0xff,0xff,0xff,0xff,0xff,0xff,0xff,0xff,0xff,
 0xff,0xff,0xff,0xff,0xff,0x3f,0xfb,0x7d,0x77,0xef,0xdb,0xfe,0xff,0xff,0xff,
 0xff,0xff,0xff,0xff,0xff,0xff,0xff,0xff,0xff,0x3f,0xad,0xab,0xed,0x5a,0x6d,
 0x53,0x55,0xad,0xaa,0xed,0xb6,0xfb,0xff,0xff,0xff,0xff,0xff,0xff,0x3f,0xdb,
 0x76,0x5b,0xb7,0xb7,0xdd,0xee,0xf7,0x7f,0xbb,0xfd,0xbe,0x5a,0xbb,0xff,0xff,
 0xff,0xff,0x3f,0x6d,0xad,0xed,0x5a,0x6d,0xb7,0xb5,0x5a,0xea,0xed,0x56,0x6b,
 0xf7,0xd6,0x54,0x55,0x55,0xdb,0x36,0x5b,0x77,0x5b,0xef,0xdb,0xda,0xde,0xae,
 0x5d,0xbb,0xfb,0xb6,0x5b,0xbb,0xbb,0xfb,0xfe,0xb6,0x3f,0xf5,0xaa,0xed,0x5a,
 0x6d,0xb7,0xb5,0xf5,0x76,0xd7,0xde,0x6d,0xed,0xee,0xee,0x56,0xab,0x7b,0x15,
 0x5d,0x7b,0xbb,0xd6,0xb6,0x6d,0xdb,0x5e,0xdb,0xba,0x7f,0xbb,0xbb,0x75,0x5b,
 0xfb,0xf6,0xae,0x3b,0xab,0xd6,0xd6,0xbd,0x6d,0xdb,0xb6,0xb5,0x55,0xf7,0xf6,
 0xd7,0xd6,0xae,0xed,0xd6,0xad,0x75,0x2d,0xed,0xad,0xb5,0xd6,0xb6,0x6d,0x6d,
 0xdb,0xda,0xad,0xff,0xba,0x7d,0x77,0xb7,0x6d,0xf7,0xbe,0x37,0x55,0x5b,0xdb,
 0xaa,0x6d,0xb5,0xdb,0xb6,0x17,0x55,0xfd,0x6f,0xab,0xd5,0xda,0xb6,0x5a,0x6b,
 0x2d,0xbb,0xea,0x6d,0xf7,0xb6,0xde,0x6a,0xdb,0x6a,0xb5,0xb7,0xb7,0x6d,0x7b,
 0xb7,0xdd,0xdf,0xb6,0x37,0xd6,0x5d,0x5b,0xad,0xea,0x55,0xd7,0xb6,0x0a,0x45,
 0xec,0x7f,0xdb,0xd6,0xda,0xb6,0x72,0x5b,0x2d,0xb5,0x6a,0xad,0xdb,0xb6,0xea,
 0x7a,0x5b,0xa5,0xb2,0xf5,0xdf,0xb6,0x6d,0xb7,0xad,0xad,0xed,0x36,0xdb,0xd7,
 0xda,0xaa,0xad,0x5f,0xab,0x55,0x09,0x94,0xba,0xff,0x6d,0xdb,0xda,0x76,0xbb,
 0xb6,0x2d,0x56,0xb9,0xb6,0x76,0xdb,0xaa,0xdd,0xae,0xa4,0x55,0xed,0xbf,0xda,
 0xb6,0x6e,0xdb,0xd6,0x5b,0x2b,0xb5,0xa6,0x55,0x55,0x55,0xb5,0xaa,0x92,0x92,
 0xea,0xbf,0xff,0xb7,0xed,0xb5,0x6d,0xbb,0xf6,0x1e,0xaa,0xba,0x6a,0xab,0xb6,
 0x56,0x6b,0x55,0xa8,0x5a,0xed,0xfe,0x6a,0x5b,0xdb,0xb6,0x6d,0x5b,0x2b,0x6b,
 0xa5,0xaa,0x5a,0x55,0x6d,0xad,0xbf,0x57,0xf7,0xbf,0xff,0x5b,0x55,0xb5,0xaa,
 0xaa,0xad,0x1a,0x5a,0x5b,0x5b,0x6b,0x6b,0xab,0x6a,0x55,0xa9,0xfa,0xff,0xff,
 0xad,0xb6,0xad,0xdd,0x76,0xd5,0x2d,0xd5,0x6a,0xb5,0xaa,0x5a,0x55,0xab,0xee,
 0xf7,0x45,0x55,0xff,0xb3,0x55,0x55,0x55,0x55,0x5b,0x2b,0x56,0xad,0xd6,0x5a,
 0x55,0xb5,0x55,0x7b,0xad,0xbe,0xff,0xff,0xaf,0xaa,0xea,0xb6,0xad,0xad,0x2a,
 0x55,0x55,0x55,0x6b,0xab,0x55,0xad,0x4a,0xfb,0x53,0xf5,0xfe,0xab,0xb6,0xad,
 0xaa,0x5a,0x75,0x2d,0xda,0xd6,0x5a,0xad,0xda,0x56,0xb5,0x75,0x6d,0xdd,0xbd,
 0xff,0xd7,0xaa,0x56,0xdb,0xd6,0xaa,0x36,0x55,0xb5,0xaa,0xaa,0x56,0xb5,0xaa,
 0x8a,0x5a,0x75,0xff,0xff,0xaf,0xaa,0x6a,0x55,0xb5,0x6d,0x15,0xaa,0xaa,0xd6,
 0x6a,0x55,0xd5,0xd6,0x56,0xad,0xda,0xff,0xff,0x57,0x6d,0xb5,0x6a,0xab,0xaa,
 0x2d,0x55,0x55,0x55,0xd5,0x6a,0xab,0x5a,0x55,0x91,0xfe,0xff,0xfe,0xb5,0xd5,
 0xd6,0x56,0x6d,0x5b,0x1b,0xba,0xed,0xb6,0x5a,0xad,0x5a,0xab,0x95,0xa6,0xea,
 0xff,0xff,0xaf,0xaa,0xaa,0xda,0xaa,0xd5,0x2a,0x55,0x95,0xaa,0x55,0xab,0xaa,
 0xaa,0x6a,0xc8,0xff,0xff,0xff,0x53,0xad,0x56,0xb5,0x6d,0xad,0x16,0xd6,0xb6,
 0x55,0x6d,0xb5,0x6d,0x6d,0x55,0x25,0xfd,0xff,0xff,0x6f,0x6b,0xb5,0xab,0x56,
 0xb5,0x35,0x55,0x55,0x6d,0x55,0x55,0x55,0x55,0x2b,0x75,0xfb,0xff,0xff,0xaa,
 0x5a,0x55,0xad,0x6a,0xab,0x2a,0xaa,0xaa,0x55,0xab,0x5a,0x55,0xab,0x5a,0xa9,
 0xfa,0xff,0xff,0x55,0x55,0xdb,0x6a,0x5b,0xb5,0x2d,0xad,0x56,0x55,0xad,0xd5,
 0xb6,0xda,0xb7,0x12,0xe8,0xff,0xff,0xaa,0xd5,0xaa,0x56,0xd5,0x56,0x15,0xb5,
 0xb5,0xb6,0xd5,0x5a,0xd5,0xea,0xad,0x0a,0xfa,0xff,0xff,0xd6,0x6a,0x6d,0xb5,
 0xad,0xaa,0x2d,0x55,0x6d,0x55,0xad,0xaa,0xad,0xfd,0x56,0x00,0xf0,0xff,0x7f,
 0x35,0x5b,0xab,0x55,0xb5,0x6d,0x35,0xd6,0xaa,0xaa,0xaa,0x56,0xb5,0x6a,0x3b,
 0x01,0xe8,0xff,0xff,0xd5,0x55,0xb5,0xda,0x56,0x55,0x1b,0x29,0x55,0x55,0x55,
 0xa9,0x4a,0x85,0x05,0x00,0x80,0xff,0x5f,0xab,0xb6,0x6d,0xab,0x6d,0xdb,0x16,
 0xd6,0xaa,0xaa,0xaa,0x56,0x55,0xa9,0x16,0x00,0x60,0xff,0x7f,0xb5,0x5a,0x55,
 0x6d,0xb5,0xad,0x2a,0x14,0x55,0x55,0x95,0x28,0x29,0x00,0x01,0x00,0x00,0xf8,
 0xbf,0x4a,0xa5,0xaa,0x52,0x55,0x52,0x15,0xd3,0x92,0x54,0xa5,0x56,0x15,0x82,
 0x02,0x00,0x00,0xf5,0x7f,0x55,0x55,0x55,0x55,0x55,0xad,0x2a,0x14,0x55,0x25,
 0xa9,0x48,0x02,0x00,0x00,0x80,0x00,0xa0,0xff,0xaa,0xa8,0xaa,0xaa,0x52,0xa9,
 0x2a,0xaa,0x4a,0x55,0x55,0x55,0x4d,0x80,0x00,0x00,0x00,0xd0,0xbf,0x56,0x26,
 0x49,0x4a,0x2a,0x55,0x15,0x55,0xa9,0x94,0x4a,0x52,0x02,0x00,0x00,0x40,0x00,
 0x00,0xff,0x55,0xa9,0xaa,0x52,0xa5,0x92,0x24,0x92,0xaa,0xaa,0xa4,0x4a,0x09,
 0x00,0x00,0x00,0x01,0xa0,0xbd,0x56,0x55,0x55,0x2a,0xa9,0x54,0x15,0x2a,0x95,
 0xa4,0xaa,0xaa,0x02,0x00,0x00,0x40,0x40,0x80,0xf6,0x55,0x89,0xa4,0x54,0x95,
 0xaa,0x2a,0xaa,0x52,0x55,0x95,0xa4,0x04,0x10,0x00,0x10,0x10,0x20,0xbd,0x56,
 0x55,0x95,0xaa,0xaa,0x4a,0x12,0x52,0x95,0x2a,0xa9,0xaa,0x92,0x00,0x00,0x2c,
 0x21,0x00,0xaa,0x55,0x2d,0xa9,0x92,0x24,0xa9,0x2a,0x2a,0xa9,0x54,0x55,0x29,
 0x01,0x02,0x00,0x49,0x48,0x40,0xd5,0xaa,0xaa,0x4a,0xa9,0x52,0x55,0x15,0x4a,
 0x4a,0x49,0x92,0x4a,0x00,0x00,0x00,0x14,0x12,0x10,0xaa,0xaa,0x5f,0x15,0x95,
 0x2a,0x49,0x12,0x55,0x55,0x55,0x55,0xaa,0x11,0x00,0x00,0x28,0x08,0x00,0x69,
 0x6d,0xd5,0xca,0x4a,0xa9,0xaa,0x2a,0x52,0x29,0xa5,0x54,0x15,0x00,0x04,0x00,
 0x89,0x22,0x54,0xd4,0xda,0xbb,0x37,0x52,0x92,0x94,0x14,0xaa,0x4a,0x55,0x95,
 0x52,0x80,0x00,0x40,0x24,0x0a,0x01,0x6a,0xb7,0xd6,0x9d,0x29,0x55,0xa5,0x12,
 0x4a,0xaa,0x94,0xaa,0x14,0x02,0x00,0x10,0xca,0x12,0xaa,0xa8,0x7f,0x6d,0x7f,
 0x4a,0x49,0x2a,0x25,0x52,0x55,0xaa,0xa4,0x0a,0x08,0x04,0x00,0x24,0xa5,0x14,
 0xd4,0xb5,0xdb,0x5f,0x55,0x55,0xa9,0x1a,0xaa,0xa4,0x52,0x49,0xa5,0x00,0x00,
 0x54,0x55,0x15,0xa1,0x62,0xff,0xf6,0x1f,0x91,0xa4,0x52,0x29,0x4a,0x55,0x95,
 0xaa,0x14,0x02,0x00,0x08,0x88,0x4a,0x55,0xa8,0xff,0xfa,0xbf,0x54,0x2a,0x4d,
 0x0a,0x29,0x49,0x2a,0x95,0x52,0x20,0x00,0x52,0x65,0x25,0x21,0xe5,0xb7,0xff,
 0x47,0x49,0x55,0x52,0x15,0x55,0x55,0xa5,0x52,0x0a,0x00,0x12,0x04,0x92,0x92,
 0x50,0x52,0xff,0xef,0x2f,0xa5,0x92,0x2a,0x25,0xaa,0xaa,0x94,0x54,0x55,0x00,
 0x00,0x08,0x54,0xa5,0x2a,0xe9,0xdf,0xfe,0x41,0x4a,0xa4,0x54,0x29,0x25,0x49,
 0x52,0x95,0x12,0x20,0x01,0x05,0x55,0x49,0xa4,0xd4,0xfb,0xff,0xab,0xa4,0xaa,
 0x4a,0x15,0x4a,0x55,0x55,0x29,0x05,0x01,0x40,0x80,0x4a,0x92,0x28,0xb5,0xff,
 0x7f,0x4a,0x29,0x25,0x29,0x25,0x55,0xa5,0x2a,0xa5,0x54,0x88,0x08,0x00,0x55,
 0x25,0x95,0xea,0xef,0xff,0x52,0xaa,0x94,0xaa,0x14,0x54,0x4a,0x52,0xaa,0xaa,
 0x02,0x22,0xa0,0x96,0x28,0x54,0xaa,0xfe,0x1f,0x8a,0x92,0xaa,0xa4,0x2a,0x4a,
 0xa9,0x4a,0x55,0x92,0x40,0x00,0x80,0x6a,0x12,0x24,0xd5,0xff,0xaf,0x52,0xa9,
 0x52,0x55,0x15,0x55,0x55,0x2a,0x49,0x25,0x2a,0xad,0x54,0x15,0x89,0x4a,0xf5,
 0xff,0x4b,0x4a,0x4a,0x4a,0x29,0x29,0xa4,0x4a,0x55,0x55,0x95,0x00,0x22,0x81,
 0x5a,0x2a,0xa8,0x54,0xff,0xab,0x52,0x55,0x55,0x4a,0x15,0x15,0xa9,0x92,0x2a,
 0x09,0x52,0x55,0x5e,0x55,0x81,0x96,0xda,0x55,0x0a,0x25,0x89,0x48,0x55,0x29,
 0xd2,0xaa,0x54,0x49,0x95,0x08,0xa8,0xa1,0xaa,0x04,0xa5,0xea,0xbe,0x65,0xa9,
 0xaa,0x56,0x29,0x15,0x4a,0x92,0x52,0x92,0x04,0xa0,0x4b,0x5a,0x2b,0x81,0x2a,
 0x15,0x41,0x8a,0x4a,0x52,0x52,0x4a,0x12,0x2a,0x55,0x4a,0x55,0x95,0x94,0x54,
 0x55,0xad,0x82,0xaa,0xaa,0xaa,0xb2,0x54,0x55,0xa9,0xaa,0x2a,0x52,0xa9,0xaa,
 0xaa,0x02,0x40,0x55,0xa2,0x5a,0xa0,0x52,0x55,0x4a,0x4a,0x49,0x4a,0x95,0x52,
 0x15,0x55,0x25,0x55,0x92,0x14,0xaa,0x4a,0xa9,0xad,0x40,0x55,0x95,0x52,0x25,
 0x55,0x55,0xaa,0xaa,0x12,0x4a,0xaa,0x48,0x55,0x89,0x00,0x50,0xa5,0x16,0xa0,
 0x94,0x22,0x95,0x54,0x92,0xa4,0x52,0x4a,0x2a,0xa9,0xaa,0x2a,0x29,0x05,0x48,
 0xab,0x4a,0x6d,0xa0,0xaa,0x5a,0x49,0xa5,0xaa,0x52,0x4a,0x55,0x15,0x52,0x49,
 0xa5,0x52,0x22,0x21,0x90,0x24,0x15,0x54,0xa5,0xa2,0x2a,0x49,0x49,0x95,0xaa,
 0xa4,0x2a,0x4d,0x2a,0xa9,0x4a,0x49,0x84,0xaa,0x4a,0x2d,0xa2,0x52,0x55,0x52,
 0x55,0xaa,0x54,0x25,0x95,0x14,0x52,0xa5,0x4a,0xaa,0x12,0x21,0x24,0x09,0x82,
 0x54,0x4a,0x95,0x4a,0xaa,0x24,0xa9,0x54,0x55,0x29,0xa9,0x52,0xa9,0x92,0xa4,
 0x08,0x49,0x55,0x2c,0xa9,0xaa,0x4a,0xa9,0x92,0xaa,0x4a,0xaa,0x52,0x15,0x4a,
 0x2a,0x55,0x25,0x15,0x22,0x52,0x29,0x51,0x94,0xaa,0x54,0x2a,0xa5,0x52,0x95,
 0x49,0x4a,0x2a,0x55,0x95,0x8a,0x54,0xa5,0x48,0x29,0x95,0x2a,0x55,0xa9,0x4a,
 0xa5,0x52,0x49,0x62,0xaa,0xaa,0x12,0x2a,0xa9,0x54,0xa9,0x48,0x92,0x4a,0xa5,
 0x04,0xaa,0x4a,0xa9,0x4a,0x2a,0x95,0x8a,0x92,0x54,0x15,0x92,0x4a,0x2a,0x25,
 0x95,0x4a,0xa8,0x54,0xaa,0x54,0x55,0x55,0x52,0x95,0x54,0xb5,0xaa,0xaa,0x14,
 0xaa,0x52,0x51,0xaa,0x20,0x92,0x52,0x55,0x01,0xa5,0xaa,0x92,0x94,0xa8,0x52,
 0x22,0x29,0x49,0x25,0x55,0x2a,0x4d,0x95,0x4a,0x55,0x2a,0x55,0x54,0x2a,0x55,
 0xa9,0xaa,0xa6,0xaa,0xaa,0xaa,0x2a,0x15,0xa4,0x54,0x51,0x52,0x24,0x49,0x49,
 0x29,0xa0,0x55,0xa9,0x4a,0x49,0x4a,0x92,0x2a,0xa5,0x52,0x29,0x95,0x4a,0x55,
 0xa9,0x12,0x55,0x54,0x15,0x48,0xaa,0xaa,0xaa,0x54,0xa9,0x4a,0xa9,0x94,0x54,
 0x15,0xaa,0x94,0x4a,0x05,0x49,0x89,0x25,0x05,0xa0,0x55,0x55,0x49,0xa5,0x92,
 0x54,0x4a,0x55,0x95,0x2a,0x52,0xa5,0xa4,0xb4,0x44,0x55,0x54,0x05,0x50,0x55,
 0x55,0xa5,0x54,0xaa,0x52,0x55,0xa5,0x52,0x15,0x4a,0x2a,0x95,0x52,0x92,0xa4,
 0x55,0x01,0x54,0x55,0x55,0x15,0x49,0x25,0xa5,0x92,0x94,0x54,0x12,0x55,0xa9,
 0x52,0x95,0x48,0x52,0x52,0x01,0xa8,0xaa,0xaa,0xd4,0x2a,0xa9,0x54,0x54,0x55,
 0x95,0x2a,0x52,0xa5,0x94,0x24,0x51,0xa5,0xaa,0x00,0xaa,0xaa,0x55,0x09,0x55,
 0x55,0xa5,0x52,0x92,0xaa,0x14,0x95,0x2a,0x55,0x55,0x4a,0x55,0x55,0x00,0x54,
 0xb5,0x2a,0xd5,0x92,0x24,0x95,0x4a,0x55,0x52,0x15,0x24,0x52,0x92,0x4a,0x29,
 0x92,0x2a,0x80,0x4a,0x55,0x55,0x2a,0xa5,0x4a,0x2a,0x55,0xa5,0x4a,0x15,0xd5,
 0x4a,0xa9,0xa4,0x48,0x55,0x15,0x00,0x55,0x55,0x55,0x49,0xa9,0x52,0x49,0x29,
 0xa9,0x2a,0x25,0x12,0x95,0x4a,0x29,0xa5,0xa8,0x0a,0xa0,0xaa,0x56,0x25,0x95,
 0x12,0x55,0x55,0xa5,0x4a,0xaa,0x0a,0xa9,0x52,0x29,0x55,0x29,0x25,0x05,0x80,
 0xaa,0xb5,0x9a,0x52,0xaa,0x92,0xa4,0x54,0xaa,0x52,0x29,0x52,0xa4,0x52,0x8a,
 0x92,0x4a,0x01,0x68,0x6d,0x55,0xa5,0xa4,0x54,0x2a,0x95,0xaa,0x52,0x55,0x15,
 0x4a,0x55,0xaa,0x52,0x4a,0x55,0x05,0xa0,0x56,0x55,0x55,0x95,0x4a,0xa9,0xaa,
 0x92,0x4a,0x4a,0x2a,0x92,0x92,0x44,0x4a,0xb5,0xaa,0x00,0xdd,0xaa,0xaa,0x22,
 0x29,0x91,0x52,0x92,0x54,0xaa,0x94,0x12,0xaa,0x54,0x55,0x45,0x95,0x54,0x00,
 0x64,0xdb,0xaa,0x95,0x54,0x55,0x2a,0xa9,0x4a,0x55,0x55,0x15,0x4a,0x52,0x29,
 0xa9,0x54,0x55,0x40,0x5b,0x55,0xb5,0xaa,0xa2,0xaa,0x52,0x25,0xa9,0xa4,0x52,
 0x2a,0x52,0x95,0x94,0x84,0xaa,0x2a,0x00,0x55,0x55,0x55,0x55,0x2a,0x49,0x2a,
 0x55,0x95,0x2a,0x55,0x15,0xaa,0x52,0xa5,0x02,0x55,0x15,0xd0,0x56,0x55,0x55,
 0xa5,0x4a,0xaa,0xa4,0xa4,0x24,0x55,0x4a,0x29,0x25,0x4a,0xaa,0xaa,0xaa,0x2a,
 0x40,0x6b,0x55,0xd5,0x52,0x52,0x25,0x95,0x2a,0x55,0x49,0x55,0x15,0x4a,0xa9,
 0x24,0x01,0x6a,0x0b,0xbc,0x54,0x55,0xbd,0x8a,0x94,0x54,0xa9,0xa4,0xaa,0x52,
 0x29,0x25,0x55,0x95,0xaa,0x42,0x55,0x05,0x40,0xab,0xaa,0x6a,0x55,0xa5,0x2a,
 0x55,0x55,0x92,0x2c,0x55,0x15,0x28,0x29,0x49,0x14,0xbb,0x01,0xad,0xaa,0xfa,
 0xff,0x50,0x4a,0x52,0x92,0xa4,0x54,0x51,0x49,0x2a,0x4a,0xa5,0x54,0x41,0xd5,
 0x02,0x52,0x55,0x55,0xff,0x2a,0x51,0x95,0x4a,0x95,0x4a,0x56,0x55,0x15,0x55,
 0x4a,0xa5,0x94,0xbe,0x81,0x54,0x55,0xff,0xbf,0x44,0x25,0x49,0x29,0xa9,0x52,
 0x29,0x55,0x25,0x24,0xa9,0x2a,0x41,0xd5,0x02,0xab,0xaa,0xfd,0xff,0xab,0x94,
 0xa4,0x54,0x55,0xaa,0xaa,0x52,0x15,0xa9,0x12,0x49,0x94,0xaa,0xa0,0x44,0xf2,
 0xff,0xaf,0x10,0xa9,0x2a,0x25,0x89,0x92,0xa4,0x94,0x14,0x55,0xd5,0x54,0x42,
 0xb5,0x43,0xaa,0x4a,0xff,0x7f,0x4d,0x25,0xa5,0x52,0x65,0x55,0x95,0xaa,0x2a,
 0x8a,0x24,0x25,0xa8,0x6a,0x09,0x89,0xfc,0xbf,0xaa,0x25,0x49,0x4a,0x4a,0x2a,
 0x29,0x55,0x55,0x09,0x52,0x95,0x12,0xa2,0x5a,0xa5,0x54,0xf5,0xff,0xdf,0xaa,
 0xaa,0x52,0x55,0x55,0x55,0xa5,0x92,0x2a,0x2a,0x55,0xaa,0x68,0xeb,0x15,0xa2,
 0xfe,0x55,0x22,0x55,0x52,0x2a,0x49,0x49,0x92,0x14,0x55,0x2a,0x4a,0x49,0x15,
 0xaa,0x2d,0xab,0x54,0x7f,0xaf,0xda,0x2a,0x95,0x92,0xaa,0x54,0x55,0x55,0x55,
 0x15,0x54,0x52,0x42,0xa8,0xda,0xae,0x52,0xd7,0x54,0xa5,0x45,0x52,0x2a,0x49,
 0x49,0x4a,0xa9,0xa4,0x12,0xa5,0x2a,0x19,0xd5,0xb5,0xb7,0xa8,0x5d,0xab,0xaa,
 0x5a,0x29,0xa5,0x2a,0x55,0xa9,0xaa,0xaa,0x2a,0x92,0xa4,0x02,0x6a,0xef,0x7a,
 0xeb,0x6b,0x75,0xd5,0xaa,0x52,0x4a,0x52,0x4a,0x25,0x25,0x55,0x0a,0x55,0x95,
 0xaa,0xd4,0xba,0xdd,0xea,0x5a,0x5b,0x5b,0x4b,0x4a,0xa9,0x4a,0x55,0xaa,0x52,
 0xa5,0x2a,0xa4,0x2a,0x45,0xb5,0xeb,0xfb,0xbf,0x6b,0xd5,0xaa,0x36,0xa9,0x52,
 0x2a,0xa9,0xa4,0x54,0xa9,0x12,0x95,0xa4,0x92,0xd4,0xfe,0x6f,0xeb,0xb6,0xbb,
 0xd6,0xaa,0x4a,0x2a,0xa5,0x4a,0x95,0x2a,0x55,0x2a,0x52,0x4a,0x54,0x2b,0xfb,
 0xf5,0xbf,0x55,0xa5,0x5a,0x5d,0x92,0xa4,0x48,0x92,0xaa,0x52,0xa5,0x0a,0xa9,
 0x52,0x55,0xad,0xfe,0xab,0xff,0xb6,0x7a,0xad,0x6a,0xa9,0x52,0x55,0x55,0x52,
 0xaa,0x94,0x2a,0x4a,0xaa,0x52,0x17,0xf9,0xd3,0xdf,0x6a,0xa7,0x55,0x95,0x4a,
 0x95,0x2a,0xa9,0xaa,0x4a,0x55,0x29,0xa5,0x12,0xa9,0x0d,0xf6,0x65,0xbf,0xb6,
 0x5a,0xb5,0xb4,0x24,0x49,0x92,0x4a,0x49,0x29,0x55,0x15,0x14,0xa5,0xaa,0x46,
 0xf4,0xab,0x6f,0xad,0xb5,0xaa,0xaa,0xaa,0xaa,0xaa,0x94,0x2a,0x55,0x49,0x25,
 0x52,0xa9,0xd4,0x05,0xf5,0xaa,0xdf,0xd6,0x56,0x55,0x55,0x49,0x52,0x92,0x52,
 0x49,0xa5,0xaa,0x14,0xa5,0x92,0xbe,0x03,0xec,0x77,0xbf,0xad,0xda,0xaa,0xaa,
 0x92,0xa4,0x2a,0x55,0xaa,0x2a,0x55,0x15,0x94,0x54,0xd5,0x91,0xf2,0xbd,0x57,
 0xdb,0xaa,0xb6,0xaa,0x54,0x95,0xa4,0x4a,0x55,0x52,0xa5,0x2a,0x29,0xa5,0xbb,
 0x00,0xfc,0xd7,0xff,0xb6,0x6d,0xad,0xaa,0x2a,0x29,0x29,0xa9,0xa4,0x4a,0x4a,
 0x09,0xa4,0xaa,0x6e,0x01,0xd2,0x7f,0x5f,0x5b,0x5b,0x57,0x55,0x49,0x55,0x55,
 0x55,0x2a,0x55,0xa9,0x2a,0x95,0xc8,0xf5,0x28,0xfc,0xea,0xbf,0xed,0x6a,0xa9,
 0xaa,0x92,0xa2,0x92,0xa4,0x52,0xa9,0x2a,0x15,0x52,0xaa,0xfe,0x02,0xe2,0xbf,
 0x6e,0x5b,0xab,0x56,0x95,0x54,0x29,0xa9,0x2a,0x95,0x4a,0x55,0x25,0xa4,0x52,
 0xb5,0x15,0xf8,0xeb,0xbf,0x6d,0x55,0x55,0x52,0x92,0x4a,0x4a,0x52,0x29,0x29,
 0xa9,0x2a,0x55,0xaa,0xfb,0x49,0xe8,0x7e,0xef,0xdb,0xaa,0xaa,0xa9,0xaa,0x54,
 0xa5,0xaa,0x4a,0x55,0x95,0x14,0x92,0xa4,0x7e,0x15,0xea,0xab,0xbd,0xb6,0x55,
 0x49,0x12,0x25,0x49,0x95,0x24,0x55,0x4a,0xa5,0x12,0x54,0x55,0xeb,0x8b,0x50,
 0xff,0xdf,0xda,0x5a,0x25,0xa9,0x52,0x55,0x52,0x55,0x49,0x55,0xa9,0x2a,0x49,
 0x52,0xbd,0x04,0xee,0xad,0xbb,0xaa,0xaa,0x54,0x4a,0x24,0x49,0x95,0x92,0xaa,
 0x92,0xaa,0x0a,0x24,0xa9,0xee,0x55,0x51,0xfb,0x7e,0xdb,0xaa,0x2a,0x55,0x95,
 0x2a,0xa9,0x54,0xa5,0x54,0x55,0x2a,0x55,0x45,0x09,0x02,0xaa,0xaf,0x6f,0xad,
 0x2a,0x40,0x48,0x29,0x49,0x52,0x49,0x4a,0x25,0x49,0x29,0x52,0xaa,0x6a,0x15,
 0x69,0xff,0x7a,0x6b,0x95,0x2d,0xa5,0xa4,0xaa,0x4a,0xaa,0x32,0x55,0x55,0x15,
 0xa4,0x24,0xa5,0x44,0xd2,0x55,0xaf,0xad,0x2a,0x90,0x2a,0x55,0x24,0x95,0x92,
 0x4a,0xaa,0xaa,0x2a,0x95,0x52,0x29,0x12,0x55,0xff,0x7b,0x5b,0x4b,0x45,0x92,
 0x92,0xaa,0xa4,0x54,0xa9,0x52,0x52,0x15,0x52,0x8a,0xa4,0x40,0x52,0x55,0x6f,
 0x55,0x05,0xa8,0x54,0xaa,0xa4,0x2a,0x25,0x55,0xa5,0x4a,0x12,0x29,0x55,0x55,
 0x15,0xa9,0xbf,0xdd,0x6e,0x55,0x85,0xaa,0x92,0x2a,0xa5,0xaa,0x24,0x55,0xa9,
 0x2a,0x42,0x28,0x92,0x40,0xa4,0xea,0xbe,0xa9,0x02,0x50,0x42,0x55,0x52,0xaa,
 0x54,0x55,0x29,0x55,0x15,0xaa,0x95,0x4a,0x12,0xa9,0xba,0xef,0xd6,0xaa,0x24,
 0x35,0x49,0x95,0x92,0x92,0xaa,0xaa,0xaa,0x14,0x14,0xa2,0x54,0x41,0x52,0xeb,
 0x9b,0x55,0x01,0x82,0x48,0x2a,0xa9,0xa4,0x2a,0x49,0xa5,0x52,0x15,0xa5,0x55,
 0x4a,0x12,0x54,0xbd,0x6e,0xb5,0xaa,0x50,0x52,0xa5,0x4a,0x55,0xa9,0xaa,0x54,
 0x95,0x2a,0x4a,0x8a,0x94,0x88,0xa2,0xea,0xda,0x56,0x05,0x0a,0x89,0x94,0x94,
 0x14,0x25,0x49,0x95,0x54,0x09,0xa5,0xa4,0x52,0x22,0x59,0x55,0xaf,0xaa,0x52,
 0xa1,0xa4,0xaa,0x52,0xa5,0xaa,0xaa,0xaa,0xaa,0x2a,0x94,0x52,0xa5,0x00,0x52,
 0x6d,0xd9,0xaa,0x08,0x04,0x49,0x92,0xa4,0xaa,0x54,0x92,0x24,0x25,0x15,0xaa,
 0x54,0x52,0x92,0xaa,0xb4,0x6d,0x55,0xa5,0xa2,0x24,0x55,0x55,0x52,0x92,0xaa,
 0xaa,0xaa,0x2a,0x22,0x89,0xa4,0x40,0x14,0x55,0x55,0xab,0x10,0x08,0xa9,0xa4,
 0x4a,0xa5,0xaa,0x54,0x52,0xa9,0x24,0x55,0x55,0x15,0x15,0xa5,0xaa,0xaa,0xaa,
 0x8a,0x42,0x94,0x2a,0x29,0x29,0x49,0x95,0x2a,0x55,0x15,0x48,0x22,0x52,0x80,
 0x14,0x55,0xb7,0x56,0x51,0x28,0x29,0x49,0x52,0x4a,0x95,0x52,0x55,0x95,0x2a,
 0x2a,0x55,0x49,0x25,0xa4,0xaa,0xd5,0x5a,0x0a,0x82,0xa4,0xaa,0xaa,0xaa,0xaa,
 0x54,0x49,0x55,0x15,0x51,0xa4,0x2a,0x90,0x02,0xb5,0x2a,0x55,0xa1,0x48,0x8a,
 0x52,0x95,0x94,0xa4,0x4a,0xaa,0xa4,0x24,0x94,0x2a,0x49,0x05,0xd4,0xaa,0xad,
 0xaa,0x14,0x12,0x50,0x95,0x4a,0xa5,0x52,0x55,0x55,0x55,0x15,0xa5,0x90,0x94,
 0x40,0x90,0xde,0x4a,0x55,0x41,0x48,0x43,0x54,0xa9,0x2a,0x15,0x49,0x89,0xaa,
 0x2a,0x29,0x4d,0x25,0x11,0xca,0x6a,0x2b,0x55,0x2a,0x85,0x94,0xaa,0xaa,0xa4,
 0x4a,0x55,0xb5,0x94,0x14,0x52,0x92,0x54,0x84,0x68,0xb5,0xaa,0x5a,0x84,0x80,
 0x20,0x25,0x45,0x95,0x54,0x4a,0x52,0xa9,0x12,0x49,0x49,0x89,0x00,0xb4,0xae,
 0x95,0xaa,0x52,0x54,0x94,0xaa,0x54,0xaa,0x52,0x55,0x95,0xaa,0x2a,0x2a,0x15,
 0x55,0x40,0x55,0xa9,0x48,0x2a,0x89,0x02,0x21,0x50,0x95,0x24,0x95,0x52,0x55,
 0x25,0x15,0x95,0xa2,0x22,0x12,0x52,0x55,0xa5,0xaa,0x44,0x50,0x90,0x96,0xaa,
 0x52,0x55,0x55,0xaa,0xaa,0x2a,0x28,0x54,0x94,0x80,0x24,0x55,0x2a,0x55,0x92,
 0x04,0x0a,0x40,0x52,0x95,0x24,0x49,0x91,0x54,0x09,0x95,0x95,0x4a,0x22,0x95,
 0xaa,0x92,0x54,0x49,0x42,0x04,0x91,0x4a,0xaa,0xaa,0xaa,0xaa,0xaa,0x2a,0x52,
 0x52,0x29,0x88,0x68,0xb5,0xa4,0x2a,0x25,0x29,0x21,0x00,0x55,0x49,0x52,0x52,
 0x2a,0x25,0x15,0xaa,0x94,0x94,0x22,0x95,0xaa,0x2a,0xa9,0x92,0x48,0x08,0xa2,
 0x28,0xa5,0x2a,0x95,0xaa,0xaa,0x2a,0xa5,0x2a,0x25,0x80,0x64,0xdd,0xaa,0x2a,
 0x25,0x55,0x6b,0x01,0x40,0x95,0xa4,0x2a,0x51,0x52,0x12,0x29,0x49,0x95,0x2a,
 0x95,0xaa,0x96,0x54,0x51,0x52,0x15,0x48,0xaa,0x52,0x55,0x49,0x95,0x2a,0x15,
 0x44,0x92,0x00,0x52,0xa8,0xfa,0x6d,0xa1,0x44,0x25,0xd1,0x21,0x00,0x24,0x09,
 0x52,0x22,0x51,0x12,0x29,0x49,0xaa,0x24,0x55,0xad,0xb6,0x56,0x2a,0x51,0xaa,
 0x08,0x40,0x92,0xd4,0x2a,0xa9,0x4a,0x15,0xdb,0xb6,0x97,0x4a,0xa1,0x6a,0xd5,
 0x5a,0xa5,0x0a,0x54,0xd4,0x96,0xa8,0xb7,0xd5,0x6e,0xad,0x2a,0x6d,0xdb,0x2a,
 0x51,0x2a,0xb5,0xbb,0xad,0x4a,0x84,0x2a,0x22,0x55,0xa0,0xda,0xba,0xb5,0x76,
 0x37,0xf7,0x7f,0xaf,0x54,0x51,0x05,0x54,0x2b,0xa9,0x52,0x95,0x54,0xa9,0x02,
 0xf4,0xef,0xef,0xed,0x1d,0xdd,0xd5,0x5f,0x4a,0x4a,0xb5,0xed,0xda,0x2a,0x09,
 0x0a,0x55,0x55,0x15,0xa9,0xbb,0x7a,0x5b,0x2d,0xff,0xff,0xf6,0x52,0x95,0x40,
 0x55,0xab,0x52,0xd1,0xa0,0x54,0x55,0x05,0x80,0xfe,0xd7,0xff,0x3b,0xeb,0xfe,
 0x7f,0x55,0x52,0xaa,0xda,0xb6,0x4a,0x25,0x95,0xaa,0xaa,0x22,0x40,0x6d,0xfd,
 0xaa,0x2e,0xbd,0xdb,0xd6,0x4a,0x55,0x55,0xad,0x6a,0x95,0x4a,0xa4,0xaa,0x56,
 0x0d,0x02,0xd0,0xd7,0xff,0x3d,0xef,0xff,0xbf,0x25,0x49,0xa5,0xea,0x5d,0x55,
 0xa9,0xaa,0xaa,0xaa,0xb2,0x00,0xa8,0x7d,0x55,0x2b,0x7f,0xdb,0xfd,0xd7,0xaa,
 0xaa,0x9a,0xaa,0xaa,0x92,0xaa,0x6a,0x55,0x55,0x05,0x02,0xee,0xff,0x3f,0xea,
 0xfe,0xff,0x2b,0x55,0xa9,0xea,0x76,0x55,0x55,0x55,0xb5,0xaa,0xaa,0x82,0x20,
 0x7b,0xdb,0x2a,0x04,0x01,0x00,0x40,0x55,0xd7,0xad,0xad,0xad,0x24,0xa9,0x4a,
 0xa5,0x4a,0x55,0x0b,0xa4,0xb6,0x1d,0xaa,0x48,0x52,0x9a,0xda,0x6a,0xb6,0x6a,
 0x55,0x55,0x55,0xb5,0xaa,0xb4,0xaa,0x92,0xba,0xab,0x2a,0xa9,0xaa,0x4a,0xa5,
 0xaa,0xde,0xd5,0xb6,0xaa,0xaa,0xaa,0x4a,0x95,0x4a,0x09,0x44,0x26,0x08,0x09,
 0x24,0x55,0xaa,0x52,0xaa,0x55,0xbb,0xad,0xad,0x4a,0xaa,0xaa,0x52,0x55,0xd5,
 0x12,0xda,0xa5,0x24,0x49,0x80,0x10,0x24,0xa9,0xda,0x56,0xbb,0x2a,0x51,0x29,
 0x29,0x55,0x55,0x55,0x80,0x5e,0x5b,0x2b,0x94,0xb6,0x4a,0x95,0xa4,0xb6,0xaa,
 0x55,0xab,0x2a,0xa5,0xaa,0xaa,0xaa,0xaa,0x12,0x6e,0xa5,0x14,0x25,0x49,0xaa,
 0xa4,0xaa,0x6a,0x77,0xb7,0xaa,0x44,0x55,0x55,0xd5,0xb6,0xad,0x8a,0x5a,0x55,
 0x15,0xaa,0x24,0x45,0x52,0x92,0xaa,0xda,0xda,0xaa,0x12,0x55,0xab,0x6d,0x55,
 0x55,0x05,0xae,0x2a,0x29,0xa4,0xaa,0x54,0xa5,0x54,0xd5,0xaa,0xb6,0x2a,0xa5,
 0xaa,0x76,0x5b,0x6b,0x6b,0xd5,0xb5,0x55,0x15,0x53,0x92,0x2a,0x95,0x92,0xaa,
 0x6d,0x5b,0xd5,0x4a,0xd5,0x5a,0x55,0x55,0x55,0x2b,0xae,0xaa,0x2a,0x94,0x54,
 0x52,0x2a,0x25,0xb5,0x5a,0xb5,0xad,0x5b,0x2b,0xa5,0xaa,0xaa,0x54,0xd4,0x5a,
 0x29,0x15,0xab,0xaa,0xaa,0x52,0x95,0xaa,0x6d,0x5b,0x6b,0xad,0xaa,0x5a,0x55,
 0x55,0x4a,0xab,0xae,0xd5,0x2a,0xa4,0x4a,0x55,0xad,0x6a,0xaa,0xd6,0xb6,0xdd,
 0x76,0x97,0xaa,0x2a,0x41,0x91,0xa4,0xab,0x24,0x05,0x95,0xaa,0xaa,0x52,0x95,
 0x6a,0x6b,0xd5,0xb6,0xdb,0xaa,0xaa,0xaa,0x2c,0x4a,0xd2,0x5a,0x55,0x35,0x28,
 0x49,0x52,0x25,0xa9,0xaa,0xde,0x6d,0x6b,0xd5,0x4b,0x54,0x55,0x91,0x24,0x49,
 0xb7,0xaa,0x04,0xa5,0xaa,0x4a,0xaa,0x4a,0xa9,0xb2,0xb6,0xbd,0xfb,0xaa,0x52,
 0x55,0x4d,0x92,0xa0,0x55,0x55,0x35,0x4a,0x24,0xa9,0x54,0xb5,0xaa,0xea,0xdb,
 0x56,0xe5,0x15,0xa5,0xaa,0xb2,0x24,0xea,0x16,0x25,0x05,0x91,0xaa,0x94,0xaa,
 0x4a,0x55,0xb5,0xb6,0xfb,0x6a,0xab,0x52,0xad,0x2a,0x49,0x81,0xed,0x52,0x35,
 0x2a,0x91,0x22,0x55,0x55,0x95,0xca,0xff,0x96,0xfa,0x2e,0x25,0x55,0x55,0x25,
 0xf4,0x15,0x55,0x0a,0x91,0x4a,0xaa,0xaa,0xaa,0x54,0xb5,0xaa,0x7d,0xbd,0xdb,
 0x54,0xaa,0xaa,0x4a,0xe9,0x56,0x49,0x25,0xaa,0x54,0x55,0x09,0x49,0x55,0xd5,
 0xff,0xab,0x6b,0x2d,0x91,0xd4,0x55,0x95,0x74,0x2d,0x95,0x08,0x45,0x55,0x55,
 0xd5,0xaa,0xaa,0xaa,0xda,0x7e,0xbd,0xad,0x4a,0xa5,0x5a,0x55,0xd9,0x96,0x48,
 0x12,0x28,0xa9,0xaa,0xaa,0x5a,0xdb,0xb6,0xed,0xf7,0xff,0x17,0x25,0x12,0xed,
 0x2a,0xfd,0x0a,0x91,0x24,0x92,0x94,0x54,0x55,0xab,0x55,0x5b,0xdb,0x7e,0xb7,
 0xab,0x52,0xc9,0x5a,0xab,0x6a,0x57,0x4a,0x12,0x44,0x22,0x49,0x55,0x6d,0xdb,
 0x6a,0xed,0xeb,0x6a,0x2a,0xa4,0x2a,0xa5,0x55,0xbf,0x4a,0x55,0x25,0x92,0x54,
 0xa5,0xaa,0x55,0x6d,0xb5,0xbb,0x7e,0xbf,0xab,0x55,0xaa,0xda,0xb6,0xd4,0x55,
 0x49,0x12,0x08,0x00,0x14,0x55,0xaa,0xaa,0x4d,0xd5,0xd5,0x6a,0xad,0xaa,0x55,
 0xb5,0xdd,0x7f,0xab,0x92,0x08,0xa2,0xaa,0x42,0xa9,0x55,0x55,0xd5,0xba,0x5a,
 0xdd,0x76,0x55,0x55,0xab,0x6e,0xdf,0x55,0x4a,0x12,0x08,0x00,0x08,0x04,0x88,
 0x24,0x55,0xd7,0xb5,0xeb,0xdb,0xde,0xee,0x6e,0xff,0x3b,0x89,0x90,0x0a,0xa2,
 0xaa,0xa2,0x42,0x25,0xa9,0xaa,0xba,0xde,0xba,0x56,0x6b,0x55,0xb5,0xfb,0xd7,
 0x54,0x2a,0x21,0x08,0x00,0x04,0x14,0x90,0x00,0xa8,0xa5,0x52,0xd5,0xaa,0x94,
 0xaa,0x4a,0x0a,0x54,0xa5,0xa2,0x0a,0x42,0x55,0xa9,0x42,0x25,0xaa,0xaa,0x5a,
 0xad,0xaa,0x5a,0xab,0xaa,0xaa,0x6a,0xab,0x12,0x49,0x28,0x10,0x00,0x00,0x08,
 0x02,0x00,0x91,0xa4,0x52,0x55,0x25,0x24,0x11,0xa1,0x84,0x24,0xa9,0x24,0x05,
 0x04,0x24,0xa5,0xa2,0x50,0x55,0x54,0x55,0xaa,0xaa,0xaa,0x95,0xaa,0x94,0x52,
 0x55,0x0a,0x92,0x12,0x52,0x01,0x10,0x08,0x05,0x20,0x81,0x80,0x08,0x21,0x04,
 0x20,0x04,0x49,0x0a,0x54,0x51,0x49,0x24,0x24,0x50,0x05,0x44,0xa0,0x4a,0x54,
 0x5a,0xd2,0x94,0x52,0x95,0xa2,0x24,0x51,0x95,0x94,0x24,0x12,0x80,0x04,0x20,
 0x11,0x09,0x00,0x21,0x21,0x05,0x22,0x04,0x40,0x08,0x11,0x84,0x20,0x21,0x92,
 0x04,0x29,0x00,0x42,0x00,0x82,0xaa,0x94,0x94,0x50,0x89,0x52,0x15,0x42,0x4a,
 0x29,0xaa,0x94,0xa4,0x12,0x80,0xaa,0x14,0x55,0x14,0x00,0x22,0x22,0x85,0x24,
 0x04,0xa0,0x94,0x20,0x42,0x48,0x25,0x11,0x24,0x24,0x10,0x81,0x00,0xa1,0xaa,
 0x94,0x94,0x28,0x91,0x52,0x15,0x21,0x95,0x28,0x25,0x49,0x44,0x09,0x90,0x44,
 0x14,0xaa,0x04,0x20,0x22,0x21,0x25,0x4a,0x14,0x21,0x4a,0x24,0x85,0xa8,0x24,
 0x91,0x24};
