#define noname_width 283
#define noname_height 261
static char noname_bits[] = {
 0xff,0xff,0xff,0xff,0xff,0xff,0xff,0xff,0xff,0xff,0xff,0xff,0xff,0xff,0xff,
 0xff,0xff,0xff,0xff,0xff,0xff,0xff,0xff,0xff,0xff,0xff,0xff,0xff,0xff,0xff,
 0xff,0xff,0xff,0xff,0xff,0x07,0xff,0xff,0xff,0xff,0xff,0xff,0xff,0xff,0xff,
 0xff,0xff,0xff,0xff,0xff,0xff,0xff,0xff,0xff,0xff,0xff,0xff,0xff,0xff,0xff,
 0xff,0xff,0xff,0xff,0xff,0xff,0xff,0xff,0xff,0xff,0xff,0x07,0xff,0xff,0xff,
 0xff,0xff,0xff,0xff,0xff,0xff,0xff,0xff,0xff,0xff,0xff,0xff,0xff,0xff,0xff,
 0xff,0xff,0xff,0xff,0xff,0xff,0xff,0xff,0xff,0xff,0xff,0xff,0xff,0xff,0xff,
 0xff,0xff,0x07,0xff,0xff,0xff,0xff,0xff,0xff,0xff,0xff,0xff,0xff,0xff,0xff,
 0xff,0xff,0xff,0xff,0xff,0xff,0xff,0xff,0xff,0xff,0xff,0xff,0xff,0xff,0xff,
 0xff,0xff,0xff,0xff,0xff,0xff,0xff,0xff,0x07,0xff,0xff,0xff,0xff,0xff,0xff,
 0xff,0xff,0xff,0xff,0xff,0xff,0xff,0xff,0xff,0xff,0xff,0xff,0xff,0xff,0xff,
 0xff,0xff,0xff,0xff,0xff,0xff,0xff,0xff,0xff,0xff,0xff,0xff,0xff,0xff,0x07,
 0xff,0xff,0xff,0xff,0xff,0xff,0xff,0xff,0xff,0xff,0xff,0xff,0xff,0xff,0xff,
 0xff,0xff,0xff,0xff,0xff,0xff,0xff,0xff,0xff,0xff,0xff,0xff,0xff,0xff,0xff,
 0xff,0xff,0xff,0xff,0xff,0x07,0xff,0xff,0xff,0xff,0xff,0xff,0xff,0xff,0xff,
 0xff,0xff,0xff,0xff,0xff,0xff,0xff,0xff,0xff,0xff,0xff,0xff,0xff,0xff,0xff,
 0xff,0xff,0xff,0xff,0xff,0xff,0xff,0xff,0xff,0xff,0xff,0x07,0xff,0xff,0xff,
 0xff,0xff,0xff,0xff,0xff,0xff,0xff,0xff,0xff,0xff,0xff,0xff,0xff,0xff,0xff,
 0xff,0xff,0xff,0xff,0xff,0xff,0xff,0xff,0xff,0xff,0xff,0xff,0xff,0xff,0xff,
 0xff,0xff,0x07,0x7f,0xff,0xff,0xff,0xff,0xff,0xff,0xff,0xff,0xff,0xff,0xff,
 0xff,0xff,0xff,0xff,0xff,0xff,0xff,0xff,0xff,0xff,0xff,0xff,0xff,0xff,0xff,
 0xff,0xff,0xff,0xff,0xff,0xff,0xff,0xff,0x07,0xff,0xf7,0xff,0xff,0xff,0xff,
 0xff,0xff,0xff,0xff,0xff,0xff,0xff,0xff,0xff,0xff,0xff,0xff,0xff,0xff,0xff,
 0xff,0xff,0xff,0xff,0xff,0xff,0xff,0xff,0xff,0xff,0xff,0xff,0xff,0xff,0x07,
 0xff,0xff,0xff,0xfe,0xff,0xff,0xff,0xff,0xff,0xff,0xff,0xff,0xff,0xff,0xff,
 0xff,0xff,0xff,0xff,0xff,0xff,0xff,0xff,0xff,0xff,0xff,0xff,0xff,0xff,0xff,
 0xff,0xff,0xff,0xff,0xff,0x07,0xff,0xff,0xfb,0xef,0xff,0xff,0xff,0xff,0xff,
 0xff,0xff,0xff,0xff,0xff,0xff,0xff,0xff,0xff,0xff,0xff,0xff,0xff,0xff,0xff,
 0xff,0xff,0xff,0xff,0xff,0xff,0xff,0xff,0xff,0xff,0xff,0x07,0xff,0xff,0xff,
 0xff,0xff,0xff,0xff,0xff,0xff,0xff,0xff,0xff,0xff,0xff,0xff,0xff,0xff,0xff,
 0xff,0xff,0xff,0xff,0xff,0xff,0xff,0xff,0xff,0xff,0xff,0xff,0xff,0xff,0xff,
 0xff,0xff,0x07,0xff,0xff,0xff,0xff,0xff,0xff,0xff,0xff,0xff,0xff,0xff,0xff,
 0xff,0xff,0xff,0xff,0xff,0xff,0xdd,0xed,0xff,0xff,0xfe,0xff,0xff,0xff,0xff,
 0xff,0x7f,0xff,0xff,0xff,0xff,0xff,0xff,0x07,0xff,0xff,0xff,0xff,0xff,0xff,
 0xff,0xff,0xff,0xff,0xff,0xff,0xff,0xff,0xff,0xff,0xff,0xef,0xff,0xff,0xff,
 0xff,0xdf,0xff,0xff,0xff,0xff,0xff,0xff,0xff,0xff,0xff,0xff,0xff,0xff,0x07,
 0xff,0xff,0xff,0xff,0xff,0xff,0xff,0xff,0xff,0xff,0xff,0xff,0xff,0xff,0xff,
 0xff,0xff,0xff,0xff,0xff,0xff,0xff,0xff,0xff,0xff,0xff,0xff,0xff,0xff,0xff,
 0xff,0xff,0xff,0xff,0xff,0x07,0xff,0xff,0x7f,0xff,0xff,0xff,0xff,0xff,0xff,
 0xff,0xff,0xff,0xff,0xff,0xff,0xff,0xff,0x7d,0xdb,0xdf,0xff,0xff,0xff,0xff,
 0xff,0xff,0xff,0xff,0xff,0xff,0xff,0xff,0xff,0xff,0xff,0x07,0xbf,0xff,0xdf,
 0xfb,0xff,0xff,0xff,0xff,0xff,0xff,0xff,0xff,0xff,0xff,0xff,0xff,0xbf,0xff,
 0x7f,0xfb,0xdf,0xff,0xff,0xff,0xff,0xff,0xff,0xff,0xff,0xff,0xfb,0xff,0xff,
 0xff,0xff,0x07,0xff,0xff,0x7f,0xff,0xff,0xff,0xff,0xff,0xff,0xff,0xff,0xff,
 0xff,0xff,0xff,0xff,0xff,0xf7,0xff,0xff,0xff,0xff,0xff,0xff,0xdf,0xdf,0xff,
 0xff,0xff,0xff,0xff,0xff,0xff,0xff,0xff,0x07,0xff,0xff,0xd7,0xfa,0xff,0xff,
 0xff,0xff,0xff,0xff,0xff,0xff,0xff,0xff,0xff,0xff,0xff,0xfe,0xf7,0xff,0xfe,
 0xfb,0xff,0xff,0xfe,0xff,0xff,0xff,0xff,0xff,0x7f,0xff,0xff,0xff,0xfb,0x07,
 0xff,0x7f,0xbb,0xff,0xff,0xff,0xff,0xff,0xff,0xff,0xff,0xff,0xff,0xff,0xff,
 0x7f,0xff,0x7f,0xff,0xff,0xff,0xff,0xff,0xff,0xff,0xff,0xff,0xff,0xff,0xbf,
 0xff,0xff,0xfe,0xff,0xff,0x07,0xff,0xff,0xd6,0xd5,0xfd,0xff,0xff,0xff,0xff,
 0xff,0xff,0xff,0xff,0xff,0xff,0xff,0xef,0xf7,0xff,0xff,0xeb,0xff,0xff,0xff,
 0xff,0xff,0xfd,0xff,0xff,0xff,0xff,0xff,0xff,0xdf,0xff,0x07,0xff,0xff,0xbd,
 0xfe,0xff,0xff,0xff,0xff,0xff,0xff,0xff,0xff,0xff,0xff,0xff,0xff,0xff,0xff,
 0xff,0xff,0xff,0xff,0xff,0xf7,0xff,0xff,0xff,0xbf,0xff,0xff,0xff,0xff,0xff,
 0xff,0xff,0x07,0xff,0xff,0xd6,0xd7,0xff,0xff,0xff,0xff,0xff,0xff,0xff,0xff,
 0xff,0xfe,0xef,0xfb,0xff,0xff,0xfb,0xff,0xff,0xff,0xff,0xff,0xff,0xff,0xbf,
 0xff,0xf7,0xff,0xff,0xff,0x7f,0xff,0xff,0x07,0xff,0xbf,0xbb,0xfa,0xff,0xff,
 0xff,0xff,0xff,0xff,0x7f,0xff,0xff,0xff,0xff,0xff,0xdb,0xef,0xff,0xff,0xff,
 0xff,0xff,0xff,0xff,0xff,0xff,0xff,0xff,0xff,0xff,0xff,0xff,0xff,0xff,0x07,
 0xff,0xff,0x6f,0x57,0xff,0xff,0xff,0xff,0xff,0xff,0xfd,0xff,0xff,0xff,0xff,
 0xff,0xff,0xfe,0xff,0x7f,0xb7,0xff,0xff,0xff,0xff,0xff,0xff,0xff,0xff,0xff,
 0xff,0xff,0xff,0xff,0xff,0x07,0xff,0xff,0xb5,0xfd,0xff,0xff,0xff,0xff,0xff,
 0xff,0xff,0xff,0xfd,0xff,0xff,0xff,0xff,0xff,0xff,0xff,0xff,0xff,0xff,0xff,
 0x7f,0xff,0xff,0xff,0xff,0xff,0xff,0xdf,0xff,0xff,0xff,0x07,0xdb,0x76,0xef,
 0x56,0xb5,0xfb,0xff,0xff,0xff,0xff,0xff,0xff,0xff,0xff,0xff,0xff,0xff,0xff,
 0xff,0xab,0xff,0xff,0xdf,0xff,0xff,0xff,0xff,0xfb,0xff,0xfd,0xff,0xff,0xff,
 0xff,0xff,0x07,0xff,0xff,0xdd,0xbb,0xff,0xff,0xff,0xff,0xff,0xff,0xff,0xff,
 0xff,0xff,0xff,0xff,0xfb,0xff,0xff,0xff,0xdf,0xff,0xff,0xff,0xff,0xff,0xff,
 0xff,0xff,0xff,0xff,0xff,0xff,0xff,0xff,0x07,0x55,0x55,0x6b,0x6d,0x55,0x95,
 0xa4,0xaa,0xaa,0xaa,0xaa,0xaa,0x6e,0x5b,0xbb,0x6f,0xff,0xff,0xbf,0xff,0xff,
 0xff,0xff,0xff,0xff,0xff,0xff,0xff,0xff,0xff,0xff,0xff,0xff,0xff,0xff,0x07,
 0x6d,0xdb,0xb6,0xdb,0xbb,0x7b,0xdf,0xb6,0x6d,0xfb,0xff,0xff,0xfb,0xff,0xff,
 0xfd,0xff,0xff,0xff,0xff,0xff,0xff,0xff,0xff,0xff,0xff,0xff,0xff,0xff,0xff,
 0xff,0xff,0xff,0xff,0xff,0x07,0xb6,0x6a,0x6b,0x6d,0x6d,0xd5,0xb2,0x6d,0xdb,
 0x56,0xaa,0x4a,0xad,0xaa,0xaa,0x56,0xdd,0xff,0xff,0xff,0x7f,0x55,0x55,0x55,
 0xd5,0xd6,0xb6,0xdf,0xdd,0xff,0x6f,0xff,0xff,0xff,0xff,0x07,0xed,0xad,0xde,
 0xdb,0xd6,0xae,0x6f,0xdb,0xb6,0xad,0x6d,0xbd,0xb5,0x6d,0xdb,0xfd,0xff,0xff,
 0xff,0xf7,0xbb,0xbb,0xff,0xff,0x7f,0x7f,0xff,0xfe,0xff,0xdf,0xff,0xff,0xff,
 0xff,0xff,0x07,0x36,0xdb,0x55,0x6d,0xeb,0xeb,0xd4,0x56,0x6b,0xf5,0xd6,0xd6,
 0xde,0xda,0x6d,0x2b,0xf5,0xbf,0xf5,0x5f,0x7f,0xca,0x92,0x92,0xd2,0xaa,0xab,
 0x55,0x55,0x69,0x55,0x55,0x55,0x55,0x55,0x07,0xd5,0xb6,0xba,0xb6,0xbd,0x5d,
 0xbb,0xbd,0xad,0x5b,0xbb,0x6d,0xb5,0x6b,0xdb,0xf6,0xfe,0xfb,0xff,0xf7,0x7f,
 0x75,0x6f,0x6f,0x6f,0x77,0xdd,0x76,0xb7,0xb7,0xfd,0xfb,0xff,0xff,0xff,0x05,
 0x6d,0x5b,0xd7,0x6d,0xeb,0x57,0x45,0xeb,0x76,0xad,0xd5,0xb6,0x5b,0x5d,0x6d,
 0x5b,0x57,0xff,0xfd,0xff,0xdf,0x9f,0xf5,0xfb,0xd9,0xaa,0xab,0xad,0x6d,0xdd,
 0x56,0xad,0xaa,0xaa,0xaa,0x06,0xdb,0x76,0xad,0xf6,0xbe,0x6f,0xa9,0xae,0xdb,
 0xb6,0xae,0x5a,0xed,0xea,0xd6,0xd6,0xfa,0xbf,0xf7,0xdd,0x7f,0x55,0xaf,0xae,
 0xb6,0xdf,0x7e,0x7b,0xbb,0x6b,0xdb,0xb6,0x6d,0xf7,0xff,0x05,0x6a,0x55,0x6b,
 0x5b,0xd3,0xfa,0x57,0x49,0xb4,0xef,0xdb,0xd6,0x56,0x5d,0x6b,0x6d,0xad,0xfa,
 0xfd,0xf7,0xd6,0x0f,0x54,0x80,0xdf,0x6a,0xd5,0xce,0x56,0xb5,0x6d,0xdb,0xb6,
 0xbb,0xaa,0x06,0xdb,0xee,0xb6,0xb6,0x6d,0xef,0xae,0x8b,0xed,0xba,0xb6,0xad,
 0x6d,0x6b,0xdd,0xda,0xea,0x7f,0xef,0xbf,0x7f,0x1f,0xaf,0x40,0xb5,0xdd,0x5b,
 0xbb,0xed,0x6f,0xdb,0xb6,0xdd,0xd6,0xd6,0x05,0x55,0xab,0x5a,0xdb,0xb6,0xbd,
 0xfb,0x06,0x00,0x40,0xed,0x7b,0xdb,0xb6,0x56,0xad,0xae,0xda,0x7b,0xdb,0x55,
 0x09,0x00,0x00,0xfa,0x6b,0xed,0x55,0x5b,0xd5,0xb6,0x6d,0x6b,0x6d,0x75,0x05,
 0x6f,0xdd,0xf6,0xaa,0x6d,0xf7,0x6f,0x0b,0x00,0xa8,0xbf,0xef,0xad,0xed,0xb5,
 0xdb,0xb5,0x7f,0xef,0x6f,0xbf,0x1e,0x00,0x00,0x75,0xbf,0xb7,0xee,0x76,0xbd,
 0x6d,0xdb,0xae,0xdb,0xaf,0x03,0x54,0x6b,0x55,0xdd,0xaa,0xbb,0xdd,0x0f,0x00,
 0x00,0x00,0x00,0xf2,0xbb,0xfe,0x6d,0xef,0xd6,0xbb,0xfb,0xeb,0x0b,0x00,0x00,
 0x00,0xd5,0xba,0x77,0x5b,0xd7,0xd6,0xb6,0x75,0x6d,0xd5,0x06,0xbb,0xd5,0xad,
 0xb5,0x5d,0xed,0x77,0x0b,0x00,0x00,0x00,0x20,0x55,0xef,0xab,0xb6,0xbd,0x7f,
 0xfd,0x5e,0xbf,0x2a,0x00,0x00,0x40,0x7f,0xd7,0xda,0xf6,0x5a,0xbb,0x6d,0xdb,
 0xb5,0xbe,0x05,0xcd,0x5a,0x76,0xad,0xe6,0x5e,0xfd,0x0f,0x00,0x00,0x00,0x00,
 0x00,0x00,0x80,0x6a,0x00,0xd8,0xaf,0xf7,0xeb,0x1f,0x00,0x00,0x00,0xd0,0xb5,
 0x5d,0x9b,0xed,0xd5,0xb6,0xad,0xae,0x53,0x05,0xba,0xb6,0xd5,0x6a,0x5d,0xfb,
 0xbf,0x05,0x40,0x00,0x00,0x00,0x00,0x00,0x20,0x5d,0x00,0x7f,0xfd,0xbe,0xbe,
 0x15,0x00,0x00,0x00,0x78,0x6f,0xeb,0x76,0x5b,0x6f,0xdb,0x76,0x75,0xfd,0x06,
 0xa6,0x55,0x55,0x5b,0xab,0xaa,0xee,0x2f,0x00,0x01,0x00,0x00,0x00,0x00,0x00,
 0x00,0x00,0xfd,0xab,0xef,0xd7,0x0f,0x00,0x00,0x00,0xc0,0xdb,0xbd,0xad,0x6d,
 0xb5,0x6d,0xdb,0x5e,0x4b,0x05,0x5d,0xdb,0xae,0xd6,0xda,0xf6,0x7b,0x07,0x02,
 0x48,0x00,0x00,0x00,0x80,0x04,0x00,0x40,0xff,0xfe,0xbd,0x7e,0x0f,0x00,0x00,
 0x00,0xb0,0x6e,0x6b,0xbb,0xda,0x56,0xdb,0xaa,0xb5,0xbd,0x03,0x52,0x55,0xd5,
 0x6a,0xad,0xaa,0xbe,0x05,0x08,0x00,0x00,0x00,0x00,0x00,0x00,0x00,0x15,0xb0,
 0x5b,0xef,0x55,0x11,0x00,0xa0,0xa2,0x80,0xb5,0x56,0xcd,0x56,0xb5,0x55,0xdb,
 0x6a,0x6b,0x05,0xb7,0xb6,0xb5,0xad,0x75,0xdb,0xd5,0x06,0x00,0x54,0x52,0x48,
 0x00,0x80,0x00,0x00,0x92,0xfa,0xef,0x5d,0xbf,0x05,0x00,0x80,0xa8,0xa0,0x6b,
 0x6d,0xbb,0xb5,0x6b,0xad,0xb6,0xdb,0xd6,0x05,0x55,0xab,0x5a,0xb5,0xaa,0x6a,
 0x6d,0x4b,0x29,0x81,0x90,0x24,0x02,0x20,0x04,0x00,0x4d,0xe8,0x7a,0xf7,0xd7,
 0x2a,0x00,0x00,0x52,0x01,0xbc,0x56,0x55,0xd6,0xac,0xd6,0xaa,0xaa,0x5a,0x05,
 0xda,0x6a,0xb5,0x6a,0xdb,0x56,0x5b,0x05,0x80,0x24,0x4a,0x92,0x54,0x85,0x02,
 0x80,0x12,0xf5,0xaf,0xfd,0xbe,0x0a,0x00,0xa0,0xe4,0x00,0x6a,0x6d,0xeb,0xad,
 0xda,0xba,0x6d,0x6d,0xb5,0x02,0x55,0xad,0x56,0x5b,0xad,0x6a,0x55,0x8b,0x52,
 0x82,0x24,0x21,0x53,0x75,0xb9,0xaa,0xa8,0xa8,0xf5,0xd7,0x6f,0x0b,0x00,0x40,
 0xa8,0x02,0xa8,0xb5,0x2d,0x55,0x57,0x4d,0x55,0xab,0xd6,0x06,0x6b,0x6b,0xed,
 0xd6,0x6a,0x5b,0xdb,0x4a,0xa0,0x14,0xa9,0x94,0x54,0x95,0x0a,0x29,0x55,0xfa,
 0xde,0xef,0xbb,0x25,0x00,0x80,0xd2,0x02,0x70,0xab,0xda,0xda,0xb4,0xb5,0x5a,
 0x6d,0xad,0x05,0x5a,0x55,0x2b,0x55,0x55,0xad,0x6a,0x05,0x08,0xd5,0x44,0x4a,
 0xab,0x6a,0x65,0x55,0x25,0x94,0xf7,0xbb,0xfe,0x16,0x15,0x20,0x54,0x05,0x94,
 0x5d,0x55,0x6b,0xab,0xaa,0xad,0x55,0xab,0x02,0xb5,0xda,0xda,0xda,0xb6,0xea,
 0x56,0x0b,0x41,0x15,0x95,0x92,0x54,0x55,0x55,0x6a,0x55,0xe9,0xdf,0xef,0x6f,
 0x4b,0x40,0x94,0xa2,0x45,0xd2,0xea,0xb6,0xaa,0xd6,0x56,0x6b,0xb5,0x5a,0x03,
 0xad,0xad,0xaa,0x56,0x5b,0xab,0xaa,0x75,0x15,0xa0,0xaa,0x6a,0xab,0xaa,0xaa,
 0x55,0x95,0x6a,0xf5,0x5e,0xfa,0x0b,0x20,0x25,0x69,0x35,0x89,0x2a,0xab,0xb6,
 0x5a,0x6b,0x55,0xad,0xad,0x05,0x55,0x6b,0xdb,0xda,0x6a,0x6d,0x5b,0x95,0x42,
 0x50,0x52,0x45,0x55,0x55,0xab,0x5a,0x55,0xb5,0xdf,0xbb,0xdf,0x26,0x95,0x52,
 0xaa,0x4a,0x45,0xdb,0xda,0xaa,0xb5,0xda,0xda,0x6a,0xb5,0x02,0xda,0x54,0x55,
 0xab,0xaa,0xb5,0x6a,0xad,0x5d,0x0b,0x4a,0xb5,0xaa,0x6a,0x55,0xaa,0xaa,0xd6,
 0xbd,0x6e,0xe9,0x0b,0x40,0x49,0xa9,0xb5,0x12,0xb5,0xaa,0x5a,0x55,0xad,0x56,
 0xad,0x56,0x05,0x55,0xdb,0x56,0x6d,0x5b,0xd5,0x56,0x6b,0xb5,0x54,0x55,0x55,
 0x55,0x55,0x55,0x55,0x55,0xb5,0xf7,0xbf,0xb5,0x95,0x2a,0x25,0x55,0x4d,0x45,
 0x6d,0x6b,0x6b,0x6b,0xab,0x6a,0xab,0xb5,0x03,0xab,0x55,0xb5,0x55,0x6d,0x5b,
 0xb5,0xaa,0x56,0xab,0x08,0xaa,0xaa,0xaa,0x5a,0xd5,0x56,0x55,0x5d,0x6a,0x55,
 0x4f,0xa8,0xa8,0xa8,0xb2,0x14,0x52,0xb5,0x55,0xad,0xb5,0xb5,0x6a,0xd5,0x04,
 0xb6,0xb6,0x6d,0xad,0xaa,0xd6,0x6a,0xad,0xb5,0x56,0xa5,0xaa,0x5a,0x55,0xab,
 0xaa,0xaa,0xea,0xeb,0xbd,0xea,0x22,0x55,0x55,0x55,0xad,0xa2,0xac,0xad,0x56,
 0x55,0x55,0xab,0xad,0x56,0x03,0xd5,0xaa,0xaa,0xd6,0xd5,0xaa,0x56,0x6b,0xd5,
 0x6a,0x55,0x11,0x55,0x55,0x55,0x55,0xab,0xaa,0x5e,0xa5,0x15,0x95,0x88,0x80,
 0xaa,0x56,0x1d,0x6b,0x55,0xb5,0xb5,0x6a,0x55,0x55,0x6b,0x05,0xaa,0xd6,0xd6,
 0x5a,0x5b,0x6d,0xad,0x5a,0xab,0x5a,0x2b,0x6a,0xaa,0xaa,0xaa,0x6a,0x55,0x55,
 0x7b,0x55,0xd5,0xa5,0x32,0x6d,0xd5,0xda,0xa2,0x54,0xdb,0x5a,0x6d,0x5b,0xdb,
 0xb6,0x5a,0x03,0x6d,0x6b,0xb5,0x6a,0xd5,0x56,0x6b,0xab,0x5a,0x55,0xd5,0x8b,
 0x44,0x55,0x55,0x55,0x55,0xdb,0xde,0x16,0x22,0x0a,0x49,0x10,0x54,0x55,0x15,
 0xa8,0xaa,0x56,0x55,0x55,0xad,0xaa,0x55,0x05,0xd5,0x5a,0xab,0xd5,0xb6,0xb5,
 0xda,0xb6,0xb6,0xad,0x36,0xaa,0x9a,0xa4,0xb6,0xaa,0xaa,0xaa,0xb5,0x55,0x4c,
 0xa9,0x2a,0xd5,0x55,0x55,0x0b,0xb5,0xb5,0xb5,0xad,0xb6,0x6a,0x6d,0x6d,0x05,
 0x55,0xaa,0x54,0x2a,0x55,0xaa,0x2a,0xa9,0x4a,0xb5,0xd5,0x55,0x65,0x95,0x52,
 0x55,0x5b,0x55,0xdd,0x2a,0x11,0x25,0x49,0x2a,0xd5,0xd6,0xea,0xd6,0x5a,0xd5,
 0xb6,0x55,0x5b,0xab,0xaa,0x05,0xaa,0x55,0xab,0xd5,0xaa,0x55,0xd5,0xd6,0xba,
 0x55,0x55,0x5b,0xad,0xaa,0xac,0xaa,0xaa,0x6a,0x6b,0x55,0x52,0x4a,0x55,0xa9,
 0xaa,0xb5,0x95,0x55,0x6b,0xab,0x6a,0xdb,0x6a,0xad,0xad,0x02,0x55,0xaa,0x54,
 0x2a,0x55,0xaa,0xaa,0x2a,0x45,0xaa,0xaa,0x54,0x55,0x55,0xa5,0xaa,0x55,0x55,
 0xb5,0x56,0x05,0xaa,0x2a,0x54,0x75,0xdb,0xaa,0xaa,0x94,0x54,0x95,0x54,0x55,
 0xb5,0xb6,0x05,0xaa,0xaa,0xaa,0xd5,0xaa,0x55,0x55,0xd5,0x5a,0x55,0x55,0xab,
 0xaa,0xaa,0xaa,0xaa,0x56,0x55,0xdb,0x55,0x01,0x55,0x4a,0x55,0xd5,0x6d,0x55,
 0x55,0x55,0xab,0x6a,0xab,0xaa,0x6a,0x55,0x03,0x55,0x55,0x55,0xaa,0x54,0xaa,
 0xaa,0x2a,0xa5,0xaa,0xaa,0x52,0x55,0x55,0xa9,0xaa,0xaa,0xaa,0x2a,0x6d,0x15,
 0x55,0x29,0x92,0x6a,0xbb,0xab,0x48,0xaa,0x50,0x92,0x50,0x55,0x95,0xaa,0x04,
 0xaa,0xaa,0xaa,0xaa,0xaa,0xaa,0xaa,0x52,0x55,0x55,0x55,0x55,0x55,0x55,0x55,
 0xaa,0xaa,0xaa,0xb6,0xaa,0x4a,0x55,0x95,0x2a,0xd5,0x6e,0x55,0x52,0xa5,0x96,
 0xaa,0xa6,0x94,0xaa,0x52,0x05,0x92,0x52,0x55,0x55,0x55,0x55,0x55,0x55,0x55,
 0x55,0xaa,0xaa,0x2a,0x55,0x4a,0x25,0x55,0xd5,0x4a,0xab,0xaa,0xaa,0x4a,0x45,
 0xaa,0x5d,0x09,0xa9,0x92,0x52,0x25,0x29,0xa5,0x24,0x49,0x02,0x55,0x55,0x55,
 0x55,0x55,0x55,0x55,0x55,0x55,0x55,0x95,0x94,0x54,0x95,0xaa,0xaa,0xaa,0xaa,
 0x96,0x56,0x95,0xaa,0x2a,0x29,0xb5,0xb6,0xa2,0x94,0xaa,0x54,0xaa,0x4a,0x55,
 0xa9,0xaa,0x02,0xaa,0xaa,0xaa,0xaa,0x4a,0x55,0xa5,0xaa,0xaa,0x52,0xa5,0xaa,
 0x52,0xa9,0xaa,0xaa,0xaa,0xaa,0x2a,0xa9,0x54,0x55,0x45,0x55,0x5d,0x5b,0x58,
 0x55,0xa9,0x4a,0x49,0x55,0x29,0x55,0xaa,0x02,0xaa,0x94,0x54,0x55,0xb5,0xaa,
 0xaa,0x2a,0x55,0xad,0xaa,0xaa,0xaa,0xaa,0x2a,0x55,0x55,0x55,0xad,0x56,0xa5,
 0xaa,0x8a,0x8a,0x6a,0xad,0x55,0xa5,0x4a,0x55,0x55,0x92,0x52,0xa5,0x92,0x04,
 0x55,0x55,0x95,0x92,0x94,0x52,0x55,0x55,0xa5,0x4a,0x55,0x55,0x55,0x55,0xa9,
 0xaa,0xaa,0xaa,0xaa,0x58,0xa8,0xaa,0x62,0x52,0x5b,0xb5,0xa0,0x55,0xaa,0xa4,
 0x2a,0x55,0x2a,0x29,0xa9,0x02,0x92,0xaa,0xaa,0xaa,0xaa,0x2a,0x55,0xa9,0x2a,
 0x55,0xaa,0xaa,0xaa,0xaa,0xaa,0x52,0xaa,0xaa,0xaa,0xaa,0xaa,0xaa,0x94,0xaa,
 0xb6,0xaa,0x56,0x55,0x55,0x95,0xa4,0x52,0x55,0x55,0x2a,0x05,0x55,0xa5,0x52,
 0x55,0x55,0x55,0x55,0x55,0x55,0x55,0x55,0x55,0x55,0x4a,0x55,0x55,0x25,0x95,
 0xaa,0x4a,0xa2,0x96,0xaa,0x42,0x4b,0xf5,0x03,0xa0,0x24,0x55,0x55,0x29,0x49,
 0x4a,0xa5,0x02,0xaa,0xaa,0xaa,0xaa,0xaa,0xaa,0xaa,0xaa,0xaa,0xaa,0xaa,0x52,
 0xaa,0xaa,0x4a,0xaa,0xaa,0xaa,0xaa,0x24,0xa9,0xaa,0xaa,0xda,0x6a,0xad,0x04,
 0x48,0x55,0xa9,0x4a,0x4a,0x55,0xa9,0xaa,0x02,0x55,0x55,0x55,0x55,0xa5,0x4a,
 0x95,0x54,0x55,0xa5,0x4a,0xaa,0x4a,0x55,0xa9,0x4a,0x55,0x55,0xad,0x92,0xa4,
 0x52,0x01,0x50,0x95,0x15,0x21,0xb2,0x2a,0x25,0x51,0x55,0x25,0x25,0x49,0x02,
 0x4a,0x2a,0x55,0xaa,0x2a,0x55,0xaa,0x2a,0xa9,0x54,0x55,0x55,0x55,0x55,0xaa,
 0xaa,0xaa,0x54,0x55,0x55,0xa9,0x2a,0x55,0xed,0x52,0x6d,0x04,0x48,0x52,0x55,
 0x55,0xa9,0x54,0x55,0x55,0x05,0x55,0x55,0x55,0x55,0x55,0x55,0x55,0xa5,0xaa,
 0xaa,0xaa,0x4a,0x29,0x49,0x95,0x54,0x92,0x4a,0x55,0x55,0xa5,0x4a,0x55,0xaa,
 0x4a,0x13,0x69,0x57,0x95,0x94,0x4a,0x4a,0xaa,0x92,0xa4,0x02,0xaa,0xaa,0xaa,
 0x2a,0x55,0x55,0x55,0x55,0x55,0x55,0xa9,0xaa,0xaa,0xaa,0xaa,0xaa,0xaa,0xaa,
 0xaa,0x2a,0xa9,0xaa,0xaa,0x54,0x55,0xad,0x84,0x54,0x55,0x55,0xaa,0x52,0x25,
 0x55,0x95,0x04,0x25,0xa5,0x4a,0xa9,0xaa,0xaa,0x2a,0x55,0x95,0xaa,0x4a,0x55,
 0x55,0x55,0x55,0xa5,0xaa,0x94,0x6a,0x55,0x55,0x55,0xa9,0x5a,0x91,0x42,0x50,
 0xab,0xa4,0xa4,0x52,0xaa,0x52,0xa9,0x52,0x02,0xaa,0xaa,0xaa,0x56,0x55,0x55,
 0x55,0x55,0x55,0x25,0x55,0xaa,0xaa,0xaa,0x2a,0x55,0xa5,0xaa,0xaa,0xaa,0xaa,
 0xaa,0x2a,0x55,0xa5,0x2a,0xa5,0x94,0xaa,0xaa,0x4a,0x25,0x55,0x4a,0xaa,0x02,
 0x55,0x55,0x55,0x49,0xa5,0xaa,0x4a,0x29,0xa9,0xaa,0xaa,0x4a,0x49,0x55,0x49,
 0x95,0x54,0x25,0x55,0x55,0x55,0x25,0x55,0x55,0x12,0x89,0x90,0x4a,0x55,0x2a,
 0xa9,0xaa,0x94,0x52,0x29,0x05,0x52,0xaa,0xaa,0xaa,0xaa,0xaa,0xaa,0xaa,0xaa,
 0x54,0x55,0x55,0x55,0x55,0x55,0xa9,0x2a,0x55,0x55,0xab,0xaa,0xaa,0xaa,0xaa,
 0xa4,0x2a,0x55,0x55,0x92,0x52,0x55,0x52,0xa5,0xaa,0x4a,0x01,0xa9,0x4a,0x51,
 0x55,0x55,0x55,0x55,0x55,0x95,0xaa,0x52,0xa9,0xaa,0xaa,0x54,0x55,0x95,0xaa,
 0xaa,0xaa,0xaa,0xaa,0x2a,0x15,0x5a,0x5f,0x55,0x51,0x55,0x95,0x24,0x29,0x55,
 0x4a,0xaa,0x04,0x56,0x55,0x2d,0x55,0x55,0xa5,0x54,0xa5,0x54,0x55,0x55,0x2a,
 0x55,0x52,0x55,0x95,0x52,0x49,0x55,0x55,0x55,0x55,0x55,0xa5,0xea,0x87,0xa4,
 0x2a,0xa9,0xa4,0xaa,0x4a,0xa9,0x54,0x55,0x05,0x91,0x52,0xa5,0xaa,0xaa,0xaa,
 0xaa,0x94,0x52,0x4a,0x4a,0x55,0xa5,0x4a,0x4a,0xaa,0x54,0x55,0xa9,0xaa,0x55,
 0x55,0x85,0x54,0xad,0x7e,0x53,0x90,0x4a,0x52,0x4a,0x55,0x25,0x25,0x89,0x02,
 0x56,0x55,0x55,0xa5,0x54,0x55,0x55,0x55,0xad,0xaa,0xaa,0xaa,0xaa,0xaa,0xaa,
 0x52,0x95,0xaa,0xaa,0xaa,0xaa,0xaa,0x6a,0x95,0xda,0xeb,0x94,0xaa,0x54,0xad,
 0x94,0x94,0xaa,0xaa,0xb2,0x04,0xa9,0x2a,0x55,0x55,0x95,0x54,0x95,0xaa,0x4a,
 0x55,0x55,0x55,0x95,0xaa,0xaa,0x2a,0x55,0x49,0xa5,0xaa,0xaa,0xaa,0x12,0xa5,
 0x76,0x55,0x57,0x54,0xa5,0x92,0x52,0xaa,0x54,0x92,0x8c,0x02,0xaa,0xaa,0xaa,
 0xaa,0xaa,0xaa,0xaa,0xaa,0x54,0x55,0xa9,0x92,0xaa,0xaa,0x52,0x55,0xa9,0xaa,
 0x5a,0x55,0x55,0x55,0x55,0x95,0xda,0xea,0xaa,0x22,0x55,0xaa,0xaa,0x52,0x49,
 0x55,0xa9,0x02,0x95,0xa4,0x94,0x54,0x55,0x95,0xa4,0xaa,0xaa,0x52,0x55,0xaa,
 0x52,0x55,0xaa,0x54,0x25,0x55,0x25,0x55,0xa5,0xaa,0xaa,0xaa,0xf6,0xbf,0x2d,
 0x54,0x29,0x25,0x95,0x4a,0x2a,0x29,0x55,0x02,0x52,0x55,0x55,0x55,0x55,0x55,
 0x55,0x55,0x55,0x55,0x55,0x55,0x95,0x54,0x95,0x4a,0x55,0xa9,0x5a,0x55,0x55,
 0x55,0xa5,0x52,0xdd,0xea,0xab,0x48,0xa5,0x54,0x52,0x55,0x55,0xa5,0x52,0x05,
 0xaa,0xaa,0xaa,0xaa,0xaa,0xaa,0xaa,0x24,0x95,0x4a,0x4a,0x55,0xaa,0x4a,0xa9,
 0x52,0xaa,0x2a,0xa5,0xaa,0xaa,0xaa,0x4a,0xaa,0xb6,0x7f,0xb5,0x24,0xa9,0x4a,
 0x55,0x52,0x92,0x54,0x4a,0x02,0x55,0x55,0x55,0x55,0x55,0x55,0x55,0x55,0xa9,
 0x54,0x55,0xa9,0xaa,0xaa,0xaa,0xaa,0x2a,0x55,0x55,0xa9,0xaa,0xaa,0x52,0xd5,
 0xfa,0xae,0x6e,0x52,0xaa,0x52,0x4a,0x95,0xaa,0xaa,0xaa,0x02,0x4a,0x4a,0x49,
 0x25,0x29,0xa9,0xaa,0xaa,0xaa,0xaa,0x52,0x95,0x52,0x55,0x25,0x49,0xa5,0x92,
 0x5a,0x55,0x55,0x55,0x55,0x55,0xd4,0x7b,0xfa,0x4d,0x25,0x29,0xa5,0x4a,0x95,
 0x4a,0x52,0x02,0xaa,0xaa,0xaa,0xaa,0xaa,0x4a,0x25,0x55,0x55,0x55,0x55,0xaa,
 0xaa,0xa4,0xaa,0xaa,0x54,0x55,0xaa,0x92,0xaa,0xaa,0xaa,0x5a,0x7d,0xaf,0x56,
 0x53,0x55,0x55,0x29,0xa9,0xa4,0x54,0xa5,0x02,0xa5,0x52,0x55,0xa9,0xaa,0xaa,
 0x54,0x95,0x92,0x54,0x55,0x55,0x95,0x2a,0xa9,0x2a,0x55,0x4a,0xa5,0xaa,0x54,
 0x55,0x95,0x2a,0xe9,0x1f,0xd1,0x54,0x92,0x94,0x54,0x55,0x52,0x92,0x54,0x02,
 0xaa,0xaa,0xaa,0xaa,0xaa,0xaa,0xaa,0xaa,0xaa,0xaa,0xaa,0xaa,0xaa,0xaa,0x4a,
 0x55,0xa5,0xaa,0x5a,0x55,0x55,0x55,0x55,0xad,0xfa,0xad,0xaa,0x4a,0xa5,0x52,
 0x55,0x4a,0x95,0xaa,0x4a,0x05,0x55,0xaa,0xa4,0xaa,0x4a,0x55,0xa5,0xa4,0xaa,
 0x4a,0x49,0x49,0x49,0x55,0x55,0x49,0xa9,0x52,0xa5,0xae,0xaa,0xaa,0xaa,0x2a,
 0xd4,0x57,0xa8,0x52,0x52,0x29,0x25,0x25,0x55,0x25,0xa5,0x02,0xaa,0xaa,0x5a,
 0x55,0x55,0xaa,0xaa,0xaa,0x54,0x55,0xaa,0xaa,0x2a,0x55,0x29,0x55,0x55,0x2a,
 0x69,0x55,0x55,0x55,0x55,0x4b,0xf5,0x8f,0x4a,0xa5,0x94,0x4a,0xa9,0x54,0x49,
 0xaa,0x54,0x02,0x49,0x95,0x4a,0xaa,0xaa,0x52,0xaa,0x2a,0x55,0xa9,0xaa,0xaa,
 0x54,0x29,0x55,0xa5,0x94,0x4a,0x95,0x5a,0xa9,0xaa,0xa2,0x02,0x40,0xb5,0xaa,
 0x94,0xaa,0x54,0x95,0xaa,0x54,0x49,0x95,0x02,0xaa,0xaa,0xaa,0x52,0x55,0x55,
 0x55,0x55,0x95,0xaa,0xaa,0x4a,0x55,0x55,0xa5,0x2a,0xab,0xaa,0xaa,0x6d,0x4a,
 0x55,0x55,0xa5,0x6a,0x5b,0x95,0xaa,0x52,0xa5,0xaa,0x24,0xa5,0x2a,0xa9,0x04,
 0xaa,0x54,0x55,0x55,0xaa,0xaa,0x2a,0xa9,0x52,0x55,0x55,0xa9,0x4a,0x95,0x2a,
 0xa9,0x52,0xa5,0x54,0xd2,0xaa,0xaa,0x6a,0xa9,0x96,0xfc,0xa2,0x24,0x29,0x29,
 0x91,0x52,0x55,0x52,0xa5,0x02,0x55,0x55,0x55,0x55,0x55,0x55,0x55,0x55,0x55,
 0x95,0x4a,0x55,0x55,0xa9,0x54,0x4a,0x2a,0x55,0xa5,0xba,0x55,0x55,0x55,0xa5,
 0x25,0x7b,0x55,0xa9,0x4a,0x55,0xa6,0xaa,0xa4,0x4a,0x2a,0x05,0x24,0xa5,0x52,
 0x55,0x55,0x95,0x4a,0x95,0xaa,0x52,0xa9,0xaa,0x54,0x55,0x55,0x55,0x49,0x49,
 0xaa,0x4a,0x49,0x55,0xa5,0xba,0x82,0xfe,0x11,0x95,0x24,0x49,0xa9,0x4a,0x2a,
 0xa9,0xaa,0x02,0x55,0x55,0xad,0xaa,0xaa,0xaa,0x54,0x55,0x55,0x55,0x55,0xaa,
 0xaa,0xaa,0xaa,0xaa,0xaa,0xaa,0x52,0xb5,0xaa,0xaa,0xaa,0x6a,0xa9,0xff,0x54,
 0x52,0x55,0x95,0x2a,0xa9,0x52,0x95,0xa4,0x04,0x55,0x55,0x22,0xa9,0x4a,0x55,
 0x55,0x55,0xa9,0x54,0x55,0x95,0x4a,0x2a,0x25,0x49,0x55,0xaa,0x2a,0xc9,0xaf,
 0x54,0x55,0x2d,0xf4,0xff,0x90,0x4a,0x92,0x52,0xa5,0xa4,0x94,0x4a,0x55,0x02,
 0xaa,0xaa,0x5a,0x55,0x55,0xaa,0xaa,0xaa,0x4a,0x55,0x55,0x55,0x55,0x55,0xa9,
 0xaa,0xaa,0x92,0x54,0xf5,0x5b,0xd5,0x6a,0x5b,0xf4,0xbd,0xa4,0xaa,0xaa,0xa4,
 0x54,0x95,0x2a,0xa9,0x4a,0x05,0x49,0x49,0xa5,0xaa,0x54,0x55,0x29,0x25,0x55,
 0x95,0xa4,0x52,0xa9,0x52,0x55,0x55,0x92,0xaa,0xaa,0xaa,0x7f,0xb7,0xaa,0xa6,
 0xff,0x6f,0x51,0x92,0x24,0x55,0x2a,0x55,0xa5,0x94,0xa4,0x02,0xaa,0xaa,0xaa,
 0x4a,0x55,0xa5,0xaa,0xaa,0xaa,0xaa,0x2a,0x95,0x4a,0x55,0x25,0x49,0x55,0x55,
 0x25,0xf5,0xef,0x5a,0xed,0xad,0xde,0xbf,0xa4,0xa4,0x4a,0x89,0x52,0x29,0xa9,
 0x52,0x55,0x05,0x55,0x55,0x55,0x55,0x55,0x55,0x55,0x55,0x95,0xa4,0xaa,0xaa,
 0xaa,0x2a,0x55,0x55,0xa5,0x48,0x52,0xa9,0xff,0xff,0xbf,0xfb,0x7b,0x45,0x23,
 0x55,0x52,0x6a,0x95,0x94,0x54,0x2a,0x29,0x01,0x92,0x2a,0x95,0xaa,0xaa,0xaa,
 0xaa,0xaa,0x54,0x55,0x55,0x55,0x55,0x55,0x55,0x95,0xaa,0xaa,0xaa,0xea,0xff,
 0xdf,0xf6,0xae,0xff,0x57,0xa9,0xa4,0x94,0x92,0xa4,0x52,0xa5,0x4a,0x55,0x02,
 0xaa,0x94,0xaa,0xaa,0x4a,0x55,0x92,0x94,0xaa,0xaa,0x2a,0xa9,0xa4,0x94,0xa4,
 0x52,0x25,0x55,0x95,0xaa,0xfb,0xff,0xaf,0xfd,0x56,0x81,0x26,0x95,0xaa,0x4a,
 0x52,0x4a,0x95,0xa4,0x4a,0x05,0xaa,0xaa,0x54,0x55,0x55,0x55,0x55,0x55,0x55,
 0x95,0x54,0x95,0x2a,0xab,0x2a,0x95,0x54,0x49,0xaa,0xd4,0x7e,0xbb,0xbb,0xf7,
 0xff,0x02,0x55,0x2a,0x49,0xaa,0xaa,0x2a,0xa9,0x2a,0xa9,0x02,0x55,0xa5,0x52,
 0x4a,0xaa,0xa4,0xaa,0xaa,0x2a,0x55,0xa5,0xaa,0xaa,0x52,0x55,0xa9,0xaa,0x2a,
 0xa5,0x6a,0xdb,0xff,0x7f,0xbd,0xaa,0x24,0x94,0xa2,0xaa,0x52,0x95,0xa4,0x54,
 0xaa,0x4a,0x02,0x92,0xaa,0xaa,0xaa,0xaa,0xaa,0xaa,0x2a,0xa9,0xaa,0x2a,0xa5,
 0x52,0x4a,0xa9,0x2a,0x25,0x55,0xa9,0xaa,0xf7,0xff,0xaf,0xfd,0xbf,0x00,0x2a,
 0x55,0x55,0x95,0xa4,0xaa,0x4a,0x49,0x52,0x05,0x55,0x55,0x55,0x55,0x55,0x55,
 0x55,0x55,0x55,0x55,0x55,0x55,0xaa,0x2a,0x25,0xa5,0xaa,0xaa,0xaa,0x74,0x90,
 0xda,0x7e,0xb7,0x0d,0x48,0xa0,0x94,0x24,0x49,0x55,0x52,0x52,0xa5,0xaa,0x02,
 0xaa,0x94,0xaa,0xaa,0x52,0x55,0x55,0xa9,0x4a,0x92,0xaa,0xaa,0x4a,0x55,0x55,
 0x55,0xa9,0x24,0x95,0xaa,0xaa,0xef,0xff,0xfe,0x2e,0x01,0xb4,0xaa,0xaa,0x2a,
 0xa9,0x4a,0x95,0x2a,0x95,0x04,0x95,0xaa,0xaa,0xaa,0xaa,0xaa,0x2a,0x55,0x55,
 0x55,0x52,0xa5,0xaa,0x52,0x55,0xa9,0x4a,0x55,0xa9,0x7a,0x40,0x58,0xaa,0x57,
 0x0b,0x80,0x80,0x4a,0x92,0x54,0x95,0xa4,0x52,0xa9,0x52,0x02,0x52,0x55,0x55,
 0x55,0x55,0x55,0xaa,0xaa,0xaa,0xaa,0xaa,0xaa,0x52,0x55,0xaa,0x4a,0x2a,0xa9,
 0xaa,0x96,0x8a,0xb6,0x7d,0xbd,0x0a,0x54,0xb0,0x54,0x55,0xa5,0x52,0x95,0x94,
 0x52,0xaa,0x02,0xaa,0xaa,0xaa,0xaa,0x2a,0xa9,0x52,0x95,0x54,0x55,0x95,0x54,
 0x55,0xaa,0x92,0x54,0x55,0x95,0x4a,0x2d,0x10,0x48,0xca,0xff,0x5d,0x00,0x80,
 0x2a,0x25,0x29,0x49,0x52,0x55,0x2a,0x95,0x02,0xaa,0x54,0x55,0x55,0xd5,0x4a,
 0x55,0x55,0x55,0x55,0x55,0xa5,0x54,0xa5,0xaa,0xaa,0x52,0x55,0xa9,0x9b,0x22,
 0xaa,0xf4,0xb7,0x2a,0x84,0xa0,0x52,0xa9,0x4a,0x55,0x55,0x52,0xa5,0xa4,0x02,
 0x25,0x93,0xaa,0xaa,0x2a,0xaa,0xaa,0xaa,0x92,0x52,0xa9,0x5a,0x55,0x95,0x54,
 0x25,0x55,0xaa,0x54,0x25,0x14,0x50,0x57,0xff,0xff,0x02,0x00,0x2a,0x95,0xaa,
 0xaa,0x94,0x4a,0xa9,0x52,0x02,0xaa,0xac,0xaa,0xaa,0xd4,0xaa,0x2a,0x55,0xad,
 0xaa,0xaa,0xa2,0xaa,0x54,0x25,0xa9,0xaa,0x52,0xd5,0x42,0x41,0xa0,0xe8,0x5d,
 0x55,0x51,0x42,0x55,0x55,0x52,0x92,0xaa,0x54,0x4a,0x55,0x05,0xa9,0x52,0xa9,
 0xaa,0x2a,0x55,0x55,0x49,0xa5,0x4a,0x55,0x5a,0x49,0xaa,0xaa,0xaa,0x92,0x2a,
 0x25,0x28,0x10,0x00,0x15,0x7f,0xf5,0x02,0x00,0x95,0x48,0x29,0xa9,0x24,0x25,
 0xa5,0x94,0x02,0x4a,0x55,0x55,0x55,0xd5,0xaa,0xaa,0xaa,0xaa,0xaa,0x52,0xa5,
 0xaa,0x95,0x54,0x55,0xaa,0x54,0x55,0x45,0x25,0x40,0xe4,0x7f,0xdd,0x05,0x88,
 0xa4,0xaa,0x4a,0x55,0x55,0x55,0x55,0x25,0x05,0xaa,0x2a,0x55,0xaa,0x2a,0x55,
 0x4a,0x55,0x55,0xa9,0x94,0x2a,0x55,0xa4,0xaa,0xa4,0xaa,0x4a,0x01,0x22,0x00,
 0x01,0x40,0xad,0xeb,0x0b,0x00,0x50,0x55,0xaa,0x4a,0x4a,0xa9,0x52,0x52,0x01,
 0x55,0x55,0x55,0x55,0xd5,0xaa,0xaa,0xaa,0x2a,0x55,0x55,0x55,0xa5,0x55,0x95,
 0xaa,0x52,0x55,0x55,0x49,0xa1,0x00,0xa8,0x7f,0xad,0x87,0x00,0x50,0xa5,0x52,
 0x52,0x29,0x25,0x95,0xaa,0x02,0x29,0x49,0x55,0x55,0x55,0x52,0x55,0x55,0x52,
 0x95,0xaa,0xa4,0x54,0xaa,0x52,0x29,0x55,0xa9,0x00,0x10,0x00,0x04,0xf0,0xae,
 0x52,0x1f,0x40,0x28,0x29,0x95,0x2a,0xa5,0x54,0x49,0x95,0x04,0xaa,0xaa,0xaa,
 0xaa,0xaa,0xaa,0x2a,0xa5,0xaa,0xaa,0xaa,0xaa,0xaa,0x4a,0x55,0x55,0x95,0x2a,
 0xa5,0x22,0x41,0x01,0xd4,0xbb,0xd5,0x17,0x00,0xa5,0xaa,0x54,0x55,0x55,0x95,
 0xaa,0x54,0x05,0xa5,0xaa,0x52,0x55,0x55,0x55,0xa9,0xaa,0x4a,0x55,0x49,0x55,
 0x55,0xa9,0x54,0x4a,0xa9,0x4a,0xaa,0x04,0x00,0x40,0x55,0xad,0xae,0x3e,0xf0,
 0x95,0x44,0xa5,0x90,0x24,0x49,0x52,0x4a,0x02,0xaa,0x54,0x55,0xa5,0xaa,0xaa,
 0xaa,0xaa,0xaa,0xa4,0xaa,0xaa,0x92,0xaa,0x4a,0x55,0x55,0x95,0x54,0x02,0x00,
 0x05,0xd5,0x57,0xd5,0x17,0x24,0xa9,0x9a,0x4a,0xab,0x4a,0x55,0xa5,0x52,0x01,
 0x55,0x95,0xaa,0xaa,0xaa,0x2a,0x55,0x55,0xa9,0xaa,0x2a,0x49,0x54,0x55,0xaa,
 0xaa,0xa4,0x24,0x02,0x51,0x15,0x52,0x40,0x4b,0xad,0x8a,0x9b,0x2a,0xa5,0xa4,
 0x48,0xa9,0x4a,0x29,0x29,0x05,0x4a,0x55,0x55,0x55,0x55,0x55,0x95,0xaa,0x2a,
 0x55,0x55,0x55,0xab,0xaa,0x52,0x49,0x55,0x45,0x54,0x0a,0x40,0x04,0x55,0x57,
 0x55,0x67,0xad,0xa4,0x54,0x99,0x2a,0x95,0x54,0x4a,0x55,0x02,0xa9,0x52,0xa9,
 0xaa,0xaa,0x52,0x55,0x25,0x55,0x55,0xaa,0xaa,0x52,0x49,0x55,0xaa,0xaa,0x12,
 0x00,0xa1,0x57,0x6b,0x00,0x9d,0xaa,0x3a,0x00,0x54,0x25,0x45,0xa5,0x52,0x52,
 0xa5,0x94,0x02,0xaa,0xaa,0xaa,0xaa,0xaa,0xaa,0xaa,0xaa,0xaa,0xaa,0x52,0x55,
 0x95,0xaa,0xaa,0x2a,0x95,0x48,0xa9,0x6c,0x94,0x94,0x40,0x27,0x55,0x55,0x00,
 0xa9,0xaa,0x5a,0x2a,0x55,0x95,0x2a,0xa5,0x02,0x25,0x55,0x25,0x55,0x55,0xaa,
 0xaa,0xaa,0x4a,0x95,0xaa,0x24,0xa9,0x2a,0x49,0x52,0x55,0x02,0x4a,0x12,0x6b,
 0x55,0x55,0xbd,0x6a,0x0f,0x00,0x14,0x92,0x24,0x55,0x29,0xa5,0x94,0xaa,0x02,
 0xaa,0xaa,0xaa,0xaa,0xaa,0x55,0x55,0x55,0x55,0x52,0x55,0x55,0x55,0x55,0x55,
 0x55,0xa9,0xa8,0x28,0xa5,0xaa,0xaa,0xa8,0x56,0xdd,0x5a,0x00,0x68,0x55,0x55,
 0x49,0xa5,0x54,0xa9,0x54,0x02,0x55,0x25,0x55,0x55,0x55,0xaa,0xaa,0xaa,0xaa,
 0xaa,0x94,0xaa,0x4a,0x92,0xaa,0x2a,0x15,0x00,0x44,0x90,0x54,0x55,0x95,0x5a,
 0x6b,0x05,0x00,0x92,0x4a,0x92,0xaa,0x94,0x4a,0x4a,0x89,0x02,0x4a,0xaa,0xaa,
 0xaa,0x52,0x55,0x55,0x55,0x55,0x55,0x55,0x55,0x55,0x55,0x29,0x55,0x15,0x80,
 0x12,0x4d,0x55,0xa5,0x52,0xb7,0xd6,0x15,0x11,0x28,0xa9,0xaa,0x52,0x55,0xa9,
 0x2a,0x55,0x05,0x52,0x55,0x55,0x95,0xaa,0xaa,0xaa,0xaa,0xaa,0xaa,0xaa,0xa4,
 0x52,0x55,0x55,0x49,0x05,0x00,0x24,0x52,0x55,0x29,0xdd,0xda,0xb5,0x0a,0x00,
 0x42,0x55,0x95,0x94,0xa4,0x24,0x49,0xa5,0x02,0x55,0xa5,0x94,0xaa,0xaa,0xaa,
 0xaa,0xaa,0xaa,0xaa,0xaa,0x2a,0x55,0x29,0xa5,0xaa,0x02,0x20,0x10,0x94,0xaa,
 0xaa,0x52,0x6b,0x6d,0x2b,0x04,0x58,0x25,0xa9,0xaa,0x4a,0x55,0x55,0x2a,0x05,
 0xaa,0xaa,0xaa,0x52,0x55,0x55,0x55,0x55,0x49,0x55,0x55,0x55,0x55,0xaa,0x54,
 0x55,0x01,0x00,0x80,0x40,0x5d,0x55,0xd5,0xba,0x56,0x55,0x01,0x40,0xa9,0x4a,
 0x49,0x55,0x2a,0x49,0x49,0x01,0x52,0x55,0x55,0xad,0xaa,0xaa,0xaa,0xaa,0x56,
 0xa9,0xaa,0xaa,0x4a,0x55,0x95,0xaa,0x00,0x48,0x02,0xd0,0xaa,0xaa,0xaa,0x6d,
 0xad,0x0a,0x20,0x29,0x55,0x95,0x2a,0xa9,0x52,0x55,0x55,0x02,0x4a,0x92,0xaa,
 0x52,0x55,0xaa,0x54,0x4a,0xa9,0x2a,0x95,0x52,0xa9,0x92,0xaa,0x24,0x01,0x00,
 0x80,0x56,0x55,0xdb,0xaa,0xaa,0xd5,0xb6,0x0a,0xa0,0x24,0x52,0x92,0x24,0x49,
 0x4a,0x4a,0x05,0x55,0x55,0x55,0x55,0x4a,0x55,0x55,0x55,0x55,0x55,0xa9,0xaa,
 0xaa,0xaa,0xaa,0x5a,0x00,0x00,0x20,0xa9,0xaa,0xaa,0x55,0xdb,0x5a,0x55,0x00,
 0x40,0x55,0xa5,0xaa,0x4a,0x95,0x54,0x55,0x01,0xaa,0xaa,0xa4,0xaa,0xaa,0x52,
 0x55,0x55,0x55,0x55,0x55,0x55,0xaa,0xaa,0x52,0x25,0x00,0x00,0xaa,0xaa,0x52,
 0x55,0xaa,0x6a,0x6d,0x55,0x45,0x90,0x92,0x54,0x49,0x55,0x55,0xa5,0x92,0x04,
 0x55,0x55,0x55,0x55,0x55,0xad,0xaa,0xaa,0xaa,0xaa,0x2a,0xa9,0xaa,0xaa,0xaa,
 0x2a,0x00,0x80,0x54,0x55,0xaa,0xaa,0xad,0x55,0xab,0xaa,0x02,0x42,0x55,0x95,
 0xaa,0x54,0x52,0x29,0x55,0x05,0x29,0xa9,0x2a,0x55,0x55,0xa5,0xaa,0xaa,0x4a,
 0x55,0x55,0x55,0x25,0x55,0x55,0x0a,0x00,0xb5,0xaa,0xaa,0x55,0x55,0x52,0x5d,
 0x55,0x55,0x11,0x00,0x29,0xa5,0x54,0x4a,0x29,0x95,0x92,0x02,0xaa,0xaa,0xaa,
 0xaa,0xaa,0xaa,0xaa,0x2a,0x55,0x95,0x52,0xa5,0xaa,0x4a,0x4a,0x05,0x40,0x4a,
 0x55,0x55,0xaa,0xa4,0xaa,0xaa,0x6d,0xab,0x8a,0x90,0x4a,0xa9,0x92,0x52,0x55,
 0x55,0x2a,0x05,0xa5,0x4a,0x55,0x55,0x55,0x55,0x25,0x55,0x55,0xa9,0xaa,0xaa,
 0xaa,0x52,0xa9,0x02,0xb8,0xb5,0xad,0xaa,0x2a,0x55,0x55,0x6b,0xb5,0x7a,0x01,
 0x00,0xa4,0x2a,0x55,0xa9,0x24,0x49,0xa5,0x02,0xaa,0xaa,0xaa,0xaa,0xa4,0xaa,
 0xaa,0xaa,0xaa,0xaa,0xaa,0x2a,0x55,0x55,0x55,0x05,0x64,0xdb,0xda,0xb6,0x55,
 0x25,0x55,0xad,0xaa,0x56,0x15,0xa0,0x2a,0xa5,0xa4,0x4a,0x55,0xaa,0x54,0x02,
 0x55,0xaa,0xaa,0x92,0xaa,0x54,0x55,0x55,0x55,0x55,0x55,0xa9,0x4a,0xaa,0xaa,
 0x00,0x91,0xa4,0x6a,0x4b,0x92,0x92,0x24,0xa9,0xda,0x3d,0x41,0x04,0xaa,0x52,
 0x95,0x24,0x49,0x25,0x95,0x02,0xaa,0xaa,0xaa,0xaa,0xaa,0xaa,0x54,0xa9,0x4a,
 0x55,0xaa,0x56,0x55,0x95,0x4a,0x01,0x24,0x55,0xab,0xaa,0xaa,0xaa,0xaa,0x6a,
 0x55,0xab,0x0a,0x81,0x2a,0x95,0x54,0x55,0x95,0xaa,0x52,0x05,0x92,0x52,0x52,
 0x55,0x55,0x95,0x4a,0x55,0xa9,0xaa,0x2a,0x49,0xa9,0xaa,0x32,0x40,0x01,0x80,
 0x2a,0xa9,0xaa,0x54,0xa5,0xaa,0xaa,0x44,0x21,0x00,0x54,0xa9,0x52,0x52,0x52,
 0x91,0x54,0x02,0x55,0x55,0x95,0xaa,0xaa,0xaa,0xaa,0xaa,0xaa,0x4a,0x55,0x55,
 0x55,0xa9,0x4a,0x00,0x04,0x2a,0x55,0x55,0x55,0x25,0x29,0x55,0x55,0x53,0x8a,
 0x90,0x4a,0x25,0x95,0x4a,0x95,0xaa,0x4a,0x05,0xa9,0x4a,0x55,0x55,0x55,0x55,
 0x55,0x55,0x55,0xaa,0xaa,0xaa,0x4a,0x4a,0x2a,0xa4,0xea,0xaa,0xaa,0xaa,0x92,
 0xaa,0xaa,0xaa,0x56,0x28,0x21,0x00,0x28,0xa9,0x4a,0x29,0xa9,0x54,0x25,0x01,
 0x4a,0x55,0x55,0x55,0x95,0xaa,0xaa,0x4a,0x55,0x55,0x55,0x55,0x55,0x55,0x15,
 0x10,0x15,0x55,0xa9,0xaa,0xaa,0x54,0x25,0x55,0x55,0x45,0x45,0x85,0xaa,0xaa,
 0x54,0x55,0xa5,0x92,0x54,0x05,0x55,0x52,0xa9,0xaa,0x54,0x55,0x55,0xa9,0xaa,
 0xaa,0xa4,0xaa,0xa8,0xaa,0x0a,0x45,0x80,0xaa,0xaa,0x2a,0x49,0x4a,0x52,0xa9,
 0x2a,0x52,0x10,0x00,0x50,0x15,0xa5,0xa4,0x54,0x4a,0xaa,0x02,0xaa,0xaa,0x2a,
 0x55,0x55,0x29,0xa5,0xaa,0xaa,0xaa,0xaa,0xa4,0x56,0x55,0x55,0x12,0xa9,0xaa,
 0xaa,0xaa,0xaa,0x52,0x55,0xd5,0xaa,0x8a,0x4a,0x22,0x4d,0x52,0x29,0x95,0x92,
 0xaa,0x52,0x05,0x49,0x55,0x55,0xa9,0xaa,0xa6,0x2a,0x55,0x55,0x55,0x95,0x2a,
 0xa5,0x24,0x09,0x40,0x44,0x55,0xa5,0xaa,0x52,0x55,0x4a,0x2a,0x55,0x55,0x02,
 0x00,0xa0,0x4a,0x95,0xaa,0x4a,0xa5,0x2a,0x02,0xaa,0x4a,0x55,0x55,0x55,0x59,
 0x55,0x55,0xaa,0xaa,0xaa,0xaa,0x2a,0x55,0x25,0x09,0xa9,0xaa,0xaa,0x2a,0x95,
 0x94,0x52,0xa9,0x4a,0x95,0x54,0x15,0xaa,0x54,0xaa,0x24,0x55,0x4a,0xa9,0x04,
 0x2a,0xa9,0xa4,0xaa,0x2a,0x95,0xaa,0xaa,0x2a,0x25,0x55,0x55,0xa9,0xaa,0x8a,
 0xd4,0x54,0x92,0xaa,0x4a,0x49,0x4a,0x55,0xa5,0x52,0x52,0x02,0x40,0x50,0x2a,
 0x49,0xaa,0x52,0xa9,0xa4,0x02,0x55,0x55,0x55,0x55,0xaa,0xaa,0x54,0xa5,0xaa,
 0xaa,0xaa,0x52,0x55,0x55,0x25,0x55,0x55,0x55,0x55,0x55,0xaa,0x32,0x95,0xaa,
 0xaa,0xaa,0x54,0x09,0xa0,0x52,0x55,0x55,0x4a,0x95,0xaa,0x02,0x49,0x55,0x55,
 0x55,0x55,0x55,0xa5,0xaa,0x52,0xa9,0x52,0x2a,0xa5,0x4a,0xd2,0x2a,0xd5,0xaa,
 0xaa,0x4a,0xa5,0x4a,0x49,0x92,0x4a,0x29,0x05,0x40,0x15,0x95,0x94,0x24,0x55,
 0x52,0x55,0x02,0xaa,0xaa,0xaa,0xaa,0xaa,0x52,0x55,0xaa,0xaa,0x56,0x55,0x55,
 0x55,0xaa,0x8a,0xaa,0xaa,0x6d,0x5b,0x55,0x95,0x54,0x55,0x55,0xa5,0xaa,0xa8,
 0x0a,0xa0,0xa4,0x52,0x55,0xa9,0x94,0xa4,0x02,0x55,0x25,0x55,0x55,0x55,0x55,
 0x55,0x55,0xaa,0x54,0xaa,0x4a,0x29,0xa9,0x52,0x55,0x55,0x55,0xa5,0x24,0xa9,
 0x2a,0xa9,0x4a,0x2a,0x95,0x12,0x20,0x2d,0x52,0x95,0x24,0x95,0x4a,0x95,0x02,
 0x2a,0x55,0xa9,0x52,0xa9,0xaa,0xaa,0xaa,0x52,0x55,0xa5,0xaa,0xaa,0x2a,0xa5,
 0xaa,0x6a,0xdb,0x5a,0x55,0x25,0xa5,0x92,0x54,0xa5,0xaa,0x4a,0x01,0x54,0x95,
 0xa4,0xaa,0x52,0x55,0x2a,0x05,0x49,0xa9,0x2a,0x55,0x55,0x95,0x54,0xa5,0x2a,
 0x55,0xa9,0x54,0x55,0xa5,0x52,0xaa,0x94,0x56,0x95,0x92,0x54,0xa9,0xaa,0x2a,
 0x95,0x44,0x29,0x94,0xaa,0xaa,0x2a,0x49,0x49,0x24,0xa5,0x02,0xaa,0x4a,0x55,
 0x95,0xaa,0xaa,0xaa,0xaa,0xaa,0xaa,0xaa,0x2a,0xa9,0xaa,0xa4,0x55,0x55,0x6d,
 0x55,0xaa,0xaa,0x4a,0xaa,0xa4,0xaa,0x5a,0x55,0x41,0xaa,0x24,0xa9,0x2a,0x55,
 0xa9,0x54,0x02,0xaa,0xaa,0x4a,0x55,0x95,0x54,0x95,0x54,0x55,0x55,0x95,0x52,
 0x25,0x29,0x55,0xaa,0x52,0xb5,0x56,0x49,0x92,0x54,0x49,0x2a,0xa9,0xa4,0x24,
 0x14,0x00,0x55,0x95,0xa4,0x2a,0x95,0xaa,0x02,0x55,0x55,0xb5,0xaa,0x6a,0x55,
 0x55,0x95,0xaa,0x92,0xaa,0xaa,0xaa,0xaa,0x94,0xaa,0xaa,0xea,0x55,0x55,0x55,
 0xa9,0xaa,0x52,0x55,0x55,0x55,0xa1,0xd4,0xaa,0xa4,0x4a,0x52,0x55,0x49,0x05,
 0x24,0x29,0x49,0x55,0x95,0xaa,0xaa,0xaa,0x92,0x54,0xa5,0x4a,0xaa,0x4a,0x65,
 0x55,0x25,0xad,0x4a,0x2a,0x49,0x4a,0x92,0x94,0xaa,0xaa,0xaa,0x0a,0x40,0x48,
 0xaa,0x54,0xa9,0x24,0x55,0x02,0x55,0x55,0x55,0xaa,0xaa,0x52,0xa9,0x52,0x55,
 0x55,0x2a,0x55,0x55,0x52,0x4a,0x55,0xaa,0xaa,0x55,0x49,0x55,0x55,0x55,0x25,
 0x55,0xaa,0x4a,0x22,0x55,0x91,0x92,0x92,0x4a,0x55,0x49,0x05,0xaa,0xaa,0xaa,
 0xaa,0xaa,0x2a,0x55,0xaa,0x54,0x55,0x55,0xa9,0x92,0x2a,0x55,0x55,0x55,0x52,
 0x2a,0xa5,0x92,0x92,0x92,0x54,0xa9,0x2a,0x55,0x49,0xb0,0x54,0x49,0x55,0xa5,
 0xa4,0x54,0x02,0x52,0xa5,0xaa,0xaa,0x54,0x55,0x55,0x95,0xaa,0xaa,0xaa,0x2a,
 0x55,0x55,0xaa,0xaa,0x92,0xaa,0xa5,0x2a,0x55,0x2a,0x55,0xa9,0xaa,0xaa,0x52,
 0x15,0x55,0x50,0x2a,0x29,0x29,0x95,0xaa,0x02,0xaa,0x54,0x55,0x55,0x55,0x55,
 0x55,0x55,0x55,0x4a,0x92,0xaa,0xaa,0xaa,0x52,0x55,0x55,0x55,0x55,0xa9,0x4a,
 0xa5,0x24,0x25,0x49,0x49,0x29,0x55,0x00,0x40,0x55,0xa5,0x94,0x52,0x95,0x02,
 0x95,0xaa,0xaa,0xaa,0xaa,0xaa,0xaa,0xaa,0x52,0x55,0x55,0xa5,0xa4,0x24,0x55,
 0x55,0x55,0xa9,0x4a,0xaa,0x54,0xa9,0xaa,0x4a,0x55,0x55,0x56,0x25,0x25,0x90,
 0x4a,0x55,0x55,0x95,0xa4,0x04,0x49,0x25,0x55,0x55,0x95,0xaa,0xaa,0x52,0x95,
 0xaa,0xaa,0x94,0x2a,0x95,0xaa,0xaa,0xaa,0xaa,0x52,0x95,0xaa,0x2a,0x95,0x54,
 0x49,0x55,0xa9,0x48,0x09,0x00,0x29,0x29,0xa5,0xa8,0x92,0x02,0xaa,0xaa,0x2a,
 0xa5,0x6a,0xaa,0x4a,0x95,0xaa,0x54,0x55,0x55,0x55,0x55,0x52,0x55,0x55,0x55,
 0x95,0x52,0x49,0x4a,0x52,0x95,0xaa,0xaa,0x4a,0x2b,0x05,0x42,0x55,0xa5,0x2a,
 0x53,0x55,0x05,0x55,0xaa,0x52,0x59,0x55,0x55,0xa9,0xaa,0xaa,0x4a,0x92,0xaa,
 0x52,0x49,0xa9,0xaa,0xaa,0xaa,0x54,0xa9,0x54,0xa9,0x49,0x4a,0x25,0x55,0xb5,
 0x52,0x6a,0x01,0x92,0x54,0x91,0x94,0x54,0x02,0xaa,0xaa,0xaa,0xa6,0x4a,0xa5,
 0x56,0x55,0x55,0x55,0x55,0x25,0x55,0x55,0x55,0x55,0x55,0x55,0xa5,0x4a,0xa5,
 0x4a,0x56,0x29,0xa9,0xaa,0x4a,0x4a,0x95,0x84,0x2a,0x49,0x56,0x25,0xa5,0x02,
 0x55,0x55,0x55,0x55,0x55,0x55,0x55,0x4a,0x49,0xaa,0x4a,0xa9,0x94,0x2a,0xaa,
 0xaa,0xaa,0xaa,0x94,0x54,0x2a,0xa5,0x24,0xa5,0x54,0x95,0xaa,0xaa,0x54,0x52,
 0xa4,0x2a,0xa5,0xaa,0x52,0x05,0x52,0xa9,0xaa,0xaa,0xaa,0x2a,0xa9,0xaa,0xaa,
 0x52,0x55,0x55,0x55,0xc5,0xa4,0xaa,0xaa,0xaa,0xaa,0x52,0x49,0x29,0xa9,0x2a,
 0x25,0xa5,0xaa,0xaa,0xaa,0x94,0x4a,0x52,0x29,0x55,0x95,0x04,0x55,0x55,0xaa,
 0x54,0x55,0x55,0x55,0xa9,0xaa,0x2a,0xa9,0x94,0x4a,0x29,0x55,0x55,0x55,0x55,
 0x25,0x95,0x54,0xaa,0x2a,0x49,0x95,0xaa,0xaa,0x92,0x54,0xa5,0xa4,0x8a,0x54,
 0x49,0xaa,0x02,0xaa,0xaa,0x55,0x55,0x55,0x55,0x55,0x55,0x55,0x55,0x55,0x55,
 0x55,0x55,0x55,0x55,0x55,0x95,0x54,0xa9,0x52,0xa5,0x52,0x55,0xaa,0x54,0x55,
 0x55,0x55,0x89,0x92,0xb4,0x92,0xaa,0x52,0x05,0x25,0x55,0xa9,0x4a,0x55,0xaa,
 0xaa,0xaa,0x52,0xaa,0x2a,0xa5,0xa4,0x24,0xa9,0xaa,0x52,0x55,0xa5,0x24,0x95,
 0x54,0x4a,0xa5,0x92,0x2a,0x55,0x55,0x55,0x55,0x54,0x09,0xa9,0x94,0x4a,0x02,
 0xaa,0x2a,0x55,0xb5,0xaa,0x4a,0x55,0x55,0xaa,0x4a,0x55,0x55,0x95,0x4a,0x55,
 0x55,0xad,0xaa,0xaa,0xaa,0x24,0xa5,0xaa,0x4a,0xa5,0xaa,0xaa,0x2a,0x55,0x95,
 0x22,0x55,0x25,0xa9,0x54,0x05,0x55,0x55,0x95,0x4a,0xa5,0xaa,0xa4,0x4a,0x55,
 0xa9,0x4a,0x95,0xaa,0xaa,0xaa,0xaa,0x52,0x55,0x24,0x95,0xaa,0x52,0x52,0xa8,
 0xa8,0x54,0x55,0x49,0xa9,0x2a,0xa9,0xa4,0x54,0x95,0xaa,0x02,0xaa,0xaa,0xaa,
 0xaa,0x5a,0x55,0xab,0xaa,0xaa,0x2a,0x55,0x2a,0x55,0x25,0xa9,0xaa,0xaa,0xaa,
 0x55,0x52,0xa9,0xaa,0x4a,0x93,0x4a,0xa9,0xaa,0x56,0x56,0x55,0x4a,0x55,0x25,
 0xa9,0xaa,0x04,0x55,0x55,0x55,0x55,0xa5,0xaa,0x28,0x55,0x95,0xaa,0x52,0x55,
 0x25,0xa9,0xaa,0xaa,0xaa,0x2a,0x92,0xaa,0x94,0x24,0xa5,0x54,0xaa,0x54,0x55,
 0xa9,0x52,0x95,0x50,0x52,0xaa,0x94,0x92,0x02,0xaa,0xaa,0xaa,0xaa,0xaa,0x54,
 0xab,0x2a,0x55,0x55,0x55,0x55,0xa9,0x52,0x55,0x55,0x55,0x55,0x55,0x95,0xaa,
 0xaa,0x54,0xa5,0x92,0x52,0xa5,0xaa,0xaa,0x2a,0x45,0xa5,0xa4,0xaa,0x54,0x05,
 0x25,0x55,0x55,0x55,0x55,0xab,0x54,0xa5,0xaa,0x92,0x2a,0x25,0x95,0x2a,0x92,
 0xaa,0xaa,0x2a,0xa5,0x48,0x92,0x94,0x92,0x54,0xa9,0x94,0xaa,0xaa,0x52,0xd5,
 0x12,0x29,0x15,0x45,0x55,0x02,0xaa,0xaa,0xaa,0xaa,0xaa,0x54,0x55,0x55,0x29,
 0x55,0x49,0xa9,0xaa,0xa4,0x6a,0x55,0x55,0x55,0x29,0xab,0xaa,0x2a,0x55,0x95,
 0x4a,0xa9,0xaa,0x2a,0xa5,0x2a,0x49,0x55,0xa9,0x54,0xaa,0x02,0x52,0x55,0x55,
 0xaa,0xaa,0xaa,0xaa,0xaa,0xaa,0xaa,0x54,0x55,0xa5,0x52,0x55,0x55,0x55,0xaa,
 0xaa,0x48,0x49,0x45,0x29,0x49,0x25,0x26,0x55,0x55,0x15,0x55,0x25,0x92,0x54,
 0xaa,0x4a,0x02,0x95,0x4a,0x55,0x55,0x55,0x55,0x55,0x4a,0x55,0x55,0x55,0x2a,
 0x55,0x25,0xa9,0x6a,0x55,0x55,0x52,0x2b,0x55,0x5a,0x4a,0x55,0xaa,0x54,0x55,
 0x55,0xa9,0xda,0x4a,0xa5,0x92,0x52,0xa9,0x02,0x48,0xa2,0x88,0x92,0x48,0x92,
 0x24,0x29,0x49,0x92,0x4a,0xa5,0x52,0x52,0x55,0x95,0xaa,0xaa,0xaa,0x54,0x55,
 0x45,0x55,0x25,0xa9,0x92,0x54,0x55,0x45,0x54,0x55,0x51,0xaa,0x94,0x54,0x02,
 0x55,0x55,0xab,0x54,0x55,0x55,0x55,0x55,0x55,0x55,0xaa,0x54,0x55,0x55,0x55,
 0x6d,0x55,0x55,0x55,0xa5,0x92,0x5a,0x29,0x55,0x95,0xaa,0xaa,0xaa,0x2a,0x55,
 0x55,0x96,0x24,0xa9,0x92,0x02,0xaa,0xaa,0x54,0xab,0xaa,0xaa,0x52,0xa5,0x92,
 0xa4,0x52,0x92,0x08,0x91,0xaa,0xaa,0x56,0x95,0x24,0x92,0x54,0x45,0xd5,0x54,
 0x55,0x55,0x55,0x55,0x95,0x48,0x55,0x51,0x55,0x55,0xaa,0x02,0x55,0x55,0xab,
 0x54,0x55,0x55,0x55,0x55,0xaa,0x2a,0xa5,0x2a,0x55,0xaa,0xaa,0xaa,0xaa,0x2a,
 0x55,0x55,0x55,0x5a,0x95,0xaa,0x52,0x4a,0xaa,0xaa,0x54,0x52,0x55,0xad,0x4a,
 0x52,0x25,0x05,0xb7,0xff,0xf6,0xdf,0xee,0x6e,0xbb,0xb6,0x77,0xdb,0x5b,0xd5,
 0xaa,0x25,0xa9,0xaa,0xaa,0xaa,0x92,0x4a,0x12,0x21,0x44,0x02,0x08,0x91,0x44,
 0x55,0x95,0xa4,0xaa,0x02,0x20,0x09,0x91,0x00,0x6d,0x55,0x9b,0x6a,0x5b,0xdb,
 0xd6,0x6d,0xad,0xb5,0xb6,0xab,0x5d,0x4a,0x55,0x55,0x55,0x55,0x55,0xaa,0x64,
 0x55,0x59,0xb5,0x55,0x4a,0x5a,0x95,0x2a,0x49,0x55,0xb5,0xad,0xaa,0xaa,0x02,
 0xb6,0xb7,0x6d,0xdb,0xed,0x76,0xbb,0xb6,0xf6,0xde,0xda,0xf6,0xb6,0xa9,0xaa,
 0xaa,0xda,0xea,0xff,0x77,0xbf,0xba,0xaf,0x6d,0xeb,0xb7,0x6b,0x52,0xa5,0x24,
 0xaa,0xd4,0x56,0xdb,0xd6,0x06,0x6d,0xdd,0xf6,0x76,0xdb,0xad,0x6d,0xeb,0xad,
 0xb5,0x6b,0xad,0x6a,0x52,0x55,0x55,0x55,0xbb,0xaa,0xda,0x6a,0xd7,0x5a,0xdb,
 0x5e,0xdd,0x5e,0xad,0xaa,0x52,0x55,0x69,0xbb,0x6d,0xad,0x05,0x5b,0xb7,0xad,
 0xdd,0xb6,0x76,0xdb,0xba,0x76,0x6d,0xbd,0x5b,0xbf,0x88,0x54,0x55,0x55,0x6d,
 0xff,0xbf,0xdf,0x7d,0xf7,0xbf,0xf7,0xff,0xff,0x92,0x54,0x04,0x49,0xd4,0xd6,
 0xb6,0xfb,0x06,0xed,0x6e,0x77,0x6b,0xfb,0xdb,0x6d,0x57,0xdb,0xdb,0x6b,0xf7,
 0xaa,0xaa,0xaa,0xaa,0xaa,0xba,0x55,0xf5,0x7a,0xf7,0xdd,0xf6,0x5e,0xfb,0xbd,
 0x54,0x55,0xa9,0x54,0xd5,0xbd,0xdb,0xd6,0x05,0x5b,0xdb,0xdd,0xde,0xae,0xb6,
 0xb6,0xed,0x6d,0x6d,0xb5,0xad,0x55,0xa4,0xaa,0xaa,0xaa,0xd6,0xed,0x5e,0xd7,
 0x5f,0xf7,0xff,0xfb,0x5e,0xef,0x55,0x25,0x05,0x88,0xd2,0xd6,0xb6,0xbb,0x06,
 0xed,0x76,0xbb,0x75,0xdb,0xde,0xdb,0xb6,0xb6,0xb5,0x6f,0xbb,0x5e,0x95,0xaa,
 0xaa,0x5a,0x6d,0xb7,0xf5,0xbe,0xfd,0x5d,0xdf,0xff,0xf7,0xbb,0xaa,0xaa,0x54,
 0x25,0xd5,0x7b,0xef,0xee,0x03,0xb6,0xdd,0xee,0xdf,0xbf,0xeb,0xb6,0x6d,0x6f,
 0xef,0xda,0xd6,0xab,0x4a,0x55,0x55,0xd5,0xb6,0x5a,0xaf,0xd5,0x6e,0xff,0xf5,
 0xae,0xfd,0xfe,0x4a,0x55,0x05,0x90,0xa8,0xd6,0x7a,0x5b,0x05,0xdb,0x76,0x5b,
 0x6d,0xf5,0x5e,0xdb,0xb6,0xbd,0x5d,0xb7,0xbd,0x16,0xa9,0xaa,0xaa,0xaa,0xed,
 0xf7,0xba,0x6f,0xfb,0xed,0xbf,0xff,0xd7,0xdb,0x55,0xaa,0x2a,0x49,0xd5,0xbf,
 0xd7,0xf6,0x07,0x00,0x00,0x00,0x00,0x00,0x81,0x24,0x49,0x42,0x52,0xd5,0x56,
 0x5b,0x52,0x55,0xb5,0xb5,0x5a,0x5d,0xef,0xfa,0x5f,0x7b,0xed,0xf7,0xfe,0xff,
 0x56,0x25,0x51,0x00,0x22,0xea,0xfd,0x7d,0x05,0xaa,0xaa,0xaa,0xaa,0x2a,0x5a,
 0x4a,0xaa,0xaa,0xd5,0xaa,0xea,0x16,0x29,0x55,0xab,0x56,0xf7,0xf6,0xda,0xad,
 0xfa,0xef,0x7f,0xdf,0xbf,0xad,0x55,0x55,0x95,0xa4,0xd4,0x5f,0x57,0xd7,0x07,
 0xaa,0xaa,0x6d,0xdb,0xd6,0xab,0xb5,0x55,0x55,0x28,0x10,0x00,0xa0,0xaa,0xaa,
 0x54,0xd5,0x00,0x00,0x00,0x00,0x01,0x00,0x00,0x20,0x00,0x10,0xa2,0xaa,0x4a,
 0x02,0x28,0xa1,0x54,0x55,0x01,0x55,0x55,0x55,0xb5,0x5a,0xaa,0x4a,0xaa,0xa4,
 0xa5,0xa5,0xaa,0x8a,0x54,0xd5,0xaa,0xaa,0x00,0x89,0x2a,0x55,0xaa,0xaa,0xaa,
 0x4a,0xa5,0x4a,0x54,0x55,0x55,0x89,0x52,0xad,0xaa,0xaa,0x06,0xa2,0xaa,0x52,
 0x0a,0x25,0x55,0x54,0x55,0x2a,0x55,0x5a,0x55,0x55,0x4a,0x55,0x55,0x6d,0xdb,
 0x6a,0x55,0x55,0x55,0x55,0x55,0xa5,0x52,0xa5,0xaa,0xaa,0x2a,0x22,0x88,0x42,
 0x12,0x91,0x00,0x2a,0x55,0x55,0xb5,0x54,0xa9,0xa5,0x4a,0x55,0xaa,0xa5,0xaa,
 0xaa,0xaa,0xaa,0xaa,0xaa,0x24,0x95,0xaa,0xaa,0xaa,0xaa,0xa4,0x94,0x94,0x54,
 0x55,0x55,0xa5,0x08,0x51,0x2c,0xa5,0x4a,0x05,0x55,0x49,0xaa,0x4a,0xab,0x56,
 0x2a,0xa9,0xaa,0x4a,0x52,0x4a,0x02,0x55,0x55,0x55,0x5b,0x49,0x42,0x40,0x24,
 0x44,0x44,0x12,0x25,0x25,0x25,0xa2,0xaa,0x52,0x45,0x44,0x43,0xa9,0x54,0x02,
 0xaa,0x52,0x55,0x55,0xaa,0xa4,0xaa,0xaa,0x52,0x95,0x94,0x92,0xda,0xaa,0xaa,
 0xb6,0x6a,0x95,0x54,0xab,0x52,0xa9,0xaa,0xaa,0xa8,0x48,0x54,0x55,0x55,0x4d,
 0x12,0x90,0x54,0x4a,0x52,0x05,0x52,0xad,0x4a,0x52,0x95,0xaa,0x52,0x95,0x2a,
 0x69,0x55,0x55,0x45,0x54,0x55,0x55,0x5b,0x42,0x95,0x14,0x29,0x15,0x51,0x91,
 0x4a,0xaa,0x8a,0x48,0x55,0x52,0x25,0x45,0x2a,0x25,0x15,0x01,0x55,0x52,0xa9,
 0xaa,0xaa,0xaa,0xaa,0xaa,0xaa,0x8a,0x2a,0x55,0x92,0xaa,0xda,0xaa,0xb6,0x2c,
 0x29,0xa9,0x42,0xa5,0x2a,0x55,0x95,0x52,0x29,0xa5,0xaa,0xaa,0x14,0x10,0x45,
 0xa9,0x52,0x05,0x4a,0xad,0xaa,0xaa,0x54,0x95,0x2a,0xa5,0xaa,0xb2,0x52,0x49,
 0xa9,0x52,0x55,0xd5,0x2a,0xa3,0x54,0xa5,0xb4,0x52,0x49,0x55,0xaa,0x2a,0xa5,
 0x2a,0x55,0x95,0xa2,0x02,0xb0,0xaa,0xaa,0x02,0x55,0x49,0x55,0x55,0xa5,0xaa,
 0xaa,0xaa,0x52,0x55,0x55,0x55,0x25,0x55,0xab,0xae,0xad,0x54,0xa5,0x2a,0x45,
 0x2a,0x55,0x55,0x55,0x55,0x55,0x52,0x55,0x55,0x15,0x48,0x4a,0x55,0x55,0x05,
 0xa8,0xaa,0xaa,0xaa,0xaa,0x52,0x55,0x95,0x54,0x4a,0x12,0x49,0x92,0xaa,0x54,
 0xa9,0x56,0x2a,0x52,0x92,0x54,0x95,0x2a,0x25,0xa5,0x24,0x29,0x29,0x55,0xa5,
 0xaa,0x12,0x81,0x94,0x28,0x02,0x53,0x55,0x52,0x4a,0x55,0x55,0xaa,0xaa,0xaa,
 0x52,0x65,0xaa,0xaa,0xd4,0xaa,0x56,0x5d,0x51,0xa5,0x54,0x95,0xaa,0x54,0x55,
 0x55,0x55,0x55,0x45,0x55,0x55,0x25,0x48,0x54,0x29,0xd3,0x04,0x4a,0xaa,0xaa,
 0xaa,0x2a,0x55,0x55,0x55,0x55,0xad,0x9a,0x55,0x55,0x55,0xb5,0xaa,0x2b,0x24,
 0x15,0x55,0x55,0x55,0x4b,0x49,0xa9,0xaa,0x4a,0x55,0xa9,0x2a,0xa9,0x25,0x25,
 0xa5,0x28,0x02,0x54,0xa5,0xa4,0x52,0xd5,0xaa,0x2a,0x55,0x55,0xa9,0x6a,0xaa,
 0x54,0xb5,0x56,0xb5,0x56,0x4b,0xa9,0x52,0x55,0xaa,0x54,0xaa,0x4a,0x55,0x29,
 0x29,0x55,0xd5,0xaa,0x52,0x4a,0x55,0xcb,0x02,0x4a,0x12,0x95,0x54,0x2a,0xa9,
 0xaa,0xaa,0xaa,0x54,0x95,0x55,0x55,0x55,0xbb,0xdb,0xad,0xb4,0x56,0x55,0x55,
 0x55,0x55,0x95,0xa4,0x24,0x55,0x95,0xaa,0x2a,0xad,0x54,0x75,0x92,0x24,0x02,
 0x52,0x55,0xa9,0xaa,0x52,0x55,0x55,0x55,0x95,0xaa,0xaa,0xaa,0xaa,0xaa,0x6d,
 0xb5,0x5f,0x55,0x55,0xad,0xaa,0xaa,0xaa,0x52,0x55,0x55,0x55,0xaa,0xd4,0xaa,
 0x52,0x95,0x94,0x2a,0xd5,0x02,0x11,0x40,0x12,0x01,0x49,0x04,0x00,0x08,0x22,
 0x45,0x44,0x44,0x55,0xd5,0xde,0xff,0xb6,0xaa,0xaa,0x52,0x55,0x55,0x55,0x49,
 0x12,0x89,0x24,0x45,0x52,0xd5,0x0a,0x55,0x7f,0x88,0x22,0x02,0xca,0x96,0xa4,
 0x5a,0x92,0x6a,0xd5,0xd2,0xac,0x54,0x29,0xa9,0xaa,0xaa,0x75,0xfb,0x5f,0x55,
 0x55,0xad,0xaa,0xaa,0xaa,0xaa,0xaa,0x2a,0x55,0xaa,0xaa,0x55,0x55,0x55,0x5d,
 0x55,0x54,0x05,0x24,0x49,0x4a,0x84,0x2a,0x11,0x29,0x24,0x92,0xaa,0xaa,0x4a,
 0x44,0x54,0xda,0xdf,0x76,0x24,0xa9,0x4a,0x55,0x55,0x55,0x25,0x04,0x51,0x49,
 0x51,0x92,0xaa,0x42,0xd5,0xbf,0x22,0x89,0x00,0xa9,0x94,0xa8,0xaa,0xa4,0x4a,
 0x45,0x49,0x25,0x91,0xa4,0x94,0xa9,0xb5,0x6d,0xfb,0x9f,0x55,0x55,0x55,0x55,
 0x55,0x55,0x55,0x59,0x4a,0x92,0xa6,0x64,0x57,0xb5,0xea,0x77,0x54,0x55,0x05,
 0x24,0xa5,0x96,0xaa,0xaa,0x54,0xa9,0x2a,0xa9,0x24,0x12,0x49,0x55,0x55,0xfb,
 0xff,0xbf,0xaa,0xaa,0xaa,0xaa,0xaa,0xaa,0xaa,0xa6,0x55,0x55,0x55,0x95,0xaa,
 0xaa,0xf4,0xbd,0x01,0x02,0x01,0x95,0x54,0xa9,0x2a,0x95,0x52,0x4a,0x55,0x92,
 0x4a,0x55,0x95,0xaa,0x56,0xfd,0x7f,0x57,0x55,0x55,0x55,0x55,0x55,0x55,0x6d,
 0x55,0x4a,0x55,0xa9,0xaa,0x56,0x95,0xda,0x56,0xaa,0xb4,0x04,0x22,0x09,0x22,
 0x41,0x49,0xaa,0xaa,0xa4,0xaa,0x54,0x49,0x49,0xe9,0xfd,0x5f,0xab,0xaa,0xaa,
 0xb6,0xaa,0xaa,0xaa,0x6a,0x55,0xb5,0xb5,0xaa,0x2a,0xa9,0x6a,0xa5,0x7e,0xed,
 0x25,0x09,0x02,0x94,0x52,0x95,0x2a,0x52,0xa5,0x52,0xa9,0x52,0x29,0x95,0x54,
 0x5a,0xdb,0xfb,0xee,0x56,0xb5,0xaa,0x55,0x55,0xd5,0xaa,0xaa,0x56,0x55,0x55,
 0x4a,0x55,0xad,0xaa,0xde,0x5b,0x92,0xa4,0x04,0x41,0x88,0x20,0x44,0x49,0x12,
 0x08,0x04,0x08,0x84,0x40,0x02,0x01,0x25,0x8a,0x2a,0x55,0x4a,0x49,0x52,0x55,
 0x55,0x2a,0xa9,0x52,0x95,0x52,0x55,0x15,0x52,0xd4,0x57,0xd4,0x45,0x10,0x01,
 0x8a,0x52,0x4a,0x29,0x92,0xa4,0x52,0xa9,0x52,0x29,0x2d,0xa9,0xb4,0xda,0xb4,
 0xea,0xaa,0x94,0x52,0x95,0x4a,0xaa,0x52,0x55,0x55,0xaa,0xaa,0xaa,0x52,0xb5,
 0x6a,0x5b,0xb5,0x11,0xa5,0x04,0x50,0x88,0x52,0x84,0x48,0x92,0x24,0x44,0x94,
 0x92,0x00,0x04,0x01,0x00,0x04,0x11,0x2a,0x22,0x24,0x40,0x50,0x49,0x8a,0x44,
 0x54,0x55,0x55,0xd5,0xda,0x5a,0xb5,0x94,0xfa,0x4b,0x00,0x00,0x4a,0x25,0x84,
 0x52,0x25,0x49,0x92,0x2a,0x49,0x24,0x55,0x51,0x54,0x55,0xa9,0xaa,0x4a,0x49,
 0x49,0xab,0x8a,0xaa,0x2a,0xa9,0x92,0xaa,0xaa,0xaa,0x56,0xd5,0xee,0xaa,0xea,
 0x22,0x55,0x05,0x11,0x90,0x52,0x24,0x48,0x92,0x24,0x41,0x92,0x4a,0x22,0x14,
 0x82,0x10,0x52,0x52,0x55,0x2a,0xa5,0x24,0x52,0x20,0x51,0x15,0x49,0x02,0x20,
 0x55,0xa9,0xba,0x53,0xa5,0xbf,0x94,0x22,0x01,0xa4,0x4a,0x24,0x49,0x25,0x49,
 0x92,0x2c,0x49,0x10,0x49,0xa1,0x54,0x4a,0x49,0xa5,0x92,0xa4,0x08,0x49,0x49,
 0x55,0x26,0x52,0x92,0x6c,0xab,0xaa,0xd6,0x76,0xad,0xd5,0x56,0x49,0x94,0x02,
 0x49,0x00,0x09,0x12,0x00,0x12,0x04,0x81,0x10,0x45,0x10,0x0a,0x01,0x21,0x52,
 0x28,0x24,0x12,0xaa,0x24,0x04,0x80,0x88,0x00,0x49,0x92,0x14,0x00,0x21,0x49,
 0xf5,0x6d,0xa9,0x24,0x49,0x00,0x24,0x55,0xa4,0xa0,0xaa,0x48,0x51,0x14,0x45,
 0x88,0x42,0x50,0x54,0x8a,0xa4,0x92,0x4a,0x49,0x51,0x89,0x50,0x15,0x22,0x55,
 0x92,0x24,0xa1,0x56,0x4d,0x55,0xab,0xaa,0x92,0x92,0x24,0x05,0x01,0x12,0x11,
 0x15,0x10,0x22,0x8a,0xa2,0x20,0x52,0x94,0x0a,0x89,0x50,0x12,0x49,0x11,0x02,
 0x04,0x20,0x04,0x80,0x00,0x80,0x20,0x09,0x4a,0x20,0x90,0x88,0x48,0x12,0xa5,
 0x24,0x49,0x02,0x54,0x49,0x22,0xa2,0x4a,0x89,0x50,0x04,0x95,0x84,0x48,0x50,
 0x12,0x45,0xa5,0x24,0x4a,0x54,0x91,0x82,0x28,0x25,0xaa,0x0a,0x0a,0x50,0x89,
 0x8a,0x22,0x55,0x95,0xa5,0x14,0x49,0x84,0x00,0x42,0x90,0x94,0x48,0x42,0x42,
 0x0a,0x51,0x42,0x22,0x85,0x8a,0xa4,0x28,0x48,0x92,0x24,0x21,0x48,0x54,0x4a,
 0x49,0x91,0x50,0x41,0x45,0x20,0x40,0x08,0x20,0x40,0x28,0x42,0x02,0x51,0x02,
 0x94,0x22,0x21,0x25,0x29,0x29,0x51,0x8a,0x28,0x49,0x28,0x52,0x10,0x41,0x95,
 0x24,0x89,0x44,0x05,0x81,0x28,0x12,0x25,0x05,0x14,0x08,0x95,0x2a,0xa5,0x8a,
 0xaa,0x42,0x29,0xa8,0x84,0x04,0x00,0x08,0x08,0x00,0x00,0x00,0x04,0x20,0x04,
 0x12,0x82,0x04,0x45,0x2a,0x00,0x80,0x44,0x10,0x50,0x54,0x82,0x44,0x40,0x48,
 0x81,0x92,0x40,0x00,0x00,0xa2,0x00,0x2a,0x14,0x05,0x28,0x01,0x92,0xa0,0xa4,
 0xa4,0x4a,0xaa,0x50,0x45,0xa9,0x48,0x29,0x52,0x10,0x90,0xaa,0x2a,0x29,0x45,
 0x45,0x21,0x09,0x10,0x15,0x21,0x24,0x40,0x8a,0xaa,0xaa,0x14,0x55,0x49,0x49,
 0xa8,0x82,0x04,0x24,0x0a,0x00,0x11,0x80,0x00,0x04,0x10,0x00,0x02,0x00,0x00,
 0x44,0x45,0x00,0x40,0x92,0x10,0x10,0x08,0x40,0x45,0x40,0x08,0x11,0x95,0x50,
 0x00,0x00,0x82,0x08,0x52,0x25,0x05,0x28,0x00,0x40,0x50,0x15,0x42,0x15,0x55,
 0x51,0x22,0x95,0x28,0xa5,0x24,0x11,0x14,0x55,0x15,0x44,0xa2,0x4a,0xa5,0x2a,
 0x10,0x09,0x51,0x4a,0x20,0x82,0xaa,0xaa,0x54,0x52,0x24,0x95,0xa8,0x42,0x01,
 0x15,0x05,0x80,0x10,0x40,0x00,0x84,0x48,0x20,0x42,0x00,0x41,0x04,0x81,0x00,
 0x40,0x11,0x48,0x40,0x12,0x11,0x45,0x44,0x04,0x20,0x0a,0x29,0x41,0x44,0x22,
 0x04,0x49,0x22,0x12,0x11,0x02,0x20,0x28,0x29,0x42,0x12,0x49,0x10,0x02,0x85,
 0x08,0x15,0x14,0x51,0x14,0x55,0x15,0xa2,0x92,0x14,0x49,0x4a,0x88,0x28,0x51,
 0x45,0x51,0x44,0x14,0x91,0x94,0x50,0x92,0x94,0xa4,0xa4,0x00,0x89,0x02,0x82,
 0x10,0x04,0x12,0x8a,0x50,0x00,0x40,0x80,0x00,0x04,0x41,0x00,0x80,0x94,0x00,
 0x00,0x92,0x00,0x25,0x02,0x04,0x10,0x04,0x11,0x01,0x24,0x45,0x8a,0x24,0x02,
 0x08,0x08,0x02,0x04,0x54,0x08,0x4a,0x51,0x40,0x20,0x02,0x29,0x25,0x49,0x44,
 0x10,0x14,0x55,0x25,0x48,0x02,0x40,0x24,0xaa,0x48,0x54,0x90,0xa2,0x10,0x04,
 0xa4,0x48,0x28,0x51,0x90,0x54,0xa1,0x52,0x00,0x90,0x00,0x20,0x00,0x00,0x00,
 0x01,0x10,0x00,0x00,0x02,0x11,0x04,0x81,0x20,0x90,0x02,0x00,0x00,0x00,0x01,
 0x02,0x01,0x05,0x08,0x44,0x41,0x09,0x12,0x02,0x04,0x05,0x01,0x08,0x00,0x02,
 0x00,0x42,0x81,0x00,0x80,0x04,0x84,0x40,0x44,0x4a,0x28,0x40,0x22,0x2a,0x95,
 0x0a,0x00,0x00,0x00,0xa0,0x54,0x54,0x04,0x50,0x22,0x11,0x2a,0xa0,0xa0,0x54,
 0x51,0x28,0x54,0xa5,0xaa,0x00};
