#define noname_width 266
#define noname_height 281
static char noname_bits[] = {
 0xaa,0xaa,0xaa,0xaa,0xaa,0xaa,0xaa,0x2a,0xb5,0xb6,0xaa,0xd6,0xaa,0xad,0xb5,
 0xd5,0x6a,0x55,0x55,0xb5,0xaa,0x5a,0x55,0xd5,0xaa,0x55,0xd5,0xd6,0x5a,0xad,
 0xaa,0xaa,0xad,0x02,0x55,0x55,0x55,0x55,0x55,0x55,0x55,0xab,0x55,0x55,0xad,
 0xaa,0x6a,0x55,0xad,0x5a,0x55,0x6d,0xdb,0xaa,0x6d,0x6b,0x6b,0x5b,0x55,0xad,
 0xb6,0x5a,0xab,0x55,0x55,0x55,0x55,0x01,0xaa,0xaa,0xaa,0xaa,0xaa,0xaa,0xaa,
 0xaa,0xd6,0xaa,0x6a,0xb5,0x56,0x55,0x55,0xb5,0xad,0x55,0x55,0x5b,0xab,0xaa,
 0x56,0xb5,0x5a,0x6b,0x55,0x55,0x55,0xb5,0xb6,0xb5,0x6a,0x03,0xaa,0xaa,0xaa,
 0xaa,0xaa,0x6a,0x55,0x55,0x55,0xd5,0xaa,0xaa,0x5a,0x6d,0xab,0xad,0xd6,0xb6,
 0x6a,0xd5,0x6a,0xdb,0xda,0xaa,0xd6,0xaa,0x55,0xd5,0x6a,0x55,0xab,0xd6,0x56,
 0x01,0x55,0x55,0x55,0x55,0x55,0x55,0xad,0x5a,0x55,0xab,0x56,0xab,0xd5,0x5a,
 0x5d,0x6b,0xb5,0x6a,0x5b,0xab,0x56,0x55,0x55,0x6b,0x55,0x55,0xad,0x55,0xad,
 0xaa,0x54,0x55,0x55,0x01,0xaa,0x6a,0x55,0x55,0x55,0xab,0xaa,0xaa,0x55,0xb5,
 0xaa,0x6d,0x55,0xab,0xd5,0xaa,0xaa,0xaa,0xaa,0x75,0xb5,0x6d,0x6b,0xb5,0xb6,
 0xb6,0x6a,0x6d,0xab,0xb6,0xad,0xaa,0xda,0x02,0x6d,0xab,0xaa,0xaa,0xaa,0xaa,
 0x55,0x55,0x55,0x55,0xb5,0xaa,0xb6,0x6a,0xb5,0xd6,0xd6,0x56,0x5b,0xcd,0x56,
 0x55,0xad,0xd6,0xaa,0xd5,0x56,0xab,0xda,0xaa,0x6a,0xad,0x55,0x01,0xab,0x5a,
 0xdb,0x56,0x55,0xb5,0x6a,0xab,0xb6,0x56,0x5b,0x55,0xab,0x5a,0x5b,0x6b,0x6b,
 0xb5,0xd5,0xb6,0xda,0xb6,0x56,0xab,0xb6,0x5a,0x6b,0xb5,0x55,0x55,0xab,0xb5,
 0xaa,0x02,0xff,0xef,0x6d,0x7b,0xef,0x6e,0x5b,0xdd,0x6a,0xed,0xb6,0x7b,0x6d,
 0xab,0xd6,0x56,0xdd,0x56,0xad,0xaa,0x55,0xd5,0xda,0x5a,0x55,0x55,0x55,0x55,
 0xab,0xaa,0x5a,0x55,0x6d,0x01,0xdd,0x7a,0xb7,0xad,0x59,0xab,0x56,0xab,0xb6,
 0x5b,0x55,0xad,0xdb,0xda,0xb5,0xfa,0x56,0xed,0xb6,0x6d,0xad,0xb6,0x56,0xad,
 0xdb,0xd6,0x5a,0x6b,0x75,0xdb,0xaa,0x56,0xab,0x02,0xff,0xff,0xff,0xff,0xff,
 0xff,0xff,0xff,0xff,0xff,0xff,0xff,0xfe,0xff,0xff,0xef,0xff,0xbf,0xfb,0xf6,
 0xfb,0xdd,0xbd,0x7b,0xb5,0xad,0xb5,0xad,0x56,0xb5,0xd6,0x6a,0x55,0x01,0xff,
 0xff,0xff,0xff,0xff,0xff,0xff,0xff,0xff,0xff,0xff,0xff,0xef,0xff,0xde,0x7b,
 0x6b,0xeb,0xae,0x5f,0x5d,0x6b,0x6b,0x55,0x5b,0x75,0xdb,0x56,0xab,0x56,0x6b,
 0xb5,0x6a,0x03,0xff,0xff,0xff,0xff,0x5f,0xe8,0xff,0xff,0xff,0xff,0xff,0xfb,
 0xff,0xff,0xff,0xff,0xff,0xff,0xff,0xff,0xff,0xff,0xff,0xff,0xff,0xff,0xff,
 0xff,0xff,0xff,0xbe,0xef,0xdf,0x02,0xff,0xff,0xff,0xff,0xbf,0xb7,0xff,0xff,
 0xff,0xf7,0xff,0xff,0xff,0xef,0xff,0xff,0xff,0xff,0xff,0xff,0xff,0xff,0xff,
 0xff,0xff,0xef,0xee,0xfb,0xed,0xad,0xd7,0xbb,0x6a,0x03,0xff,0xff,0xff,0xff,
 0xd7,0x6a,0xfd,0xff,0xff,0xff,0xff,0xff,0xff,0xff,0xff,0xff,0xff,0xff,0xff,
 0xff,0xff,0xff,0xff,0xff,0xff,0xff,0xff,0xff,0xff,0xff,0xff,0xff,0xff,0x03,
 0xff,0xff,0xff,0xff,0xbf,0xbd,0xfe,0xff,0xff,0xff,0xff,0xff,0xff,0xff,0xff,
 0xff,0xff,0xff,0xff,0xff,0xff,0xff,0xff,0xff,0xff,0xff,0xff,0xff,0xff,0xff,
 0xff,0xff,0xff,0x03,0xff,0xff,0xff,0xff,0xfd,0xd7,0xf5,0xff,0xdf,0xff,0xdf,
 0x7f,0xff,0xfe,0xff,0xff,0xff,0xff,0xff,0xff,0xff,0xff,0xff,0xff,0xff,0xff,
 0xff,0xff,0xff,0xff,0xff,0xff,0xff,0x03,0xff,0xef,0xfd,0xff,0xf7,0x6f,0xeb,
 0xff,0xff,0xff,0xff,0xff,0xff,0xff,0xff,0xff,0xff,0xff,0xff,0xff,0xff,0xff,
 0xff,0xff,0xff,0xff,0xff,0xff,0xff,0xff,0xff,0xff,0xff,0x03,0xff,0xff,0xdf,
 0xff,0xff,0xbf,0x8e,0xff,0xff,0xff,0xfe,0xff,0xff,0xff,0xff,0xbf,0xff,0xff,
 0xff,0xff,0xff,0xff,0xff,0xff,0xff,0xff,0xff,0xff,0xff,0xff,0xff,0xff,0xff,
 0x03,0x7f,0xff,0xff,0xfb,0xff,0xdf,0x6b,0xff,0xff,0xff,0xff,0xff,0xff,0xff,
 0xff,0xff,0xff,0xff,0xff,0xff,0xff,0xff,0xff,0xff,0xff,0xff,0xff,0xff,0xff,
 0xff,0xff,0xff,0xff,0x03,0xff,0xff,0xff,0xff,0xff,0xbf,0xb6,0xfa,0xff,0xf7,
 0xff,0xf7,0xff,0xff,0xfd,0xfd,0xff,0xfd,0xff,0xff,0xff,0xff,0xff,0xff,0xff,
 0xff,0xff,0xff,0xff,0xff,0xfb,0xfe,0xff,0x03,0xff,0xff,0xff,0xff,0xff,0x6f,
 0x5b,0xfd,0xff,0xff,0xff,0xff,0xff,0xff,0xff,0xff,0xff,0xff,0xff,0xff,0xff,
 0xff,0xff,0xff,0xff,0xff,0xff,0xff,0xff,0xdf,0xff,0x7f,0xff,0x03,0xf7,0xff,
 0xff,0xff,0x7f,0xff,0xee,0xa2,0xff,0xff,0xff,0xff,0xef,0xdf,0xff,0xff,0xff,
 0xff,0xff,0xff,0xff,0xff,0xff,0xff,0xff,0xff,0xff,0x7f,0xef,0xff,0xff,0xff,
 0xff,0x03,0xff,0xdf,0xff,0xff,0xff,0xbf,0xb5,0xad,0xff,0xff,0xff,0xff,0xff,
 0xff,0xff,0xff,0xff,0xff,0xff,0xff,0xff,0xff,0xff,0xff,0xff,0xff,0xff,0xff,
 0xff,0xff,0xff,0xff,0xff,0x03,0xff,0xff,0xff,0xbf,0xff,0x6f,0xdf,0x56,0xfa,
 0xdb,0xff,0xff,0xfe,0xff,0xdf,0xff,0xfb,0xff,0xff,0xff,0xff,0xff,0xff,0xff,
 0xff,0xff,0xff,0xfb,0xff,0xff,0xff,0xff,0xff,0x03,0xff,0xff,0x7d,0xff,0xff,
 0xff,0x75,0xb7,0xfd,0xf7,0xff,0xff,0xff,0xff,0xff,0xff,0xff,0xff,0xff,0xff,
 0xff,0xff,0xff,0xff,0xff,0xff,0xff,0xff,0xff,0xff,0xff,0xff,0xf7,0x03,0xff,
 0xfe,0xff,0xff,0xdf,0xbf,0xdb,0xda,0x52,0x55,0xff,0xff,0xff,0xff,0xff,0xff,
 0xff,0xff,0xff,0xff,0xff,0xff,0xff,0xff,0xff,0xff,0xff,0xff,0xff,0xfd,0xff,
 0xff,0xff,0x03,0xff,0xff,0xff,0xff,0xff,0xff,0x6e,0x77,0xdd,0xda,0xfe,0xff,
 0xff,0xff,0xff,0xff,0xff,0xff,0xff,0xff,0xff,0xff,0xff,0xff,0xff,0xff,0xff,
 0xff,0xff,0xff,0xff,0xff,0xff,0x03,0xff,0xff,0xff,0xf7,0xfd,0xf7,0xdb,0xda,
 0x2b,0xa4,0xf5,0xff,0xff,0xff,0xff,0xef,0xff,0xff,0xff,0xf7,0xff,0xff,0xff,
 0xff,0xff,0xff,0xff,0xff,0xff,0xff,0xef,0xf7,0xff,0x03,0xff,0xff,0xff,0xff,
 0xff,0xff,0xb7,0x6d,0xad,0x52,0xfd,0xff,0xff,0xff,0xff,0xff,0xff,0xff,0xff,
 0xff,0xff,0xff,0xff,0xff,0xff,0xff,0xff,0xff,0xff,0xff,0xff,0xff,0xff,0x03,
 0xff,0xff,0xff,0xff,0xff,0xff,0xff,0xdf,0x16,0x48,0x4a,0xff,0xff,0xfd,0xff,
 0xff,0xff,0xff,0xff,0xff,0xff,0xff,0xff,0xff,0xff,0xff,0xff,0xff,0xff,0xff,
 0xff,0xff,0xff,0x03,0xff,0xff,0xff,0xff,0xff,0xff,0xff,0xb7,0x3d,0x52,0xf5,
 0xfe,0xff,0xff,0xff,0xff,0xff,0xff,0xef,0xff,0xff,0xff,0xff,0xff,0xff,0xff,
 0xff,0xff,0xff,0xff,0xff,0xff,0xff,0x03,0xff,0xff,0xef,0xff,0xff,0xff,0xff,
 0xff,0xa7,0x04,0x88,0xea,0xff,0xff,0xff,0xff,0xbf,0xff,0xff,0xff,0xff,0xff,
 0xff,0xdf,0xff,0xff,0xff,0xff,0xef,0x7f,0xff,0xff,0xff,0x03,0xff,0xff,0xff,
 0xff,0xff,0xbf,0xff,0x7f,0x5b,0x22,0x65,0xfb,0xff,0xff,0xff,0xff,0xff,0xff,
 0xff,0xff,0xff,0xff,0xff,0xff,0xff,0xfd,0xf7,0xff,0xff,0xff,0xff,0xff,0xff,
 0x03,0xff,0x7b,0xff,0xff,0xff,0xfe,0xff,0xff,0x0f,0x89,0x00,0xa4,0xfe,0xff,
 0xff,0xff,0xff,0xff,0xff,0xff,0xff,0xff,0xff,0xfd,0xf7,0xff,0xff,0xff,0xff,
 0xff,0xff,0xff,0xfb,0x03,0xdf,0xff,0xff,0xff,0xff,0xff,0xff,0xff,0xa7,0x54,
 0xa0,0xaa,0xff,0xff,0xff,0xff,0xff,0xbf,0xff,0xff,0xff,0xff,0xff,0xff,0xff,
 0xff,0xff,0xff,0xff,0xff,0xff,0xff,0xff,0x03,0xff,0xff,0xff,0xdd,0xff,0xff,
 0xbf,0xff,0x07,0x92,0x0a,0x90,0xb4,0xff,0xff,0xff,0xff,0xff,0xff,0xff,0xbf,
 0xef,0xff,0xff,0xff,0xff,0xff,0xff,0xff,0xff,0xff,0xff,0xff,0x03,0xff,0xff,
 0xff,0xff,0xf7,0xff,0xff,0xff,0x4f,0x29,0x81,0x44,0xfb,0xff,0xff,0xff,0xff,
 0xff,0xff,0xff,0xff,0xff,0xff,0xff,0xff,0xff,0xff,0xdf,0xff,0xff,0xff,0xdf,
 0xff,0x03,0xff,0xff,0xff,0xff,0xff,0xff,0xfb,0xff,0x01,0xa4,0x2a,0x00,0x44,
 0xf5,0xff,0xff,0xff,0xff,0xff,0xff,0xff,0xff,0xff,0xff,0xff,0xff,0xff,0xfd,
 0xff,0xff,0xff,0xff,0xff,0x03,0xff,0xff,0xff,0xff,0xff,0xff,0xff,0xff,0x2f,
 0x48,0x8a,0x04,0x52,0xfd,0xff,0xff,0xff,0xff,0xff,0xff,0xff,0xff,0xff,0xff,
 0xff,0xff,0xff,0xff,0xff,0xff,0xff,0xff,0xff,0x03,0xff,0xff,0xff,0xff,0xff,
 0xff,0xff,0xff,0xa1,0xa0,0x2a,0x11,0x00,0xd5,0xfe,0xff,0xff,0xff,0xff,0xdf,
 0xff,0xff,0xff,0xff,0xff,0xff,0xff,0xff,0xff,0xf7,0xff,0xff,0xff,0x03,0xef,
 0xff,0xff,0xff,0xff,0xbf,0xff,0xff,0x17,0x2a,0xa9,0x84,0x40,0xda,0xff,0xff,
 0xff,0xff,0xff,0xff,0xff,0xff,0xff,0xff,0xff,0xff,0xff,0xff,0xff,0xff,0xff,
 0xff,0xff,0x03,0xff,0xfd,0xf7,0xff,0xff,0xff,0xff,0xff,0xaa,0x40,0xaa,0x12,
 0x00,0x40,0xff,0xff,0xff,0xff,0xff,0xff,0xff,0xff,0xff,0xff,0xff,0xff,0xff,
 0xff,0xff,0xff,0xf7,0xff,0xff,0x03,0xff,0xbf,0xff,0xff,0xff,0xff,0xff,0xfb,
 0xaf,0x94,0xaa,0x4a,0x82,0xaa,0xff,0xff,0xff,0xff,0xff,0xff,0xff,0xff,0xff,
 0xff,0xff,0xff,0xff,0xff,0xff,0xff,0xff,0xff,0xff,0x03,0xff,0xff,0xff,0xff,
 0x77,0xff,0xff,0xff,0xbf,0x22,0xa9,0x2a,0x29,0x60,0xed,0xff,0xff,0xff,0xff,
 0xff,0xff,0xff,0xee,0xff,0xff,0xbf,0xff,0xff,0xf7,0xff,0xff,0xff,0xf7,0x03,
 0xff,0xff,0xff,0xff,0xff,0xff,0xff,0xff,0xdb,0x4a,0xaa,0xaa,0x02,0xa0,0xbb,
 0xff,0xff,0xff,0xff,0xff,0xff,0xff,0xff,0xff,0xff,0xff,0xff,0xff,0xff,0xff,
 0xff,0xff,0xff,0x03,0xff,0xff,0xff,0xff,0xff,0xff,0xff,0xff,0xff,0x2b,0xa9,
 0x2a,0x15,0x48,0xa4,0xfe,0xff,0xff,0xff,0xff,0xff,0xff,0xff,0xff,0xff,0xff,
 0xef,0xff,0xff,0xff,0xff,0xbe,0xff,0x03,0xff,0xff,0xff,0xff,0xff,0xff,0xff,
 0xff,0xff,0x95,0x54,0xd5,0x44,0x22,0xaa,0xfd,0xff,0xff,0xff,0xff,0xff,0xff,
 0xff,0xff,0xff,0xff,0xff,0xff,0xff,0xff,0xff,0xff,0xff,0x03,0xdb,0xb6,0xab,
 0xaa,0xaa,0xaa,0x94,0xaa,0x56,0xab,0xa2,0x2a,0x15,0x54,0x41,0xea,0xff,0xff,
 0xff,0xff,0xff,0xff,0xff,0xff,0xff,0xff,0xff,0xff,0xff,0xff,0xff,0xff,0xff,
 0x03,0xbe,0xef,0xfe,0xdd,0xfd,0x6d,0xef,0xfd,0xfb,0xb6,0x54,0xd5,0x4a,0x92,
 0x90,0xfa,0xef,0xff,0xff,0xff,0xff,0xff,0xff,0xff,0xff,0xff,0xff,0xff,0xff,
 0xff,0xff,0xff,0xff,0x03,0xd5,0xda,0x55,0x6b,0xab,0xd6,0x5a,0x4b,0xad,0xad,
 0x4a,0x2a,0x95,0xa4,0x06,0x40,0xb5,0xaa,0xaa,0xaa,0xaa,0xaa,0xad,0xaa,0xaa,
 0xda,0xff,0xb6,0xdd,0xdd,0xfb,0xff,0xff,0x03,0xb6,0xb6,0xb6,0xb6,0x6d,0xbb,
 0xd6,0xf6,0xee,0x56,0x55,0xd5,0xaa,0xaa,0x52,0xaa,0x7e,0xf7,0xdd,0x7d,0xef,
 0xff,0xfb,0xff,0xff,0xff,0xdb,0xff,0xff,0xff,0xff,0xff,0xff,0x03,0xdb,0x6d,
 0xdb,0x6d,0xdb,0xd6,0xbd,0xad,0xb5,0x5d,0x55,0x25,0x55,0x91,0x24,0x40,0xd5,
 0xad,0xbb,0xab,0xb5,0xaa,0x56,0x55,0x55,0x55,0x6d,0x55,0x55,0x55,0x55,0x55,
 0x55,0x03,0x6d,0xb5,0xb5,0xb6,0xad,0xb5,0xd6,0x6a,0x5b,0xeb,0x2a,0xd5,0xaa,
 0x4a,0x95,0x00,0x7d,0xdb,0xd6,0xf6,0xdd,0xb6,0xed,0xb6,0xfb,0xbf,0xbb,0xbf,
 0x77,0xb7,0x6d,0xdb,0xed,0x02,0xd5,0x56,0x6b,0xad,0xba,0x6e,0xb5,0xde,0x76,
 0xad,0x55,0x95,0x2a,0x95,0x4a,0x02,0xd0,0xbd,0xbd,0xad,0xb6,0x6d,0xb7,0xdd,
 0x56,0xd5,0xd6,0xd4,0xda,0xda,0xb6,0x6d,0x5b,0x03,0x76,0xdb,0xdd,0xd6,0xae,
 0xb5,0x6f,0x6b,0xad,0xb7,0x5a,0x55,0x55,0x49,0x29,0x09,0xed,0x6e,0x6b,0xdb,
 0x6d,0xdb,0xda,0xb6,0xdd,0x76,0x7b,0x6f,0xad,0x6e,0xdb,0xb6,0xed,0x02,0x5b,
 0xad,0xaa,0x6d,0xd5,0xaa,0xd4,0xda,0x56,0x6d,0xb7,0xaa,0xaa,0x12,0xaa,0x00,
 0x50,0xdb,0xee,0x6e,0xdb,0xb6,0xb7,0x6d,0x6b,0xad,0xd5,0xda,0xfb,0xb5,0xb5,
 0x6d,0x5b,0x03,0xd5,0x76,0x77,0xb5,0x6b,0x77,0x77,0x57,0xeb,0xd5,0xaa,0x55,
 0x55,0x55,0x25,0x05,0xd0,0xb6,0x5b,0xdb,0xb6,0xed,0xda,0xb6,0xb6,0x6b,0xbd,
 0xb6,0x56,0x6d,0xdd,0xb6,0xed,0x02,0xad,0xd5,0xaa,0xab,0xb6,0xda,0xaa,0xba,
 0xb6,0xb6,0x6d,0x55,0x55,0xa5,0xa8,0x28,0x48,0xdb,0xf6,0xb6,0xed,0xb6,0xad,
 0xed,0xda,0xde,0x6b,0xad,0xaa,0xdb,0xb6,0x6d,0x5b,0x01,0xdb,0x5a,0x6d,0xdd,
 0xda,0x56,0xbb,0xad,0x5b,0xad,0xb6,0xb6,0x55,0x95,0x2a,0x05,0xa0,0x76,0x5b,
 0x6d,0x5b,0x5b,0xeb,0xb6,0x6e,0x6b,0xad,0x6b,0x77,0x55,0x5b,0xb5,0xb5,0x03,
 0xb6,0xb7,0xdb,0x6a,0xab,0x6d,0xd5,0x6a,0xb5,0x75,0x6d,0x7b,0xab,0x54,0xa2,
 0x2a,0x80,0xdd,0xb6,0xdb,0xf6,0x76,0x5d,0xd5,0xaa,0xaa,0x5a,0xdd,0xaa,0x6d,
 0xb5,0xab,0x6e,0x01,0xab,0x5a,0x6d,0xb7,0xdd,0xb6,0xb6,0xb6,0x5a,0x5b,0xb7,
 0xdd,0xad,0x2a,0x55,0x09,0x82,0xb6,0xdd,0xb6,0xad,0xad,0xab,0x7b,0xdb,0xdd,
 0xed,0xab,0x7d,0xdb,0x6e,0xdd,0xd5,0x02,0x5a,0x65,0x55,0x55,0xb5,0x6a,0x6b,
 0x6b,0x6b,0xed,0x6a,0xff,0xb7,0x52,0x00,0x52,0x08,0xd4,0x6a,0x6d,0x5b,0x5b,
 0xbd,0xa6,0xb6,0xaa,0x56,0xb6,0xca,0xb6,0xd5,0xb6,0xae,0x01,0xd5,0xba,0xb6,
 0x6a,0xab,0xb6,0xba,0xb6,0xb6,0xab,0xb6,0xff,0xaf,0x2a,0x55,0x55,0x80,0x7a,
 0xb7,0xb7,0xd5,0xd6,0x6b,0x7b,0xdb,0xee,0xb5,0x6d,0xb7,0xda,0x76,0xab,0xf5,
 0x02,0x55,0xa5,0xaa,0x5a,0x55,0x55,0xa5,0xaa,0x55,0xad,0xea,0xff,0x7f,0x95,
 0x00,0x80,0x12,0xa8,0x6d,0x6d,0x6f,0xbd,0xd6,0xaa,0xb5,0x55,0x6f,0xdb,0xda,
 0xb5,0x5a,0x6d,0xab,0x01,0xaa,0x5a,0x55,0xab,0xaa,0x56,0xbb,0x55,0x55,0xb5,
 0xb5,0xff,0xdf,0x55,0x04,0xa0,0x00,0xe2,0xb6,0xb5,0xda,0xd6,0xba,0xdd,0xda,
 0x7a,0xd5,0x6a,0xad,0x5a,0xd7,0xb6,0xb5,0x02,0x55,0xd5,0x6a,0x55,0x6d,0xb5,
 0x4a,0x6d,0x6d,0x55,0xed,0xff,0xff,0xbf,0x13,0x00,0x00,0x80,0xad,0xd6,0xaa,
 0x55,0xab,0xaa,0x55,0xcb,0x5a,0xd7,0xda,0xb5,0x5a,0x6b,0x5b,0x03,0xda,0xaa,
 0x56,0xd5,0xaa,0x55,0xb5,0xaa,0xaa,0xad,0xf6,0xff,0x7f,0xef,0x4a,0x02,0x00,
 0xa0,0xd6,0x6d,0xdb,0xb6,0x6d,0xd7,0xb6,0xb5,0xd6,0x5a,0xaf,0xde,0xed,0x5a,
 0xad,0x01,0x55,0x55,0x55,0x55,0x55,0xaa,0xaa,0x55,0xab,0x6a,0xfd,0xff,0xff,
 0xff,0xb7,0x15,0x00,0x00,0xba,0x5a,0xb5,0x6a,0x55,0xad,0xaa,0x56,0xad,0xaa,
 0x68,0xa9,0xaa,0x56,0x55,0x01,0x55,0xad,0xaa,0xaa,0xaa,0x6d,0xab,0x6a,0x6d,
 0x55,0xeb,0xff,0xff,0xff,0x5b,0x4a,0x00,0x00,0xad,0xad,0x5b,0xad,0xb6,0xd5,
 0xd6,0x6a,0x6b,0x6d,0xaf,0x56,0xad,0x6a,0xdb,0x02,0xaa,0xaa,0x5a,0x55,0x55,
 0x55,0xb5,0x56,0x55,0xab,0xfe,0xff,0xff,0xfd,0x7f,0x55,0x0b,0x00,0x78,0x5b,
 0xd5,0x5a,0x55,0xb5,0x5a,0xad,0xaa,0x55,0x59,0x55,0x6b,0x55,0x55,0x01,0xb5,
 0x55,0x6b,0xab,0xaa,0xaa,0xaa,0x5a,0x55,0x6d,0xfb,0xff,0xff,0xff,0xaf,0xab,
 0x04,0x00,0xaa,0xed,0x6e,0xab,0x6d,0x5b,0xd5,0x56,0xb5,0xda,0xaa,0x6d,0x55,
 0x5b,0xab,0x02,0x56,0x6d,0x95,0xda,0x6d,0xa5,0x56,0xa5,0x6a,0x55,0xfd,0xaf,
 0xfe,0xff,0xff,0x02,0x78,0x01,0xa0,0xaa,0x55,0x6d,0x55,0xd5,0x55,0xb5,0x55,
 0xab,0x56,0xd5,0x5a,0x55,0x6d,0x01,0x55,0x55,0xd5,0x6a,0xab,0x95,0xaa,0x6a,
 0x5b,0x55,0xff,0xff,0xfb,0xdf,0x7f,0x15,0x45,0x00,0xa0,0xdf,0xda,0xb6,0xb6,
 0x56,0x6d,0x5b,0x6d,0x6d,0xd5,0xaa,0x6a,0x6b,0xb5,0x02,0xaa,0xaa,0xaa,0xbe,
 0xbf,0x02,0xb5,0xad,0xaa,0xda,0xfe,0xb7,0xee,0xfa,0xdf,0x0b,0x80,0x0a,0x00,
 0xb5,0xb6,0xd5,0x6a,0xb5,0x5a,0xd5,0xaa,0xaa,0x5a,0x5b,0xab,0x5a,0xab,0x01,
 0x6d,0x55,0xb5,0xd5,0xd5,0x41,0xaa,0xaa,0xaa,0xad,0xfe,0xef,0xfb,0xff,0x7f,
 0x2d,0x40,0x01,0x40,0x55,0xab,0x5a,0x5b,0xdb,0x56,0x55,0x5b,0xab,0x6d,0x55,
 0xad,0xaa,0xaa,0x02,0xaa,0xaa,0xd6,0xbf,0xbe,0x10,0xa8,0x6a,0xab,0xaa,0xfb,
 0xbe,0xae,0xef,0x2b,0x12,0x00,0x48,0x00,0xed,0xb6,0xb5,0xaa,0xaa,0x6a,0x5b,
 0xd5,0x5a,0x55,0xb5,0x6a,0xab,0x55,0x01,0x55,0xad,0xba,0xea,0x6b,0x83,0x52,
 0xad,0x6a,0xb5,0xfe,0xff,0xfb,0xfd,0x5f,0x89,0x00,0x00,0x00,0xb6,0xda,0xd6,
 0xb6,0xad,0xb6,0xd5,0x6a,0xd5,0xaa,0xad,0x55,0xb5,0xda,0x02,0xaa,0xaa,0xf5,
 0x2d,0x55,0x00,0x40,0x5b,0xad,0x6a,0xbb,0xad,0xb6,0xb7,0x2a,0x00,0x00,0x90,
 0x02,0xd5,0x56,0xad,0x6a,0x75,0x55,0xb6,0xad,0x56,0xab,0xaa,0xaa,0xaa,0xaa,
 0x02,0x55,0xb5,0x5a,0xdb,0xed,0x49,0x95,0x6a,0xab,0x56,0xfd,0xff,0xdd,0xfd,
 0x1d,0x00,0x90,0x00,0x00,0xba,0xb5,0xb5,0xad,0x96,0xad,0xab,0xaa,0xaa,0x5a,
 0x55,0x6d,0xad,0xaa,0x02,0x6d,0xab,0xb7,0x36,0x55,0x02,0x20,0xa8,0x6a,0x55,
 0xab,0xad,0x77,0xbf,0x62,0x01,0x55,0x00,0x00,0x68,0x6b,0xab,0x5a,0x6d,0x55,
 0xaa,0x5a,0x5b,0xd5,0xda,0xaa,0xd5,0xb6,0x02,0x55,0xd5,0xda,0x5b,0xb5,0x09,
 0x14,0x54,0x5b,0xab,0xf5,0xff,0xba,0xed,0x1d,0x00,0x08,0x00,0x48,0x54,0x5d,
 0xb5,0xad,0xb5,0xb6,0x5b,0xab,0xd5,0xb6,0x56,0xab,0xaa,0xaa,0x01,0xaa,0x2a,
 0x55,0xaa,0xaa,0xaa,0xc0,0x80,0x56,0x6d,0x56,0xd5,0xd7,0x3e,0x40,0x41,0x01,
 0x00,0x00,0xd0,0xaa,0xad,0x6a,0x55,0x55,0xd5,0x6a,0xaa,0xaa,0xaa,0x5a,0x55,
 0x55,0x01,0x55,0xd5,0xb6,0x55,0x55,0x55,0x20,0x42,0xd5,0xaa,0x6b,0x7f,0xfd,
 0xd7,0x42,0x05,0x24,0x09,0x00,0x68,0xdb,0xd6,0x56,0xad,0x6d,0x55,0xad,0x6d,
 0x55,0xd5,0x6a,0xdb,0xb6,0x02,0x88,0x88,0x4a,0x22,0xa9,0xaa,0x85,0x04,0x54,
 0x55,0xaa,0xda,0x57,0x5f,0x00,0x02,0x09,0x00,0x00,0xe0,0xb6,0xb5,0xda,0x5a,
 0xd5,0xb6,0xaa,0xaa,0x6d,0x5b,0x55,0x55,0x55,0x01,0x55,0x65,0xb5,0xaa,0x5a,
 0x55,0x15,0x11,0xaa,0xaa,0xd5,0xfe,0xfa,0x35,0x41,0x41,0x00,0x00,0x00,0x90,
 0xd5,0x5a,0xad,0xd6,0x56,0xab,0x55,0xab,0xaa,0xaa,0xaa,0xaa,0xda,0x02,0x12,
 0x89,0x4a,0x92,0x54,0x25,0x55,0x44,0x40,0x55,0x2a,0xfb,0xef,0x4f,0x80,0x04,
 0x11,0x00,0x00,0x40,0x5b,0x6b,0x6b,0xb5,0x5a,0x55,0xdb,0x5a,0x55,0xb5,0x6d,
 0xab,0xa6,0x01,0xa9,0x54,0x29,0x55,0xaa,0xda,0xaa,0x12,0x80,0xaa,0xaa,0x6d,
 0xbb,0x3e,0x00,0x22,0x04,0x00,0x00,0x40,0x6d,0xad,0xb5,0x56,0x6b,0x6d,0x55,
 0xd5,0xb6,0xad,0xaa,0xda,0x6a,0x02,0xa2,0x12,0x45,0xa2,0xaa,0x2a,0x55,0x55,
 0x09,0x54,0x55,0xfa,0xef,0x0b,0x80,0x00,0x00,0x01,0x00,0x00,0xaa,0xaa,0x4a,
 0xa9,0x94,0xaa,0xaa,0xaa,0xaa,0x52,0x55,0x55,0x55,0x01,0x29,0xa9,0x52,0x55,
 0x54,0x55,0x55,0x15,0x02,0xaa,0xaa,0xad,0x7b,0x57,0x00,0x92,0x00,0x00,0x48,
 0x00,0x55,0x55,0xb5,0x56,0x6b,0x55,0x55,0x55,0x55,0xad,0xaa,0xaa,0xaa,0x02,
 0x92,0x44,0x14,0x82,0xa9,0xaa,0xaa,0xaa,0x08,0x40,0x29,0xd5,0xee,0x05,0x00,
 0x00,0x44,0x00,0x00,0x00,0xac,0xaa,0x4a,0xa9,0x94,0xaa,0xaa,0xaa,0xaa,0x54,
 0x55,0x55,0x55,0x01,0x4a,0x2a,0xa5,0x69,0x54,0xd5,0xaa,0xaa,0x52,0x90,0xaa,
 0xaa,0x7f,0x17,0x08,0x48,0x00,0x20,0x02,0x00,0x52,0x55,0x55,0x95,0xaa,0x4a,
 0xaa,0xaa,0x54,0xa5,0xaa,0x2a,0x29,0x01,0x54,0x49,0x49,0x8a,0x22,0x55,0x55,
 0x55,0x95,0x04,0x40,0x6a,0xf5,0x01,0x00,0x04,0x00,0x00,0x50,0x21,0xa8,0xaa,
 0xaa,0xaa,0xaa,0xaa,0x4a,0x29,0xa5,0x4a,0x49,0x52,0x52,0x01,0x92,0xa4,0x94,
 0x52,0x9a,0x54,0x55,0x55,0x55,0x21,0x2d,0x95,0xde,0x07,0x00,0xa0,0x04,0x00,
 0x20,0x00,0xd0,0x56,0x55,0x55,0x55,0x55,0x55,0x55,0x55,0xaa,0xaa,0x4a,0xad,
 0x02,0x4a,0x49,0x52,0xa4,0x24,0xa9,0xaa,0x54,0x55,0x15,0x92,0x68,0xe9,0x00,
 0x80,0x0a,0x00,0x44,0x44,0x05,0x28,0x55,0x55,0x55,0x95,0xaa,0xaa,0x4a,0xa9,
 0x54,0xaa,0xaa,0x92,0x00,0xa4,0x94,0x2a,0x95,0x92,0x4a,0x55,0x55,0x55,0x45,
 0x55,0x92,0xfe,0x21,0x40,0x54,0x01,0x00,0x20,0x01,0xa0,0x55,0x55,0x55,0x55,
 0x55,0xa5,0x54,0x95,0xaa,0xaa,0x54,0xaa,0x02,0x09,0x29,0x91,0x24,0x25,0x29,
 0x55,0x55,0x29,0x15,0x54,0xe5,0xbb,0x00,0xa0,0x52,0x08,0x10,0x81,0x04,0xa1,
 0xaa,0xaa,0xaa,0x54,0xa9,0x2a,0x95,0xaa,0x92,0x92,0xaa,0x54,0x01,0x64,0xa5,
 0xaa,0x52,0xa9,0x4a,0xa9,0x2a,0x95,0xaa,0xaa,0xa8,0x7e,0x81,0x10,0x2a,0x42,
 0x02,0x20,0x11,0x48,0x55,0x55,0x55,0x55,0x95,0x54,0x55,0xa9,0xaa,0xaa,0x4a,
 0x25,0x01,0x89,0x14,0x42,0x8a,0x94,0x90,0x44,0xd2,0xaa,0x54,0x51,0x4b,0x77,
 0x2a,0x68,0x49,0x01,0x20,0x02,0x46,0xa0,0xaa,0xaa,0x94,0xaa,0xaa,0xaa,0x52,
 0x4a,0xaa,0x54,0xa9,0xaa,0x02,0x54,0x49,0x29,0x55,0x4a,0x56,0xaa,0x2a,0x55,
 0x4a,0x55,0xa9,0x7f,0x01,0x02,0x55,0x14,0x88,0x80,0x14,0x00,0x55,0x55,0x55,
 0x55,0x55,0x55,0x55,0x55,0xa5,0xaa,0x2a,0x55,0x01,0x92,0x52,0x55,0xa8,0xa4,
 0x48,0x49,0x4a,0x55,0xb5,0x4a,0x2b,0x15,0xaa,0x54,0xa2,0x42,0x00,0x00,0x12,
 0x64,0x55,0x29,0xa5,0x4a,0xaa,0xa4,0x54,0x55,0x99,0x92,0xaa,0x24,0x01,0x55,
 0x24,0x49,0x95,0x2a,0x55,0x2a,0xa9,0xaa,0x4a,0x55,0x55,0x6d,0x11,0xaa,0x2a,
 0x29,0x22,0x15,0x28,0x80,0xaa,0x56,0x55,0x55,0x49,0x55,0x55,0x25,0x55,0x55,
 0xa5,0xaa,0x02,0x48,0x49,0x92,0x22,0x91,0xa2,0xa4,0x92,0xa8,0x52,0xa5,0xaa,
 0x2a,0xaa,0x52,0x55,0x95,0x00,0x00,0x41,0x28,0x55,0xa9,0xaa,0x54,0x55,0x2a,
 0xa5,0x54,0xa5,0x2a,0xa9,0x52,0x01,0x55,0xaa,0xaa,0x94,0xaa,0x14,0x55,0x55,
 0xa6,0xaa,0x2a,0x55,0x55,0x45,0x49,0x4a,0x2a,0x90,0x04,0x28,0x82,0xaa,0xaa,
 0xaa,0x52,0x55,0xa5,0xaa,0xaa,0xaa,0x54,0x55,0x2a,0x01,0x22,0x11,0x11,0x29,
 0x42,0xa9,0x88,0xa4,0x29,0x55,0x55,0xb5,0x8a,0x94,0xaa,0x54,0x51,0x01,0xd0,
 0x55,0x54,0x54,0x55,0x55,0x95,0xaa,0xaa,0xaa,0x92,0x54,0xa5,0x4a,0x55,0x01,
 0x94,0xaa,0xaa,0x4a,0xa9,0x94,0x56,0x52,0x56,0x55,0x55,0x55,0x69,0xaa,0x94,
 0xaa,0x2a,0x54,0x45,0xa5,0x12,0x55,0x95,0x2a,0x55,0x95,0xaa,0x52,0xaa,0x2a,
 0x55,0xa9,0xaa,0x02,0x49,0x12,0x22,0xa4,0x4a,0x22,0x51,0x45,0xa9,0x88,0x54,
 0xa5,0x8b,0x28,0x29,0x25,0x49,0x01,0x68,0x01,0xa8,0x2a,0x55,0xa9,0xaa,0xa4,
 0x54,0x95,0xaa,0xa4,0x24,0x55,0x49,0x00,0x24,0x49,0x95,0x2a,0xa9,0xaa,0x94,
 0x34,0xad,0xa6,0xaa,0xaa,0x54,0x4a,0xa5,0xaa,0x92,0x48,0xa5,0x63,0xa5,0xa4,
 0x4a,0x55,0x95,0xaa,0x2a,0x55,0x95,0xaa,0xaa,0x2a,0x55,0x03,0x55,0xaa,0xa8,
 0x50,0x12,0x95,0x2a,0x45,0x51,0x55,0x92,0xaa,0x2a,0x91,0x48,0x92,0x54,0x12,
 0xd0,0x02,0x80,0xaa,0x32,0x55,0x55,0x55,0xa5,0xaa,0x24,0x95,0xaa,0x52,0xaa,
 0x00,0x29,0x25,0x25,0x8d,0xaa,0x48,0x49,0x55,0x2d,0x55,0xa9,0x54,0x55,0x55,
 0x55,0x55,0x25,0x45,0xd5,0xa5,0x2a,0xa9,0xaa,0x4a,0xaa,0x2a,0x55,0x25,0x55,
 0xa5,0x94,0xaa,0x4a,0x02,0x52,0x94,0x94,0x52,0x44,0x95,0x92,0x94,0x44,0x92,
 0x4a,0x89,0xaa,0x4a,0x52,0x25,0x49,0x0a,0xd0,0x01,0x00,0x55,0x55,0x55,0x29,
 0x55,0x95,0x54,0xa9,0x54,0xa5,0x54,0xa9,0x02,0x89,0x4a,0x4a,0x29,0x53,0x4a,
 0x54,0xa5,0x52,0x55,0x25,0x55,0x55,0x52,0x95,0xaa,0x52,0x51,0x65,0x0b,0x45,
 0x2a,0x55,0x55,0xd5,0xa4,0xaa,0xaa,0xaa,0xaa,0x54,0x95,0x2a,0x01,0x2a,0x51,
 0x11,0x52,0x94,0x50,0x49,0x4a,0x55,0x4a,0xaa,0x28,0xa9,0x4a,0x55,0x2a,0x25,
 0xa5,0xf4,0x45,0x82,0x54,0x29,0xa9,0x4a,0x55,0x52,0x25,0x25,0x49,0xa9,0x52,
 0x52,0x02,0xa4,0x2a,0xca,0x4a,0xa5,0x2a,0xa5,0x52,0x4a,0xa5,0x12,0x95,0x54,
 0x55,0x4a,0x55,0x95,0x2a,0xaa,0x8b,0x2a,0x55,0x55,0x55,0xaa,0x4a,0x55,0xaa,
 0x54,0x55,0x56,0xaa,0xaa,0x01,0x49,0xa4,0x12,0x29,0x49,0x52,0x95,0xa4,0x94,
 0x54,0xaa,0xa2,0x22,0xa9,0xaa,0xa4,0x2a,0x44,0xd1,0x10,0xed,0xae,0x52,0xa5,
 0x92,0x54,0xa5,0x54,0x55,0xa5,0xa8,0x92,0x24,0x02,0x92,0x2a,0xa9,0x94,0xaa,
 0x2a,0x49,0x55,0xaa,0x2a,0xa5,0x94,0x54,0x55,0x55,0x55,0x49,0x53,0xea,0x47,
 0xb5,0x5b,0x55,0x95,0xaa,0xaa,0x54,0x95,0x2a,0xa9,0x96,0xaa,0xaa,0x01,0x24,
 0x41,0x52,0x21,0x12,0x91,0x94,0xa4,0x24,0xc9,0x94,0xaa,0x4a,0x92,0xa4,0xaa,
 0x2a,0x94,0x54,0x29,0xed,0x7e,0x25,0xa9,0x54,0x49,0x25,0x29,0x49,0x95,0x52,
 0x52,0x95,0x02,0x55,0x5a,0x25,0x55,0xa5,0xaa,0x52,0x92,0x52,0x55,0xaa,0x52,
 0xaa,0xaa,0xaa,0xaa,0xaa,0xaa,0xea,0x46,0xb5,0xd7,0xaa,0xaa,0xaa,0x2a,0x55,
 0x55,0x55,0x55,0xa9,0xaa,0xa4,0x00,0xa2,0x24,0x49,0x4a,0x4a,0x44,0x4a,0x55,
 0x4a,0x92,0x52,0xa5,0xaa,0xaa,0x2a,0x55,0x55,0xa5,0xd2,0x29,0xff,0x3d,0x54,
 0x55,0x25,0x55,0xa9,0x52,0x52,0x52,0x95,0x4a,0x29,0x01,0x54,0x92,0x54,0xa5,
 0x24,0x55,0xa9,0x94,0x2a,0x55,0x29,0x99,0x52,0x95,0xaa,0xaa,0x4a,0x2a,0xb5,
 0xa6,0x6a,0x2f,0xa8,0x2a,0x55,0x55,0x25,0x95,0x2a,0x95,0x54,0xa9,0xaa,0x02,
 0x82,0x4a,0x22,0x48,0xa9,0x88,0x92,0x52,0xa4,0xa4,0x4a,0xa5,0x94,0x24,0x55,
 0x49,0x55,0xa9,0xea,0xd2,0xfd,0x05,0xa8,0xaa,0xaa,0xaa,0xaa,0x54,0x55,0xa9,
 0x52,0x4a,0xaa,0x00,0xb5,0xa4,0x4a,0xab,0x94,0x6a,0x4a,0x49,0x55,0x55,0xaa,
 0xaa,0xaa,0xaa,0x2a,0x55,0x55,0x55,0x75,0x55,0xb7,0x03,0x50,0x55,0x55,0x95,
 0x94,0x4a,0x49,0x55,0x4a,0x55,0x95,0x02,0x48,0x92,0x94,0x44,0x22,0x85,0x94,
 0xaa,0x2a,0x95,0x92,0x54,0x55,0x55,0x52,0x55,0xaa,0x4a,0xad,0xfd,0x5e,0x00,
 0xa8,0x52,0x92,0x54,0x55,0x55,0x55,0x92,0xaa,0x94,0x52,0x01,0x25,0x55,0x25,
 0xa9,0xaa,0xb2,0x52,0x24,0x49,0xa5,0xaa,0x4a,0x92,0xaa,0xaa,0x52,0x55,0x55,
 0xf5,0xaa,0x3b,0x00,0x50,0xad,0xaa,0xaa,0x2a,0xa9,0x54,0x55,0xa5,0x52,0x55,
 0x01,0x4a,0x04,0x52,0x12,0x49,0x44,0x4a,0x49,0xa5,0x54,0xa5,0x52,0x55,0x49,
 0x95,0xaa,0x2a,0x95,0xaa,0xdf,0x07,0x00,0x40,0x55,0x55,0x25,0xa9,0x92,0x92,
 0xaa,0x94,0xaa,0x8a,0x02,0x24,0x69,0x49,0xa9,0x24,0x35,0xa5,0xaa,0x54,0x4a,
 0x52,0xaa,0xaa,0xaa,0x52,0xaa,0xaa,0x6a,0xf5,0xea,0x0a,0x00,0x90,0xaa,0xaa,
 0xaa,0x4a,0x55,0x55,0x49,0x55,0x95,0x64,0x01,0x49,0x95,0x2a,0x45,0x49,0x49,
 0x2a,0x29,0x49,0xa9,0xac,0x4a,0x52,0x2a,0xa5,0x4a,0x55,0x95,0xae,0xbb,0x01,
 0x00,0x00,0x54,0x55,0x55,0x55,0x2a,0x55,0x2a,0xa5,0x52,0x95,0x02,0xaa,0xa2,
 0x44,0x29,0xaa,0x52,0x49,0x95,0xaa,0x2a,0x23,0x55,0x95,0xaa,0xaa,0xaa,0xaa,
 0x6a,0xf5,0xed,0x01,0x00,0x00,0x6c,0x55,0x55,0x55,0x55,0xa5,0xaa,0x54,0xaa,
 0x54,0x01,0x10,0x8a,0x12,0x52,0x11,0x8a,0x92,0x28,0x49,0x52,0x4c,0x52,0x55,
 0xa5,0x94,0x54,0x55,0x55,0x5b,0x7f,0x00,0x00,0x00,0x80,0x55,0x55,0x4a,0x49,
 0x4a,0xa5,0xaa,0x24,0x25,0x02,0xaa,0x52,0x54,0x95,0x54,0xa5,0x54,0xa5,0xaa,
 0x4a,0xb3,0xaa,0xaa,0xaa,0xaa,0x52,0xaa,0xaa,0xf6,0xfa,0x01,0x00,0x00,0x40,
 0x55,0x55,0x55,0x55,0x55,0x95,0x92,0xaa,0xaa,0x01,0x22,0xa9,0x52,0x52,0x22,
 0x29,0x49,0x4a,0x92,0x94,0x44,0x25,0x25,0x55,0xa5,0xaa,0x52,0xf5,0xaf,0x2f,
 0x00,0x00,0x00,0xb0,0xaa,0xaa,0x2a,0x95,0x92,0x54,0x55,0x55,0x55,0x02,0x54,
 0x4a,0x24,0x29,0x55,0x4a,0x95,0x52,0xa9,0x52,0xb5,0xaa,0xaa,0x92,0xaa,0x4a,
 0x55,0xad,0xfa,0xf5,0x00,0x00,0x00,0x48,0x55,0x55,0xa5,0x52,0x55,0x25,0xa9,
 0x92,0x24,0x01,0x89,0x90,0x4a,0x45,0x4a,0x91,0x24,0x95,0x4a,0x2a,0x49,0x52,
 0xaa,0xaa,0x54,0x55,0xea,0xff,0x7f,0x4f,0x00,0x00,0x01,0xb5,0xaa,0x2a,0xa9,
 0x54,0xaa,0xaa,0x92,0x54,0xa9,0x02,0x52,0x4d,0x51,0x52,0x91,0x54,0xaa,0x54,
 0xa5,0xaa,0xaa,0x4a,0x55,0x55,0x55,0x55,0xb5,0xf6,0xff,0xb5,0x01,0x00,0x00,
 0x4a,0x55,0x55,0x95,0x4a,0x25,0xa9,0xaa,0x2a,0x55,0x01,0x8a,0x10,0x25,0x25,
 0x25,0xa5,0xa4,0x92,0x94,0xa4,0x92,0x54,0x51,0x55,0xa9,0xaa,0xfa,0xff,0x5b,
 0xad,0x00,0xa0,0xd2,0xaa,0xaa,0xa4,0xaa,0x2a,0x49,0x92,0x54,0xa5,0x4a,0x02,
 0x52,0xaa,0x94,0x52,0xa9,0x52,0x2a,0x49,0x55,0x55,0xaa,0x2a,0xad,0x54,0x55,
 0x55,0xad,0x7f,0xff,0xb6,0x00,0x80,0x60,0x55,0x55,0x55,0xa5,0xa4,0xaa,0x55,
 0x95,0x94,0x52,0x01,0xa4,0xa2,0x52,0x44,0x92,0x44,0x91,0x2a,0x52,0x4a,0x25,
 0x55,0x91,0x4a,0xa5,0xaa,0xff,0xed,0x55,0xa5,0x02,0xb0,0xd6,0xaa,0x92,0x2a,
 0x2a,0x55,0x12,0x2a,0x29,0x55,0x2a,0x01,0x12,0x29,0x89,0x2a,0x29,0x55,0x4a,
 0x92,0xa9,0xaa,0x54,0xa5,0x56,0x55,0x55,0x55,0xfd,0x7f,0xbf,0xab,0x00,0x48,
 0xe9,0x2a,0x55,0xa5,0xaa,0x4a,0xd5,0x95,0x4a,0xa5,0xaa,0x02,0xaa,0x44,0x52,
 0x52,0x4a,0x92,0x52,0x29,0x92,0x24,0x55,0x2a,0xa9,0x52,0xaa,0x4a,0xf7,0x95,
 0xd4,0x56,0x02,0xb4,0xb6,0x55,0xa5,0x54,0x51,0xa9,0x2a,0x52,0x55,0x49,0x51,
 0x02,0x44,0x2a,0x29,0x89,0x52,0xa9,0x54,0xca,0xaa,0xaa,0x4a,0x55,0x55,0x55,
 0x55,0xa9,0xfe,0x5f,0x6b,0xab,0x00,0xaa,0xda,0xaa,0x54,0x55,0x95,0x54,0x92,
 0x4a,0x49,0x35,0x4d,0x01,0x92,0xa4,0xa4,0x52,0x8a,0x12,0x89,0x92,0x24,0x49,
 0xa9,0xa4,0x24,0x55,0x29,0x55,0xad,0xaa,0xda,0x0e,0x82,0x56,0x55,0x49,0x95,
 0x22,0x55,0xa5,0xaa,0x54,0x2a,0x49,0x92,0x02,0x55,0x49,0x12,0xa9,0x22,0x49,
 0xa5,0x54,0x95,0xaa,0x54,0x95,0xaa,0xaa,0xaa,0xaa,0xfa,0x5f,0x55,0x57,0x21,
 0x55,0x6b,0x53,0x55,0xaa,0xaa,0x2a,0x55,0x55,0x55,0x55,0x55,0x01,0x88,0x92,
 0xaa,0x44,0x54,0x2a,0x29,0x49,0x52,0x95,0x92,0xaa,0x52,0x49,0x55,0x55,0x95,
 0xea,0xea,0x16,0xc4,0x5a,0x95,0x54,0x52,0x55,0x92,0x54,0x22,0x89,0xa4,0xaa,
 0xa4,0x00,0xa5,0xa8,0x44,0xaa,0x2a,0xa5,0x54,0x55,0x55,0x49,0x55,0x55,0xaa,
 0xaa,0xaa,0xaa,0xea,0x5e,0xab,0x1d,0xa1,0x6a,0xad,0x49,0x55,0x95,0xaa,0x92,
 0xaa,0x6a,0x95,0x24,0x55,0x02,0x12,0x45,0x92,0x84,0x90,0x48,0x25,0x89,0x44,
 0xaa,0x4a,0x52,0x95,0x52,0x4a,0x55,0x95,0x50,0xb4,0x17,0xb5,0x55,0xb5,0x50,
 0x25,0xa9,0x24,0x55,0x55,0x89,0x2a,0x49,0x49,0x01,0xa9,0x2a,0xa9,0x52,0xaa,
 0x2a,0x92,0xa4,0xaa,0x2a,0xa9,0x2a,0x55,0xaa,0xaa,0xaa,0x6a,0x4b,0xd5,0x3e,
 0xa8,0xaa,0xaa,0xa2,0xaa,0x4a,0x55,0xa9,0x24,0x55,0xd2,0xaa,0x2a,0x01,0x44,
 0x50,0x45,0x94,0x42,0x52,0x55,0x55,0x12,0x51,0x55,0x52,0xa9,0x4a,0x29,0x25,
 0x5d,0x01,0x50,0x8f,0xaa,0x6d,0x55,0x40,0xaa,0x94,0x92,0x4a,0xa9,0xaa,0x4a,
 0x55,0x52,0x01,0xaa,0x8a,0xa8,0x4a,0x29,0x25,0x49,0x2a,0x55,0x95,0x4a,0x95,
 0xaa,0x2a,0x55,0x55,0xdd,0x06,0xa8,0x3f,0xda,0xaa,0x55,0xa0,0x92,0xaa,0x54,
 0x2a,0x55,0x49,0xa5,0x24,0x55,0x01,0x10,0x55,0x12,0x91,0x94,0x94,0xa4,0x44,
 0xa2,0x2a,0xa9,0xaa,0x52,0x55,0x55,0xa9,0x6b,0x15,0x42,0x97,0xaa,0x56,0x2a,
 0x50,0x55,0xa9,0xaa,0x54,0x25,0x95,0x14,0x55,0x49,0x02,0xab,0x22,0xa5,0x54,
 0x4a,0x4a,0x52,0x52,0x29,0x49,0x55,0x52,0x2a,0x49,0x55,0xd5,0x5d,0x4b,0xd0,
 0x5e,0xb5,0xb5,0x55,0x21,0x55,0x95,0x4a,0xa5,0x94,0x52,0xd5,0x92,0x2a,0x01,
 0x44,0x94,0x94,0x92,0xa4,0x50,0x95,0xaa,0x4a,0xaa,0xa4,0xaa,0xaa,0xaa,0x92,
 0xba,0x56,0x15,0x81,0xbf,0x56,0xad,0x52,0x4d,0x49,0xaa,0x94,0x4a,0x55,0x2a,
 0x49,0x2a,0xa5,0x02,0x29,0x49,0x4a,0xa9,0x92,0x2a,0x49,0x49,0x52,0x55,0x2a,
 0x95,0x52,0x55,0x55,0xd5,0x57,0x6d,0x50,0x5e,0xeb,0xd6,0xaa,0xa2,0x2a,0x55,
 0xa5,0xaa,0x4a,0x95,0x2a,0xd5,0x54,0x01,0x44,0x92,0x10,0x42,0x2a,0x45,0x92,
 0x92,0xa4,0x48,0x55,0xa9,0x4a,0xaa,0xaa,0x56,0x0a,0xaa,0x8a,0x7f,0x2d,0x35,
 0x15,0x48,0x55,0x89,0x2a,0x29,0xa9,0xa8,0x54,0x09,0x29,0x01,0x2a,0xa9,0xca,
 0xaa,0x44,0xa9,0xaa,0x54,0x55,0xa6,0x92,0xaa,0xb4,0x2a,0x55,0xab,0x55,0xa9,
 0x40,0xdd,0xd6,0xd6,0x2a,0xa5,0xaa,0x6a,0x52,0x95,0xaa,0xa6,0x4a,0xd5,0x4a,
 0x01,0x50,0x45,0x12,0x15,0x29,0x12,0x11,0x49,0x92,0x28,0x55,0x52,0xa5,0xaa,
 0xaa,0x54,0x05,0x54,0x55,0x7f,0xb5,0xad,0x02,0x90,0x24,0x95,0x94,0x52,0x92,
 0x94,0x24,0x29,0x55,0x02,0x8a,0x28,0xa9,0xa4,0x4a,0xa9,0x54,0x25,0xa9,0x56,
 0xa9,0x2a,0x55,0x55,0x55,0x5b,0x55,0x51,0x21,0xfd,0x56,0x75,0x2d,0xa4,0xaa,
 0x52,0xab,0x54,0x55,0xa5,0xaa,0x4a,0x49,0x01,0x55,0x92,0x12,0x09,0x88,0x42,
 0x22,0xa9,0x92,0x48,0x52,0x55,0x95,0xa4,0xaa,0xa4,0x02,0x42,0x55,0xaf,0x6a,
 0x4b,0x91,0x00,0x25,0x25,0x54,0xa5,0x24,0x29,0x49,0x92,0x52,0x01,0x22,0xa5,
 0x48,0x55,0x53,0x28,0x95,0x4a,0xaa,0xaa,0x2a,0xa5,0x52,0x55,0x49,0x52,0xa9,
 0xa8,0x4a,0xfd,0xb5,0xb6,0x2a,0x8a,0xaa,0xaa,0x25,0x55,0x55,0x55,0x55,0x55,
 0x2a,0x01,0x94,0x14,0x55,0xa2,0xa4,0xaa,0x54,0x94,0x24,0x25,0xa5,0x4a,0xaa,
 0x2a,0x04,0x55,0x05,0x00,0xa9,0x7e,0x6d,0x55,0x85,0x00,0x54,0xa9,0x54,0x4a,
 0x2a,0xa5,0x92,0xaa,0x4a,0x01,0x49,0xa5,0x22,0x29,0x29,0x15,0x25,0xa3,0x52,
 0xa9,0x94,0x54,0x55,0x55,0x41,0xaa,0xa2,0xaa,0x4a,0x7f,0xab,0xad,0x2a,0x0a,
 0xaa,0x4a,0x55,0xa9,0x92,0x94,0x54,0x92,0x52,0x01,0x12,0x48,0x94,0x4a,0x92,
 0xa0,0x48,0x94,0x24,0xa5,0xaa,0xaa,0x4a,0x15,0x2a,0x80,0x0a,0x00,0xa8,0xfa,
 0x6d,0xab,0x04,0x29,0x24,0x55,0x4a,0x25,0x65,0xa9,0x4a,0x25,0x95,0x02,0xa4,
 0x95,0x4a,0x52,0x49,0x2a,0x55,0x55,0x55,0x29,0xa5,0xa4,0xaa,0xaa,0x80,0x52,
 0xa5,0x0a,0x55,0xff,0x5a,0x55,0xa3,0x04,0xaa,0x52,0xa5,0xaa,0x2a,0x55,0xa5,
 0x52,0xa9,0x00,0x4a,0x24,0x50,0x89,0x92,0x4a,0x92,0x88,0x88,0x52,0x2a,0x95,
 0x54,0x02,0x04,0x00,0x00,0x20,0xa8,0xee,0x6d,0x5b,0x4c,0x00,0x55,0x95,0x2a,
 0x49,0x4a,0x25,0x2a,0x95,0x92,0x02,0x91,0x52,0x2b,0x2a,0xa9,0x24,0x49,0x55,
 0x66,0x4a,0xa5,0xaa,0x4a,0x15,0x51,0x15,0xa9,0x8a,0xaa,0x7b,0xab,0x55,0xab,
 0x42,0xa8,0x54,0x55,0x55,0xa9,0x52,0xa9,0x54,0x4a,0x01,0x2a,0x89,0xa4,0xa4,
 0x44,0x52,0x92,0xa4,0x88,0x54,0xaa,0xa4,0xaa,0xa0,0x0a,0x40,0x00,0x00,0x6b,
 0xfd,0x56,0xa5,0x24,0x01,0x92,0x2a,0xa9,0xaa,0x52,0xaa,0x22,0x49,0x55,0x02,
 0x44,0x52,0x92,0x4a,0x2a,0x29,0x49,0x92,0xaa,0x4a,0x29,0x55,0x55,0x4a,0x50,
 0x15,0xaa,0xaa,0x5a,0xff,0xed,0x5a,0x95,0x08,0xa8,0x4a,0x95,0x24,0x95,0x4a,
 0xaa,0xaa,0x24,0x01,0xa9,0xa4,0x54,0x29,0x91,0x92,0x2a,0x25,0x29,0x29,0xa5,
 0x2a,0x29,0x00,0xa5,0xaa,0x02,0xd0,0xd6,0xda,0x5b,0xa5,0x2a,0x01,0xa9,0x54,
 0xaa,0x4a,0xa9,0x54,0x55,0x49,0xa9,0x02,0x24,0x12,0x4a,0x4a,0x4a,0x49,0x92,
 0x54,0x95,0xa4,0x54,0x49,0x95,0x4a,0x12,0xa4,0x54,0x4a,0xab,0x7e,0xab,0xaa,
 0xa4,0x00,0xa0,0xaa,0x49,0x55,0xa5,0x2a,0x49,0x2a,0x95,0x00,0x49,0x65,0x51,
 0x91,0x24,0x92,0xa4,0x92,0xa4,0x4a,0xa5,0xaa,0x42,0x20,0x40,0x00,0x00,0xfd,
 0xd6,0xf5,0xdf,0x2a,0x15,0x04,0x58,0x95,0x2a,0x29,0x95,0xa4,0xaa,0x54,0x2a,
 0x01,0x54,0x92,0xaa,0x54,0x92,0xaa,0x2a,0x49,0x2a,0x55,0x55,0xaa,0x2a,0x88,
 0x14,0x00,0x48,0xa9,0xb5,0xfe,0x6b,0x55,0x55,0x01,0xa0,0x52,0x55,0xa5,0xaa,
 0x52,0x95,0x4a,0xa5,0x02,0x22,0x49,0x44,0x49,0x25,0x11,0x91,0x54,0x51,0x12,
 0x49,0x29,0x11,0x01,0x00,0x00,0xa1,0x56,0x4a,0xb5,0x8f,0x52,0x55,0x08,0x50,
 0x55,0x52,0x95,0x24,0x15,0x52,0x92,0x94,0x00,0x95,0x24,0xa9,0x94,0xa8,0xaa,
 0x4a,0x25,0x4a,0xa9,0x2a,0xa5,0x04,0x00,0x00,0x22,0x40,0xab,0x6b,0xfd,0x75,
 0xa9,0xaa,0x02,0xa0,0x4a,0x95,0x54,0xaa,0xaa,0x49,0x55,0xa5,0x02,0x48,0x49,
 0x25,0x51,0x12,0x44,0x14,0x4a,0x95,0x52,0x54,0x55,0x02,0x04,0x52,0x55,0xaf,
 0x54,0x94,0x92,0x8a,0x26,0x15,0x24,0x80,0x54,0xa5,0x52,0x95,0x24,0xaa,0x24,
 0x49,0x00,0xa5,0x54,0x52,0x8d,0xca,0xaa,0xa2,0x51,0x49,0x2a,0xa5,0xaa,0x48,
 0xa1,0x44,0x92,0xa8,0x4a,0x6b,0xed,0xb6,0x52,0xc9,0x82,0xa0,0xaa,0x54,0x55,
 0xa5,0xaa,0x55,0xaa,0xaa,0x02,0x12,0x89,0x24,0x51,0x24,0x11,0x15,0x8a,0x52,
 0x49,0x95,0x04,0x00,0x4a,0xa9,0x54,0x25,0xa9,0xaa,0xaa,0x55,0xad,0x12,0x09,
 0x80,0x4a,0x95,0x24,0x2a,0x49,0x92,0x92,0x94,0x02,0xa9,0x54,0x95,0x94,0x52,
 0xaa,0xa4,0x52,0x94,0xa4,0x52,0xb5,0x52,0xa9,0x94,0x4a,0x55,0xa5,0xaa,0x56,
 0xaa,0x92,0x4c,0x52,0x00,0x35,0x55,0x55,0xa5,0x2a,0x49,0xaa,0x52,0x01,0x42,
 0x21,0x52,0x22,0x89,0x90,0x52,0x4a,0x29,0x55,0x4a,0x01,0x54,0x55,0x6b,0xb5,
 0xaa,0x2a,0x55,0xa9,0x55,0x55,0x95,0x00,0x81,0x52,0xa9,0x4a,0xa9,0xa4,0xaa,
 0x24,0x25,0x01,0x29,0x54,0x29,0x95,0x54,0x4a,0x94,0x24,0x95,0x2a,0x55,0x95,
 0xaa,0x5a,0x55,0x95,0x52,0x55,0xa5,0x56,0x56,0x55,0x55,0x55,0x00,0x4c,0x95,
 0xa4,0x2a,0x55,0xa9,0xaa,0x54,0x01,0x4a,0x85,0x44,0x52,0x49,0x95,0x22,0xa9,
 0x24,0x91,0x28,0x40,0x52,0xb5,0x56,0xb5,0x2a,0x92,0x54,0x55,0xa9,0xaa,0x2a,
 0x02,0x01,0x55,0x25,0x55,0x52,0x49,0x92,0xa4,0x92,0x02,0x51,0x69,0x52,0x49,
 0x52,0xa2,0x54,0x25,0xa9,0xaa,0x4a,0x11,0x49,0x55,0x6b,0xab,0xaa,0x55,0x55,
 0x55,0xad,0xaa,0x4a,0x59,0x04,0x54,0xa9,0xaa,0x4a,0xaa,0xaa,0x2a,0xa9,0x00,
 0x0a,0x85,0x24,0x92,0x84,0x14,0x89,0x54,0x52,0x4a,0x15,0x44,0x55,0x55,0x95,
 0x94,0x24,0xaa,0x4a,0x49,0x25,0xa9,0x92,0x04,0x00,0xa8,0xaa,0x24,0x55,0x25,
 0x45,0x92,0x92,0x02,0xa4,0x50,0x4a,0x49,0x6a,0x4a,0x25,0x25,0x25,0x25,0x49,
 0x51,0xaa,0xaa,0xaa,0xaa,0xaa,0x25,0xa9,0x2a,0x55,0x55,0x55,0xa2,0x12,0xaa,
 0x54,0x95,0x92,0x52,0x29,0x49,0x4a,0x01,0x52,0x95,0xba,0x95,0x88,0x28,0xaa,
 0x48,0x49,0x54,0x12,0xa4,0x52,0x55,0x55,0xa5,0x2a,0xaa,0x2a,0x55,0xa9,0x4a,
 0xaa,0x08,0x00,0x90,0x92,0xaa,0x24,0x95,0x52,0x95,0x14,0x02,0x14,0x49,0xd5,
 0x56,0x55,0x45,0x11,0x55,0xaa,0x92,0x4a,0x4a,0x55,0x55,0x55,0x55,0xa9,0xa9,
 0xaa,0x52,0x55,0x55,0x55,0x52,0x09,0x54,0x55,0x52,0x55,0xa9,0x94,0x54,0x65,
 0x01,0x22,0x12,0xba,0x25,0x22,0xa9,0x4a,0x22,0x91,0xaa,0x24,0x29,0x95,0x4a,
 0xa9,0x2a,0x25,0x55,0x55,0x95,0xaa,0xaa,0x42,0x05,0x40,0x50,0x55,0x25,0xa9,
 0x24,0xa5,0x22,0x89,0x02,0x49,0x49,0xed,0x96,0x4a,0x4a,0xa4,0x54,0x4d,0x92,
 0x12,0x52,0x69,0xa9,0xaa,0xaa,0xaa,0x4a,0x95,0x54,0x55,0xa5,0x54,0x55,0x05,
 0xa0,0xa4,0xaa,0x2a,0x95,0x2a,0x55,0x55,0x01,0x92,0x52,0xb5,0x55,0x94,0x94,
 0x92,0x92,0x50,0x25,0xd5,0x4a,0x92,0xaa,0xaa,0xaa,0xaa,0xaa,0x54,0xa5,0x24,
 0x55,0x09,0x08,0x10,0x50,0x95,0x94,0x52,0xa9,0x48,0x4a,0x52,0x02,0x49,0x49,
 0x7a,0x2b,0xa5,0xa2,0x54,0x49,0x2d,0xa9,0x24,0xa9,0xaa,0xaa,0xaa,0xaa,0x52,
 0x55,0x55,0x55,0x55,0x55,0x45,0x55,0x05,0x84,0xaa,0x4a,0x95,0x4a,0x55,0x51,
 0x29,0x01,0x12,0xaa,0xaa,0x45,0x12,0x15,0x09,0x2a,0xa2,0x54,0xa9,0x26,0x25,
 0x95,0xaa,0x4a,0x95,0xaa,0xaa,0x2a,0x55,0x55,0x95,0x90,0x10,0xa0,0x54,0x55,
 0x2a,0x29,0x49,0x8a,0x52,0x02,0x54,0x25,0xda,0x56,0xa9,0x48,0xa5,0x49,0x55,
 0x8a,0x54,0xa9,0xaa,0xaa,0xaa,0xaa,0x54,0x55,0x55,0xa9,0xaa,0xaa,0x52,0x4a,
 0x85,0x80,0xaa,0x52,0xa5,0x4a,0x25,0x55,0x4a,0x01,0xa2,0x90,0xba,0x95,0x44,
 0x55,0x2a,0x92,0x48,0x29,0xa5,0xaa,0x54,0xa9,0x54,0x52,0x55,0x4a,0x49,0x55,
 0x92,0x54,0x55,0x25,0x10,0x42,0x49,0x4a,0x4a,0x52,0xaa,0x52,0x29,0x01,0x29,
 0xaa,0x6a,0x4b,0xaa,0x88,0x92,0xaa,0x2a,0xa5,0xaa,0xaa,0x2a,0x55,0xa5,0xaa,
 0xaa,0xaa,0x56,0xa5,0xaa,0xaa,0x4a,0x92,0x8a,0x00,0x2a,0x55,0xa9,0x2a,0x55,
 0x49,0x4a,0x01,0x92,0x84,0xda,0x96,0x04,0x55,0xa4,0x24,0x49,0x4a,0xa4,0x2a,
 0x55,0x55,0x55,0x55,0x55,0x55,0xa9,0x4a,0x55,0xa5,0xaa,0x2a,0x21,0x40,0x55,
 0xa9,0x52,0x52,0x22,0x95,0x94,0x02,0xa4,0x52,0x6a,0xab,0xb2,0x22,0x95,0x92,
 0x54,0xa9,0x52,0x55,0x55,0x55,0x55,0x55,0x55,0x55,0x55,0xa9,0x92,0x54,0x55,
 0x55,0x0a,0x00,0xa5,0x4a,0x4a,0x49,0x95,0x52,0xa5,0x00,0x0a,0x29,0xad,0x0a,
 0x45,0x4a,0x29,0x55,0x49,0x92,0x94,0xaa,0x52,0xa5,0xaa,0xaa,0xaa,0xaa,0x2a,
 0x95,0xac,0xaa,0x2a,0x89,0x54,0x01,0x50,0x55,0x95,0x2a,0x29,0x49,0x4a,0x01,
 0xa2,0x4a,0xb5,0xd5,0x28,0xa9,0xa4,0x24,0x25,0x55,0xaa,0x54,0x55,0x55,0x55,
 0x55,0x55,0x95,0xaa,0xaa,0x52,0x55,0x55,0xa5,0x22,0x22,0x50,0x29,0xa9,0x94,
 0xa4,0x2a,0x29,0x01,0x54,0x08,0xaa,0x12,0xa5,0x12,0x49,0x49,0xaa,0x24,0xa5,
 0x92,0xaa,0xaa,0xaa,0x2a,0xa5,0x6a,0x55,0x55,0xa5,0x92,0xa4,0x2a,0x15,0x00,
 0x40,0xa5,0x52,0xa9,0x4a,0x52,0xa5,0x02,0x12,0x55,0xa9,0x4a,0x12,0x49,0x55,
 0xaa,0x92,0x4a,0xa9,0xaa,0x4a,0x55,0x55,0x55,0x55,0x95,0xaa,0x2a,0x95,0x54,
 0x55,0xa9,0x48,0x21,0xa0,0xaa,0x2a,0xa5,0x54,0x95,0x94,0x00,0x4a,0x52,0x42,
 0x52,0xa5,0xaa,0xa4,0x24,0xa5,0x94,0xaa,0x2a,0x55,0xaa,0xaa,0xaa,0xaa,0x54,
 0x52,0x49,0xa9,0xaa,0x4a,0x4a,0x25,0x04,0x00,0x55,0x4a,0x4a,0x29,0x29,0x29,
 0x01,0x21,0x25,0x35,0x49,0x52,0x44,0x52,0xaa,0x54,0xa5,0x94,0xaa,0xaa,0xaa,
 0xaa,0xaa,0xaa,0xaa,0x2a,0x55,0x55,0x55,0x55,0x55,0x52,0x01,0x00,0x92,0xaa,
 0x29,0x95,0x44,0xa5,0x02,0x4a,0x94,0x48,0x92,0x44,0x99,0x8a,0x92,0x92,0x14,
 0x55,0x52,0xa5,0x54,0x55,0x55,0x55,0x55,0x55,0x55,0x95,0x92,0xaa,0x92,0xaa,
 0xaa,0x02,0x55,0x29,0x4a,0xa9,0x2a,0x49,0x00,0xa4,0x42,0x25,0x55,0x2a,0x45,
 0x52,0x49,0x49,0x45,0x55,0x55,0x95,0xaa,0xaa,0xaa,0xaa,0xaa,0xaa,0xaa,0xaa,
 0xaa,0x52,0x55,0x95,0x54,0x09,0xa8,0x94,0xaa,0x24,0xa5,0xaa,0x02,0x92,0x14,
 0x92,0x88,0x48,0xaa,0x24,0x95,0x2a,0x29,0xa9,0x2a,0x55,0xa5,0xaa,0x52,0x55,
 0xa5,0xaa,0x92,0xa4,0x54,0x95,0x2a,0x22,0x89,0x2a,0x25,0xa5,0x44,0x55,0x2a,
 0x92,0x00,0x29,0x55,0x49,0x52,0xa5,0x52,0xaa,0x52,0x92,0x4a,0x55,0x55,0x55,
 0x55,0x55,0x55,0xa5,0x54,0x55,0xad,0xaa,0x4a,0xaa,0xaa,0x94,0xaa,0x14,0x50,
 0xa9,0x2a,0x4a,0x49,0x49,0x02,0xa2,0x48,0x2a,0x25,0x49,0x4a,0x49,0x4a,0x25,
 0x91,0x4a,0xaa,0xaa,0xaa,0xaa,0xaa,0xaa,0xaa,0x4a,0x52,0x95,0x54,0x55,0xaa,
 0x6a,0x25,0x4b,0xaa,0x92,0x54,0x91,0x92,0xaa,0x00,0x14,0xa5,0x92,0x92,0x94,
 0x24,0x25,0xa5,0xa8,0xaa,0x54,0x55,0x52,0x25,0x55,0x55,0x55,0x55,0xaa,0xaa,
 0xaa,0xaa,0x4a,0x55,0x15,0xa9,0x14,0x48,0xaa,0xa2,0xaa,0x54,0x49,0x02,0xa9,
 0x14,0x49,0x24,0x29,0x49,0x4a,0x12,0x93,0x44,0xa9,0x92,0x95,0xaa,0xaa,0xaa,
 0xaa,0xaa,0xaa,0x2a,0xa9,0x92,0x54,0xa9,0x52,0x25,0x01,0xa1,0x4a,0x95,0x24,
 0x25,0x92,0x02,0x44,0xa2,0x24,0x95,0x92,0xaa,0x52,0xa9,0x54,0x52,0xaa,0x6a,
 0xaa,0xaa,0xaa,0xaa,0xaa,0xaa,0xaa,0xaa,0x4a,0x55,0x55,0x55,0x55,0x55,0x42,
 0x40,0xa5,0x54,0x95,0xaa,0x4a,0x01,0x2a,0x95,0x92,0x28,0x25,0x92,0xa4,0x4a,
 0xa9,0x48,0x55,0xa5,0x2a,0x55,0x55,0x55,0x55,0x55,0x55,0x55,0x95,0x94,0x52,
 0x25,0xa5,0xa4,0x28,0x81,0x14,0x49,0x2a,0x44,0x29,0x02,0x45,0x22,0x49,0x45,
 0x51,0x49,0x55,0xa4,0x14,0xa5,0xaa,0x94,0xaa,0xaa,0xaa,0xaa,0xaa,0xaa,0xaa,
 0xa4,0xaa,0xaa,0x4a,0xaa,0x2a,0x55,0x45,0xa4,0x6a,0xa5,0x52,0xab,0x94,0x01,
 0x28,0xa9,0x14,0x29,0xa5,0x12,0x91,0x4a,0x51,0x92,0x94,0xaa,0x52,0x55,0x95,
 0x52,0x55,0x55,0x49,0x55,0xa9,0x52,0xaa,0xaa,0x54,0xa9,0x12,0x01,0x8a,0x2a,
 0xa5,0x88,0xa2,0x00,0x95,0x14,0xa5,0x4a,0x49,0xa8,0x4a,0xa5,0x4c,0x49,0x55,
 0x55,0xad,0xaa,0xaa,0xaa,0xaa,0xaa,0xaa,0x2a,0x55,0x55,0x55,0x55,0x55,0x55,
 0x49,0x04,0x55,0xa9,0x54,0xaa,0x54,0x02,0x22,0xa1,0x48,0x10,0x92,0x12,0x14,
 0x4a,0x92,0x54,0xaa,0xaa,0x24,0x69,0x55,0x55,0x55,0xa5,0xaa,0x4a,0x25,0xa5,
 0x24,0x49,0xa5,0x4a,0x55,0x01,0x28,0x45,0x89,0x52,0x95,0x00,0x94,0x2a,0x92,
 0x4a,0x55,0xaa,0xa5,0x29,0x55,0x42,0x55,0x95,0xaa,0xaa,0xaa,0xaa,0x2a,0x55,
 0x55,0x55,0x55,0x95,0xaa,0xaa,0xaa,0xaa,0x2a,0x15,0xaa,0x32,0x55,0x95,0xa4,
 0x02,0x52,0x44,0x25,0x55,0x44,0x21,0x52,0xa4,0x24,0x55,0xa9,0x54,0x55,0x55,
 0x55,0x55,0xd5,0xaa,0xaa,0xaa,0xaa,0x54,0x55,0x55,0x55,0x2a,0x55,0x15,0x20,
 0x45,0x29,0x49,0x49,0x01,0x89,0x2a,0x49,0x91,0x92,0x94,0x94,0x2a,0x95,0xa8,
 0xaa,0xaa,0x52,0x55,0x55,0x55,0x55,0xaa,0xaa,0x54,0x25,0x55,0x49,0x52,0x55,
 0xd5,0xa4,0x52,0xa8,0xb4,0x94,0x54,0x2a,0x01,0x24,0xa4,0x14,0x4a,0x25,0xa5,
 0x52,0x52,0x2a,0x25,0x55,0xa5,0x94,0xaa,0xaa,0xaa,0xaa,0xaa,0x54,0xa5,0x54,
 0xa5,0xaa,0x2a,0x55,0x29,0x95,0xaa,0xa2,0x92,0xa2,0xa2,0x52,0x02,0x52,0x49,
 0x42,0x51,0x90,0x92,0x24,0x49,0x45,0xa9,0x2a,0x55,0x55,0x55,0x55,0xa5,0xaa,
 0xaa,0x2a,0x55,0x55,0x95,0x94,0xaa,0xaa,0xaa,0xaa,0xaa,0x48,0x4a,0x55,0x55,
 0x4a,0x01,0x00,0x04,0x08,0x04,0x01,0x40,0x80,0x04,0x28,0xaa,0xaa,0x54,0x55,
 0x55,0xaa,0x5a,0x55,0x55,0x55,0x55,0x95,0x54,0x65,0x52,0x55,0xa5,0x54,0x2a,
 0x81,0x92,0x14,0x8a,0x94,0x02,0x2a,0x81,0x22,0x01,0xa8,0x14,0x55,0xa8,0x12,
 0x55,0x55,0x55,0x55,0x55,0x55,0xa5,0xaa,0x4a,0x55,0x55,0x55,0xa5,0x92,0xaa,
 0xaa,0xaa,0x4a,0xa5,0x40,0x55,0xa5,0xa9,0x52,0x01,0x55,0x5d,0x4a,0xb5,0x12,
 0x51,0x04,0x21,0x49,0x52,0xaa,0x4a,0xaa,0x92,0x88,0x14,0x11,0x29,0x49,0x92,
 0x92,0x14,0x55,0xaa,0x24,0x95,0x52,0x92,0x02,0x55,0xaa,0xaa,0x2a,0x02,0xaa,
 0x52,0xa9,0x94,0xaa,0x0a,0xa9,0x94,0x44,0xa9,0xaa,0xaa,0xaa,0xaa,0x56,0x55,
 0x55,0x55,0x55,0x55,0xaa,0x52,0x49,0x55,0x55,0x55,0x55,0xa9,0x4a,0x4a,0x29,
 0x29,0xa5,0x01,0xef,0xef,0x6e,0xdb,0x6d,0xf7,0xb6,0x6b,0x13,0x55,0x25,0xa9,
 0x54,0x55,0xa9,0xaa,0xaa,0xaa,0xaa,0xaa,0x94,0x54,0x2a,0x42,0x55,0x55,0x95,
 0x4a,0x04,0x24,0xa5,0xa4,0x14,0x02,0x5a,0xb5,0xb5,0xad,0xb6,0x5a,0xdb,0xb6,
 0x8a,0x92,0xaa,0x2a,0xab,0xaa,0x56,0x55,0x55,0x55,0x55,0x49,0xab,0x2a,0x55,
 0x35,0x55,0x55,0xa9,0xa4,0x92,0x52,0x29,0x55,0xaa,0x01,0x6b,0x5b,0xab,0x7a,
 0x6b,0xf5,0xb6,0xda,0x26,0xaa,0x54,0xa5,0x54,0xdf,0x7d,0xbb,0xfb,0xb6,0x55,
 0xb7,0x5a,0xeb,0xaa,0xaa,0x4a,0x2a,0x25,0x15,0x15,0x48,0x52,0x92,0x10,0x02,
 0xde,0xed,0xf6,0xce,0xb6,0x5b,0x5b,0x6f,0x4b,0xa9,0xaa,0x54,0xd5,0x6a,0xab,
 0x6d,0xad,0xdd,0xee,0x6d,0xb7,0x5d,0xb5,0xd5,0xaa,0x52,0x55,0x55,0x25,0x54,
 0x4d,0xa9,0x4a,0x01,0x6b,0xab,0xad,0xb5,0xad,0xb6,0x6a,0xd5,0x80,0x56,0x55,
 0xa9,0xaa,0xbb,0xdd,0xb6,0xdb,0x76,0x5b,0xb5,0x6d,0xeb,0xdb,0x6e,0x4b,0xa5,
 0xaa,0xaa,0x28,0xf8,0xbb,0x6f,0xff,0x02,0xb6,0xda,0xb6,0x5a,0x55,0x6d,0xb7,
 0x6d,0xab,0x24,0x55,0x4a,0xd5,0x6e,0x77,0xef,0xb6,0xad,0x6d,0xdf,0xda,0x5a,
 0xad,0xb5,0xaa,0x54,0x52,0x25,0x55,0xd2,0xee,0xda,0x4a,0x03,0xdb,0xb7,0xda,
 0xb6,0xbb,0xda,0x6a,0xdb,0x40,0x59,0xa9,0xaa,0xaa,0xb5,0xed,0xba,0xdb,0x7b,
 0xdb,0x6a,0xb7,0xb7,0x7b,0xdb,0x8d,0x4a,0x05,0xaa,0x4a,0xe0,0xbb,0xff,0xff,
 0x01,0xb6,0x6a,0x6f,0x5b,0xad,0xb7,0xb6,0x6d,0x29,0xa5,0x2a,0xa9,0x6a,0x6f,
 0x5b,0x6f,0x7d,0xdd,0xb6,0xbd,0xed,0xda,0xd6,0xb6,0x56,0xa9,0x6a,0x55,0x55,
 0xd1,0xee,0x55,0x55,0x03,0x55,0xad,0xd4,0xf6,0x76,0xdd,0xed,0xb6,0xa4,0xaa,
 0xaa,0xaa,0xda,0xfa,0xee,0xda,0xab,0x6b,0xdb,0xd6,0xb6,0xad,0x5a,0xdb,0xad,
 0xaa,0x94,0x50,0xa9,0xa4,0x5b,0xff,0xff,0x03,0xd5,0xb6,0x7b,0x5b,0xdb,0x76,
 0x5b,0x5b,0x91,0x2a,0x95,0x54,0xb5,0xaf,0xbb,0x77,0xfd,0xdd,0xbd,0xbb,0xdd,
 0x76,0xdf,0x6d,0xb5,0x54,0x55,0x95,0x4a,0xc2,0xee,0x55,0xd5,0x02,0x00,0x00,
 0x00,0x00,0x00,0x00,0x00,0x00,0x54,0x55,0x55,0xaa,0xea,0x7a,0x77,0xdd,0x57,
 0x77,0x77,0xed,0xb6,0xdb,0xb5,0xb6,0xd7,0x22,0xa9,0x02,0x50,0x95,0xbb,0xee,
 0xbe,0x03,0x02,0x00,0x00,0x00,0x00,0x00,0x80,0x54,0x52,0x55,0x55,0x55,0x5d,
 0xd7,0xda,0xf7,0xfa,0xba,0xad,0xb7,0xdd,0xee,0xda,0x6d,0x6d,0x55,0x55,0xaa,
 0xaa,0x42,0xde,0x75,0xd7,0x02,0xac,0xaa,0xaa,0xd5,0x55,0xb5,0x2d,0x09,0xa9,
 0xaa,0x24,0xd5,0x02,0x00,0x00,0x00,0x00,0x01,0x10,0x44,0x52,0x29,0xab,0xd6,
 0x5a,0x55,0xa5,0x2a,0x00,0x15,0x75,0xdf,0xfd,0x03,0x92,0x92,0xaa,0x54,0xaa,
 0x4a,0x52,0x45,0x54,0x55,0x95,0xaa,0x42,0x51,0x55,0x95,0xaa,0x54,0xab,0xb5,
 0xaa,0xd6,0xaa,0xb5,0x6d,0xab,0x54,0x55,0x81,0x0a,0xbb,0xb5,0xae,0x02,0x48,
 0x44,0x00,0x02,0x01,0x00,0x08,0x04,0x25,0xa5,0x52,0x55,0x5d,0xaf,0x56,0x75,
 0x5b,0xb7,0xaa,0x4a,0x45,0x08,0x04,0x00,0x00,0xa8,0xaa,0xaa,0x2a,0x28,0x00,
 0x00,0x00,0x00,0x25,0x29,0x54,0xa9,0x54,0x55,0xa5,0x92,0xaa,0xaa,0x2a,0xb5,
 0x52,0xa9,0x6a,0x55,0x55,0x55,0x55,0x55,0x32,0xab,0x52,0x55,0x02,0xaa,0xaa,
 0x4a,0x05,0x94,0x88,0xaa,0xaa,0x01,0x94,0xa4,0x92,0x24,0x92,0x52,0x92,0x08,
 0x55,0x55,0x52,0xad,0x24,0xa5,0x94,0x4a,0x4a,0x4a,0x92,0x54,0x55,0x55,0x55,
 0x55,0xfd,0xaa,0x2a,0x55,0x2a,0x20,0xb2,0xaa,0x52,0x02,0x42,0x12,0x55,0x4a,
 0x49,0x28,0x49,0x82,0xa8,0xaa,0x4a,0x55,0x55,0xa9,0xaa,0xaa,0xaa,0x52,0x55,
 0x55,0x95,0x52,0x55,0x55,0x15,0x55,0x55,0x55,0x55,0x49,0x48,0x49,0x55,0x01,
 0x95,0xa4,0x88,0x10,0x92,0x42,0x52,0xa1,0x56,0x55,0x55,0xab,0x4a,0x4a,0x55,
 0x55,0x55,0x55,0x55,0x25,0xa9,0x94,0x24,0x48,0x42,0xa2,0xaa,0xaa,0xaa,0x00,
 0x20,0x12,0x22,0x01,0x48,0x55,0x55,0x4a,0x49,0x5a,0x29,0x49,0x52,0x55,0x55,
 0x55,0xa9,0xaa,0x2a,0xa9,0xaa,0xaa,0xaa,0xaa,0xaa,0xaa,0xaa,0x56,0xa9,0x54,
 0x55,0x55,0x55,0x0a,0x52,0x55,0x55,0x01,0x55,0x25,0x91,0x92,0x92,0xa4,0x4a,
 0x80,0xaa,0xaa,0x54,0x2d,0x55,0x55,0x49,0x25,0x49,0x49,0x49,0x54,0x25,0x49,
 0x49,0x91,0x4a,0x49,0xa5,0x52,0x95,0x52,0x81,0xa4,0x24,0x02,0xa5,0x94,0xaa,
 0x54,0x4a,0x95,0x54,0x51,0x55,0x55,0x55,0xab,0xaa,0x52,0x55,0x55,0x55,0x55,
 0x55,0x95,0x54,0x55,0xaa,0x4a,0x29,0x25,0x55,0x55,0xaa,0x4a,0x52,0x52,0x52,
 0x01,0x14,0xa9,0x94,0x92,0x14,0x21,0x91,0xaa,0xaa,0xaa,0x6a,0x55,0xa5,0x4a,
 0x55,0x55,0x55,0x95,0x92,0x52,0x55,0xaa,0x92,0x54,0x52,0xaa,0xaa,0xaa,0xaa,
 0xaa,0x0a,0x25,0x45,0x02,0xa5,0x4a,0x52,0xaa,0xa2,0xaa,0xaa,0x44,0xaa,0xaa,
 0xaa,0xaa,0xaa,0xaa,0xaa,0xaa,0xaa,0x54,0xaa,0xaa,0x52,0x25,0x55,0xaa,0x2a,
 0x49,0x55,0x55,0x55,0x55,0x45,0x95,0x54,0x01,0x94,0x24,0x49,0x41,0x94,0x14,
 0x49,0x59,0xa5,0xaa,0xd4,0x2a,0xa9,0xaa,0xaa,0xaa,0xaa,0xaa,0xaa,0xaa,0xaa,
 0xaa,0xaa,0x44,0x44,0x92,0x54,0xa5,0x4a,0xaa,0x0a,0xa8,0x92,0x00,0x45,0x92,
 0xa4,0xac,0x22,0xa5,0x24,0x4a,0x55,0x55,0x55,0x55,0x55,0x55,0x55,0x55,0x55,
 0x55,0x55,0x95,0xaa,0xaa,0x92,0x32,0x53,0x55,0xaa,0xaa,0xaa,0xaa,0x2a,0x55,
 0xa9,0x02,0x28,0x29,0x15,0x02,0x49,0x10,0x91,0x10,0x95,0x52,0xdb,0x4a,0x95,
 0x2a,0x95,0xaa,0xaa,0xaa,0xaa,0xaa,0x2a,0x29,0x25,0x45,0x24,0x49,0x55,0x55,
 0xa9,0xaa,0x52,0x85,0x44,0x02,0x85,0x44,0x42,0xa9,0x24,0x4a,0x4a,0xa6,0xaa,
 0xaa,0x6a,0x55,0x55,0x55,0xa9,0xaa,0xaa,0xaa,0xaa,0xaa,0xaa,0xaa,0xaa,0x5a,
 0x95,0x24,0x51,0x55,0x55,0xad,0xaa,0x52,0x2a,0x01,0x10,0x10,0x08,0x44,0x92,
 0x52,0x21,0x49,0xbf,0x4a,0xad,0x10,0x28,0x49,0x25,0x49,0x55,0x55,0x55,0x55,
 0x55,0x55,0x55,0x20,0x52,0x49,0xa4,0xaa,0xaa,0x12,0xd4,0x85,0x90,0x00,0x44,
 0x85,0x42,0x91,0xa4,0x24,0x4a,0x92,0x6d,0x55,0xb5,0xca,0xa6,0xaa,0xaa,0xaa,
 0xaa,0xaa,0xaa,0xaa,0xaa,0xaa,0x92,0x56,0x89,0xa4,0xaa,0x55,0x55,0xa5,0xea,
 0x2a,0x25,0x01,0x12,0x10,0x14,0x02,0x00,0x82,0x88,0xe8,0xff,0xab,0x56,0x55,
 0xa9,0xaa,0xaa,0xaa,0x94,0x94,0x24,0x49,0x49,0x12,0x25,0x89,0x54,0x4a,0x52,
 0xaa,0x04,0x48,0xbc,0x92,0x44,0x02,0x48,0x45,0x81,0x54,0x55,0x51,0x52,0xaa,
 0xff,0x56,0xad,0x54,0x55,0x55,0x55,0x55,0x55,0x55,0x55,0x55,0xaa,0x4a,0xa9,
 0x54,0x25,0x25,0x49,0xab,0x6a,0x2b,0xf5,0x4a,0x92,0x00,0x22,0x28,0x2a,0x00,
 0x00,0x0a,0x49,0xf5,0xee,0xff,0x5f,0xa9,0xaa,0xaa,0xaa,0xaa,0x4a,0xa9,0x92,
 0xa4,0x52,0xb5,0x4a,0x25,0x92,0x48,0x24,0xad,0x55,0x55,0x97,0x24,0x49,0x02,
 0x49,0x05,0x41,0x55,0x55,0xa1,0x24,0xaa,0xff,0x7f,0x37,0x25,0x55,0x55,0x55,
 0x55,0x55,0x55,0xaa,0xaa,0xaa,0x4a,0x55,0x55,0x49,0x92,0x92,0x6a,0x55,0x25,
 0xad,0x4a,0x24,0x01,0x04,0xa8,0x14,0x49,0x92,0x14,0xa9,0xd5,0xfa,0xff,0x7f,
 0xdb,0xaa,0xaa,0xaa,0xaa,0x6a,0xab,0x55,0x55,0x15,0x29,0x2a,0x49,0x95,0x2a,
 0x25,0x5d,0xad,0xda,0x52,0x24,0x89,0x00,0xa1,0x12,0x49,0x92,0x24,0xa5,0x54,
 0x6a,0xff,0xff,0xbf,0xaa,0xaa,0xaa,0xaa,0xaa,0xb6,0xb5,0xda,0xaa,0xca,0xa4,
 0x52,0x55,0x55,0xa5,0x90,0xb4,0x55,0x95,0x96,0x92,0x24,0x01,0x14,0x41,0x20,
 0x40,0x42,0x08,0xd5,0xfd,0x6f,0xdb,0x55,0x55,0x55,0xad,0xaa,0x55,0x55,0xaa,
 0xb5,0xad,0xaa,0x56,0x25,0x91,0x90,0x48,0x45,0x6a,0xab,0x02,0x41,0x54,0x00,
 0x02,0x42,0x94,0x8a,0x2a,0x28,0xa2,0xa8,0xb6,0xfd,0x7f,0xaf,0xaa,0x6a,0x55,
 0xad,0xda,0xaa,0x5b,0xad,0x56,0xb5,0xaa,0x54,0x55,0x4d,0x95,0x14,0xd9,0x6d,
 0x55,0x29,0x29,0xaa,0x00,0x24,0x21,0x20,0x80,0x82,0x04,0x51,0x55,0x02,0x44,
 0xa9,0x52,0x45,0x55,0x51,0x25,0x55,0xa4,0x52,0xa9,0xaa,0xaa,0xaa,0xaa,0x52,
 0xaa,0x6a,0x6d,0x5b,0x55,0x45,0xaa,0x00,0x01,0x11,0x0a,0x15,0x55,0x28,0x51,
 0x4a,0x55,0xf5,0xb5,0x56,0xaa,0xb4,0x52,0xad,0x54,0x55,0x55,0xad,0xb6,0x55,
 0x55,0x55,0x55,0x55,0x55,0x55,0xf5,0xad,0x56,0xa9,0x2a,0x54,0x00,0x40,0x20,
 0x40,0x00,0x01,0x04,0x20,0x80,0x04,0x55,0x29,0x89,0x42,0x4a,0x49,0x55,0x89,
 0x8a,0x50,0x42,0xaa,0xaa,0xaa,0x4a,0xaa,0xaa,0xb6,0x6d,0xdb,0xbd,0x2a,0x55,
 0x00,0x00,0x14,0x89,0x14,0x4a,0x52,0x51,0x89,0x5a,0x6a,0x95,0x94,0x54,0x59,
 0xa9,0x54,0x92,0x54,0x52,0x56,0xb5,0xaa,0xaa,0xaa,0x54,0x55,0x55,0xab,0xda,
 0x6f,0x55,0xd5,0x3a,0x22,0x01,0x02,0x20,0x20,0x01,0x00,0x04,0x24,0x84,0x92,
 0x20,0x49,0x00,0x04,0x02,0x91,0x24,0xa5,0xaa,0x4a,0x94,0x24,0x51,0x25,0xa9,
 0xa4,0xaa,0x54,0xb5,0x90,0xc4,0xaa,0x97,0x00,0x00,0xa0,0x0a,0x4a,0x24,0x29,
 0x21,0x01,0x51,0x49,0x96,0x24,0x55,0x51,0xa9,0x4a,0x55,0x55,0x95,0xa2,0x4a,
 0x52,0x4d,0x92,0x4a,0xaa,0xaa,0xaa,0xaa,0x4e,0x52,0x5b,0x2d,0x24,0x01,0x0a,
 0xa0,0x00,0x10,0x00,0x84,0x14,0x04,0x92,0x20,0x89,0x00,0x02,0x04,0x20,0x00,
 0x00,0x48,0x14,0x91,0x0a,0x22,0x49,0x10,0x11,0x40,0x00,0x4a,0x10,0xa1,0xa4,
 0x02,0x01,0x00,0x20,0x09,0x54,0x45,0x4a,0x21,0x40,0x51,0x49,0x4a,0x52,0xaa,
 0x54,0x51,0x15,0xaa,0xaa,0x95,0xaa,0x4a,0x51,0x91,0x10,0xa5,0x4a,0x9b,0xaa,
 0x92,0xa6,0x48,0xab,0x52,0x48,0x01,0x82,0xa4,0x00,0x00,0x01,0x84,0x12,0x04,
 0x92,0x10,0x01,0x00,0x80,0x04,0xa2,0x00,0x10,0x22,0x00,0x10,0x44,0x44,0x4a,
 0x08,0x90,0x20,0x22,0x29,0x11,0x02,0x00,0x08,0x00,0x00,0x28,0x00,0x55,0x55,
 0x50,0x21,0x04,0x41,0x49,0x8a,0x54,0x55,0x55,0x52,0x11,0xaa,0x4a,0x49,0x55,
 0xa5,0x92,0x12,0x01,0x45,0x25,0x4a,0x49,0x8a,0x88,0xa4,0x54,0x02,0x49,0x00,
 0x80,0x24,0x00,0x00,0x01,0x84,0x50,0x14,0xa5,0x24,0x29,0x21,0x00,0x09,0x44,
 0x11,0x22,0x24,0x89,0x04,0x04,0x24,0xaa,0x28,0x88,0x10,0x84,0x20,0x25,0x09,
 0x01,0x51,0x92,0x02,0x14,0x81,0xa8,0x4a,0x94,0x22,0x04,0xa1,0x28,0x92,0x44,
 0x4a,0x55,0xa2,0x92,0x44,0x11,0x49,0x24,0xa9,0x52,0x89,0x44,0x04,0x25,0x45,
 0x29,0x95,0x40,0xa2,0x48,0x08,0x49,0x00,0x00,0x08,0x02,0x00,0x00,0x08,0x21,
 0x04,0x80,0x00,0x12,0x00,0x00,0x00,0x00,0x00,0x84,0x00,0x00,0x00,0x08,0x20,
 0x10,0x51,0x80,0x10,0x00,0x20,0x2a,0x09,0x92,0x22,0x00,0x01,0x45,0xa2,0x40,
 0x24,0x49,0x41,0x08,0x21,0x25,0x54,0x81,0x92,0xa4,0x54,0x55,0x55,0x21,0xa4,
 0xaa,0xaa,0xa2,0x8a,0x4a,0x84,0x2a,0x04,0x22,0x15,0x01,0x82,0x44,0x88,0x4a,
 0x00,0x28,0x00,0x2a,0x91,0x00,0x14,0x21,0x84,0x88,0x00,0x14,0x08,0x02,0x02,
 0x00,0x00,0x84,0x10,0x00,0x00,0x08,0x00,0x00,0x00,0x44,0x51,0x88,0x40,0x54,
 0x28,0x12,0x21,0x00,0x00,0x02,0x05,0x88,0x04,0x28,0x41,0x48,0x21,0x22,0x55,
 0xa1,0xa2,0xa8,0x90,0x54,0x55,0x21,0x84,0x24,0x49,0x42,0xaa,0x90,0x24,0x11,
 0x04,0x22,0x28,0x05,0x82,0xa4,0x08,0x52,0x01,0x00,0x00,0x52,0x52,0x41,0x24,
 0x05,0x84,0x88,0x00,0x04,0x04,0x01,0x02,0x00,0x00,0x84,0x20,0x10,0x04,0x09,
 0x00,0x02,0x02,0x40,0x22,0x88,0x82,0x50,0x29,0x10,0xa5,0x08,0x00,0x00,0x00,
 0x28,0x09,0x14,0x09,0x50,0x21,0x24,0x54,0x51,0xa9,0xa8,0xa4,0x12,0x25,0x21,
 0x0a,0x45,0x51,0xa0,0x92,0xa0,0x48,0x15,0x88,0x92,0x28,0x04,0x04,0xa4,0x10,
 0x22,0x01,0x00,0x00,0x00,0x00,0x00,0x40,0x00,0x00,0x00,0x01,0x00,0x04,0x02,
 0x10,0x48,0x00,0x14,0x20,0x00,0x00,0x01,0x00,0x02,0x00,0x40,0x00,0x00,0x82,
 0x50,0x00,0x00,0x45,0x80,0x00,0x00,0x00,0x44,0x42,0x82,0x00,0x09,0x48,0x42,
 0x08,0x24,0x91,0x20,0x05,0x02,0xa8,0x82,0x0a,0x52,0x4a,0x28,0x49,0x24,0x48,
 0x12,0xa5,0x94,0x20,0x09,0x11,0x40,0x22,0x2a,0x00,0x00,0x00,0x28,0x29,0x28,
 0x0a,0xa0,0x04,0x08,0xa0,0x00,0x00,0x04,0x40,0x10,0x01,0x00,0x80,0x00,0x00,
 0x00,0x00,0x80,0x00,0x40,0x10,0x21,0x15,0x00,0x00,0x00,0x80,0x80,0x00};
