#define noname_width 140
#define noname_height 308
static char noname_bits[] = {
 0xa5,0x4a,0x55,0x52,0x4a,0x55,0xa9,0xaa,0xaa,0x2a,0x55,0x2a,0x55,0x55,0xa5,
 0x2a,0xa5,0x0a,0xaa,0x6a,0x55,0xad,0x55,0x55,0x55,0x55,0x95,0xaa,0x4a,0x55,
 0xa5,0x54,0x55,0x55,0x55,0x05,0x55,0x95,0xaa,0x52,0xaa,0xaa,0xaa,0xaa,0xaa,
 0xa4,0xaa,0xaa,0x54,0xa5,0x52,0x52,0x29,0x09,0xaa,0x6a,0x55,0x55,0x55,0x55,
 0x55,0x25,0x55,0x55,0x55,0x49,0x55,0x55,0x55,0x55,0x55,0x05,0x55,0x95,0xaa,
 0xaa,0xaa,0x94,0x4a,0xaa,0x52,0x95,0x24,0x55,0x25,0x95,0x94,0x2a,0x55,0x05,
 0x55,0x55,0x55,0xaa,0xaa,0xaa,0xaa,0xaa,0xaa,0xaa,0xaa,0xaa,0xaa,0x52,0x55,
 0xa5,0xaa,0x0a,0xaa,0xaa,0xaa,0xaa,0x54,0x55,0xaa,0x4a,0x95,0x54,0x55,0x25,
 0x55,0x55,0x55,0xaa,0x92,0x04,0xaa,0xaa,0xaa,0xaa,0x2a,0x55,0x55,0x55,0xaa,
 0x4a,0xaa,0x54,0xa9,0x94,0xaa,0xaa,0xaa,0x0a,0x55,0x55,0x55,0x55,0x55,0xa5,
 0x92,0xaa,0x52,0x55,0x55,0x55,0x55,0x55,0x52,0x55,0xaa,0x02,0x2a,0x55,0x55,
 0x55,0x55,0x55,0x55,0xa9,0x2a,0x55,0x25,0x55,0x95,0x52,0x55,0xa5,0xaa,0x0a,
 0xd5,0xaa,0xaa,0xaa,0xaa,0xaa,0xaa,0xaa,0xaa,0xa4,0x54,0x49,0x52,0x55,0x95,
 0xaa,0x52,0x05,0x2a,0x55,0x95,0x4a,0xa9,0xaa,0xaa,0x4a,0x95,0xaa,0xaa,0xaa,
 0xaa,0xaa,0xaa,0x54,0x55,0x0a,0x55,0x55,0x6a,0x35,0x55,0x55,0x95,0xaa,0x54,
 0x95,0x92,0xaa,0x54,0x4a,0xa9,0x92,0xa4,0x02,0xaa,0xaa,0x2a,0x55,0x55,0xaa,
 0xaa,0xaa,0xaa,0x52,0x55,0xa5,0x4a,0x55,0x95,0xaa,0x9a,0x0a,0x55,0x55,0xd5,
 0xaa,0xaa,0x4a,0xa9,0x52,0xa5,0xaa,0x54,0xad,0xaa,0x2a,0xa9,0xaa,0x52,0x05,
 0xaa,0xaa,0x2a,0x55,0x55,0x55,0x55,0x2d,0x55,0xaa,0xaa,0x6a,0xab,0xa4,0xaa,
 0x54,0x55,0x09,0x52,0x55,0x55,0x55,0xa5,0xaa,0x4a,0x52,0x55,0xa5,0x52,0xdd,
 0x5f,0xa9,0x4a,0x25,0x55,0x02,0xad,0x4a,0x55,0x55,0x55,0xa9,0xaa,0xaa,0x52,
 0x55,0xaa,0x6a,0x55,0x55,0x55,0x55,0x55,0x0d,0x52,0xb5,0xaa,0xaa,0xaa,0x4a,
 0x55,0x55,0x95,0xaa,0xea,0xff,0xff,0x8a,0xa4,0xaa,0xa4,0x02,0xad,0x4a,0x55,
 0x55,0x55,0x55,0xa9,0xaa,0xaa,0x92,0xaa,0xd6,0xff,0x53,0x55,0x92,0xaa,0x0a,
 0x52,0x55,0x55,0x55,0x95,0xaa,0x2a,0x55,0x55,0xaa,0xf6,0xff,0x7f,0x2b,0xa9,
 0xaa,0x4a,0x05,0xad,0xaa,0xaa,0xaa,0x6a,0x55,0x55,0xa5,0xa4,0xaa,0xba,0xfe,
 0xfd,0x97,0x4a,0x4a,0x55,0x0a,0xaa,0xaa,0x4a,0x55,0x95,0x94,0xaa,0xaa,0xaa,
 0xd4,0xed,0xff,0xff,0x57,0x94,0x54,0xaa,0x04,0x55,0x55,0xb5,0xaa,0x52,0x55,
 0x55,0x55,0x95,0xaa,0xfe,0xff,0xff,0xaf,0xaa,0xaa,0x52,0x0b,0xaa,0xaa,0x4a,
 0x95,0xaa,0xaa,0x94,0x94,0xaa,0xea,0xfb,0xff,0xff,0x5f,0xa9,0x92,0x94,0x04,
 0xaa,0xaa,0xaa,0xaa,0xaa,0xaa,0xaa,0xaa,0x52,0xb5,0xfe,0xff,0xff,0xaf,0x4a,
 0x4a,0x55,0x05,0x55,0x55,0x55,0x55,0x55,0x55,0x55,0x55,0x55,0xed,0xff,0xff,
 0xff,0x5f,0x52,0x29,0x25,0x05,0xaa,0xaa,0xaa,0xaa,0xaa,0xaa,0xaa,0x52,0x55,
 0xb5,0xff,0xff,0xef,0x5f,0xa9,0xaa,0xaa,0x0a,0x55,0x55,0x55,0x55,0x55,0xa9,
 0x52,0x95,0x4a,0xfd,0xff,0xff,0x7f,0xb7,0x4a,0x2a,0x55,0x09,0xaa,0xaa,0xaa,
 0x52,0x55,0x55,0x55,0x55,0xa9,0xea,0xff,0xff,0xff,0x5f,0xa5,0x52,0x29,0x05,
 0x55,0x55,0x55,0x55,0x55,0x55,0x55,0x55,0x55,0xbd,0xff,0xff,0xff,0x7f,0xaa,
 0xaa,0xaa,0x0a,0xaa,0xaa,0xaa,0xaa,0xaa,0xaa,0xaa,0xaa,0xaa,0xea,0xff,0x7f,
 0xdf,0x5f,0x95,0x54,0x55,0x05,0x55,0x55,0x55,0x55,0x55,0x92,0xaa,0xaa,0x52,
 0xfd,0x7f,0xff,0xfb,0x7e,0xaa,0x92,0xa4,0x0a,0x55,0x55,0x55,0x55,0x95,0x55,
 0x55,0x55,0x55,0x65,0xf7,0xfb,0xff,0xff,0x49,0xaa,0xaa,0x04,0xaa,0xaa,0xaa,
 0xaa,0x6a,0x2a,0x55,0x02,0xa0,0xda,0xff,0xff,0xff,0xbf,0xaa,0xaa,0xaa,0x0a,
 0x55,0x55,0x55,0x55,0x55,0xab,0xaa,0xaa,0x95,0xaa,0x7f,0xff,0xdf,0xff,0x95,
 0x4a,0x55,0x05,0xaa,0xaa,0xaa,0xaa,0xaa,0x54,0x11,0x04,0x80,0xfa,0xfe,0xfd,
 0x7f,0x7f,0xa5,0x54,0x92,0x0a,0x55,0x55,0x55,0x55,0x55,0x57,0x2d,0x09,0x20,
 0x95,0xb7,0xdf,0xef,0xff,0x55,0x55,0x55,0x05,0xef,0xb6,0xdb,0xaa,0xaa,0x54,
 0x05,0x00,0x00,0xe0,0xff,0xfd,0xfe,0xff,0x2b,0x49,0x55,0x0a,0x5a,0x6b,0xad,
 0xb6,0x6d,0xb7,0x2a,0x10,0x00,0xaa,0x7e,0xef,0x77,0xff,0xaa,0xaa,0xaa,0x05,
 0xff,0xff,0xff,0xff,0xff,0xaf,0x4a,0x00,0x00,0x80,0xef,0xbd,0xdf,0xff,0xab,
 0xaa,0x2a,0x05,0xff,0xff,0xff,0xff,0xff,0x5b,0x15,0x01,0x00,0xaa,0xff,0xef,
 0xfb,0xff,0x56,0x55,0xd5,0x0a,0xff,0xff,0xff,0xff,0xff,0xbf,0x0a,0x40,0x00,
 0x00,0xb5,0x7a,0x6f,0xfb,0xff,0xff,0xbb,0x07,0xff,0xff,0xff,0xff,0xff,0xdf,
 0x52,0x00,0x00,0x80,0xde,0xdf,0xfb,0xff,0xfb,0xbb,0x6e,0x0d,0xff,0xff,0xff,
 0xff,0xff,0xbf,0x04,0x00,0x00,0x80,0xbe,0x7a,0xaf,0xff,0xff,0xff,0xff,0x0f,
 0xff,0xff,0xff,0xff,0xff,0x6f,0x01,0x00,0x00,0x00,0xef,0xdf,0xfb,0xfd,0xef,
 0xff,0xff,0x0f,0xff,0xff,0xff,0xff,0xfd,0xbf,0x00,0x00,0x00,0x80,0xbe,0x7a,
 0xdf,0xab,0xfd,0xff,0xff,0x0f,0xff,0xff,0xff,0xff,0xff,0x7f,0x02,0x80,0x80,
 0x00,0xfa,0xd7,0xf7,0x76,0xff,0xff,0xff,0x0f,0xbf,0xff,0xff,0xff,0xff,0x1f,
 0x00,0x00,0x00,0x10,0x55,0xbd,0x5e,0x95,0xd2,0xff,0xff,0x0f,0xff,0xff,0xff,
 0xff,0xff,0xbf,0x00,0x00,0x20,0x04,0xf4,0xd6,0xf5,0x4a,0xed,0xff,0xff,0x0f,
 0xff,0xff,0xff,0xff,0x7f,0x2f,0x00,0x00,0x00,0x48,0x50,0xad,0x56,0x29,0x11,
 0xff,0xff,0x0f,0xff,0xff,0xff,0xff,0xff,0x1f,0x00,0x00,0x00,0x12,0xa8,0x75,
 0x6d,0x45,0xaa,0xff,0xff,0x0f,0xff,0xfb,0xdf,0xff,0xff,0x0f,0x00,0x00,0x00,
 0x88,0x52,0x4a,0x95,0x00,0x81,0xfe,0xff,0x0f,0xff,0xff,0xff,0xfb,0xff,0x17,
 0x00,0x00,0x00,0x20,0x50,0x55,0x6d,0x55,0xa4,0xfe,0xff,0x0f,0xff,0xdf,0xff,
 0xff,0xff,0x4f,0x00,0x00,0x00,0x12,0x82,0xaa,0x15,0x00,0x01,0xff,0xff,0x0f,
 0xff,0xff,0xff,0xff,0xff,0xaf,0x00,0x00,0x00,0x84,0xa8,0x54,0x55,0x55,0x48,
 0xfe,0xff,0x0f,0xff,0xff,0xff,0xff,0xff,0x5f,0x02,0x00,0x00,0x20,0x00,0x4a,
 0x2a,0x88,0x02,0xfd,0xff,0x0f,0xff,0xff,0xff,0xff,0xfb,0xaf,0x00,0x00,0x00,
 0x88,0xa4,0x52,0x15,0x25,0xa9,0xfc,0xff,0x0f,0xff,0xff,0xff,0xff,0xff,0xbf,
 0x0a,0x00,0x00,0x20,0x00,0xa4,0xaa,0xa8,0x4a,0xfd,0xff,0x0f,0xff,0xff,0xff,
 0xff,0xff,0xbf,0x52,0x00,0x00,0x08,0x24,0x15,0x55,0xaa,0x2a,0xfa,0xff,0x0f,
 0xff,0xff,0xff,0xbf,0xff,0x6f,0x95,0x00,0x00,0xa0,0x00,0xa4,0xa4,0x52,0xd5,
 0xfe,0xff,0x0f,0xff,0xff,0xff,0xff,0xff,0x7f,0x55,0x24,0x00,0x00,0x2a,0x29,
 0x55,0x55,0x55,0xf9,0xff,0x0f,0xdf,0xff,0xff,0xff,0xff,0xff,0xd7,0x95,0x00,
 0x90,0x44,0x52,0x55,0x55,0x55,0xf7,0xff,0x0f,0xff,0xff,0xf7,0xff,0xff,0xff,
 0x3a,0x25,0x00,0x40,0x92,0x54,0xb5,0xaa,0xaa,0xfa,0xff,0x0f,0xff,0x7f,0xff,
 0xff,0xff,0x6d,0xd7,0xdb,0x02,0x80,0x24,0xaa,0xaa,0x55,0x55,0xfd,0xff,0x0f,
 0xff,0xff,0xff,0xff,0xff,0xff,0xfb,0x36,0x01,0x24,0x95,0x54,0x55,0x55,0xad,
 0xfa,0xff,0x0f,0xff,0xff,0xff,0xff,0xff,0xff,0xef,0xff,0x4a,0x80,0x54,0x55,
 0x5b,0x55,0xab,0xfe,0xff,0x0f,0xff,0xff,0xff,0xfd,0xff,0x7f,0xbb,0xbd,0x05,
 0x52,0x4a,0xaa,0xaa,0x55,0x55,0xf5,0xff,0x0f,0xff,0xff,0xff,0xff,0xff,0xff,
 0xff,0xff,0x2f,0x80,0x54,0x55,0xb5,0xaa,0xaa,0xfe,0xff,0x0f,0xff,0xff,0xff,
 0xff,0xff,0xff,0xff,0xff,0x13,0x51,0xaa,0xaa,0x56,0x55,0x55,0xfb,0xff,0x0f,
 0xff,0xfd,0xff,0xff,0xff,0xff,0xff,0xff,0x2f,0x84,0x52,0xaa,0xaa,0xaa,0xaa,
 0xfa,0xff,0x0f,0xff,0xff,0xff,0xff,0xff,0xff,0xff,0xff,0x5f,0x51,0x95,0xaa,
 0xaa,0x56,0xb5,0xfe,0xff,0x0f,0xff,0xff,0xff,0x7f,0xff,0xff,0xff,0xdf,0x1f,
 0x22,0xaa,0xaa,0xaa,0xaa,0x55,0xfd,0xff,0x0f,0xff,0xff,0xff,0xff,0xff,0xff,
 0xff,0xff,0xaf,0x94,0x92,0x54,0x55,0x55,0xd5,0xfe,0xff,0x0f,0xff,0xff,0xff,
 0xff,0xef,0xff,0xff,0xff,0x3f,0x21,0x29,0x49,0x55,0x55,0xad,0xfd,0xff,0x0f,
 0xff,0xff,0xff,0xff,0xff,0xff,0xff,0xff,0xbf,0x94,0xa4,0xaa,0xaa,0xaa,0xaa,
 0xfa,0xff,0x0f,0xff,0xff,0xff,0xff,0xff,0xff,0xff,0xff,0x5f,0x52,0x12,0x29,
 0x55,0xd5,0xaa,0xff,0xff,0x0f,0xff,0xff,0xff,0xff,0xff,0xff,0xff,0xff,0xbf,
 0x24,0xa9,0xa4,0xaa,0xaa,0xb6,0xfc,0xff,0x0f,0x55,0x95,0xa4,0xaa,0xb6,0xda,
 0xb6,0xfd,0x5f,0x92,0x44,0x55,0x52,0xb5,0xaa,0xff,0xff,0x0f,0xad,0xed,0x7b,
 0xf7,0xef,0xf7,0xff,0x6f,0x3f,0x49,0x52,0xaa,0xaa,0xaa,0xaa,0xfe,0xff,0x0f,
 0x75,0x5b,0xad,0x4d,0x5a,0x2d,0xa9,0xda,0xaa,0x94,0xa4,0x24,0x55,0x55,0xd5,
 0xfe,0xff,0x0f,0x5b,0x6d,0x6b,0xb5,0x6b,0xdb,0xb6,0x6d,0x5b,0x4a,0x2a,0xaa,
 0xaa,0x5a,0x5b,0xb7,0xff,0x0f,0xd6,0xaa,0xae,0x6d,0xad,0xb6,0x6d,0xab,0x56,
 0x51,0xc1,0xa4,0x54,0xa5,0xaa,0x6c,0x55,0x0d,0x6b,0x77,0xeb,0x56,0xdb,0x55,
 0x5b,0x75,0xab,0x2a,0x2a,0x52,0x55,0x5a,0x55,0x5b,0xdb,0x0b,0xd6,0xaa,0x5a,
 0x6d,0xb5,0x6e,0xb5,0xad,0xad,0xa4,0x54,0x95,0x92,0xaa,0x6a,0xf5,0xb6,0x06,
 0x6d,0xb5,0xad,0xb6,0x5b,0xd5,0x6e,0x5b,0xb5,0x4a,0x42,0x55,0x6a,0x55,0xb5,
 0xae,0x6d,0x0b,0xd5,0x6e,0xdb,0xaa,0xea,0x5a,0x55,0xb5,0x55,0x92,0x94,0xa4,
 0x8a,0x52,0xd5,0x5a,0xdb,0x06,0x6e,0xab,0x6a,0xdb,0x36,0xd7,0xb6,0xdb,0x96,
 0xaa,0x52,0xaa,0x6a,0xad,0xaa,0xd6,0x6d,0x0b,0x99,0x5a,0x55,0xb5,0xea,0x5a,
 0x55,0x56,0x55,0x49,0x4a,0x55,0x55,0xa9,0xaa,0xbd,0xaa,0x06,0xee,0xd5,0xb6,
 0x56,0x5b,0x6d,0xdb,0xb5,0x55,0x25,0xa1,0xaa,0xaa,0xaa,0xaa,0xaa,0xdd,0x0b,
 0x95,0x5a,0x6d,0x6d,0x55,0xab,0xaa,0x56,0xab,0xaa,0x94,0x24,0x55,0x55,0x55,
 0x6b,0xab,0x06,0x6a,0x6d,0xab,0xb5,0xb6,0xb5,0x6d,0x6b,0x55,0x4a,0xaa,0xaa,
 0x6a,0xd5,0xaa,0x5d,0xd5,0x0a,0xdb,0xaa,0x56,0xab,0x6d,0x6d,0xdb,0xb6,0x55,
 0x29,0x51,0xa9,0x54,0x55,0x55,0xb5,0xbb,0x06,0xaa,0xb6,0xb5,0xd5,0xaa,0xaa,
 0xaa,0xaa,0x56,0x95,0x2a,0x55,0x55,0xab,0xaa,0xd6,0x56,0x0b,0x55,0x55,0x55,
 0xad,0xaa,0xaa,0xaa,0xaa,0x94,0xa4,0xa4,0xaa,0xaa,0xaa,0xaa,0xad,0xba,0x0d,
 0x55,0x55,0x55,0x55,0x55,0x5b,0x55,0x55,0x55,0x55,0x52,0x55,0x55,0x55,0xab,
 0x6a,0xd7,0x06,0xaa,0xaa,0xaa,0xaa,0xaa,0xaa,0xaa,0x5a,0x55,0x49,0x55,0x4a,
 0xd5,0xaa,0xaa,0xaa,0x54,0x05,0x5a,0x5b,0x55,0x55,0xb5,0xaa,0xb5,0x55,0x95,
 0x2a,0x49,0x55,0x55,0xad,0x5a,0x55,0xab,0x0a,0x55,0x55,0xab,0xaa,0xaa,0xaa,
 0xaa,0xaa,0xaa,0x4a,0xaa,0xaa,0xaa,0xaa,0xaa,0xb6,0x5a,0x05,0xaa,0xaa,0x5a,
 0x6b,0x55,0x55,0x55,0x55,0xa5,0xa4,0xaa,0x52,0x52,0x55,0xd5,0xca,0x6a,0x0b,
 0x55,0x55,0xa5,0x94,0x55,0x55,0x55,0xad,0x4a,0x95,0x54,0x55,0x55,0xab,0x2a,
 0xb5,0xaa,0x0a,0xaa,0xaa,0x5a,0xab,0xaa,0x56,0x55,0x55,0xa9,0x52,0xa5,0x54,
 0x55,0x55,0xd5,0x56,0x55,0x05,0x55,0x55,0x55,0x55,0x55,0xa9,0xaa,0xaa,0x12,
 0x25,0xa9,0xaa,0xaa,0xaa,0xaa,0xaa,0xad,0x06,0xaa,0xaa,0xaa,0xaa,0x55,0xad,
 0x56,0x55,0xd5,0x54,0x55,0x95,0xaa,0xb6,0x55,0x55,0xd5,0x0a,0x55,0x55,0x55,
 0x55,0xaa,0xaa,0xaa,0xaa,0x4a,0x95,0x4a,0xaa,0xaa,0xaa,0xaa,0xaa,0xaa,0x0a,
 0xaa,0xaa,0xaa,0xaa,0x56,0x55,0x55,0xad,0x2a,0xa5,0x54,0xa5,0xaa,0xaa,0x6a,
 0x5b,0x5b,0x05,0x55,0x55,0x55,0x55,0xb5,0xaa,0xaa,0x52,0xa5,0x94,0xaa,0xaa,
 0x54,0x55,0x55,0x55,0x55,0x0b,0xb5,0x56,0x55,0xb5,0xaa,0xaa,0xaa,0x5a,0x55,
 0x52,0x52,0x55,0xab,0xda,0xaa,0xaa,0x6a,0x05,0x4a,0xa9,0x6a,0x55,0x55,0x55,
 0x55,0x55,0x95,0xaa,0x2a,0xa5,0x54,0x55,0xab,0xaa,0xaa,0x0a,0xb5,0xd6,0xaa,
 0xaa,0xaa,0xaa,0xaa,0xaa,0xaa,0x4a,0x55,0x55,0x55,0xad,0xaa,0xaa,0x55,0x0b,
 0xaa,0x2a,0x55,0x55,0x55,0x55,0x55,0x55,0x55,0x92,0xa4,0xaa,0xaa,0x6a,0x6d,
 0xb5,0xaa,0x0a,0x55,0xd5,0xaa,0xaa,0xaa,0xaa,0xaa,0x55,0x55,0x55,0x55,0xa9,
 0xaa,0xaa,0xaa,0x56,0x6d,0x05,0xaa,0xaa,0x56,0x55,0x55,0xad,0x55,0xaa,0xaa,
 0x2a,0xa9,0xaa,0xaa,0x6a,0x55,0x55,0x55,0x0d,0xab,0xaa,0xaa,0xaa,0x56,0x55,
 0xaa,0x55,0x55,0x95,0xaa,0xaa,0xaa,0xaa,0x56,0x55,0x55,0x05,0x54,0x55,0xa9,
 0xaa,0x54,0x91,0x48,0x82,0xaa,0x65,0x4a,0x95,0x54,0x55,0xb5,0xda,0x6a,0x0b,
 0x95,0xaa,0xaa,0xaa,0xaa,0x2a,0x25,0x59,0xa9,0x2a,0x55,0x55,0x55,0xd5,0xaa,
 0x56,0xad,0x0a,0x22,0x41,0x92,0x44,0x02,0x00,0x80,0x22,0xd5,0xdf,0x54,0x55,
 0x55,0x55,0x4b,0x29,0x51,0x09,0xa9,0x3a,0x49,0x29,0xa9,0x12,0xa0,0x94,0xaa,
 0xaa,0x52,0x55,0x55,0x55,0x55,0x4a,0x2d,0x05,0x4a,0x44,0x92,0x94,0x04,0x00,
 0x00,0x4a,0x76,0x7f,0x55,0xa9,0xaa,0xaa,0x95,0x90,0x90,0x04,0xa9,0x52,0x55,
 0x25,0x21,0x00,0x81,0xa4,0xaa,0x5f,0xa9,0xaa,0xaa,0xaa,0x2a,0x55,0x4a,0x02,
 0x92,0x94,0x24,0x08,0x04,0x00,0x00,0xaa,0xda,0xff,0x53,0x55,0x55,0x55,0x97,
 0x48,0xa5,0x04,0x49,0x4a,0x4a,0x45,0x01,0x00,0x00,0x52,0x6d,0xff,0xaa,0xaa,
 0xaa,0xaa,0x55,0x92,0x28,0x05,0xaa,0x92,0x94,0x10,0x08,0x00,0x00,0x94,0xf6,
 0xfd,0x57,0x55,0x55,0xdb,0x2a,0x25,0x45,0x0a,0x24,0xa9,0x4a,0x05,0x82,0x00,
 0x08,0xa8,0x5a,0xff,0xad,0xaa,0x6a,0xad,0x96,0x90,0x28,0x01,0x49,0x4a,0x12,
 0x00,0x20,0x00,0x50,0x29,0xb5,0xff,0xff,0xd6,0xd6,0xba,0x2f,0x25,0xa5,0x04,
 0x54,0x25,0x49,0x95,0x00,0x00,0x20,0xa4,0xda,0xfa,0xaf,0x6d,0x6b,0x6f,0xab,
 0x92,0x12,0x05,0x25,0xaa,0x12,0x00,0x00,0x00,0xa4,0x52,0xb5,0xff,0xff,0xb7,
 0xbd,0xb5,0x15,0x24,0xa4,0x04,0x92,0x22,0x49,0x05,0x10,0x82,0x48,0x29,0x6d,
 0xf5,0xff,0x6d,0x6f,0xff,0xae,0x92,0x4a,0x02,0x54,0x94,0x2a,0x20,0x41,0x14,
 0xa2,0x4a,0xd5,0xfd,0xff,0xff,0xff,0x5b,0x29,0x49,0x24,0x05,0x92,0x4a,0x12,
 0x05,0x80,0x02,0x41,0x55,0xb5,0xee,0xfd,0xff,0xf5,0xfe,0x97,0xa4,0x92,0x04,
 0x2a,0xa9,0xa4,0x10,0x14,0x54,0x8a,0xaa,0x5a,0xf5,0xdf,0xbb,0xdf,0xab,0x4a,
 0x12,0x49,0x09,0x92,0x4a,0x2a,0x04,0x41,0xa5,0x2a,0x55,0xb5,0xbb,0xff,0xff,
 0xf7,0xde,0xa5,0xa4,0xa4,0x04,0x4a,0xa4,0x44,0x21,0x94,0x94,0x8a,0xaa,0x6a,
 0xed,0xff,0xb7,0xae,0x3b,0x15,0x49,0x0a,0x09,0xa5,0x52,0x52,0x88,0x42,0x2a,
 0x55,0x5c,0x5d,0xf5,0xf7,0xfe,0xfb,0xd6,0x55,0x92,0xa4,0x04,0x28,0x95,0x24,
 0x21,0xaa,0x55,0xaa,0xb2,0xaa,0xed,0xfe,0x57,0xab,0x2a,0x25,0x49,0x29,0x05,
 0x95,0xa4,0x92,0x0a,0x49,0xaa,0x55,0x5a,0xd5,0xb6,0xff,0xdf,0xdd,0xf6,0x95,
 0x94,0x94,0x02,0xa2,0x4a,0x4a,0xa8,0x92,0x2a,0xaa,0x62,0xb5,0xfa,0xea,0xaf,
 0xaa,0x95,0x2a,0x21,0x21,0x05,0xa9,0xa4,0x22,0x85,0x54,0x55,0x55,0x59,0x55,
 0xad,0xbf,0xbf,0x76,0x6d,0x95,0x94,0xaa,0x04,0x4a,0x4a,0x94,0x34,0x25,0x55,
 0x69,0xab,0x55,0xdb,0xea,0x5e,0xad,0xaa,0x2a,0x49,0x44,0x02,0x29,0x25,0x49,
 0x89,0x54,0x55,0x55,0xa5,0xaa,0xed,0xbe,0x7f,0x55,0x5b,0x95,0x94,0x32,0x09,
 0x52,0xa8,0x12,0x55,0x29,0x55,0x55,0x5b,0x55,0x55,0x6b,0xfd,0x6a,0xd5,0xa2,
 0x22,0x45,0x02,0x4a,0x95,0xa4,0xa2,0xaa,0xaa,0xaa,0x4a,0xad,0xba,0xb5,0xbf,
 0xaa,0xad,0x5a,0x54,0x51,0x09,0x94,0x22,0x49,0x14,0x29,0xa9,0x52,0xad,0xda,
 0xd5,0xae,0xea,0xab,0xaa,0x4a,0x89,0x94,0x02,0x4a,0xaa,0x94,0xa2,0xaa,0x54,
 0x4d,0x55,0xad,0x6e,0xeb,0xfe,0xb6,0x56,0x95,0x24,0x25,0x09,0x52,0x49,0x21,
 0x95,0xa4,0x52,0x29,0xb5,0xfb,0xaa,0x56,0xd5,0x4f,0xa9,0x2a,0x49,0x4a,0x02,
 0x89,0x94,0x94,0x48,0x52,0xaa,0xaa,0xaa,0x7e,0x6b,0xdb,0xf6,0x77,0xad,0x92,
 0x54,0x51,0x09,0x52,0x22,0x25,0x25,0xa5,0x44,0x25,0xa9,0xae,0xda,0xb6,0xaa,
 0x5e,0x55,0x24,0x21,0x25,0x05,0x29,0x55,0x49,0x89,0x54,0x53,0xaa,0x54,0xff,
 0x55,0x5b,0xb5,0x5b,0x55,0x95,0x4a,0x92,0x02,0x52,0x84,0x94,0x52,0x49,0x94,
 0x54,0xa5,0x5f,0xaa,0xd6,0x56,0x6f,0x49,0x29,0x92,0x54,0x04,0x29,0x53,0x45,
 0x09,0xaa,0x53,0x25,0xa9,0x76,0xb5,0xb5,0xda,0xfa,0x56,0xa5,0x54,0x8a,0x0a,
 0x42,0x14,0x92,0x54,0x49,0xa4,0x4a,0xd2,0x8b,0xaa,0xaa,0xaa,0x55,0x29,0x92,
 0xa2,0x24,0x01,0x5a,0x55,0x55,0x8a,0x54,0x15,0xa9,0x2a,0xbd,0xaa,0x56,0x6d,
 0xfd,0x4b,0x49,0x14,0xa9,0x0a,0x22,0x51,0xa8,0x50,0x22,0xa9,0x24,0x44,0x85,
 0xba,0xaa,0xaa,0xaa,0x2a,0x25,0xa9,0x92,0x04,0x55,0x8a,0x46,0x96,0x54,0x45,
 0x52,0x53,0x55,0x55,0x5b,0x55,0x6b,0xab,0x90,0x0a,0x49,0x02,0x88,0x54,0xa8,
 0x48,0x22,0x2a,0x45,0x24,0x12,0xea,0xaa,0xad,0xaa,0xaa,0x4a,0x50,0xaa,0x04,
 0x55,0x25,0x55,0x95,0x94,0x49,0xa9,0x52,0x49,0x55,0x55,0xb5,0x6d,0x55,0xa5,
 0x4a,0x45,0x0a,0x22,0x49,0x91,0x22,0x29,0x12,0x12,0x85,0x94,0x54,0xab,0xaa,
 0xaa,0x2a,0x89,0x92,0x94,0x00,0x94,0xa4,0xaa,0x94,0xa4,0x4a,0xa9,0x54,0x4a,
 0x6a,0xd5,0x56,0x55,0xab,0x52,0x54,0x52,0x0b,0x29,0x15,0x49,0x55,0x92,0x54,
 0x12,0x29,0x91,0x54,0xad,0xda,0xb6,0x2a,0x4a,0x49,0x09,0x04,0xa4,0xa4,0x94,
 0x24,0xa5,0x22,0xa5,0x92,0xaa,0xaa,0x55,0x55,0xab,0x55,0xa5,0x92,0xa4,0x05,
 0x49,0x49,0x51,0xa9,0x48,0x95,0x08,0x25,0x44,0x52,0xab,0xad,0xaa,0xaa,0x08,
 0x4a,0x2a,0x02,0x94,0x54,0x4a,0x2a,0x55,0x4a,0xa5,0x90,0xa9,0xd4,0x5a,0xd5,
 0x5a,0x2d,0x65,0x21,0x49,0x09,0x29,0x91,0x54,0xa5,0xa0,0x24,0x2a,0x4b,0x12,
 0x55,0xab,0x5a,0xd7,0xaa,0x88,0x4a,0x92,0x04,0x44,0x4d,0x92,0x2a,0x95,0x52,
 0x91,0x24,0x49,0x69,0x6d,0x6b,0x55,0x55,0xa5,0xa8,0x4a,0x05,0x29,0xa2,0x24,
 0xa9,0x4a,0x85,0x24,0x49,0x92,0xaa,0x5a,0x55,0xb5,0x2a,0x4a,0x12,0x91,0x08,
 0x54,0x29,0xaa,0x94,0xa4,0x54,0x4a,0x52,0x49,0x52,0xab,0x6a,0x5b,0xab,0x22,
 0xa5,0x54,0x05,0x41,0x92,0x48,0x25,0x49,0x95,0x90,0x24,0x95,0x54,0xdd,0xaa,
 0xa6,0x94,0x94,0x94,0x22,0x09,0x34,0x49,0x25,0xd5,0xaa,0xa4,0x4a,0x49,0x22,
 0xa9,0x56,0xd5,0x7a,0x57,0x25,0x89,0x94,0x04,0x45,0x92,0x4a,0x29,0x95,0x4a,
 0x2a,0x92,0x94,0xa4,0x6a,0x55,0xa5,0x54,0x48,0x52,0x2a,0x09,0x52,0x55,0xa4,
 0xaa,0xa4,0x2a,0x85,0x4a,0x4a,0xaa,0x5a,0xab,0xad,0x55,0x55,0x25,0x45,0x05,
 0x24,0x22,0x49,0x52,0x55,0xa5,0x28,0xa9,0xa8,0x54,0xb5,0xaa,0x5a,0xa5,0x82,
 0x48,0x28,0x02,0x55,0x95,0xa4,0xaa,0x2a,0x15,0x55,0x12,0x15,0xa5,0xda,0x6a,
 0x55,0x55,0x54,0xa5,0x4a,0x09,0x42,0xa4,0x4a,0x95,0xaa,0xaa,0x20,0x49,0xa2,
 0x48,0x55,0x55,0xab,0x8a,0x12,0x4a,0x52,0x05,0xa9,0x2a,0xa9,0x54,0x55,0x25,
 0x95,0xa4,0x54,0xaa,0x6a,0xab,0xd5,0x6a,0xa9,0x22,0x95,0x04,0x8a,0x44,0x92,
 0xaa,0xaa,0x8a,0x24,0x89,0x82,0x54,0x55,0x55,0x2d,0x15,0x45,0x94,0x48,0x02,
 0x52,0x2a,0x49,0xaa,0xaa,0x55,0x92,0x54,0x68,0x4a,0xb5,0x55,0xd5,0xaa,0x28,
 0xa5,0x92,0x0a,0xa4,0x48,0x52,0x55,0x5d,0x2b,0x49,0x22,0x85,0x90,0x6a,0xab,
 0xaa,0x4a,0xa5,0x48,0x2a,0x09,0x12,0x55,0xa9,0xaa,0x66,0x95,0x24,0x49,0x55,
 0xaa,0xaa,0xaa,0x56,0x55,0x12,0x95,0x92,0x04,0xaa,0x20,0x92,0xb4,0x55,0x55,
 0x4a,0x12,0x92,0x52,0xd5,0xaa,0x55,0x95,0xa4,0x24,0x24,0x09,0x49,0x56,0x29,
 0xab,0xda,0x2a,0x25,0x55,0x49,0x89,0xb4,0xad,0xaa,0xaa,0x52,0x52,0x53,0x05,
 0x92,0x88,0x52,0xda,0xaa,0xaa,0x48,0x48,0x15,0x52,0x55,0xab,0xaa,0x4a,0x84,
 0x84,0x24,0x09,0x49,0x55,0x94,0xad,0x56,0x2b,0x25,0x25,0x52,0x55,0xd5,0xaa,
 0x56,0x55,0x55,0x55,0xa9,0x04,0x92,0xa4,0xaa,0x7a,0xad,0x4a,0x54,0xaa,0x24,
 0x89,0x54,0xab,0xaa,0x4a,0x28,0x28,0x4a,0x09,0x54,0x4a,0xaa,0xaa,0x55,0x55,
 0x09,0x45,0x92,0xa4,0xd2,0xaa,0xaa,0x2a,0x85,0x46,0x25,0x05,0x49,0x91,0xaa,
 0xd6,0xaa,0x2a,0xa5,0x28,0x29,0x29,0x55,0xab,0x56,0xa5,0x54,0x29,0xa9,0x04,
 0x54,0x4a,0x55,0xb5,0xb6,0x4a,0x51,0x92,0x44,0xa5,0xaa,0xad,0x5a,0x55,0x52,
 0x92,0x14,0x05,0x89,0x94,0xaa,0xd6,0x4a,0x29,0x8a,0x24,0x95,0x94,0x64,0x55,
 0x55,0x85,0x84,0x24,0x51,0x02,0x25,0xa5,0xd4,0x7a,0x55,0x55,0xa5,0x52,0x49,
 0xa2,0x92,0x56,0x55,0x55,0x55,0xaa,0x4a,0x09,0x54,0x12,0x55,0xd5,0xaa,0x82,
 0x08,0x89,0x24,0x95,0xaa,0xad,0xaa,0x12,0x92,0x10,0x95,0x02,0x25,0xa9,0x6a,
 0x5b,0x2b,0x35,0xa5,0x54,0x52,0x49,0x52,0x55,0xb5,0xaa,0xa4,0xaa,0x48,0x0a,
 0x48,0x42,0x54,0xb5,0xaa,0x48,0x94,0x22,0x85,0xa4,0x4a,0xad,0xaa,0x12,0x09,
 0x45,0xa5,0x04,0xa6,0xaa,0xaa,0x5d,0x15,0x25,0x49,0x48,0x52,0x52,0x52,0xd5,
 0xaa,0x4a,0xaa,0x50,0x52,0x05,0x48,0x24,0xa4,0x6a,0xa5,0x94,0x24,0x95,0x94,
 0x8a,0x4a,0x35,0x55,0x95,0x50,0x95,0x24,0x02,0x2a,0x95,0xaa,0x56,0x55,0x49,
 0x49,0xa5,0x4a,0x51,0xa9,0xda,0x6a,0x55,0x26,0x4a,0x55,0x09,0x92,0x48,0xa9,
 0x55,0x09,0x25,0x12,0x12,0x11,0x8a,0x52,0xa5,0x4a,0xa5,0x48,0x91,0x88,0x02,
 0x49,0xa5,0xa4,0x6a,0xa5,0x48,0xa5,0xa4,0x54,0x55,0x8a,0x6a,0x55,0x15,0xa5,
 0x54,0x55,0x0a,0x92,0x14,0xa9,0xaa,0x4a,0x25,0x94,0x4a,0x49,0x90,0xaa,0x96,
 0xaa,0xaa,0x0a,0x25,0xa2,0x04,0x54,0xa5,0x4a,0x55,0x52,0x88,0x22,0x91,0x24,
 0x4b,0x52,0x69,0x55,0xa9,0xa4,0x52,0x95,0x02,0x22,0x48,0x24,0x4a,0x89,0x52,
 0x4a,0x4a,0x4a,0x94,0xa4,0x96,0xa0,0x4a,0x52,0xa4,0x24,0x05,0x95,0xaa,0xaa,
 0x29,0x55,0x2a,0x91,0xa4,0x52,0xa5,0x2a,0x55,0x95,0xaa,0x94,0x4a,0xaa,0x04,
 0x54,0x11,0x41,0x52,0x48,0x41,0x4a,0x09,0x24,0x49,0x92,0x54,0xaa,0x92,0x52,
 0x92,0x44,0x09,0x8a,0xa4,0x2c,0x49,0x25,0x5a,0x25,0xd4,0x4a,0x2a,0x49,0x55,
 0x51,0x55,0x24,0xa9,0x2a,0x05,0x24,0x95,0x92,0x92,0xaa,0x24,0x52,0x11,0x91,
 0x50,0x2a,0xa9,0x56,0xaa,0x4a,0x12,0x51,0x0a,0xaa,0x44,0xa4,0x54,0x21,0x49,
 0x89,0x4a,0x2a,0x15,0xa5,0x4a,0xa9,0x25,0x91,0xaa,0x2a,0x05,0x24,0xa9,0x12,
 0x21,0x4a,0x25,0x55,0x54,0x49,0xa2,0x94,0x52,0x2b,0x92,0x24,0x44,0x44,0x08,
 0x92,0x4a,0xa4,0x4c,0xa9,0xa8,0x88,0x22,0x52,0x55,0x4a,0xaa,0xd4,0x4a,0xaa,
 0xa9,0xaa,0x06,0x4a,0x24,0x49,0x12,0x12,0x45,0x25,0x95,0x24,0x8a,0x54,0x45,
 0x2b,0x29,0x09,0x92,0x94,0x08,0x51,0x49,0x25,0x49,0x49,0x29,0x52,0xa2,0x4a,
 0xa1,0x22,0xa9,0x54,0x85,0xd2,0x4a,0x4a,0x05,0x8a,0x92,0x94,0x52,0x52,0x52,
 0x89,0x14,0x92,0x2a,0x55,0x2a,0x55,0x52,0x24,0xa9,0x28,0x05,0xa4,0x24,0x49,
 0x29,0x25,0x89,0x54,0x49,0x49,0x48,0x92,0x4a,0x55,0x15,0x95,0x24,0x95,0x04,
 0x12,0x49,0x12,0x42,0x4a,0x52,0x22,0x92,0x92,0x92,0x24,0x29,0xaa,0xa0,0x24,
 0x95,0x22,0x09,0xa9,0x54,0xa9,0x2a,0x25,0x95,0x94,0x4a,0x54,0x55,0xaa,0x54,
 0x55,0x2b,0xa9,0xa4,0x54,0x05,0x92,0x22,0x22,0xa9,0x48,0x24,0x49,0x94,0x22,
 0x22,0x49,0xa5,0xa8,0x44,0x92,0x92,0x4a,0x02,0x24,0x49,0x95,0x14,0xa5,0x92,
 0xa4,0xa2,0x94,0x94,0x2a,0x29,0xa5,0x2a,0x29,0xa9,0x24,0x09,0x4a,0x2a,0x49,
 0xa2,0x94,0xa4,0x12,0x09,0xa9,0x22,0xa4,0xa4,0x94,0x52,0x45,0x12,0xa9,0x02,
 0xa2,0x44,0x52,0x29,0x25,0x55,0xa4,0xaa,0x44,0x94,0x2a,0x55,0x42,0x15,0xa9,
 0x4a,0x25,0x09,0x94,0x92,0x84,0x44,0x52,0x22,0x49,0x28,0x29,0xa9,0x50,0x92,
 0x2a,0x49,0x12,0x29,0x49,0x0a,0x4a,0x54,0x52,0xaa,0x94,0x94,0x94,0x92,0x94,
 0x4a,0x4a,0x49,0x49,0x55,0xa9,0x94,0x54,0x05,0xa4,0xa2,0x24,0x11,0x51,0x22,
 0x51,0x4a,0x21,0xa4,0x92,0x2a,0x92,0x24,0x45,0xa2,0x92,0x04,0x52,0x14,0x95,
 0xaa,0x24,0x95,0x8a,0xa2,0x94,0x29,0xa9,0x44,0x25,0x95,0x28,0x55,0x4a,0x05,
 0x84,0x52,0x48,0x44,0x95,0x28,0x29,0x14,0x25,0x42,0x92,0x2a,0x94,0x48,0xa5,
 0xa4,0x94,0x04,0x52,0x49,0xa5,0x2a,0x22,0x45,0x92,0xa5,0x52,0x29,0x49,0x92,
 0x22,0x55,0x52,0x4a,0x52,0x05,0x25,0x92,0x12,0x91,0x94,0x94,0x24,0x12,0x44,
 0xaa,0x54,0x55,0x95,0x20,0x89,0x94,0x4a,0x02,0x92,0xaa,0x48,0xaa,0x4a,0x52,
 0x92,0xa4,0xaa,0x12,0xa5,0x24,0x52,0x94,0xa4,0xa2,0x24,0x09,0xa4,0x00,0x95,
 0x04,0x91,0x24,0xa5,0x92,0x08,0x4a,0x92,0x4a,0x25,0xa1,0x2a,0x95,0x52,0x0a,
 0x55,0xb6,0x44,0x69,0x4a,0x95,0x52,0x48,0xd5,0xa2,0xa4,0x2a,0x91,0x48,0x92,
 0xa8,0x54,0x05,0x88,0x48,0x92,0x82,0x28,0x22,0x84,0x2a,0x22,0x94,0x92,0x54,
 0x2a,0x81,0xa4,0x12,0x49,0x02,0x52,0x25,0x55,0x54,0x92,0x54,0x55,0x45,0x49,
 0x25,0xa9,0x92,0x52,0xa2,0x2a,0x55,0x25,0x09,0x4a,0x92,0x20,0x29,0xa5,0x42,
 0x12,0x92,0x2a,0x49,0x42,0x2a,0x49,0x01,0xa4,0xa4,0x54,0x05,0x24,0x29,0x95,
 0x4a,0x91,0x28,0x49,0x55,0x91,0xaa,0x2a,0xa5,0x54,0x40,0x53,0x52,0x92,0x04,
 0x92,0xa4,0x24,0x92,0x24,0xa5,0x54,0x08,0x4a,0x44,0x54,0xa9,0xa2,0x12,0x84,
 0x8a,0xaa,0x0a,0x49,0x4a,0x52,0x49,0x4a,0x49,0x92,0x66,0x25,0xa9,0x8a,0x2a,
 0x95,0x40,0x55,0x52,0x49,0x02,0x92,0x94,0x24,0x25,0x11,0x25,0x25,0x89,0x48,
 0x11,0x51,0x52,0x52,0x92,0x94,0x94,0x92,0x04,0xa4,0x22,0x95,0x90,0xaa,0x50,
 0x49,0x52,0x55,0x4a,0x8a,0x4a,0x15,0x21,0xa5,0x4a,0xa9,0x0a,0x4a,0x4a,0x52,
 0x25,0x49,0x85,0x94,0x24,0x49,0xa9,0x24,0x94,0x20,0x44,0x12,0x11,0x4a,0x09,
 0x91,0x24,0x49,0x54,0x52,0x5a,0x49,0x92,0x24,0x12,0xa9,0x4a,0x4d,0x21,0xa9,
 0xaa,0xa5,0x04,0x4a,0x52,0x92,0x92,0x24,0x21,0x92,0x54,0x4a,0xa9,0x44,0x51,
 0x12,0x4a,0x25,0x25,0x94,0x0a,0x24,0x89,0x24,0x49,0x92,0x4a,0x49,0x25,0xa5,
 0x24,0x29,0x2a,0x49,0x41,0x92,0xa8,0xaa,0x04,0x49,0x55,0x49,0x92,0x54,0x94,
 0x2a,0x4a,0x48,0x45,0x52,0x91,0x2a,0xaa,0x54,0xa5,0x24,0x09,0xa4,0x88,0xa4,
 0xaa,0x92,0x4a,0x92,0x22,0x2b,0x52,0x89,0xa4,0x44,0x01,0x4a,0x92,0x4a,0x05,
 0x8a,0x52,0x4a,0x44,0x2a,0x91,0xa4,0x54,0xa4,0x94,0x52,0x4a,0x2a,0x6a,0x91,
 0x2a,0x29,0x05,0x52,0x24,0x25,0xa9,0x44,0x4a,0x4a,0xaa,0x92,0x4a,0x24,0x25,
 0x49,0x91,0xaa,0xa4,0x94,0x04,0xa4,0x92,0x48,0x85,0x92,0x54,0x91,0x44,0x25,
 0x91,0x4a,0x48,0x95,0x4a,0x12,0x49,0xa9,0x02,0x15,0x29,0x55,0x52,0xa9,0x22,
 0x4a,0x29,0xa9,0x54,0x92,0xaa,0x48,0x21,0x49,0x55,0x4a,0x09,0xa8,0x44,0x22,
 0x09,0x12,0x95,0x14,0x45,0x4a,0xa5,0x24,0x11,0x25,0x56,0x2a,0x89,0x94,0x02,
 0x12,0xa9,0x94,0x6a,0xa5,0xa0,0xa2,0x52,0x25,0x29,0x92,0x4a,0x55,0x91,0x92,
 0x52,0x52,0x0a,0xa5,0x92,0x52,0x84,0x94,0x4a,0x4a,0x24,0x48,0x42,0x29,0x24,
 0x92,0x56,0x4a,0xa4,0xa4,0x04,0x54,0x4a,0x29,0x55,0x49,0x2a,0x29,0x95,0x2a,
 0xa9,0x94,0x4a,0x49,0x29,0x51,0x55,0x2a,0x05,0x92,0x54,0x52,0x29,0x55,0x49,
 0xa5,0xaa,0x52,0x15,0x21,0x91,0x24,0xa5,0x84,0x88,0x44,0x02,0xaa,0xaa,0x4a,
 0xaa,0x24,0xa5,0x52,0xa2,0x94,0xa4,0x56,0x4a,0x52,0x15,0x55,0xa5,0x52,0x09,
 0x00,0x00,0x24,0x81,0x88,0x08,0x04,0x09,0x21,0x89,0x48,0x11,0xa5,0x54,0x10,
 0x12,0x24,0x02,0x55,0xab,0x49,0x54,0x52,0x52,0xa9,0xa4,0x94,0x24,0x25,0x4a,
 0x52,0x2a,0xa5,0xa4,0x92,0x0a,0x6e,0x6d,0xb7,0xbb,0x6f,0xef,0xb6,0xbb,0x6f,
 0xdf,0x94,0x28,0x89,0xd2,0x6d,0xdb,0x6e,0x05,0xdb,0xb6,0x5a,0x55,0xb5,0xb5,
 0x6d,0xdd,0xda,0x6a,0x22,0x45,0xa4,0xaa,0xaa,0x55,0x55,0x0b,0x7d,0xdf,0xff,
 0xff,0xff,0xff,0xbf,0x77,0xf7,0x9b,0x94,0x08,0x51,0xfa,0xdf,0xfe,0xff,0x0e,
 0xd7,0x75,0x6b,0xdb,0xb6,0xdf,0xea,0xad,0x5b,0x6d,0x45,0xa4,0x28,0x49,0xb5,
 0x55,0x55,0x0b,0xfd,0xdf,0xff,0xff,0xfb,0x7a,0x5f,0x7b,0x6d,0x9b,0x10,0x11,
 0xa2,0xba,0xdd,0xee,0xee,0x06,0x6f,0xf5,0xdd,0xdd,0xbe,0xff,0xeb,0x56,0xb7,
 0x6d,0x4a,0x8a,0x54,0xea,0xb6,0xbb,0xbb,0x0d,0xdd,0x5f,0x77,0xf7,0xeb,0x56,
 0x5d,0xbb,0xda,0x96,0x90,0x50,0x42,0x55,0xdb,0xd6,0xd6,0x06,0xf6,0xf5,0xff,
 0xff,0xfe,0xff,0xeb,0xd6,0x6d,0x6b,0x25,0x84,0x50,0xea,0x6e,0xbb,0xed,0x0d,
 0x5b,0x6f,0xed,0xee,0xdf,0xbb,0xdd,0xbd,0xdb,0x1e,0x92,0x12,0x8a,0xfa,0xfb,
 0xed,0xbf,0x07,0xf6,0xdb,0xbf,0xbb,0xfb,0xfe,0xb7,0xd6,0x76,0x6b,0x09,0x44,
 0x51,0xad,0x5e,0xff,0x6a,0x0d,0x00,0x00,0x00,0x00,0x00,0x00,0x00,0x00,0x00,
 0x80,0xa4,0x28,0x22,0x52,0x51,0x81,0x56,0x05,0x95,0x54,0x55,0x55,0x25,0x05,
 0x40,0x4a,0x55,0x55,0x2a,0x85,0x54,0xa9,0x56,0x7d,0xab,0x0a,0xaa,0xaa,0xa8,
 0x4a,0x4a,0xd4,0x96,0x32,0x89,0xaa,0x52,0x2a,0x92,0x02,0x00,0x00,0x44,0x00,
 0x49,0x12,0x45,0x24,0x25,0x25,0xa9,0x94,0x52,0x84,0xaa,0x91,0xa4,0xaa,0xaa,
 0xaa,0x2a,0x05,0x24,0xa1,0x88,0x92,0x90,0x10,0x22,0x21,0x24,0xa9,0x56,0x45,
 0x88,0x24,0x29,0x91,0x90,0x04,0x91,0x14,0x52,0x44,0x24,0xa5,0x94,0x94,0x89,
 0xa4,0xaa,0x2a,0x55,0x92,0x44,0x2a,0x4b,0x02,0x44,0xa2,0x4a,0x29,0x95,0x14,
 0x41,0x22,0x12,0x91,0xfe,0x17,0x48,0x25,0x29,0x41,0x24,0x05,0x92,0x54,0x21,
 0x92,0x42,0xa2,0x94,0x94,0xa4,0x44,0xab,0x8a,0x52,0x92,0x44,0x2a,0x49,0x02,
 0xaa,0x92,0x4a,0x45,0x94,0x14,0x55,0x22,0x29,0xa9,0xfe,0xbf,0x4a,0xa5,0xaa,
 0x4a,0x95,0x0a,0xa9,0x4a,0xa9,0x28,0x55,0x4a,0x89,0x54,0x95,0x54,0xed,0x56,
 0xa5,0x54,0x29,0xa9,0x52,0x05,0x52,0xaa,0xaa,0x4a,0x49,0x51,0x52,0x09,0x22,
 0x81,0xbf,0x1f,0x08,0x09,0x52,0x92,0x24,0x0a,0x4d,0x55,0x55,0x55,0x25,0x95,
 0x94,0x64,0x49,0x6a,0xf5,0x5b,0xa5,0xa4,0x2a,0x55,0x55,0x05,0x52,0x29,0x49,
 0x52,0xaa,0x24,0x51,0x92,0x94,0x48,0xdb,0xae,0x12,0x49,0x44,0x22,0x49,0x02,
 0x54,0x4a,0x55,0x55,0x55,0xaa,0x0a,0x25,0x4a,0x52,0xfd,0x5f,0xa4,0x92,0x52,
 0x95,0x54,0x09,0x42,0x11,0x22,0x49,0x49,0x95,0x54,0x48,0x91,0x54,0x6b,0x5b,
 0x11,0x24,0x04,0xa4,0x92,0x02,0xa9,0xa4,0x94,0x54,0x2a,0x49,0x52,0x25,0x4a,
 0xaa,0xfd,0x2f,0xa4,0x92,0x52,0x53,0x4a,0x0a,0x0a,0x95,0x52,0x49,0x49,0x52,
 0xa5,0xaa,0x54,0x69,0xab,0x55,0x09,0x49,0x55,0x94,0x54,0x09,0x52,0x49,0x94,
 0x94,0x54,0x95,0x54,0x92,0x4a,0xaa,0xf6,0x5e,0x44,0x92,0x88,0x4a,0xa5,0x04,
 0x24,0x92,0x22,0x21,0x81,0x24,0x89,0x54,0x52,0xb5,0x6d,0x53,0x91,0x24,0x25,
 0x11,0x12,0x09,0x52,0x25,0x49,0x95,0x6c,0xaa,0xaa,0x2a,0xa9,0xda,0xb6,0x5b,
 0x2a,0x89,0xa8,0x54,0xa5,0x04,0x8a,0x48,0x12,0x49,0x91,0x52,0x55,0x49,0x05,
 0x55,0x6d,0xa5,0xa4,0x24,0x41,0xa2,0x94,0x02,0x51,0xaa,0xaa,0x54,0x4a,0xa9,
 0x92,0x54,0xd2,0xaa,0xb5,0xad,0x4a,0x92,0x94,0x54,0x4a,0x04,0x4a,0x49,0x54,
 0x95,0xaa,0x12,0x25,0x49,0x15,0x55,0x6a,0x55,0x94,0x54,0x49,0x00,0x21,0x01,
 0x92,0xa4,0x12,0x55,0x55,0xaa,0xaa,0xa4,0x50,0x55,0xab,0xaa,0x4a,0x25,0x92,
 0xaa,0x94,0x04,0x24,0x09,0x49,0x20,0x81,0x24,0x41,0x12,0x55,0xa9,0xb4,0x4a,
 0x92,0x48,0x25,0x45,0x22,0x05,0x49,0xa2,0xa4,0x4a,0xaa,0xaa,0x2c,0xa9,0x54,
 0x55,0x6a,0x55,0x25,0x55,0xa9,0xa8,0x94,0x02,0x84,0x14,0x12,0x95,0x14,0x49,
 0x51,0x55,0xa5,0x82,0x5a,0x55,0x55,0x12,0x42,0x25,0x29,0x04,0x21,0x41,0x49,
 0x49,0xa5,0x24,0xad,0x4a,0x5a,0x59,0xaa,0xaa,0xaa,0xca,0x2a,0x92,0x44,0x05,
 0x94,0x14,0x24,0x52,0xaa,0xaa,0x10,0xa9,0x55,0xa7,0xb7,0xaa,0x4a,0x29,0x49,
 0x55,0xa9,0x04,0x21,0x82,0x92,0x2a,0x25,0x49,0xaa,0x94,0x56,0xa9,0x5a,0xab,
 0xaa,0x4a,0x2a,0x29,0x2a,0x05,0x00,0x08,0x00,0x80,0x48,0x92,0x22,0x21,0xa9,
 0xb6,0xa2,0x54,0x55,0xaa,0xa4,0x44,0x91,0x04,0x14,0xa1,0x4a,0x55,0xa4,0xaa,
 0x94,0x94,0xb6,0xda,0x4a,0xaa,0xa4,0x52,0x52,0x2a,0x4a,0x05,0x00,0x00,0x00,
 0x00,0x01,0x00,0x00,0x40,0x40,0x80,0x12,0x11,0x09,0x85,0x84,0x90,0x10,0x02,
 0x80,0x08,0x40,0x40,0x48,0x2a,0x49,0x15,0x29,0x55,0x89,0xaa,0x52,0x52,0x55,
 0x4a,0x4a,0x09,0x2a,0x52,0x15,0x12,0x00,0x80,0x00,0x00,0x80,0x00,0x54,0x00,
 0x00,0x00,0x48,0x91,0x24,0x02,0x08,0x09,0x80,0x00,0x25,0x25,0x28,0x21,0x55,
 0xaa,0x22,0x95,0x94,0xaa,0x22,0x24,0x49,0x05,0x40,0x20,0x01,0x00,0x00,0x00,
 0x01,0x04,0x00,0x01,0x94,0x04,0x00,0x00,0x88,0x80,0x24,0x08,0x0a,0x04,0x28,
 0x48,0x40,0x42,0x88,0x00,0x51,0x54,0x49,0xa2,0x22,0x49,0x02,0x54,0x88,0x02,
 0x00,0x20,0x81,0x02,0x09,0x08,0x21,0x12,0x04,0x89,0x52,0x4d,0x84,0x20,0x28,
 0x01,0x51,0x04,0x40,0x02,0x00,0x50,0xa2,0x52,0x08,0x40,0x41,0x52,0xa4,0x22,
 0x29,0x8a,0x82,0xa8,0x0a,0x05,0x12,0x48,0x24,0x00,0x08,0x00,0xa1,0x12,0x24,
 0x88,0x8a,0x94,0xa4,0x24,0x54,0x12,0x52,0x02,0x00,0x02,0x81,0x14,0x01,0x49,
 0x08,0x04,0x08,0x45,0x62,0x2a,0x09,0x49,0x89,0xc4,0x24,0x09,0xa4,0x00,0x00,
 0x00,0x08,0x00,0x02,0x50,0x21,0x90,0x88,0x00,0x20,0x00,0x22,0x09,0x82,0x00,
 0x08,0x48,0x24,0x81,0x40,0x24,0x40,0x02,0x88,0x4a,0xa4,0xaa,0x4a,0xaa,0x10,
 0x52,0x51,0x04,0x00,0x02,0x00,0x24,0x04,0x81,0x04,0x10,0x02,0x00,0x11,0x04,
 0x00,0x00,0x42,0x00,0x00,0x01,0x84,0x80,0x10,0x00,0x20,0x10,0x90,0x84,0x90,
 0xa0,0x88,0xa2,0x10,0x91,0x08,0x49,0x2a,0x00};
