#define noname_width 165
#define noname_height 270
static char noname_bits[] = {
 0x6d,0xd5,0x6a,0x55,0xad,0xaa,0x54,0xab,0x6a,0x55,0x55,0xd5,0x5a,0xd5,0x56,
 0x55,0xb5,0xaa,0xaa,0xaa,0x15,0xb6,0xad,0xaa,0x56,0x55,0x55,0x55,0x55,0x55,
 0x55,0x55,0x55,0x55,0x55,0xa9,0xaa,0x56,0x55,0xb5,0xb5,0x16,0xff,0xff,0xff,
 0xfd,0xfd,0x6e,0xab,0xaa,0xad,0xaa,0xaa,0xaa,0xaa,0xaa,0x56,0xad,0xaa,0xda,
 0xaa,0xaa,0x0a,0xbf,0x77,0x5b,0xaf,0x56,0xb5,0x6d,0x6b,0x55,0x5b,0xb5,0xad,
 0x56,0xb5,0xaa,0xd5,0x6a,0xab,0x56,0x6d,0x1b,0xff,0xff,0xff,0xff,0xff,0xff,
 0xff,0xff,0xff,0xff,0xdf,0xf6,0xed,0x6e,0x6d,0xb5,0x56,0xb5,0xda,0xaa,0x0a,
 0xff,0xff,0xff,0xff,0xff,0xff,0xff,0xff,0xff,0xdb,0xf6,0xaf,0x5a,0xab,0x56,
 0xad,0xaa,0xad,0xad,0xb6,0x15,0xff,0xff,0xff,0xff,0xff,0xff,0xff,0xff,0xff,
 0xff,0xff,0xff,0xff,0xff,0xff,0xff,0xff,0xff,0xf7,0x6d,0x0f,0xff,0xff,0xff,
 0xff,0xff,0xff,0xff,0xff,0xff,0xff,0xff,0xff,0xff,0xff,0xff,0xff,0x7f,0x5b,
 0x5d,0xb7,0x15,0xff,0xff,0xff,0xff,0xff,0xff,0xff,0xff,0xdf,0xff,0xff,0xff,
 0xff,0xff,0xff,0xff,0xff,0xff,0xff,0xff,0x1f,0xff,0xff,0xff,0xff,0xff,0xff,
 0xff,0xff,0xff,0xff,0xff,0xff,0xff,0xff,0xff,0xff,0xff,0xff,0xff,0xff,0x1f,
 0xff,0xff,0xff,0xff,0xff,0xff,0xff,0xff,0xff,0xff,0xff,0xff,0xff,0xff,0xff,
 0xff,0xff,0xff,0xff,0xff,0x1f,0xf7,0xff,0xff,0xff,0xff,0xff,0xff,0xff,0xff,
 0xff,0xff,0xff,0xff,0xff,0xff,0xff,0xfe,0xff,0xff,0xff,0x1f,0xff,0xff,0xff,
 0xff,0xff,0xff,0xff,0xbf,0xff,0xff,0xbf,0xff,0xff,0xff,0xff,0xff,0xff,0xff,
 0xff,0xff,0x1f,0xff,0xff,0xff,0xff,0xff,0xff,0xbf,0xff,0xff,0xff,0xff,0xf7,
 0xff,0xff,0xff,0xff,0xff,0xff,0xff,0xff,0x1f,0xff,0xdf,0xff,0xff,0xef,0xff,
 0xff,0xff,0xff,0xff,0xfb,0xbd,0xff,0xff,0xff,0xff,0xff,0xff,0xff,0xff,0x1f,
 0xff,0xff,0xff,0xfe,0xff,0xff,0xfe,0xff,0xff,0xff,0xff,0xff,0xff,0xff,0xff,
 0xff,0xff,0xff,0xff,0xff,0x1f,0xff,0xff,0xfb,0xef,0xff,0xef,0xff,0xff,0xff,
 0xff,0xdf,0xff,0xff,0xff,0xff,0xff,0xff,0xff,0xff,0xff,0x1f,0xff,0xff,0xff,
 0xff,0xff,0xff,0xff,0xff,0xff,0xf7,0xfd,0xf6,0xfb,0xff,0xff,0xff,0xf7,0xff,
 0xff,0xff,0x1f,0xff,0xfe,0xff,0xff,0xff,0xff,0xff,0xff,0x77,0xff,0xff,0xff,
 0xff,0xff,0xff,0xff,0xff,0xff,0xff,0xff,0x1f,0xff,0xff,0xff,0xff,0xff,0xff,
 0xff,0xff,0xff,0x7f,0xdf,0xff,0xde,0xff,0xff,0xff,0xff,0xff,0xff,0xff,0x1f,
 0xff,0xff,0xff,0xff,0xff,0xff,0xff,0xdf,0xff,0xff,0xff,0xbf,0xff,0xff,0xff,
 0xff,0xff,0xff,0xff,0xf7,0x1f,0xff,0xff,0xff,0xff,0x7f,0xff,0xff,0xff,0xff,
 0xff,0xfb,0xfe,0xff,0xfd,0xfb,0xff,0xff,0xff,0xff,0xff,0x1f,0xff,0xff,0xff,
 0xff,0xff,0xff,0xff,0xff,0xff,0xdb,0xff,0xff,0xff,0xff,0xff,0xef,0xff,0xff,
 0xff,0xff,0x1f,0xff,0xff,0xff,0xff,0xfb,0xff,0x7f,0xff,0xff,0xff,0xff,0xff,
 0xff,0xff,0xff,0xff,0xff,0xff,0xff,0xff,0x1f,0xff,0xff,0xff,0xff,0xff,0xff,
 0xff,0xff,0xff,0xfe,0xff,0xff,0xff,0xff,0x7f,0xff,0xff,0xfd,0xef,0xff,0x1f,
 0xff,0xff,0xff,0xfd,0xff,0xff,0xff,0xff,0xff,0xff,0xff,0xff,0xff,0xff,0xff,
 0xff,0xff,0xff,0xff,0xff,0x1f,0xff,0xef,0xef,0xff,0xff,0x7b,0xff,0xff,0xdf,
 0xff,0xff,0xff,0xff,0xfe,0xff,0xff,0xff,0xff,0xff,0xff,0x1f,0xff,0xff,0xff,
 0xdf,0xff,0xff,0xff,0xff,0xff,0xef,0xfe,0x6f,0xff,0xff,0xff,0xff,0xff,0xbf,
 0xff,0xff,0x1f,0xff,0xff,0xfd,0xff,0xff,0xff,0xff,0xbf,0xff,0xff,0xb7,0xfd,
 0xdd,0xfb,0xff,0xff,0xff,0xff,0xff,0xff,0x1f,0xef,0xff,0xff,0xff,0xff,0xff,
 0xdf,0xff,0xff,0xff,0xff,0xbf,0xff,0xff,0xff,0xff,0xff,0xff,0xff,0xff,0x1f,
 0xff,0xff,0xff,0xff,0xff,0xff,0xff,0xff,0x7f,0xff,0xff,0xff,0xff,0x7f,0xff,
 0xff,0xff,0xff,0xff,0xff,0x1f,0xff,0xff,0xff,0xff,0xef,0xff,0xff,0xff,0xff,
 0xff,0xfd,0xff,0xff,0xff,0xff,0xff,0xff,0xff,0xff,0xff,0x1f,0xff,0xff,0xff,
 0xff,0xff,0xff,0xff,0xff,0xff,0xdb,0xf7,0xd7,0xff,0xff,0xff,0xff,0xfb,0xff,
 0xff,0xff,0x1f,0xff,0xff,0xff,0xff,0xff,0xff,0xff,0xff,0xff,0xff,0xfe,0xff,
 0xff,0xf7,0xff,0xff,0xff,0xff,0xff,0xff,0x1f,0xff,0xff,0xff,0xff,0xff,0xff,
 0xff,0xff,0xff,0xff,0xbb,0x77,0xff,0xff,0xff,0xdf,0xff,0xff,0xff,0xff,0x1f,
 0xff,0xfe,0xff,0xff,0xff,0xff,0xff,0xff,0xff,0xb7,0xfe,0xdf,0xff,0xfb,0xff,
 0xff,0xff,0xff,0xff,0xff,0x1f,0xff,0xdf,0xff,0xff,0xff,0xfb,0xff,0xff,0xff,
 0xff,0xeb,0xff,0xff,0xef,0xff,0xff,0xff,0xff,0xff,0xff,0x1f,0xff,0xff,0xff,
 0xff,0xff,0xff,0xff,0xff,0xff,0xef,0xfe,0x7b,0xff,0xfb,0xff,0xff,0xff,0xff,
 0xff,0xff,0x1f,0xff,0xff,0xff,0xff,0xff,0xff,0xbf,0xff,0xfe,0xbf,0xf7,0xee,
 0xff,0xbf,0xff,0xff,0xff,0xff,0xbf,0xdf,0x1f,0xff,0xff,0xff,0xbf,0xff,0xff,
 0xff,0xff,0xff,0xf7,0xdd,0xff,0xff,0xeb,0xff,0xff,0xff,0xff,0xff,0xff,0x1f,
 0xf7,0xfd,0xbb,0xfb,0xff,0xff,0xff,0xff,0xff,0x5f,0xf7,0xdb,0x76,0xff,0xff,
 0xff,0xff,0xff,0xff,0xff,0x1f,0xbe,0xbf,0xff,0xff,0xfd,0xff,0xff,0xff,0xff,
 0xf7,0xfd,0xfe,0xff,0xef,0xff,0xff,0xff,0xff,0xff,0xff,0x1f,0x55,0xd5,0xaa,
 0xaa,0x96,0xaa,0x6a,0x6b,0xb7,0xbd,0xdb,0xff,0xef,0xba,0xff,0xff,0xff,0xff,
 0xff,0xff,0x1f,0xee,0xbb,0xdd,0xdf,0x77,0x77,0xff,0xfe,0xfd,0xff,0xf6,0x6f,
 0xff,0xf7,0xfd,0xff,0xff,0xff,0xff,0xff,0x1f,0x35,0x6d,0x6b,0x69,0xda,0xad,
 0xd5,0x55,0xab,0x6a,0xbf,0xfd,0xbd,0xfe,0x57,0xd5,0xb6,0x6d,0xff,0xff,0x1f,
 0xdd,0xb7,0xdd,0xbe,0x6f,0x7b,0xbb,0xee,0xde,0xfd,0xed,0xff,0xef,0xfb,0xff,
 0xbf,0xff,0xff,0xf7,0xff,0x1f,0xab,0x6a,0x6b,0xd3,0xb4,0xd6,0xd6,0x5d,0x6b,
 0x6b,0xff,0xff,0x5f,0xbf,0xaa,0x6a,0x55,0x55,0xad,0xaa,0x1a,0xf5,0xbd,0xba,
 0x6d,0xdb,0xbb,0x6d,0xeb,0xbb,0xdd,0x6d,0xdf,0xaf,0xfe,0xdb,0xde,0xed,0xff,
 0xdb,0xfd,0x17,0x2b,0xeb,0x56,0xdb,0xb6,0x6a,0xdb,0x56,0xd5,0xf6,0xff,0xff,
 0xfb,0x81,0x64,0x7b,0x5b,0x55,0x6f,0xab,0x0e,0xdd,0xad,0x6d,0x6d,0xdb,0xb6,
 0x6d,0xbb,0x7d,0x5b,0xeb,0xfb,0x57,0xbf,0xda,0xd6,0x76,0xdb,0xf5,0x76,0x1b,
 0xaa,0x5a,0x5b,0xda,0x56,0x5b,0xdb,0xd6,0xaa,0xed,0xfe,0xaf,0xfa,0xa0,0xea,
 0x5d,0xdb,0xb6,0xae,0xdb,0x16,0xdd,0xd6,0xaa,0x6a,0xed,0xd6,0x6d,0x75,0xd7,
 0x76,0xff,0xff,0xad,0xad,0x56,0xeb,0xb6,0xed,0xf5,0xb6,0x1b,0x6b,0xad,0x55,
 0xd5,0x56,0xad,0xaa,0x5b,0xbd,0xad,0xb5,0xff,0x7f,0x92,0x5a,0xb7,0xdb,0xb6,
 0xae,0xdd,0x16,0xb5,0x76,0x6d,0x6d,0xbb,0xb7,0xdd,0xd6,0xd6,0x6a,0xff,0x7f,
 0xdf,0x4a,0xb5,0xdd,0xb6,0x6d,0x77,0x6b,0x1b,0xd6,0xd5,0xea,0xdb,0xd6,0xda,
 0xb6,0x6e,0xab,0xb7,0x00,0xf8,0x2f,0x00,0x00,0x7a,0xfb,0xb6,0xad,0xdd,0x16,
 0x6d,0x6d,0x55,0x5d,0x6b,0x6d,0xd5,0xb5,0xf5,0xec,0x02,0xfc,0xbf,0xa4,0x90,
 0xac,0xad,0xed,0x76,0x6b,0x1b,0x55,0xab,0xfe,0xb6,0xda,0xda,0xae,0x56,0xaf,
 0x1b,0x00,0xc0,0x02,0x10,0x00,0xf0,0x77,0xb7,0xad,0xdd,0x0d,0x55,0x55,0xab,
 0xad,0x56,0x6b,0xb5,0xb5,0x55,0x2d,0x00,0xa0,0x05,0x00,0x00,0x68,0xdd,0xed,
 0x76,0xb7,0x16,0xb6,0xda,0xfd,0x77,0x55,0x55,0x6b,0x6d,0x5a,0x0b,0x00,0x00,
 0x00,0x50,0x84,0xa0,0x6b,0xb7,0xed,0xda,0x1d,0x55,0xab,0x56,0xad,0xb5,0xad,
 0xad,0x96,0xd7,0x0a,0xa0,0x25,0x00,0x20,0x81,0xd2,0xbd,0x6d,0x5b,0xef,0x16,
 0xaa,0x6a,0xbf,0x5f,0x55,0x55,0xaa,0x6a,0xaa,0x05,0x50,0x00,0x20,0x44,0xb2,
 0xa2,0xaa,0xda,0xb6,0x5a,0x0b,0x5b,0xad,0xd5,0xb5,0xaa,0xb6,0xb5,0xb5,0xb5,
 0x06,0x48,0x01,0x08,0x40,0x49,0x51,0xd7,0x6e,0xdb,0xab,0x1d,0x6a,0x55,0x7f,
 0xaf,0xb6,0xaa,0x56,0xab,0xd6,0x80,0x2b,0x54,0x25,0x10,0xb5,0x84,0x6e,0xd5,
 0xaa,0xb6,0x0a,0x55,0xeb,0xda,0x7b,0xab,0xd5,0xaa,0xda,0x6a,0x23,0x2a,0x00,
 0x09,0x02,0x49,0x51,0xb5,0xbb,0xdd,0xda,0x16,0xaa,0xaa,0x6f,0xc0,0x6a,0xab,
 0xb6,0xb5,0x56,0x80,0x05,0x7d,0x21,0x20,0x36,0x00,0x6d,0x55,0xab,0xb5,0x0d,
 0xdb,0x5a,0xfa,0x40,0x5b,0x6d,0xd5,0x56,0xb5,0x40,0x15,0x4a,0x0a,0x00,0xa9,
 0xa4,0x5a,0xbb,0xd5,0xda,0x16,0xaa,0xaa,0x0d,0x00,0xae,0xda,0x2a,0x55,0x0d,
 0x58,0x81,0x92,0x08,0x50,0x55,0x02,0xea,0x66,0x6f,0x57,0x0d,0xb5,0x56,0x3b,
 0x00,0x75,0x57,0xdd,0xdb,0x36,0x64,0x05,0x55,0x25,0x50,0x2a,0x51,0xba,0xba,
 0xb2,0xaa,0x15,0x55,0xb5,0x06,0x00,0xd0,0xb4,0x55,0xea,0x45,0x9b,0xa0,0x0a,
 0x02,0xb0,0xed,0x86,0xd4,0xd6,0xae,0x5d,0x1b,0xaa,0x55,0x05,0x00,0x68,0xaf,
 0xd6,0xb6,0x56,0xb5,0x80,0xaa,0x14,0xa8,0xaa,0x52,0x6a,0x6b,0xd5,0xaa,0x0d,
 0xad,0x6a,0x01,0x00,0x80,0xd9,0x5a,0xed,0x50,0x2d,0x5a,0x55,0x02,0x68,0x15,
 0x40,0x55,0xad,0xad,0x75,0x15,0xaa,0x5a,0x03,0x10,0xa0,0x6e,0xab,0xb5,0xa8,
 0xaa,0x52,0x25,0x09,0xd0,0x6e,0xa1,0xd2,0xb6,0xd6,0xae,0x16,0x55,0x6b,0x00,
 0x00,0x00,0x53,0xb5,0x2e,0x52,0x55,0xaa,0x8a,0x00,0x5a,0x55,0x92,0x6a,0x6d,
 0xbb,0x6a,0x0d,0xd6,0xaa,0x11,0x20,0x80,0xbd,0xad,0x35,0x48,0x55,0x55,0xa5,
 0x00,0xa8,0x55,0x41,0xd5,0xb6,0xd5,0xb6,0x16,0x59,0x2d,0x00,0x00,0x00,0xd6,
 0xf6,0x06,0xb5,0x92,0xaa,0x00,0xc0,0xb5,0xaa,0x4a,0xa9,0x55,0xab,0xd5,0x15,
 0xad,0x6a,0x00,0x00,0x00,0xbb,0xbb,0x05,0x4c,0x55,0x55,0xab,0x00,0xd6,0x56,
 0x21,0xd5,0xb6,0xdd,0x5a,0x15,0x52,0x15,0x00,0x20,0x00,0x00,0x00,0xc0,0x55,
 0xaa,0xaa,0x00,0xf8,0xa9,0x95,0xa0,0xb4,0x6a,0x55,0xab,0x16,0xaa,0x2a,0x00,
 0x00,0x00,0x00,0x00,0x20,0x54,0xd5,0xaa,0x0a,0xa0,0x6e,0x55,0x48,0xd5,0xb6,
 0xb6,0xda,0x15,0x95,0xaa,0x00,0xc0,0x05,0x00,0x00,0xc0,0xa5,0x52,0x55,0x00,
 0x5f,0x59,0x25,0x20,0xa9,0xad,0x6d,0xb7,0x0e,0x48,0x49,0x00,0x00,0x02,0x90,
 0x04,0x20,0x55,0x55,0xab,0x02,0xe8,0xaa,0x95,0x48,0xb5,0x6a,0xd5,0x5a,0x15,
 0x55,0xaa,0x0a,0x00,0xbd,0x04,0x51,0xa8,0x2a,0xda,0x2a,0xc0,0x2f,0x57,0x21,
 0x90,0x4a,0x55,0xab,0xea,0x1a,0x4a,0x55,0x05,0x00,0xaa,0x40,0xa5,0x50,0x95,
 0x55,0x95,0x40,0x5a,0x69,0x15,0x44,0xb5,0x5a,0xb5,0xad,0x0e,0x52,0x22,0x2a,
 0x00,0xa8,0xaa,0x0a,0x54,0x55,0x55,0x05,0xb4,0xa5,0x56,0x25,0xa9,0x4a,0xa5,
 0x4a,0x55,0x09,0x55,0x95,0x92,0x00,0x54,0x55,0x25,0xa8,0xaa,0xaa,0x0a,0x68,
 0xaf,0xaa,0x12,0x44,0x55,0x55,0xb5,0xaa,0x16,0x4a,0xaa,0x54,0x01,0xa0,0xea,
 0x00,0xaa,0x5a,0x55,0x00,0xdd,0xa8,0xaa,0xa4,0x91,0xaa,0xaa,0x4a,0x55,0x09,
 0x52,0xa5,0x2a,0x05,0x50,0x95,0x06,0xb4,0xaa,0xaa,0x42,0xaa,0x57,0x55,0x52,
 0x4a,0xa9,0xaa,0xaa,0xaa,0x16,0x94,0x94,0xa4,0x14,0x80,0x6a,0x01,0xcd,0xaa,
 0x0e,0xa0,0x75,0xa8,0x2e,0x24,0x40,0xaa,0xaa,0xaa,0x4a,0x09,0xaa,0x4a,0x95,
 0x0a,0x40,0x95,0x05,0x6a,0x55,0xab,0x48,0xad,0x55,0x95,0xaa,0x20,0x55,0x55,
 0x55,0x55,0x15,0x49,0x52,0x52,0x52,0x15,0xaa,0xc0,0xab,0xaa,0x02,0xab,0x3a,
 0xd5,0xad,0x10,0x68,0x25,0xa9,0xaa,0xaa,0x0a,0xaa,0x2a,0x55,0x55,0x82,0xaa,
 0x02,0x5a,0xd5,0xa5,0x54,0xad,0xaa,0x56,0x0a,0xa0,0x5a,0x55,0x55,0x55,0x15,
 0x52,0x4a,0x49,0xa9,0x6c,0x55,0xf5,0xaa,0x3a,0x51,0xd5,0x96,0x5a,0x0b,0x00,
 0x5e,0xa5,0xaa,0x94,0xaa,0x0a,0x4a,0xa9,0xaa,0x94,0x92,0x54,0x15,0x55,0xd5,
 0x2a,0x55,0xab,0xaa,0x55,0x15,0xa8,0x54,0x95,0x6a,0x55,0x15,0x92,0x92,0x24,
 0xa5,0x2a,0xa9,0x6a,0x55,0x2d,0x52,0x55,0xa5,0x6a,0x25,0x84,0x5f,0x55,0x55,
 0xa5,0x52,0x15,0x55,0x4a,0x92,0x52,0x92,0x4a,0x95,0xaa,0xd6,0xaa,0x6a,0x2b,
 0xb5,0x15,0x22,0x54,0x55,0x55,0x55,0xad,0x0a,0x54,0x55,0x55,0x4a,0xa5,0x24,
 0x52,0xd5,0x2a,0x55,0xad,0xd4,0x6a,0xa1,0xd4,0xb7,0x52,0xaa,0xaa,0x52,0x15,
 0x25,0xa5,0xaa,0xaa,0x54,0x49,0x55,0x6a,0xab,0xaa,0x6a,0xab,0xb6,0x4a,0x42,
 0xad,0xaa,0xaa,0xaa,0xaa,0x0a,0x4a,0x0a,0x21,0x49,0x49,0x2a,0xa4,0x95,0x54,
 0xa9,0x55,0x54,0x6d,0x21,0xb5,0x35,0xa5,0x94,0x52,0x55,0x15,0xa9,0xd2,0x9a,
 0x2a,0xaa,0x4a,0x55,0x6a,0x55,0x55,0x6d,0xab,0xb6,0x4a,0xd4,0xae,0xaa,0xaa,
 0xaa,0xaa,0x0a,0x52,0x15,0x25,0x51,0x25,0xa9,0x52,0x85,0xaa,0xaa,0x9a,0x54,
 0x41,0x90,0xaa,0x55,0x29,0x55,0x55,0x55,0x15,0x95,0xa4,0xa8,0xaa,0x52,0x95,
 0x94,0x6a,0x54,0x55,0xab,0xaa,0x9a,0x4a,0x75,0xab,0xaa,0xaa,0xaa,0xaa,0x0a,
 0x2a,0xa9,0x4a,0x45,0x4a,0x22,0x29,0x89,0x49,0x6a,0x55,0x95,0x22,0x6a,0xd5,
 0x96,0x54,0x49,0x95,0xaa,0x0a,0xa4,0x2a,0x55,0x32,0x55,0x55,0x95,0x54,0xa5,
 0xb5,0xad,0xaa,0x9a,0x54,0x55,0xab,0xaa,0xaa,0x52,0x55,0x15,0x49,0x52,0xa2,
 0x44,0x89,0x94,0xa2,0x2a,0x2a,0x55,0x55,0x29,0x65,0xa9,0xb6,0xaa,0x4a,0x55,
 0xaa,0xaa,0x0a,0xaa,0x4a,0x29,0xb5,0x54,0xa5,0x54,0x49,0x55,0xd5,0x2a,0x55,
 0x95,0xaa,0xda,0x55,0x55,0x55,0x55,0x55,0x15,0x92,0x94,0x4a,0x89,0x92,0x54,
 0x95,0x52,0x91,0xb4,0xaa,0xaa,0xaa,0xaa,0x52,0x2b,0x29,0x55,0x55,0xaa,0x0a,
 0x55,0xa5,0xaa,0x54,0x55,0x25,0x49,0x54,0xaa,0xaa,0x5a,0xab,0x55,0x55,0x6d,
 0xa5,0xaa,0x52,0x55,0x55,0x15,0x22,0x29,0x49,0x49,0x24,0x4a,0x52,0xa5,0x24,
 0xa9,0xea,0x5e,0xad,0x4a,0x95,0x5a,0x55,0x55,0x55,0x55,0x15,0xaa,0xaa,0x24,
 0xa5,0x52,0xa5,0xaa,0x52,0xaa,0x5a,0x55,0xab,0xd6,0xaa,0x6a,0x25,0xa5,0xaa,
 0xaa,0xaa,0x0a,0x4a,0x24,0x55,0x8a,0x4a,0x92,0x44,0x8a,0x92,0xb4,0x56,0x55,
 0xb5,0x56,0xd5,0xae,0x54,0x4a,0x55,0x55,0x15,0xa5,0xaa,0x4a,0xa9,0x54,0xa9,
 0x32,0x69,0xa9,0xaa,0xd5,0xaa,0x5a,0xdb,0x5a,0xab,0xaa,0xaa,0xaa,0xaa,0x0a,
 0x28,0x49,0x92,0x52,0x49,0x4a,0x4a,0x85,0x92,0x6a,0x55,0x55,0xd5,0xaa,0xb5,
 0x4a,0x95,0x52,0x52,0x55,0x15,0x55,0x25,0x69,0x2a,0xa5,0x2a,0xa9,0x54,0xaa,
 0x54,0x55,0x55,0x6d,0xed,0xd6,0xab,0x52,0x55,0xad,0xaa,0x0a,0x92,0x54,0x85,
 0xa4,0x94,0x48,0x45,0xa9,0x24,0x55,0xab,0xfe,0xaa,0xb5,0x7d,0x94,0xaa,0xaa,
 0x52,0xa9,0x0a,0xaa,0x92,0xb4,0x52,0x52,0xa5,0x34,0x4a,0x95,0x52,0xad,0x4a,
 0xd7,0x6e,0xff,0x53,0x29,0xa9,0x2a,0x55,0x15,0x12,0xa5,0x92,0x4a,0x25,0x55,
 0x49,0x95,0x54,0xd5,0x7a,0xab,0xba,0xff,0xff,0x25,0x55,0x55,0x55,0x55,0x15,
 0xa9,0x54,0x4a,0xa9,0xaa,0x2a,0x55,0xa5,0x4a,0xaa,0xae,0xb5,0xdd,0xfe,0xff,
 0xab,0xaa,0x4a,0xaa,0xaa,0x0a,0x52,0x49,0x29,0x45,0x92,0xa4,0x24,0x2a,0xa9,
 0x54,0x69,0xff,0xff,0xff,0xff,0x23,0x51,0xaa,0x54,0x55,0x15,0x2a,0x55,0xaa,
 0x32,0x55,0x52,0x4a,0x49,0x25,0x55,0xb5,0x6b,0xff,0xff,0xf7,0xab,0x4c,0x55,
 0xab,0xaa,0x0a,0x52,0x92,0x92,0x44,0xa2,0x8a,0x94,0x52,0x4a,0x55,0x55,0xff,
 0xff,0xff,0xff,0x97,0x92,0xa4,0x54,0x55,0x15,0x29,0xa9,0x4a,0x5a,0x55,0xa5,
 0x4a,0x49,0xa9,0xaa,0xaa,0xff,0xff,0xff,0xbe,0x4b,0xaa,0xaa,0xaa,0xaa,0x0a,
 0xa2,0x4a,0x52,0x51,0x8a,0x28,0x51,0x2a,0x15,0xa9,0xff,0xfe,0xff,0xf7,0xff,
 0x54,0x55,0x55,0x55,0x95,0x0a,0x9a,0x24,0x55,0x4d,0xa9,0xaa,0xaa,0xaa,0xa4,
 0xaa,0x6a,0xff,0x77,0xff,0xbf,0xab,0xa4,0xaa,0x2a,0x55,0x15,0xa4,0xaa,0x24,
 0x92,0x52,0x12,0x85,0x44,0x29,0xf5,0xff,0xbf,0xdd,0xaa,0x52,0xaa,0x4a,0x92,
 0x54,0xa9,0x0a,0x2a,0x91,0x92,0xa9,0x94,0xca,0x68,0x32,0xa5,0x52,0xff,0xff,
 0x77,0xff,0xbd,0x55,0xaa,0xaa,0xaa,0x56,0x15,0x52,0x2a,0x55,0x92,0x22,0x29,
 0x95,0x4a,0x4a,0xa4,0xff,0x55,0xcd,0x44,0x45,0x40,0x55,0x55,0x55,0xa9,0x0a,
 0x25,0x95,0x92,0x54,0xaa,0x4a,0x25,0xa5,0x2a,0xab,0xff,0xf7,0x6a,0x7b,0x3b,
 0xad,0xaa,0xaa,0x4a,0x55,0x15,0x54,0x29,0xa5,0xa2,0x94,0x94,0x48,0x4a,0xa9,
 0x54,0x2b,0x89,0x8a,0x04,0x80,0x90,0x54,0x55,0xb5,0xaa,0x0a,0x92,0x44,0x29,
 0x95,0x4a,0x52,0xaa,0x52,0x4a,0xa5,0xde,0xb6,0x6a,0x52,0x25,0x55,0xa5,0xaa,
 0x4a,0x55,0x15,0xa5,0x2a,0x4a,0x2a,0xa9,0xa4,0x92,0x94,0x94,0xc8,0xaf,0x48,
 0x89,0x4a,0xa8,0x48,0x55,0x52,0x55,0x55,0x0a,0x54,0xa9,0x52,0xa5,0x54,0x55,
 0x4a,0x52,0xa5,0x2a,0x75,0xab,0xaa,0xa4,0x4a,0x92,0xaa,0xaa,0xaa,0xaa,0x15,
 0x89,0x52,0xa5,0x94,0x82,0x44,0xa9,0x4a,0x4a,0xea,0x8f,0x94,0x54,0x55,0x55,
 0x55,0xaa,0x2a,0x55,0x55,0x0a,0x54,0x29,0x29,0xa5,0x6a,0x2a,0x25,0x95,0x52,
 0xa9,0xbe,0x4a,0xa5,0xaa,0xaa,0x4a,0x55,0xd5,0x54,0x55,0x15,0x09,0x92,0xa4,
 0x48,0x94,0x54,0xaa,0xa8,0x94,0xf6,0x4b,0x91,0x2a,0x11,0xd5,0x2a,0x95,0x92,
 0xaa,0xaa,0x0a,0xd4,0x4a,0x95,0x2a,0xa5,0x8a,0x92,0x4a,0x4a,0xb9,0x5e,0x55,
 0x55,0xad,0x54,0xab,0x52,0x55,0x55,0x55,0x15,0x25,0x29,0x52,0x52,0x49,0xb2,
 0x24,0x95,0x52,0xad,0xa2,0x2a,0xd4,0x52,0xa9,0x94,0x54,0x55,0xa5,0x54,0x15,
 0xaa,0x4a,0x95,0x4a,0x2a,0x49,0xaa,0xa4,0xaa,0xd6,0x2d,0x55,0xa9,0x2a,0x55,
 0xab,0xaa,0xaa,0xaa,0xaa,0x0a,0x44,0x94,0x48,0x92,0x52,0xa5,0x92,0x2a,0x49,
 0x35,0xab,0xaa,0x82,0xaa,0x4a,0x55,0x55,0x55,0x55,0x55,0x15,0xaa,0x4a,0x55,
 0x55,0x49,0x2a,0x49,0xa5,0xaa,0xda,0xaa,0xa4,0x54,0x55,0xa5,0xaa,0xaa,0xaa,
 0xaa,0xaa,0x0a,0x92,0x24,0x91,0x24,0x95,0xa4,0x54,0x4a,0x52,0x55,0x05,0x59,
 0x25,0xaa,0x5a,0xad,0x94,0x54,0x55,0x55,0x15,0xa9,0xaa,0x4c,0xaa,0xa4,0x2a,
 0x95,0x52,0x55,0x5b,0x6d,0xaa,0x2a,0x51,0xa5,0xaa,0xaa,0xaa,0xaa,0xaa,0x0a,
 0x12,0x49,0x51,0x91,0x4a,0x52,0x52,0x2a,0xd5,0xf6,0x82,0xa0,0xaa,0x4a,0x55,
 0x55,0xa9,0x52,0x55,0x55,0x15,0xca,0x24,0x95,0x4a,0x52,0x49,0x95,0x92,0x52,
 0x2d,0x57,0x54,0x55,0xa9,0x5a,0x55,0x55,0xad,0xaa,0xaa,0x0a,0x12,0x55,0x2a,
 0xaa,0x24,0x95,0x24,0x65,0xa4,0x4a,0x89,0x82,0xa4,0xaa,0xaa,0x2a,0x55,0x29,
 0x55,0x55,0x15,0xa9,0x22,0x49,0x25,0x95,0x52,0xaa,0x94,0x52,0xab,0x2a,0x59,
 0x5a,0x55,0x55,0xa5,0xaa,0xaa,0xaa,0xaa,0x0a,0x4a,0x4a,0x95,0x48,0x52,0x4a,
 0x49,0x29,0xa9,0x24,0xa4,0x52,0xab,0xaa,0xaa,0xda,0x25,0x55,0x55,0xa5,0x0a,
 0x52,0x55,0x49,0x55,0xa9,0x52,0x25,0xa5,0xa4,0x92,0x52,0x55,0x55,0x55,0x55,
 0x55,0xab,0xaa,0xaa,0x5a,0x15,0x24,0x28,0x55,0x92,0x12,0x89,0x54,0x4a,0x5a,
 0xd5,0xaa,0xaa,0x54,0xb5,0xaa,0xfa,0xaa,0x94,0x24,0xa5,0x0a,0x95,0x95,0xa4,
 0x4a,0xaa,0x54,0x25,0x29,0xa1,0xaa,0xaa,0xaa,0x52,0x55,0x55,0x4d,0x95,0xaa,
 0xda,0x5a,0x15,0x52,0xa2,0x12,0xa9,0x44,0x25,0x52,0x45,0x54,0x55,0x55,0x55,
 0x5b,0xab,0xaa,0xb5,0xaa,0xaa,0x52,0xa9,0x0a,0x94,0x2a,0xa9,0x54,0xaa,0x52,
 0x95,0x2a,0xaa,0xaa,0xaa,0x52,0xad,0xaa,0x55,0xad,0x54,0x55,0x2d,0x55,0x15,
 0x29,0x49,0x52,0xa1,0x24,0x4a,0x52,0x50,0x55,0x54,0x55,0x95,0x6a,0xad,0xaa,
 0x52,0xa5,0xaa,0x52,0x55,0x15,0x94,0xa4,0x2a,0x9a,0x52,0x29,0x95,0x8a,0xaa,
 0xaa,0x56,0x55,0x55,0x55,0x55,0x55,0x55,0xa5,0xaa,0xaa,0x0a,0xa1,0x4a,0x52,
 0x25,0xa5,0x52,0x52,0x20,0x95,0x52,0x55,0x55,0x55,0x55,0x55,0xad,0xaa,0x54,
 0xaa,0xaa,0x0a,0x2c,0x29,0x25,0xa9,0x2a,0x4a,0x95,0x8a,0x54,0xa9,0xaa,0xb5,
 0xaa,0x5a,0x55,0xb5,0x55,0x55,0x55,0x55,0x15,0x51,0x52,0x4a,0x42,0x44,0x29,
 0x09,0x00,0xa0,0x8a,0x6a,0x55,0xd5,0xaa,0xaa,0x4a,0xa5,0xaa,0xaa,0xaa,0x0a,
 0x24,0x29,0xa9,0xaa,0xaa,0x94,0x24,0x00,0x2a,0x55,0xaa,0x56,0x55,0x55,0x55,
 0x75,0x55,0x55,0x55,0x55,0x15,0x95,0xa2,0x12,0x29,0x49,0xa9,0x42,0x90,0x40,
 0x52,0x55,0xad,0x5a,0x55,0xaa,0x4b,0x55,0xaa,0xaa,0xaa,0x0a,0xa4,0x2a,0xc9,
 0x94,0x54,0x92,0x94,0x04,0x2a,0x4d,0xb5,0xd5,0x56,0x55,0x55,0xb5,0xaa,0x4a,
 0x55,0x55,0x15,0x49,0xa4,0x12,0x29,0x49,0x25,0x21,0x50,0xd5,0xaa,0x4a,0xb5,
 0xaa,0xaa,0xb5,0x56,0x55,0xb5,0xaa,0xaa,0x0a,0xaa,0x52,0x54,0x45,0xa5,0xa8,
 0x14,0x8a,0xa8,0xaa,0xb4,0x56,0x55,0x55,0xad,0xda,0xaa,0x4a,0x4a,0x55,0x15,
 0x12,0xa5,0x52,0x2a,0x09,0x25,0x49,0x29,0x4b,0x92,0x4a,0xa9,0xaa,0xdb,0x6a,
 0x55,0xa5,0xaa,0xaa,0xaa,0x0a,0xa9,0x14,0x29,0xa5,0xd4,0x54,0x92,0xa4,0xa4,
 0xaa,0xaa,0x56,0x55,0xad,0xb6,0x6a,0x55,0x55,0x55,0x55,0x15,0x22,0xa9,0x52,
 0x92,0x12,0x89,0x00,0x90,0x2a,0x55,0x55,0xa9,0xaa,0xda,0xaa,0xad,0xaa,0x54,
 0xa9,0xaa,0x0a,0x55,0x95,0x24,0x55,0x49,0x25,0xa5,0x8a,0xa4,0xaa,0x52,0x55,
 0xd5,0x6d,0x5b,0x55,0x55,0x55,0x55,0x55,0x15,0x84,0x24,0x55,0x22,0xaa,0x94,
 0x08,0x75,0x55,0x55,0xad,0x6a,0x15,0xab,0xb6,0xaa,0x4a,0x55,0x55,0xaa,0x0a,
 0x6a,0xaa,0x22,0x55,0x55,0x4a,0x52,0x92,0xaa,0xaa,0xaa,0xaa,0x6a,0xb5,0x55,
 0xb5,0xaa,0x2a,0x55,0x55,0x15,0x84,0x44,0x54,0x8a,0x88,0x10,0xa4,0x54,0x55,
 0x55,0x55,0x55,0xa5,0x54,0xaa,0xaa,0x2a,0x55,0x55,0xa5,0x0a,0xb2,0x2a,0x95,
 0x52,0x55,0x4b,0x29,0x55,0x55,0x55,0x55,0x55,0x95,0xaa,0xb6,0x56,0x55,0xa5,
 0xaa,0x5a,0x15,0x4a,0x52,0x29,0x25,0x91,0x28,0xa5,0xaa,0xaa,0xaa,0xaa,0xaa,
 0xaa,0x52,0x55,0x55,0xa9,0xaa,0x54,0xa5,0x0a,0x25,0xa9,0x94,0x92,0x54,0x45,
 0x52,0x55,0x55,0x55,0x55,0x55,0x55,0x55,0x55,0x55,0x55,0x55,0x4b,0x55,0x15,
 0xa8,0x12,0x21,0xa9,0x0a,0x10,0x89,0xaa,0xaa,0xaa,0x56,0x55,0x55,0xa5,0xaa,
 0xaa,0x4a,0x55,0xaa,0xaa,0x0a,0x4a,0x4a,0xad,0x2a,0xa5,0x45,0x64,0x55,0xd5,
 0xaa,0xaa,0xaa,0xaa,0x2a,0x55,0x6d,0xa9,0x54,0x55,0x55,0x15,0xa9,0x54,0x12,
 0x49,0x4a,0xaa,0x95,0x88,0x2a,0x55,0x55,0xa5,0xaa,0xaa,0x54,0x55,0x55,0xab,
 0xaa,0xaa,0x0a,0x24,0x25,0xa5,0x54,0x25,0x51,0x2a,0x55,0xa9,0xaa,0xaa,0xaa,
 0xaa,0xaa,0xaa,0xaa,0xaa,0x54,0x55,0x55,0x15,0x95,0x54,0x54,0x21,0x94,0x8a,
 0xd2,0x2a,0xa5,0xaa,0xaa,0x4a,0x55,0x55,0xa5,0xaa,0x52,0xa5,0xaa,0xaa,0x0a,
 0x49,0x25,0x25,0x55,0xa3,0xa4,0x5a,0xa5,0xaa,0xaa,0xaa,0x52,0x55,0x55,0x55,
 0x55,0x55,0x55,0x55,0x55,0x15,0x52,0x4a,0x49,0x4a,0x14,0x08,0xa4,0x5a,0x55,
 0x55,0x55,0xaa,0xaa,0xaa,0xaa,0xaa,0xaa,0xaa,0xaa,0xaa,0x0a,0x29,0xa5,0xa4,
 0x24,0x49,0x55,0x5a,0xab,0xaa,0x52,0x55,0x95,0x5a,0x55,0x55,0x55,0xa9,0x54,
 0x55,0x55,0x15,0x52,0x48,0x89,0x52,0x25,0x80,0xa0,0x54,0x55,0xad,0xaa,0xa8,
 0xaa,0xaa,0xaa,0xaa,0x4a,0x95,0xaa,0xaa,0x0a,0x2a,0x2b,0x55,0x49,0x52,0x51,
 0x15,0x55,0x55,0xa5,0x4a,0xa6,0x56,0x55,0x55,0x55,0x55,0x55,0x55,0x55,0x15,
 0x44,0x94,0x24,0xaa,0x84,0x04,0x00,0x50,0x55,0x55,0x95,0x4a,0x59,0x55,0x55,
 0x55,0xaa,0x54,0xa9,0xaa,0x0a,0x2a,0x4b,0x52,0x49,0x2a,0x49,0x89,0xa4,0xaa,
 0xaa,0x52,0xa9,0x56,0x55,0x55,0x55,0x55,0x55,0x55,0x55,0x15,0x48,0xa8,0x24,
 0x25,0x11,0xa5,0x2a,0x09,0x48,0x55,0x55,0x55,0xaa,0xaa,0xaa,0xaa,0xaa,0xaa,
 0x4a,0x55,0x15,0xa6,0x26,0x95,0x92,0x8a,0x52,0xa5,0x44,0x55,0x55,0x49,0x92,
 0xaa,0xaa,0xaa,0x52,0x55,0x95,0xaa,0xaa,0x0a,0x92,0x48,0x29,0x55,0x24,0xa4,
 0xaa,0x5a,0x55,0x55,0xaa,0xaa,0xaa,0xaa,0xaa,0xaa,0xaa,0xaa,0xaa,0xaa,0x0a,
 0x54,0x55,0x4a,0x92,0x12,0x4a,0x2b,0x55,0x95,0x2a,0xa5,0x52,0x55,0x6d,0x55,
 0x55,0x4a,0x55,0x55,0x55,0x15,0x92,0xa4,0xa4,0x24,0x44,0x00,0xda,0xa8,0xaa,
 0x4a,0x49,0x4a,0xd5,0xda,0xee,0x56,0x55,0xa9,0xaa,0xaa,0x0a,0x49,0x52,0x52,
 0xaa,0x92,0x54,0x5d,0xab,0xaa,0xaa,0xaa,0x2a,0x55,0x55,0x5b,0x5b,0x55,0x55,
 0x55,0x55,0x15,0xaa,0x8a,0x4a,0x11,0x21,0x10,0xd0,0x4a,0xaa,0x54,0x4a,0xa9,
 0xaa,0xaa,0xb4,0xaa,0xaa,0xaa,0xaa,0xaa,0x0a,0x24,0x55,0x51,0xaa,0x14,0xa4,
 0x6a,0x55,0x55,0x25,0x29,0xa5,0x6a,0xab,0x6d,0x57,0x29,0x55,0x55,0x55,0x15,
 0x49,0x22,0x25,0x45,0xa0,0xa8,0x80,0xb7,0xaa,0x4a,0x55,0x95,0xaa,0x6a,0xab,
 0x54,0xd5,0x54,0x55,0x55,0x15,0x54,0x95,0x54,0x29,0x49,0x92,0x4a,0x5a,0x55,
 0x55,0xa5,0x54,0x55,0xb5,0x6a,0xab,0xaa,0xaa,0xaa,0xaa,0x0a,0x29,0xa9,0x92,
 0x44,0x84,0x00,0x24,0x69,0x55,0x92,0x94,0x2a,0xb5,0x55,0xad,0x4a,0x95,0x4a,
 0x55,0x55,0x15,0x92,0x4a,0x49,0x2a,0x51,0xaa,0x92,0x5c,0x55,0x55,0x55,0xa5,
 0xaa,0x56,0xb5,0xa5,0xaa,0xaa,0xaa,0xaa,0x0a,0x4a,0x24,0x55,0x89,0x08,0x81,
 0x48,0xe3,0xa5,0x94,0x92,0x54,0x6a,0xb5,0xaa,0x4a,0xaa,0xaa,0xaa,0xaa,0x0a,
 0x25,0x93,0x92,0x24,0xa2,0x28,0xa5,0xa8,0x5a,0xa5,0x54,0x95,0xaa,0x56,0xab,
 0x2b,0x55,0x55,0x55,0x55,0x15,0x54,0x54,0x24,0x49,0x08,0x45,0x95,0x96,0x8a,
 0x4a,0xa9,0xa4,0xea,0xed,0x56,0x2a,0x50,0x55,0x55,0x55,0x0b,0xa5,0x4a,0x55,
 0x15,0x85,0x50,0xaa,0xaa,0x56,0x29,0x25,0x55,0xb5,0x5a,0xb5,0x95,0x48,0x55,
 0x55,0x55,0x15,0x48,0x29,0x49,0x42,0x10,0x0a,0x29,0x54,0x51,0x52,0x55,0x95,
 0xa4,0xeb,0x6e,0x6d,0xa1,0xaa,0xaa,0xaa,0x0a,0xaa,0x94,0x24,0x95,0xa4,0x42,
 0x54,0x55,0x95,0xaa,0xaa,0x52,0x55,0xbd,0xd5,0xb6,0x2a,0x55,0x55,0x55,0x15,
 0x11,0xa9,0xaa,0x40,0x00,0x98,0x40,0x52,0xaa,0x4a,0x24,0x55,0x55,0x55,0xbf,
 0x55,0x85,0x54,0x55,0x55,0x15,0x4a,0x25,0x25,0x15,0x55,0x45,0x52,0x55,0x25,
 0x29,0xab,0xaa,0xaa,0xd6,0x55,0xab,0xa5,0xaa,0xaa,0xb6,0x0a,0xaa,0x94,0x48,
 0x21,0x00,0x28,0x95,0x4a,0xa9,0xaa,0x54,0x12,0xa9,0x5a,0x55,0xb5,0x12,0x55,
 0x55,0xa9,0x15,0x52,0x4a,0x55,0x4a,0x92,0x92,0x6a,0xa9,0x94,0x94,0x4a,0x55,
 0xa5,0x6a,0xdb,0xda,0x45,0xa9,0xaa,0x56,0x15,0x8a,0x94,0x52,0x01,0x41,0x24,
 0xa9,0x26,0x25,0x29,0xa9,0xa4,0xaa,0x56,0xb5,0x57,0x12,0x56,0x55,0x55,0x15,
 0xa5,0x4a,0x94,0x50,0x10,0x49,0xd5,0xaa,0xaa,0x46,0x55,0x55,0x49,0xb5,0xad,
 0xaa,0x44,0xa9,0xaa,0xaa,0x0a,0x28,0x51,0x49,0x04,0x04,0x92,0xaa,0x4a,0x92,
 0x58,0x92,0x92,0x2a,0x55,0xb5,0x0a,0x12,0x55,0x55,0x55,0x15,0x95,0x2a,0x25,
 0x01,0xa1,0x54,0xaa,0xaa,0x4a,0xa5,0xaa,0x54,0xaa,0x6a,0xab,0xa5,0x44,0xaa,
 0x6a,0xd5,0x0a,0x52,0x52,0xaa,0x28,0x00,0xa0,0xaa,0x92,0x94,0x92,0x24,0x55,
 0x49,0xad,0xaa,0x10,0x11,0xa9,0xaa,0xaa,0x16,0xa9,0x14,0x25,0x00,0x48,0x55,
 0xd5,0x4a,0xa5,0x54,0xaa,0x4a,0x55,0xd5,0x5a,0x44,0xa4,0x54,0x55,0x55,0x15,
 0x4a,0x69,0x29,0x04,0x20,0x4a,0x55,0x29,0x29,0x49,0x49,0x94,0x2a,0xa9,0xaa,
 0x10,0x11,0x51,0x55,0x55,0x15,0x25,0x95,0x54,0x41,0x92,0xa2,0x54,0xa5,0x94,
 0x2a,0x55,0x53,0x49,0xb5,0x55,0x45,0x44,0xaa,0xaa,0xaa,0x0a,0x48,0x40,0x02,
 0x88,0x08,0x49,0xab,0x12,0x21,0xa2,0x20,0x24,0x92,0xa4,0x56,0x15,0x11,0xa1,
 0xaa,0xaa,0x0a,0x25,0x2d,0x55,0x20,0xa0,0x28,0x69,0x49,0x55,0x29,0x96,0x55,
 0x55,0x6a,0xab,0xa2,0x48,0x54,0x55,0x55,0x15,0xdd,0xdb,0xbe,0x04,0x14,0xaa,
 0x56,0xb7,0xad,0xed,0x6d,0xad,0x6a,0x55,0xad,0x4a,0x22,0xa1,0xb6,0xdb,0x0a,
 0x6b,0xb5,0x2b,0x00,0x41,0x45,0xa9,0xda,0xd6,0x56,0xb5,0xd6,0xb6,0x5b,0xb5,
 0x35,0x89,0xa8,0x6b,0x6d,0x1f,0xbd,0xef,0x1e,0x20,0x2c,0x54,0xd5,0x6d,0xbb,
 0xbd,0xef,0x7d,0xdb,0x6e,0x55,0x55,0x12,0xc5,0xff,0xff,0x1d,0xd7,0x75,0x57,
 0x04,0x82,0x22,0x55,0xdb,0xee,0xee,0x5a,0xab,0xb7,0xbb,0xaa,0x56,0xa5,0x50,
 0xdd,0x56,0x17,0x5d,0xdb,0x0a,0x00,0x28,0xa9,0xaa,0x6e,0x5b,0x5b,0xf7,0x7e,
 0xdd,0x56,0x55,0x55,0x02,0xa2,0xf7,0xfb,0x1d,0xef,0x6d,0x1f,0x80,0x92,0x54,
 0xd5,0xdb,0xed,0xed,0x5d,0xab,0xf7,0xfd,0xd6,0x5a,0xa9,0xc8,0xbf,0x7e,0x1f,
 0x55,0xdb,0x02,0x00,0x44,0x52,0xb5,0xb6,0x5b,0x5b,0xfb,0x7d,0xad,0x56,0xa9,
 0x55,0x15,0x21,0xfb,0xd7,0x1b,0x7b,0x6d,0x8f,0xa0,0x22,0xa9,0xda,0x6d,0xed,
 0xee,0xae,0xae,0xfb,0xbd,0xae,0xaa,0x4a,0x4a,0xbf,0xfd,0x16,0xad,0xdb,0x02,
 0x00,0x49,0xaa,0x6a,0xff,0xb7,0xbb,0xfb,0xfb,0xae,0xf7,0xa8,0xaa,0x52,0xa0,
 0xee,0xff,0x1f,0x77,0x6d,0x0f,0x40,0x92,0x52,0xf5,0x55,0xfd,0xee,0x5e,0xad,
 0xf7,0xad,0x57,0xab,0x2a,0x15,0xff,0x56,0x1b,0x00,0x00,0x00,0x88,0x08,0xa5,
 0x8a,0xaa,0xa2,0xaa,0xa9,0x5a,0x95,0x5a,0x55,0xad,0x8a,0x40,0xd5,0xfd,0x0d,
 0xa9,0xaa,0x82,0x40,0xa2,0xaa,0x6a,0x55,0xad,0xaa,0x56,0xab,0x6a,0xed,0xaa,
 0x6a,0x35,0x95,0x7a,0xaf,0x1e,0x92,0xa4,0x00,0x10,0x09,0x54,0x05,0x20,0x12,
 0x44,0x48,0x44,0x24,0x01,0xad,0x5a,0x4b,0x08,0x4a,0x59,0x15,0x4a,0x52,0x15,
 0xa0,0x50,0x53,0x55,0x95,0xa4,0x52,0x95,0x92,0x92,0xaa,0x54,0xad,0x55,0x45,
 0xdd,0xae,0x0b,0x94,0x4a,0x80,0x40,0x42,0x54,0x95,0xaa,0x4a,0x95,0x52,0xaa,
 0xaa,0x54,0x5b,0x55,0x6d,0x11,0xa8,0x69,0x0d,0x49,0x22,0x05,0x90,0x94,0xaa,
 0x4a,0x92,0x52,0x52,0x95,0x52,0x55,0x55,0xaa,0x6a,0xb5,0x8a,0xb6,0x56,0x15,
 0x92,0x48,0x00,0x44,0x48,0xaa,0x52,0x25,0x89,0x24,0x22,0x0a,0x92,0x92,0x54,
 0x55,0xab,0x52,0x68,0x6d,0x0b,0x49,0x25,0x81,0x20,0x25,0x55,0x95,0x94,0xa4,
 0x52,0x55,0xa9,0x55,0x6a,0xd5,0xaa,0xd5,0x0a,0x55,0xb5,0x1a,0x92,0x54,0x00,
 0x88,0x90,0xaa,0xaa,0x6a,0x55,0xad,0xaa,0xaa,0xaa,0x95,0x5a,0x55,0x55,0x15,
 0xa8,0x4a,0x15,0x54,0x92,0x12,0x20,0xa5,0x54,0xa5,0x2a,0x55,0xa5,0xaa,0xaa,
 0x54,0x6a,0xd5,0xaa,0x5a,0x55,0x52,0xd5,0x0a,0x49,0xa5,0x24,0x00,0x48,0x55,
 0x12,0xa1,0x94,0x94,0x24,0xa9,0xaa,0x4a,0x55,0x55,0xa5,0xaa,0xa8,0xad,0x15,
 0xa5,0x54,0x95,0x94,0x24,0xaa,0xa9,0x54,0x52,0x55,0xaa,0x4a,0x55,0xb5,0xaa,
 0xd5,0x5a,0x55,0x52,0x55,0x15,0x4a,0x89,0xa8,0x02,0xd0,0x52,0x4a,0x85,0x4a,
 0x92,0x49,0x55,0x92,0x44,0x55,0x55,0xab,0x2a,0xc9,0xaa,0x16,0xa9,0x54,0x95,
 0x5a,0x24,0xaa,0x52,0x6a,0x52,0x55,0xaa,0xa4,0xaa,0xaa,0x54,0xab,0xaa,0xaa,
 0x22,0xb5,0x0a,0x12,0x11,0x29,0xb5,0x80,0x2a,0x89,0x88,0x8a,0xa4,0x92,0x4a,
 0xa9,0x2a,0x55,0x4d,0xb5,0x4a,0x44,0x55,0x15,0xa9,0xaa,0x94,0x54,0x55,0xa9,
 0x54,0x55,0x52,0x2a,0x55,0x29,0xa5,0xaa,0xaa,0x56,0xad,0xaa,0xa2,0xaa,0x0a,
 0x44,0x44,0x22,0xf9,0x2b,0x95,0x2a,0xa9,0xaa,0x52,0x55,0xaa,0x2a,0x51,0x49,
 0xad,0x6a,0x91,0x84,0xaa,0x0a,0x92,0x92,0x94,0xec,0x96,0x54,0x4a,0x95,0xaa,
 0xaa,0xaa,0x4a,0xa9,0x4c,0xaa,0x5a,0x55,0x4d,0x52,0x55,0x15,0x44,0x48,0x20,
 0x7b,0x7b,0x55,0x51,0x52,0x92,0x44,0x49,0x55,0xaa,0x52,0x49,0x55,0xad,0x52,
 0xad,0x52,0x15,0x12,0x25,0x95,0xfe,0xdd,0x4a,0x55,0xa9,0xaa,0x5a,0xa5,0xaa,
 0x95,0x2a,0xa5,0x6a,0xb5,0xaa,0x52,0x95,0x0a,0x48,0x88,0xd4,0x56,0x7b,0x25,
 0x8a,0x4a,0x52,0x52,0x95,0x14,0x52,0x4a,0x0a,0xb5,0xaa,0xaa,0x2f,0x48,0x12,
 0x25,0x25,0x69,0xbd,0xd6,0x95,0x52,0x25,0x95,0x2a,0x55,0xd5,0x4a,0x55,0xa9,
 0x5a,0xd5,0x6a,0x5b,0xa5,0x0a,0x4a,0x52,0x4a,0xd5,0xad,0x52,0x25,0xaa,0xa4,
 0xaa,0xaa,0xaa,0xaa,0x52,0x55,0xed,0xaa,0xfe,0xb7,0x08,0x09,0x51,0x29,0xb5,
 0xaa,0x76,0x29,0xa9,0x22,0x55,0x55,0x55,0x55,0x55,0x55,0x55,0xbb,0x55,0x6b,
 0x5b,0xd5,0x04,0x8a,0x42,0x49,0x75,0x85,0x4a,0x52,0x55,0x55,0xaa,0xaa,0xaa,
 0x5a,0xdb,0xee,0xff,0xf6,0xff,0xed,0x29,0x15,0x52,0xaa,0xaa,0xaa,0x6b,0x55,
 0x4d,0x92,0xaa,0x55,0xd5,0xb6,0xad,0x55,0xb5,0xbe,0x55,0xbd,0xbb,0xa6,0x0a,
 0xa4,0x10,0x00,0x15,0x94,0x55,0x55,0x55,0x24,0x55,0xab,0x6a,0x55,0x55,0x55,
 0xef,0xff,0xff,0xd6,0xaa,0x14,0x52,0x8a,0xa8,0xd4,0x55,0x55,0x55,0x55,0xab,
 0xaa,0x54,0x55,0xb5,0xb6,0xd6,0xfd,0xff,0xff,0xff,0x92,0x0a,0xd4,0x52,0x4a,
 0x2b,0xa5,0x6d,0x55,0x55,0xaa,0xaa,0xaa,0x4a,0xa5,0x48,0x29,0x55,0xed,0x77,
 0xdb,0x55,0x12,0x52,0xaa,0xaa,0xaa,0xaa,0xaa,0xaa,0xaa,0x55,0x55,0x55,0xb5,
 0xaa,0xaa,0xaa,0xaa,0xbb,0xfd,0xf7,0x92,0x0a,0xa8,0xdf,0xff,0xff,0xfd,0xab,
 0x2a,0x49,0xa4,0x94,0x92,0x4a,0x2a,0x55,0x55,0x55,0x55,0x4b,0x9a,0x54,0x15,
 0xaa,0x6a,0x55,0x55,0x57,0x55,0xa5,0x2a,0x95,0x52,0x55,0x55,0xa5,0x4a,0x4a,
 0xaa,0xaa,0xb5,0xed,0x4a,0x09,0x00,0x48,0x55,0xd5,0xba,0x92,0x94,0x54,0x29,
 0x25,0x12,0x49,0xa9,0x94,0x54,0x55,0x55,0xad,0x12,0x29,0x12,0x54,0xa5,0xaa,
 0x5a,0xd7,0x25,0x49,0x25,0xa5,0x94,0xa9,0x2a,0x95,0x52,0xa5,0xaa,0xaa,0xaa,
 0x6a,0x95,0x0a,0x82,0x10,0x00,0x40,0x08,0x82,0x20,0x90,0x48,0x51,0x24,0xa4,
 0x24,0x89,0x08,0x54,0x52,0xa9,0x8a,0x20,0x10,0x20,0x04,0xa9,0x2a,0xa5,0x29,
 0x0a,0x25,0x52,0x24,0x92,0x12,0x49,0x52,0xd2,0x4a,0x29,0x55,0x65,0x55,0x0b,
 0x8a,0x00,0x00,0x00,0x10,0x80,0x20,0x80,0x08,0x81,0x48,0x44,0x24,0x49,0x09,
 0x11,0x85,0x20,0x12,0x82,0x00,0x00,0xa9,0x24,0x55,0x45,0x55,0x48,0x55,0xa2,
 0x54,0x82,0x22,0x49,0x92,0xa4,0xa4,0x50,0x4d,0xa9,0x54,0x0a,0x2a,0x04,0x80,
 0x00,0x90,0x80,0x22,0x00,0x08,0x00,0x29,0x94,0x24,0x24,0x12,0x4b,0x25,0x90,
 0x42,0x89,0x14,0x00,0x41,0x2a,0x54,0x25,0x55,0x10,0xaa,0x22,0x55,0x44,0x49,
 0x42,0x89,0xa4,0x28,0x4a,0x25,0x29,0x52,0x02,0x4a,0x14,0x81,0x82,0x10,0x82,
 0x4a,0x11,0x44,0x08,0x11,0x91,0x08,0x52,0x42,0xa2,0x10,0x92,0x44,0x49,0x15,
 0x00,0x41,0x50,0x54,0x4a,0x29,0x21,0x8a,0x12,0x45,0x4a,0x4a,0x52,0x09,0x91,
 0x14,0x4a,0x49,0x90,0x24,0x04,0x12,0x88,0x0a,0x49,0x21,0x04,0x84,0x20,0x48,
 0x10,0x20,0x10,0x21,0xa4,0x24,0xa1,0x24,0x24,0x25,0x49,0x11,0x40,0x22,0xa0,
 0x24,0x94,0x52,0x29,0x88,0x12,0x8a,0x0a,0x45,0x14,0x11,0x55,0x2a,0x49,0x89,
 0x48,0x2a,0x0a,0x0a,0x88,0x04,0x42,0x01,0x00,0x80,0x22,0x40,0x20,0x20,0x88,
 0x40,0x44,0x88,0x88,0x24,0x10,0x12,0x51,0x09,0x80,0x02,0xa1,0x94,0xa8,0x2a,
 0x29,0x88,0x94,0x0a,0x95,0x22,0x2a,0x29,0x25,0x25,0x49,0xa5,0xa4,0x8a,0x04};
