#define noname_width 152
#define noname_height 269
static char noname_bits[] = {
 0xd5,0xb6,0x75,0x5b,0x6b,0xab,0xb6,0xd5,0x5a,0x6b,0xad,0xad,0xb6,0x56,0x6b,
 0x5b,0x6d,0xad,0xda,0x76,0xdb,0xae,0xed,0xb6,0xda,0xd5,0x5a,0xad,0xb5,0xb6,
 0xd6,0xd5,0xda,0xaa,0xaa,0x55,0xd5,0x56,0xdf,0xff,0xfb,0xb7,0xdf,0x6f,0xbf,
 0xef,0x7b,0xef,0x6d,0xbd,0xae,0xb5,0xb6,0x6d,0x6d,0x5b,0xd5,0xff,0x6d,0xdf,
 0xfd,0xf5,0xfb,0xed,0x75,0xad,0xb5,0xb6,0xab,0xf5,0x5a,0xdb,0x56,0xb5,0xaa,
 0x6d,0xff,0xff,0xff,0xff,0xff,0xff,0xff,0xff,0xff,0xff,0xff,0xff,0xff,0xff,
 0xff,0xff,0xdf,0xff,0xbe,0xff,0xff,0xff,0xff,0xff,0xff,0xff,0xff,0xff,0xff,
 0xff,0xff,0xbf,0xff,0x77,0x7b,0xf7,0xb6,0xeb,0xff,0xff,0xff,0xff,0xff,0xfe,
 0xff,0xff,0xff,0xff,0xff,0xff,0xff,0xff,0xff,0xff,0xff,0xff,0xff,0xf7,0xff,
 0xff,0xff,0xff,0xff,0xff,0xff,0xff,0xff,0xff,0xff,0xff,0xff,0xff,0xff,0xff,
 0xff,0xff,0xff,0xff,0xff,0xff,0xff,0xff,0xff,0xff,0xff,0xff,0xff,0xff,0xff,
 0xff,0xff,0xff,0xff,0xff,0xff,0xff,0xff,0xff,0xff,0xff,0xff,0xff,0xff,0xff,
 0xff,0xff,0xff,0xff,0xff,0xff,0xff,0xff,0xff,0xff,0xff,0xff,0xff,0xff,0xff,
 0xff,0xff,0xff,0xff,0xff,0xff,0xff,0xff,0xff,0xff,0xff,0xff,0xff,0xff,0xff,
 0xfb,0xff,0xff,0xff,0xff,0xff,0xff,0xff,0xff,0xff,0xff,0xff,0xff,0xff,0xff,
 0xff,0xff,0xff,0xff,0xff,0xff,0xfb,0xf7,0xff,0xff,0xff,0xff,0xff,0xff,0xff,
 0xff,0xff,0xff,0xff,0xff,0xff,0xff,0xff,0xff,0xff,0xff,0xff,0xff,0xff,0xff,
 0xff,0xff,0xff,0xff,0xff,0xff,0xff,0xff,0xff,0xf7,0xfb,0xff,0xff,0xdf,0xbf,
 0xff,0xff,0xff,0xff,0xff,0xff,0xff,0xff,0xff,0xff,0xff,0xff,0xff,0xff,0xff,
 0xbf,0xff,0xfe,0xff,0xff,0xff,0xff,0xff,0xff,0xff,0xff,0xbf,0xff,0xff,0xff,
 0xff,0xff,0xff,0xff,0xff,0xff,0xff,0xff,0xff,0xff,0xff,0xff,0xff,0xff,0xdf,
 0xfd,0xfd,0xbf,0xff,0xff,0xff,0xff,0xff,0xff,0xff,0xff,0xff,0xff,0xff,0xff,
 0xff,0xff,0xff,0xff,0xef,0xff,0xff,0xff,0xff,0xfb,0xff,0xff,0xff,0xf7,0xff,
 0xff,0xff,0xff,0xff,0xff,0xff,0x7f,0xff,0x7f,0xf7,0xff,0xff,0xff,0xff,0xff,
 0xff,0xff,0xff,0xff,0xff,0xff,0xff,0xff,0xff,0xff,0xf7,0xfb,0xfd,0xff,0xff,
 0xff,0xff,0x7f,0xff,0xff,0xff,0xff,0xff,0xff,0xff,0xdf,0xff,0xff,0xff,0xff,
 0xbf,0xef,0xbd,0xff,0xef,0xfb,0xff,0xff,0xff,0xff,0xff,0xff,0xff,0xff,0xff,
 0xff,0xff,0xff,0xfe,0xff,0xbf,0xff,0xff,0xff,0xff,0xff,0xff,0xff,0xef,0xff,
 0xff,0xff,0xff,0xff,0xff,0xff,0xff,0xdb,0xff,0xff,0xff,0xff,0xff,0xff,0xff,
 0xdf,0xfd,0xff,0xff,0xff,0xff,0xff,0xff,0xff,0xff,0xff,0xff,0xef,0xfb,0xdf,
 0xff,0xff,0xff,0xff,0xff,0xff,0xff,0xbf,0xef,0xfb,0xff,0xff,0xff,0xff,0xbf,
 0xff,0x7e,0xff,0xfe,0xff,0xff,0xff,0xff,0xff,0xff,0xff,0xfd,0xff,0xff,0xdf,
 0xff,0xff,0xff,0xff,0xfb,0xff,0xff,0xff,0xff,0xff,0xff,0xff,0xff,0xff,0xff,
 0xff,0xff,0xff,0xff,0xff,0xff,0xbf,0xff,0xff,0xff,0xff,0xff,0xfe,0xff,0xff,
 0xff,0xff,0xff,0xff,0xff,0xff,0xbf,0xff,0xff,0xff,0xff,0xff,0xff,0xff,0xff,
 0xff,0xff,0xff,0xff,0xff,0xff,0xff,0xff,0xff,0xff,0xff,0xff,0xff,0xff,0xff,
 0xff,0xfd,0xff,0xff,0xff,0xff,0xff,0xff,0xff,0xff,0xff,0xff,0xff,0xff,0xff,
 0xff,0xff,0xff,0xff,0xff,0xff,0xff,0xff,0xff,0xff,0xff,0xff,0xff,0xff,0xff,
 0xff,0xff,0xff,0xff,0xff,0xff,0xbf,0xff,0xff,0xd5,0xdf,0xfd,0xff,0xff,0xff,
 0xff,0xef,0xff,0xff,0xff,0xff,0xff,0xff,0xff,0x7f,0xff,0xff,0xff,0xff,0xff,
 0xff,0xff,0xff,0xff,0xff,0xff,0xff,0xff,0xff,0xff,0xff,0xff,0xff,0xff,0xff,
 0xff,0xff,0x5b,0xff,0xd7,0xff,0xff,0xff,0xbf,0xff,0xff,0xff,0xff,0xff,0xff,
 0xff,0xff,0xff,0xff,0xff,0xff,0xfe,0xfb,0xff,0xff,0xff,0xff,0xff,0xff,0xff,
 0xff,0xff,0xff,0xfe,0xff,0xff,0xff,0xff,0xff,0xff,0xb7,0xfe,0x7f,0xff,0xbf,
 0xff,0xff,0xff,0xfb,0xff,0xff,0xff,0xff,0xff,0xff,0xff,0xff,0xff,0xff,0xef,
 0xfb,0xfd,0xfb,0xff,0xbf,0xff,0xff,0x7f,0xff,0xbf,0xf7,0xdf,0xff,0xff,0xfe,
 0xff,0xff,0x7f,0x5d,0xfd,0xf7,0xdf,0xff,0xff,0xff,0xff,0xff,0xff,0xff,0xff,
 0xff,0xfb,0xff,0xff,0xff,0xff,0xfd,0x7b,0xff,0xdd,0xff,0xff,0xff,0xff,0xff,
 0xff,0xff,0xff,0xff,0xff,0xff,0xff,0xff,0xff,0xff,0x3f,0xd5,0xde,0xff,0xff,
 0xeb,0xff,0xff,0xff,0xff,0xff,0xff,0xff,0xff,0xff,0xff,0xff,0xff,0xff,0xff,
 0x6e,0x7b,0xf7,0xff,0xff,0xff,0xff,0xff,0xff,0xff,0xf7,0xbf,0xff,0xdf,0xee,
 0xff,0xff,0xff,0xbf,0xdb,0xef,0xfd,0xfd,0x5f,0xf5,0xff,0xff,0xff,0xff,0xbf,
 0xed,0xdb,0xfe,0xff,0xff,0xff,0xff,0xff,0xb6,0xba,0xdf,0xff,0xfb,0xff,0xff,
 0xff,0xff,0xff,0x6a,0x5b,0xb5,0x55,0x55,0x55,0x55,0x55,0x55,0xfb,0x7f,0xf5,
 0x7f,0x7c,0xa5,0xbb,0xff,0xff,0xff,0xdd,0xee,0x6e,0xed,0xbd,0xdb,0xb6,0xed,
 0xff,0xdd,0xda,0xff,0x7f,0xdd,0xdb,0xff,0xdd,0xfd,0xff,0x6b,0xb5,0xb5,0x5b,
 0x6b,0x6d,0xdb,0xb6,0xaa,0xeb,0x6f,0xdb,0x1f,0xf8,0x7f,0x55,0x6b,0xab,0xd4,
 0xbd,0xdf,0xde,0xed,0xb6,0xdb,0xb6,0x5d,0xdb,0x7e,0xfb,0xfe,0x7f,0xf0,0xff,
 0xef,0xbd,0x6d,0xbb,0x6b,0xa9,0xb5,0x56,0x6d,0x6d,0xdb,0xf6,0x76,0xeb,0xee,
 0xbb,0x0f,0xe8,0xff,0x5a,0x6b,0xdb,0x6d,0xad,0x76,0x6d,0xbb,0xdb,0xb6,0x6d,
 0xab,0xad,0xbf,0x7b,0xef,0x2f,0xf0,0xbf,0xf7,0xb6,0x6d,0xdb,0xda,0xdb,0xdb,
 0xd6,0xb6,0x6d,0xdb,0x5e,0x7b,0xed,0xee,0xbd,0x95,0xe8,0xff,0xaa,0x6d,0xdb,
 0xb6,0xb7,0x56,0xad,0x6d,0xdb,0xb6,0x6d,0xeb,0xae,0xbf,0x5b,0xef,0x2f,0xf0,
 0xff,0xdd,0xb6,0x6d,0xdb,0x6a,0xbd,0x5a,0xdb,0xb6,0x55,0xdb,0xb6,0xb5,0xfa,
 0xee,0xbd,0x00,0xf0,0x7f,0x6b,0x5b,0xdb,0xb6,0xdd,0xd6,0xed,0x6d,0xab,0xba,
 0x6d,0x5b,0xdb,0x5f,0x77,0xeb,0x17,0xd0,0xff,0xdd,0xd6,0x6d,0xdb,0xab,0xb5,
 0x56,0xd5,0x76,0xd7,0xaa,0xb6,0xb6,0xea,0xda,0xbd,0x00,0x00,0xed,0x6b,0xbb,
 0xda,0xb6,0x75,0x5b,0x6b,0xbb,0xda,0x6a,0xdd,0xd5,0x5b,0x77,0x6f,0xef,0x00,
 0x40,0x7f,0xdd,0xd6,0x6d,0xab,0x5b,0xed,0xde,0xd6,0xad,0xdd,0xb5,0xae,0xea,
 0xaa,0xba,0x3d,0x00,0x00,0x40,0xbb,0xad,0xd6,0x76,0xd6,0x56,0x65,0xb5,0x76,
 0xab,0x56,0xb5,0x5d,0xdd,0x6d,0x5f,0x00,0x00,0xa8,0xee,0x76,0x77,0xad,0xad,
 0x6d,0xdb,0x6d,0xad,0xb6,0xbd,0xdb,0xea,0xb5,0x86,0x2a,0x2a,0x00,0x00,0xb0,
 0xed,0xda,0x76,0x76,0xb5,0xad,0xaa,0xb6,0xdb,0x66,0x6d,0x37,0x5b,0x57,0x9f,
 0x54,0x00,0x00,0x78,0xb7,0xad,0xad,0xd5,0xaa,0x5a,0xb7,0x55,0x55,0xad,0x55,
 0xd5,0xd6,0x0a,0x05,0x15,0xb0,0x00,0x80,0x6d,0xbb,0x7b,0x5a,0xdb,0xd6,0xda,
 0xda,0xb6,0xd5,0xb6,0x6d,0xb5,0x85,0x9e,0x54,0x48,0x00,0x80,0xb7,0x6d,0xad,
 0x55,0x55,0xb5,0xaa,0xb5,0x6a,0xad,0x6a,0x55,0x6b,0xa1,0x41,0x0a,0x54,0x15,
 0x00,0xaa,0xaa,0x6a,0x6d,0xdb,0xd6,0xb6,0xda,0xb6,0xd6,0xb6,0xb6,0xad,0x45,
 0x2f,0x05,0x28,0x01,0x00,0xdf,0x6e,0xb7,0x55,0x55,0xad,0xd5,0xa6,0xad,0xb5,
 0xaa,0xaa,0x1a,0x50,0x51,0xb2,0x86,0x54,0x05,0xad,0xd5,0xaa,0xda,0xb6,0xb5,
 0x5a,0x7b,0xd5,0x5a,0xdb,0xb6,0xad,0x60,0x95,0x4a,0x55,0x02,0x00,0xde,0x6a,
 0xad,0xab,0x6a,0xab,0xb5,0x4a,0xab,0xd6,0x56,0x6d,0x03,0xaa,0xa8,0x24,0x05,
 0x29,0x01,0x7c,0xad,0x5a,0x6d,0x5b,0xd5,0xd6,0xb6,0x75,0x6b,0xb5,0x55,0x95,
 0xa8,0xaa,0x92,0x5a,0x44,0x04,0xf4,0xd6,0xd6,0xaa,0xaa,0xae,0x5a,0x6d,0x4d,
 0x55,0x55,0xdb,0x20,0xaa,0xa0,0xc8,0xa5,0x12,0x01,0x52,0xad,0xb5,0xb7,0x6d,
 0x6b,0x6d,0xab,0xf6,0xb6,0xdb,0xaa,0x92,0x54,0x54,0x62,0x96,0x48,0x00,0xe8,
 0xb6,0x5a,0xaa,0xaa,0xda,0xaa,0xaa,0x4a,0xad,0xaa,0x36,0x48,0xaa,0x80,0xd8,
 0x49,0xa5,0x82,0x93,0x69,0xeb,0xb5,0x6d,0xab,0xd6,0xb6,0xb5,0xd5,0xda,0x5a,
 0x12,0x55,0x52,0x52,0x26,0x29,0x80,0xaa,0xae,0x55,0x55,0x5b,0x55,0xad,0x6a,
 0xab,0x5a,0x55,0x15,0x84,0x86,0x00,0xac,0x52,0x52,0xa0,0x45,0x55,0xad,0x6d,
 0x55,0xbb,0x6b,0x5b,0xb5,0xad,0x6e,0x1b,0x21,0x35,0x10,0x55,0x89,0x29,0x81,
 0x8a,0xdb,0xb6,0xd5,0x6a,0x55,0x55,0xd5,0x56,0x75,0xd5,0x07,0xc0,0x02,0x00,
 0x0b,0x51,0x06,0xb0,0xa0,0xb6,0x6a,0x5a,0xad,0xad,0xdd,0x5a,0xb5,0xad,0xb7,
 0x0a,0x80,0x4a,0x09,0xa4,0x44,0x55,0x40,0x43,0xab,0xad,0xb5,0xaa,0x5a,0x55,
 0xab,0x6d,0x2b,0x2c,0x40,0x34,0x21,0xc4,0x01,0xb0,0x14,0xb4,0x40,0xad,0x5a,
 0xd6,0xb6,0x6a,0x6b,0x6d,0xdb,0x56,0x35,0x00,0x90,0x0a,0x01,0x85,0x8a,0x0a,
 0xa8,0x82,0x76,0xab,0x55,0x6d,0xab,0xb6,0xdb,0x04,0x00,0x00,0xa0,0x2a,0x20,
 0x40,0x21,0x30,0x15,0xaa,0x48,0xd5,0xda,0x6d,0xdb,0x5a,0x6b,0x6d,0x2b,0x00,
 0x10,0x00,0x49,0x09,0x85,0x82,0xa0,0x14,0xa9,0x12,0x5a,0x6d,0xaa,0x76,0xb7,
 0x04,0x00,0x00,0x00,0x20,0x50,0x95,0x20,0x50,0x01,0x5a,0xa1,0x56,0xf5,0xaa,
 0xaa,0xaa,0xda,0x6d,0x0b,0x00,0x00,0x00,0x88,0xa0,0x52,0x88,0xa2,0xa2,0x24,
 0x95,0x54,0x2d,0xd5,0xb6,0x55,0xff,0xdf,0x15,0x00,0x00,0x00,0x40,0x48,0xaa,
 0x22,0xa8,0x00,0x59,0xa2,0xda,0xab,0xaa,0xaa,0x55,0xb5,0xb5,0x0a,0x00,0x00,
 0x00,0x00,0xa1,0x5a,0x08,0xaa,0xa0,0x54,0x55,0x6b,0x5d,0x75,0x55,0xaa,0xee,
 0xdf,0xbf,0xaa,0x4a,0x00,0x80,0x0a,0x95,0x92,0x54,0x40,0x2a,0xaa,0x56,0xa5,
 0x94,0xaa,0xa5,0x7a,0xeb,0x4a,0x55,0x29,0x01,0x00,0x81,0x6a,0x0a,0xa9,0x28,
 0x95,0x52,0xb5,0x55,0x55,0x55,0xaa,0xf6,0xbd,0xb7,0xaa,0xaa,0x06,0x4a,0x2d,
 0xab,0x00,0x17,0xa0,0x55,0xa9,0xaa,0xaa,0x54,0x55,0x55,0x6d,0xd7,0x5a,0x55,
 0x55,0x29,0x10,0x92,0x2c,0x45,0x2a,0xa8,0xaa,0xaa,0x55,0x95,0xaa,0xaa,0xaa,
 0xda,0x6e,0x57,0x55,0x55,0x95,0xec,0x6d,0x53,0x08,0x00,0x70,0x55,0xb5,0x56,
 0x55,0x52,0x49,0x55,0x6d,0xb5,0xaa,0xaa,0xaa,0x2a,0x12,0x95,0x54,0x45,0x01,
 0xa8,0xad,0x5a,0x6b,0x55,0xa9,0xaa,0xaa,0x92,0x4a,0x55,0x55,0x55,0x55,0x54,
 0x55,0xab,0x14,0x40,0x57,0x25,0xf5,0x5a,0x55,0x4a,0x55,0x55,0x6d,0xb5,0x5a,
 0x95,0xda,0x56,0xa9,0xaa,0x54,0x6a,0x91,0x6a,0x55,0x55,0xab,0xaa,0xa9,0xaa,
 0x52,0xa5,0x4a,0x55,0x55,0x52,0xa9,0xaa,0xda,0x8a,0x92,0x56,0x95,0xaa,0x6e,
 0xad,0x55,0x52,0x92,0x55,0x55,0x55,0xad,0xaa,0xaa,0x56,0xaa,0xaa,0xaa,0x6a,
 0x55,0xd5,0xaa,0xb5,0xb7,0xaa,0x4a,0x55,0xaa,0xaa,0x54,0x35,0x55,0x55,0xa9,
 0xaa,0x02,0x50,0x55,0xa9,0x2a,0x55,0x6f,0x55,0xab,0x52,0x55,0x55,0x55,0x55,
 0xdd,0xaa,0x4a,0x55,0x55,0x05,0x28,0xb5,0x56,0xdb,0xaa,0x5a,0xbb,0x5a,0x95,
 0xaa,0x4a,0xaa,0xaa,0x52,0x55,0x95,0x2a,0x2d,0x80,0xd6,0xd6,0xaa,0x2a,0xd5,
 0x6a,0xaa,0xaa,0xa2,0x94,0x55,0x55,0x55,0xbd,0x52,0x55,0x55,0x55,0x40,0x55,
 0xb5,0xaa,0xaa,0x55,0x5d,0xad,0x55,0x55,0x55,0xaa,0xaa,0xaa,0x42,0x2a,0xa9,
 0xa4,0x02,0xb4,0xbd,0x45,0x55,0x55,0xaa,0x52,0x50,0xb5,0x4a,0xa5,0x55,0x55,
 0xa9,0xba,0xaa,0x56,0x55,0x01,0xa8,0x56,0x95,0xaa,0xaa,0x55,0x5d,0xd5,0xaa,
 0x2a,0x55,0xaa,0xaa,0xaa,0xa2,0x52,0xa9,0x0a,0x40,0x77,0x55,0x40,0x55,0x55,
 0x4a,0xa5,0x22,0xab,0x55,0xaa,0xa5,0x52,0x55,0xad,0x2a,0x55,0x2d,0xa0,0xaa,
 0x6d,0x55,0xaa,0xaa,0xa5,0x54,0xa9,0xb5,0x4a,0x55,0x2a,0x95,0x2a,0x59,0xa5,
 0xaa,0x00,0xde,0x5b,0x13,0x82,0x54,0x55,0x4a,0x55,0x15,0xaa,0x9a,0x52,0xaa,
 0xaa,0xaa,0x66,0xab,0xaa,0x00,0xb4,0xd6,0xda,0x54,0x55,0xab,0x52,0xaa,0xaa,
 0x55,0xa5,0xaa,0x55,0x55,0x55,0xb5,0x55,0x15,0xc0,0x6b,0x55,0x00,0x91,0x6a,
 0x55,0x55,0x49,0xaa,0x52,0x55,0x95,0xaa,0xaa,0xaa,0x6a,0x55,0x2a,0x20,0xad,
 0x2a,0xa5,0xa4,0xaa,0xaa,0xaa,0xaa,0xaa,0xa4,0xaa,0x54,0x92,0x54,0xa9,0xda,
 0xaa,0x2a,0x54,0x11,0x00,0x00,0x5a,0xad,0x2a,0x55,0x55,0xa5,0x02,0x89,0xaa,
 0x55,0x55,0x55,0x6a,0xab,0x2a,0xa8,0x0a,0x01,0x92,0x52,0x55,0x55,0xd5,0xb6,
 0xaa,0x4a,0x55,0x52,0xaa,0xaa,0xaa,0xd5,0xaa,0xad,0x04,0x00,0x40,0x48,0xad,
 0xaa,0xaa,0xad,0xed,0x56,0x15,0xa8,0xaa,0xaa,0x4a,0x55,0x75,0x6d,0xb5,0x00,
 0x00,0x00,0x51,0x55,0xa5,0x6a,0x75,0xb5,0xad,0x2a,0x25,0x55,0x29,0x95,0x4a,
 0xda,0xbb,0x5f,0x00,0x00,0x94,0x56,0x49,0xaa,0xaa,0x4a,0x55,0x75,0xab,0x4a,
 0x49,0xaa,0x6a,0xa9,0xad,0xd6,0x55,0x00,0x00,0x41,0xa8,0x2a,0x55,0x55,0xb5,
 0xae,0xdd,0x5a,0xa5,0xaa,0x55,0x49,0x55,0xfa,0x55,0x5b,0x01,0x00,0x54,0x2b,
 0xd5,0x92,0xfe,0xaf,0x52,0xa2,0x25,0x49,0x2a,0xa9,0xaa,0xaa,0xaa,0xb6,0x6a,
 0x00,0x40,0xa9,0xaa,0x2a,0x55,0xfb,0xaf,0x95,0xaa,0x5a,0x95,0xaa,0x4a,0x55,
 0x55,0x75,0x49,0x95,0x00,0x92,0xaa,0xaa,0xaa,0xea,0xff,0x7f,0x55,0x00,0x80,
 0x4a,0xa5,0xaa,0xaa,0xaa,0xaa,0xb6,0x6a,0x01,0x20,0x55,0xaa,0xaa,0xaa,0xfe,
 0x5e,0x25,0x55,0x45,0x95,0x54,0x55,0x55,0x55,0x55,0x49,0xa5,0x52,0x57,0x52,
 0x95,0x52,0xf5,0xff,0xff,0xff,0x22,0x28,0x49,0xaa,0xaa,0x2a,0xa9,0xaa,0xaa,
 0x54,0x81,0xa8,0x55,0x55,0x55,0xad,0xee,0xff,0x5f,0x57,0xa5,0x16,0x55,0x52,
 0x52,0x25,0x55,0x55,0x55,0x2d,0x15,0xaa,0xaa,0xaa,0xf6,0xff,0xff,0xff,0xaf,
 0xab,0x54,0x49,0x55,0x55,0xd5,0xaa,0xaa,0xaa,0x52,0xd5,0x4a,0x55,0x55,0xad,
 0xd7,0xff,0xff,0x6f,0x55,0xab,0xaa,0xaa,0xaa,0x2a,0x55,0x55,0x95,0xaa,0x52,
 0x55,0x52,0xaa,0xf7,0xfa,0xff,0xfe,0xff,0x5f,0x15,0x25,0xaa,0xaa,0xaa,0xaa,
 0xaa,0x52,0x95,0xaa,0xaa,0xaa,0xaa,0xbb,0xaf,0xdf,0xf7,0xff,0x7f,0x55,0xa9,
 0x95,0xaa,0xaa,0xaa,0xaa,0xaa,0xaa,0x94,0x52,0x55,0xd5,0xed,0xfa,0x6a,0x5d,
 0xff,0xff,0x5a,0x95,0xaa,0xaa,0xaa,0xaa,0xaa,0xaa,0xaa,0xaa,0xaa,0xaa,0xea,
 0x7b,0xdf,0xbf,0xef,0xfb,0xef,0x6a,0x55,0x52,0x52,0xaa,0x94,0x52,0xaa,0x54,
 0x55,0x55,0x55,0xfa,0xae,0x75,0xdb,0x54,0x56,0xfb,0xbf,0x48,0xaa,0xaa,0xaa,
 0xaa,0xaa,0xaa,0xaa,0xaa,0xaa,0x4a,0xd5,0xfb,0xfe,0x6f,0xb7,0xfb,0xff,0xbf,
 0xaa,0x55,0x95,0x4a,0x55,0x55,0x55,0x25,0x49,0x25,0xa9,0xfa,0x47,0xab,0x9a,
 0x48,0x4a,0xdd,0x7f,0x11,0xaa,0xaa,0xaa,0xaa,0xaa,0x4a,0xd5,0xaa,0x54,0x55,
 0xfd,0xba,0xfe,0x6d,0xaa,0xb5,0xf6,0x5d,0xd5,0x52,0xaa,0xaa,0x52,0x55,0x55,
 0x95,0xaa,0xaa,0xaa,0xfe,0x41,0x0b,0x05,0x00,0xaa,0x55,0xb7,0x2a,0xaa,0xaa,
 0xaa,0xaa,0x2a,0x55,0x55,0x55,0x55,0x95,0x7a,0xa7,0x75,0x55,0xd5,0xaa,0x5a,
 0x5d,0xa5,0x55,0x55,0x55,0x55,0xa9,0xaa,0xaa,0xaa,0xaa,0xaa,0xdf,0x5a,0x82,
 0x22,0x08,0x41,0xa5,0x50,0x2a,0x2a,0xa5,0x2a,0x55,0x55,0x55,0x55,0xa5,0xaa,
 0x54,0xfd,0xaa,0x55,0x95,0x52,0xaa,0x5a,0xaa,0xaa,0x52,0x29,0xa9,0xaa,0xaa,
 0xaa,0x52,0x55,0xa5,0xaa,0xaf,0xb6,0xa4,0xaa,0x4a,0x01,0xa1,0x4a,0xa9,0xaa,
 0xaa,0xaa,0xaa,0xaa,0x52,0xaa,0xaa,0xaa,0x52,0xfd,0xda,0x52,0x45,0x52,0xaa,
 0x9a,0x24,0x55,0x55,0x55,0x55,0x55,0x2a,0x55,0x55,0x55,0x55,0x55,0x5f,0x55,
 0xab,0x28,0x89,0x24,0x21,0xa9,0x52,0xaa,0xaa,0xaa,0x4a,0x55,0x55,0x55,0x55,
 0xaa,0xaa,0xf7,0x54,0xad,0x8a,0x54,0x92,0x54,0x52,0x55,0x92,0xaa,0x4a,0xa9,
 0x52,0x95,0xaa,0xa4,0x4a,0x55,0x7d,0x6d,0xdb,0x22,0xa0,0x24,0xa5,0x44,0x55,
 0x55,0x55,0x55,0x55,0x55,0x55,0x95,0x5a,0x55,0xaa,0xdf,0xb4,0x6d,0x15,0x95,
 0x92,0x12,0x55,0xaa,0xaa,0xa4,0xaa,0xaa,0xaa,0xaa,0xaa,0xa2,0xaa,0x52,0x2a,
 0x6b,0xdb,0x6e,0x48,0x24,0x49,0x89,0x92,0xaa,0xaa,0xaa,0xaa,0xaa,0xaa,0xaa,
 0x5a,0x55,0x55,0x5b,0xda,0xb6,0x55,0x25,0x95,0x54,0x55,0x55,0x49,0x55,0x55,
 0x55,0x55,0xa9,0x54,0xa5,0xaa,0xaa,0xa4,0x6a,0xdb,0xbe,0x5b,0xa9,0x22,0xa1,
 0xaa,0xaa,0xaa,0xaa,0xaa,0xaa,0xaa,0xaa,0xaa,0x4a,0x95,0x2a,0xdd,0x6e,0x6b,
 0xad,0x24,0x55,0x95,0x54,0x55,0x55,0x49,0x55,0x52,0x55,0x55,0x55,0xa9,0x54,
 0xa5,0xaa,0xda,0xaa,0x55,0x55,0xaa,0x28,0x45,0xaa,0xaa,0xaa,0xaa,0x55,0x55,
 0x95,0xaa,0xaa,0xaa,0x52,0x55,0x57,0xd5,0xaa,0x4a,0x55,0xa5,0xaa,0x2a,0x55,
 0x55,0x25,0x95,0xaa,0xaa,0x24,0x55,0x55,0x55,0xad,0x94,0x92,0x52,0x25,0x29,
 0x54,0x29,0xa5,0xaa,0xaa,0xaa,0xaa,0xaa,0x54,0x55,0x55,0x55,0xa9,0xb6,0xa5,
 0x54,0xa9,0x4a,0xd5,0x92,0xaa,0xaa,0x94,0x2a,0x55,0x55,0x95,0xaa,0xaa,0x2a,
 0x95,0x54,0x55,0x11,0x51,0x45,0x2d,0x00,0xaa,0x4a,0xaa,0xaa,0xaa,0xaa,0xaa,
 0x6a,0x55,0x55,0x55,0x55,0x55,0x5b,0xa5,0x4a,0xaa,0xaa,0x02,0x54,0xa9,0x29,
 0x55,0x55,0x55,0x55,0x49,0xa5,0xaa,0xa4,0x2a,0x6a,0x64,0x01,0x29,0x95,0xaa,
 0xea,0x95,0x2a,0xaa,0xaa,0x52,0x55,0x55,0x55,0x55,0xa5,0xaa,0xaa,0xb4,0xb5,
 0xaa,0x92,0x52,0xa9,0x14,0x55,0xaa,0xaa,0x52,0x55,0x55,0xa9,0xaa,0xaa,0xaa,
 0xaa,0x0a,0x4d,0x55,0x24,0x25,0x00,0x84,0x6a,0xaa,0x24,0xa5,0xaa,0xaa,0xaa,
 0x56,0x55,0x55,0xaa,0xaa,0xaa,0xb4,0xaa,0x92,0x92,0xaa,0x52,0x95,0xa5,0xaa,
 0xaa,0xaa,0x2a,0xa5,0xa8,0xaa,0x54,0x95,0xaa,0x0a,0xa9,0xaa,0x20,0x49,0x24,
 0xad,0x6a,0x4a,0x55,0x55,0x55,0xd5,0xaa,0x56,0x55,0x55,0x55,0x55,0x95,0x5a,
 0x55,0xaa,0x94,0x52,0x55,0x55,0xb5,0x4a,0x4a,0x4a,0x95,0xaa,0x2a,0x55,0xa5,
 0xaa,0xaa,0x42,0xaa,0x2a,0x49,0x49,0xad,0x2a,0x52,0x45,0xa9,0x55,0x55,0x55,
 0x55,0xa9,0xaa,0xaa,0xaa,0x52,0x95,0xaa,0xad,0xa4,0x54,0xaa,0xaa,0x55,0x59,
 0x55,0xaa,0xaa,0xaa,0xaa,0xa6,0xa4,0x2a,0x29,0x95,0x40,0x54,0x4b,0x29,0xa9,
 0xaa,0x2a,0x4a,0x92,0x4a,0x55,0x55,0x55,0x55,0x55,0x55,0x55,0xd5,0xaa,0x92,
 0x6a,0x55,0x94,0x4a,0x55,0xd5,0x52,0x55,0xa9,0x92,0x94,0xaa,0xaa,0x54,0x55,
 0xaa,0x2a,0x55,0x20,0xd5,0x2a,0x53,0x52,0x55,0x15,0x95,0x2a,0x95,0x55,0x55,
 0x55,0x55,0xab,0xaa,0xaa,0xaa,0xaa,0x94,0x54,0x55,0x29,0xa9,0x54,0xd5,0x52,
 0xa5,0x52,0xaa,0xaa,0x52,0xa5,0x54,0x55,0x55,0xa5,0x2a,0x20,0xd5,0x86,0x4a,
 0x95,0xaa,0x2a,0x55,0x2a,0x55,0xaa,0xaa,0xaa,0xaa,0xaa,0xaa,0xaa,0xaa,0xaa,
 0x4a,0x55,0x75,0x52,0x52,0x55,0x55,0xa9,0xaa,0xaa,0x49,0xa5,0xaa,0xaa,0xaa,
 0x54,0x49,0x55,0x29,0x10,0x69,0x8b,0x4a,0x45,0xaa,0x4a,0x25,0x49,0x92,0xaa,
 0xaa,0xaa,0xaa,0xaa,0xaa,0xaa,0xaa,0x2a,0xa4,0xaa,0x55,0x55,0x52,0x55,0xab,
 0x54,0x55,0x55,0x55,0x55,0x55,0x55,0x55,0x95,0x2a,0x55,0x15,0x91,0x68,0x95,
 0x88,0x94,0xaa,0x54,0xa5,0x52,0xaa,0xaa,0xaa,0xaa,0xaa,0x4a,0x55,0x55,0xa5,
 0x0a,0x4a,0xaa,0x56,0x55,0x55,0x55,0x2b,0x55,0xaa,0x4a,0x92,0x54,0x29,0x95,
 0x54,0xa9,0xaa,0x2a,0x45,0x20,0xa9,0xa9,0x52,0x52,0x55,0x55,0xa9,0xa4,0x94,
 0xaa,0x2a,0x55,0x55,0x55,0x55,0x55,0xa9,0x12,0x8a,0xd4,0x2a,0x29,0xa9,0xaa,
 0xaa,0x4a,0x95,0x52,0x55,0x55,0x55,0x55,0x55,0x55,0x55,0x55,0x41,0x51,0x55,
 0xa5,0x92,0xaa,0xaa,0x24,0x95,0xaa,0xaa,0xaa,0xaa,0xaa,0xaa,0xaa,0xaa,0xaa,
 0xaa,0x2a,0x2a,0x55,0x55,0x4a,0x55,0x55,0xab,0x54,0x55,0x4a,0x92,0x52,0x55,
 0x55,0x55,0x55,0xa5,0xaa,0x80,0xa4,0x56,0x55,0x29,0x52,0x55,0x55,0x29,0x49,
 0x95,0xaa,0xaa,0xaa,0xaa,0xaa,0xaa,0x54,0x55,0x51,0xa9,0x6a,0x95,0x4a,0x55,
 0x55,0xa5,0xa6,0xaa,0x52,0x55,0x2a,0xa5,0xaa,0xaa,0x54,0xab,0x2a,0x04,0x92,
 0xaa,0x52,0x92,0x54,0xa5,0x4a,0x4a,0x15,0xa5,0x54,0x55,0x55,0x55,0x55,0xa5,
 0x54,0x55,0x51,0xa5,0xaa,0x2a,0xa9,0xaa,0xaa,0xaa,0x52,0xc9,0x54,0xa5,0xaa,
 0xaa,0x4a,0xaa,0xaa,0x2a,0x55,0x4a,0x48,0x55,0xa5,0x92,0x54,0x55,0x29,0x55,
 0x2a,0x49,0x95,0x4a,0x55,0xa9,0x55,0x55,0x55,0x95,0x24,0xa5,0x6a,0x55,0x4a,
 0x55,0x55,0x55,0x55,0x55,0x55,0xaa,0x54,0x55,0x55,0x4a,0xaa,0xaa,0x2a,0x92,
 0xaa,0xd6,0xaa,0x54,0x02,0x6a,0xa5,0x92,0xa2,0x92,0x55,0x55,0x55,0x55,0xb5,
 0xaa,0xaa,0x4a,0xa9,0x50,0xa9,0xaa,0x4a,0x55,0xb5,0xaa,0x54,0x99,0x54,0xaa,
 0xaa,0xaa,0xaa,0x4a,0x55,0x55,0x15,0x44,0x56,0xb7,0x12,0xa9,0x2a,0xaa,0x4a,
 0x25,0x25,0xa5,0xa5,0x2a,0x55,0x55,0xb5,0xaa,0xaa,0x4a,0x29,0xa9,0xaa,0x4a,
 0x55,0x45,0xd5,0xaa,0xaa,0xaa,0x2a,0xaa,0xaa,0x52,0x55,0x55,0x55,0xa5,0x8a,
 0xa4,0xaa,0x5d,0x55,0xaa,0x54,0x35,0x15,0x55,0xaa,0x54,0x55,0x55,0x55,0x55,
 0x55,0x55,0x55,0x25,0x92,0xaa,0xd6,0xaa,0xaa,0xaa,0x5a,0x65,0x49,0x49,0x95,
 0xaa,0x54,0x95,0xaa,0xaa,0xaa,0xaa,0x92,0x24,0x55,0x55,0x49,0x55,0x55,0xab,
 0x8a,0xaa,0x2a,0x29,0x95,0xaa,0x6a,0x55,0x55,0x55,0x55,0x25,0x49,0x6a,0xab,
 0xaa,0x54,0x55,0xad,0xb2,0x54,0x4a,0xa5,0xaa,0x52,0x95,0xaa,0xaa,0xaa,0xaa,
 0x8a,0xa4,0xaa,0x5a,0x55,0xaa,0xaa,0x2a,0xa5,0x92,0x54,0x2a,0x52,0x2d,0x55,
 0x55,0x55,0x55,0x55,0x25,0x29,0xb5,0x55,0x29,0xa9,0xaa,0x56,0x55,0x55,0x25,
 0x95,0x95,0x52,0xa9,0xaa,0xaa,0xaa,0x4a,0x91,0x52,0x55,0xad,0xaa,0xa0,0xaa,
 0xaa,0x2a,0xa5,0xaa,0xa4,0xaa,0xaa,0x56,0x55,0x55,0x55,0x55,0x25,0x89,0xaa,
 0x6a,0x55,0x55,0x55,0x55,0xa5,0x54,0x92,0x52,0x52,0xaa,0x54,0x55,0x55,0x55,
 0xaa,0x90,0xaa,0xb6,0xb5,0x92,0x40,0xab,0x5a,0x2a,0xa5,0x54,0x95,0x55,0x55,
 0xab,0xaa,0xaa,0xaa,0x55,0xa5,0x54,0x55,0xad,0xaa,0xaa,0x54,0x55,0x55,0x95,
 0xaa,0x54,0xaa,0xaa,0x54,0x55,0x55,0x55,0xaa,0x48,0x52,0xd5,0xb6,0x4a,0x01,
 0x5b,0xa5,0xa4,0x54,0x45,0x49,0xa5,0xaa,0xaa,0xaa,0xaa,0xaa,0xaa,0x92,0xaa,
 0x5a,0xab,0xaa,0x94,0x54,0x55,0x55,0xa5,0x32,0x55,0x2a,0x55,0x55,0x55,0x55,
 0x55,0x55,0x2a,0x45,0xb5,0x5a,0x95,0x0a,0x40,0x2a,0x49,0x4a,0x4a,0x49,0xaa,
 0xaa,0xaa,0xaa,0xaa,0xaa,0x2a,0xa1,0x54,0x5b,0x55,0x55,0x15,0x92,0xaa,0xaa,
 0xaa,0xaa,0xaa,0x55,0xa9,0xaa,0xaa,0xaa,0xaa,0xaa,0x4a,0x55,0xb5,0xab,0xaa,
 0x6a,0x41,0x52,0x55,0x29,0x49,0x12,0xa9,0x56,0x55,0x55,0x55,0x55,0x55,0xa8,
 0xaa,0xca,0x5a,0x55,0x95,0x94,0x2a,0x95,0x4a,0x55,0xd5,0x4a,0xaa,0xaa,0xaa,
 0xaa,0xaa,0x2a,0x95,0xaa,0xb5,0xb6,0x52,0xaa,0x12,0x54,0xa9,0x54,0x92,0x24,
 0xaa,0xaa,0xaa,0xaa,0xaa,0x4a,0x55,0x49,0xa9,0x5a,0x55,0x55,0xa5,0x4a,0xa5,
 0xaa,0xaa,0xaa,0xaa,0x55,0x55,0x55,0x55,0x55,0x55,0x0a,0x55,0x55,0xd5,0xaa,
 0xaa,0x2a,0x55,0xaa,0x4a,0x49,0x52,0x49,0xaa,0xaa,0xaa,0xaa,0xaa,0x54,0x55,
 0xaa,0xaa,0x56,0x55,0x55,0x55,0x25,0xa9,0x54,0xaa,0xaa,0x54,0x52,0xaa,0xaa,
 0xaa,0x4a,0x55,0xa5,0x54,0x55,0xb5,0xb6,0xaa,0xaa,0x4a,0x50,0xa9,0x2a,0x25,
 0xa5,0x55,0x55,0x55,0x55,0xb5,0xaa,0x2a,0xa5,0xaa,0xaa,0x55,0x55,0x55,0xaa,
 0x4a,0x55,0xa5,0x54,0x55,0xaa,0xaa,0xaa,0xaa,0x54,0x55,0x95,0xaa,0x6a,0xad,
 0xd6,0xaa,0xaa,0x54,0x91,0x4a,0x4a,0x25,0x49,0x55,0x55,0x55,0x55,0xab,0xaa,
 0x4a,0x55,0x55,0x6b,0x5b,0x55,0x95,0x4a,0x4a,0x55,0x55,0x55,0x55,0xaa,0xaa,
 0xaa,0xaa,0x24,0x25,0x25,0x2a,0x55,0x55,0x55,0x25,0xb5,0xaa,0x32,0x92,0x28,
 0x49,0x92,0x55,0x55,0xa9,0xaa,0x5a,0xd5,0x52,0xa5,0xaa,0xaa,0x6a,0x55,0x55,
 0xa5,0x8a,0xaa,0x56,0x55,0x55,0xaa,0xaa,0x56,0x55,0xa5,0x2a,0x45,0x59,0x55,
 0x6d,0x5b,0x55,0x55,0x55,0xb5,0xaa,0x48,0xa9,0x92,0x55,0x55,0xa9,0xaa,0xaa,
 0xaa,0x5a,0xa5,0xaa,0xb5,0xad,0xaa,0xaa,0xaa,0x8a,0x54,0x2b,0x95,0x54,0x2a,
 0xa9,0xaa,0x52,0x55,0x55,0x45,0xaa,0xaa,0xaa,0xaa,0x54,0xa9,0x55,0x32,0x49,
 0xaa,0x24,0xa5,0xaa,0x56,0x55,0xad,0xaa,0xaa,0x52,0x55,0xb5,0xaa,0x56,0xab,
 0xaa,0xaa,0x4a,0x55,0x55,0x55,0x55,0x55,0xa9,0xaa,0x52,0x55,0x55,0x55,0x55,
 0xaa,0xb5,0x55,0x4a,0x55,0x55,0x55,0x4a,0x49,0x52,0x8a,0xaa,0xaa,0xaa,0xaa,
 0xaa,0xaa,0x4a,0x55,0xab,0x5a,0xad,0xaa,0xaa,0xaa,0xaa,0x52,0x55,0x95,0x52,
 0x52,0x55,0x55,0x55,0x55,0x29,0x51,0x55,0x55,0xd5,0xaa,0x2a,0x95,0xaa,0x12,
 0x95,0x92,0xa4,0x54,0xaa,0xaa,0xaa,0xaa,0xaa,0xaa,0xaa,0xaa,0x6a,0x6d,0xad,
 0xaa,0xaa,0xaa,0xaa,0x54,0xaa,0xaa,0x4a,0x12,0x49,0x92,0x94,0x24,0x25,0x55,
 0x55,0x55,0xab,0x55,0x55,0xa9,0xaa,0xaa,0xaa,0xaa,0x2a,0x55,0xaa,0xaa,0xaa,
 0xaa,0xaa,0x54,0xa9,0xaa,0x5a,0x55,0x5b,0x55,0x55,0x55,0x55,0x55,0x55,0x55,
 0xa9,0x55,0x55,0x55,0x55,0x55,0x55,0xaa,0x4a,0xab,0xda,0x8a,0x54,0x25,0x49,
 0x55,0x21,0x09,0x48,0x45,0x6a,0x55,0x55,0x55,0x55,0x55,0x55,0x55,0xd5,0x56,
 0x6b,0x55,0xaa,0xaa,0xaa,0x5a,0xd5,0xa6,0x54,0xbb,0xef,0x6e,0xdb,0xfd,0x6d,
 0x49,0xaa,0xaa,0xba,0x56,0xab,0xaa,0x2a,0x49,0xa5,0x2a,0x29,0x95,0x6d,0xb5,
 0xb5,0x6d,0xab,0xb6,0xaa,0x55,0x6d,0x55,0xb5,0xaa,0xaa,0xaa,0xaa,0x54,0xd5,
 0xaa,0x52,0xb7,0x6d,0xef,0xb6,0xdd,0x5b,0x2a,0x52,0x55,0xeb,0x76,0x57,0x49,
 0x55,0x55,0xf5,0xbf,0xff,0xbf,0x7a,0xb7,0xb5,0xdd,0x76,0xbd,0xd5,0xaa,0x56,
 0x55,0xad,0xab,0xaa,0xaa,0xaa,0xaa,0xea,0x55,0xd5,0xeb,0xda,0x6e,0x77,0xdb,
 0x6b,0xa4,0x4a,0x6d,0xad,0x75,0xad,0xaa,0xaa,0xaa,0xd2,0x5f,0xbf,0x7f,0x5d,
 0xb7,0xb5,0xdb,0x6e,0x5d,0x55,0xd5,0xaa,0xb5,0xbe,0x57,0x55,0xaa,0xaa,0xaa,
 0xb5,0xeb,0xd5,0xfb,0xfa,0xde,0x6e,0xdb,0x36,0x55,0xaa,0x55,0x55,0xd5,0xaa,
 0x54,0x55,0x55,0x55,0xdb,0xb6,0xb6,0x56,0xaf,0x6b,0xdb,0xb6,0xad,0x54,0x55,
 0xb5,0xda,0x76,0x5f,0x95,0xaa,0xaa,0xaa,0x6d,0xbb,0xed,0xbb,0xdd,0xbe,0xfd,
 0xdf,0x57,0x55,0xa9,0xd6,0x56,0xdb,0x55,0xa9,0xa4,0x52,0x52,0xdb,0xd6,0xb6,
 0x6d,0xeb,0xed,0xaf,0xea,0xba,0x52,0xd5,0x6a,0xd5,0xb6,0x56,0x55,0x55,0xad,
 0xaa,0x6d,0xbb,0xad,0x80,0x00,0x00,0x00,0x12,0x42,0x55,0xb5,0x55,0x5b,0x6d,
 0xab,0x4a,0x4a,0x51,0xa5,0xb7,0xed,0xfe,0x2a,0xaa,0x2a,0x51,0xa9,0x54,0xaa,
 0xaa,0xba,0xed,0xd6,0xb6,0xaa,0xaa,0x56,0x55,0xed,0xbb,0xab,0xd5,0xad,0xb5,
 0x6e,0xd7,0x95,0x94,0xaa,0x55,0x55,0x01,0x40,0xa9,0x52,0xa9,0x2a,0x00,0x00,
 0x00,0x5a,0xb5,0xda,0x55,0x55,0x4a,0x55,0xd5,0xd6,0xb6,0x54,0x55,0x55,0x55,
 0x55,0x95,0x12,0x92,0x54,0x52,0x42,0x25,0xaa,0xa8,0xaa,0xaa,0xb4,0x5a,0x55,
 0xab,0xaa,0xaa,0x94,0xaa,0xaa,0x6a,0x55,0x55,0x55,0xb5,0x52,0x95,0xaa,0x4a,
 0x55,0xab,0xad,0x6d,0x55,0x55,0x55,0x55,0x55,0x55,0x2d,0x55,0xa5,0x4a,0x55,
 0xad,0xaa,0x56,0x55,0x55,0xad,0x6a,0xab,0x54,0xaa,0x4a,0xa5,0xaa,0x52,0x91,
 0x20,0x0a,0xa9,0x4a,0x92,0x52,0x55,0xa5,0xaa,0x6a,0x5b,0x75,0x25,0xa5,0x2a,
 0x55,0x49,0x55,0x4d,0x4a,0xa9,0x2a,0x55,0x55,0xaa,0x52,0xaa,0x94,0xda,0xb6,
 0xad,0xaa,0xaa,0xaa,0x2a,0x55,0x95,0x50,0x95,0x24,0xaa,0xaa,0xaa,0xaa,0xaa,
 0xaa,0x52,0x55,0xd5,0xb6,0x52,0xa9,0xaa,0x92,0xaa,0xaa,0x96,0xa4,0xaa,0x55,
 0x55,0x55,0x55,0xaa,0x52,0x55,0xed,0xb6,0x6a,0x95,0x52,0x55,0xaa,0x54,0x55,
 0x52,0x55,0x95,0xaa,0xaa,0xaa,0xaa,0xaa,0xaa,0xaa,0x5a,0xab,0xad,0xaa,0xaa,
 0x4a,0xa5,0x52,0x2a,0x55,0x4a,0x52,0x55,0x55,0x55,0x55,0x95,0x2a,0x55,0xb7,
 0xb6,0xb6,0x48,0x4a,0xb5,0x2a,0xa5,0x52,0xa2,0x94,0x24,0xa9,0xaa,0xaa,0xaa,
 0xaa,0xaa,0x52,0xd5,0x6a,0x5b,0x55,0xa5,0x4a,0xa9,0x54,0x4d,0x55,0x52,0x95,
 0x2a,0x49,0x52,0xa5,0xaa,0xa4,0xaa,0xb4,0xdb,0x6a,0x55,0x55,0x35,0xa5,0xaa,
 0x32,0x88,0x4a,0x52,0xaa,0xaa,0xaa,0x54,0x55,0x55,0x95,0xea,0x56,0xb5,0xaa,
 0xaa,0x56,0x55,0x55,0x95,0xa6,0x24,0x49,0x92,0x24,0x25,0x55,0xaa,0xaa,0x54,
 0xff,0xff,0xaf,0xaa,0xaa,0xaa,0x24,0x49,0x55,0x59,0x52,0x92,0x49,0xaa,0x54,
 0x55,0x55,0x55,0x55,0xfd,0x5f,0xd5,0xaa,0xaa,0xaa,0xaa,0xaa,0xaa,0xac,0x4a,
 0x55,0xaa,0x92,0x92,0x84,0x88,0x92,0xd2,0xdf,0xf6,0x7f,0x44,0x44,0x55,0x55,
 0x25,0x55,0xb7,0xaa,0x24,0x24,0x49,0x29,0x55,0x65,0xaa,0x54,0xff,0x7f,0xbb,
 0xab,0x52,0xaa,0x4a,0xa9,0xaa,0xbd,0xaa,0xaa,0x49,0x95,0xaa,0xaa,0x9a,0x4a,
 0xed,0xfd,0xfd,0x6f,0x48,0x95,0xaa,0x94,0x52,0xff,0x57,0x4a,0x49,0xaa,0x52,
 0x55,0x55,0x55,0x55,0xd5,0x6f,0x6f,0xfb,0x55,0xaa,0xaa,0x52,0xaa,0xb5,0x7d,
 0x55,0x55,0x2a,0x55,0x55,0x55,0x55,0xb5,0x7a,0xff,0xf7,0x5f,0x55,0x55,0x55,
 0x95,0xfe,0xff,0xd7,0x22,0x92,0xa5,0xaa,0xaa,0xaa,0xaa,0xaa,0xd6,0xdb,0xfd,
 0xf6,0x55,0x55,0xad,0xaa,0xf2,0x7f,0xbb,0x54,0x49,0x54,0x22,0x92,0x94,0x54,
 0xd5,0xfd,0xff,0xff,0x7f,0x6d,0x6b,0xdb,0xaa,0xff,0xff,0xad,0x21,0x92,0x25,
 0x55,0x49,0xa5,0x52,0xb5,0xd6,0xfe,0xbf,0xdd,0x56,0xad,0x55,0xab,0xfe,0x6f,
 0xd7,0x4a,0x49,0x90,0x00,0x12,0x48,0x8a,0xfe,0xfb,0x7b,0xeb,0xb6,0xaa,0x52,
 0xaa,0xf4,0x7f,0xfb,0x5a,0x13,0x25,0x25,0xaa,0x44,0x25,0x51,0xaa,0x6e,0xdf,
 0xbf,0x6d,0x55,0xad,0x55,0xfb,0xff,0xbf,0xed,0xa5,0x48,0x94,0xa4,0x92,0x48,
 0x8a,0x90,0xa8,0x6a,0x75,0xab,0xaa,0x52,0xaa,0xff,0xab,0xaa,0x36,0x49,0x92,
 0x42,0x4a,0x48,0x92,0x52,0xaa,0xd6,0xdd,0xde,0x5a,0x55,0xad,0xaa,0xfe,0x7f,
 0xd5,0xdb,0x25,0x25,0x94,0x90,0x92,0x2a,0xa9,0x22,0x29,0xb5,0x55,0xb7,0xaa,
 0x6a,0xfb,0x2b,0x42,0x7b,0x7f,0xaa,0x48,0xaa,0x2a,0xa9,0x44,0x8a,0x94,0xd4,
 0xaa,0xb6,0x6d,0xd5,0xb6,0xd5,0xfe,0x7d,0xad,0x5d,0x15,0x25,0x00,0x41,0x02,
 0x12,0x21,0x22,0x21,0x55,0xa9,0xaa,0xaa,0xaa,0xbe,0xa5,0xd6,0xf7,0xb6,0x52,
 0x88,0x55,0x2a,0xa9,0x44,0x94,0x94,0x94,0xaa,0x56,0xb5,0xb5,0xaa,0x6a,0xbb,
 0xb5,0x5d,0xd7,0x4a,0x25,0x48,0x55,0xaa,0x92,0x22,0x21,0x22,0x24,0x49,0x92,
 0x44,0xa9,0x54,0xd5,0xae,0xaa,0x28,0x10,0x00,0x25,0x49,0x95,0x54,0x48,0x4a,
 0x49,0x93,0x54,0x55,0xaa,0x54,0xd5,0x6e,0x6b,0xab,0x56,0x85,0x52,0x90,0x24,
 0x22,0x91,0x95,0x94,0x94,0x54,0x25,0x49,0x29,0x45,0x92,0x92,0x8a,0x24,0xa1,
 0x14,0x84,0x0a,0x91,0x54,0x4a,0x49,0x25,0xa5,0xaa,0xaa,0xa4,0x94,0x2a,0x55,
 0xa9,0xb2,0x92,0x28,0x42,0x29,0x20,0x04,0x00,0x00,0x24,0x48,0x48,0x52,0x49,
 0x15,0x49,0x54,0x02,0x02,0x04,0x24,0x43,0x29,0x40,0x09,0x41,0x25,0x55,0x49,
 0x25,0x25,0x55,0xaa,0xaa,0xa4,0x02,0x69,0xa9,0xa2,0x92,0x28,0x04,0x15,0x50,
 0x14,0x90,0x00,0x00,0x90,0x90,0x80,0x24,0x90,0x02,0x54,0x04,0x44,0x54,0x25,
 0x45,0x50,0x40,0x05,0x02,0x25,0x54,0x55,0x25,0x24,0xaa,0x92,0x4a,0x50,0x81,
 0x52,0x11,0x25,0x52,0x95,0x0a,0x2a,0x50,0x28,0x80,0x00,0x00,0x80,0x92,0x08,
 0x44,0x24,0x05,0x2a,0x08,0x22,0x48,0x45,0x28,0xa4,0x44};
