#define noname_width 210
#define noname_height 252
static char noname_bits[] = {
 0xff,0xff,0xff,0xff,0xff,0xff,0xff,0xff,0xff,0xff,0xff,0xff,0xff,0xff,0xff,
 0xff,0xff,0xff,0xff,0xff,0xff,0xff,0xff,0xff,0xff,0xff,0x03,0xff,0xff,0xff,
 0xff,0xff,0xff,0xff,0xff,0xff,0xff,0xff,0xff,0xff,0xff,0xff,0xff,0xff,0xff,
 0xff,0xff,0xff,0xff,0xff,0xff,0xff,0xff,0x03,0xff,0xff,0xff,0xff,0xff,0xff,
 0xff,0xff,0xff,0xff,0xff,0xff,0xff,0xff,0xff,0xff,0xff,0xff,0xff,0xff,0xff,
 0xff,0xff,0xff,0xff,0xff,0x03,0xff,0xff,0xff,0xff,0xff,0xff,0xff,0xff,0xff,
 0xff,0xff,0xff,0xff,0xff,0xff,0xff,0xff,0xff,0xff,0xff,0xff,0xff,0xff,0xff,
 0xff,0xff,0x03,0xff,0xff,0xff,0xff,0xff,0xff,0xff,0xff,0xff,0xff,0xff,0xff,
 0xff,0xff,0xff,0xff,0xff,0xff,0xff,0xff,0xff,0xff,0xff,0xff,0xff,0xff,0x03,
 0xff,0xff,0xff,0xff,0xff,0xff,0xff,0xff,0xff,0xff,0xff,0xff,0xff,0xff,0xff,
 0xff,0xff,0xff,0xff,0xff,0xff,0xff,0xff,0xff,0xff,0xff,0x03,0xff,0xff,0xff,
 0xff,0xff,0xff,0xff,0xff,0xff,0xff,0xff,0xff,0xff,0xff,0xff,0xff,0xff,0xff,
 0xff,0xff,0xff,0xff,0xff,0xff,0xff,0xff,0x03,0xff,0xff,0xff,0xff,0xff,0xff,
 0xff,0xff,0xff,0xff,0xff,0xff,0xff,0xff,0xff,0xff,0xff,0xff,0xff,0xff,0xff,
 0xff,0xff,0xff,0xff,0xff,0x03,0xff,0xff,0xff,0xff,0xff,0xff,0xff,0xff,0xff,
 0xff,0xff,0xff,0xff,0xff,0xff,0xff,0xff,0xff,0xff,0xff,0xff,0xff,0xff,0xff,
 0xff,0xff,0x03,0xff,0xff,0xff,0xff,0xff,0xff,0xff,0xff,0xff,0xff,0xff,0xff,
 0xff,0xff,0xff,0xff,0xff,0xff,0xff,0xff,0xff,0xff,0xff,0xff,0xff,0xff,0x03,
 0xff,0xff,0xff,0xff,0xff,0xff,0xff,0xff,0xff,0xff,0xff,0xff,0xff,0xff,0xff,
 0xff,0xff,0xff,0xff,0xff,0xff,0xff,0xff,0xff,0xff,0xff,0x03,0xff,0xff,0xff,
 0xff,0xff,0xff,0xff,0xff,0xff,0xff,0xff,0xff,0xff,0xff,0xff,0xff,0xff,0xff,
 0xff,0xff,0xff,0xff,0xff,0xff,0xff,0xff,0x03,0xff,0xff,0xff,0xff,0xff,0xff,
 0xff,0xff,0xff,0xff,0xff,0xff,0xff,0xff,0xff,0xff,0xff,0xff,0xff,0xff,0xff,
 0xff,0xff,0xff,0xff,0xff,0x03,0xff,0xff,0xff,0xff,0xff,0xff,0xff,0xff,0xff,
 0xff,0xff,0xff,0xff,0xff,0xff,0xf7,0xff,0xff,0xff,0xff,0xff,0xff,0xff,0xff,
 0xff,0xff,0x03,0xff,0xff,0xff,0xff,0xff,0xff,0xff,0xff,0xff,0xff,0xff,0xff,
 0xff,0x7f,0xdb,0xbd,0xff,0xff,0xff,0xff,0xff,0xff,0xff,0xff,0xff,0xff,0x03,
 0xff,0xff,0xff,0xff,0xff,0xff,0xff,0xff,0xff,0xff,0xff,0xff,0xff,0xff,0xff,
 0xff,0xff,0xff,0xff,0xff,0xff,0xff,0xff,0xff,0xff,0xff,0x03,0xff,0xff,0xff,
 0xff,0xde,0xff,0xff,0xff,0xff,0xff,0xff,0xff,0xff,0xdb,0xff,0xff,0xff,0xff,
 0xff,0xff,0xff,0xff,0xff,0xff,0xff,0xff,0x03,0xff,0xff,0xff,0xff,0xff,0xff,
 0xff,0xff,0xff,0xff,0xff,0xff,0xbf,0xff,0x7b,0xf7,0xf6,0xff,0xff,0xff,0xff,
 0xff,0xff,0xff,0xff,0xff,0x03,0xff,0xff,0xff,0xff,0xff,0xff,0xff,0xff,0xff,
 0xff,0xff,0xfe,0xff,0xff,0xff,0xff,0xff,0xff,0xff,0xff,0xff,0xff,0xff,0xff,
 0xff,0xff,0x03,0xff,0xff,0xff,0xfb,0xff,0xff,0xff,0xff,0xff,0xff,0xff,0xbf,
 0xff,0xee,0xdf,0xff,0xff,0xff,0xff,0xff,0xff,0xff,0xff,0xff,0xff,0xff,0x03,
 0xef,0xde,0xdd,0xff,0xff,0xff,0xff,0xff,0xff,0xff,0xff,0xff,0xff,0x7f,0xff,
 0xff,0xff,0xff,0xff,0xff,0xf7,0xff,0xff,0xff,0xff,0xff,0x03,0xff,0xff,0xff,
 0xff,0xff,0xff,0xff,0xff,0xff,0xff,0xff,0xff,0xff,0xfb,0xff,0xff,0xff,0xff,
 0xff,0xfb,0xff,0xff,0xff,0xff,0xff,0xff,0x03,0xaa,0xaa,0xaa,0xaa,0xaa,0x4a,
 0x55,0x55,0x55,0x55,0xb5,0xf7,0xbd,0xff,0xff,0xff,0xff,0xff,0xff,0xff,0xff,
 0xff,0xff,0xff,0xff,0xff,0x03,0x77,0x77,0x57,0xdb,0x76,0xbb,0xed,0xfe,0xff,
 0xff,0xff,0xfd,0xf7,0xff,0xfb,0xff,0xbf,0xff,0xff,0xff,0xff,0xff,0xff,0xff,
 0xff,0xff,0x03,0xaa,0xad,0x6d,0xb5,0xad,0xed,0xb6,0x95,0xaa,0xaa,0xaa,0x96,
 0xee,0xfe,0xff,0xff,0xff,0xaa,0xaa,0x6f,0x7f,0xf7,0xfb,0xff,0xff,0xff,0x03,
 0xdd,0x6a,0xd5,0xda,0xf6,0xb6,0x6d,0xed,0xdd,0xde,0xdd,0xf7,0xbb,0xff,0xff,
 0xff,0xff,0xff,0xff,0xfa,0xef,0xff,0xff,0xfb,0xff,0xff,0x03,0x6b,0xb7,0xbd,
 0xb7,0xad,0xad,0xb6,0x5b,0x6b,0x6b,0xab,0x5a,0xf5,0xff,0xff,0xff,0xff,0x55,
 0xd5,0x57,0xb5,0xaa,0xaa,0x56,0x55,0xb5,0x03,0xdd,0x5a,0xeb,0xda,0xb6,0xda,
 0x6d,0xed,0xba,0xdd,0xf6,0xad,0x5d,0xfb,0xff,0xf7,0xff,0xdb,0xbe,0xfa,0xbd,
 0x7f,0x7f,0xef,0xfe,0xff,0x02,0xb5,0xed,0xbe,0xb7,0xed,0xb5,0xd6,0x55,0xd7,
 0x6a,0x5b,0xbb,0xf6,0xde,0xff,0xbf,0xff,0x6d,0x6b,0x57,0x6b,0xd5,0xaa,0x5d,
 0x53,0xd5,0x01,0x56,0x5b,0xef,0xdd,0xb6,0x6e,0x7b,0xfb,0xba,0xbd,0xad,0xd6,
 0xab,0xff,0xff,0xff,0xff,0xdb,0xda,0xda,0xde,0x6d,0x77,0xeb,0xbd,0x6f,0x03,
 0x6d,0xb5,0xbd,0xb7,0xaa,0xb5,0x55,0x55,0x6b,0x6b,0xfb,0xba,0xd6,0xf6,0xff,
 0xff,0xdd,0xb7,0xb7,0x6d,0xab,0xb6,0xed,0xb6,0x6b,0xb5,0x01,0xdb,0x6e,0xef,
 0x6d,0x77,0x6d,0x6d,0xaf,0xdd,0xb6,0x56,0x57,0x7b,0xff,0xff,0xef,0xff,0xdd,
 0x6a,0xb7,0xf5,0xed,0xb6,0x6d,0xdd,0x7d,0x03,0xb6,0xb5,0xbd,0xbf,0xad,0xdb,
 0xb6,0x75,0xb3,0x6a,0xad,0xfa,0xd6,0xda,0xb6,0xff,0xff,0xb7,0xdd,0xda,0xae,
 0x5b,0xdb,0xde,0x6b,0xab,0x01,0x55,0x6d,0xef,0x6d,0xd5,0x6a,0x5b,0xad,0xad,
 0xbd,0xdb,0x57,0x6d,0xff,0xff,0xff,0xf7,0x5f,0x6b,0xb7,0x75,0xed,0x6d,0x6b,
 0xbd,0x6d,0x03,0xdb,0xda,0xfd,0xb7,0xaf,0xad,0x75,0x5b,0xdb,0x66,0xb5,0xac,
 0xb5,0xba,0xfb,0x7f,0xff,0x77,0xad,0x6d,0xaf,0x5b,0xdb,0xb6,0x6b,0xbb,0x01,
 0x6d,0x6f,0xbf,0x5d,0xf5,0x76,0xad,0xad,0x6d,0xbb,0x6e,0xeb,0x5e,0xef,0xbf,
 0xfe,0xff,0xbf,0xf7,0xb6,0x75,0xed,0xb6,0x6d,0xb5,0xdd,0x02,0x55,0xd9,0xfa,
 0x37,0x50,0xad,0x5b,0x7b,0xb5,0xd6,0xd5,0xae,0xe9,0xfe,0xf6,0x6f,0xbf,0xad,
 0xaa,0x6d,0xdb,0x5b,0xdb,0xb6,0xd7,0xb6,0x03,0x6d,0x57,0x6f,0x1d,0x68,0x57,
 0xed,0xaa,0xae,0xab,0xba,0xb5,0x5e,0xfb,0xdf,0xff,0xfb,0x7f,0xbb,0xb6,0xad,
 0xd6,0xb6,0xdd,0x7a,0x6b,0x01,0xd5,0xac,0xba,0xb7,0x80,0x6a,0x55,0xab,0x55,
 0xba,0xa6,0xd6,0x6a,0x6d,0xf7,0x76,0xff,0xaf,0xd6,0x6a,0x7b,0xbd,0xed,0xb6,
 0xad,0xad,0x03,0x5a,0xb7,0xed,0x5d,0x68,0x5b,0xab,0xda,0xea,0x56,0x6b,0x7b,
 0xb7,0xff,0xdd,0xdf,0xff,0x7f,0x6b,0xbb,0xad,0xd7,0xb6,0x6d,0xeb,0xf6,0x02,
 0xab,0xaa,0xaa,0xa7,0x02,0xec,0xb6,0xb5,0x56,0xd5,0x5a,0x80,0xd4,0xdf,0x7f,
 0xf7,0xfe,0xae,0xaa,0xa6,0xaa,0x54,0xab,0xda,0x56,0xab,0x02,0x6d,0xd5,0xf6,
 0x2d,0x15,0x7a,0xdb,0x5a,0x6b,0x5b,0x6d,0x4b,0x6a,0xf5,0xea,0xbd,0xff,0xbf,
 0xb5,0x6a,0x6b,0xbb,0x75,0x6f,0xbb,0x75,0x03,0xaa,0xad,0x4a,0x57,0x01,0x00,
 0x6e,0xd7,0x5a,0xed,0x0a,0x00,0x00,0x74,0xff,0xff,0xfe,0x7f,0xad,0xad,0xd6,
 0x56,0xab,0x52,0xd5,0xce,0x00,0x5b,0xb5,0xb5,0xab,0x2a,0x00,0xb5,0xb5,0x56,
 0x5b,0x17,0x00,0x00,0xf8,0x6f,0xaf,0xff,0xdf,0xaa,0x6a,0xb5,0xaa,0xb5,0xdd,
 0x6e,0x75,0x03,0x6a,0x55,0xab,0xac,0x02,0x05,0x40,0xdb,0xfe,0x02,0x00,0x00,
 0x00,0xe0,0xfa,0xfd,0xfd,0xbd,0x55,0xdb,0xaa,0x6d,0x6d,0xb5,0x59,0x4b,0x01,
 0x56,0xab,0xac,0x56,0x29,0x0a,0xa0,0xad,0x55,0x4b,0x00,0x00,0x00,0xf0,0x5f,
 0x6f,0xef,0xdf,0xb6,0x55,0x5b,0xb5,0x56,0xab,0xae,0x75,0x03,0xad,0xb6,0x6b,
 0xa9,0x86,0x34,0x00,0x76,0x03,0x00,0x00,0x00,0x3a,0xd0,0xf5,0xfd,0xbb,0xfe,
 0x6f,0x55,0xb5,0xad,0xad,0x56,0x55,0xab,0x02,0xd5,0xaa,0xaa,0xaa,0x12,0x2d,
 0x00,0xbd,0x15,0x00,0x00,0x00,0xd8,0xe8,0x7f,0xaf,0xfe,0x7f,0xb5,0xda,0x56,
 0xd5,0x6a,0xeb,0xb6,0xdd,0x02,0x5a,0x55,0x55,0x55,0xa5,0xb2,0x00,0x00,0x00,
 0x00,0x10,0x80,0x27,0xe9,0xd6,0xfd,0xb7,0x5a,0xfd,0xaf,0xaa,0xb5,0xd6,0x56,
 0x55,0x55,0x01,0xad,0xb6,0xb5,0x55,0x55,0xad,0x04,0x20,0x00,0x00,0x00,0x40,
 0xa8,0xf4,0xfd,0x6f,0xef,0x77,0xfe,0x6f,0xdb,0x5a,0xb5,0xba,0x6d,0x6b,0x03,
 0xd5,0x6a,0x41,0xaa,0xaa,0x52,0x01,0x00,0x00,0x5c,0x5b,0x80,0x55,0x69,0x57,
 0xdd,0xbd,0x14,0x80,0xbf,0xb6,0xed,0xd6,0xaa,0xda,0xd6,0x02,0xb5,0x5a,0xa9,
 0x55,0x55,0xad,0x02,0x00,0x00,0xa4,0x24,0x50,0x55,0xf5,0xfb,0xf7,0x6f,0xab,
 0x00,0xff,0xaa,0x56,0x6b,0x6d,0xab,0xba,0x02,0x56,0xd5,0x16,0xaa,0xaa,0xaa,
 0x60,0x00,0x00,0x55,0x5b,0xa0,0xaa,0x4a,0xd4,0xdd,0x56,0x41,0x00,0xa0,0x6d,
 0xad,0xd6,0xaa,0x6d,0x55,0x01,0xd5,0x56,0x55,0x51,0xa9,0x6a,0x91,0x00,0x00,
 0xba,0xa4,0x50,0x55,0x75,0x7b,0xf7,0xaf,0x58,0x01,0xd8,0xb6,0xeb,0xba,0xdd,
 0xb6,0x6e,0x03,0x55,0xad,0xaa,0x86,0xaa,0xaa,0x62,0x00,0xc0,0x56,0x9b,0x8a,
 0x4a,0xa9,0xf4,0xdf,0xab,0x22,0x01,0x80,0xab,0x5a,0x55,0xb3,0x6a,0xd5,0x02,
 0xb6,0xb5,0x6d,0xa9,0xaa,0x56,0xa9,0x02,0x00,0xd5,0xaa,0x42,0x55,0x55,0xbb,
 0xf7,0x5e,0xa9,0x00,0x40,0xba,0xad,0x6e,0xad,0xaa,0x56,0x01,0x55,0x55,0xd5,
 0x56,0x52,0xd5,0xaa,0x02,0xfa,0xaa,0xaa,0x0a,0xa8,0x74,0xed,0xfd,0x23,0x4a,
 0x02,0x00,0x6d,0xdb,0xa9,0xb5,0xed,0xba,0x03,0xaa,0xd6,0x5a,0x55,0x55,0x55,
 0x55,0x09,0x48,0xb5,0xaa,0x2a,0x55,0x55,0xf5,0xdf,0xae,0x52,0x01,0x14,0x55,
 0xb5,0xb6,0xd6,0xb6,0x56,0x01,0x55,0x55,0x55,0xb5,0x4a,0x55,0x55,0xd5,0xaa,
 0xd6,0x2a,0x45,0x92,0xdc,0xde,0xff,0x29,0xa5,0x56,0x42,0xbc,0x6d,0x6b,0xad,
 0xaa,0x6d,0x03,0xb6,0xaa,0xaa,0x56,0xa5,0xaa,0xaa,0x22,0x55,0xab,0xaa,0x2a,
 0x55,0x6a,0xb5,0xbf,0xab,0x28,0x29,0x11,0x51,0xab,0xda,0xb6,0x6d,0xb5,0x01,
 0x49,0x55,0x55,0xa9,0x5a,0x55,0xb5,0x54,0xa9,0x54,0xa5,0x54,0xaa,0xb4,0xee,
 0xfd,0xaa,0x4a,0x5a,0x45,0xa8,0xaa,0xaa,0xaa,0xaa,0x4a,0x02,0xb5,0xaa,0xaa,
 0x56,0x25,0x55,0x55,0x53,0x95,0x5a,0x55,0x55,0x55,0xba,0xfa,0xbf,0x95,0x54,
 0x55,0x91,0x60,0x55,0xab,0xaa,0xaa,0xda,0x02,0x4a,0x55,0x55,0xa9,0xaa,0xaa,
 0xaa,0xa4,0x52,0x51,0x95,0x4a,0x25,0x55,0xd7,0xf7,0xaa,0x52,0xa9,0x0a,0x80,
 0xaa,0x54,0x55,0x55,0x25,0x01,0x55,0x55,0x55,0x55,0x55,0x55,0x55,0x55,0x2a,
 0x55,0x55,0xaa,0x94,0xda,0xfa,0xbe,0xaa,0xaa,0xaa,0xa2,0x50,0x55,0xab,0x4a,
 0x55,0xd5,0x02,0xaa,0x92,0x4a,0x2a,0x55,0xaa,0x56,0xa1,0x4a,0xaa,0x52,0xa9,
 0x2a,0xb4,0xd6,0xff,0x54,0x95,0x6a,0x09,0xa4,0xaa,0x24,0xa9,0xa4,0x2a,0x01,
 0xaa,0xaa,0xaa,0xaa,0x52,0x55,0x59,0x55,0x55,0x49,0xaa,0xaa,0xaa,0xaa,0xba,
 0x7f,0x55,0x55,0x55,0xa5,0x40,0x55,0x55,0x55,0x55,0xaa,0x02,0x95,0xaa,0x54,
 0xa5,0xaa,0xaa,0xaa,0x8a,0xa8,0xaa,0x2a,0x55,0x25,0xa9,0xee,0x7d,0xd5,0xaa,
 0x5a,0x09,0x14,0x92,0xaa,0xaa,0xaa,0xaa,0x00,0xa9,0x54,0x55,0x55,0x95,0x52,
 0x55,0x55,0x95,0x24,0xa9,0x52,0x55,0xaa,0xba,0xbf,0xaa,0x56,0xad,0xa4,0xa0,
 0xaa,0x54,0x55,0xaa,0xaa,0x02,0xaa,0x4a,0x55,0x55,0xaa,0x94,0xaa,0x52,0xa5,
 0xaa,0x4a,0xa5,0xaa,0x54,0xed,0x77,0x55,0x55,0x55,0x09,0x50,0xaa,0x4a,0x92,
 0x92,0x54,0x01,0x95,0xaa,0xaa,0xaa,0xaa,0xaa,0x4a,0x55,0x55,0x55,0x55,0x5a,
 0x25,0xaa,0xbe,0x7f,0xaa,0x4b,0xb5,0x54,0x54,0x95,0xaa,0xaa,0xaa,0xaa,0x02,
 0xaa,0x52,0x49,0xa9,0x52,0x55,0x29,0x95,0x94,0x94,0x52,0xa1,0x4a,0x91,0xf4,
 0x7f,0x55,0x55,0x55,0x81,0xaa,0xa8,0x54,0x55,0x55,0x25,0x01,0x55,0x55,0x55,
 0x95,0x2a,0x55,0x55,0x55,0x55,0x55,0xaa,0x5a,0x29,0x4a,0xdb,0xbe,0xd4,0xaa,
 0x5a,0x2a,0x55,0xaa,0x92,0xaa,0xaa,0xaa,0x02,0xaa,0x54,0xaa,0xaa,0xaa,0x2a,
 0x55,0xa9,0x52,0xa5,0x4a,0xa5,0x56,0x91,0xa4,0xff,0xaa,0x55,0x55,0xa5,0x2a,
 0x51,0x55,0x92,0xa4,0x54,0x01,0x95,0xaa,0x2a,0xa9,0xaa,0x52,0x55,0x55,0x55,
 0x55,0x55,0xaa,0x92,0x4a,0x59,0x7d,0xd5,0x56,0x6b,0x55,0x55,0x94,0xaa,0xaa,
 0xaa,0xaa,0x02,0xaa,0xaa,0x52,0x55,0x49,0x55,0x29,0x25,0x4a,0xaa,0x94,0xaa,
 0x2a,0x15,0x22,0xfd,0x5a,0x55,0xad,0xaa,0x0a,0xa0,0xa4,0x54,0x55,0x55,0x01,
 0x52,0x55,0xaa,0xaa,0xaa,0x94,0xaa,0xaa,0xaa,0x92,0xaa,0x52,0x95,0xd4,0x4a,
 0xfa,0x55,0xab,0xf5,0x55,0x6b,0x48,0x55,0x55,0x95,0x4a,0x02,0x25,0x49,0x55,
 0x25,0x55,0x55,0x4a,0x55,0x55,0x55,0x51,0x4a,0xa5,0x2a,0x09,0xf5,0x6b,0x15,
 0xaa,0xaa,0x0a,0x90,0x4a,0x25,0xa9,0x54,0x01,0xaa,0xaa,0xaa,0x54,0x55,0x55,
 0x55,0xa9,0x92,0x54,0xad,0xaa,0x2a,0x55,0x45,0xf8,0xb5,0xda,0xea,0x55,0x55,
 0x40,0x55,0xaa,0xaa,0xaa,0x02,0xaa,0x2a,0x49,0x55,0xa5,0xa4,0xaa,0x4a,0x55,
 0x49,0x92,0x54,0x52,0xa9,0x5a,0xaf,0xab,0x55,0x55,0x6b,0x05,0xaa,0x54,0x55,
 0x55,0x55,0x01,0x52,0xa5,0x2a,0x55,0x55,0x55,0x55,0x55,0xaa,0xaa,0xaa,0x4a,
 0x29,0x55,0xa5,0xeb,0x56,0xad,0xea,0xb5,0x2a,0xa0,0xaa,0xaa,0x4a,0xaa,0x02,
 0x95,0x54,0x55,0x29,0x29,0x55,0x92,0x54,0x49,0x55,0x25,0x55,0x45,0x55,0x6d,
 0x5d,0xb5,0xaa,0x5a,0x4b,0x05,0x80,0x52,0x52,0xaa,0x52,0x01,0x54,0x55,0xaa,
 0xaa,0xaa,0xaa,0xaa,0x2a,0x55,0x2a,0xa9,0x52,0x91,0xaa,0xaa,0xb6,0x57,0x55,
 0xd5,0xb6,0x12,0x48,0xaa,0xaa,0xaa,0x2a,0x01,0xa5,0x92,0xa4,0x4a,0x55,0x49,
 0x55,0xa5,0xaa,0xa4,0xaa,0x4a,0x0a,0xa9,0xea,0x6d,0xad,0xda,0x56,0x95,0x00,
 0x01,0x4a,0x95,0x52,0x55,0x01,0x55,0xaa,0xaa,0x54,0x95,0xaa,0x92,0x54,0x49,
 0x55,0x95,0x54,0xa5,0x54,0x55,0xdb,0x56,0xab,0xaa,0x55,0x04,0x00,0x55,0x55,
 0x55,0xaa,0x02,0xaa,0xaa,0x52,0x55,0x52,0x55,0xaa,0x4a,0x55,0xa9,0x52,0xa9,
 0x94,0xaa,0xaa,0xed,0x5d,0xb5,0xdd,0x2a,0xf9,0x2b,0xa8,0xa4,0x4a,0x49,0x01,
 0x49,0x95,0x2a,0xa5,0xaa,0xaa,0xaa,0xaa,0x2a,0x95,0x54,0xa6,0x42,0xaa,0x6a,
 0x7b,0x6b,0xd5,0xaa,0xaa,0x44,0x15,0x95,0xaa,0x54,0x55,0x01,0xaa,0xa4,0x54,
 0x55,0x55,0x52,0x55,0x55,0x52,0x55,0x55,0xa9,0x9a,0xaa,0xda,0xed,0xdf,0x08,
 0xa2,0xd7,0x37,0x6f,0x55,0x55,0x55,0x55,0x01,0xaa,0xaa,0xaa,0xaa,0xaa,0xaa,
 0x92,0xa4,0xaa,0xa4,0x4a,0x55,0x45,0xaa,0xaa,0x5e,0xb5,0x52,0xd1,0xba,0x4a,
 0xb5,0xaa,0xaa,0xaa,0xaa,0x02,0x95,0xaa,0x52,0x92,0x92,0x4a,0x55,0x55,0x55,
 0x95,0xaa,0xaa,0x2a,0xa9,0x6a,0xfb,0xef,0x02,0x00,0x04,0x14,0xe8,0x52,0x92,
 0x24,0x55,0x01,0x52,0x55,0xaa,0xaa,0xaa,0xaa,0xaa,0xaa,0x2a,0x55,0xa9,0x24,
 0x45,0xaa,0xaa,0xae,0xba,0x0a,0x00,0x12,0x49,0x50,0xad,0xaa,0xaa,0xaa,0x02,
 0xaa,0xa4,0x4a,0x55,0xaa,0x54,0x92,0x24,0x49,0xa9,0x92,0x4a,0x2a,0xa9,0xaa,
 0xf5,0xff,0x25,0x00,0x00,0xd0,0x81,0x95,0xaa,0xaa,0x92,0x00,0x95,0xaa,0xaa,
 0xaa,0xaa,0xaa,0xaa,0xaa,0xaa,0x2a,0x55,0x55,0x95,0x54,0xd5,0xda,0xd6,0x0a,
 0x01,0x00,0x44,0xaa,0xaa,0xaa,0xaa,0xaa,0x02,0xaa,0x92,0x94,0x54,0x49,0xa5,
 0xaa,0x4a,0x55,0xa5,0xaa,0x54,0x29,0x55,0xaa,0x56,0x7f,0x2b,0x00,0x15,0x90,
 0x42,0xaa,0x24,0x55,0x55,0x01,0x55,0xaa,0xaa,0x2a,0x55,0x55,0x55,0xaa,0xaa,
 0x54,0x49,0x2a,0xa5,0xaa,0x6a,0xd5,0xdb,0xab,0x52,0x55,0x50,0x29,0x95,0xaa,
 0x4a,0xaa,0x02,0xa4,0xaa,0x52,0xa5,0xaa,0x94,0xa4,0x54,0x92,0x4a,0xaa,0x52,
 0xad,0xd4,0xad,0x2a,0xb5,0x56,0x55,0x55,0x41,0xca,0xaa,0x54,0xa9,0x52,0x01,
 0xaa,0xaa,0x2a,0x55,0x55,0x55,0x55,0x4b,0x55,0x55,0x55,0x95,0xaa,0x52,0x56,
 0xd5,0xda,0xab,0xaa,0xaa,0x28,0x52,0x55,0x95,0xaa,0xaa,0x02,0x95,0x24,0x55,
 0xa9,0x24,0xa5,0x2a,0xa9,0xaa,0x54,0x49,0x2a,0x55,0xa5,0x95,0x48,0x25,0x55,
 0x55,0x55,0x05,0x54,0x25,0x55,0x55,0x95,0x00,0x52,0x55,0x49,0x95,0xaa,0xaa,
 0x54,0x55,0x49,0x25,0x55,0xa5,0xaa,0xaa,0xaa,0x56,0x55,0x6b,0xab,0xb6,0x02,
 0xb1,0xaa,0xaa,0x4a,0xaa,0x02,0xaa,0xaa,0xaa,0xaa,0xaa,0xaa,0x52,0x2a,0x55,
 0x55,0x29,0x29,0x69,0x55,0x55,0xa9,0x4a,0x85,0x5e,0x55,0xa9,0x56,0x55,0x25,
 0xa9,0xaa,0x02,0x2a,0x55,0xaa,0x54,0x55,0xa9,0xaa,0xaa,0xaa,0x54,0x95,0xaa,
 0xaa,0xb6,0xaa,0x56,0x55,0x55,0xa9,0x55,0x95,0xaa,0xaa,0x54,0x55,0x55,0x01,
 0x49,0x49,0x95,0x4a,0x92,0x4a,0x55,0xa5,0x94,0x4a,0x52,0xa5,0xd4,0xab,0xaa,
 0xaa,0x4a,0x2b,0x7a,0x55,0xa5,0x54,0x95,0xaa,0xaa,0xa4,0x02,0xaa,0xaa,0x52,
 0x55,0x55,0x55,0x2a,0x95,0xaa,0xaa,0xaa,0x94,0xaa,0xb6,0xaa,0x5a,0x55,0x15,
 0x55,0xab,0xaa,0xaa,0x52,0x55,0x55,0x55,0x01,0x55,0x52,0xa5,0x54,0x55,0x55,
 0xa5,0x54,0xa9,0x54,0x95,0x2a,0xa5,0xaa,0xd6,0xd6,0xaa,0xad,0x50,0x7d,0xad,
 0xaa,0xaa,0x92,0x92,0x2a,0x01,0x49,0x55,0xaa,0xaa,0x2a,0xa9,0xaa,0x52,0x95,
 0x92,0xa4,0x52,0xa9,0x5e,0x55,0x55,0xd5,0x56,0xaa,0xab,0x56,0x55,0x95,0x54,
 0x55,0xa5,0x02,0xaa,0x4a,0x55,0x25,0xa9,0x4a,0x52,0x95,0x52,0x55,0x55,0xaa,
 0x92,0xd2,0xaa,0xaa,0xad,0x8a,0x00,0xd4,0xfd,0x56,0x52,0x55,0xaa,0xaa,0x00,
 0x55,0xa9,0xaa,0x54,0x95,0xaa,0x2a,0x55,0xaa,0x4a,0x55,0x25,0x55,0x55,0x55,
 0x6d,0xf5,0x6a,0x54,0xb5,0x56,0x5b,0x55,0x55,0x55,0xaa,0x02,0x92,0x92,0x24,
 0x55,0x55,0xa9,0xaa,0xaa,0x4a,0x55,0x92,0x54,0x4a,0x55,0x55,0x55,0x8b,0xaa,
 0x22,0xa9,0x55,0xa5,0x4a,0x92,0x52,0x55,0x01,0x55,0x55,0xaa,0x92,0x52,0x55,
 0xa5,0x4a,0x55,0xa9,0xaa,0x4a,0xa9,0xaa,0xaa,0xaa,0x75,0x55,0x88,0x54,0x55,
 0x55,0xa9,0xaa,0xaa,0xaa,0x02,0x2a,0x55,0xa9,0xaa,0x94,0x4a,0x2a,0x55,0x92,
 0x92,0x52,0xa9,0x4a,0x57,0x4a,0x55,0xaa,0xaa,0x55,0xa5,0xaa,0x94,0x52,0x55,
 0x95,0x92,0x02,0xa5,0x4a,0x55,0xaa,0xaa,0xaa,0xaa,0x52,0x55,0x55,0x95,0x54,
 0x55,0xad,0xaa,0xaa,0xad,0x56,0x52,0x55,0x4a,0x52,0xaa,0xaa,0x54,0x55,0x01,
 0x4a,0x52,0x4a,0x55,0x55,0x52,0x49,0x95,0xaa,0x54,0x2a,0x25,0x52,0x5f,0xa9,
 0x5a,0xb5,0x55,0xbb,0xaa,0x54,0x55,0x95,0xa4,0xaa,0xaa,0x02,0xa9,0xaa,0xaa,
 0x4a,0x92,0xaa,0xaa,0xaa,0x94,0x4a,0xa5,0xaa,0x4a,0x5f,0xaa,0xaa,0xaa,0x6a,
 0xd5,0x25,0xa5,0xaa,0x4a,0x55,0xa5,0x54,0x01,0xaa,0xaa,0x94,0x54,0x55,0x15,
 0x95,0xa4,0x52,0xa9,0x54,0x49,0xd5,0xfe,0x55,0x55,0x55,0xdb,0xff,0x51,0x95,
 0x24,0xa9,0x94,0x2a,0x55,0x01,0x2a,0x95,0xaa,0x52,0x55,0xc9,0x52,0x55,0x4a,
 0x25,0x25,0x55,0x29,0x7f,0x5b,0xd5,0xb6,0x6d,0xff,0x95,0x52,0x55,0x55,0xaa,
 0xaa,0xaa,0x02,0x49,0x52,0x49,0x95,0xa4,0x2a,0x95,0x4a,0x55,0xaa,0x4a,0x92,
 0xd2,0xfe,0xff,0x5b,0x6d,0xfb,0x7f,0x25,0x25,0xa9,0x52,0x25,0x55,0x25,0x01,
 0xaa,0x55,0x55,0x55,0x55,0xaa,0x54,0xa9,0x52,0x95,0x54,0x55,0x2a,0xff,0x6f,
 0xad,0xdb,0xde,0xff,0xaa,0x54,0x95,0x54,0x55,0xa5,0xaa,0x02,0x2a,0x4a,0x29,
 0xa5,0x4a,0xa5,0x92,0x92,0x94,0xa4,0x52,0x52,0xa5,0xfe,0xff,0xff,0xfe,0xff,
 0x6d,0x95,0x92,0xa4,0x8a,0xaa,0x2a,0x55,0x01,0xa5,0x2a,0xa5,0x54,0x29,0x55,
 0x55,0x55,0x55,0x55,0x4a,0x95,0x52,0xb7,0xff,0xef,0xff,0xfb,0xff,0x4a,0x49,
 0x55,0x65,0x49,0xa9,0xaa,0x02,0xaa,0x52,0x55,0x95,0xaa,0x24,0x95,0x2a,0x25,
 0x55,0x55,0xa5,0x94,0xfa,0xfd,0xff,0xdf,0x7f,0xab,0x95,0x2a,0x29,0x29,0x55,
 0x55,0x49,0x01,0x95,0xaa,0xaa,0xaa,0x54,0x55,0xa9,0xa4,0xaa,0x24,0xa9,0x54,
 0x55,0xfd,0xff,0xfd,0xfd,0xef,0x5f,0x55,0xa4,0x4a,0x95,0xaa,0x4a,0x55,0x02,
 0xaa,0x94,0x94,0xa4,0x92,0xaa,0x4a,0x55,0x52,0x49,0x45,0x49,0xaa,0xaa,0xf7,
 0xff,0xff,0xbe,0xd2,0xaa,0x4a,0x55,0x55,0x25,0xa9,0xaa,0x02,0xa5,0xaa,0x52,
 0x55,0x55,0x49,0xaa,0x54,0x95,0xaa,0x32,0x55,0x49,0xf5,0xbe,0x7f,0xef,0xef,
 0x6d,0x17,0x55,0x52,0xaa,0x54,0x55,0x55,0x01,0x94,0x52,0xa5,0x8a,0xa4,0x52,
 0x29,0xa5,0xaa,0x2a,0x45,0x92,0x92,0x5a,0xff,0xf7,0xbd,0x55,0xab,0x5a,0xa9,
 0x4a,0x49,0x55,0x55,0xaa,0x02,0x55,0xaa,0x54,0xa9,0x2a,0x55,0x55,0x95,0xa4,
 0x54,0x59,0x55,0x55,0xed,0xd5,0xfe,0xff,0xbb,0x5a,0x57,0x25,0xa9,0xaa,0xaa,
 0x52,0x55,0x01,0xaa,0x92,0x2a,0x55,0xa9,0x2a,0xa5,0x54,0x95,0x22,0xa5,0x2a,
 0xa2,0x5e,0xff,0x5f,0xb5,0x56,0xb5,0x5d,0x4a,0x55,0x2a,0x49,0x55,0x55,0x01,
 0xa5,0xaa,0xaa,0x2a,0x95,0x94,0x54,0xa5,0x52,0xaa,0x52,0x49,0x95,0xb6,0x7f,
 0xfb,0xff,0xdb,0xd6,0x56,0xa9,0x92,0x52,0x55,0xaa,0xaa,0x02,0x4a,0x4a,0x52,
 0x52,0xa9,0x52,0x49,0x49,0xaa,0x2a,0x95,0x24,0xa9,0x6f,0xe9,0xaf,0x5a,0xb5,
 0x6d,0xbb,0x52,0xaa,0xaa,0xaa,0x4a,0x49,0x01,0xa9,0xaa,0x4a,0x55,0x55,0xaa,
 0x2a,0x55,0x49,0xa5,0x54,0x92,0x92,0xaa,0xfe,0xfb,0xff,0x6d,0xdb,0x56,0x95,
 0x4a,0x29,0xa9,0xaa,0xaa,0x02,0xaa,0xa4,0x54,0x2a,0xa9,0x52,0x55,0x2a,0x95,
 0x54,0x49,0x24,0x64,0xd7,0x42,0xaf,0x5a,0xd5,0xad,0x55,0x2a,0x29,0xa5,0x92,
 0x54,0x55,0x02,0x95,0x2a,0x55,0xa5,0x4a,0x95,0xa4,0x4a,0x55,0x2a,0x95,0x92,
 0x92,0x4b,0xb5,0xfb,0xff,0xaa,0x76,0xad,0x49,0x55,0x55,0x55,0xa5,0x54,0x01,
 0x52,0xa9,0x92,0xaa,0x2a,0xa9,0xaa,0x54,0x52,0x51,0x49,0xa4,0xd4,0x55,0x55,
 0xee,0xf6,0xd5,0x5a,0x55,0xaa,0xa4,0x94,0x54,0x55,0x55,0x01,0x49,0xaa,0xaa,
 0x94,0x54,0x55,0x95,0x52,0x29,0x95,0x12,0x29,0x65,0xab,0xa5,0xbd,0xff,0x6a,
 0xb7,0xaa,0x55,0xaa,0xaa,0xaa,0xaa,0xaa,0x02,0xaa,0x92,0xa4,0x52,0x49,0x25,
 0x52,0x95,0x4a,0x55,0x44,0x44,0xaa,0x55,0x95,0xea,0xda,0x55,0x6d,0xb5,0xa2,
 0x92,0x24,0x25,0x95,0x4a,0x01,0x55,0x55,0x55,0xaa,0xaa,0x94,0x55,0xaa,0xaa,
 0xa4,0x22,0x92,0xd2,0x55,0x55,0xb5,0xf7,0x55,0xbb,0xd6,0x1b,0xa9,0xaa,0xaa,
 0x52,0xa9,0x02,0xaa,0xaa,0xaa,0x4a,0x95,0xaa,0xa4,0x24,0x29,0x15,0x48,0x29,
 0x55,0x55,0x25,0x55,0xfc,0xea,0xd6,0xaa,0xaa,0xaa,0xaa,0x54,0x55,0x55,0x01,
 0x95,0x94,0x24,0x29,0xa9,0x52,0x55,0x55,0xa5,0x8a,0x92,0xa4,0xd4,0xaa,0x55,
 0x95,0xf5,0x57,0x7b,0xed,0xaa,0x2a,0xa5,0xaa,0xaa,0xaa,0x02,0x52,0xa9,0xaa,
 0xaa,0x52,0x25,0x49,0xa9,0x4a,0x41,0x48,0xad,0x6a,0x55,0x95,0x40,0xfa,0x6d,
 0xd7,0x55,0x95,0x54,0x2a,0x25,0x55,0x55,0x02,0x55,0xa6,0x54,0x95,0x4a,0xaa,
 0xaa,0x2a,0xa9,0x12,0x22,0x2a,0x51,0x55,0x55,0x2d,0xf5,0xb7,0x7d,0xbb,0x55,
 0xa5,0xaa,0xaa,0x2a,0x55,0x01,0xa4,0x94,0x92,0xa4,0x54,0x49,0x2a,0xa5,0x2a,
 0x40,0x95,0xa4,0xae,0x6a,0x55,0xd1,0xbe,0xdd,0xab,0x56,0x55,0xa9,0xa4,0x54,
 0xa9,0x4a,0x01,0xaa,0x52,0x55,0xaa,0x2a,0x55,0xa5,0x92,0xa4,0x00,0xa0,0xaa,
 0xd2,0xaa,0x55,0x4d,0xf5,0xeb,0xf6,0x55,0x55,0x55,0x55,0x55,0x55,0xa9,0x02,
 0x95,0xaa,0x54,0x29,0x51,0x52,0x4a,0x2a,0x15,0xa8,0x0a,0x90,0x2c,0x55,0x55,
 0xa9,0xee,0xbf,0xad,0xb6,0x02,0x25,0xa9,0x4a,0xa5,0xaa,0x00,0x52,0x95,0x4a,
 0xa5,0xaa,0xaa,0x52,0xa9,0x0a,0x00,0x40,0x25,0xd5,0xea,0xaa,0xaa,0xfa,0x6b,
 0xbb,0x55,0xa9,0xaa,0x2a,0xa9,0xaa,0xaa,0x02,0x2a,0x29,0x95,0x2a,0x95,0x4a,
 0x55,0xa5,0x00,0x00,0x00,0x00,0x2a,0x5b,0x5b,0xf7,0xea,0xd7,0x56,0x95,0x04,
 0x54,0x55,0x55,0x55,0x55,0x01,0x55,0xa5,0x52,0xa9,0xaa,0x54,0x2a,0x55,0x15,
 0x00,0x00,0x88,0xaa,0xad,0xd5,0x5a,0xf5,0x6d,0xab,0x4a,0x91,0x54,0x55,0x55,
 0xaa,0xaa,0x02,0x4a,0x55,0x55,0x4a,0x52,0x49,0x49,0x29,0x00,0x50,0x55,0xb5,
 0x5a,0x55,0xaa,0xaa,0xda,0x57,0xad,0x28,0x04,0x50,0xa9,0x52,0x55,0x52,0x01,
 0xa9,0x54,0x4a,0x55,0x95,0xaa,0xaa,0xaa,0x00,0x00,0xa8,0xaa,0xaa,0xaa,0x55,
 0xdd,0xea,0xaf,0x55,0x45,0x01,0xa8,0xaa,0xaa,0xaa,0xaa,0x02,0x2a,0xa5,0x54,
 0x92,0x24,0x25,0x55,0x0a,0xe0,0xff,0x57,0xa5,0xaa,0xaa,0x6a,0x53,0xf5,0x5f,
 0x15,0x2a,0x92,0x40,0x95,0xaa,0xa4,0x4a,0x02,0x55,0x95,0x4a,0x55,0x55,0xa9,
 0x4a,0x15,0x80,0x56,0x55,0x55,0x55,0x55,0x55,0xad,0xea,0xaf,0x4a,0x51,0x01,
 0x52,0x55,0x55,0x55,0x55,0x01,0x52,0xa9,0x52,0xaa,0xa4,0x4a,0x91,0x02,0x00,
 0x50,0x6d,0xdb,0xae,0x92,0xaa,0x92,0xea,0x5b,0x15,0x04,0x00,0x80,0xaa,0x92,
 0xaa,0xaa,0x02,0x95,0xaa,0x54,0x49,0x2a,0x55,0x55,0x05,0x00,0xa4,0xb7,0x55,
 0xab,0xaa,0xaa,0xaa,0xd4,0x5f,0x55,0x51,0x49,0x40,0x55,0x55,0x55,0x55,0x01,
 0x2a,0x55,0x25,0x95,0x52,0x92,0xaa,0x00,0x00,0x00,0x54,0x5b,0x2d,0x55,0x55,
 0x24,0xb5,0xaf,0x0a,0x04,0x00,0x04,0x55,0x55,0x95,0xaa,0x02,0xa5,0x92,0x54,
 0xa5,0x4a,0x55,0x52,0x01,0x48,0xa0,0x6b,0xd5,0xd6,0xaa,0xaa,0xaa,0xca,0x5f,
 0x55,0x21,0x84,0xa0,0x2a,0x55,0x55,0x55,0x01,0xaa,0xaa,0x4a,0x2a,0x55,0xa9,
 0x14,0x00,0x51,0x5f,0xaa,0x2a,0x29,0xa9,0x24,0xa5,0xf4,0xbf,0xaa,0x56,0x29,
 0x00,0xaa,0xaa,0xaa,0xaa,0x02,0x94,0x54,0x52,0x55,0xa9,0x54,0x55,0x00,0x54,
 0xa5,0x2a,0x55,0xad,0xaa,0xaa,0x52,0x8a,0x2d,0x55,0x29,0x05,0x02,0x54,0x55,
 0x55,0x55,0x01,0xa9,0x52,0x95,0x48,0x92,0x92,0x0a,0xa0,0x52,0xdd,0xaa,0xaa,
 0xda,0x55,0x25,0x95,0x72,0x5b,0x55,0x05,0x00,0x00,0xaa,0xaa,0x54,0x55,0x01,
 0xa6,0x2a,0xa9,0xaa,0x4a,0x55,0x55,0x00,0xa9,0x55,0xab,0xaa,0xaa,0xae,0x52,
 0xa9,0x8a,0x6d,0x55,0x49,0x00,0x00,0xa8,0xaa,0xaa,0xaa,0x02,0x2a,0x55,0x55,
 0x55,0x95,0x24,0x09,0x2a,0xad,0xaa,0xb6,0xd5,0xaa,0x92,0x4c,0x92,0x54,0xaa,
 0xaa,0xaa,0x15,0x00,0xb0,0x4a,0x55,0xaa,0x02,0xa9,0xa4,0x4a,0x4a,0x52,0x55,
 0x15,0x92,0xaa,0xaa,0xaa,0x5a,0xab,0xaa,0x52,0x55,0xaa,0xd5,0x56,0x55,0x0a,
 0x00,0x48,0x55,0x55,0x55,0x01,0x52,0x95,0x92,0x94,0x2a,0xa9,0x4a,0xa5,0x6a,
 0x55,0x55,0x55,0x55,0x95,0x4a,0xaa,0x92,0x54,0x6d,0xd5,0x6a,0x01,0xa0,0xaa,
 0xaa,0xaa,0x02,0x4d,0x55,0xaa,0x52,0xa5,0x4a,0x92,0xaa,0xaa,0xaa,0xaa,0xad,
 0xaa,0x4a,0xa9,0x92,0x4a,0x55,0x5b,0x5b,0x55,0x01,0x40,0x55,0x55,0x55,0x01,
 0x92,0x52,0x55,0x55,0xaa,0x94,0x0a,0x55,0x55,0x5b,0x55,0x52,0x55,0x29,0x95,
 0x54,0x52,0xaa,0xb4,0xed,0x0a,0x00,0x80,0xaa,0xaa,0xaa,0x02,0x6a,0xaa,0xa4,
 0xa4,0x92,0x52,0xa5,0xaa,0xaa,0xaa,0xaa,0xad,0x2a,0xa5,0xa4,0x4a,0x55,0xa5,
 0xd6,0x56,0x15,0x04,0x20,0x55,0x55,0x55,0x01,0x4a,0x25,0x95,0x4a,0x25,0x55,
 0x92,0x4a,0x5a,0xd5,0x56,0x55,0x55,0xaa,0x2a,0x95,0x2a,0x49,0x55,0x48,0x55,
 0x41,0x80,0xaa,0xaa,0xaa,0x02,0x55,0x55,0x55,0x55,0xa9,0x4a,0x45,0xaa,0xaa,
 0xaa,0x5a,0x55,0x55,0x95,0xa4,0x52,0x92,0xaa,0xaa,0x96,0x48,0x08,0x00,0x55,
 0x55,0x55,0x01,0x52,0xaa,0xa4,0x94,0xaa,0x94,0xa8,0x2a,0xa9,0xaa,0xaa,0xaa,
 0x22,0x29,0x55,0xaa,0x54,0x55,0x55,0x29,0x01,0x01,0x01,0x54,0x55,0x55,0x01,
 0xa9,0x92,0xaa,0x4a,0x49,0x52,0x25,0xa9,0x54,0xb5,0x56,0xb5,0xaa,0xa4,0x2a,
 0x95,0xaa,0xa4,0x5a,0x95,0x54,0x52,0x08,0xa9,0xaa,0xaa,0x02,0x4a,0x25,0x95,
 0x94,0xaa,0x2a,0x49,0x55,0xd1,0xaa,0x69,0x4b,0x95,0x4a,0x52,0xa9,0x92,0x4a,
 0xed,0x56,0xa5,0x04,0x21,0xaa,0x54,0xa9,0x02,0x2a,0xa9,0x52,0xa5,0x54,0xa5,
 0xa4,0xaa,0x54,0xad,0x56,0x55,0x49,0x55,0x95,0x4a,0xa9,0xaa,0xb6,0x55,0x55,
 0x52,0x80,0x94,0x2a,0x55,0x01,0x52,0xaa,0xa4,0x2a,0x89,0x94,0xa8,0x52,0xa1,
 0xaa,0xaa,0x2a,0x95,0xa4,0x28,0x95,0x4a,0x94,0x54,0xba,0xd6,0xaa,0xaa,0x6a,
 0x55,0x55,0x01,0xaa,0x2a,0x55,0x52,0x55,0x55,0xaa,0x2a,0x15,0x55,0xb5,0xaa,
 0xa4,0x52,0xa6,0x52,0x52,0xa5,0xaa,0xaa,0x2b,0x25,0x01,0x95,0xaa,0xaa,0x02,
 0x49,0x49,0xa5,0x94,0x52,0x92,0xa4,0xaa,0x42,0xea,0x56,0x25,0x55,0x4a,0x49,
 0xaa,0xaa,0x2a,0x15,0x41,0x54,0xaa,0xb6,0xaa,0x54,0x55,0x02,0xaa,0xaa,0x54,
 0x55,0x55,0x55,0x52,0x55,0x95,0x28,0x6b,0x95,0x92,0x2a,0x55,0x25,0x25,0xa5,
 0xaa,0x94,0x92,0x52,0xa9,0xaa,0xaa,0xaa,0x01,0x4a,0x52,0x49,0x25,0x49,0x2a,
 0x49,0xa5,0x0a,0xa2,0x5a,0xa9,0x54,0x52,0x29,0xa9,0x54,0x4a,0x11,0x00,0x40,
 0x54,0x55,0x55,0x25,0x95,0x02,0x55,0x95,0xaa,0xaa,0xaa,0x92,0x54,0x55,0xa5,
 0xa0,0x6d,0x55,0x55,0x95,0x4a,0x55,0x4a,0xa9,0x4c,0x00,0x10,0x55,0x55,0xa9,
 0xaa,0x6a,0x01,0xa4,0x54,0x12,0x49,0x92,0x2a,0xaa,0x2a,0x15,0x42,0x95,0x4a,
 0x49,0x2a,0x55,0x92,0xaa,0x2a,0x95,0x52,0xab,0xaa,0xaa,0x4a,0x55,0x89,0x02,
 0x55,0x4a,0xd5,0x54,0x55,0x49,0x49,0xaa,0xaa,0xa8,0x6a,0x25,0x55,0xa5,0x92,
 0x4a,0x29,0xa5,0x52,0x84,0xa8,0x52,0x55,0x55,0xaa,0x6a,0x01,0xaa,0x92,0x14,
 0xa5,0xa4,0x2a,0xb2,0x52,0x29,0x40,0x95,0x54,0x95,0x4a,0x2a,0xa9,0x52,0xaa,
 0xaa,0xa8,0x56,0xad,0xaa,0xaa,0x4a,0x95,0x02,0x92,0xaa,0xaa,0x2a,0x55,0x0a,
 0x4d,0x55,0x55,0xa2,0xaa,0xaa,0xa4,0x52,0xc9,0x54,0x4a,0x95,0x54,0x55,0xa9,
 0x52,0x55,0x55,0xb5,0x6a,0x01,0x55,0x2a,0x51,0x52,0x92,0x52,0xb2,0xaa,0x4a,
 0xa9,0x92,0x44,0x55,0xaa,0x2a,0xa5,0x54,0x52,0x89,0xaa,0xaa,0x56,0xd5,0x52,
 0x52,0x95,0x02,0x4a,0x49,0x4d,0x95,0xaa,0x8a,0x4a,0x55,0xaa,0x50,0x55,0x55,
 0x2a,0x95,0xa4,0x2a,0x55,0xa9,0xaa,0xa4,0xaa,0xaa,0xaa,0xaa,0xaa,0x6a,0x01,
 0xaa,0x52,0x92,0xa4,0x94,0x24,0xb5,0x4a,0x55,0x95,0x24,0xa9,0xa4,0xa4,0x4a,
 0x51,0x49,0x25,0x55,0x55,0x55,0x55,0x55,0x55,0x95,0x94,0x02,0x25,0x55,0x55,
 0xaa,0x52,0x4a,0xa9,0xaa,0xaa,0xaa,0xaa,0x2a,0x53,0x55,0x35,0x95,0x2a,0x55,
 0x55,0x55,0x55,0x55,0x55,0x55,0x55,0x55,0x01,0x4a,0x4a,0x52,0x49,0x55,0x91,
 0xaa,0x2a,0x29,0x49,0x52,0x52,0x24,0x29,0x42,0x55,0x52,0x95,0x54,0x55,0x55,
 0x55,0xa9,0xaa,0xaa,0xaa,0x02,0x52,0x25,0x95,0x2a,0x29,0xa5,0x54,0x55,0x55,
 0xa5,0x4a,0x95,0x95,0x4a,0x59,0x49,0x55,0xa9,0xaa,0xaa,0xaa,0xaa,0x56,0x95,
 0x54,0x55,0x01,0xaa,0x54,0x29,0xa5,0x52,0x89,0xaa,0xaa,0x52,0x55,0x55,0x29,
 0xaa,0x54,0x25,0x55,0x25,0xa5,0x92,0xa4,0xaa,0xaa,0x54,0x55,0xa5,0xaa,0x02,
 0x95,0xaa,0xaa,0x52,0x95,0x52,0x55,0x29,0x95,0x2a,0x29,0xa5,0x55,0x55,0xaa,
 0x52,0xa9,0x54,0xaa,0xaa,0xaa,0xaa,0xaa,0x55,0x55,0x55,0x01,0x52,0x92,0xa4,
 0x94,0xa4,0xa4,0xaa,0xaa,0x2a,0x51,0x92,0x4a,0x92,0x92,0x94,0x94,0x4a,0x95,
 0x4a,0xa9,0xaa,0xaa,0xaa,0xaa,0xaa,0xaa,0x02,0x55,0x55,0x95,0x4a,0x55,0x12,
 0x55,0x55,0x52,0x95,0x4a,0x29,0xa9,0x54,0xa5,0x4a,0xa9,0x52,0x29,0x55,0x55,
 0x55,0x55,0x55,0x55,0x55,0x01,0x4a,0x25,0x29,0x29,0x49,0x49,0x55,0xa5,0xaa,
 0xa4,0x2a,0xa5,0x92,0xaa,0x2a,0x55,0x4a,0xaa,0x52,0xaa,0xaa,0xaa,0xaa,0x2a,
 0x95,0xaa,0x02,0xa5,0x54,0xa5,0x54,0xa5,0xa4,0xaa,0xaa,0x4a,0x55,0x52,0xa9,
 0x4a,0x25,0xa9,0x4a,0x55,0x95,0xaa,0x92,0xaa,0xaa,0xaa,0xaa,0xaa,0x54,0x01,
 0xaa,0xaa,0xaa,0x4a,0x2a,0x51,0x55,0x55,0x34,0x49,0x49,0x4a,0x2a,0x4a,0x45,
 0x94,0x24,0xa9,0xa4,0xaa,0xaa,0xaa,0xaa,0x4a,0xa9,0xaa,0x02,0x55,0x55,0x95,
 0xaa,0xaa,0xa8,0x54,0x55,0xab,0xaa,0xaa,0xaa,0xaa,0xa9,0x54,0x53,0x52,0x55,
 0x95,0x54,0x55,0x55,0x55,0x55,0x55,0x55,0x01,0x20,0x09,0x52,0x52,0x91,0x52,
 0xa5,0x4a,0xa4,0x2a,0x55,0x55,0xa9,0x2a,0x55,0x54,0x55,0x92,0x2a,0x49,0x55,
 0x55,0x55,0x55,0xaa,0x92,0x02,0x5a,0xd5,0x4a,0x95,0x54,0x94,0xaa,0xaa,0x55,
 0x55,0xa5,0x2a,0x25,0xa5,0x4a,0xab,0x4a,0x55,0xa9,0xaa,0xaa,0xaa,0xaa,0xaa,
 0x2a,0x55,0x01,0xa5,0x92,0x54,0x52,0x25,0x51,0x55,0x15,0x2a,0x80,0x08,0xa0,
 0x94,0x48,0x24,0x04,0x29,0x89,0x44,0x12,0x55,0x55,0x55,0x95,0x44,0xaa,0x02,
 0x55,0xaa,0xaa,0xaa,0x54,0x4a,0x55,0xd5,0xaa,0x36,0x55,0x1b,0x49,0xaa,0xaa,
 0xd2,0x94,0x54,0x55,0x49,0x55,0x55,0x55,0x55,0x55,0x55,0x01,0xff,0xff,0xf7,
 0x6d,0x2f,0x52,0xaa,0x24,0xd5,0xed,0xf6,0xf6,0xf7,0xdb,0xed,0xbd,0x6b,0x6b,
 0xdb,0xb6,0xaa,0xaa,0xaa,0x6a,0xbb,0x55,0x01,0xaa,0xaa,0x5a,0xbb,0x95,0x54,
 0x95,0xaa,0xaa,0xb6,0xbb,0xad,0xba,0xb6,0xb6,0xd6,0xda,0x5d,0x6d,0xdb,0x55,
 0x55,0x55,0xb5,0x55,0x6d,0x03,0xdd,0xdd,0xef,0xee,0x4f,0xaa,0x6a,0xa5,0xfa,
 0xff,0xff,0xff,0xef,0xdf,0xdb,0x5d,0xb7,0xf6,0xb5,0x6d,0x55,0x55,0x55,0x6d,
 0xff,0xf7,0x01,0x6b,0x77,0x75,0x77,0x35,0x49,0x55,0x55,0xed,0xfb,0xbe,0x55,
 0x75,0xf5,0x76,0xeb,0xed,0xad,0x7e,0xff,0x55,0x55,0x55,0xd5,0x55,0x5d,0x03,
 0xdd,0xda,0xae,0xad,0x87,0x54,0x4a,0x92,0xba,0xef,0xfb,0xfe,0xaf,0x5b,0xdb,
 0xae,0xb6,0x76,0xab,0x55,0xab,0xaa,0x54,0x75,0xff,0xfb,0x02,0x6b,0xb7,0xf5,
 0xf6,0x2d,0x55,0x55,0xa9,0xfa,0x7d,0xbf,0x57,0xf5,0xee,0xb6,0x75,0xbb,0xbb,
 0xed,0xee,0xab,0xaa,0xaa,0xea,0xad,0xae,0x03,0xad,0x6a,0xab,0xad,0x8a,0xa8,
 0xaa,0xaa,0xfe,0xf7,0xed,0xba,0xad,0xb5,0x6d,0xef,0xd6,0xee,0xb6,0xb5,0x56,
 0x55,0x55,0xb5,0xf7,0x7d,0x03,0xdb,0xbd,0x7d,0xdb,0x27,0x4a,0x55,0x55,0xdb,
 0xbe,0xff,0x6f,0xdb,0x5e,0xdb,0xba,0xbd,0x5b,0x6f,0x6f,0xab,0xaa,0xaa,0xea,
 0x7d,0xd7,0x02,0xbd,0xeb,0xd6,0x76,0x45,0xa9,0x54,0xa9,0xfe,0xff,0xb7,0xba,
 0x77,0xfb,0xfd,0xd7,0xf7,0xfe,0xfd,0xbd,0xaf,0x2a,0xa5,0x5a,0xd7,0xfd,0x03,
 0x6f,0x5d,0xbb,0xdd,0x2b,0xaa,0xaa,0xaa,0xfa,0xef,0xfe,0xef,0xdd,0x56,0x57,
 0xfd,0xba,0xab,0xae,0xee,0xad,0xaa,0xaa,0xea,0x7d,0xb7,0x02,0x00,0x00,0x00,
 0x00,0x40,0x55,0x55,0x55,0x05,0x10,0x00,0x00,0x00,0x21,0x28,0x01,0x45,0x6a,
 0xa9,0x2a,0x55,0x55,0x55,0xa9,0xd6,0xee,0x01,0x40,0xa2,0x4a,0x95,0x2a,0x55,
 0x55,0x55,0x49,0x4a,0xab,0xaa,0xaa,0x54,0xa5,0x6a,0xb5,0x55,0xab,0x55,0xab,
 0xaa,0x54,0xb5,0x6b,0x5b,0x03,0xdf,0xad,0xaa,0xaa,0x50,0x55,0x55,0x6a,0x55,
 0x29,0x55,0x2a,0x55,0x95,0xaa,0x94,0x08,0x22,0x24,0x22,0x54,0x55,0x55,0x45,
 0x88,0x20,0x00,0xa4,0x92,0x54,0x52,0x8a,0xaa,0xaa,0x55,0x55,0x4a,0x91,0x92,
 0x52,0xa5,0x4a,0x4a,0x52,0x95,0x92,0x94,0xa5,0xaa,0xaa,0x2a,0x25,0xad,0x02,
 0x29,0x25,0x21,0x89,0x50,0xa9,0x2a,0xb5,0x88,0x24,0x4a,0xa9,0xa4,0x94,0x94,
 0x52,0x55,0xa9,0xaa,0x2a,0xa9,0xaa,0xaa,0xaa,0x5a,0x55,0x01,0xaa,0x92,0x94,
 0x54,0x4a,0x55,0x55,0x55,0xa5,0xaa,0xaa,0x54,0x55,0x4a,0x52,0xa9,0x92,0x94,
 0x54,0x55,0x55,0x55,0x55,0x55,0xa5,0xaa,0x02,0x92,0x24,0x55,0x89,0xa8,0xaa,
 0xaa,0xaa,0x2a,0x91,0x24,0x01,0x22,0x91,0x44,0x02,0x49,0x22,0x89,0x48,0x92,
 0xaa,0xaa,0xaa,0xaa,0xaa,0x02,0x4a,0xaa,0x92,0x54,0x24,0x95,0xaa,0xaa,0xa4,
 0xaa,0x52,0x6d,0x55,0x55,0x92,0xb4,0x24,0x55,0x55,0x55,0x55,0xad,0xaa,0x2a,
 0x55,0x55,0x01,0xa9,0x52,0x55,0xa5,0x92,0x6a,0x55,0xad,0x2a,0x55,0x95,0x92,
 0xa4,0xaa,0x55,0xa5,0xda,0xaa,0xaa,0xaa,0xaa,0xaa,0xaa,0x52,0x55,0xd5,0x02,
 0xaa,0x4a,0x4a,0x55,0x48,0x29,0x55,0x55,0x55,0xa9,0x54,0xa9,0x2a,0x49,0x54,
 0x55,0x25,0x55,0x55,0x55,0x55,0x55,0x55,0x55,0x55,0x55,0x01,0x92,0x54,0x29,
 0xa9,0x55,0x55,0x55,0x5b,0xa9,0x4a,0xa5,0x4a,0x52,0x92,0x22,0x12,0x49,0x4a,
 0x92,0x24,0xa5,0xaa,0xaa,0x4a,0x55,0x55,0x01,0x4a,0xa5,0x54,0x15,0x49,0x55,
 0x55,0x55,0x55,0x55,0x55,0xa9,0x4a,0x55,0x99,0xa9,0xaa,0x52,0xa9,0xaa,0xaa,
 0x6a,0xab,0xaa,0xaa,0xaa,0x02,0x52,0x4a,0x25,0xa9,0xaa,0x2a,0xd5,0x96,0x92,
 0x2a,0x95,0x2a,0x55,0x55,0x22,0x92,0x54,0x95,0x4a,0x55,0x4a,0x55,0x55,0x95,
 0x54,0x55,0x01,0xa9,0x52,0x92,0x94,0x24,0x55,0x55,0xab,0x54,0xa5,0xaa,0x54,
 0xa5,0x24,0xd5,0xaa,0x92,0x54,0x2a,0x49,0xa9,0xaa,0xaa,0xaa,0xaa,0xaa,0x02,
 0x02,0x84,0x24,0x21,0x49,0xbc,0xaa,0x12,0x21,0x48,0x50,0x22,0x49,0x4a,0x25,
 0x45,0xaa,0x52,0xa9,0x92,0x2a,0xd5,0xaa,0xaa,0xaa,0xaa,0x00,0xb4,0x69,0x52,
 0x55,0x92,0xea,0xd5,0xa7,0x4c,0x95,0x96,0xaa,0x2a,0xa9,0x52,0xa9,0x4a,0x2a,
 0x95,0x54,0x95,0x54,0x55,0x55,0xa5,0xaa,0x02,0x55,0x95,0x95,0x4a,0x49,0xff,
 0x7f,0x4b,0x92,0x28,0x49,0x24,0x52,0x25,0x8a,0x24,0x91,0x44,0x22,0x55,0x52,
 0xa9,0xaa,0xaa,0x94,0x54,0x01,0x92,0xaa,0x54,0x91,0xa4,0xfe,0xed,0x2b,0x25,
 0x85,0x24,0x53,0x95,0x52,0x51,0x52,0xaa,0xaa,0xaa,0x4a,0xa9,0xd6,0x56,0x55,
 0xaa,0x92,0x02,0x2a,0x55,0x29,0xad,0xda,0xbf,0xff,0xa3,0x54,0x75,0xd5,0xaa,
 0xaa,0xaa,0x56,0x95,0x24,0x29,0x55,0xa9,0x4a,0x48,0x55,0x55,0x55,0x55,0x01,
 0xa5,0x24,0x55,0xa5,0xe4,0xff,0x7f,0x4f,0x4a,0x95,0x2a,0x55,0x55,0x55,0x25,
 0xa9,0x52,0x95,0x92,0x24,0x55,0xab,0xaa,0xaa,0x2a,0x55,0x01,0x48,0x82,0x48,
 0x12,0xff,0xdb,0xf6,0x93,0x28,0x55,0x55,0x89,0x48,0xaa,0x54,0x55,0x95,0x48,
 0x54,0x55,0xaa,0xaa,0xef,0x96,0x90,0x84,0x02,0x25,0x29,0x25,0x49,0xf9,0xff,
 0xff,0xaf,0xaa,0xaa,0xaa,0x6a,0x55,0x95,0xaa,0x2a,0x55,0xa5,0x4a,0xaa,0x4a,
 0xa5,0x5a,0x6d,0xaa,0xb2,0x00,0x88,0x44,0x88,0x68,0xbf,0xff,0xdf,0x22,0x55,
 0x55,0x55,0x92,0xaa,0xa4,0xaa,0xaa,0xaa,0xaa,0x94,0x90,0x28,0x4a,0xff,0xbf,
 0x04,0x49,0x02,0x25,0x91,0x52,0xd2,0xea,0xb6,0xff,0x5f,0x55,0x55,0x55,0x55,
 0x55,0x55,0x55,0x55,0x55,0x55,0xa5,0xaa,0x4a,0x29,0xfd,0xab,0xd2,0x24,0x01,
 0x48,0x2a,0x05,0xad,0xfd,0xff,0xff,0xd7,0xaa,0xaa,0xaa,0xaa,0xaa,0x5a,0x55,
 0x55,0x95,0xaa,0xaa,0x4a,0x95,0x52,0xe9,0xdf,0x2a,0x55,0x01,0x92,0x84,0x50,
 0xda,0xae,0xff,0xf7,0x57,0xad,0x55,0x55,0xad,0xaa,0xd6,0xaa,0xaa,0x6a,0x55,
 0x55,0x55,0x52,0x2a,0xf5,0x76,0x95,0x4a,0x01,0x00,0x10,0x22,0x75,0x7b,0x55,
 0x2d,0x55,0x51,0xaa,0xaa,0xaa,0xaa,0x2a,0x55,0x55,0x95,0xaa,0xaa,0xaa,0xaa,
 0x52,0xa5,0xaf,0x4a,0x94,0x02,0x55,0xa5,0x94,0xd4,0xd6,0xbb,0xd5,0xaa,0x56,
 0x55,0x55,0x55,0x55,0x55,0x55,0xa5,0x6a,0x55,0x55,0x95,0xaa,0xaa,0xd4,0xf7,
 0x55,0xa5,0x00,0x08,0x10,0x41,0x49,0x15,0xa2,0x2a,0x05,0x88,0x88,0xa4,0xaa,
 0xaa,0xaa,0xaa,0x5a,0x95,0xaa,0x2a,0x55,0x55,0x55,0xbb,0x5b,0x4b,0x29,0x01,
 0x45,0x45,0x54,0x54,0xd2,0x5a,0xaa,0xd2,0x52,0x25,0x95,0xa4,0xaa,0xaa,0xaa,
 0xaa,0x6a,0x55,0xd5,0xaa,0xaa,0xda,0xd6,0xff,0xad,0x94,0x02,0x10,0x8a,0x4a,
 0x89,0x24,0xa2,0x44,0x05,0x04,0x48,0x48,0x12,0x11,0x91,0x94,0xa4,0x8a,0xaa,
 0x2a,0x55,0x55,0xb5,0x7b,0x57,0x2b,0xa5,0x00,0x4a,0x51,0x22,0x55,0x92,0x4a,
 0xaa,0xa8,0x52,0x25,0x25,0x49,0x4a,0xaa,0x52,0x55,0x69,0x55,0xa9,0xaa,0xaa,
 0xee,0xd6,0xff,0x56,0x55,0x02,0x10,0x04,0x08,0x00,0x48,0x94,0x10,0x01,0x08,
 0x90,0x10,0x24,0x91,0x44,0x4a,0x29,0x95,0xaa,0xaa,0xaa,0xb5,0xa9,0x7d,0xff,
 0xab,0xa4,0x00,0xa5,0xa2,0xa2,0x92,0x02,0x45,0x4a,0xaa,0xa2,0x0a,0x8a,0x42,
 0x24,0xa9,0x92,0x94,0x52,0x52,0x55,0x55,0xad,0xb6,0xd6,0xff,0x96,0x52,0x02,
 0x08,0x08,0x04,0x44,0xb4,0x5a,0x55,0x05,0x08,0xa1,0x50,0x14,0x49,0x04,0x08,
 0xa2,0xa4,0x4a,0x4a,0x55,0x55,0x55,0x6d,0x55,0x2b,0x95,0x00,0xa2,0x52,0xa9,
 0x22,0x89,0xa4,0xaa,0x52,0x45,0x14,0x8a,0x42,0x92,0x52,0x45,0x11,0x95,0x52,
 0xa5,0xaa,0x52,0x55,0x5b,0xbb,0x55,0x25,0x01,0x08,0x04,0x02,0x88,0x20,0x10,
 0x81,0x08,0x10,0x40,0x20,0x14,0x01,0x00,0x28,0x44,0x20,0x24,0x29,0x92,0x24,
 0x49,0xaa,0x4a,0x55,0x92,0x00,0xa2,0xa2,0xa8,0x52,0x4a,0xa5,0x34,0x85,0x84,
 0x12,0x4a,0x42,0x54,0x55,0x05,0x29,0x95,0x4a,0x4a,0x49,0x92,0x54,0x55,0xb5,
 0xaa,0x24,0x01,0x08,0x08,0x42,0x04,0x00,0x08,0x82,0x10,0x51,0xa4,0x90,0x28,
 0x01,0x82,0x50,0x84,0xa4,0x90,0x10,0x12,0x49,0x82,0xaa,0x52,0x89,0x92,0x02,
 0x85,0xa2,0x10,0x51,0x55,0x45,0x51,0xa4,0x08,0x11,0x0a,0x05,0x52,0x51,0x24,
 0x51,0x12,0x25,0xa5,0xa4,0x84,0xa8,0xa4,0x8a,0x54,0x44,0x00,0x10,0x08,0x45,
 0x44,0x22,0x91,0x84,0x12,0xa2,0x44,0x51,0xa8,0x08,0x0a,0x89,0x04,0x49,0x94,
 0x44,0x02,0x29,0x25,0x55,0x29,0x89,0x92,0x02,0xa4,0xa2,0x28,0x29,0x49,0x4a,
 0x52,0x88,0x14,0x92,0x08,0x05,0x44,0xa1,0x44,0xa2,0x90,0x22,0x92,0x54,0x92,
 0x92,0xaa,0x94,0xa4,0x48,0x00,0x00,0x14,0x41,0x42,0x00,0x11,0x09,0x21,0x40,
 0x00,0x22,0x50,0x11,0x14,0x29,0x08,0x45,0x88,0x08,0x22,0x49,0x48,0x24,0x49,
 0x12,0x25,0x01,0xa9,0x42,0x2a,0x29,0x02,0x48,0x42,0x0a,0x15,0xaa,0x08,0x05,
 0x48,0x45,0x04,0xa5,0x10,0x45,0xa2,0x48,0x22,0x92,0x52,0x95,0xa4,0x48,0x01,
 0x04,0x00,0x00,0x00,0x80,0x22,0x28,0x50,0x40,0x00,0x22,0x90,0x22,0x10,0x51,
 0x10,0x42,0x10,0x08,0x01,0x88,0x00,0x45,0x40,0x12,0x11,0x02,0x01,0x00,0x00,
 0x00,0x00,0x14,0x85,0x0a,0x94,0xaa,0x48,0x25,0x90,0x8a,0x08,0x45,0x29,0x44,
 0xa5,0x54,0x45,0xaa,0xa8,0x96,0x44,0xaa,0x00};
