#define noname_width 201
#define noname_height 250
static char noname_bits[] = {
 0xff,0xff,0xff,0xff,0xff,0xff,0xff,0xff,0xff,0xff,0xff,0xff,0xff,0xff,0xff,
 0xff,0xff,0xff,0xff,0xff,0xff,0xff,0xff,0xff,0xff,0x01,0xff,0xff,0xff,0xff,
 0xff,0xff,0xff,0xff,0xff,0xff,0xff,0xff,0xff,0xff,0xff,0xff,0xff,0xff,0xff,
 0xff,0xff,0xff,0xff,0xff,0xff,0x01,0xff,0xff,0xff,0xff,0xff,0xff,0xff,0xff,
 0xff,0xff,0xff,0xff,0xff,0xff,0xff,0xff,0xff,0xff,0xff,0xff,0xff,0xff,0xff,
 0xff,0xff,0x01,0xff,0xff,0xff,0xff,0xff,0xff,0xff,0xff,0xff,0xff,0xff,0xff,
 0xff,0xff,0xff,0xff,0xff,0xff,0xff,0xff,0xff,0xff,0xff,0xff,0xff,0x01,0xff,
 0xff,0xff,0xff,0xff,0xff,0xff,0xff,0xff,0xff,0xff,0xff,0xff,0xff,0xff,0xff,
 0xff,0xff,0xff,0xff,0xff,0xff,0xff,0xff,0xff,0x01,0xff,0xff,0xff,0xff,0xff,
 0xff,0xff,0xff,0xff,0xff,0xff,0xff,0xff,0xff,0xff,0xff,0xff,0xff,0xff,0xff,
 0xff,0xff,0xff,0xff,0xff,0x01,0xff,0xff,0xff,0xff,0xff,0xff,0xff,0xff,0xff,
 0xff,0xff,0xff,0xff,0xff,0xff,0xff,0xff,0xff,0xff,0xff,0xff,0xff,0xff,0xff,
 0xff,0x01,0xff,0xff,0xff,0xff,0xff,0xff,0xff,0xff,0xff,0xff,0xff,0xff,0xff,
 0xff,0xff,0xff,0xff,0xff,0xff,0xff,0xff,0xff,0xff,0xff,0xff,0x01,0xff,0xff,
 0xff,0xff,0xff,0xff,0xff,0xff,0xff,0xff,0xff,0xff,0xff,0xff,0xff,0xff,0xff,
 0xff,0xff,0xff,0xff,0xff,0xff,0xff,0xff,0x01,0xff,0xff,0xff,0xff,0xff,0xff,
 0xff,0xff,0xff,0xff,0xff,0xff,0xff,0xff,0xff,0xff,0xff,0xff,0xff,0xff,0xff,
 0xff,0xff,0xff,0xff,0x01,0xff,0xff,0xff,0xff,0xff,0xff,0xff,0xff,0xff,0xff,
 0xff,0xff,0xff,0xff,0xff,0xff,0xff,0xff,0xff,0xff,0xff,0xff,0xff,0xff,0xff,
 0x01,0xff,0xff,0xff,0xff,0xff,0xff,0xff,0xff,0xbf,0xff,0xff,0xff,0xff,0xff,
 0xff,0xff,0xff,0xff,0xff,0xff,0xff,0xff,0xff,0xff,0xff,0x01,0xff,0xff,0xff,
 0xff,0xff,0xff,0xff,0xff,0xff,0xff,0xff,0xff,0xff,0xff,0xff,0xff,0xff,0xff,
 0xff,0xff,0xff,0xff,0xff,0xff,0xff,0x01,0xff,0xff,0xff,0xff,0xff,0xff,0xff,
 0xff,0xed,0xf6,0xff,0xff,0xff,0xff,0xff,0xff,0xff,0xff,0xff,0xff,0xff,0xff,
 0xff,0xff,0xff,0x01,0xff,0xff,0xff,0xff,0xff,0xff,0xff,0xef,0xff,0x7f,0xff,
 0xff,0xff,0xff,0xff,0xff,0xff,0xff,0xff,0xff,0xff,0xff,0xff,0xff,0xff,0x01,
 0xff,0xff,0xff,0xff,0xff,0xff,0xff,0xff,0xff,0xff,0xf7,0xff,0xff,0xff,0xff,
 0xff,0xff,0xff,0xff,0xff,0xff,0xff,0xff,0xff,0xff,0x01,0xff,0xff,0xff,0xff,
 0xff,0xff,0xff,0x7f,0x6f,0xfb,0xff,0xff,0xff,0xff,0xff,0xff,0xff,0xff,0xff,
 0xff,0xff,0xff,0xff,0xff,0xff,0x01,0xff,0xff,0xff,0xff,0xff,0xff,0xff,0xff,
 0xff,0x7f,0xff,0xff,0xff,0xff,0xff,0xff,0xff,0xff,0xff,0xff,0xff,0xff,0xff,
 0xff,0xff,0x01,0xff,0xff,0xff,0xff,0xff,0xff,0xff,0xfd,0xff,0xff,0xff,0xff,
 0xff,0xff,0xff,0xff,0xff,0xff,0xff,0xff,0xff,0xff,0xff,0xff,0xff,0x01,0xff,
 0xff,0xff,0xff,0xff,0xff,0x7f,0xff,0xdd,0xff,0xdf,0xff,0xff,0xff,0xf7,0xfd,
 0xff,0xff,0xff,0xff,0xff,0xff,0xff,0xff,0xff,0x01,0xff,0xff,0xff,0xff,0xff,
 0xff,0xff,0xff,0xff,0xff,0xff,0xff,0xff,0xff,0xff,0xff,0xff,0xff,0xff,0xff,
 0xff,0xff,0xff,0xff,0xff,0x01,0xab,0xaa,0xaa,0xaa,0x6a,0xb5,0xed,0xdf,0xff,
 0xff,0xff,0xff,0xff,0xff,0xff,0xff,0xff,0xff,0xf7,0xff,0xff,0x7f,0xff,0xff,
 0xff,0x01,0x7d,0xdf,0xf7,0xff,0xbf,0xff,0xff,0xff,0xff,0xfb,0xff,0xff,0xff,
 0xff,0xff,0xff,0xff,0xff,0xff,0xff,0xff,0xff,0xff,0xff,0xff,0x01,0xab,0xb5,
 0x5a,0x55,0xd5,0x55,0xd5,0xfd,0xff,0x7f,0xff,0xaa,0xaa,0xaa,0xfd,0xbf,0xfb,
 0xff,0xff,0xff,0xff,0xff,0xff,0xff,0xff,0x01,0x6d,0xdb,0x6d,0xdb,0x6e,0x6f,
 0xfb,0xff,0xff,0xff,0xff,0xff,0xff,0xff,0xb7,0xfd,0xbf,0xff,0xff,0xff,0xff,
 0xff,0xff,0xff,0xff,0x01,0xb6,0x6d,0xdb,0xb6,0xb5,0xb5,0xfd,0xff,0xff,0x6f,
 0xbb,0x57,0x55,0x55,0x6d,0xab,0x6a,0xa5,0xaa,0xaa,0xaa,0xda,0xdb,0xdd,0xff,
 0x01,0x6d,0x5b,0x6d,0xdb,0x6e,0x6d,0xeb,0xff,0xdf,0xff,0xff,0xdd,0xf6,0xef,
 0xb6,0xdd,0xdf,0xbd,0xff,0xfd,0xff,0x6f,0xff,0xff,0xfd,0x01,0xb6,0x6d,0xb7,
 0x6d,0x5b,0xdb,0xf6,0xff,0xff,0xff,0xff,0xbf,0xad,0xb4,0xed,0x6e,0xb5,0x6e,
 0x55,0x57,0x55,0xf5,0xaa,0xaa,0x56,0x01,0x6d,0xdb,0x6a,0xdb,0x76,0xad,0xdd,
 0xff,0xff,0xff,0xff,0x77,0xdb,0xdb,0x5e,0xdb,0xf6,0xb5,0x6f,0xbd,0xff,0xaf,
 0xff,0xff,0xed,0x01,0xb6,0xaa,0xbd,0x6d,0xab,0xeb,0xf6,0xff,0xfd,0xb7,0xff,
 0xbf,0x6d,0x6d,0xeb,0xb6,0xad,0xde,0xb5,0x6b,0x55,0x75,0x55,0x55,0x5b,0x01,
 0x6d,0x77,0x6b,0xdb,0x6e,0x5d,0xdb,0xff,0xff,0xff,0xff,0xff,0xd6,0xb6,0xdd,
 0x6d,0xdb,0xb5,0x6e,0xb7,0xdb,0xee,0xbb,0xdb,0x7d,0x01,0xab,0xaa,0x55,0x55,
 0x55,0xab,0x6d,0xb5,0xee,0xff,0xff,0xff,0xb5,0x6d,0xab,0xb6,0x6d,0x6d,0xdb,
 0xda,0xb6,0xb5,0xd6,0xb6,0xae,0x01,0xf6,0x5d,0xef,0xee,0xbe,0xdd,0xda,0xff,
 0xfb,0xd7,0xff,0xdf,0x6f,0xdb,0xbe,0x6d,0xdb,0xb6,0x6d,0x6f,0xdb,0x6f,0xbb,
 0xdd,0x75,0x01,0xab,0xea,0xb4,0x55,0x65,0x6b,0xad,0xfe,0xfe,0x7f,0xff,0xff,
 0xb5,0x6d,0xd3,0xb6,0x6d,0xdb,0xb6,0xb5,0x6d,0xb5,0x6d,0xeb,0xae,0x01,0xae,
 0x57,0xab,0xde,0xdd,0xd6,0xf6,0xdb,0xf7,0xff,0xff,0xff,0x6b,0xdb,0x6e,0x6b,
 0xdb,0xb6,0xed,0x6e,0xdb,0x6e,0xb7,0x5d,0x7b,0x01,0x75,0xb9,0xbd,0x6b,0xab,
 0x7a,0x5b,0xf6,0xfd,0xdb,0xfe,0x7d,0x5f,0x55,0xb5,0xb6,0xad,0x6d,0x5b,0xd5,
 0xb6,0xb5,0x6d,0xd7,0xad,0x01,0xad,0xd7,0x6a,0xb5,0x76,0xcb,0xaa,0xbf,0x77,
 0xff,0x7f,0xff,0x6b,0xbb,0xed,0x5a,0x7b,0xdb,0xb6,0xbb,0x6d,0xdb,0xb6,0xbd,
 0x76,0x01,0xaa,0x54,0xab,0x56,0x55,0x75,0xd5,0xfa,0xdd,0x57,0xfd,0xf5,0xbf,
 0xd6,0x56,0xef,0xad,0x6d,0xdb,0xd6,0xb6,0x6d,0xdb,0xd5,0xad,0x01,0x55,0x5b,
 0xad,0xad,0xad,0x4d,0x5b,0xdd,0xfe,0xfd,0xff,0xfe,0xd7,0x5a,0xbb,0x5a,0xdb,
 0xb6,0x6d,0xbb,0x6d,0xdb,0xb6,0x6e,0x5b,0x01,0xb5,0xaa,0xb5,0xb2,0xaa,0x6a,
 0x6d,0xbb,0x6b,0xdf,0xee,0xf1,0xbf,0xaa,0xca,0xaa,0xaa,0xaa,0xaa,0x55,0xb5,
 0x6d,0xad,0xb5,0xed,0x01,0x6d,0xb5,0xaa,0xae,0xb6,0x5a,0x55,0xef,0xfe,0xfb,
 0x7b,0xff,0x7f,0xb5,0xad,0xd5,0xb6,0x6d,0xb7,0x6e,0xab,0xda,0x75,0x5b,0x5b,
 0x01,0xaa,0xad,0xd6,0xaa,0x55,0x55,0xab,0xfa,0xab,0xbe,0xde,0xd2,0xff,0xad,
 0x6a,0x6d,0x55,0xb5,0xda,0xaa,0xdd,0x56,0xad,0xad,0x6d,0x01,0x55,0xd5,0x5a,
 0x55,0x6d,0x6b,0x6d,0x5f,0xff,0xeb,0xff,0xed,0xff,0x6a,0x55,0xab,0xb6,0xad,
 0xb5,0xb5,0xaa,0xb5,0x5b,0x75,0xdb,0x00,0xaa,0x5a,0x55,0x6d,0x55,0xad,0xaa,
 0xf5,0xaa,0xbe,0x55,0x5f,0xfa,0xaf,0x6d,0x55,0xd5,0xd6,0xaa,0xda,0xd6,0xaa,
 0x6a,0x5b,0x55,0x01,0xdb,0xaa,0xd6,0xaa,0xaa,0xaa,0x55,0xdd,0xff,0xfb,0xfe,
 0x5a,0xff,0xaa,0x5a,0xbb,0xad,0xaa,0xd6,0x56,0xad,0x6d,0xad,0xd6,0xb6,0x00,
 0x55,0xd5,0x5a,0xab,0x6d,0x55,0xb5,0x6a,0x55,0xad,0xdb,0x02,0xfd,0xaf,0x56,
 0x55,0xd5,0x6a,0x5b,0xab,0xb5,0x56,0xdb,0xaa,0xaa,0x01,0xb6,0xad,0xaa,0xb6,
 0xaa,0x6d,0x6b,0xfb,0xff,0xf7,0x6f,0x55,0xff,0xb5,0xb5,0x6a,0x5b,0x5b,0xb5,
 0x5a,0x6b,0x6d,0xb5,0xdd,0x6d,0x01,0x55,0x55,0xab,0xaa,0xaa,0xaa,0xaa,0x4a,
 0x55,0xad,0x5a,0x01,0xfc,0x6f,0xd5,0xae,0x6a,0xad,0x56,0x6d,0xad,0xb5,0xd6,
 0xaa,0x5a,0x01,0xaa,0x6a,0xb5,0x6a,0x5b,0x55,0xad,0xba,0xbf,0x7b,0xaf,0x00,
 0xff,0x5f,0xab,0xd5,0x56,0xdb,0xda,0xaa,0x5a,0x6b,0xad,0x6d,0xeb,0x00,0xb5,
 0xb5,0xaa,0x55,0xd5,0xb6,0x55,0xcb,0xea,0xde,0x55,0x00,0xf0,0xbf,0x6d,0xb5,
 0xda,0x6a,0x6b,0x6b,0x6b,0xad,0xb5,0xb6,0x5a,0x01,0xad,0x56,0x6b,0xad,0xaa,
 0xaa,0x6a,0xb5,0xdd,0xbb,0xab,0x00,0xfc,0x5f,0x55,0xab,0xb5,0x55,0x55,0xad,
 0xd6,0x5a,0x6b,0xd5,0xd6,0x00,0x55,0x55,0x55,0x55,0x5b,0x55,0xad,0xaa,0x6e,
 0xa0,0x2d,0x02,0x80,0xb7,0xb5,0xda,0x56,0x6d,0xbb,0xd5,0x5a,0xab,0x55,0x6d,
 0x6b,0x01,0x6a,0xad,0x56,0xb5,0xaa,0xad,0xaa,0xad,0xbd,0x60,0xab,0x00,0x40,
 0x5f,0x6d,0x55,0xb5,0x5a,0x55,0x5b,0xab,0xb6,0xae,0x55,0xad,0x00,0x56,0xd5,
 0xaa,0xad,0x6a,0xd5,0xb5,0x6a,0x00,0xc8,0x12,0x00,0x20,0x6d,0xab,0x6e,0xdb,
 0x56,0x6d,0xd5,0x6a,0xd5,0x6a,0x6d,0x6b,0x01,0xd5,0x5a,0xb5,0x6a,0x5b,0x2b,
 0x55,0x55,0x01,0x50,0xa5,0x00,0x40,0xdb,0xb6,0x55,0x55,0xd5,0xaa,0xb6,0xd6,
 0xb6,0xda,0xda,0xd6,0x00,0x5a,0x55,0xab,0x56,0x55,0xd5,0xad,0x3b,0x00,0x6a,
 0x15,0x00,0x00,0xb4,0x5a,0xb5,0xad,0xb6,0xb6,0x55,0x5b,0xab,0x56,0xad,0x6a,
 0x01,0xd5,0xd6,0x5a,0xad,0xd5,0x5a,0x55,0x15,0x50,0xa9,0x52,0x00,0x40,0xd5,
 0xb5,0xad,0xda,0xaa,0x55,0xdb,0x6a,0xdd,0xda,0xda,0x56,0x01,0x2a,0x29,0xa5,
 0x52,0x2a,0xa5,0xaa,0x02,0xaa,0x54,0x95,0x00,0x00,0xa8,0xda,0xd6,0xb6,0x6d,
 0x6d,0x6d,0xb5,0xaa,0x56,0xab,0xba,0x01,0xd5,0xd6,0x5a,0xad,0x55,0x55,0x55,
 0x00,0x90,0xaa,0x24,0x00,0x00,0x6a,0x57,0xad,0x55,0xdb,0xda,0xaa,0x6b,0x6b,
 0xdb,0x76,0x6b,0x01,0x29,0x29,0xa5,0x52,0xa4,0x54,0x09,0x00,0xa8,0xda,0x8a,
 0x00,0x00,0x80,0x54,0x55,0xd5,0x24,0xa5,0xaa,0x94,0xaa,0x6a,0xab,0xad,0x00,
 0xaa,0xaa,0x54,0x55,0x4b,0x55,0x05,0x14,0x55,0x35,0x25,0x00,0x00,0x54,0x55,
 0x55,0x55,0xdb,0x5a,0x55,0x5b,0x55,0x55,0xad,0xda,0x01,0x55,0x95,0x4a,0x52,
 0xb5,0x02,0x00,0xa0,0xa0,0xca,0x52,0x00,0x00,0x20,0x4a,0xa9,0x92,0x24,0x25,
 0xa9,0x54,0x55,0x55,0x55,0x65,0x00,0x92,0x52,0x55,0x55,0x55,0x45,0x02,0xac,
 0x5a,0x35,0x05,0x24,0x00,0x49,0x55,0x4a,0xaa,0xaa,0xaa,0x4a,0xa5,0xaa,0xaa,
 0xaa,0x5d,0x01,0xaa,0x54,0x52,0x15,0x00,0x00,0x90,0x6a,0xa5,0x56,0x55,0x00,
 0x00,0x90,0x52,0x55,0x55,0x52,0x52,0x2a,0x55,0x55,0x55,0x55,0x45,0x01,0xaa,
 0xaa,0xaa,0xaa,0x00,0x00,0x0a,0xaa,0x5a,0x55,0x15,0x88,0x00,0x22,0x95,0xaa,
 0xa4,0xaa,0xaa,0x52,0xa9,0x94,0xaa,0xaa,0x5a,0x01,0x4a,0x4a,0x12,0x00,0x00,
 0x00,0xe4,0x55,0xab,0x5a,0x49,0x22,0x02,0x40,0x48,0x25,0x55,0x25,0x95,0xaa,
 0x4a,0xaa,0xaa,0xaa,0xaa,0x00,0x55,0x55,0x55,0x00,0x00,0x00,0x90,0xda,0xaa,
 0xaa,0x2a,0x88,0x08,0x90,0xaa,0xaa,0x2a,0x55,0xa9,0x54,0x55,0xa5,0x54,0x55,
 0x55,0x01,0x52,0x49,0x55,0x01,0x80,0x02,0xa0,0x54,0x55,0x55,0x55,0x25,0x80,
 0x04,0x50,0x52,0x49,0xa9,0x4a,0x95,0xaa,0xaa,0x4a,0x2a,0xa9,0x00,0xaa,0xaa,
 0xaa,0x00,0xa0,0x00,0x54,0xa5,0xaa,0xaa,0x54,0x90,0x02,0x11,0xaa,0xaa,0xaa,
 0x4a,0x52,0xaa,0x54,0x55,0x55,0x55,0x55,0x01,0x25,0x55,0x55,0x0b,0x80,0x5e,
 0x81,0xaa,0xad,0x56,0x52,0x45,0x50,0x80,0x94,0x4a,0x2a,0x55,0x55,0xa5,0x2a,
 0xa9,0xaa,0xaa,0xaa,0x00,0x4a,0xa9,0xaa,0x12,0x40,0x51,0x54,0x55,0xab,0x95,
 0x2a,0x12,0x05,0x20,0xaa,0x54,0xa5,0x94,0xaa,0x4a,0xa5,0x4a,0x55,0xa9,0xaa,
 0x00,0x54,0x75,0xdb,0xaf,0x2a,0x54,0xd3,0x6a,0x55,0x55,0xd5,0xa4,0x12,0x81,
 0xa6,0x92,0x52,0xa5,0x24,0xa9,0x54,0x55,0x2a,0x55,0x55,0x01,0x55,0xaa,0xb5,
 0x54,0x49,0x55,0xaa,0xaa,0xae,0xaa,0x54,0x08,0x24,0x00,0x55,0x55,0xaa,0xaa,
 0xaa,0xaa,0xaa,0xaa,0x52,0x55,0xa5,0x00,0x4a,0xd5,0x7e,0x2b,0x55,0x55,0x89,
 0xaa,0x52,0x25,0xa5,0x42,0x13,0x44,0x2a,0x2a,0x95,0x94,0x52,0x4a,0x55,0x92,
 0xaa,0xaa,0x5a,0x01,0x52,0x55,0xeb,0xaa,0xaa,0xaa,0xaa,0xaa,0xaa,0xaa,0x54,
 0x90,0x44,0x80,0xaa,0x52,0x29,0x55,0xa5,0xaa,0xa4,0xaa,0x4a,0x95,0x52,0x01,
 0x55,0xea,0x36,0x54,0x49,0x55,0x55,0xad,0xaa,0xaa,0xaa,0x42,0x12,0x01,0xa8,
 0x4a,0x55,0xa5,0x54,0x29,0x55,0x55,0xa9,0xa4,0xaa,0x00,0xaa,0xaa,0xad,0xa9,
 0x52,0x55,0x55,0x55,0x55,0x55,0x52,0x91,0x0a,0x04,0x53,0x55,0xa5,0xaa,0xaa,
 0xaa,0x4a,0xaa,0xaa,0xaa,0xaa,0x00,0x24,0x55,0x52,0x15,0xa9,0xaa,0xaa,0x6a,
 0x55,0x8a,0xaa,0xaa,0x22,0x00,0x20,0xa9,0x94,0x24,0x25,0xa5,0xaa,0x52,0x55,
 0x55,0x55,0x01,0x55,0x49,0xa5,0x52,0x55,0x55,0x55,0x5b,0xa5,0xaa,0x54,0xaa,
 0x84,0x10,0x54,0x25,0x55,0x55,0x55,0x55,0x55,0x95,0xaa,0xaa,0xaa,0x00,0x95,
 0xaa,0x2a,0xa9,0x94,0x5a,0x55,0xd5,0xba,0x52,0xab,0x12,0x29,0x42,0x80,0x54,
 0x55,0x52,0x49,0x29,0x49,0x55,0x25,0xa9,0x54,0x01,0xaa,0x94,0x54,0xa5,0x52,
 0x55,0x55,0xad,0xa5,0x2a,0xa9,0xaa,0x84,0x00,0xa0,0xaa,0x52,0x95,0xaa,0x4a,
 0x55,0x55,0xaa,0xaa,0xaa,0x00,0x49,0x52,0x92,0x54,0x4a,0x52,0xab,0x52,0x95,
 0xaa,0x54,0x55,0x21,0x00,0x00,0xa5,0x94,0x4a,0x2a,0x55,0x55,0xaa,0xaa,0x4a,
 0xa5,0x00,0xaa,0x55,0x55,0x95,0xaa,0xaa,0xaa,0xaa,0xaa,0x52,0x4b,0x25,0x95,
 0x24,0x01,0x55,0x55,0x55,0x55,0xa9,0xaa,0x52,0x55,0x55,0x55,0x01,0x55,0x4a,
 0xa5,0x4a,0x25,0x55,0x55,0x15,0x51,0x95,0x54,0x95,0x00,0x00,0x10,0x54,0x4a,
 0x52,0xa5,0x24,0x45,0x95,0xaa,0xaa,0xaa,0x00,0x92,0x54,0x95,0x54,0xaa,0xa4,
 0xaa,0x54,0x26,0x55,0x55,0xa5,0x2a,0x01,0x42,0x4a,0x55,0x55,0xa9,0xaa,0x9a,
 0xaa,0x54,0x55,0x55,0x01,0xaa,0x4a,0x52,0xa5,0x52,0x55,0x2a,0xa5,0x51,0xa5,
 0xaa,0x2a,0x41,0x08,0x08,0x50,0xa9,0xaa,0x54,0x55,0x65,0xa9,0xaa,0xaa,0xaa,
 0x00,0xaa,0xaa,0xaa,0x94,0xa4,0x4a,0x55,0x29,0xa6,0x54,0x55,0x95,0x14,0x01,
 0x20,0x55,0x55,0x49,0xa5,0x4a,0x8a,0xaa,0x92,0x54,0x55,0x01,0x25,0xa5,0x2a,
 0x55,0x55,0x24,0x89,0x54,0x29,0x95,0x94,0x54,0x15,0x00,0x00,0x48,0x92,0xa4,
 0x2a,0xa9,0x6a,0x55,0xaa,0x4a,0xaa,0x00,0xaa,0x54,0x52,0xa9,0x4a,0x55,0xb5,
 0x4a,0x55,0xa9,0xaa,0x2a,0xa2,0x48,0x48,0x52,0x55,0x2b,0x55,0x55,0x95,0xaa,
 0xaa,0xaa,0x55,0x01,0x92,0xaa,0x2a,0x95,0xa4,0x52,0x09,0x25,0x49,0x4a,0x55,
 0x55,0x09,0x02,0x00,0xa8,0xaa,0x54,0x49,0x4a,0x52,0x49,0x55,0x55,0xa9,0x00,
 0xaa,0x24,0xa5,0x52,0x95,0x4a,0x6a,0xaa,0x92,0x52,0x55,0x55,0x05,0xa8,0x80,
 0x92,0x52,0x55,0x55,0xa9,0xaa,0xaa,0xaa,0xaa,0xaa,0x00,0xa9,0xaa,0xaa,0x94,
 0x52,0xa9,0x92,0x92,0x54,0x55,0x55,0x55,0xa9,0x4a,0x0a,0x48,0x2a,0x49,0x2a,
 0x55,0x29,0x55,0x52,0x55,0x55,0x01,0x4a,0x55,0x4a,0x55,0x2a,0x95,0x54,0x55,
 0x95,0xa4,0xaa,0xaa,0x92,0xa8,0x00,0x50,0xa5,0xaa,0x52,0xa5,0xaa,0xaa,0xaa,
 0xaa,0xaa,0x00,0xa5,0x88,0x52,0x4a,0x49,0x49,0x95,0x48,0x4a,0x2a,0x55,0x55,
 0x2b,0x55,0x55,0x44,0x55,0x2a,0x95,0x2a,0x95,0x52,0x55,0x92,0xaa,0x00,0x2a,
 0x53,0x55,0xa9,0x2a,0x55,0x52,0x55,0xa9,0xd2,0xaa,0xda,0x4a,0x2a,0x05,0xa8,
 0x54,0x55,0x55,0xa9,0xaa,0xaa,0x4a,0x55,0x55,0x01,0x95,0xaa,0x94,0x4a,0xa4,
 0x24,0x49,0x92,0x54,0x55,0x4a,0xb5,0x2a,0x55,0xa5,0x40,0x4a,0x92,0xa4,0x94,
 0x52,0x2a,0xa9,0xaa,0xaa,0x00,0x52,0x4a,0xa5,0x54,0x2b,0x55,0x55,0x55,0x25,
 0xa9,0xb2,0xd6,0x55,0xa9,0x12,0x94,0x52,0x55,0x55,0xab,0xaa,0xaa,0xaa,0xaa,
 0xaa,0x00,0xaa,0x52,0x52,0xa5,0xa8,0x4a,0x2a,0x49,0x92,0x54,0xad,0x2d,0xa5,
 0x4a,0x01,0x40,0x55,0xaa,0x92,0x54,0x55,0xa5,0xaa,0xaa,0x4a,0x01,0x4a,0x55,
 0x95,0x2a,0x53,0x52,0x49,0x55,0x55,0xa5,0x52,0xdb,0x2a,0x55,0x02,0x20,0x55,
 0x25,0x55,0x29,0xa9,0xaa,0xaa,0xaa,0xb4,0x00,0x29,0x29,0x49,0xa9,0x28,0x29,
 0x55,0x92,0x54,0x95,0x7a,0xa5,0xda,0x2a,0xa0,0x4a,0x25,0x95,0xaa,0x4a,0x95,
 0x54,0xa5,0x94,0x4a,0x01,0xaa,0x52,0x55,0x4a,0x4b,0x55,0x92,0xa4,0x92,0x54,
 0xd5,0xaa,0x56,0x55,0x40,0x90,0x54,0x69,0x4a,0x55,0x55,0x95,0x5a,0x55,0x55,
 0x00,0x49,0x95,0x2a,0xa5,0xa4,0x92,0x4a,0x55,0x4a,0xaa,0x2e,0xaa,0xaa,0x14,
 0xaa,0x56,0x95,0x2a,0x25,0xa9,0xa4,0x52,0x25,0x55,0x55,0x01,0x2a,0x55,0x52,
 0x55,0x95,0xa4,0x54,0x95,0xaa,0xaa,0x55,0x55,0x55,0xab,0x28,0x49,0xaa,0x54,
 0x59,0x55,0x55,0x55,0xaa,0xaa,0xaa,0x00,0xaa,0x92,0x4a,0x52,0x52,0x55,0x25,
 0x49,0x25,0xd5,0x92,0xa4,0xb6,0x04,0x4a,0x10,0xa5,0x4a,0x45,0x25,0x55,0x55,
 0x55,0x55,0x55,0x01,0x52,0xaa,0x54,0x95,0x2a,0x49,0xaa,0x2a,0xa9,0xaa,0x2a,
 0x55,0xd5,0x2a,0x28,0xa5,0x2a,0x55,0x5a,0xaa,0x2a,0x55,0x55,0x55,0x55,0x01,
 0x95,0x52,0x52,0x49,0x95,0xaa,0x92,0xa4,0xaa,0x5a,0xa5,0xaa,0x5a,0x45,0x85,
 0x10,0x91,0x4a,0xa5,0x52,0x49,0xa9,0xaa,0xaa,0xaa,0x00,0xaa,0x4a,0x95,0xaa,
 0xa4,0x24,0x55,0x55,0x52,0x2b,0xa9,0x54,0x55,0x89,0x2a,0xa5,0x56,0xa9,0x4a,
 0x95,0xaa,0x4a,0x55,0xa9,0xaa,0x00,0x49,0xa9,0xaa,0x54,0x52,0x95,0x24,0x29,
 0x95,0x54,0x95,0xaa,0x56,0x55,0x92,0x50,0xa9,0x24,0xa9,0x54,0x55,0x55,0x2a,
 0x55,0x55,0x01,0x2a,0x95,0xa4,0x92,0x2a,0xa9,0x4a,0x52,0xa5,0x52,0x55,0x55,
 0xb5,0x52,0x25,0x25,0x25,0xab,0x2a,0xa5,0x24,0x55,0x55,0x55,0x55,0x01,0x55,
 0xa5,0x52,0x4a,0x95,0x4a,0xa9,0x8a,0x52,0xa9,0xaa,0x6a,0xdb,0x55,0x49,0x54,
 0xaa,0x54,0xa5,0xaa,0xaa,0xaa,0xaa,0xaa,0xaa,0x00,0x92,0x2a,0x95,0xaa,0xa4,
 0x94,0x52,0x55,0x4a,0x4a,0x55,0xd5,0x6a,0xab,0x22,0x95,0x54,0x29,0x55,0x95,
 0xaa,0x52,0xa9,0xaa,0xaa,0x00,0x54,0x49,0xa9,0xa4,0x52,0x52,0x49,0x52,0x29,
 0x55,0xaa,0x5a,0xfd,0x57,0x01,0xa5,0x4a,0x4a,0x49,0x52,0x95,0xaa,0x4a,0x55,
 0x55,0x01,0xa5,0xaa,0x4a,0x95,0xaa,0x4a,0xaa,0xa4,0xaa,0x52,0x55,0x6a,0xfb,
 0xaf,0x54,0x4a,0x52,0x55,0x55,0x55,0xaa,0xaa,0xaa,0x4a,0x55,0x01,0x54,0x92,
 0x54,0xa9,0x14,0x29,0x25,0x55,0x44,0xaa,0x2a,0xb5,0xff,0x57,0x00,0x91,0xaa,
 0x52,0xaa,0xaa,0x52,0x29,0x55,0xa9,0xa4,0x00,0x95,0xaa,0x92,0x92,0x52,0x55,
 0xa9,0xa4,0xaa,0xaa,0x4a,0xdb,0xfe,0xad,0x52,0x4a,0x4a,0x55,0x49,0x49,0x95,
 0xaa,0xaa,0xaa,0x5a,0x01,0x4a,0x95,0x54,0x54,0x4a,0x89,0x94,0x12,0x95,0x24,
 0x55,0xfd,0xff,0x17,0x00,0x44,0x29,0x29,0x55,0xaa,0x54,0x55,0x55,0x55,0xa5,
 0x00,0x52,0x52,0xa9,0xaa,0x52,0xaa,0x2a,0x55,0x52,0xa9,0xaa,0xea,0xef,0x47,
 0x48,0x29,0x55,0xa5,0xaa,0x52,0x55,0xa5,0xaa,0xaa,0x5a,0x01,0x55,0xa9,0x94,
 0x12,0xa9,0x52,0x92,0x4a,0x29,0x55,0x55,0xff,0x7f,0x29,0x02,0x92,0xa4,0xaa,
 0x52,0x55,0xa5,0x54,0x25,0x55,0xa5,0x00,0xa4,0x4a,0xa5,0xaa,0x4a,0xa5,0xaa,
 0x54,0xa5,0xaa,0xaa,0xfe,0xff,0x47,0xa8,0x54,0x55,0x4a,0x4a,0x2a,0x55,0x55,
 0x55,0xa9,0xaa,0x00,0x2a,0x29,0x29,0x49,0x25,0x92,0x44,0x22,0x29,0x51,0xf5,
 0xff,0x5b,0x19,0x01,0x25,0x92,0x52,0x55,0xa5,0x92,0xaa,0x54,0x55,0x55,0x01,
 0x49,0x55,0x55,0x52,0xaa,0x54,0xa9,0x4a,0x4a,0xa6,0xee,0xef,0xfe,0x4a,0x54,
 0x48,0x55,0x55,0x55,0x55,0x55,0x95,0xaa,0xaa,0xaa,0x00,0x54,0x4a,0x4a,0x95,
 0x92,0x4a,0x2a,0xa9,0x52,0xa9,0xbf,0xbf,0x55,0x15,0x02,0x25,0xa9,0x54,0xa2,
 0x54,0xaa,0x52,0x55,0x55,0x55,0x01,0xa5,0x52,0xa9,0xaa,0x54,0x95,0x52,0x2a,
 0x95,0x6a,0xfd,0x7d,0xab,0x45,0x54,0x4a,0x4a,0xa5,0x5a,0x55,0x55,0x55,0x55,
 0x55,0x55,0x01,0xaa,0x94,0x24,0x49,0x4a,0xa2,0x24,0x45,0x49,0x51,0xfb,0x6f,
 0x55,0xb5,0x02,0x21,0x29,0x55,0x45,0x92,0x4a,0xaa,0xaa,0xaa,0xaa,0x00,0x92,
 0xaa,0xaa,0xaa,0x52,0x55,0x55,0xa9,0x2a,0x55,0xfd,0xbf,0x55,0x95,0x54,0x4a,
 0xaa,0x4a,0x55,0x55,0xa9,0x2a,0x95,0x54,0x55,0x01,0xa9,0x44,0x49,0x92,0x94,
 0x28,0x49,0x2a,0x52,0xea,0xdf,0xee,0xb6,0x2a,0x21,0x01,0x91,0xa4,0x54,0x55,
 0x55,0xa5,0x52,0xab,0xaa,0x00,0x4a,0x99,0xaa,0x2a,0xa5,0x4a,0x92,0x52,0xa5,
 0xba,0xff,0x5f,0xad,0x0a,0x44,0xaa,0x54,0x55,0x55,0x2a,0x95,0xaa,0xaa,0x54,
 0x55,0x01,0xaa,0x4a,0x92,0x44,0x29,0xa5,0xaa,0x94,0x52,0xfd,0x2b,0xa9,0x52,
 0xa5,0x92,0x00,0xaa,0x2a,0x49,0x95,0x52,0xa9,0xaa,0xaa,0xaa,0x00,0x92,0xb2,
 0x24,0x99,0x52,0x2a,0x25,0x25,0x95,0xf6,0xdf,0x56,0x55,0x15,0x24,0xaa,0x24,
 0xa5,0xaa,0x54,0x55,0x55,0x55,0xa5,0x54,0x01,0x49,0x0a,0x55,0xa5,0x94,0x92,
 0x52,0xa9,0xa4,0xfa,0x22,0x29,0xa0,0x4a,0x89,0x80,0x92,0x52,0x55,0xa5,0xaa,
 0xaa,0x54,0x55,0xab,0x00,0xaa,0xb4,0xaa,0x4a,0xa5,0x54,0x4a,0x4a,0xa9,0xf5,
 0x5d,0xa5,0x56,0x29,0x20,0x12,0xa9,0x2c,0x29,0x55,0x25,0x95,0xaa,0xaa,0x54,
 0x01,0x95,0x4a,0x21,0x52,0x52,0x4a,0xa5,0x52,0xaa,0x54,0x82,0x48,0x54,0x85,
 0x84,0x80,0x84,0x92,0xaa,0xaa,0x54,0x55,0x55,0xaa,0xaa,0x00,0xa4,0x24,0x55,
 0xa5,0x94,0x92,0x94,0xa4,0x52,0xd5,0x2a,0x25,0xa9,0x2a,0x10,0x52,0xa9,0xaa,
 0x52,0x55,0x55,0xa9,0xaa,0xaa,0xaa,0x00,0x52,0xaa,0x4a,0x92,0x4a,0x55,0x4a,
 0x55,0xac,0x2a,0x90,0x92,0x54,0x05,0x04,0x00,0x52,0xa9,0xaa,0x92,0xaa,0x4a,
 0x55,0x55,0x55,0x01,0x95,0x92,0x54,0x55,0x52,0x52,0x29,0x89,0xa9,0x4a,0xa5,
 0x54,0xa9,0xaa,0x90,0xa8,0x48,0x56,0x4a,0xaa,0xaa,0xaa,0xaa,0xaa,0xaa,0x00,
 0xa4,0x54,0x92,0x24,0x29,0x95,0x94,0x6a,0x24,0x11,0x00,0x44,0xa4,0x12,0x00,
 0x00,0x52,0x49,0x55,0x55,0x49,0x55,0x49,0x55,0x55,0x01,0xa9,0x52,0x55,0xa9,
 0x4a,0x29,0xa5,0xa4,0x4a,0x42,0xa2,0xaa,0xaa,0x4a,0x42,0xa4,0x54,0x55,0xa9,
 0x2a,0x55,0x55,0x55,0xaa,0xaa,0x00,0x14,0x95,0x92,0x24,0x55,0x92,0x52,0x2a,
 0x15,0x00,0x91,0x24,0x45,0x85,0x10,0x00,0x55,0x2a,0x55,0x49,0x55,0xaa,0xaa,
 0x4a,0x55,0x01,0x65,0x2a,0xa5,0xaa,0xa4,0xaa,0x94,0x52,0x25,0x00,0x2a,0xa9,
 0x54,0x15,0x84,0xa8,0x54,0x55,0x95,0x56,0x55,0x55,0x55,0x55,0x55,0x01,0x94,
 0x92,0x54,0x4a,0x92,0x24,0xa5,0x94,0x00,0xfa,0xd5,0xae,0xaa,0x22,0x00,0x00,
 0x55,0xa5,0x52,0x51,0xa5,0x92,0xaa,0xaa,0xaa,0x00,0xa9,0xa4,0x4a,0xa9,0x2a,
 0x49,0x2a,0x29,0x01,0x25,0x55,0xa9,0x92,0x8c,0x00,0x40,0x55,0x55,0x55,0xad,
 0xaa,0xaa,0xaa,0xaa,0xaa,0x00,0x4a,0xaa,0xa4,0x14,0x49,0x55,0xa5,0x0a,0x80,
 0x90,0xaa,0x56,0xad,0x22,0x90,0xaa,0x94,0x54,0xaa,0x4a,0x29,0x55,0x52,0x55,
 0x55,0x01,0xaa,0x4a,0x29,0x65,0x52,0x92,0x54,0x25,0x20,0xca,0xb6,0x6d,0x55,
 0x05,0x40,0x24,0xab,0x4a,0x25,0x55,0xaa,0xaa,0xaa,0x54,0x55,0x01,0x92,0x24,
 0x95,0x92,0x2a,0x55,0x22,0x01,0x00,0x00,0x88,0xb4,0x56,0xf5,0xff,0xdf,0x49,
 0x52,0xa9,0x52,0x55,0x55,0x55,0x55,0xaa,0x00,0xaa,0xaa,0xa4,0x54,0x52,0x92,
 0xaa,0x02,0x00,0x00,0x70,0xd5,0xad,0xca,0xff,0xbb,0xaa,0x2a,0x55,0x55,0xa5,
 0x52,0x95,0xaa,0xaa,0x00,0x25,0x49,0x52,0x25,0x29,0x49,0x15,0x00,0xa4,0xaa,
 0x4a,0x2a,0x52,0xb5,0xfe,0x57,0x25,0x95,0x4a,0x2a,0x55,0xaa,0xaa,0xaa,0x52,
 0x01,0x4a,0x95,0x4a,0x4a,0x45,0x55,0x2a,0x00,0x90,0xaa,0xaa,0x52,0x55,0x6d,
 0xef,0x5e,0x55,0x52,0xa9,0x52,0xa9,0x4a,0x55,0x55,0xad,0x00,0xa9,0xa4,0xaa,
 0x52,0xaa,0xaa,0x02,0x00,0x00,0xaa,0x55,0xad,0xaa,0xaa,0xba,0xaf,0x92,0xaa,
 0xa4,0x4a,0x55,0x55,0xa9,0xaa,0x4a,0x01,0x52,0x29,0x49,0xaa,0x94,0xa4,0x00,
 0x00,0xa4,0x6a,0xad,0x6a,0x55,0xd5,0xf6,0xb5,0x54,0xa5,0xaa,0xaa,0xaa,0xaa,
 0xaa,0xaa,0xaa,0x00,0x29,0xaa,0x24,0x91,0x4a,0x2a,0x01,0x00,0x91,0x54,0x55,
 0x95,0x4a,0xb5,0x5d,0x5b,0xab,0x28,0x55,0x54,0x25,0xa9,0xaa,0xaa,0xaa,0x00,
 0xca,0x52,0x55,0x55,0x52,0x49,0x00,0x00,0x4a,0xa9,0x6a,0x55,0x55,0x6b,0xfb,
 0x56,0x4a,0xab,0xa4,0x95,0xaa,0x56,0x55,0x55,0x55,0x01,0x95,0x14,0x92,0x24,
 0xa9,0x2a,0x00,0x40,0xa1,0x56,0x55,0x55,0xb5,0xdd,0x56,0xab,0x55,0x92,0x2a,
 0xa9,0x54,0x91,0x2a,0xa5,0xaa,0x00,0x24,0x65,0x55,0x49,0x25,0x15,0x00,0x10,
 0x5a,0xa9,0xaa,0xaa,0x6a,0xfb,0xfb,0x56,0x55,0x55,0x55,0xaa,0xaa,0x56,0x55,
 0x55,0x55,0x01,0xaa,0x12,0x49,0xaa,0x52,0x02,0x00,0xca,0xaa,0x56,0x55,0x6d,
 0x5b,0xad,0xae,0xaa,0x2a,0xa9,0xa2,0x4a,0x95,0x52,0xaa,0xaa,0xaa,0x00,0xa9,
 0x54,0x55,0x95,0x94,0x0a,0x80,0x28,0x55,0x55,0xd5,0xda,0x56,0xfb,0x7f,0xab,
 0xaa,0x92,0xac,0xaa,0xaa,0xaa,0x55,0x55,0x55,0x01,0x44,0xaa,0x92,0x44,0xa5,
 0x02,0x20,0xc2,0xaa,0xaa,0xb6,0x2a,0xa9,0xad,0xaa,0x55,0x55,0x55,0x92,0xa4,
 0xa4,0xaa,0xa4,0xaa,0xaa,0x00,0x55,0x49,0xaa,0x2a,0x95,0x04,0x04,0x94,0xaa,
 0x5a,0x55,0xab,0xaa,0xf6,0x6f,0xaa,0xaa,0xaa,0x55,0x55,0x55,0xaa,0xaa,0xaa,
 0xaa,0x00,0x29,0xa5,0x44,0xa4,0x52,0x01,0xa0,0x55,0x24,0xa5,0xaa,0x54,0x55,
 0x5b,0xb5,0x56,0x55,0x49,0xa8,0x2a,0x55,0x55,0x55,0x55,0x55,0x01,0x52,0x95,
 0xaa,0x2a,0xa5,0x40,0xa8,0xaa,0x4a,0xaa,0xaa,0xaa,0x6a,0xed,0xae,0xb5,0xaa,
 0xaa,0x95,0xaa,0xaa,0xaa,0xaa,0xaa,0xaa,0x00,0x95,0xa4,0x24,0x49,0x51,0x02,
 0x05,0x50,0x55,0xa5,0xaa,0xaa,0xaa,0x2a,0xa9,0xaa,0xaa,0x2a,0xa5,0x52,0xa5,
 0x4a,0xa5,0x4a,0x55,0x01,0x2a,0x49,0xa9,0x52,0xa6,0x48,0x12,0x55,0xa9,0xaa,
 0x4a,0x55,0x55,0xb5,0xab,0xaa,0xaa,0x54,0xaa,0xaa,0xaa,0x54,0x55,0x55,0x55,
 0x01,0x91,0x2a,0x4a,0x2a,0x95,0x02,0x40,0x80,0xb6,0x2a,0xa9,0xaa,0xaa,0xd6,
 0xb4,0xaa,0xaa,0x4a,0x95,0x94,0x54,0x55,0xaa,0xaa,0xaa,0x00,0x2a,0xa9,0x92,
 0x52,0x52,0x08,0x02,0x95,0x5a,0x55,0x55,0x55,0xa5,0x2a,0xab,0x55,0x55,0xa9,
 0x52,0x55,0x95,0xaa,0xaa,0xaa,0xaa,0x00,0xa4,0x94,0x54,0x49,0x29,0xa5,0xfa,
 0x2a,0xa4,0xb7,0x56,0x55,0x52,0x55,0x55,0x55,0x55,0x2a,0xa9,0xaa,0x52,0x55,
 0x55,0x55,0x55,0x01,0x55,0xa5,0x52,0x2a,0xa5,0x94,0x8a,0x4a,0x75,0x6d,0x55,
 0x55,0x55,0x6d,0x55,0xad,0xaa,0x52,0x55,0x52,0x55,0x52,0xa5,0xaa,0xaa,0x00,
 0x22,0x52,0x2a,0x95,0x54,0x02,0xa8,0xaa,0x4a,0x55,0xab,0x92,0x88,0xaa,0xda,
 0xaa,0x55,0x95,0x92,0xaa,0xaa,0x2a,0x55,0x55,0x55,0x01,0xaa,0x4a,0x49,0xa9,
 0x92,0x2c,0x55,0x55,0x55,0x6d,0x6d,0x55,0xb5,0xaa,0x55,0x55,0x95,0x54,0x55,
 0x95,0xaa,0xaa,0xaa,0xaa,0xaa,0x00,0x49,0x29,0xa5,0x24,0x49,0x52,0x80,0xb4,
 0xaa,0x92,0x52,0x92,0x44,0x55,0x55,0xab,0xaa,0x4a,0xaa,0x52,0x49,0x55,0x55,
 0x55,0x55,0x01,0x2a,0x55,0x55,0x55,0xaa,0x24,0x20,0xd5,0x56,0x6d,0x4d,0x25,
 0x55,0xb5,0xaa,0x56,0x55,0x55,0x49,0x55,0x56,0xa5,0xaa,0xaa,0xaa,0x00,0x92,
 0x84,0x28,0x92,0x4a,0xaa,0x55,0x49,0x55,0x95,0xa2,0xa8,0x92,0x54,0xad,0x59,
 0x55,0x52,0x55,0xaa,0xa9,0x54,0x95,0x54,0x55,0x01,0xaa,0xaa,0x52,0xa5,0x94,
 0x54,0xa0,0xb4,0xb7,0xaa,0x2a,0x55,0x2a,0xd5,0x6a,0xa7,0xaa,0x4a,0x55,0x49,
 0xaa,0xaa,0x6a,0x55,0x55,0x01,0x44,0x52,0x2a,0x29,0x49,0x45,0x0b,0xaa,0x58,
 0x49,0x48,0x25,0x49,0x55,0xab,0x58,0x55,0xa9,0xa4,0xaa,0x4a,0x55,0x95,0xaa,
 0xaa,0x00,0x99,0xaa,0x52,0x55,0x95,0x54,0x42,0x55,0x57,0x55,0x2b,0x49,0x95,
 0xaa,0xaa,0xab,0xaa,0x2a,0x95,0xaa,0xaa,0xaa,0xaa,0xaa,0xaa,0x00,0x44,0x12,
 0x89,0x24,0x52,0xa9,0x1a,0xa0,0x50,0xa5,0x90,0xaa,0x52,0x51,0x55,0x55,0xa9,
 0xaa,0x52,0x55,0x55,0x4a,0x55,0x55,0x55,0x01,0xb5,0xaa,0x2a,0xc9,0x24,0x25,
 0x25,0x90,0xa6,0x4a,0xab,0x24,0x25,0x55,0xad,0x56,0x55,0x55,0x55,0xaa,0xaa,
 0x55,0xaa,0xaa,0xaa,0x00,0x49,0x92,0xa4,0x2a,0x95,0x54,0x55,0x01,0x50,0xa9,
 0x48,0x95,0x94,0x54,0xb5,0xaa,0x2a,0x80,0xaa,0x92,0x54,0x54,0x55,0x55,0x55,
 0x01,0x92,0x54,0x29,0xa5,0x28,0x49,0x2a,0x00,0x28,0x95,0x2a,0xa9,0xaa,0xaa,
 0xaa,0x55,0x15,0x50,0x55,0xad,0xaa,0x55,0x55,0x55,0x55,0x01,0x54,0xa5,0x94,
 0x52,0x4a,0x55,0x49,0x0b,0x56,0x49,0xa5,0x94,0x44,0x45,0x55,0xad,0x55,0x00,
 0xaa,0x52,0x55,0xaa,0xaa,0xaa,0xaa,0x00,0x29,0x29,0xa5,0xa4,0x92,0x94,0xaa,
 0x20,0xa9,0x52,0xaa,0x2a,0x55,0xaa,0x6d,0x6b,0x2d,0x00,0x54,0xad,0xaa,0x55,
 0x55,0x55,0x55,0x01,0x45,0x95,0x52,0x95,0x54,0x4a,0x55,0x5d,0x80,0x94,0x12,
 0x45,0x29,0x55,0xaa,0x54,0x55,0x05,0xa0,0x4a,0x55,0xaa,0xaa,0xaa,0xaa,0x00,
 0x2a,0xa9,0x94,0x24,0xa5,0x54,0xaa,0x02,0x50,0x55,0x6a,0xaa,0x52,0xa9,0xd5,
 0xab,0xaa,0x02,0x60,0x55,0xa5,0xaa,0xaa,0xaa,0x56,0x01,0xa4,0x4a,0x4a,0x52,
 0x49,0x4a,0x45,0xda,0x8a,0xa4,0x12,0x91,0x94,0x4a,0xaa,0x54,0x55,0x01,0x00,
 0xaa,0x5a,0x55,0x55,0x55,0x55,0x01,0x29,0x95,0x52,0xa5,0xaa,0x54,0x59,0x25,
 0x29,0x95,0xd4,0x56,0xa5,0x94,0x5a,0xb7,0xaa,0x02,0x44,0x55,0xa5,0xaa,0xaa,
 0xaa,0xaa,0x00,0x94,0xa2,0x94,0x14,0x11,0x89,0x24,0x55,0xa5,0x48,0x25,0x49,
 0x52,0x52,0x65,0xa9,0x6d,0x40,0x03,0x28,0x55,0x55,0x55,0x55,0x55,0x01,0xa5,
 0x54,0x29,0xa9,0xaa,0x32,0xab,0x4a,0x2a,0x55,0x4a,0xaa,0x54,0x95,0x5a,0x57,
 0x95,0x88,0x04,0xaa,0xaa,0xaa,0xaa,0xaa,0xaa,0x00,0x54,0x95,0x44,0x25,0x49,
 0xaa,0xa4,0x52,0x49,0x25,0xa9,0x92,0x4a,0x55,0x54,0xa9,0x2a,0x6a,0x81,0x50,
 0xa9,0x54,0x55,0x55,0x55,0x01,0x49,0x52,0x95,0x94,0x92,0xa4,0x2a,0x55,0x95,
 0x54,0x55,0x25,0x55,0xaa,0xd2,0xb6,0x4a,0xb5,0x10,0xa8,0xaa,0xaa,0xaa,0xaa,
 0xaa,0x00,0x2a,0x29,0x49,0x49,0xa9,0x92,0xa4,0xaa,0x54,0x25,0x89,0xa8,0x22,
 0x11,0xa9,0xaa,0x52,0x2d,0x40,0x81,0x4a,0x95,0xaa,0xaa,0x6a,0x01,0x52,0x45,
 0x52,0x92,0x4a,0xaa,0x2a,0x49,0xa5,0x4a,0x55,0x55,0xaa,0xaa,0xaa,0xaa,0x4a,
 0x55,0x04,0x50,0xb5,0x6a,0x55,0x55,0xad,0x00,0xa9,0xaa,0x2a,0x55,0x24,0x29,
 0x95,0x52,0x2a,0x51,0x22,0x09,0x49,0x49,0x4a,0x57,0xb5,0x0b,0x20,0x80,0x4a,
 0x95,0xaa,0xaa,0x55,0x01,0x4a,0x52,0x55,0xa9,0x4a,0x52,0xa9,0x4a,0x55,0x95,
 0x94,0xb2,0x2a,0x55,0xa9,0x6c,0x6d,0x15,0x10,0xa1,0xaa,0xaa,0xaa,0x5a,0x55,
 0x01,0x55,0x55,0x92,0x4a,0xaa,0x8a,0xaa,0xa4,0xa4,0x54,0x55,0x4a,0x92,0x92,
 0x54,0x5b,0xb7,0x82,0x44,0x04,0x54,0x55,0x55,0xa5,0xaa,0x00,0xaa,0xaa,0xaa,
 0x52,0x49,0xaa,0x4a,0x29,0x95,0x52,0x49,0x95,0xaa,0xa4,0xa2,0xea,0x5a,0x29,
 0x12,0x10,0x55,0x55,0x55,0x55,0x55,0x01,0x41,0x04,0x01,0x24,0x24,0x21,0x51,
 0x95,0x52,0x09,0x92,0x20,0x11,0x52,0x14,0x5a,0x2d,0xa8,0x09,0x02,0x50,0x92,
 0xa4,0xaa,0xaa,0x00,0x2a,0xa9,0xac,0x92,0x4a,0xaa,0x96,0xaa,0xaa,0x52,0x25,
 0x55,0xaa,0xa4,0xaa,0xea,0xab,0xaa,0xaa,0x08,0xa8,0xaa,0xaa,0x2a,0x55,0x01,
 0xdd,0x77,0xeb,0xed,0x5b,0x49,0xa8,0x92,0x24,0xed,0xda,0xae,0xad,0x5b,0xab,
 0xad,0x54,0x55,0x02,0xa0,0xc0,0x77,0xdb,0xda,0x6b,0x01,0x6b,0xaa,0x5d,0x5b,
 0x2d,0x52,0x2b,0x55,0xa9,0x5e,0xb7,0x75,0x5b,0xad,0x5a,0x55,0xab,0xaa,0x55,
 0x05,0x50,0xad,0xad,0xb7,0xde,0x00,0xfe,0xff,0xf7,0xfe,0xff,0x88,0x84,0x4a,
 0xaa,0xea,0xda,0xae,0xed,0xf7,0xef,0xaf,0xaa,0x56,0x80,0x40,0x85,0xfe,0xff,
 0xed,0xf7,0x01,0xab,0x6d,0xdf,0xdb,0x3e,0x55,0x5a,0xa9,0x52,0xdd,0xb7,0x75,
 0x5b,0xad,0xba,0x5a,0x55,0xad,0x55,0x0a,0x80,0xad,0x6a,0xbf,0xde,0x01,0xff,
 0xfb,0xff,0xff,0x6f,0x82,0x42,0x55,0x2a,0xb5,0xda,0xae,0x6d,0xdb,0xad,0xef,
 0xaa,0x55,0x2a,0xa5,0x02,0xfa,0xdf,0xf7,0x75,0x01,0x5d,0x6f,0xbb,0x6d,0xbb,
 0x54,0x34,0x89,0xaa,0x6a,0x6b,0xdb,0xb6,0x6d,0x77,0x5d,0xad,0xaa,0x55,0x11,
 0x01,0x7c,0x7f,0xdf,0xdf,0x01,0xf7,0xfb,0xee,0xdf,0x6f,0x80,0x8a,0xaa,0x42,
 0xbd,0xdd,0xb6,0x6d,0xdb,0xba,0xb7,0xd5,0xb6,0x14,0x48,0x00,0xd0,0xf7,0xf7,
 0xf6,0x01,0xdd,0xae,0x7f,0x7b,0x3d,0x55,0x52,0x55,0x55,0xd5,0x76,0x7b,0xb7,
 0x6d,0xd7,0xda,0x5a,0x55,0x53,0x25,0x12,0xea,0xbf,0xbd,0x5f,0x01,0xb7,0xfb,
 0xdb,0xff,0x5f,0x92,0xa4,0x52,0x92,0xfa,0xdf,0xdf,0x7b,0xff,0xbd,0xf7,0xaf,
 0xaa,0x08,0x92,0x44,0xe0,0xf7,0xff,0xf7,0x01,0xfd,0xde,0xff,0xee,0xbf,0x24,
 0x49,0xaa,0x2a,0xb5,0xba,0x6a,0xed,0xd5,0xeb,0x5e,0x55,0x55,0x65,0x49,0x10,
 0xa0,0x7f,0x77,0xbd,0x01,0x02,0x20,0x00,0x00,0x40,0x92,0x54,0xa9,0xca,0x0a,
 0x85,0x94,0x2a,0x2a,0x2a,0xa9,0x6a,0xab,0x5a,0x25,0x05,0x80,0xda,0xdd,0xef,
 0x01,0x54,0x95,0xaa,0xaa,0x92,0xa4,0xa2,0x56,0x55,0x55,0xaa,0xaa,0xaa,0xd5,
 0xda,0x76,0xab,0xb6,0x55,0x49,0x54,0x82,0x7f,0x77,0x5b,0x01,0xaa,0x4a,0x52,
 0x55,0x4a,0x12,0x14,0x21,0x29,0x55,0x21,0x42,0x00,0x10,0x01,0x80,0x50,0xdb,
 0xaa,0x56,0x03,0x00,0xa4,0xaa,0x6a,0x01,0x49,0x52,0xa5,0x94,0x94,0x4a,0xa9,
 0xaa,0x4a,0x25,0x55,0x55,0x5b,0x4b,0xaa,0x55,0xa5,0x55,0xb7,0x5a,0x29,0x01,
 0xd8,0xb6,0xdd,0x00,0x94,0x94,0x10,0x42,0x25,0xa1,0x44,0x54,0x55,0x55,0x12,
 0x91,0xa4,0xa4,0xaa,0x54,0x2a,0xb5,0x59,0x55,0x55,0x12,0xa0,0x5a,0x55,0x01,
 0x29,0x49,0x55,0x95,0x54,0x0a,0x89,0x2a,0x55,0xa5,0xa4,0x2a,0x49,0x55,0x92,
 0xaa,0x52,0x6d,0xd7,0x56,0x95,0x08,0x74,0x6b,0xab,0x00,0x44,0x2a,0x4a,0x51,
 0x89,0x54,0x22,0xa5,0xaa,0x14,0x49,0x84,0x24,0x22,0x25,0x11,0x49,0x52,0xb5,
 0x6a,0x6b,0xa5,0x00,0x55,0xb5,0x01,0xa9,0x54,0x29,0x25,0x55,0x49,0x94,0x54,
 0xa9,0x4a,0x92,0x28,0x55,0x55,0xaa,0x6a,0xaa,0xda,0x6a,0x55,0x55,0x05,0xc0,
 0xaa,0x56,0x01,0x4a,0xa2,0x94,0xaa,0x52,0x24,0x21,0x49,0xaa,0xaa,0xaa,0x56,
 0x55,0x55,0x55,0x55,0x55,0xaa,0xb6,0xb6,0xad,0x6a,0x05,0xda,0xaa,0x00,0x52,
 0x95,0xaa,0x54,0x4a,0x55,0x85,0x54,0x55,0x95,0x54,0xa9,0xaa,0x94,0x54,0xa5,
 0x4a,0xd5,0x6a,0xab,0xda,0x15,0x42,0xab,0x5a,0x01,0x95,0xaa,0x4a,0x95,0x2a,
 0x89,0x50,0x24,0x55,0x49,0x12,0x92,0x10,0xa2,0x92,0x94,0xa4,0x2a,0xbd,0xb5,
 0x55,0xd5,0x91,0xaa,0xaa,0x01,0x54,0x55,0x52,0xa9,0x52,0x52,0x8a,0x4a,0xa5,
 0xaa,0x64,0xa5,0x66,0x55,0x55,0x55,0x55,0xd5,0xaa,0x56,0xab,0x2a,0x42,0xd5,
 0x56,0x00,0x4a,0x92,0x2a,0xa5,0x94,0x24,0x02,0x90,0x54,0x55,0x12,0x29,0x11,
 0x25,0x24,0x49,0x4a,0x22,0xd5,0x6d,0x6d,0xdb,0xda,0x2a,0x55,0x01,0x52,0xa5,
 0x54,0x55,0x55,0x49,0xa9,0xa0,0xaa,0x4a,0xa5,0x54,0xaa,0x54,0x55,0x52,0xa9,
 0x4c,0x35,0xd5,0xaa,0x56,0xb5,0xd5,0xaa,0x00,0xa9,0x52,0x25,0x29,0x49,0x24,
 0x04,0x0a,0x52,0xaa,0x54,0x25,0xa5,0x92,0x92,0x2a,0x95,0x52,0xca,0x6e,0xd5,
 0xaa,0xea,0x2a,0x55,0x01,0x4a,0x4a,0xa9,0x52,0x95,0x52,0xa9,0x50,0x55,0x55,
 0x89,0x54,0x95,0xa4,0xa4,0x54,0xa5,0xaa,0xb4,0x55,0x5b,0x55,0xbd,0x55,0x55,
 0x01,0x25,0x21,0x0a,0x09,0xa9,0x4a,0x55,0x4a,0x92,0x54,0x54,0x92,0x48,0x2a,
 0x55,0x8a,0x52,0x92,0x4a,0xba,0x6d,0xdb,0xee,0xaa,0xaa,0x00,0x94,0x4a,0x51,
 0xaa,0x52,0x2a,0x49,0xa5,0x54,0x95,0xa5,0x4a,0x55,0x55,0x95,0x32,0x55,0xa5,
 0x54,0x6b,0x55,0x55,0xbb,0x2d,0x55,0x01,0xa2,0x54,0xaa,0x44,0x14,0x91,0x24,
 0xa9,0xff,0x7f,0x28,0x51,0x22,0x89,0xa0,0xaa,0x24,0xaa,0x92,0xaa,0x56,0xeb,
 0xef,0xdb,0x92,0x00,0x4a,0x92,0x44,0xa9,0xa2,0xaa,0xaa,0xd2,0x5f,0xad,0x52,
 0xa6,0x4a,0x32,0x2b,0xa5,0x4a,0x49,0x55,0x55,0xb5,0x56,0xbd,0x2e,0x55,0x01,
 0xa4,0xaa,0x32,0x55,0x5a,0x25,0x95,0xfc,0xff,0x7b,0x2a,0x29,0xa9,0xaa,0xaa,
 0xaa,0xaa,0x2a,0x22,0xd0,0xaf,0xfd,0xff,0x5b,0x20,0x00,0x92,0x54,0xa5,0x92,
 0xa2,0x54,0xaa,0xd2,0x7b,0xaf,0x44,0x55,0xaa,0x4a,0x55,0x55,0x55,0x55,0x55,
 0x6b,0x75,0xf5,0x6b,0xbf,0x96,0x00,0x24,0x09,0x52,0x6a,0xad,0xaa,0x52,0x7f,
 0xdd,0x7b,0xbb,0xaa,0xaa,0xaa,0xaa,0xaa,0xaa,0xaa,0x55,0xf5,0xbf,0x3f,0xb4,
 0x05,0xa1,0x00,0x92,0x54,0xa5,0x4a,0x29,0x55,0x55,0xfd,0x6b,0xf7,0xa4,0xaa,
 0x55,0x55,0xd5,0xb6,0x6d,0xad,0xaa,0xfa,0x6f,0xef,0xdb,0xb6,0x94,0x00,0x21,
 0x42,0x10,0x90,0x94,0x92,0xea,0xaf,0xb4,0x5d,0x53,0x55,0x55,0x55,0xb5,0xaa,
 0xb6,0xeb,0xfe,0xef,0xff,0xbf,0x2a,0x09,0x4a,0x00,0x94,0x28,0xa5,0x25,0x25,
 0x55,0xf5,0x5b,0xef,0x76,0x55,0xd5,0xda,0xb6,0x56,0x6d,0x55,0x5d,0x93,0xfa,
 0xff,0xdf,0xaa,0x6a,0xa9,0x00,0x01,0x85,0x28,0xaa,0x52,0x51,0xad,0x54,0x55,
 0xbb,0xa5,0x2a,0x55,0x49,0xa9,0x92,0xaa,0xa2,0x54,0x4a,0xd5,0xb6,0xdd,0x55,
 0x95,0x00,0x54,0x28,0x42,0xa9,0x4a,0x56,0x5b,0x6b,0x6d,0xd7,0xaa,0xda,0x56,
 0x55,0x55,0x55,0x55,0xad,0x55,0xb5,0x7b,0x7f,0xab,0x2a,0x51,0x01,0x02,0x82,
 0x28,0x94,0x54,0xa9,0xa4,0x94,0xaa,0xa8,0x55,0x55,0xa9,0xaa,0xaa,0xaa,0xaa,
 0x52,0x24,0x49,0x4a,0x45,0x49,0x89,0x2a,0x00,0xa8,0x48,0x42,0xa5,0x92,0x56,
 0x95,0x52,0x55,0x77,0xab,0xaa,0x2a,0x55,0x55,0x55,0x55,0xaa,0x55,0x52,0xb5,
 0x5a,0x55,0x2a,0xa5,0x00,0x02,0x12,0x10,0x10,0xa4,0xea,0x56,0x55,0xfb,0xda,
 0x55,0x95,0x94,0x08,0x92,0x24,0xa2,0x2a,0x49,0xad,0x4a,0x55,0x55,0xa5,0x92,
 0x00,0x28,0x40,0x49,0xa5,0x4a,0x5d,0xad,0x6a,0xad,0xb5,0xaa,0xaa,0x52,0xd5,
 0x2a,0xd5,0xaa,0x4a,0x52,0xa9,0xaa,0xaa,0xaa,0x2a,0x54,0x01,0x80,0x12,0x00,
 0x00,0x00,0xa2,0xff,0xff,0x77,0x6f,0xab,0xa4,0x4a,0xa5,0xa4,0x2a,0x29,0x91,
 0x8a,0x94,0xaa,0x54,0x95,0x48,0x09,0x00,0x12,0x48,0x92,0x54,0x29,0x75,0xab,
 0x5a,0xdd,0xba,0x4a,0x55,0xaa,0x94,0x4a,0x51,0x52,0x25,0x29,0xa5,0x24,0x55,
 0xa5,0x92,0x52,0x01,0x49,0x85,0x24,0x00,0x40,0x88,0x48,0x22,0x02,0x01,0x21,
 0x00,0x11,0x25,0x29,0x8a,0x8a,0x54,0x52,0x55,0x92,0x48,0x52,0x4a,0x48,0x00,
 0x22,0x28,0x82,0x2a,0x05,0x55,0x95,0x94,0x54,0xaa,0x94,0x5a,0x4a,0x52,0x4a,
 0x55,0x2a,0x25,0xa5,0x54,0x55,0x55,0x95,0x2a,0x25,0x01,0x08,0x42,0x10,0x00,
 0x50,0x00,0x02,0x01,0x91,0x10,0x41,0x22,0x91,0x08,0x41,0x88,0x44,0x49,0x49,
 0x4a,0x22,0x22,0x24,0x81,0x48,0x00,0x40,0x08,0x41,0x52,0x82,0xaa,0x54,0x54,
 0x4a,0xa2,0x14,0x49,0x4a,0x52,0x2a,0x25,0x29,0x95,0xaa,0x92,0x94,0x54,0xa9,
 0x2c,0x21,0x01,0x12,0x22,0x94,0x84,0x28,0x40,0x08,0x82,0x90,0x2a,0x82,0x90,
 0x90,0x0a,0x81,0x90,0x94,0x52,0x4a,0xa9,0xaa,0x0a,0x15,0x52,0x94,0x00,0x88,
 0x80,0x40,0x12,0x42,0x95,0xa2,0x14,0x25,0x4a,0x29,0x4a,0x4a,0x50,0x14,0x25,
 0xa5,0x54,0x29,0x15,0x21,0x51,0xa9,0x84,0x22,0x01,0x02,0x29,0x12,0x84,0x14,
 0x21,0x48,0x49,0x52,0x51,0x44,0x02,0x11,0x0a,0x49,0xa9,0x52,0x4a,0x4a,0xa2,
 0x48,0x24,0x42,0x52,0x48,0x00,0x28,0x84,0x48,0x10,0x20,0x8a,0x22,0x52,0x49,
 0x25,0x89,0x54,0x44,0x51,0x12,0x45,0x4a,0x55,0xa9,0x94,0x2a,0x49,0x29,0x89,
 0x92,0x00,0x82,0x00,0x00,0x85,0x8a,0x00,0x00,0x89,0x94,0x94,0x22,0x00,0x11,
 0x84,0x84,0x90,0x24,0x91,0x04,0x45,0x84,0x24,0x84,0xa4,0xa4,0x00,0x14,0x52,
 0x12,0x10,0x20,0x52,0xaa,0x54,0x52,0x55,0x94,0x2a,0x44,0x11,0x52,0x4a,0x49,
 0x4a,0xaa,0x28,0x29,0x49,0x29,0x49,0x8a,0x00,0x80,0x00,0x80,0x44,0x09,0x80,
 0x00,0x01,0x04,0x00,0x00,0x00,0x11,0x84,0x00,0x00,0x80,0x10,0x11,0x84,0x44,
 0x22,0x92,0x24,0x51,0x00};
