#define noname_width 176
#define noname_height 230
static char noname_bits[] = {
 0x7f,0xdb,0xf7,0x6d,0xb7,0xf7,0x7b,0xdf,0x77,0x77,0xff,0xdd,0xfb,0xef,0xff,
 0xdd,0xb7,0xf7,0xfd,0x7b,0xbf,0xdd,0xd5,0x76,0xbd,0xde,0xed,0xba,0xd6,0x75,
 0xdd,0xdd,0x55,0xf7,0xae,0x7a,0x55,0xf7,0xfd,0x7d,0xaf,0xde,0xeb,0xf7,0x6f,
 0xdb,0xea,0x75,0xb7,0xd7,0xbb,0xdb,0x7b,0x77,0xff,0xae,0xfd,0xd7,0xff,0xae,
 0x56,0xd7,0xfa,0x75,0xbd,0x5e,0xf5,0x6e,0xbf,0xbe,0xed,0xfa,0xee,0xb6,0xd6,
 0xdd,0xaa,0x7b,0xab,0xfa,0xaa,0xfb,0xfb,0xbb,0x5f,0xbf,0xdf,0xf7,0xdd,0xdd,
 0xd5,0xd5,0x5e,0x57,0x5b,0xff,0xbd,0xeb,0x77,0xed,0x7f,0xaf,0x7f,0x57,0x57,
 0xed,0xea,0xea,0x6a,0xdd,0x6f,0x77,0xbb,0xee,0xeb,0xfb,0xed,0xab,0x6e,0xbd,
 0xba,0x5f,0xd5,0x75,0xd5,0xfa,0xfd,0x7b,0xbf,0x7f,0xff,0xb7,0xb5,0xad,0xed,
 0xb5,0xbe,0x56,0xb7,0xf6,0xb5,0xdb,0xd7,0xfa,0xbd,0xef,0xbb,0xaf,0x56,0xaf,
 0x75,0xd5,0x55,0xfd,0xee,0x76,0xb7,0xde,0xd5,0xed,0xdd,0xbb,0xee,0xf6,0xfa,
 0x57,0xd7,0xba,0xee,0xf5,0xef,0xf5,0xde,0x7f,0xfb,0xaf,0xb5,0xed,0xda,0xb5,
 0xbb,0x5e,0xbb,0xd6,0xbb,0xaf,0x57,0xfd,0x7e,0xf7,0x5d,0xaf,0xba,0xde,0x6b,
 0xd5,0xad,0x7a,0x6f,0x5b,0xef,0xde,0xd6,0xeb,0xd6,0x7b,0x6d,0xf5,0xba,0xab,
 0xd5,0x5d,0xeb,0x75,0xaf,0x77,0xdd,0x7b,0xff,0xd7,0xda,0xb6,0x5a,0xb3,0xbd,
 0xb6,0xad,0xd6,0xb6,0xad,0x6d,0x5d,0x5b,0x6b,0x5d,0xad,0x7a,0xad,0xbb,0xd6,
 0xaa,0xbe,0x6d,0xdb,0xb7,0x6d,0x6b,0xdb,0xf6,0xba,0x6d,0xdb,0xb6,0xeb,0xed,
 0xb6,0xd7,0xee,0xad,0xdb,0xd6,0x6d,0xdb,0xd5,0xdb,0xb6,0x6c,0x5b,0xad,0xad,
 0xad,0xd5,0xb6,0x6d,0xdb,0xae,0xb6,0x6d,0xbd,0x55,0x6b,0xb5,0x6d,0xdb,0xb6,
 0xb6,0x6d,0x5b,0xb7,0xb6,0xf7,0xda,0xb6,0x6e,0xdb,0xb6,0x6d,0x75,0xdb,0xb6,
 0x6b,0xfb,0xda,0xee,0xb6,0xb6,0x6d,0xdb,0xdb,0x76,0xed,0x5a,0xad,0x6b,0x6d,
 0xdb,0xb6,0x6d,0xdb,0xad,0xad,0xed,0xff,0xaf,0xab,0xb5,0xed,0xda,0xb6,0xad,
 0x6d,0xdb,0x56,0xef,0x5a,0x5d,0xb7,0x6d,0xdb,0xb6,0xb5,0xf6,0x76,0xf5,0xbf,
 0x75,0x7d,0x5b,0x5b,0x6f,0xdb,0xf6,0xdb,0xb6,0xdd,0x5a,0xeb,0xea,0x6a,0xab,
 0xb6,0x6a,0xd7,0xaa,0xad,0xff,0xff,0xff,0xa6,0x6d,0xb5,0xda,0xb6,0xad,0x6a,
 0x5b,0x6b,0xad,0x5d,0x5f,0xdb,0xda,0x6d,0x5f,0x75,0x5f,0x6b,0xf5,0xff,0xbf,
 0xdb,0xd6,0xae,0x6b,0xdb,0xb6,0xb7,0x76,0xad,0x75,0x6b,0xb5,0xb6,0x6d,0xdb,
 0xea,0xae,0x75,0xdd,0xff,0xff,0xff,0xb7,0xba,0x75,0xad,0xb6,0x6d,0xad,0xdb,
 0x76,0xdb,0xba,0xd5,0x5b,0x5b,0x6d,0x5b,0x6b,0xd5,0xb6,0xfe,0xff,0xff,0xab,
 0x6d,0xad,0xdb,0x6b,0xdb,0x75,0x55,0xdb,0x56,0xd7,0xae,0xea,0xf6,0xda,0xf6,
 0xb6,0xaf,0xed,0xff,0xff,0xff,0xdf,0xd6,0xb6,0xb6,0xde,0xb6,0xde,0xee,0x6d,
 0xed,0xba,0xf5,0x5d,0x5b,0x6f,0x5b,0x6d,0x75,0x5b,0xff,0xff,0xff,0x6f,0xb5,
 0x6d,0xdb,0x6a,0xab,0x55,0x55,0xd5,0xb5,0x55,0x2b,0xeb,0xd6,0xaa,0xb5,0xb5,
 0xad,0xf6,0xff,0xff,0xff,0xbf,0x5b,0xdb,0x6a,0x5b,0x7d,0xeb,0x7b,0xbb,0xae,
 0xee,0xdd,0xbd,0xba,0x75,0xdd,0x6e,0xdb,0xdd,0xff,0xff,0xff,0xef,0xad,0xad,
 0xbd,0xad,0xab,0x5d,0xad,0x6d,0x75,0xb5,0xb6,0x6a,0x6b,0xaf,0xab,0xd5,0xb6,
 0xf6,0xff,0xff,0xff,0xff,0xb7,0x5a,0xab,0x7a,0x6d,0x6b,0x6b,0xab,0xaf,0x5b,
 0x6b,0xd7,0xb6,0xd5,0xed,0x7a,0xdb,0xfb,0xff,0xff,0xff,0xff,0xaa,0xed,0x6a,
 0xd7,0xb6,0xad,0xad,0x5d,0xb5,0xb6,0xd6,0xba,0xad,0xbe,0x56,0xd7,0xb6,0xfe,
 0xff,0xff,0xff,0xfe,0xbf,0x56,0xd7,0x5a,0xdb,0xf6,0x76,0xeb,0x6d,0xdb,0xbb,
 0x56,0xdb,0x55,0xbb,0xb5,0x5a,0xfb,0xff,0xff,0xff,0xff,0x5f,0xdb,0xba,0xed,
 0xb6,0xad,0xad,0x5d,0xdb,0xb6,0xd6,0xbd,0xb6,0xba,0xd6,0xee,0xed,0xfe,0xff,
 0xff,0xff,0xff,0xff,0xb6,0x6d,0x5b,0xdb,0xb7,0x76,0x6b,0x6d,0xdb,0xba,0xd6,
 0x6b,0xd7,0xbb,0x35,0x5b,0xfb,0xff,0xff,0xff,0xff,0x5f,0xd5,0xb6,0xed,0xb6,
 0x54,0xd5,0xaa,0xaa,0xaa,0xd6,0xaa,0x5a,0x55,0x55,0xab,0x6a,0xff,0xff,0xff,
 0xff,0xff,0xff,0x2d,0x55,0x55,0xad,0xb7,0x55,0x5b,0xb7,0x6d,0xab,0xb6,0xd6,
 0x76,0xad,0xd5,0xad,0xfd,0xff,0xff,0xff,0xff,0xff,0x56,0x55,0x6d,0xd7,0x54,
 0x55,0xd5,0x54,0x95,0x5a,0x55,0x55,0x55,0x55,0x55,0xaa,0xf6,0xff,0xff,0xff,
 0xfe,0x7f,0x5b,0x55,0x95,0x28,0x5b,0x6d,0x55,0xdb,0xea,0x6a,0xab,0xda,0x56,
 0x6b,0xad,0x6d,0xfd,0xff,0xff,0xff,0xff,0xff,0xaf,0xaa,0x6a,0xd7,0xaa,0xaa,
 0xb6,0xaa,0x96,0xaa,0xda,0xaa,0xaa,0xaa,0x5a,0x55,0xf7,0xff,0xff,0xff,0xff,
 0xff,0xbd,0xaa,0x4a,0x54,0xad,0x55,0x55,0x55,0xb5,0xad,0xad,0xb6,0x6a,0xad,
 0x55,0x55,0xfd,0xff,0xff,0x7f,0xff,0xff,0x6f,0x55,0xb5,0x55,0x55,0x6d,0xab,
 0xda,0x6a,0x6a,0xaa,0xaa,0xad,0xaa,0xaa,0x5a,0xfd,0xff,0xff,0xff,0xff,0xff,
 0xff,0xaa,0x4a,0x55,0xaa,0x55,0xd5,0x56,0x95,0xad,0x6b,0xab,0xaa,0x55,0xb5,
 0xad,0x56,0xff,0xff,0xff,0xfb,0xff,0xbf,0x55,0xb5,0xaa,0xb5,0xaa,0xad,0xaa,
 0x76,0x55,0xaa,0x6a,0x55,0x6d,0xab,0x52,0xe9,0xff,0x6f,0xff,0xff,0xff,0xfa,
 0xaf,0xa4,0xaa,0x5a,0x6d,0xd5,0xaa,0x95,0xaa,0x5a,0xad,0x6a,0x55,0x55,0xdd,
 0xb6,0xfe,0xff,0xbf,0x6d,0xff,0xfd,0xad,0x5a,0x55,0x55,0x55,0xb5,0xb6,0x6a,
 0xd5,0xaa,0xaa,0x55,0xab,0xaa,0x52,0x55,0xff,0xff,0xff,0xff,0xfd,0xea,0xff,
 0xa2,0xaa,0xd6,0xaa,0xaa,0xaa,0x5a,0x5b,0xab,0x55,0xad,0xaa,0xb6,0xad,0xaa,
 0xeb,0xdf,0x7e,0x5b,0x7f,0xf9,0xbf,0x5a,0x55,0x55,0xad,0x55,0x55,0xab,0xaa,
 0x6a,0xad,0x6a,0x55,0x55,0x55,0xad,0xfe,0xfd,0xdb,0xff,0xaa,0xea,0xff,0x24,
 0x55,0x6a,0xb5,0xb6,0x6d,0x55,0x6d,0x55,0xb5,0xaa,0x6a,0xab,0xaa,0xd5,0xea,
 0x77,0xff,0xb7,0xbf,0xd2,0x7f,0xab,0xaa,0x55,0xab,0xaa,0xaa,0x6a,0xab,0x56,
 0x55,0x55,0x5b,0x55,0xb5,0x2a,0xf5,0xdf,0x7f,0xdd,0x42,0x00,0x9f,0x54,0x55,
 0x5a,0x55,0x55,0x55,0x5b,0xd5,0x5a,0xab,0x6d,0x55,0xb5,0x56,0xd5,0xd5,0xff,
 0xdb,0xf7,0xaf,0x80,0x7f,0xab,0xaa,0x55,0xd5,0x6a,0x55,0x55,0x55,0xa5,0xaa,
 0xaa,0xaa,0xaa,0xaa,0xaa,0x70,0xaf,0xfe,0xdf,0x12,0x00,0x48,0x55,0x55,0xaa,
 0x5a,0x5b,0xab,0xaa,0xaa,0x6a,0x6d,0x55,0xb5,0x55,0xd5,0x56,0xe3,0xff,0xdb,
 0xea,0x2b,0x00,0xaa,0x6a,0xab,0xd5,0x56,0x55,0x6d,0xd5,0x56,0xad,0xaa,0xda,
 0xaa,0x6a,0xab,0x5a,0xe8,0x77,0x7f,0xbf,0x0a,0x00,0x50,0x55,0x55,0xb6,0xaa,
 0x6a,0x55,0x5b,0xb5,0x55,0xab,0x55,0xad,0x5a,0xb5,0xaa,0xa1,0xdf,0xdf,0xed,
 0x85,0x00,0xa4,0xb6,0xaa,0x55,0x55,0x55,0x55,0x55,0x55,0xb5,0x54,0x55,0x55,
 0xab,0xaa,0xaa,0xf4,0xfe,0x7a,0x1f,0x12,0x00,0x80,0xaa,0xb5,0xda,0xb6,0xad,
 0xb6,0xaa,0xaa,0x56,0x6b,0x6d,0x6b,0x55,0xad,0xb5,0xa8,0xff,0xdf,0xf7,0x8a,
 0x02,0x00,0xaa,0x56,0x55,0x55,0x55,0x55,0x6d,0x55,0xa9,0xaa,0xaa,0xaa,0x6a,
 0x55,0x55,0x92,0xba,0xf6,0x2f,0x21,0x54,0x40,0xa9,0xaa,0xaa,0xaa,0xaa,0x55,
 0xab,0xb6,0x56,0x55,0x55,0x55,0xad,0xaa,0x56,0xa9,0xfe,0xff,0x57,0x4a,0x09,
 0x04,0x54,0x55,0xd5,0xd6,0x5a,0xd5,0x54,0x55,0xd5,0xda,0xaa,0xaa,0xaa,0x55,
 0x55,0x55,0xd5,0xfa,0x95,0x84,0x6a,0x59,0xa0,0xaa,0x5a,0x55,0xab,0x5a,0xad,
 0xd5,0x5a,0xab,0xb6,0x6d,0xb5,0xda,0xaa,0xaa,0xfe,0xff,0x57,0x22,0x55,0x25,
 0x41,0xab,0x55,0x55,0x55,0x55,0xab,0xaa,0xaa,0xaa,0x4a,0x55,0xab,0xaa,0xaa,
 0x54,0x55,0x7b,0x49,0x49,0x25,0x0d,0xa8,0x5a,0xaa,0xb6,0x6a,0xab,0x6a,0x55,
 0x55,0x55,0xb5,0xaa,0xaa,0xaa,0x56,0x55,0xf7,0xff,0x55,0x52,0xaa,0x12,0x50,
 0xa5,0x6d,0x55,0x55,0x55,0x55,0xad,0x55,0x6b,0x55,0x55,0x55,0x55,0x55,0xa9,
 0xda,0x5e,0x4a,0x85,0xaa,0x01,0x6a,0x5b,0xaa,0xaa,0xad,0xb5,0x55,0xb5,0x6a,
 0x55,0xab,0x6d,0x6b,0xdb,0xaa,0xaa,0xb6,0xbf,0x2b,0x51,0x55,0x01,0xb8,0xaa,
 0x55,0xab,0xaa,0xaa,0xaa,0x4a,0x55,0x55,0x55,0x55,0x55,0x55,0x55,0x95,0xfa,
 0xab,0x54,0xa5,0x2a,0x00,0x57,0x55,0xaa,0x5a,0x55,0x55,0x55,0x6b,0xab,0x5a,
 0xb5,0xaa,0xaa,0xaa,0xaa,0x4a,0xfe,0x5f,0x55,0x91,0x2a,0x00,0xec,0xaa,0x6d,
 0xd5,0xda,0x56,0xad,0xaa,0x5a,0x55,0xab,0x55,0xab,0xaa,0x5a,0x80,0xf5,0xb2,
 0x4a,0xaa,0x02,0x40,0x9b,0xaa,0xaa,0x56,0xab,0xaa,0xd5,0xaa,0xaa,0x6a,0x55,
 0x6d,0xb5,0xb5,0x55,0x51,0xde,0xd7,0x55,0xa9,0xaa,0x80,0xea,0x56,0x55,0xb5,
 0xaa,0x6a,0xaa,0x5a,0x55,0xab,0xaa,0xaa,0xaa,0xaa,0x2a,0x80,0xfa,0x2d,0x15,
 0x55,0x00,0x00,0x55,0xb5,0xb6,0xaa,0x5a,0x55,0xab,0xaa,0x56,0x55,0x5b,0x55,
 0x55,0x55,0x55,0xa5,0xfe,0xd5,0xaa,0x54,0x0b,0x40,0xaa,0xaa,0xd5,0x56,0xd5,
 0xaa,0x5a,0x55,0x55,0x55,0xd5,0xaa,0xad,0xaa,0xaa,0x52,0xab,0x36,0x45,0x55,
 0x01,0x80,0xaa,0x56,0xaa,0xaa,0xaa,0x56,0x55,0xab,0xd5,0xb6,0xaa,0x5a,0x55,
 0x55,0x55,0x49,0xfd,0xda,0x2a,0x55,0x01,0x20,0xd5,0xaa,0x55,0xd5,0x56,0xb5,
 0xaa,0x5a,0x55,0x55,0x55,0xd5,0xaa,0xaa,0xaa,0xd6,0x96,0x2a,0xa1,0x5a,0x04,
 0x48,0xad,0xaa,0xaa,0x5a,0x55,0x55,0xd5,0xaa,0x5a,0x55,0x55,0x55,0x55,0x55,
 0x55,0x55,0xed,0xad,0x4a,0x55,0x01,0x40,0x55,0x55,0xad,0x55,0xb5,0xaa,0x5a,
 0x55,0xa5,0x6a,0xad,0x55,0xdb,0xae,0xaa,0xea,0xbf,0xb6,0x54,0x15,0x00,0x2a,
 0xaa,0xaa,0x55,0x55,0x55,0x55,0xab,0xaa,0x75,0xab,0xaa,0x6a,0x6d,0xdb,0xdb,
 0x5a,0xd5,0x6d,0xa5,0x0a,0x00,0x48,0x55,0x55,0x6a,0xb5,0xaa,0xb5,0xaa,0x56,
 0x4d,0x55,0x55,0x55,0xd5,0x7d,0x6f,0x55,0x01,0x00,0x00,0x00,0xa8,0x55,0x6d,
 0xdb,0x5b,0xcd,0xb6,0x56,0x55,0x55,0x55,0x55,0xab,0xad,0x76,0xef,0xda,0x6e,
 0x05,0x00,0x00,0x00,0x54,0xaa,0x56,0x55,0xaa,0x5a,0x55,0x55,0xb5,0xaa,0xaa,
 0x5a,0xb5,0xaa,0xaa,0x5a,0x6b,0x01,0x00,0x00,0x00,0xfc,0xd5,0xed,0xaa,0xaa,
 0x55,0xab,0xaa,0xaa,0xaa,0x6a,0x55,0x55,0x55,0xb5,0x6d,0xeb,0xbd,0x0b,0x00,
 0x00,0x00,0xaa,0xb6,0x56,0x5b,0x55,0x6d,0x55,0xad,0x6a,0x55,0x55,0xb5,0xaa,
 0xaa,0xaa,0xda,0x56,0x6b,0x15,0x00,0x00,0xfa,0x5b,0x55,0xb5,0x56,0x55,0x55,
 0xd5,0x56,0x95,0xad,0xad,0x56,0xb5,0xb5,0x55,0x55,0xb5,0xbd,0x2b,0x00,0x00,
 0x5a,0xad,0xaa,0x6d,0xab,0xaa,0xaa,0xaa,0x6a,0x6b,0xaa,0xaa,0xaa,0x55,0xad,
 0xaa,0xaa,0xaa,0x6a,0xad,0x02,0x50,0x01,0x80,0x54,0xd5,0xaa,0xaa,0x55,0x5b,
 0x55,0x55,0xab,0xaa,0xaa,0xaa,0xaa,0x5a,0xd5,0x56,0xb7,0xb7,0x48,0x25,0x2a,
 0x51,0x52,0x6d,0x5b,0x55,0xad,0xaa,0xaa,0xaa,0x54,0x55,0x55,0x55,0x55,0x55,
 0xab,0x6a,0x55,0xfd,0x05,0x00,0x80,0x84,0x54,0xab,0x56,0x55,0xd5,0xaa,0xb5,
 0xaa,0x56,0xab,0x55,0x55,0x55,0x6b,0xb5,0xaa,0xda,0xaf,0xaa,0x00,0x20,0x29,
 0xa5,0xda,0xaa,0xaa,0x2a,0x55,0x55,0x55,0x55,0x55,0xad,0xaa,0xaa,0xaa,0xaa,
 0xaa,0x2a,0x7a,0x05,0x00,0x00,0xa4,0x5a,0xab,0x55,0x55,0xd5,0xb6,0xaa,0xb5,
 0xb5,0xaa,0x6a,0xb5,0x6d,0x55,0x55,0x55,0xad,0xaf,0x2b,0x00,0x10,0x49,0xd5,
 0xda,0xaa,0xaa,0xad,0xaa,0x56,0xad,0xaa,0x5a,0x95,0x55,0x55,0x55,0x55,0xab,
 0xaa,0x74,0x55,0x01,0x00,0x00,0xaa,0xb6,0x56,0x55,0x55,0x55,0x55,0x55,0x55,
 0xab,0xaa,0xaa,0xaa,0xaa,0x56,0xb5,0x56,0xaf,0x5f,0x00,0x00,0x00,0x69,0xab,
 0xb5,0xaa,0x6a,0xab,0xaa,0xaa,0xaa,0xaa,0xb5,0xaa,0xaa,0x56,0x55,0x55,0x55,
 0x75,0x55,0xab,0x04,0xf5,0xd6,0x5a,0x55,0x55,0x56,0xb5,0xb5,0x55,0x6d,0x55,
 0x55,0xad,0xaa,0xda,0xaa,0xaa,0x6a,0x55,0xab,0x12,0x41,0x80,0x6a,0xad,0xaa,
 0xaa,0x55,0x55,0x55,0xd5,0x52,0x55,0x55,0x55,0x55,0xa5,0xda,0x6a,0x55,0xad,
 0x5a,0xed,0xbe,0xbf,0x9a,0xb2,0xaa,0xaa,0xaa,0xaa,0xaa,0xaa,0x5a,0xb5,0xaa,
 0xaa,0xaa,0xb5,0xaa,0x96,0xad,0x55,0x55,0xb5,0x6a,0x55,0x6b,0x5d,0x55,0x55,
 0x55,0xab,0x56,0x55,0xab,0x56,0x6d,0x55,0xb5,0xaa,0xaa,0x6a,0x5a,0x55,0x55,
 0x49,0x95,0x52,0x4a,0xd3,0xaa,0xaa,0x6a,0x6d,0x55,0x6b,0x55,0x55,0xab,0xda,
 0x56,0x55,0x55,0x55,0xab,0xaa,0xaa,0xaa,0xaa,0xaa,0x6a,0x5d,0x55,0x55,0x55,
 0x55,0xb5,0xaa,0x6a,0x55,0x55,0xa5,0xaa,0xaa,0xaa,0xaa,0x54,0xd5,0xaa,0xaa,
 0xaa,0xaa,0xaa,0x55,0x55,0x55,0xaa,0xaa,0xaa,0xaa,0xaa,0xaa,0xaa,0x5a,0x55,
 0xb5,0x56,0x55,0x6d,0x6b,0x55,0xd5,0xaa,0xaa,0x6a,0xad,0xaa,0xaa,0xad,0xaa,
 0x55,0xad,0xaa,0xaa,0xaa,0xaa,0xaa,0xaa,0xaa,0xaa,0x55,0x55,0xab,0xb6,0x6d,
 0x55,0x5b,0xab,0xaa,0xaa,0xb5,0x6d,0x55,0x55,0x55,0x55,0x55,0xab,0x6a,0xad,
 0x6a,0x5b,0x55,0xb5,0xb5,0x55,0x55,0xab,0xd5,0x5a,0x55,0x55,0x4a,0x55,0xd5,
 0xaa,0xaa,0xb6,0xaa,0x6a,0x55,0x55,0x55,0xa5,0xaa,0xaa,0xaa,0xaa,0xb6,0x5a,
 0x55,0xab,0xaa,0xaa,0xb5,0xaa,0x5a,0x55,0x55,0x55,0xab,0xaa,0xaa,0xaa,0xaa,
 0x5a,0xad,0x56,0x55,0x6d,0x5b,0xab,0x5a,0x55,0x55,0x55,0x55,0x55,0x55,0xd5,
 0x5a,0x55,0x55,0x55,0xb5,0xaa,0xaa,0xaa,0x6a,0xb5,0xd6,0xaa,0x6a,0xb5,0xb5,
 0xaa,0xaa,0xaa,0xaa,0xaa,0xaa,0xaa,0xaa,0xaa,0xaa,0xaa,0x56,0x55,0x55,0x55,
 0xab,0xd5,0x5a,0xd5,0xaa,0xd6,0xd6,0x56,0x55,0x55,0x55,0xb5,0xaa,0x56,0x55,
 0x55,0xb5,0xaa,0xaa,0x6a,0x55,0x55,0x40,0xaa,0xaa,0xad,0x56,0x55,0xad,0x55,
 0xaa,0xaa,0xb5,0x56,0xad,0xaa,0x56,0xab,0xaa,0x56,0x55,0xad,0x5a,0x55,0xa5,
 0x5a,0xd5,0xb6,0xb5,0xb5,0x56,0x55,0x55,0x55,0x6a,0xd5,0x52,0x55,0x55,0xb5,
 0x55,0x55,0x55,0x55,0xa5,0x0a,0x90,0xa5,0xad,0xaa,0x6a,0x6b,0x6d,0x55,0x95,
 0xaa,0x95,0xaa,0xda,0xaa,0xaa,0xaa,0xaa,0xaa,0x55,0x55,0xb5,0x05,0x40,0x6a,
 0xd5,0xaa,0x56,0xb5,0xb5,0xaa,0x6a,0x55,0xd6,0xaa,0x56,0x5b,0xb5,0xaa,0xaa,
 0xaa,0xaa,0xaa,0x2b,0x00,0x95,0x5a,0x2b,0xb5,0x5a,0xab,0xd6,0xaa,0x92,0xaa,
 0xaa,0x56,0x55,0xd5,0xaa,0x56,0xb5,0x55,0x6d,0x55,0xd5,0x02,0x40,0xad,0x6a,
 0x5b,0xab,0x7d,0x6b,0x55,0x55,0x55,0x55,0x55,0x55,0x55,0x55,0x55,0x55,0xb5,
 0xaa,0x5a,0x00,0xb4,0x2a,0xf5,0xd6,0xb6,0x76,0xab,0xde,0xaa,0xaa,0xaa,0xb5,
 0xaa,0x55,0x55,0x55,0x55,0x55,0x55,0x55,0xad,0x00,0x48,0x90,0x7a,0xab,0x6a,
 0x5b,0xd5,0x6a,0x55,0x55,0x55,0xaa,0x56,0x55,0x55,0xab,0xaa,0xaa,0xaa,0xaa,
 0x02,0x00,0x11,0x65,0xed,0xdf,0xbf,0xf5,0xbf,0x55,0xab,0xaa,0xaa,0xd6,0xaa,
 0xaa,0xaa,0xaa,0x6a,0x55,0x55,0x55,0x0d,0x40,0xa4,0x90,0xfa,0xb5,0xea,0xae,
 0x6a,0x7b,0x55,0x55,0x55,0x55,0xb5,0xd6,0xaa,0xaa,0x55,0xab,0xaa,0xaa,0x00,
 0x00,0x00,0x2a,0xed,0xff,0xff,0xff,0xff,0xef,0x24,0x29,0xa9,0xaa,0xaa,0xaa,
 0x5a,0x55,0x55,0x55,0xad,0x5a,0x01,0x00,0x50,0xa9,0xfa,0xff,0xff,0x6b,0xdf,
 0x7e,0x55,0x55,0x55,0x55,0x55,0x55,0x55,0x55,0x55,0xb5,0xaa,0x2a,0x00,0x00,
 0x05,0x95,0xba,0xff,0xff,0xff,0xff,0xbf,0x4a,0x55,0x55,0xaa,0x5a,0x55,0xab,
 0xaa,0x5a,0x55,0x55,0x15,0x00,0x00,0x90,0x4a,0xed,0xff,0xff,0xff,0xff,0x7f,
 0xa9,0xaa,0xaa,0xb5,0xaa,0xaa,0xaa,0xaa,0xaa,0xaa,0xaa,0x05,0x00,0x28,0x21,
 0x91,0xfa,0xff,0xff,0xff,0xff,0xaf,0x2a,0xa9,0x2a,0x55,0xd5,0xb6,0xaa,0x5a,
 0x55,0x55,0xb5,0x0a,0x00,0x41,0xa8,0xa4,0xb6,0xff,0xff,0xff,0xff,0x7f,0xa5,
 0xaa,0xaa,0xaa,0x2a,0x55,0xd5,0xaa,0xaa,0xaa,0xaa,0x00,0x40,0x80,0x02,0x49,
 0xda,0xf6,0xff,0xff,0xff,0xd7,0xaa,0x4a,0xa5,0x56,0xd5,0x55,0x55,0x55,0x55,
 0x55,0x55,0x01,0x08,0x54,0x54,0x2a,0xed,0xff,0xff,0xff,0xff,0x5f,0x55,0x55,
 0x55,0xb5,0x55,0xaa,0xaa,0xaa,0xaa,0xaa,0x0a,0x00,0x00,0x81,0x05,0x40,0x92,
 0xfd,0xff,0x7f,0x7b,0xbb,0x55,0x55,0xa9,0x55,0xad,0xd5,0x5a,0x55,0x55,0xad,
 0x56,0x80,0x00,0x50,0xaa,0x94,0xd4,0xff,0xff,0xff,0xff,0xdf,0xaa,0xaa,0x56,
 0xaa,0xaa,0xaa,0xaa,0x6a,0xb5,0x52,0x09,0x00,0x00,0x80,0x16,0x22,0xa9,0xfa,
 0xff,0xdf,0x56,0x55,0x55,0x2a,0xa9,0x55,0x55,0x55,0x55,0xab,0x56,0xad,0x05,
 0x00,0x00,0xa0,0xaa,0x88,0xd4,0xfe,0xff,0xbf,0xfb,0xb6,0xaa,0xd5,0x56,0x56,
 0x55,0x55,0x55,0x55,0xd5,0x36,0x00,0x00,0x08,0x89,0xae,0x80,0x2b,0xfb,0x5f,
 0xfb,0xa6,0x5a,0x15,0x25,0xa9,0xab,0x5a,0xab,0x5a,0x55,0x55,0xd5,0x01,0x00,
 0x20,0x40,0xb5,0x42,0x56,0xfd,0xf7,0xff,0x5b,0x6f,0xd5,0xaa,0x56,0x54,0x55,
 0xb5,0x55,0x55,0x55,0x01,0x00,0xf4,0xaf,0x8a,0x6a,0xfd,0xa1,0xb6,0x1f,0xa5,
 0xed,0x5a,0x25,0x55,0xa9,0x6b,0xab,0xaa,0xaa,0xaa,0xaa,0x00,0x00,0x50,0x55,
 0x55,0xda,0xea,0x56,0xff,0xbe,0xfa,0xbf,0x6d,0xd5,0xaa,0x56,0xaa,0xaa,0x55,
 0x55,0x55,0x55,0x00,0x80,0xee,0xee,0xaa,0xf5,0xbf,0x40,0x55,0x13,0xa5,0xf6,
 0xb7,0x2a,0x55,0xa9,0xad,0xaa,0xaa,0xaa,0xaa,0xad,0x00,0x20,0xa9,0xb5,0xaa,
 0x56,0xff,0xaa,0xad,0xad,0xda,0x7f,0x6d,0xa9,0xaa,0x56,0xaa,0x5a,0xd5,0x56,
 0xad,0xaa,0x92,0x02,0x52,0x6d,0xb7,0xfa,0x5f,0x55,0x5b,0x90,0x2a,0xd5,0x5f,
 0xab,0xaa,0x54,0xaa,0xaa,0xaa,0xaa,0x55,0x55,0x44,0xa8,0xaa,0xd6,0xaa,0xfd,
 0xef,0x4a,0xad,0xa5,0xda,0x7a,0xb5,0xaa,0xaa,0xaa,0xb5,0xaa,0x56,0x55,0xaa,
 0x2a,0x01,0x41,0x02,0xa9,0x7f,0xf7,0x55,0xff,0x2b,0xaa,0x22,0x41,0x6b,0x55,
 0x55,0x55,0x55,0xab,0xaa,0xaa,0x55,0x55,0x48,0x94,0xda,0xd4,0xaa,0x7d,0xf7,
 0xaa,0xb6,0x54,0x95,0xb4,0xbd,0xaa,0xaa,0xaa,0x56,0x55,0x55,0x55,0x55,0x15,
 0x00,0x20,0x65,0x5b,0x55,0xbf,0x8a,0xb5,0x0d,0x00,0x40,0x02,0x6a,0x55,0x55,
 0x55,0xaa,0xda,0xaa,0xaa,0xaa,0x2a,0x01,0x50,0x59,0xad,0xda,0xea,0xc5,0xde,
 0x56,0x05,0x10,0xa8,0xb6,0xaa,0xaa,0xaa,0x55,0x55,0xad,0x55,0x6d,0x15,0x84,
 0xaa,0xd6,0x6a,0x55,0x7d,0x69,0x55,0x55,0xa9,0x4a,0x02,0xa9,0xaa,0xaa,0x2a,
 0xaa,0x55,0x55,0xb5,0x55,0x4d,0x11,0x54,0x55,0xab,0xad,0xfe,0xd2,0xda,0xaa,
 0x4a,0x92,0x40,0xb5,0xaa,0xaa,0xaa,0x55,0x55,0x55,0x55,0xaa,0x12,0x52,0xb5,
 0x5a,0x5d,0xdb,0x0a,0x54,0xa5,0xaa,0xba,0x6d,0x15,0x4a,0x55,0x55,0x55,0x5a,
 0xad,0x55,0x55,0xab,0x4a,0x49,0xd5,0x6d,0xeb,0x6a,0x7b,0xa8,0x5a,0x55,0x6b,
 0xbb,0x4a,0xb5,0xaa,0xaa,0xaa,0x55,0x55,0x55,0x55,0x55,0xa9,0xb6,0x56,0xab,
 0xad,0x56,0x85,0xb5,0xaa,0xaa,0xaa,0x02,0x54,0x44,0x55,0x55,0x55,0xaa,0xaa,
 0xda,0x5a,0x55,0x55,0x55,0x6b,0xf5,0x6a,0xab,0x6d,0xaa,0xaa,0xaa,0xdd,0x8a,
 0x92,0xb2,0xaa,0xaa,0xaa,0xd5,0xaa,0xaa,0xaa,0xaa,0xaa,0xaa,0x5a,0x95,0x56,
 0x6d,0x95,0xaa,0xaa,0xaa,0xaa,0x52,0x09,0x48,0x55,0x55,0x55,0x5a,0xd5,0xaa,
 0xaa,0xaa,0x94,0xaa,0xad,0x6a,0xb5,0xaa,0xaa,0xaa,0xaa,0xaa,0x76,0x25,0x52,
 0xa5,0xaa,0xaa,0xaa,0x55,0x55,0x55,0x55,0x55,0xab,0xaa,0xda,0xd7,0x6a,0xab,
 0xaa,0xaa,0xaa,0xaa,0x0a,0x90,0x04,0x90,0xaa,0xaa,0xaa,0xaa,0xaa,0xaa,0xaa,
 0xaa,0xaa,0x6a,0xad,0x7a,0xb7,0x5a,0xab,0xaa,0xaa,0xaa,0x7e,0xa5,0x92,0xa4,
 0xaa,0x56,0x55,0x55,0xad,0x55,0x55,0x55,0x55,0x95,0x72,0x55,0x6d,0xab,0x54,
 0x55,0x55,0x55,0x81,0x90,0x44,0x90,0xaa,0xaa,0xaa,0xda,0xaa,0x6a,0xab,0xaa,
 0xaa,0x6a,0xad,0xae,0xab,0x55,0xab,0xaa,0xaa,0xaa,0x5e,0x4a,0x2a,0x4a,0x5b,
 0x55,0x55,0xa5,0xaa,0xaa,0x5a,0x55,0xb5,0x55,0xd5,0x5a,0x6d,0xad,0xaa,0xaa,
 0xaa,0xaa,0x52,0xa9,0x44,0x21,0xa5,0xaa,0xaa,0x5a,0xd5,0xaa,0xaa,0xaa,0xaa,
 0x56,0x55,0x6b,0x5b,0x55,0x55,0x55,0x55,0x55,0x55,0xaa,0xaa,0x94,0x5a,0x55,
 0x55,0x55,0x55,0x55,0x55,0x55,0x55,0x55,0x55,0xb5,0xb6,0xaa,0xaa,0xaa,0xaa,
 0xaa,0x54,0x55,0x55,0xa9,0xa4,0xaa,0xaa,0xaa,0xaa,0xaa,0xaa,0xaa,0x5a,0xab,
 0xaa,0xda,0x55,0x55,0x55,0x55,0x55,0x55,0xaa,0x52,0x55,0x4a,0x5b,0x55,0x55,
 0xd5,0x56,0x55,0x55,0x55,0xab,0xde,0x56,0xab,0xae,0xaa,0xaa,0xaa,0x4a,0x25,
 0x00,0x55,0xd5,0xaa,0x54,0x55,0xad,0x5a,0x55,0xad,0xaa,0x6a,0xd5,0xaa,0xaa,
 0x75,0x6b,0x55,0x55,0x55,0x55,0x55,0x41,0x55,0x6d,0x55,0x55,0x55,0x55,0xa5,
 0xaa,0xaa,0x6a,0x55,0x55,0xb5,0xb5,0x56,0x95,0xaa,0xaa,0xaa,0xaa,0x2a,0x55,
 0xd5,0x5a,0x55,0x55,0x55,0x55,0x5a,0x55,0xd5,0xaa,0xaa,0xb6,0x56,0xd5,0xaa,
 0x6a,0x55,0x55,0x55,0x55,0x55,0xa9,0x5a,0xab,0xad,0xaa,0xaa,0xaa,0x55,0xab,
 0xaa,0xaa,0xaa,0xaa,0x6a,0xab,0xaa,0xaa,0xaa,0xaa,0xaa,0xaa,0xaa,0xaa,0xaa,
 0xb6,0x5a,0x55,0x55,0x55,0x6a,0xd5,0x56,0x55,0x55,0x55,0xb5,0x5d,0x55,0x55,
 0x55,0x55,0x55,0x55,0x55,0xaa,0xd6,0x5a,0xab,0xaa,0xaa,0xaa,0x55,0xad,0xaa,
 0xaa,0xaa,0x6a,0xab,0x6a,0x55,0x55,0x55,0x55,0x55,0x55,0xaa,0xaa,0x55,0xb5,
 0xb6,0xaa,0x52,0x55,0xaa,0xaa,0x6a,0x55,0x55,0x5b,0x55,0xab,0xaa,0xaa,0xaa,
 0xaa,0xaa,0xaa,0x55,0x55,0xb5,0xad,0x55,0x55,0xad,0xaa,0x55,0x55,0x95,0x55,
 0x6d,0x55,0x6d,0xad,0xaa,0xaa,0xaa,0xaa,0xaa,0x2a,0x55,0x55,0x55,0x6b,0x6d,
 0x95,0x52,0x55,0xaa,0xaa,0xaa,0xaa,0xaa,0xaa,0xaa,0x56,0x55,0x55,0x55,0x55,
 0x55,0xd5,0xaa,0xaa,0x5a,0x55,0xab,0xaa,0xaa,0xaa,0x55,0x55,0xb5,0xaa,0xaa,
 0xd6,0x5a,0xa9,0xaa,0xaa,0xaa,0xaa,0xaa,0x2a,0x55,0xd5,0xaa,0x6d,0x55,0x55,
 0x55,0x55,0xad,0x5a,0x55,0x55,0x55,0xb5,0xaa,0x56,0x55,0x55,0x55,0x55,0x55,
 0x55,0x55,0x55,0xd5,0x5a,0xdb,0xaa,0xaa,0xaa,0x6a,0x55,0xab,0xb6,0xb6,0xaa,
 0x6a,0xad,0xaa,0xaa,0xaa,0xaa,0xaa,0xaa,0xaa,0x6a,0xad,0x6a,0x55,0x55,0x55,
 0x25,0xaa,0x56,0x55,0xd5,0xaa,0x55,0xad,0x6a,0x55,0x55,0x55,0x55,0x55,0x55,
 0x55,0xb5,0x6a,0xad,0xad,0xaa,0xaa,0xaa,0x55,0xa9,0xaa,0x4a,0x55,0x6d,0xab,
 0xaa,0xaa,0xaa,0xaa,0xb6,0xad,0xd5,0xaa,0x4a,0x55,0xab,0xaa,0x2a,0x55,0x55,
 0x55,0x55,0x55,0xb5,0xaa,0x56,0xd5,0x56,0x55,0x55,0x55,0x55,0x55,0xad,0x5a,
 0xb5,0xad,0xb5,0x55,0xd5,0xaa,0xaa,0xbb,0xad,0xd6,0xaa,0x5a,0xd5,0x5a,0x55,
 0x55,0x55,0x55,0xa9,0xaa,0x54,0xa5,0xaa,0x5a,0x55,0xab,0x12,0x49,0xaa,0x6e,
 0xdb,0xbb,0x56,0xab,0xb5,0x6a,0xb5,0xaa,0xaa,0xaa,0x56,0x55,0xa5,0x54,0x55,
 0x6d,0x6d,0x55,0x55,0x55,0x55,0xbb,0x77,0xed,0xbd,0x5d,0xab,0xd6,0xee,0xff,
 0x77,0x77,0xbb,0xbb,0xdf,0xbf,0xad,0xd5,0xaa,0xfe,0xff,0xbf,0xed,0xdd,0xbd,
 0x77,0xd7,0xea,0x5a,0xab,0xb5,0xaa,0xba,0xdd,0xee,0xee,0xf5,0xea,0x6a,0xad,
 0xb6,0x55,0x55,0xd5,0xbb,0x77,0xeb,0xae,0x6d,0x57,0xb5,0x5a,0xdb,0xff,0xff,
 0xff,0xff,0xff,0xff,0xff,0x55,0x6b,0x55,0xff,0xff,0x7f,0xef,0xdd,0xbe,0x7b,
 0xdb,0xda,0xae,0xd5,0xf6,0xb6,0xdf,0xf6,0xb7,0x7b,0xbf,0xff,0x55,0xb5,0xaa,
 0xda,0xdd,0xd6,0xba,0xf7,0x6b,0xd7,0x76,0xb7,0x59,0xab,0x5a,0xdb,0xfa,0xbf,
 0xff,0xff,0xff,0x7f,0xdb,0xaa,0x6d,0x77,0x77,0xff,0xf7,0x5d,0xfd,0xba,0xdb,
 0xaa,0xd6,0xda,0xee,0xf6,0xb7,0xf6,0xed,0xfe,0xf7,0xfb,0x55,0xad,0xaa,0xfd,
 0xdd,0x55,0xbd,0xf7,0xd7,0x6d,0x55,0xdb,0xaa,0xb6,0xb5,0x5f,0xdf,0xfb,0xff,
 0xef,0xff,0xdf,0xda,0x6a,0xb5,0xd7,0xf7,0xff,0xd7,0xbd,0xba,0xb6,0xb6,0xb5,
 0x76,0x5b,0x6d,0xf5,0xf5,0x6e,0x7f,0xff,0x7e,0xff,0x6a,0x5b,0x6d,0x7d,0xbd,
 0x6a,0xfd,0xd5,0xad,0xca,0xda,0xfe,0xdb,0xb6,0xdb,0xef,0xbf,0xff,0xed,0xfb,
 0xff,0xff,0x57,0x55,0xd5,0xf7,0xf7,0xff,0xb7,0x6e,0xab,0xb5,0xee,0x57,0x6d,
 0x6b,0xb5,0x7a,0xed,0xbf,0xff,0xff,0xff,0x7f,0xb5,0xaa,0xb5,0xbd,0xbd,0xbf,
 0xfd,0x10,0x55,0xed,0xb5,0xda,0xaa,0x54,0xab,0x04,0x11,0x40,0x00,0x00,0x00,
 0x40,0xd5,0x5d,0xab,0x40,0x42,0x40,0x45,0xae,0xaa,0xb6,0xfe,0x77,0x57,0xab,
 0xad,0xaa,0xa4,0x2a,0x6d,0xdb,0xaa,0xb5,0xb6,0xd6,0x5a,0xad,0x5a,0x5b,0xb5,
 0xd5,0x7a,0xdb,0x5b,0xaf,0xbd,0x5d,0x55,0x55,0xab,0xda,0x5a,0x55,0xad,0x56,
 0x55,0xb5,0xaa,0xaa,0xaa,0xa4,0x4a,0xb5,0xd6,0xf6,0xfe,0xda,0xd6,0x66,0xd5,
 0x56,0x55,0x55,0xa5,0xaa,0xaa,0xaa,0xb6,0xab,0x6d,0x55,0x52,0xab,0x54,0xaa,
 0xaa,0xdd,0xab,0x35,0x95,0x8a,0x2a,0xa9,0x54,0xa5,0xaa,0x52,0xa9,0x54,0x6d,
 0x6d,0x55,0x55,0x55,0x54,0xa5,0xd5,0xf6,0x6e,0xdd,0xd6,0x6a,0x55,0xa5,0xaa,
 0xaa,0xaa,0xaa,0xaa,0xaa,0xaa,0xaa,0xb6,0xae,0xaa,0xaa,0x55,0x55,0xaa,0x4a,
 0xa9,0x2a,0x55,0x95,0xaa,0x54,0x25,0x95,0x54,0x55,0x55,0x55,0xa5,0x76,0xad,
 0x5a,0x91,0x44,0x4a,0x92,0xaa,0x76,0x57,0xab,0x55,0x55,0x55,0x55,0xd5,0xaa,
 0xaa,0x4a,0x55,0x55,0x55,0xad,0x6b,0xab,0x56,0xb2,0x52,0x55,0x55,0x89,0x54,
 0x55,0xaa,0xaa,0xaa,0xaa,0x2a,0x55,0x55,0x55,0x55,0x55,0x55,0xdb,0xd6,0xaa,
 0xaa,0x4d,0xad,0x6a,0xaa,0xb6,0xaa,0x54,0x55,0x55,0x55,0x55,0xd5,0xaa,0xaa,
 0xaa,0xaa,0xaa,0xaa,0x6a,0x75,0x6d,0x55,0xb2,0xaa,0xaa,0x55,0xa9,0xaa,0xaa,
 0xaa,0x2a,0x55,0x55,0x95,0xaa,0xaa,0x6a,0x55,0x6d,0x5b,0xad,0xad,0x55,0x55,
 0xa5,0xa4,0x2a,0xaa,0x56,0x55,0xa5,0xaa,0xaa,0xaa,0xaa,0x6a,0x55,0x55,0x55,
 0xdb,0xaa,0xaa,0xf6,0x56,0x6d,0x55,0x55,0x55,0xd5,0x55,0xa9,0x4a,0x55,0x55,
 0x55,0x25,0x55,0x92,0x6a,0x5b,0x5b,0x55,0x55,0xd5,0xaa,0xbd,0x5a,0xa5,0xaa,
 0x2a,0x29,0x55,0x55,0xa9,0xaa,0x52,0xaa,0xaa,0xaa,0xaa,0x5a,0x55,0x55,0x55,
 0x55,0x55,0x7b,0x55,0x57,0x55,0x55,0xaa,0xaa,0xaa,0x4a,0x2a,0x25,0x8a,0x10,
 0x49,0x49,0x55,0x55,0x55,0x25,0x49,0x55,0x55,0xd5,0xf6,0x6c,0x55,0x92,0xaa,
 0x4a,0x55,0x55,0x55,0x95,0x52,0xcd,0xaa,0xaa,0xaa,0x55,0x55,0xa9,0xaa,0xaa,
 0xaa,0xbe,0x2d,0x57,0x55,0x55,0x95,0xaa,0x92,0x92,0xaa,0x6a,0xad,0x2a,0x55,
 0x55,0x55,0xaa,0xaa,0x4a,0x25,0x55,0xb5,0xd5,0xf6,0x74,0x55,0x55,0x52,0x29,
 0x55,0x55,0x55,0x55,0x55,0xd5,0xaa,0xaa,0xaa,0x55,0x55,0x29,0xa9,0xaa,0xaa,
 0x6e,0x9b,0xad,0xaa,0xaa,0xaa,0xaa,0xaa,0x6a,0xdb,0xde,0xfd,0x6f,0x5b,0x55,
 0x55,0x55,0x55,0x55,0x55,0x55,0xd5,0xbe,0x6d,0x5b,0x55,0x45,0x95,0x4a,0x55,
 0xb5,0xb6,0x6b,0xab,0x5a,0xad,0xaa,0xaa,0xaa,0xaa,0xaa,0xaa,0xaa,0xaa,0xed,
 0xda,0x6a,0x95,0x5a,0x49,0xa9,0xaa,0x4a,0x49,0xaa,0xaa,0xf5,0x7a,0xab,0xb6,
 0xaa,0xaa,0xaa,0xaa,0xdd,0x7f,0x7f,0xb5,0xad,0xaa,0xa4,0xaa,0x2a,0x4a,0x55,
 0xb5,0x55,0xed,0x5e,0xaf,0x6d,0xab,0x55,0x55,0x55,0x55,0xab,0xd2,0x7d,0xad,
 0x76,0x55,0x55,0x55,0xaa,0x94,0x24,0x49,0xaa,0x2a,0xa9,0x6a,0xdb,0x5a,0xad,
 0xaa,0xdb,0x6e,0xbd,0xae,0xf7,0x6b,0x55,0x49,0x55,0x55,0x51,0x4a,0x52,0x55,
 0x55,0xd5,0xb6,0xdb,0xb6,0xd6,0x56,0xdb,0x6c,0xd5,0xd6,0x75,0xfd,0xb6,0x5b,
 0x55,0x55,0x55,0x4d,0x92,0x8a,0x24,0x55,0x55,0x55,0xaa,0xea,0xad,0xf5,0xb6,
 0xdb,0xbb,0xad,0xd6,0xf6,0xdf,0x76,0x55,0x25,0x49,0x52,0x49,0x51,0x92,0x52,
 0x55,0xab,0xad,0x5d,0x75,0xad,0x5a,0x55,0x55,0xdb,0xb5,0xfd,0x6f,0xad,0xaa,
 0xaa,0xaa,0x55,0x24,0x8a,0x44,0x04,0x84,0x54,0x52,0x52,0x95,0xaa,0xaa,0xaa,
 0x6a,0x55,0x6b,0xab,0xff,0x76,0x55,0x55,0x55,0x4a,0x12,0x21,0x29,0xa9,0x52,
 0x49,0xad,0xad,0xaa,0x55,0x55,0xb5,0xb6,0xaa,0xac,0xdd,0xbf,0xad,0xaa,0xaa,
 0xaa,0x52,0xaa,0xaa,0x94,0x92,0x2a,0x95,0xa8,0x52,0x55,0xaa,0xaa,0x55,0x55,
 0x5b,0x53,0x75,0xfd,0x5f,0x55,0x55,0x55,0x95,0x45,0x49,0x4a,0x29,0x89,0xa4,
 0xaa,0xaa,0xaa,0x55,0x55,0x56,0x55,0x55,0xb5,0xde,0xff,0x5f,0xdb,0x6a,0x55,
 0x55,0x08,0x92,0x24,0x52,0xaa,0x92,0x12,0x95,0x14,0xa2,0x20,0x21,0x92,0x54,
 0xed,0xb5,0xff,0xaf,0xaa,0x56,0x55,0x55,0xa5,0xa4,0x52,0x95,0x52,0x4a,0xc9,
 0xa4,0x52,0x29,0x95,0x54,0x29,0x55,0x2b,0xdb,0xf5,0xbf,0x55,0xab,0xaa,0xaa,
 0x28,0x49,0x4a,0x2a,0x45,0x29,0x12,0x11,0x4a,0x82,0x24,0x82,0x44,0x52,0xd5,
 0x76,0xff,0xbf,0x76,0xd5,0x56,0x55,0x95,0x2a,0x25,0xa5,0x54,0x4a,0x49,0x4a,
 0x91,0x54,0x92,0x54,0xa9,0xaa,0x6a,0xdd,0xfe,0xdf,0xaa,0x5a,0xd5,0xaa,0x52,
 0x52,0xaa,0xaa,0x92,0x24,0x92,0x24,0x25,0x55,0x55,0x55,0x55,0x55,0xdb,0x6b,
 0xeb,0x36,0x55,0x55,0x55,0x15,0x49,0x49,0x49,0xa9,0xaa,0x52,0x55,0x92,0x48,
 0x49,0x4a,0x55,0x55,0xaa,0x55,0xfd,0xbe,0xad,0x55,0x55,0x55,0xd5,0x92,0x92,
 0x12,0x02,0x00,0x89,0x84,0x24,0x25,0x25,0x10,0x40,0x82,0x50,0xaa,0xd6,0x55,
 0x45,0x52,0xa5,0xaa,0x12,0x54,0x48,0x54,0xb5,0xaa,0x54,0x52,0x92,0x92,0x90,
 0x4a,0x2d,0xb5,0xaa,0xda,0xbb,0xae,0xaa,0x94,0x54,0x52,0xaa,0x80,0x52,0x49,
 0x4a,0x55,0x89,0x8a,0x54,0x24,0x45,0x92,0x50,0x92,0xaa,0x2a,0xd5,0xaa,0x12,
 0x29,0x49,0xa5,0xaa,0x2a,0x24,0x55,0x25,0x22,0x52,0x51,0x89,0x92,0x28,0x49,
 0x2a,0x29,0x55,0xd5,0x6d,0xad,0x4a,0x45,0x25,0x59,0x55,0x44,0x49,0x20,0x48,
 0x49,0x05,0x2a,0xa5,0xaa,0xaa,0x52,0xc5,0xa2,0x20,0x02,0xaa,0x52,0xb5,0x2a,
 0xd5,0xa6,0xaa,0x92,0x24,0x4d,0xa5,0x54,0x69,0xa5,0x42,0x52,0x95,0x4a,0xaa,
 0x54,0x56,0x69,0x55,0x55,0x25,0xa9,0x2a,0x59,0x55,0x08,0x92,0x10,0x09,0x02,
 0x92,0x08,0x00,0x24,0x20,0xa9,0x12,0x02,0x01,0x92,0x20,0x02,0x54,0xaa,0xaa,
 0xa6,0xaa,0xa2,0x20,0xa5,0xa4,0x54,0x49,0x52,0x01,0xa9,0x96,0x54,0x4a,0xa9,
 0x54,0x09,0x55,0xd5,0x4a,0x25,0x55,0x59,0x55,0x04,0x85,0x08,0xa9,0x52,0x02,
 0x00,0x00,0x00,0x29,0x81,0x90,0x44,0x92,0x24,0x8a,0x14,0x95,0x48,0xa4,0xa2,
 0x24,0x52,0x28,0xa4,0x94,0x94,0x24,0x00,0x00,0x80,0xa4,0x54,0x4a,0x92,0x44,
 0x48,0xa9,0xca,0xaa,0xaa,0xaa,0x5a,0x95,0x88,0x80,0x08,0x21,0x02,0x00,0x02,
 0x00,0x00,0x12,0x55,0x55,0x55,0x9a,0x55,0x55,0x29,0x55,0x55,0x95,0xa2,0x52,
 0x52,0x2a,0xa5,0x94,0x54,0xaa,0x00,0x00,0x90,0xa4,0x24,0x29,0x29,0x45,0xaa,
 0xaa,0xd6,0xaa,0xaa,0xaa,0x2c,0x49,0x84,0x44,0x48,0x4a,0x49,0xb5,0xdb,0x56,
 0x2b,0x49,0x4a,0x52,0xd5,0x5a,0x91,0xaa,0xaa,0x2a,0x08,0x00,0x81,0x94,0x22,
 0x92,0x12,0x91,0x24,0x55,0x2a,0xa9,0x48,0x25,0xa5,0x4a,0x2a,0x4a,0xad,0xaa,
 0xaa,0xaa,0xa5,0xaa,0x54,0x22,0x88,0x48,0x48,0x42,0x92,0x00,0x00,0x02,0x22,
 0x80,0x10,0x00,0x80,0x20,0x00,0x10,0x10,0x00,0x08,0x11,0x22,0x89,0x45,0x12,
 0x85,0x14,0x44,0x54,0x55,0x51,0x89,0x2a,0x08,0x55,0x29,0x09,0x55,0xa5,0x4a,
 0x55,0x45,0x44,0x11,0x24};
