#define noname_width 235
#define noname_height 160
static char noname_bits[] = {
 0x20,0x44,0x20,0x10,0x44,0x40,0x44,0x10,0x11,0x49,0x24,0x4a,0xa4,0x54,0x44,
 0x52,0x91,0x22,0x91,0x88,0x10,0x45,0x02,0x09,0x09,0x10,0x08,0x21,0x42,0x00,
 0x04,0x11,0x0a,0x45,0x11,0x2a,0x22,0x8a,0x48,0x92,0x92,0x92,0x12,0x02,0x29,
 0x15,0x8a,0x48,0x4a,0x52,0x4a,0x21,0x51,0x52,0x42,0x45,0xa5,0x88,0x94,0x02,
 0x10,0x40,0x20,0x10,0x44,0x41,0x89,0x24,0xa5,0x24,0x49,0x24,0xa5,0xb4,0x92,
 0xa0,0x54,0x95,0x24,0x85,0x24,0x8a,0x24,0x41,0x14,0x12,0x12,0x25,0x21,0x04,
 0x84,0x14,0x0a,0x85,0x22,0x14,0x50,0x92,0x10,0x52,0x52,0xa9,0x90,0x4a,0x24,
 0x55,0x22,0x22,0x89,0x28,0x49,0x51,0x12,0x2a,0xa1,0xa4,0x44,0x48,0x14,0x01,
 0x10,0x42,0xa0,0x10,0x88,0xa0,0x82,0x24,0xa5,0x8a,0x24,0x45,0x55,0x24,0x49,
 0x92,0x94,0x94,0x24,0xa5,0x12,0x8a,0xa4,0x88,0x14,0x09,0x91,0x22,0xa1,0x04,
 0x85,0x10,0x09,0x84,0x22,0x15,0x28,0x89,0x28,0x51,0x92,0x28,0x0a,0x89,0x92,
 0x24,0x42,0x42,0x92,0x10,0x44,0x21,0x11,0x22,0x42,0xa2,0x48,0x08,0x14,0x01,
 0x10,0x44,0xa0,0x28,0x88,0xa0,0x92,0x24,0x45,0x4a,0x25,0xa5,0x68,0x25,0x25,
 0x49,0x29,0x95,0x24,0xa5,0x92,0x94,0xa4,0x94,0x94,0x48,0x92,0x52,0x21,0x02,
 0x44,0x01,0x14,0x42,0x22,0x4a,0x24,0x90,0x28,0x91,0x48,0x49,0x12,0xa8,0x50,
 0x92,0x94,0x48,0x92,0x48,0x48,0x24,0x12,0x21,0x22,0x12,0x24,0x04,0x8a,0x00,
 0x10,0x54,0x41,0x08,0x89,0x10,0x91,0x4a,0xa2,0x4a,0x92,0xa4,0xca,0x22,0x25,
 0x25,0x21,0xa5,0x24,0x25,0x95,0x92,0x48,0x8a,0x44,0x49,0x91,0xa8,0x50,0x02,
 0x02,0x00,0x12,0x42,0x20,0x8a,0x04,0x91,0x14,0x90,0x4a,0x12,0x21,0x95,0x4a,
 0x91,0x94,0x12,0x92,0x48,0x42,0x44,0x92,0x20,0x29,0x22,0x04,0x05,0x0a,0x01,
 0xa8,0x12,0x48,0x09,0x85,0x20,0x52,0x22,0xa9,0x4a,0x94,0xa4,0x4a,0x24,0x14,
 0x4a,0x25,0xa4,0x24,0x25,0xa9,0x92,0x24,0x95,0x84,0x88,0x52,0xa8,0x50,0x04,
 0x00,0x84,0x02,0xa0,0x20,0x4a,0x91,0x94,0x04,0xa5,0x42,0x52,0x28,0xa9,0xa2,
 0x92,0x90,0x92,0x92,0x48,0x12,0x24,0x49,0x44,0x50,0x44,0x08,0x22,0x0a,0x01,
 0x12,0x10,0x54,0x05,0x95,0x10,0x4a,0x22,0xa9,0x88,0x94,0x8a,0x52,0x45,0x95,
 0x24,0x55,0x49,0x2a,0x25,0xa9,0x92,0x84,0x12,0x85,0x92,0x52,0x49,0xa1,0x04,
 0x84,0x22,0x01,0x50,0x40,0x44,0x01,0x48,0x24,0x25,0xa9,0xa4,0x8a,0x28,0x42,
 0x92,0x24,0xa4,0x84,0x90,0x44,0x24,0x51,0x44,0x51,0x24,0x04,0x12,0x14,0x00,
 0x10,0x08,0xa4,0x84,0x8a,0x12,0xaa,0x92,0x92,0xa8,0x24,0x29,0x51,0x52,0x29,
 0x55,0x49,0x89,0x52,0x25,0x8a,0x92,0x24,0x29,0x8a,0x48,0xa9,0x48,0xa1,0x02,
 0x84,0x22,0x09,0x21,0x20,0x84,0x80,0x48,0x24,0x15,0x4a,0x92,0x94,0x8a,0x94,
 0x08,0x24,0x55,0x28,0x48,0x51,0x04,0x09,0x82,0x20,0x12,0x22,0x22,0x0a,0x00,
 0x10,0x80,0x20,0x94,0x4a,0x51,0x2a,0x25,0x49,0xa0,0x28,0x25,0x25,0x29,0x49,
 0x65,0x95,0x20,0x45,0x25,0x22,0xa9,0xa4,0x28,0x45,0xa1,0x48,0x49,0x51,0x05,
 0x82,0x28,0x08,0x41,0x20,0x08,0x91,0x48,0x12,0x55,0x45,0x92,0x48,0x92,0xa4,
 0x10,0x22,0x95,0x92,0x92,0x94,0x24,0x10,0x45,0x28,0x0a,0x12,0x12,0x88,0x00,
 0x48,0x82,0xa2,0x84,0x96,0x52,0x4a,0x22,0x49,0x8a,0x94,0x54,0xa5,0xa4,0x12,
 0xd5,0x54,0x52,0x24,0x4a,0x49,0x92,0x4a,0x28,0x41,0xa8,0xa4,0x48,0x25,0x02,
 0x02,0x20,0x08,0x50,0x48,0x84,0x00,0x49,0x22,0x21,0x49,0x89,0x48,0x12,0x49,
 0x05,0x85,0x24,0x4a,0x21,0x92,0x44,0x22,0x85,0x94,0x02,0x01,0x12,0x00,0x01,
 0xa8,0x84,0xa0,0x82,0x92,0x28,0x2a,0x12,0x49,0x55,0x92,0x52,0x95,0xa4,0x24,
 0xaa,0x28,0x49,0x51,0x4a,0x49,0x92,0x94,0x28,0x22,0x54,0x54,0xa1,0xaa,0x04,
 0x02,0x21,0x0a,0x50,0x24,0x02,0x89,0x44,0x92,0x10,0x49,0x24,0x44,0x52,0x52,
 0x21,0xa5,0x92,0x94,0x24,0x92,0x28,0x41,0x12,0x11,0x09,0x09,0x0a,0x11,0x01,
 0x08,0x14,0xa0,0x8a,0x4a,0xa9,0x24,0x29,0x49,0x4a,0x92,0x4a,0xa9,0x8a,0x44,
 0x4a,0x12,0x49,0x22,0x49,0x49,0x42,0x8a,0xa4,0xa4,0xa4,0xa4,0x50,0x44,0x04,
 0x40,0x41,0x09,0x40,0x29,0x04,0x90,0x44,0x24,0x25,0x55,0xa2,0x14,0x51,0x2a,
 0xa9,0xa4,0x24,0x95,0x24,0x92,0x94,0x20,0x09,0x09,0x11,0x08,0x0a,0x12,0x01,
 0x12,0x04,0x24,0x95,0x92,0x52,0x25,0x91,0x92,0x48,0x48,0x15,0xa9,0x4a,0x91,
 0x12,0x49,0x4a,0x48,0x92,0x44,0x22,0x95,0x50,0x24,0xa2,0xa2,0x50,0x49,0x04,
 0x04,0x21,0x41,0x50,0xaa,0x88,0x48,0x4a,0x48,0x52,0x25,0x48,0x45,0x24,0x4a,
 0xa4,0x94,0x22,0x25,0x49,0x22,0x49,0x22,0x0a,0x92,0x14,0x28,0x05,0x10,0x01,
 0x50,0x84,0x04,0xa5,0x44,0x12,0x21,0x11,0x25,0x85,0x4a,0x95,0x94,0x52,0xa9,
 0x92,0x22,0xa9,0x54,0x12,0x49,0x24,0x49,0x51,0x49,0xa0,0x42,0x54,0x45,0x04,
 0x02,0x20,0xa0,0x4a,0x32,0x45,0x0a,0xa4,0x92,0xa8,0x90,0x42,0x22,0x29,0x8a,
 0x24,0x51,0x4a,0x82,0xa4,0x94,0x12,0x12,0x88,0x20,0x4a,0x28,0x21,0x10,0x01,
 0x48,0x85,0x4a,0x94,0x4a,0x29,0xa4,0x08,0x24,0x25,0x25,0x55,0x55,0x42,0x51,
 0x4a,0x4a,0x91,0x54,0x12,0x49,0xa4,0x48,0x25,0x4a,0x11,0x85,0x44,0xa5,0x04,
 0x01,0x20,0xa0,0x42,0xb5,0x04,0x49,0x52,0x49,0x92,0x54,0x92,0x10,0x59,0x2a,
 0x91,0x24,0x4a,0x12,0x89,0x22,0x12,0x45,0x92,0x22,0x88,0x20,0x11,0x08,0x00,
 0x94,0x84,0x5a,0x29,0x49,0x55,0x20,0x89,0x92,0x24,0x89,0x24,0xa5,0x22,0x41,
 0x25,0x49,0x91,0xa4,0x54,0x94,0xa4,0x28,0x49,0x94,0x52,0x8a,0xa4,0xa2,0x02,
 0x00,0x20,0x24,0x54,0x55,0x89,0x4a,0x44,0x24,0x49,0x52,0x52,0x52,0x94,0x2c,
 0x92,0x92,0x24,0x29,0x82,0x42,0x12,0x12,0x12,0x41,0x04,0x21,0x48,0x10,0x00,
 0x52,0x4a,0xd5,0x92,0xaa,0x12,0x20,0x29,0x91,0x24,0x49,0xa5,0xa4,0x52,0x51,
 0x55,0x2a,0x95,0x42,0x59,0x94,0xa4,0xa4,0x48,0x8a,0x28,0x4a,0x21,0xa5,0x02,
 0x80,0x80,0xaa,0xa4,0x54,0xaa,0x4a,0x44,0x4a,0x92,0x94,0x10,0x12,0x24,0x8a,
 0x08,0x41,0x42,0xa8,0x04,0x22,0x11,0x11,0x92,0x20,0x85,0x04,0x0a,0x08,0x00,
 0x0a,0x2a,0x95,0x4a,0x55,0x45,0x80,0x92,0x90,0x24,0x21,0xa5,0xaa,0x49,0x29,
 0xa5,0x2a,0x95,0x0a,0xa9,0x94,0x24,0x4a,0x49,0x4a,0x28,0x52,0x50,0x51,0x05,
 0x80,0x40,0xa9,0x24,0xaa,0x2a,0x2a,0x08,0x25,0x89,0x54,0xaa,0x44,0x24,0x92,
 0xa8,0x90,0x20,0x51,0x92,0x22,0x49,0x21,0x02,0x11,0x05,0x91,0x0a,0x04,0x00,
 0x24,0x4a,0xaa,0x4a,0xa9,0x4a,0x91,0x52,0x48,0x52,0x89,0x24,0x29,0x55,0x29,
 0x45,0x26,0x4d,0x4a,0x49,0x54,0x12,0xa5,0x54,0x4a,0xa8,0x24,0x50,0xa9,0x02,
 0x01,0x20,0xa5,0x52,0x54,0x55,0x44,0x04,0x25,0x49,0x54,0x92,0x94,0x22,0x44,
 0x29,0x91,0x92,0x22,0x24,0x89,0xa4,0x10,0x09,0x91,0x12,0x12,0x05,0x04,0x00,
 0x48,0x92,0x2a,0x89,0x52,0x95,0x12,0xa9,0x94,0xa4,0xa2,0x24,0x49,0x94,0x29,
 0x92,0x4a,0x24,0x94,0x92,0x52,0x12,0x45,0xa4,0x44,0x44,0xa9,0xa8,0x52,0x05,
 0x00,0x20,0xa9,0x24,0xa4,0x56,0x40,0x04,0x21,0x29,0x14,0x92,0xa4,0x4a,0x4a,
 0x49,0x91,0x92,0x42,0x49,0x84,0x88,0x90,0x22,0x12,0x21,0x20,0x05,0x00,0x00,
 0x52,0x42,0x52,0x89,0xa8,0xaa,0x2a,0xa9,0x94,0x42,0xc9,0x2a,0x95,0x90,0x24,
 0x25,0x2a,0xa9,0x14,0x22,0x29,0x25,0x25,0x94,0x48,0x4a,0x95,0xa8,0xaa,0x02,
 0x04,0x94,0x94,0x44,0x4a,0x15,0x41,0x12,0x49,0x28,0x25,0x91,0x22,0x55,0x52,
 0x92,0x84,0x04,0xa5,0x94,0x44,0x48,0x92,0x42,0x92,0x10,0x42,0x42,0x10,0x00,
 0x90,0x20,0x51,0x12,0x51,0xab,0x14,0x49,0x92,0x4a,0x92,0x24,0x49,0x4a,0x89,
 0xa4,0x2a,0xa9,0x48,0x22,0x89,0x92,0x44,0x14,0x41,0xa2,0x54,0x89,0xa2,0x02,
 0x00,0x42,0x08,0x49,0xaa,0x2a,0x41,0x82,0x44,0x22,0x29,0x95,0xaa,0x22,0x24,
 0x49,0x44,0x4a,0x24,0x91,0x24,0x21,0x91,0x42,0x2a,0x09,0x92,0x24,0x08,0x00,
 0x12,0x08,0xa5,0x24,0xa1,0x4a,0x14,0x54,0x92,0x54,0xa2,0x28,0x11,0x55,0x55,
 0x92,0x52,0x91,0x4a,0x4a,0x52,0x8a,0x24,0x14,0x11,0x52,0xa9,0x92,0x52,0x01,
 0x40,0x42,0x22,0x92,0x94,0x24,0x45,0x89,0x24,0x89,0x14,0x45,0x4a,0x91,0x22,
 0x29,0x29,0x24,0x11,0x21,0x09,0x21,0x89,0x42,0x84,0x84,0x94,0x00,0x00,0x02,
 0x04,0x11,0x49,0x29,0x52,0x55,0x28,0x12,0x49,0x52,0xa9,0x54,0x29,0x4a,0x54,
 0xa2,0x44,0x95,0xa4,0x4a,0xa4,0x94,0x24,0x94,0x52,0x52,0xaa,0xaa,0x2a,0x00,
 0x41,0x40,0x10,0x44,0x49,0x2a,0x85,0x44,0x92,0x24,0x44,0x92,0x44,0x95,0x12,
 0x15,0x29,0x22,0x49,0x94,0x12,0x25,0x89,0x42,0x24,0x08,0x52,0x42,0x80,0x02,
 0x14,0x12,0xa5,0xaa,0x92,0xa4,0x28,0x91,0x24,0x49,0x95,0x24,0x95,0x48,0xaa,
 0xa8,0x52,0x49,0x92,0x22,0xa4,0x08,0x52,0x14,0x91,0xa2,0xaa,0x14,0x55,0x04,
 0x80,0x00,0x08,0x41,0xa4,0x12,0x45,0x24,0x49,0x92,0xa2,0x92,0x22,0x25,0x21,
 0x45,0x08,0x92,0x24,0x90,0x12,0xa2,0x08,0xa2,0x24,0x10,0xa8,0x42,0x00,0x01,
 0x04,0xaa,0xa2,0x94,0x0a,0x55,0x12,0x49,0x24,0x25,0x15,0x55,0xac,0x54,0x4a,
 0x2a,0x55,0x49,0x42,0x25,0x49,0x49,0xa5,0x08,0x42,0x45,0x55,0x95,0x2a,0x02,
 0x40,0x00,0x10,0xaa,0x52,0xa9,0x44,0x12,0x89,0x90,0xa0,0x88,0x12,0x09,0x95,
 0x84,0x42,0xf6,0xff,0x15,0x20,0x12,0x48,0xa4,0x10,0x90,0x54,0x21,0x80,0x00,
 0x12,0x49,0xa2,0x54,0x4a,0x4a,0x12,0x49,0x52,0x4a,0x4d,0x55,0x4a,0x52,0x52,
 0x29,0x2a,0xed,0xbf,0x4a,0x45,0x48,0x91,0x82,0x4a,0x45,0xaa,0x84,0x2a,0x02,
 0x04,0x02,0x08,0x49,0x91,0x2a,0x49,0x22,0x09,0x25,0x92,0x24,0x51,0x49,0x09,
 0x52,0x41,0xff,0xfd,0xff,0x2a,0x45,0x24,0x28,0x90,0x90,0x54,0x49,0x80,0x00,
 0x50,0xa8,0xa4,0x54,0x25,0xa9,0x24,0x49,0xa4,0x48,0x29,0x55,0x8a,0x92,0x54,
 0x45,0xaa,0xfe,0xff,0xbf,0xaa,0x94,0x42,0x91,0x42,0x4a,0xaa,0x24,0x15,0x05,
 0x01,0x01,0x01,0x52,0x52,0x25,0x11,0x92,0x22,0x95,0x84,0x88,0x52,0x54,0xa2,
 0x90,0xd4,0xff,0xef,0xff,0xff,0xb7,0x5a,0x4a,0x11,0x84,0x54,0x02,0x40,0x00,
 0x04,0x04,0x54,0xa4,0x8a,0x5a,0x4a,0x24,0x94,0x50,0xb2,0x52,0xa2,0xa2,0x94,
 0x2a,0xd1,0xff,0xff,0xff,0xaf,0x6d,0xa5,0x2a,0x42,0x51,0xaa,0x54,0x25,0x01,
 0x48,0x21,0x81,0x52,0x52,0x04,0x11,0x89,0x42,0x0a,0x49,0x94,0x54,0x14,0x4a,
 0x94,0xea,0xff,0xff,0xff,0xff,0xff,0x7f,0xd5,0x09,0x08,0x21,0x01,0x08,0x02,
 0x00,0x04,0x24,0xa4,0xa4,0xba,0xa4,0x24,0x2a,0xa9,0x92,0x22,0x89,0x52,0x91,
 0x22,0xf2,0xff,0xff,0xff,0xff,0xdb,0xad,0xad,0x22,0xa2,0x54,0xaa,0x22,0x00,
 0x92,0x40,0x01,0x91,0x2a,0x25,0x09,0x41,0x89,0x44,0x24,0xa9,0x54,0x49,0x2a,
 0x49,0xf9,0xff,0x7f,0xf7,0xff,0xff,0xff,0xff,0x0f,0x50,0x8a,0x00,0x88,0x02,
 0x00,0x0a,0x24,0x4a,0x55,0x49,0x22,0x2a,0x52,0x2a,0x49,0x4a,0x89,0x94,0x50,
 0x2a,0xf6,0xdf,0xfd,0xff,0xff,0xff,0xff,0x7b,0x05,0x89,0x28,0xaa,0x20,0x00,
 0x48,0x20,0x81,0xa0,0x92,0xaa,0x94,0x08,0x11,0x41,0xa5,0x92,0x54,0xa5,0x8a,
 0x84,0xfa,0xff,0xef,0x7b,0xff,0xff,0xfb,0xff,0x5f,0x50,0x95,0x00,0x8a,0x02,
 0x02,0x81,0x14,0x4a,0xaa,0x92,0x22,0xa5,0xa4,0x2c,0x49,0x24,0x89,0x48,0x52,
 0x52,0xfa,0xff,0xff,0xff,0xf7,0xbf,0x7f,0xff,0x07,0x22,0x51,0x54,0x20,0x00,
 0x40,0x28,0x80,0x10,0x55,0x55,0x94,0x10,0x12,0x92,0x94,0x92,0x24,0x25,0x89,
 0x24,0xfd,0xfd,0x7f,0xdf,0xff,0xff,0xff,0xff,0x5f,0xa9,0x0a,0x01,0x0a,0x02,
 0x14,0x02,0x09,0xa5,0x24,0x95,0x22,0xa5,0xa4,0x48,0x52,0x4a,0xa9,0x94,0x52,
 0x4a,0xfd,0xff,0xff,0x7f,0xbf,0xff,0xf7,0xef,0x2f,0xa4,0x54,0xa8,0xa0,0x00,
 0x81,0x40,0x40,0x48,0x55,0x55,0x49,0x08,0x11,0x25,0x89,0xa4,0x24,0x42,0x14,
 0x91,0xfe,0xff,0xff,0xfb,0xf7,0xfd,0xff,0xff,0x5f,0xab,0x02,0x00,0x0a,0x02,
 0x08,0x0a,0x25,0x22,0x55,0xa9,0x2a,0xa5,0xa4,0x94,0x52,0x12,0x95,0x9a,0xa2,
 0x2a,0xff,0xff,0xff,0xff,0xff,0xff,0xff,0xff,0x5f,0x55,0x55,0x52,0x90,0x00,
 0x80,0x40,0x00,0x48,0xaa,0x4a,0x84,0x00,0x29,0x42,0x24,0xa5,0xa2,0x44,0x54,
 0x44,0xfd,0xff,0xfd,0xff,0xbd,0xbf,0xff,0xfe,0x6f,0x55,0x09,0x40,0x05,0x00,
 0x12,0x04,0xa9,0xa0,0x54,0xb5,0x29,0x55,0x42,0xa9,0x4a,0x4a,0x94,0x52,0xa1,
 0x92,0xfe,0xff,0xff,0xef,0xef,0xfb,0xff,0xbf,0x9f,0xaa,0x52,0x28,0x50,0x05,
 0x00,0x21,0x02,0x14,0xaa,0x4a,0x4a,0x92,0x54,0x14,0x91,0x90,0x4a,0x90,0x14,
 0xa8,0xff,0xff,0xff,0xfe,0xff,0xff,0xff,0xff,0xad,0x6a,0x05,0x41,0x05,0x00,
 0x24,0x84,0x28,0xa1,0x55,0x55,0x25,0x49,0x22,0xa1,0xa4,0x2a,0x91,0x26,0xa5,
 0x45,0xff,0xff,0xff,0xff,0xff,0xde,0xfd,0xff,0x5f,0x55,0x09,0x28,0x90,0x00,
 0x81,0x20,0x00,0x14,0x54,0x55,0x49,0x84,0x88,0x14,0x29,0x49,0x4a,0x51,0x52,
 0xa8,0xfe,0xff,0xff,0xff,0xfb,0xff,0x77,0xef,0x92,0x90,0x84,0x80,0x25,0x02,
 0x24,0x12,0xa5,0xa0,0xaa,0xaa,0x92,0x12,0x25,0x49,0x92,0xa4,0x94,0xa4,0x44,
 0xa5,0xff,0xff,0xff,0x7f,0xbf,0xff,0xff,0xff,0x2d,0x55,0x11,0xaa,0x80,0x00,
 0x00,0x00,0x00,0x48,0xd2,0xaa,0x4a,0x48,0x48,0xa2,0x24,0x25,0x22,0x15,0x29,
 0x49,0xff,0xff,0xff,0xff,0xff,0xbb,0xff,0xbf,0x42,0x02,0x04,0x50,0x24,0x02,
 0x24,0x49,0x2a,0x81,0x54,0x55,0x25,0x25,0x25,0x15,0x49,0x48,0x95,0xa8,0x24,
 0x92,0xff,0xff,0xff,0xff,0xff,0xff,0xbf,0xff,0x15,0xa8,0x90,0x48,0x11,0x00,
 0x00,0x80,0x00,0x28,0xaa,0xaa,0x12,0x89,0x88,0xa0,0x24,0x25,0x21,0x05,0x92,
 0x54,0xfd,0xff,0xff,0xf7,0xff,0xff,0xfb,0x6d,0x01,0x00,0x05,0x22,0x84,0x02,
 0x92,0x04,0x52,0x85,0xaa,0xaa,0x4a,0x52,0x22,0x15,0x49,0x55,0x4a,0x6a,0xa5,
 0xa2,0xff,0xff,0xff,0xfe,0xef,0xff,0xff,0xff,0x48,0x00,0x20,0x54,0x11,0x00,
 0x00,0x50,0x00,0xa0,0x6a,0x55,0x81,0x84,0x90,0xa4,0xa4,0x08,0x29,0x91,0x48,
 0xa8,0xff,0xff,0xff,0xff,0xff,0xbf,0xff,0xbf,0x01,0x00,0x89,0x2a,0x42,0x02,
 0x4a,0x02,0x49,0x42,0x55,0xab,0x2a,0x29,0x25,0x49,0x95,0x52,0xa5,0x4a,0x92,
 0xd2,0xff,0x7f,0xff,0xff,0xff,0xfd,0xef,0xff,0x00,0x20,0x20,0x44,0x08,0x01,
 0x10,0x20,0x02,0xf0,0xae,0x54,0x41,0x42,0x48,0x24,0x22,0x89,0x48,0x24,0xa5,
 0xe4,0xff,0xff,0xff,0xff,0xfe,0xff,0xff,0xfb,0x00,0x00,0x94,0x92,0x42,0x00,
 0x40,0x09,0xa8,0x5a,0xab,0xab,0x94,0x94,0x92,0x92,0x94,0x54,0x92,0x92,0x14,
 0x69,0xff,0xff,0xff,0xff,0xff,0xef,0xfd,0xff,0x10,0x80,0x22,0x25,0x08,0x01,
 0x09,0x80,0x02,0xfa,0x55,0xaa,0x0a,0x22,0x24,0x24,0x45,0x22,0xa9,0x48,0x42,
 0xea,0xff,0xff,0xff,0xff,0xef,0xff,0xbf,0xff,0x02,0x22,0x94,0x12,0x42,0x00,
 0x20,0x55,0xa8,0x6e,0xab,0x55,0xa1,0x44,0x91,0x92,0x28,0x95,0x02,0xa5,0x94,
 0xe8,0xff,0xff,0xff,0xff,0xff,0xff,0xff,0xff,0x08,0x80,0x52,0x4a,0x08,0x05,
 0x08,0x00,0x82,0xfe,0x5d,0xaa,0x54,0x12,0x44,0x48,0x92,0x48,0xb4,0x12,0x52,
 0xea,0xff,0xff,0xff,0xff,0x7f,0xff,0xff,0xf7,0x41,0x21,0x49,0x01,0x42,0x00,
 0x22,0x41,0xa8,0xfe,0x53,0xb5,0x82,0xa4,0x92,0x92,0x24,0xa5,0x42,0xa4,0xa4,
 0xf4,0xff,0xff,0xff,0xef,0xff,0xff,0xfb,0xff,0x14,0x44,0xaa,0xaa,0x08,0x01,
 0x00,0x10,0x82,0xbf,0xb6,0xaa,0x6a,0x49,0x24,0x49,0x92,0x22,0x94,0x4a,0x12,
 0xe9,0xff,0xff,0xff,0xff,0xff,0xdf,0xbf,0xff,0x4b,0x11,0x4a,0x01,0x40,0x00,
 0x4a,0x85,0xa8,0xfb,0xad,0x6a,0x95,0x82,0x48,0xa4,0x24,0x4a,0x29,0xa9,0xa4,
 0xf4,0xff,0xff,0xbf,0xff,0xff,0xff,0xff,0x7f,0x90,0x44,0xa9,0x2a,0x25,0x02,
 0x00,0x20,0xc0,0xfe,0x5b,0x55,0x7b,0x55,0x12,0x29,0x4a,0x51,0x4a,0x12,0x12,
 0xf5,0xff,0xff,0xff,0xb7,0xfb,0xff,0xff,0xdf,0x4b,0x2a,0x55,0x01,0x80,0x00,
 0x92,0x84,0xaa,0x6f,0xb7,0xb6,0x56,0x89,0xa4,0x42,0xa9,0x4a,0x91,0xa4,0xa4,
 0xf4,0xff,0xff,0xff,0xff,0xff,0xff,0xff,0x7b,0x94,0x50,0xaa,0xa4,0x04,0x02,
 0x00,0x20,0xc0,0xff,0xdf,0xd5,0xaa,0x6a,0x13,0x28,0x04,0x24,0x24,0x49,0x12,
 0xfa,0xff,0xff,0xff,0x07,0x04,0x52,0xd5,0xae,0x42,0x4a,0x55,0x01,0x50,0x00,
 0x54,0x82,0xd4,0xfe,0x6a,0xaa,0x5d,0x55,0x49,0x45,0xa9,0x52,0x49,0x92,0xa4,
 0xf4,0xff,0xff,0xff,0x57,0xf9,0xfd,0xff,0x5b,0x55,0x95,0xaa,0x48,0x02,0x01,
 0x01,0x28,0xe0,0xef,0xbf,0xb5,0xa6,0xfe,0x95,0x90,0x24,0x89,0xa4,0x24,0x49,
 0xfa,0xff,0xff,0xff,0x07,0x00,0x42,0x84,0xa4,0x08,0x51,0x55,0x02,0x40,0x00,
 0x48,0x81,0xaa,0xff,0x6f,0x55,0xa9,0xfe,0x45,0x4a,0x92,0x24,0x49,0x4a,0x92,
 0xfa,0xff,0xff,0xff,0xab,0x4a,0x54,0x75,0x2b,0x51,0xaa,0xaa,0x28,0x09,0x05,
 0x02,0x24,0xe8,0xff,0xdf,0xd6,0xd6,0xfb,0x17,0x11,0x49,0x92,0x24,0xa1,0xa4,
 0xfc,0xff,0xff,0xfb,0x07,0x10,0x01,0x08,0x00,0x88,0x94,0x54,0x02,0x42,0x00,
 0x48,0x80,0xf0,0xef,0x7f,0x55,0x55,0xff,0x49,0xa4,0x24,0x29,0x95,0x8a,0x12,
 0xf5,0xff,0xff,0xff,0x55,0x42,0xaa,0x52,0x55,0x25,0xa1,0xaa,0x48,0x08,0x01,
 0x00,0x24,0xd4,0xfe,0xbd,0xab,0xb5,0xff,0x27,0x12,0x91,0x84,0xa0,0x50,0x48,
 0xfd,0xff,0xff,0xff,0x07,0x14,0x00,0x04,0x00,0x00,0x4a,0x24,0x82,0x44,0x00,
 0x92,0x90,0xf0,0xff,0x7f,0x55,0xd5,0xf6,0x57,0xa4,0x24,0xa9,0x0a,0x95,0x12,
 0xfd,0xff,0xff,0xff,0x52,0xa1,0xaa,0x50,0x55,0x55,0xa8,0x4a,0x28,0x12,0x05,
 0x00,0x04,0x94,0xff,0xaf,0x6a,0xad,0xda,0x0f,0x11,0x92,0x24,0xa9,0x24,0x89,
 0xfe,0xff,0xff,0xff,0x01,0x08,0x00,0x25,0x00,0x00,0x02,0x11,0x05,0x40,0x00,
 0xa4,0xa0,0xd2,0xff,0x7f,0x5b,0x75,0xf7,0xab,0x44,0x49,0x4a,0x12,0x49,0x52,
 0xfd,0xff,0xff,0xff,0x23,0xa1,0x2a,0x80,0xaa,0xaa,0xa8,0x24,0x90,0x12,0x01,
 0x01,0x09,0x60,0x7b,0xd7,0xad,0xd6,0xfa,0x2f,0x20,0x12,0x91,0xa4,0x92,0x48,
 0xff,0xff,0xff,0xff,0x0a,0x08,0x80,0x54,0x00,0x00,0x02,0x09,0x25,0x40,0x00,
 0x24,0x80,0xd4,0xff,0xbf,0xb6,0x55,0xeb,0xaf,0x8a,0x48,0x4a,0x12,0x24,0x55,
 0xff,0xff,0xff,0xff,0xa1,0xa2,0x2a,0x02,0x55,0x95,0x48,0xa4,0x80,0x12,0x01,
 0x00,0x00,0x20,0xfe,0xed,0x6f,0xfb,0xfe,0x3f,0x20,0x92,0x24,0x49,0x89,0xae,
 0xff,0xff,0xef,0xff,0x15,0x10,0x80,0xa8,0x00,0x20,0x12,0x01,0x24,0x04,0x02,
 0x00,0x00,0xc0,0xff,0xbf,0xba,0xed,0xdd,0x97,0x8a,0x24,0x49,0x92,0x24,0xab,
 0xff,0xff,0xff,0xff,0x41,0x45,0x15,0x02,0x55,0x05,0x40,0x94,0x90,0x50,0x00,
 0x00,0x48,0x10,0xf4,0xd7,0xff,0xbf,0xf7,0xfd,0x6d,0x00,0x00,0x20,0x42,0xff,
 0xff,0xff,0xff,0xfd,0x11,0x10,0x80,0x48,0x00,0x48,0x15,0x21,0x04,0x00,0x01,
 0x4a,0x01,0xa1,0xfb,0xbf,0xb7,0xed,0x7f,0xaf,0x9a,0xa4,0xaa,0x8a,0x94,0xff,
 0xff,0xff,0xff,0xff,0x02,0x41,0x29,0x22,0x95,0x20,0x40,0x84,0x50,0x15,0x04,
 0xab,0x7a,0x5d,0xbd,0xed,0xfe,0xff,0xff,0xff,0x7f,0x5b,0x4a,0xf5,0xff,0xff,
 0xfe,0xbf,0xff,0xff,0x09,0x00,0x00,0x00,0x00,0x04,0x00,0x00,0x00,0x00,0x00,
 0xaa,0x4a,0xa5,0xea,0xbf,0xff,0xff,0xde,0xfb,0xf7,0xaa,0xaa,0xee,0xbf,0xff,
 0xff,0xff,0xff,0xbf,0x20,0x12,0x81,0x00,0x20,0x80,0x12,0x11,0x01,0xa0,0x00,
 0xaa,0x6a,0x55,0x7b,0xdb,0xff,0xf7,0xff,0xff,0xfe,0xff,0xff,0xff,0xff,0xfd,
 0xff,0xff,0xfd,0xff,0x95,0xa9,0x6c,0xda,0x56,0x55,0xa4,0xa4,0x94,0x0a,0x02,
 0x55,0x55,0xd5,0xd6,0x6f,0xff,0xff,0xff,0xee,0xbf,0x6f,0xfb,0xfb,0xf6,0xef,
 0xff,0xff,0xdf,0xff,0x2a,0xaa,0x92,0x22,0x89,0xaa,0x4a,0x0a,0x21,0x50,0x00,
 0x55,0x5b,0x55,0xd5,0xfa,0xbd,0xbf,0xf7,0xff,0xf7,0xfd,0xdf,0xfe,0xbf,0xff,
 0xff,0xfb,0xff,0x7b,0xd5,0x55,0x6d,0xbd,0x6a,0x55,0xb5,0xea,0xae,0xaf,0x07,
 0xaa,0xaa,0xaa,0xda,0xd7,0xff,0xff,0xbf,0xbf,0xff,0xff,0xfb,0xef,0xff,0xff,
 0x7e,0xff,0xff,0xff,0x54,0x55,0x95,0xa2,0xaa,0xaa,0xaa,0x15,0xa9,0x68,0x05,
 0x55,0x55,0x55,0xa5,0x74,0xff,0xff,0xff,0xff,0xff,0x7f,0xff,0xbf,0xed,0xfb,
 0xff,0xff,0xff,0x7f,0xab,0xaa,0x6a,0x5d,0x55,0x55,0x55,0xd5,0xb6,0xb6,0x05,
 0xaa,0xaa,0xaa,0x5a,0xdb,0xff,0xff,0xff,0xf7,0xef,0xee,0xff,0xff,0xff,0xff,
 0xff,0xff,0xff,0xff,0x54,0x55,0x95,0xaa,0xaa,0xaa,0xaa,0xaa,0xaa,0x6a,0x03,
 0xaa,0x6e,0xdb,0xad,0xad,0xff,0xfb,0xfd,0xff,0xfd,0xff,0xdf,0xf6,0xfe,0xbe,
 0xff,0xbf,0xf7,0xfb,0xaa,0xaa,0xaa,0xaa,0xad,0xaa,0xaa,0xaa,0xaa,0xaa,0x05,
 0xd5,0x5a,0x35,0xb5,0xea,0xff,0xff,0xff,0xfe,0xff,0xff,0xfe,0xff,0xb7,0xff,
 0xff,0xff,0x7f,0xbf,0x55,0x55,0x55,0xb5,0xaa,0xaa,0x5a,0x55,0x55,0x55,0x03,
 0x00,0x00,0x00,0x00,0x90,0xfe,0xff,0xff,0xff,0xff,0xef,0xf7,0xbf,0xff,0xff,
 0xff,0xff,0xff,0xff,0xb5,0xaa,0xaa,0x56,0x55,0x55,0xab,0xaa,0xaa,0xda,0x06,
 0x00,0x00,0x00,0x00,0xc0,0xff,0xff,0xef,0xff,0xdf,0xfd,0xbf,0xed,0xfd,0xff,
 0xf7,0xff,0xff,0x7f,0xad,0xaa,0xaa,0xaa,0xaa,0xaa,0x6a,0x55,0x55,0x55,0x05,
 0x08,0x00,0x00,0x40,0x22,0xff,0xff,0xff,0xff,0xfb,0xff,0xff,0xff,0xef,0xf7,
 0x7f,0xff,0xff,0xff,0xa2,0xaa,0x6a,0x6d,0xdb,0xb6,0xb5,0xae,0xaa,0xb6,0x05,
 0xa2,0x2a,0xa5,0x04,0xc8,0xff,0xff,0xff,0xff,0xff,0xdf,0xfe,0x7f,0x7f,0xff,
 0xff,0xff,0xfb,0xff,0xac,0xaa,0xaa,0xd5,0xb6,0xaa,0xd6,0x6a,0xdb,0x6a,0x03,
 0x00,0x00,0x00,0x10,0x01,0xfa,0xff,0xff,0x7f,0xff,0xff,0xbb,0xfb,0xff,0xff,
 0xff,0xbf,0xbf,0xf7,0x01,0x00,0x00,0x00,0x00,0x00,0x00,0x00,0x00,0x00,0x00,
 0x00,0x00,0x00,0x40,0x24,0xff,0xff,0xff,0xff,0xbf,0xff,0xff,0xef,0xed,0x7f,
 0xff,0xff,0xff,0x7f,0x00,0x00,0x00,0x00,0x00,0x00,0x00,0x00,0x00,0x00,0x00,
 0x10,0x00,0x40,0x02,0x80,0xfe,0xff,0xff,0xfb,0xff,0xf7,0xef,0xfe,0xff,0xff,
 0xff,0xfb,0xff,0xff,0x11,0x49,0x29,0x11,0x20,0x55,0x42,0x44,0x20,0x12,0x00,
 0x40,0x92,0x04,0x08,0x22,0xff,0xff,0x7f,0xff,0xfe,0x7f,0xff,0xbf,0xbf,0xfb,
 0xff,0xff,0xff,0xfd,0x44,0x12,0x82,0x44,0x55,0x0a,0x14,0x11,0x85,0x48,0x05,
 0x08,0x00,0x90,0x80,0x80,0xfe,0xff,0xff,0xff,0xf7,0xff,0xff,0xf7,0xf7,0xff,
 0xff,0xff,0xff,0xff,0x00,0x00,0x00,0x00,0x00,0x80,0x00,0x00,0x00,0x00,0x00,
 0x42,0x49,0x00,0x22,0x24,0xff,0xff,0xff,0xff,0xff,0xff,0xff,0xfe,0xfe,0xdf,
 0xdd,0xff,0xfb,0x7f,0x08,0xa1,0x48,0x48,0xa8,0x0a,0x20,0x21,0x12,0x00,0x00,
 0x10,0x24,0xad,0x14,0x49,0xfd,0xff,0xff,0xff,0xff,0xff,0xfb,0xff,0xff,0xff,
 0xff,0xff,0xbf,0xdf,0x42,0x08,0x10,0x02,0x02,0x40,0x0a,0x84,0x40,0x4a,0x02,
 0x40,0x91,0x50,0x42,0x84,0xfe,0xff,0xff,0xff,0xbf,0xef,0xdf,0xdf,0xdf,0xfe,
 0xff,0xdf,0xff,0x7f,0x10,0x42,0x82,0x28,0x01,0x12,0xa0,0x00,0x02,0x00,0x00,
 0x04,0x00,0x84,0x90,0x22,0xfe,0xff,0xfe,0x7f,0xff,0xff,0xff,0xff,0xff,0xff,
 0xff,0xfe,0xff,0xff,0x01,0x00,0x20,0x00,0xa8,0x00,0x12,0xa8,0x90,0x52,0x02,
 0x10,0xaa,0x12,0x55,0x4a,0xff,0xff,0xdf,0xff,0xff,0xff,0xff,0xff,0xfe,0xff,
 0xff,0xff,0xff,0x7f,0x48,0x88,0x02,0x49,0x01,0x4a,0x41,0x05,0x42,0x08,0x00,
 0x82,0x00,0x40,0x00,0x50,0xfd,0xff,0xff,0xef,0xff,0xff,0xff,0xf7,0xff,0xbf,
 0xfb,0xff,0xff,0x7f,0x00,0x22,0x28,0x00,0x88,0x00,0x10,0x40,0x10,0x40,0x02,
 0x10,0x02,0x12,0x49,0x85,0xfe,0xff,0xff,0xff,0xff,0xff,0xf7,0xff,0xff,0xff,
 0xff,0xef,0x7b,0x5f,0x92,0x00,0x80,0x52,0x21,0x24,0x42,0x04,0x09,0x09,0x01,
 0x00,0x40,0x00,0x00,0x90,0xfe,0xff,0xff,0xff,0xb7,0xef,0x7f,0xff,0xb7,0xff,
 0xff,0xff,0xff,0x7f,0x24,0xaa,0x2a,0x08,0x14,0x81,0x08,0x21,0x00,0x00,0x00,
 0x00,0x08,0x40,0x92,0x44,0xfb,0xff,0xff,0xff,0xff,0xff,0xfe,0xff,0xff,0xfb,
 0xff,0xff,0xff,0x5f,0x91,0x10,0x41,0xa1,0x40,0x14,0x22,0x00,0x22,0x91,0x00,
 0x20,0x02,0x08,0x00,0x00,0x6c,0xfd,0xff,0xff,0xff,0xff,0xff,0xef,0xfe,0xff,
 0xf7,0xff,0xff,0x3f,0xa5,0xaa,0x2a,0x14,0x95,0x42,0x08,0x94,0x00,0x04,0x02,
 0x04,0x20,0x01,0x48,0xa9,0xfe,0xff,0xff,0xef,0xfe,0xff,0xff,0xff,0xff,0xff,
 0x7f,0xff,0xff,0xaf,0x2a,0x45,0x4a,0x21,0x12,0x04,0xa1,0x00,0x88,0x20,0x00,
 0x80,0x00,0xa0,0x92,0x44,0x55,0xed,0xff,0xff,0xff,0xfb,0xff,0xff,0xff,0x7f,
 0xff,0xbb,0xff,0x3f,0x90,0x90,0x90,0x94,0x48,0xa9,0x08,0x49,0x02,0x80,0x00,
 0x00,0x44,0x0a,0x22,0x99,0xba,0xff,0xff,0xff,0xff,0xff,0x7f,0xff,0xff,0xff,
 0xff,0xff,0xf7,0x8e,0x4a,0x22,0x22,0x49,0x22,0x01,0x22,0x04,0x21,0x12,0x00,
 0x00,0x00,0x80,0x08,0x44,0x6d,0xd5,0xfe,0xff,0xff,0xff,0xfb,0xff,0x7b,0xff,
 0xff,0xff,0xff,0x2f,0x01,0x00,0x00,0x00,0x00,0x48,0x00,0x50,0x08,0x00,0x02,
 0x88,0x90,0x12,0xa2,0xaa,0xda,0xff,0xff,0xff,0xff,0xff,0xff,0xff,0xff,0xff,
 0xff,0xff,0xff,0x57,0x84,0x84,0x44,0x92,0x12,0x00,0xa9,0x04,0x41,0x04,0x00,
 0x00,0x04,0x80,0x00,0x00,0x75,0xff,0xff,0xff,0xff,0xff,0xff,0xff,0xff,0xff,
 0xff,0xff,0xff,0x29,0x29,0x20,0x10,0x00,0x80,0x52,0x00,0x00,0x00,0x80,0x00,
 0x20,0x00,0x24,0x94,0x54,0xda,0xfd,0xff,0xff,0xff,0xff,0xff,0xff,0xff,0xff,
 0xff,0x7f,0xff,0x47,0x42,0x05,0x81,0x54,0x12,0x00,0x09,0x51,0x84,0x10,0x02,
 0x00,0x40,0x00,0x00,0x80,0x6a,0xff,0xbf,0x6d,0x25,0x89,0x54,0x55,0x6d,0xdb,
 0xff,0xff,0xef,0x5a,0x29,0x50,0x2a,0x82,0x24,0x49,0x22,0x00,0x10,0x02,0x00,
 0x00,0x08,0x00,0x01,0x48,0xaa,0xef,0xfe,0xbf,0xdd,0x76,0xab,0xda,0xfb,0xff,
 0xff,0xff,0xff,0x2b,0x42,0x25,0x49,0x28,0x10,0x24,0x00,0x09,0x01,0x20,0x01,
 0x00,0x01,0x02,0x00,0x12,0xaa,0x32,0x03,0x40,0x00,0x00,0x40,0x04,0x04,0x20,
 0x51,0x49,0x29,0x4a,0x29,0x12,0x12,0x05,0x05,0x01,0x49,0x40,0x88,0x00,0x00,
 0x04,0x00,0x10,0x24,0xa1,0x54,0xed,0x7a,0x95,0x52,0x49,0x15,0xa9,0x90,0xaa,
 0x6e,0xb7,0xd6,0x15,0x44,0x48,0x48,0xa8,0x28,0x24,0x04,0x04,0x20,0x04,0x00,
 0x00,0x00,0x40,0x48,0x08,0x55,0x05,0x04,0x49,0x08,0x12,0x80,0x04,0x25,0x00,
 0x91,0x28,0x09,0x82,0x00,0x00,0x00,0x00,0x00,0x00,0x00,0x00,0x00,0x00,0x00,
 0x10,0x10,0x00,0x01,0x25,0x52,0xaa,0xaa,0x92,0xa2,0x48,0x55,0x52,0x88,0xaa,
 0x24,0xa5,0x52,0x29,0x24,0x41,0x00,0x01,0x00,0x00,0x00,0x00,0x00,0x00,0x00,
 0x80,0x04,0x09,0x10,0x00,0x80,0x40,0x20,0x24,0x09,0x11,0x00,0x08,0x45,0x24,
 0x92,0x48,0x48,0x04,0x00,0x10,0x04,0x00,0x00,0x00,0x00,0x00,0x02,0x80,0x00,
 0x00,0x40,0x20,0x40,0x80,0x2a,0x8a,0x8a,0x48,0x24,0x44,0x55,0x21,0x28,0x91,
 0x44,0x92,0x92,0x28,0x00,0x04,0x21,0x10,0x92,0x88,0x90,0x00,0x00,0x00,0x00,
 0x08,0x00,0x00,0x02,0x00,0x80,0x20,0x50,0x02,0x00,0x00,0x00,0x84,0x02,0x00,
 0x80,0x04,0x04,0x82,0x40,0x00,0x00,0x02,0x00,0x00,0x02,0x48,0x00,0x00,0x00,
 0x40,0x04,0x00,0x00,0x00,0x04,0x45,0x05,0xa9,0xaa,0x92,0x24,0x10,0x48,0x55,
 0x15,0x50,0x50,0x08,0x04,0x40,0x00,0x40,0x00,0x02,0x00,0x02,0x10,0x04,0x00,
 0x00,0x00,0x04,0x00,0x21,0x48,0x10,0x40,0x00,0x00,0x20,0x01,0x45,0x12,0x00,
 0x40,0x05,0x05,0x02,0x00,0x09,0x88,0x00,0x24,0x00,0x00,0x00,0x00,0x00,0x00,
 0x00,0x20,0x00,0x10,0x00,0x01,0x81,0x14,0x55,0x55,0x05,0x54,0x10,0x41,0x25,
 0x09,0x28,0x50,0x28,0x20,0x00,0x00,0x04,0x00,0x20,0x00,0x00,0x00,0x00,0x00,
 0x00,0x00,0x10,0x01,0x08,0x50,0x28,0x01,0x00,0x00,0x48,0x01,0x04,0x00,0x08,
 0x42,0x02,0x05,0x05,0x04,0x00,0x42,0x20,0x01,0x00,0x20,0x00,0x80,0x90,0x00,
 0x10,0x00,0x00,0x00,0x42,0x0a,0x01,0xa4,0x88,0x24,0x20,0x90,0x50,0x4a,0xa0,
 0x08,0x29,0x10,0xa8,0x00,0x12,0x00,0x00,0x40,0x08,0x01,0x48,0x22,0x00,0x00,
 0x00,0x00,0x00,0x00,0x00,0x40,0x04,0x00,0x00,0x00,0x00,0x00,0x00,0x00,0x01,
 0x20,0x00,0x42,0x02,0x00,0x00,0x00,0x00,0x00,0x00,0x80,0x00,0x00,0x00,0x00,
 0x00,0x01,0x00,0x10,0x00,0x00,0x90,0x00,0x04,0x00,0x01,0x02,0x01,0x00,0x04,
 0x02,0x21,0x08,0x10,0x20,0x40,0x00,0x00,0x00,0x00,0x00,0x00,0x00,0x00,0x00,
 0x00,0x48,0x84,0x00,0x00,0x10,0x01,0x88,0x40,0x24,0x90,0x20,0x80,0x24,0x40,
 0x00,0x80,0x00,0x00,0x00,0x00,0x10,0x00,0x00,0x00,0x00,0x00,0x00,0x00,0x00,
 0x00,0x00,0x00,0x00,0x90,0x04,0x24,0x01,0x04,0x01,0x02,0x08,0x04,0x00,0x10,
 0x90,0x04,0x40,0x02,0x00,0x02,0x81,0x00,0x04,0x11,0x04,0x02,0x02,0x00,0x00,
 0x20,0x00,0x00,0x04,0x02,0x40,0x00,0x20,0x11,0x00,0x00,0x80,0x20,0x10,0x04,
 0x02,0x10,0x0a,0x20,0x01,0x00,0x00,0x40,0x00,0x00,0x21,0x90,0x20,0x09,0x00};
