#define noname_width 310
#define noname_height 120
static char noname_bits[] = {
 0x00,0x00,0x00,0x00,0x00,0x40,0x00,0x42,0x00,0x00,0x81,0x00,0x20,0x44,0x00,
 0x21,0x88,0x28,0xa9,0x24,0x09,0x25,0x95,0x52,0x25,0xa5,0x52,0x52,0xa2,0xa0,
 0x90,0x20,0x84,0x08,0x08,0x21,0x11,0x01,0x10,0x20,0x00,0x41,0x92,0xa4,0x14,
 0xa9,0x10,0x52,0x55,0x24,0xa8,0x0a,0x11,0xaa,0x14,0x45,0x92,0x24,0x92,0x64,
 0x91,0x22,0x89,0x50,0x49,0x94,0x24,0x15,0x15,0x25,0x95,0x52,0x52,0x45,0x94,
 0x48,0xaa,0x0a,0x82,0x2a,0x04,0x41,0x00,0x02,0x00,0x44,0x88,0x00,0x81,0x02,
 0xa0,0xa4,0x40,0xa2,0x28,0x49,0x52,0x55,0x95,0x2a,0x55,0x2a,0x8b,0xaa,0x52,
 0x49,0x52,0x4a,0x4a,0x4a,0x8a,0x84,0x28,0x21,0x25,0x11,0x11,0x10,0x80,0x20,
 0x08,0x49,0x80,0x24,0x11,0x20,0x48,0x28,0x20,0x09,0x09,0x95,0x10,0x85,0x24,
 0x89,0x24,0x49,0x54,0x49,0xa5,0xa4,0x10,0x29,0x2a,0x29,0x51,0x91,0x22,0x51,
 0x29,0x45,0x4a,0x40,0x88,0x04,0x42,0x00,0x12,0x20,0x20,0x29,0x82,0x40,0x45,
 0x05,0x81,0x8a,0x24,0x24,0x48,0x4a,0x28,0x49,0x2a,0x49,0xaa,0x22,0x95,0x54,
 0x2a,0xab,0x42,0x49,0x92,0x8a,0x2a,0x49,0x0a,0xa5,0x28,0x11,0x15,0x25,0x12,
 0x08,0x4a,0x00,0x05,0x08,0x80,0x20,0x14,0x10,0x50,0x24,0x20,0x08,0x81,0x12,
 0x21,0x95,0x24,0xa5,0x24,0x25,0x55,0x52,0x89,0x92,0x48,0xaa,0xa4,0x4a,0x51,
 0x84,0x24,0xa1,0x08,0x85,0x88,0x88,0x88,0x08,0x20,0x00,0x49,0x90,0x22,0x25,
 0x0a,0x41,0x42,0x01,0x91,0x92,0xa0,0x54,0xa4,0x94,0x20,0x49,0x92,0xaa,0xa8,
 0x94,0x24,0x55,0xaa,0x52,0x95,0x4a,0x94,0x4a,0x29,0xa9,0x4a,0x52,0x54,0x52,
 0x52,0x22,0x11,0x04,0x42,0x00,0x02,0x00,0x00,0x40,0x88,0x20,0x48,0x00,0x00,
 0x14,0x01,0x09,0x42,0x4a,0x92,0xa4,0x44,0x4a,0x4a,0x55,0x22,0x91,0x94,0x48,
 0x24,0x45,0x90,0x54,0x4a,0x90,0x24,0x09,0x89,0x04,0x49,0x0a,0x90,0x08,0x92,
 0xa8,0x4a,0x92,0x04,0x21,0x8a,0x02,0x25,0x55,0x41,0x54,0xa4,0x94,0x24,0x49,
 0x49,0xaa,0x92,0x52,0x49,0x55,0xa5,0x52,0x55,0x49,0xa9,0x26,0xa1,0x24,0x4b,
 0x92,0xa4,0x24,0x51,0x24,0x11,0x04,0x80,0x00,0x00,0x00,0x04,0x50,0x08,0x40,
 0x50,0x48,0x00,0x12,0x02,0x01,0x21,0x92,0x24,0x94,0x12,0xa9,0x94,0x54,0x92,
 0x2a,0x89,0x88,0xaa,0x24,0x51,0x2a,0x92,0x90,0x24,0x29,0x42,0x14,0x42,0x04,
 0x20,0x09,0x92,0x22,0x92,0x50,0x01,0xa1,0x2a,0x05,0x01,0x55,0x48,0x54,0x2a,
 0x4a,0x49,0x52,0x51,0xa4,0x4a,0x25,0x49,0x55,0xa4,0x2a,0x55,0x12,0x49,0x8a,
 0xa4,0x24,0x25,0x92,0x44,0x29,0xa1,0x08,0x29,0x09,0x40,0x04,0x88,0x00,0x02,
 0x48,0x08,0x00,0x40,0x50,0x00,0x05,0x81,0x90,0x10,0x12,0x89,0x8a,0x52,0x24,
 0x52,0xa5,0x88,0x52,0x44,0x25,0x49,0xa5,0x52,0x12,0x92,0x88,0x04,0x21,0x10,
 0x14,0x52,0x02,0x40,0x02,0x50,0x00,0x92,0x10,0x21,0x21,0x55,0x15,0x05,0x25,
 0x50,0x2a,0x22,0xa5,0x48,0x52,0x54,0xa5,0xaa,0x94,0x14,0x55,0x8a,0x59,0x52,
 0x92,0x94,0xa4,0xa4,0x24,0x25,0x29,0x4a,0x45,0xa1,0x84,0x28,0x10,0x28,0x01,
 0x44,0x04,0x44,0x08,0x48,0x08,0x80,0x40,0x88,0x8a,0x80,0x88,0x08,0xa4,0x94,
 0x22,0x52,0x92,0x2a,0xa5,0xa4,0x52,0x24,0x29,0x55,0x22,0x49,0x92,0x92,0x48,
 0x42,0x21,0x92,0x14,0x29,0x04,0x82,0x00,0x24,0x11,0x11,0x10,0xa1,0x02,0x51,
 0x15,0x0a,0x21,0x20,0x2a,0x52,0x52,0x09,0x21,0x55,0xa5,0xa4,0xa4,0x54,0x15,
 0x55,0x95,0x92,0xa4,0x4a,0x92,0x24,0x24,0x25,0x29,0x4a,0x49,0x22,0xa0,0x12,
 0x20,0x04,0x01,0x40,0x40,0x05,0x08,0x20,0x0a,0x80,0x50,0x88,0x0a,0x01,0x09,
 0x84,0xa4,0x94,0x88,0x48,0xaa,0x92,0x92,0xa2,0x88,0x42,0xa9,0x12,0x29,0xa5,
 0x92,0x92,0x48,0x4a,0x29,0x92,0x48,0x15,0x04,0x04,0x51,0x94,0x02,0x09,0x50,
 0x22,0x85,0x50,0x2a,0x82,0x12,0x50,0x54,0xa4,0x52,0x92,0x2a,0x25,0x95,0x12,
 0x55,0x2a,0x55,0x55,0x9a,0x92,0xa4,0xa4,0x14,0x25,0x29,0x25,0x11,0x52,0x44,
 0x92,0xa0,0x28,0x20,0x00,0x00,0x24,0x00,0x02,0x00,0x20,0x84,0x80,0x20,0x80,
 0x0a,0x09,0x41,0x88,0x48,0x40,0x52,0x49,0xa9,0x92,0x92,0x28,0x92,0xa4,0x28,
 0x55,0x2a,0xa2,0x90,0x44,0x48,0x04,0x29,0x11,0x08,0x0a,0x05,0x82,0x44,0x49,
 0x80,0x52,0x48,0x55,0x89,0x28,0x12,0x8a,0x2a,0x20,0x22,0x2a,0x25,0x25,0xab,
 0x24,0x52,0x4a,0x2a,0xa5,0x52,0xa5,0x12,0x53,0x22,0x91,0x14,0x55,0x2a,0x25,
 0x51,0x4a,0xa2,0x52,0x50,0x28,0x10,0x10,0x00,0x22,0x00,0x02,0x00,0x22,0x02,
 0x84,0x20,0x80,0x8a,0x48,0x41,0x40,0x90,0x10,0x92,0x2a,0x25,0xa5,0x54,0x0a,
 0x51,0xa4,0x08,0x95,0xa4,0xa2,0x8a,0x82,0x48,0x84,0x90,0x14,0x84,0x0a,0x02,
 0x80,0x80,0x24,0x08,0x95,0x28,0x09,0x88,0x48,0x11,0x92,0x2a,0x50,0x22,0x14,
 0x95,0x4a,0xca,0x54,0x42,0xaa,0x48,0xa5,0x54,0x4a,0x49,0x52,0x52,0x09,0x49,
 0x28,0x54,0x22,0x01,0x26,0xa2,0x10,0xa4,0x14,0x14,0x12,0x00,0x22,0x00,0x40,
 0x40,0x01,0x12,0x80,0x04,0x00,0x85,0x10,0x42,0x22,0x91,0x24,0x8a,0x54,0x91,
 0x2a,0x29,0x4a,0x95,0x54,0x4d,0x09,0x52,0x12,0x85,0x92,0x94,0x10,0x91,0x08,
 0x4a,0x11,0x02,0x40,0x40,0x52,0x80,0x48,0x05,0x15,0x94,0xa0,0x2a,0x50,0x55,
 0x28,0x4a,0x29,0x49,0x4a,0x52,0x51,0x29,0x25,0x55,0xa5,0x52,0x52,0xa5,0x92,
 0xa4,0xa4,0xa4,0x28,0x49,0x22,0x42,0x4a,0x52,0x21,0x45,0x29,0x01,0x10,0x00,
 0x24,0x02,0x20,0x40,0x00,0x04,0x00,0x05,0x00,0x02,0x41,0x04,0x92,0x10,0x09,
 0x4a,0x8a,0x54,0x89,0xa8,0x94,0xa4,0xff,0xff,0xff,0x7f,0xaf,0x4a,0x10,0x89,
 0x00,0x95,0x24,0x14,0x20,0x00,0x94,0x42,0x92,0x10,0x90,0x88,0x02,0x49,0x90,
 0x24,0xa8,0xaa,0x54,0x14,0x51,0x04,0xa5,0x54,0x91,0x54,0xa9,0x52,0x95,0x22,
 0xe9,0xff,0xff,0x7f,0xab,0x59,0x25,0x45,0x24,0xa4,0x44,0x90,0x40,0x45,0x15,
 0x00,0x08,0x00,0x82,0x04,0x02,0x28,0x12,0xaf,0x82,0x02,0x00,0x01,0x82,0x24,
 0x51,0x12,0x42,0x4a,0xa2,0x14,0x28,0xa5,0x54,0xf5,0xff,0xff,0xff,0xff,0xff,
 0xff,0x12,0x00,0x00,0x12,0x25,0x2a,0x10,0x00,0x20,0x20,0x49,0x08,0x12,0x28,
 0x81,0x40,0xb4,0x28,0xa8,0x2a,0x54,0x29,0x92,0x44,0xa4,0x94,0x54,0x95,0xd2,
 0x56,0x92,0x4a,0xda,0xff,0xff,0xff,0xff,0xff,0xbf,0x4a,0x01,0x50,0x25,0x88,
 0x40,0xa5,0x2a,0x89,0x04,0x00,0x82,0x40,0x01,0x24,0x10,0x6d,0x03,0x02,0x80,
 0x02,0x82,0x08,0x91,0x12,0x29,0x89,0x24,0x29,0x22,0xa9,0x24,0xfd,0xff,0xff,
 0xff,0xff,0xff,0xff,0x1f,0x00,0x08,0x89,0x22,0x15,0x00,0x00,0x00,0x90,0x24,
 0x48,0x04,0x24,0x81,0x42,0xd5,0xa4,0x28,0x15,0x54,0x14,0x51,0x4a,0xa4,0x52,
 0x52,0x4a,0x52,0x55,0x25,0xa9,0xfe,0xff,0xff,0xff,0xff,0xff,0xfd,0x0f,0x10,
 0xa1,0x24,0x84,0xa0,0xaa,0x0a,0x44,0x02,0x80,0x02,0x90,0x00,0x24,0x10,0xb5,
 0x02,0x42,0x40,0x01,0x41,0x84,0x20,0x12,0x84,0x24,0xa1,0x0a,0x25,0x49,0x55,
 0xff,0xff,0xff,0xff,0xff,0xff,0xff,0x3f,0x44,0x14,0x42,0x21,0x14,0x00,0x00,
 0x10,0x88,0x24,0x48,0x01,0x52,0x10,0x45,0xad,0x09,0x08,0x05,0xaa,0x94,0x12,
 0x95,0xa4,0x52,0x49,0x95,0xb4,0x54,0x2a,0x92,0xfe,0xff,0x7f,0xff,0xff,0xdd,
 0xff,0x1f,0x29,0x41,0x14,0x4a,0x42,0x55,0x15,0x02,0x21,0x00,0x00,0x48,0x04,
 0x42,0x20,0xd6,0xa0,0x42,0xa0,0x00,0x21,0xa0,0x40,0x92,0x28,0x54,0x4a,0x45,
 0x25,0x45,0x49,0xff,0xff,0xff,0xff,0xff,0xff,0x7f,0x7f,0x54,0x15,0x82,0x90,
 0x10,0x00,0x00,0x48,0x84,0x4a,0x49,0x20,0x90,0x08,0x45,0xb5,0x12,0x08,0x15,
 0x15,0x8a,0x0a,0x95,0x24,0x45,0x89,0x94,0x94,0x54,0xaa,0x52,0xff,0xff,0xff,
 0xff,0xff,0xff,0xff,0x2f,0xab,0x4a,0x29,0x02,0xa2,0xaa,0x2a,0x00,0x10,0x00,
 0x00,0x04,0x02,0x20,0x10,0x55,0x45,0x42,0x40,0xa0,0x40,0x44,0x22,0x11,0x29,
 0xa5,0x42,0x49,0x4a,0x51,0x4a,0xfd,0xff,0xff,0xf7,0xff,0xff,0xee,0xff,0xa8,
 0x12,0x84,0x50,0x09,0x00,0x00,0x12,0x41,0x88,0x92,0x90,0x48,0x85,0x44,0x6d,
 0x01,0x89,0x12,0x05,0x15,0x91,0x14,0x4a,0x92,0x94,0x2c,0x55,0xa9,0x8a,0x94,
 0xff,0xff,0xff,0xff,0xff,0xff,0xff,0x5f,0xab,0x4a,0x51,0x0a,0xa4,0xaa,0x0a,
 0x40,0x10,0x22,0x00,0x04,0x00,0x00,0x81,0xaa,0x52,0x20,0x84,0xa0,0x40,0x24,
 0x40,0x21,0x49,0x49,0x52,0x42,0x12,0xa9,0x52,0xfe,0xff,0xff,0xff,0xff,0xff,
 0xff,0x7f,0xaa,0x22,0x8a,0x40,0x01,0x00,0x00,0x04,0x42,0x80,0x54,0x52,0x2a,
 0x29,0x14,0x55,0x01,0x85,0x10,0x15,0x2a,0x49,0x15,0x4a,0x12,0x92,0x44,0x95,
 0xaa,0x52,0xa5,0xff,0xff,0xff,0xff,0xf7,0xff,0xff,0x7f,0x55,0x95,0x22,0x2a,
 0xaa,0x4a,0x15,0x40,0x00,0x10,0x00,0x00,0x00,0x80,0x40,0x55,0x55,0x20,0x4a,
 0x00,0x01,0x10,0x40,0x21,0x49,0x49,0xa9,0x54,0x25,0x89,0xa8,0xff,0xff,0xff,
 0xff,0xff,0xff,0xff,0xbf,0xaa,0x6a,0x85,0x80,0x00,0x10,0x00,0x12,0x49,0x42,
 0x22,0x49,0x91,0x12,0x12,0xb5,0x02,0x95,0x20,0x55,0xaa,0xa2,0x2a,0x95,0xa4,
 0x94,0x92,0x52,0x4a,0x2a,0xa5,0xff,0xff,0xff,0xff,0xff,0xff,0xff,0xbf,0x52,
 0xa5,0x12,0x0a,0xaa,0x44,0x15,0x00,0x00,0x10,0x00,0x00,0x04,0x80,0x40,0x88,
 0x50,0x00,0x08,0x80,0x40,0x48,0x44,0x24,0x29,0x22,0xa9,0x88,0xa4,0xaa,0xd2,
 0xff,0xff,0xff,0xff,0xff,0xff,0xff,0x22,0x04,0x59,0x05,0xa1,0x00,0x11,0x00,
 0x24,0x49,0x41,0xa5,0x24,0x50,0x2a,0x8a,0x52,0x82,0xaa,0xa2,0x2a,0x15,0x25,
 0x29,0x49,0x42,0x55,0x92,0xaa,0x2a,0x91,0xd4,0xff,0xff,0xff,0xff,0xff,0xff,
 0xff,0xad,0xa8,0xaa,0x50,0x04,0x15,0x44,0x15,0x00,0x00,0x10,0x00,0x81,0x84,
 0x80,0x20,0x84,0x48,0x00,0x10,0x41,0x80,0x00,0x02,0x22,0x29,0x21,0x49,0x44,
 0x44,0x4a,0xaa,0xff,0xfb,0xff,0xff,0xff,0x56,0x55,0x02,0x02,0x44,0x05,0xa2,
 0x40,0x21,0x00,0x52,0x12,0x85,0x04,0x24,0x10,0x12,0x82,0x08,0x22,0x55,0x45,
 0x14,0x55,0xaa,0xa8,0x94,0xa4,0x54,0xaa,0xaa,0xaa,0x54,0xd1,0xff,0xff,0xff,
 0xff,0xff,0xff,0xab,0x54,0x54,0x29,0xa9,0x08,0x8a,0x94,0x0a,0x00,0x40,0x20,
 0xa0,0x00,0x82,0x80,0x28,0xa2,0x08,0x00,0x20,0x41,0x00,0x04,0x45,0x42,0x12,
 0x8a,0x92,0x24,0x91,0x4a,0xea,0xff,0xff,0xbf,0xbf,0x84,0x00,0x24,0x81,0x02,
 0x44,0x04,0x52,0x21,0x02,0x00,0x44,0x02,0x01,0x09,0x4a,0x08,0x4a,0x82,0x08,
 0xa2,0x52,0x85,0x14,0x55,0x51,0x28,0x29,0x49,0x51,0x24,0xa9,0x2a,0x91,0xd4,
 0xff,0xff,0xff,0xff,0x5b,0x55,0x92,0x2a,0x54,0x29,0xa9,0x08,0x8a,0xa8,0x2a,
 0x11,0x20,0x48,0x40,0x00,0xa1,0x00,0x20,0x80,0x00,0x04,0x28,0x80,0x00,0x14,
 0x05,0x04,0x92,0x94,0xaa,0x4a,0x92,0x54,0xea,0xdf,0xbf,0x3d,0x00,0x20,0x84,
 0x48,0x80,0x02,0x82,0x10,0x82,0x40,0x04,0x00,0x40,0x8a,0x20,0x02,0x09,0x04,
 0xaa,0x12,0x15,0xaa,0x50,0x41,0x55,0xaa,0xa0,0xa8,0x52,0x49,0x22,0x91,0x94,
 0xa4,0xaa,0xf2,0xff,0xff,0x5f,0x45,0x92,0x12,0x91,0x2a,0xaa,0x54,0xa2,0x28,
 0x95,0xa8,0x12,0x08,0x00,0x08,0x28,0x40,0x81,0x00,0x40,0x80,0x00,0x04,0x24,
 0x00,0x10,0x0a,0x44,0x48,0x24,0x49,0x4a,0xa2,0xaa,0x04,0xa9,0xff,0xef,0xff,
 0x7f,0x09,0x44,0x24,0x92,0x10,0x01,0x09,0x45,0x40,0x02,0x04,0x42,0x92,0x42,
 0x81,0x14,0x14,0x92,0x0a,0x29,0x52,0x51,0x92,0xaa,0x42,0x51,0x91,0x92,0x92,
 0x94,0xa4,0x4a,0x92,0x6a,0xfa,0xff,0x7f,0xfb,0xad,0x52,0x51,0x89,0x24,0x45,
 0x54,0x24,0x10,0x55,0xa9,0x10,0x00,0x00,0x10,0x20,0x00,0x81,0x00,0x20,0x82,
 0x04,0x84,0x00,0x00,0x28,0x08,0x24,0x49,0x24,0x25,0x29,0x29,0x49,0x92,0xea,
 0xff,0xff,0xef,0xff,0xff,0x16,0x22,0x41,0x20,0x09,0x49,0x45,0x24,0x04,0x04,
 0x94,0x24,0x84,0x84,0x22,0x24,0x2a,0x89,0x08,0x50,0x12,0xaa,0xaa,0x42,0xa5,
 0x92,0x24,0x49,0x52,0x52,0x52,0x55,0x25,0xf9,0xfb,0xfe,0xff,0xff,0xaf,0xaa,
 0x88,0x94,0x4a,0x52,0x04,0x08,0x49,0x51,0x11,0x00,0x80,0x00,0x10,0x08,0x00,
 0x40,0x20,0x42,0x85,0x80,0x00,0x00,0x28,0x10,0x24,0x49,0x92,0x08,0x25,0x89,
 0x44,0x54,0xea,0xff,0xff,0xff,0xfe,0xfe,0xff,0x57,0x04,0x10,0x84,0xa2,0xa2,
 0xa8,0x08,0x04,0x22,0x09,0x52,0x42,0xa0,0xaa,0x02,0x85,0x28,0x10,0x2a,0x55,
 0x55,0x41,0x45,0x91,0x24,0x49,0x65,0x4a,0x55,0xa9,0x92,0xf4,0xff,0xff,0xff,
 0xf7,0xff,0x7f,0x5b,0x51,0xa5,0x12,0x14,0x08,0x2a,0xa5,0x10,0x08,0x40,0x00,
 0x00,0x05,0x00,0x50,0x20,0x80,0x84,0x40,0x00,0x00,0x14,0x50,0x04,0x48,0x22,
 0x10,0x21,0x92,0x24,0x49,0xf5,0xff,0xff,0xff,0xff,0xf7,0xff,0xff,0x5f,0x08,
 0x48,0x81,0x44,0x55,0x00,0x04,0x20,0x09,0x49,0x0a,0x90,0x88,0x04,0x89,0x0a,
 0x12,0x0a,0x55,0x55,0xa1,0x82,0x52,0x11,0x49,0xab,0x4c,0x25,0x55,0x2a,0xda,
 0xff,0xff,0xff,0xff,0xbf,0xff,0xff,0x57,0xa1,0x22,0x04,0x12,0x52,0x55,0x11,
 0x09,0x40,0x80,0x40,0x02,0x20,0x40,0x20,0x80,0x40,0x41,0x00,0x00,0x08,0x28,
 0x08,0x8a,0x24,0x44,0x52,0x92,0x12,0x45,0xf5,0xdf,0xff,0xff,0xff,0xff,0xed,
 0xff,0xff,0x0f,0x00,0x90,0x48,0x29,0x00,0x08,0xa0,0x04,0x12,0x24,0x28,0x85,
 0x12,0x85,0x14,0x12,0x14,0x25,0x55,0xa5,0x42,0x51,0x51,0x92,0x92,0xa4,0x54,
 0xaa,0x94,0xfc,0xfb,0xff,0xff,0xff,0xff,0xff,0x7e,0x7f,0x05,0x08,0x01,0x92,
 0x4a,0x55,0x25,0x04,0x90,0x00,0x01,0x02,0x10,0x44,0x00,0x81,0x04,0x41,0x88,
 0x00,0x00,0x28,0x24,0x24,0xa4,0x48,0x4a,0x8a,0x84,0x2a,0xf5,0xff,0xff,0xff,
 0xff,0xff,0xff,0xef,0xff,0x17,0x00,0x60,0x55,0x2a,0x00,0x00,0x10,0x01,0x4a,
 0x24,0x91,0x40,0x10,0x29,0x14,0x90,0x04,0x21,0xaa,0xaa,0x42,0x89,0x48,0x49,
 0xaa,0x94,0x54,0x59,0x52,0xfe,0xff,0xff,0xff,0xff,0xff,0xff,0xff,0xff,0x0f,
 0x20,0x95,0x48,0x25,0x25,0x09,0x00,0x00,0x00,0x00,0x00,0x04,0x02,0x00,0x81,
 0x22,0x50,0x08,0x01,0x40,0x10,0x42,0x12,0x12,0x05,0x42,0x22,0x25,0x09,0xf9,
 0xff,0xff,0xff,0xdf,0xff,0xff,0xff,0xff,0x0f,0x95,0xa0,0x56,0x0a,0x08,0x02,
 0x00,0x00,0x00,0x00,0x00,0x10,0x48,0x12,0x24,0x88,0x04,0x21,0xaa,0x0a,0xa5,
 0x28,0x49,0x49,0xa8,0x94,0x4a,0x4a,0x55,0xbd,0xff,0xff,0xfb,0xff,0xfb,0xff,
 0xff,0xff,0x47,0x50,0x95,0xaa,0xaa,0xa0,0x28,0x95,0x54,0x00,0x00,0x00,0x00,
 0x00,0x00,0x00,0x00,0x00,0x00,0x00,0x40,0x00,0x02,0x20,0x10,0x42,0x52,0x91,
 0x90,0xd0,0xff,0xff,0xff,0xff,0xff,0xff,0xff,0xff,0xff,0xbf,0x4d,0xaa,0x52,
 0x05,0x09,0x04,0x20,0x01,0x21,0x22,0x48,0x00,0x00,0x00,0x00,0x00,0x00,0x80,
 0x00,0x00,0x44,0xa8,0x8a,0x42,0x29,0x25,0x2a,0x25,0xa5,0xff,0xff,0xff,0xff,
 0xff,0xff,0xef,0x7f,0xef,0x07,0x52,0x55,0x55,0x12,0xa4,0x10,0xdf,0xfe,0xde,
 0xad,0x57,0xb7,0xab,0xaa,0x92,0x12,0x49,0x2a,0x10,0x89,0x10,0x00,0x20,0xb8,
 0xff,0xff,0xdf,0x95,0xf8,0xff,0xff,0xff,0xff,0xff,0xff,0xff,0xff,0xff,0xdf,
 0xaa,0xaa,0x54,0x45,0x01,0x05,0xb5,0x55,0x55,0x55,0xaa,0x54,0x94,0x44,0x4a,
 0x48,0x04,0x81,0x44,0x20,0x80,0x12,0x41,0xeb,0xda,0x7d,0x55,0x2a,0xf5,0xff,
 0xff,0xff,0xff,0xff,0x7f,0xff,0xfd,0xff,0x2f,0x55,0x55,0x55,0x08,0x2a,0x28,
 0xd5,0x5a,0xab,0xb6,0x75,0xb7,0x6b,0xb7,0xaa,0xab,0x7b,0x7d,0xb5,0xad,0x6e,
 0xaa,0xfe,0xff,0xff,0xef,0xff,0xff,0xff,0xff,0xff,0xff,0xff,0xff,0xff,0xff,
 0xff,0xff,0x5f,0x49,0x4a,0x52,0x01,0x00,0x00,0xad,0xb5,0xb6,0x6d,0xdb,0x6a,
 0xad,0xd4,0xaa,0xaa,0xaa,0x82,0x4a,0x55,0x51,0xa5,0xea,0xdf,0x6e,0xff,0xff,
 0xff,0xfd,0x7f,0xff,0xbf,0xff,0xff,0xff,0xff,0xff,0xff,0x4f,0x55,0xa9,0x2a,
 0x91,0x80,0x00,0xdb,0xae,0x55,0x55,0xad,0x5a,0x6b,0x5b,0x55,0x75,0x45,0x7a,
 0xb7,0xaa,0xae,0xfa,0xff,0xfd,0xff,0xbf,0xff,0xdf,0xff,0xef,0xff,0xff,0xff,
 0xff,0xff,0xff,0xff,0xff,0x3f,0x20,0x4a,0x94,0x4a,0x2a,0x15,0xb6,0x5a,0xed,
 0xd6,0xba,0xed,0xd6,0xaa,0x56,0xad,0x92,0xa4,0x6d,0xd5,0xaa,0xea,0xff,0xff,
 0xfd,0xfd,0xdd,0xff,0xff,0xff,0xff,0xfe,0xff,0xff,0xff,0xff,0xff,0xff,0xaf,
 0x4d,0xa9,0x52,0x94,0x44,0x08,0x6b,0x6b,0x5b,0x6b,0xd7,0x5a,0x55,0x55,0x55,
 0xdb,0x00,0x4b,0x92,0x7a,0xd5,0x7f,0x6f,0x6f,0xbf,0xf7,0xff,0xf7,0xed,0xff,
 0xff,0xff,0xff,0xbd,0xfb,0xff,0xff,0x7f,0x5b,0xb5,0x56,0x55,0x6b,0x5b,0x2f,
 0xd5,0xd6,0xb6,0xad,0x5a,0x6b,0x6b,0x6d,0xad,0xbe,0xa0,0x94,0x5a,0xab,0xba,
 0xfe,0xff,0xfb,0xf7,0x7f,0x7f,0xbf,0xff,0xbe,0xff,0xff,0xff,0xff,0xff,0xdf,
 0xff,0xff,0x57,0x55,0xa9,0x52,0x95,0xaa,0x14,0x7d,0x7b,0x6b,0x6b,0xb7,0xb5,
 0xb5,0xaa,0x6a,0x7f,0x12,0x05,0xa8,0xfc,0xf7,0xff,0xfe,0xff,0xff,0xff,0xef,
 0xfd,0xff,0xfb,0xfb,0xff,0xff,0xff,0xff,0xfd,0xb7,0x55,0xa9,0xaa,0x56,0xad,
 0x6a,0x55,0x2b,0xab,0x4d,0xad,0xad,0x6a,0x6b,0xaa,0x55,0xab,0x5d,0xa0,0x44,
 0x55,0xdd,0xfa,0xff,0x6f,0xff,0xfe,0xdf,0xfb,0xef,0xfe,0xff,0xff,0xff,0xff,
 0xff,0xff,0xff,0xff,0x7f,0xb7,0xaa,0xaa,0xaa,0x55,0xb5,0x1a,0x40,0x90,0x50,
 0x50,0x09,0x10,0xa9,0x54,0xd5,0x5f,0x55,0x11,0x60,0xbf,0xff,0xef,0xff,0xbf,
 0xdf,0xfd,0xbf,0xff,0xff,0xff,0xff,0xff,0xff,0xb7,0x55,0xab,0x54,0x49,0x59,
 0x6d,0xd5,0xaa,0xaa,0xaa,0x2a,0x96,0x4a,0xa5,0xa5,0xa2,0x4a,0x25,0xab,0xaa,
 0xbf,0xaa,0x4a,0xb5,0xfd,0xfe,0xfe,0xfd,0xfd,0xff,0xff,0xff,0xfd,0xef,0xef,
 0xff,0xff,0x7b,0xff,0xde,0x6e,0xab,0xb6,0xd6,0x5a,0x5b,0xb5,0xaa,0x55,0x35,
 0x55,0x55,0x2a,0x55,0x01,0x00,0x00,0xdc,0x80,0x6f,0x55,0x55,0xa9,0xf7,0xff,
 0xff,0xff,0xf7,0xfb,0xff,0xfe,0x7f,0xff,0xff,0xff,0xff,0xff,0x4b,0xab,0xb5,
 0x6a,0xab,0xaa,0x56,0x55,0xab,0xaa,0xaa,0x16,0x48,0x92,0xaa,0x24,0x02,0x00,
 0x00,0xaa,0xd0,0xbf,0x2a,0x29,0xd2,0xfe,0xdf,0xf7,0xdf,0xff,0xff,0xfb,0xf7,
 0xff,0x7f,0xff,0xff,0xfe,0xff,0xbb,0xb5,0xd6,0xd6,0x6a,0xdb,0x6a,0x55,0x6d,
 0xb5,0x5a,0x2d,0x02,0x00,0x00,0x80,0x10,0x00,0x81,0x56,0xea,0xff,0x57,0xd5,
 0xed,0xff,0xfb,0xbf,0xfb,0xbf,0x7f,0xdf,0xbf,0xef,0xfd,0xff,0xff,0xbf,0xff,
 0x45,0xaa,0xaa,0x5a,0xad,0x6d,0xbb,0xed,0x56,0xdb,0xd6,0x36,0x54,0x92,0x90,
 0x14,0x82,0x24,0x14,0xad,0xd4,0xdf,0xad,0xaa,0xea,0xfb,0xff,0xff,0x7f,0xff,
 0xef,0xff,0xff,0xff,0xff,0xfb,0xff,0xff,0xff,0x93,0xa4,0x6a,0x55,0x55,0xd5,
 0x56,0x5b,0xb5,0x56,0xb5,0x15,0x01,0x04,0x04,0x80,0x20,0x00,0x40,0xaa,0xfb,
 0xfb,0xfb,0xf6,0xfa,0x6e,0xff,0xfe,0xff,0xff,0xff,0xff,0xfe,0xfb,0xef,0xff,
 0xfd,0xff,0xff,0x01,0x00,0x00,0x00,0x00,0x00,0x00,0x00,0x00,0x00,0x00,0x00,
 0x54,0x51,0x51,0x49,0x04,0x89,0x00,0x77,0xed,0x7f,0xaf,0xad,0xb7,0xf7,0xff,
 0xf7,0xef,0xff,0xfe,0xff,0x77,0xbf,0xff,0xff,0xff,0xff,0xff,0x21,0x00,0x00,
 0x00,0x00,0x00,0x00,0x00,0x00,0x00,0x00,0x00,0x00,0x04,0x04,0x00,0x40,0x20,
 0x12,0xf8,0xfb,0xff,0xff,0x7b,0xfd,0xfd,0xdd,0xff,0xfe,0xdf,0xff,0xfe,0xff,
 0xff,0xff,0xff,0xff,0xff,0xff,0x4b,0x55,0x55,0x55,0x55,0x25,0x51,0x95,0x88,
 0x84,0x24,0x12,0xaa,0x90,0x90,0x94,0x04,0x09,0x48,0xba,0xef,0xff,0x5b,0xd7,
 0xb7,0xf7,0xff,0xbd,0x7f,0xff,0xff,0xff,0xff,0xff,0xff,0xff,0xff,0xff,0xfe,
 0x22,0x22,0x22,0x22,0x22,0x88,0x54,0x4a,0x12,0x52,0x92,0x08,0x00,0x44,0x04,
 0x01,0x51,0x82,0x82,0xd4,0xfe,0xdf,0xbf,0x5a,0xfb,0xfe,0xff,0xff,0xff,0xff,
 0xff,0x77,0xff,0xef,0x7f,0xff,0xff,0xfd,0xff,0x09,0x80,0x08,0x00,0x00,0x22,
 0x00,0x00,0x00,0x00,0x00,0x00,0x4a,0x09,0x51,0x24,0x04,0x28,0x10,0xea,0xfb,
 0xff,0xdb,0xed,0xed,0xfb,0xf7,0xff,0xf7,0xfb,0xdf,0xff,0xff,0xff,0xfd,0xff,
 0xff,0xff,0xff,0x21,0x15,0xa0,0xa4,0x48,0x88,0x54,0x15,0x49,0x44,0x22,0x11,
 0x00,0xa0,0x08,0x49,0xa1,0x42,0x25,0x11,0xe8,0xff,0x3f,0x55,0xbf,0xbf,0x7f,
 0xf7,0xff,0xbf,0xff,0xff,0xff,0xff,0xff,0x7f,0xef,0xff,0xff,0x45,0x40,0x0a,
 0x08,0x12,0x01,0x02,0x40,0x20,0x11,0x48,0x00,0x52,0x15,0x25,0x20,0x0a,0x09,
 0x90,0xa4,0xb6,0x7f,0x57,0xd5,0xfa,0xff,0xff,0x7f,0xbf,0xff,0xfb,0xff,0xff,
 0xfd,0xff,0xff,0xff,0xff,0x7f,0x11,0x25,0xa1,0x22,0x49,0x54,0x28,0x05,0x82,
 0xa4,0x00,0x05,0x08,0x40,0x80,0x0a,0x40,0x50,0x05,0x29,0xe9,0xfb,0xbf,0xb6,
 0xff,0xfd,0xfd,0xff,0xff,0xff,0xff,0xff,0xf7,0xff,0xff,0xff,0xff,0xff,0xf7,
 0x4b,0x95,0x54,0x90,0xa4,0x82,0x82,0x50,0x29,0x09,0x4a,0x10,0xa2,0x0a,0x15,
 0xa0,0x12,0x05,0x28,0x44,0xe4,0xff,0x7f,0xed,0xb6,0xff,0xbf,0xf7,0xff,0xff,
 0xff,0xff,0xff,0xff,0xef,0xff,0xff,0xff,0xff,0x92,0x48,0x45,0x25,0x49,0x2a,
 0x54,0x0a,0x92,0xa4,0x20,0x05,0x00,0x20,0x20,0x09,0x40,0x40,0x02,0x11,0x52,
 0xff,0xdf,0xfb,0xff,0xff,0xff,0xff,0xfb,0xf7,0x7e,0xff,0xdf,0xff,0xff,0xfe,
 0xff,0xff,0xff,0x6b,0xab,0x54,0xaa,0x2a,0x91,0x92,0xa2,0x20,0x00,0x08,0x10,
 0x04,0x80,0x00,0x40,0x04,0x09,0x20,0x44,0xc9,0xff,0xff,0x6e,0xff,0xff,0xff,
 0x7f,0xff,0xff,0xf7,0xff,0xff,0xff,0xff,0xff,0xff,0xfd,0xff,0x8a,0x54,0x95,
 0x12,0x51,0x25,0x25,0x14,0x85,0x92,0x42,0x02,0x20,0x09,0x48,0x04,0x20,0x20,
 0x09,0x01,0x20,0xff,0xff,0x03,0xe8,0xef,0xff,0xff,0x7f,0xff,0xff,0xef,0xff,
 0xef,0xff,0xff,0xff,0xff,0xff,0x31,0x09,0x42,0x44,0x04,0x40,0x08,0x01,0x20,
 0x00,0x10,0x10,0x02,0x20,0x02,0x91,0x04,0x02,0x00,0x94,0xc0,0xff,0xff,0x0a,
 0xf5,0xff,0xff,0xff,0xff,0xff,0xff,0xfe,0xfe,0xff,0xff,0xff,0xff,0xff,0xff,
 0x4a,0x52,0x29,0x29,0x51,0x15,0x51,0xa4,0x04,0x49,0x44,0x02,0x20,0x82,0x00,
 0x00,0x80,0x80,0x20,0x00,0x08,0xa8,0x2a,0x00,0x00,0xfe,0xff,0xff,0xff,0xff,
 0xff,0xff,0xff,0xff,0xbf,0xef,0xff,0xff,0xff,0x8a,0x04,0x00,0x00,0x04,0x00,
 0x00,0x00,0x40,0x00,0x00,0x00,0x04,0x08,0x28,0x44,0x00,0x04,0x04,0x00,0x82,
 0x76,0x2f,0x00,0xc0,0xff,0xff,0xff,0xff,0x7f,0xff,0xff,0xbf,0xff,0xff,0xff,
 0xff,0x7f,0xff,0x20,0x50,0x55,0xa5,0x90,0x48,0x42,0x11,0x09,0x92,0x10,0x09,
 0x00,0x00,0x80,0x00,0x24,0x00,0x00,0x00,0x00,0x00,0x00,0x00,0x00,0xfc,0xff,
 0xff,0xff,0xff,0xff,0xff,0xff,0xff,0xfd,0xff,0xff,0xff,0xff,0x02,0x02,0x00,
 0x00,0x04,0x82,0x14,0x48,0x90,0x00,0x44,0x00,0x40,0x80,0x44,0x10,0x01,0x41,
 0x00,0x00,0x00,0x00,0x00,0x00,0x48,0xff,0xff,0xff,0xff,0xff,0xff,0xff,0xff,
 0xff,0xff,0xff,0xff,0xff,0x7f,0x01,0x00,0x40,0x92,0x28,0x28,0x20,0x21,0x05,
 0x92,0x00,0x02,0x00,0x11,0x29,0x44,0xa0,0x00,0x80,0x08,0x00,0x00,0x80,0x4a,
 0x25,0xfa,0xff,0xff,0xef,0xff,0xff,0xff,0xff,0xff,0xff,0xff,0xff,0xff,0x7f,
 0x48,0x49,0x12,0x00,0x00,0x02,0x09,0x04,0x80,0x00,0x42,0x10,0x04,0x00,0x52,
 0x90,0x44,0x09,0x09,0x40,0x00,0x00,0x10,0x10,0x48,0xfd,0xff,0xff,0xfe,0xff,
 0xff,0xff,0xff,0xff,0xff,0xff,0xff,0xff,0xbf,0x02,0x00,0x80,0x88,0x44,0x10,
 0x44,0x10,0x24,0x24,0x08,0x01,0x00,0x00,0x4d,0x2b,0x58,0x6d,0x55,0x95,0xaa,
 0xaa,0x56,0x4b,0x57,0xff,0xff,0xfd,0xff,0xff,0xff,0xff,0xff,0xff,0xff,0xff,
 0xff,0xff,0x2f,0x00,0x80,0x08,0x20,0x10,0x44,0x00,0x81,0x00,0x00,0x01,0x04,
 0x10,0x40,0x52,0x4a,0x52,0x95,0xaa,0x22,0x2a,0x45,0x49,0x54,0xa9,0xfe,0xef,
 0xff,0xff,0xff,0xff,0xff,0xff,0xff,0xff,0xff,0xff,0xff,0xbf,0x24,0x09,0x20,
 0x01,0x81,0x00,0x11,0x08,0x88,0x04,0x48,0x10,0x42,0x12,0x95,0x92,0xda,0x6a,
 0x55,0xd9,0xaa,0xb2,0xaa,0x55,0xd5,0xff,0xff,0xaf,0x55,0x84,0x44,0x10,0x84,
 0x24,0xb5,0xff,0xff,0xff,0x5f,0x09,0x20,0x02,0x04,0x00,0x00,0x00,0x00,0x02,
 0x40,0x00,0x00,0x00,0x00,0xaa,0xa4,0xaa,0xd5,0xaa,0xa6,0xaa,0x4a,0x55,0x55,
 0x6d,0xff,0xff,0xff,0xd6,0xb5,0x5a,0xf7,0x75,0xdb,0xfe,0xff,0xff,0xff,0x5f,
 0x21,0x00,0x00,0x90,0x24,0x12,0x42,0x42,0x20,0x02,0x02,0x00,0x00,0x00,0x78,
 0x5b,0x15,0x00,0x40,0x7b,0x55,0xb5,0x5a,0xed,0xff,0xaf,0x00,0x00,0x00,0x00,
 0x00,0x00,0x00,0x00,0x51,0x55,0xed,0xff,0x6b,0x84,0x04,0x48,0x00,0x00,0x40,
 0x08,0x00,0x00,0x10,0x20,0x09,0x88,0x48,0x4d,0xa5,0x25,0x00,0xb4,0xd6,0xd6,
 0xaa,0xb6,0x55,0xdb,0x7d,0x95,0x00,0x29,0x55,0x55,0x09,0x55,0xaa,0xaa,0xfe,
 0xff,0xfd,0x5f,0x11,0x90,0x00,0x00,0x80,0x08,0x00,0x24,0x89,0x80,0x00,0x00,
 0x11,0x00,0xd0,0x7d,0x01,0x00,0x80,0xb4,0xff,0xff,0xff,0xaf,0x04,0x00,0x00,
 0xaa,0x84,0x00,0x82,0xa4,0x08,0x11,0x20,0x81,0x54,0xdf,0xfe,0x4a,0x05,0x02,
 0x44,0x08,0x00,0x40,0x00,0x00,0x00,0x00,0x00,0x00,0x01,0xaa,0xd7,0x04,0x40,
 0x28,0xed,0xbf,0xad,0x7b,0x55,0x12,0x42,0x55,0x00,0x52,0xaa,0x54,0x12,0xa5,
 0xa4,0x4a,0xb6,0xba,0xfb,0xbb,0x24,0x28,0xa8,0x10,0x00,0x80,0x00,0x00,0x00,
 0x00,0x08,0x00,0x00,0x40,0xd0,0xbe,0x4b,0x00,0x80,0x50,0x40,0x52,0x04,0x00,
 0x80,0x10,0x00,0x55,0x81,0x00,0x00,0x80,0x10,0x09,0x28,0x49,0xa5,0xaa,0x56,
 0x55,0x57,0x97,0x4a,0xab,0x2a,0xaa,0x8a,0x54,0x2a,0x01,0x02,0x44,0x04,0xa9,
 0x7f,0x25,0x04,0x00,0xd5,0xdf,0x8a,0x48,0x11,0x11,0x42,0x95,0x20,0x14,0xaa,
 0xaa,0x2a,0x45,0xa4,0xa2,0x54,0xad,0xaa,0x7d,0xa5,0xa8,0x28,0x25,0x24,0x91,
 0x00,0x20,0x02,0x00,0x40,0x00,0x00,0x00,0x00,0x00,0x00,0x00,0x00,0x00,0x00,
 0x00,0x00,0x40,0x40,0x10,0x00,0x08,0x82,0x00,0x00,0x00,0x10,0x01,0x08,0x00,
 0x50,0x52,0x82,0x08,0x02,0x82,0x90,0x42,0x24,0xaa,0x8a,0x50,0x25,0x09,0x00,
 0x00,0x00,0x90,0x44,0x00,0x00,0x20,0x09,0x00,0x20,0x11,0x09,0x04,0x49,0x52,
 0xa2,0x28,0xaa,0x92,0xaa,0x44,0x54,0xa1,0xaa,0x4a,0xa5,0x2a,0x21,0xa9,0x54,
 0x4a,0x14,0x81,0x08,0x11,0x02,0x10,0x00,0x09,0x10,0x20,0x04,0x11,0x01,0x48,
 0x0a,0x40,0x22,0x09,0x04,0x00,0x00,0x00,0x84,0x00,0x00,0x00,0x20,0x00,0x11,
 0x01,0x14,0x00,0x11,0x11,0x48,0x04,0x00,0x00,0x00,0x00,0x10,0x40,0x04,0x90,
 0x00,0x20,0x00,0x80,0x00,0x20,0x04,0x94,0x20,0xa0,0x04,0x08,0x00,0x20,0x40,
 0x40,0x24,0x11,0x4a,0xa5,0x24,0x85,0x2a,0x44,0x54,0xa1,0x2a,0x24,0xca,0x92,
 0x20,0x22,0xa9,0x92,0x22,0x41,0x02,0xa0,0x00,0x02,0x00,0x00,0x02,0x00,0x00,
 0x40,0x00,0x00,0x00,0x80,0x40,0x24,0x01,0x04,0x08,0x42,0x04,0x21,0x08,0x11,
 0x20,0x00,0x11,0x01,0x08,0x80,0x42,0x11,0x24,0x82,0x08,0x00,0x00,0x00,0x08,
 0x10,0x00,0x88,0x40,0x12,0x15,0x00,0x00,0x04,0x01,0x00,0x89,0x04,0x12,0x00,
 0x00,0x44,0x00,0x01,0x08,0x51,0x94,0x20,0x44,0x8a,0x4a,0x44,0x54,0xa5,0x2a,
 0x14,0xa2,0x90,0x00,0x40,0x02,0x08,0x24,0x02,0x40,0x02,0x02,0x14,0x00,0x00,
 0x10,0x12,0x01,0x00,0x44,0x00,0x00,0x00,0x00,0x00,0x00,0x00,0x00,0x00,0x00,
 0x00,0x04,0x00,0x00,0x00,0x00,0x00,0x00,0x00,0x00,0x08,0x04,0x10,0x00,0x00,
 0x80,0x00,0x00,0x00,0x20,0x20,0x00,0x00,0x00,0x80,0x00,0x48,0x90,0x00,0x00,
 0x00,0x00,0x89,0x08,0x00,0x02,0xa0,0x24,0x44,0x42,0x80,0x00,0x00,0x80,0x88,
 0x00,0x00,0x42,0xa2,0xa0,0x92,0x00,0x11,0x48,0x02,0x00,0x40,0x02,0x04,0x00,
 0x41,0x12,0x00,0x00,0x00,0x00,0x04,0xa0,0x54,0x22,0x21,0x00,0x80,0x40,0x90,
 0x08,0x08,0x11,0x10,0x24,0x90,0xa4,0x24,0x22,0x48,0x92,0x10,0x00,0x02,0x00,
 0x00,0x00,0x00,0x40,0x00,0x00,0x00,0x00,0x00,0x00,0x00,0x00,0x08,0x48,0x40,
 0x10,0x09,0x00,0x00,0x08,0x21,0x02,0x04,0x00,0x40,0x22,0x40,0x82,0x80,0x04,
 0x00,0x00,0x00,0x01,0x00,0x40,0x04,0x08,0x44,0x00,0x00,0x00,0x10,0x12,0x08,
 0x90,0x20,0x01,0x04,0x00,0x01,0x00,0x00,0x00,0x00,0x00,0x01,0x00,0x00,0x08,
 0x20,0x10,0x04,0x04,0x80,0x14,0x00,0x22,0x40,0x12,0x49,0x08,0x20,0x22,0x09,
 0x51,0x42,0x11,0x08,0x00,0x00,0x00,0x80,0x00,0x00,0x00,0xa4,0x80,0x24,0x00};
