#define noname_width 150
#define noname_height 175
static char noname_bits[] = {
 0x02,0x92,0x24,0x09,0x48,0x24,0x41,0x12,0x24,0x21,0x81,0x08,0x51,0x45,0x08,
 0x00,0x84,0x90,0x08,0x68,0x49,0x92,0xa4,0x92,0x4a,0x2a,0x49,0x49,0x4a,0x34,
 0x52,0x8a,0x28,0x45,0x55,0x51,0x24,0x12,0x12,0x22,0x49,0x12,0x49,0x90,0x88,
 0x24,0x11,0x89,0x42,0x44,0x34,0x45,0x10,0x20,0x02,0x81,0x00,0x89,0x94,0x24,
 0x49,0x12,0x25,0x25,0x49,0x4a,0x52,0x94,0x92,0x82,0x2a,0x4a,0x95,0x54,0x2a,
 0x15,0x52,0x49,0x92,0x24,0x49,0x4a,0x52,0x24,0x91,0x84,0x22,0x49,0x54,0x44,
 0x00,0x44,0x42,0x40,0x08,0x48,0x92,0x24,0x49,0x22,0x21,0x09,0x49,0x4a,0xa9,
 0x90,0x24,0xa9,0x2a,0x92,0x22,0x91,0x2a,0x12,0x92,0x44,0x92,0x84,0x48,0x8a,
 0xa4,0x24,0x11,0x42,0x4a,0x92,0x12,0x41,0x49,0x88,0x24,0x84,0x04,0x24,0x29,
 0x49,0x22,0x25,0x29,0x29,0x49,0xaa,0x94,0x84,0x44,0xaa,0x2a,0x00,0x25,0x89,
 0x22,0x11,0x92,0x44,0x24,0x49,0x88,0x44,0x44,0x84,0x40,0x11,0x11,0x10,0x21,
 0x89,0x2a,0x88,0x24,0x48,0x04,0x49,0x22,0x89,0x24,0x25,0x91,0x92,0x52,0x2a,
 0xa4,0x54,0xa5,0x9a,0x52,0x84,0x52,0x40,0x25,0x12,0x24,0x49,0x52,0x92,0x48,
 0x4a,0x24,0x44,0x44,0x09,0x41,0x08,0x22,0x24,0x29,0x81,0x0a,0x90,0x00,0x89,
 0x24,0x89,0x24,0x25,0x91,0x92,0x92,0x52,0x52,0x2a,0xa5,0xda,0x92,0x4a,0x2a,
 0x51,0x25,0x15,0x24,0x49,0x12,0x92,0x90,0x24,0x24,0x49,0x84,0x88,0x90,0x48,
 0x29,0x49,0x24,0x11,0x82,0x08,0x20,0x52,0x92,0xa4,0x44,0x24,0x92,0x92,0x24,
 0x29,0x25,0x25,0x92,0xa4,0x92,0x92,0x48,0x29,0xa2,0x0a,0x84,0x48,0x92,0x28,
 0x45,0x49,0x44,0x92,0x44,0x48,0x88,0xa4,0x5a,0x25,0x24,0x22,0xa4,0x08,0x11,
 0x52,0x92,0x24,0x85,0x52,0x92,0x92,0x48,0x92,0x12,0x25,0x11,0x55,0x55,0x49,
 0x89,0x12,0x44,0x04,0x24,0x25,0x91,0x54,0x84,0x44,0x24,0x21,0x49,0xa4,0x90,
 0xa4,0xaa,0x4a,0x25,0x24,0x40,0x11,0x11,0x92,0x48,0x4a,0x82,0x52,0x92,0x92,
 0x14,0x22,0x12,0x0a,0x49,0x52,0xa9,0x10,0x89,0x2a,0x4a,0x0a,0x24,0x25,0x11,
 0x29,0x94,0x24,0x24,0xa9,0x94,0xa4,0x28,0x24,0xa5,0x4a,0x4a,0x24,0x80,0x20,
 0x20,0x92,0x90,0x88,0x94,0x42,0x92,0x92,0x44,0x42,0x12,0x85,0x42,0xa9,0x2a,
 0x85,0x42,0x55,0x8a,0x0a,0x24,0x25,0x25,0x41,0x14,0x49,0x44,0x12,0x29,0x49,
 0x28,0x14,0xaa,0xaa,0x28,0x08,0x08,0x11,0x10,0x92,0x48,0x52,0x2a,0x49,0x12,
 0x29,0xa9,0x44,0x92,0x92,0x52,0x95,0x24,0x05,0xa5,0xa2,0x44,0x05,0x24,0x25,
 0x89,0xa8,0xf7,0xaa,0x44,0x04,0x11,0x49,0x44,0xaa,0xa8,0x4a,0x50,0x10,0x04,
 0x12,0x08,0x92,0x90,0x24,0xa5,0x5a,0x55,0x22,0xa9,0xa4,0x84,0x92,0x84,0x4a,
 0xa5,0x8a,0x4a,0xa9,0xa0,0x12,0x4a,0x4a,0x92,0xd8,0xff,0x5f,0x95,0x00,0x09,
 0x12,0x44,0x52,0x92,0x14,0x11,0x20,0x40,0x0a,0x04,0x91,0x12,0x49,0xea,0x5b,
 0x6b,0x25,0x55,0x52,0xa1,0x22,0x29,0x55,0xaa,0xa4,0x8a,0x2a,0x41,0x11,0x24,
 0xa4,0x24,0x7d,0xff,0xbd,0x89,0x88,0x00,0x4a,0x94,0x54,0x49,0x01,0x02,0x10,
 0x81,0x14,0x05,0x92,0x12,0x89,0xea,0x7f,0xd7,0x56,0x24,0x55,0x21,0x22,0xa5,
 0xa4,0x5a,0x51,0xa5,0x28,0xa2,0x10,0x44,0x4a,0xa2,0xbf,0xd5,0x7d,0xab,0x92,
 0x88,0x94,0x88,0x88,0x2a,0x82,0x04,0x12,0x85,0x08,0x02,0x29,0xa1,0x54,0xf5,
 0x7f,0xdf,0x15,0x44,0x24,0x09,0x22,0x55,0xaa,0x54,0xa8,0x84,0x50,0xa2,0x14,
 0x44,0x0a,0xd1,0xbf,0xdd,0x55,0x55,0x29,0x91,0x24,0x48,0xa0,0x92,0x00,0x41,
 0x50,0x82,0x04,0x21,0x22,0xa9,0x54,0xed,0x77,0xb7,0x96,0x84,0x24,0x42,0x25,
 0x95,0x2a,0x55,0x2a,0x8a,0x28,0xa9,0x08,0x4a,0x22,0xe9,0xff,0xff,0x45,0x41,
 0x52,0x92,0x08,0x48,0x52,0x45,0x20,0x80,0x10,0x42,0x00,0x25,0x91,0x94,0xd4,
 0xbf,0xfd,0xbb,0x2a,0x11,0x49,0x44,0x25,0x49,0x29,0x15,0x55,0x4a,0x29,0xaa,
 0x08,0x24,0x21,0xfa,0xf7,0x7f,0x47,0x12,0x4a,0x04,0x91,0x88,0x54,0x95,0x40,
 0x80,0x20,0x44,0x01,0x22,0x95,0x94,0xd4,0xfe,0xff,0xad,0x4a,0x11,0x51,0x24,
 0x25,0xa9,0x24,0x2a,0x55,0x4a,0x11,0xa8,0x08,0x48,0x22,0xf5,0xff,0xef,0xab,
 0x2a,0xa2,0x84,0x48,0x90,0x2a,0x49,0x80,0x00,0x11,0xa2,0x02,0x21,0x25,0x49,
 0xa9,0xff,0xff,0x55,0x95,0x14,0x29,0x25,0x25,0xaa,0x12,0x55,0x54,0xa4,0x48,
 0x54,0x0a,0x90,0x24,0xfa,0xff,0xbe,0xab,0x55,0x42,0x44,0x8a,0x50,0x55,0x4a,
 0x08,0x91,0x00,0x05,0x81,0x20,0x4a,0x12,0xd5,0xff,0xff,0xd6,0x96,0x28,0x91,
 0x52,0x8a,0xaa,0x22,0x45,0x4a,0xaa,0xa0,0x28,0x09,0x92,0xa4,0xf4,0xf6,0xf5,
 0xaa,0x15,0x45,0x2a,0x89,0x54,0x45,0x88,0x28,0x01,0x41,0x0a,0x12,0x24,0x24,
 0x49,0xd2,0x7f,0xbf,0xdb,0xaa,0x90,0x84,0x24,0xa9,0x5a,0x25,0x45,0xa8,0x94,
 0x50,0x89,0x02,0x92,0x94,0xb4,0xff,0x6d,0x55,0x05,0x45,0x50,0x49,0xaa,0x12,
 0x02,0x10,0x01,0x02,0x05,0x24,0x14,0x49,0x42,0xea,0xbf,0xde,0xab,0x52,0x12,
 0x45,0x54,0x55,0x55,0xa9,0x8a,0x54,0x51,0x50,0x89,0x02,0x24,0x29,0xc9,0xef,
 0x75,0x55,0x55,0x49,0x00,0xa9,0xaa,0x8a,0x40,0x50,0x02,0x4a,0x05,0x22,0x28,
 0x92,0x94,0xb4,0x7e,0x6f,0x5b,0x55,0x25,0x48,0xa5,0xaa,0x52,0x2a,0x85,0x50,
 0x11,0xa0,0x48,0x05,0x44,0x42,0xd2,0xff,0xdd,0xed,0xbe,0xda,0x22,0x2a,0x55,
 0x09,0x11,0x12,0x05,0x44,0x15,0x01,0x08,0x29,0x29,0xa9,0x5e,0xeb,0xbe,0x55,
 0xaa,0x44,0xd5,0xaa,0x54,0x4a,0x49,0xa8,0x22,0x40,0xaa,0x12,0x42,0x42,0xa4,
 0xfd,0xbd,0xeb,0xbe,0xfd,0x2a,0x29,0x55,0x82,0x20,0x84,0x02,0x94,0x0a,0x00,
 0x01,0xa9,0x94,0x92,0x76,0xd7,0xbe,0xd7,0x7e,0x4b,0xd5,0x2a,0x51,0x8a,0x22,
 0xa8,0x42,0x52,0x55,0x14,0x04,0x29,0xa9,0xde,0xfd,0xdb,0x5e,0xaf,0xaa,0x2a,
 0xa5,0x04,0x11,0x48,0x41,0x08,0x00,0x80,0x20,0xa9,0x84,0x84,0x7a,0xff,0xf6,
 0xeb,0xfb,0x55,0x55,0x55,0xaa,0x48,0x25,0x2a,0x52,0x55,0x55,0x0a,0x24,0x29,
 0x29,0xd5,0xed,0xbf,0xb7,0x0e,0xaa,0xaa,0x0a,0x41,0x22,0x88,0x80,0x08,0x80,
 0x00,0x21,0x49,0x92,0xa4,0xfa,0xdf,0xee,0xed,0xf7,0xd5,0x56,0xa5,0x28,0x14,
 0x25,0x55,0x42,0x55,0xaa,0x08,0x92,0x24,0x92,0xaa,0xfd,0xff,0xbf,0x0d,0x28,
 0xad,0x08,0x42,0xa1,0x10,0x80,0x14,0x08,0x00,0x22,0x48,0x92,0x24,0xf5,0xf7,
 0xff,0xed,0x77,0xd5,0xaa,0x52,0x29,0x48,0x8a,0x2a,0x41,0x45,0x55,0x09,0x12,
 0x49,0x49,0x5a,0xbf,0xff,0x7f,0x4b,0xaa,0x55,0x89,0x84,0x12,0x51,0x10,0x14,
 0x10,0x00,0x24,0x49,0x52,0x92,0xea,0xfd,0xdd,0xdb,0x5f,0xa5,0xae,0x44,0xa2,
 0x44,0x04,0xa5,0xa2,0x4a,0x55,0x01,0x24,0x89,0x24,0xb5,0xf7,0xff,0xff,0xb5,
 0x5a,0x29,0x12,0x14,0x12,0x29,0x08,0x08,0x20,0x08,0x0a,0x92,0x24,0x49,0x6a,
 0xfd,0xff,0xfe,0xaf,0xaa,0x4a,0x89,0x42,0x49,0x42,0x45,0x45,0x15,0x45,0x11,
 0x24,0x49,0x12,0xf5,0xb7,0xfb,0xf7,0xbf,0xaa,0x22,0x24,0x14,0x22,0x09,0x28,
 0x28,0x40,0x10,0x04,0x49,0x92,0xa4,0xba,0xff,0xff,0xff,0xd7,0xaa,0x14,0x89,
 0x42,0x49,0x52,0x05,0x05,0x15,0x4a,0x11,0x92,0x24,0x51,0xff,0xff,0xde,0xbf,
 0xbf,0x4a,0x42,0x50,0x08,0x04,0x81,0x50,0x50,0xa0,0x00,0x04,0x24,0x49,0x8a,
 0xff,0xdb,0xff,0xfd,0xaf,0xaa,0x28,0x85,0x52,0xa9,0x28,0x8a,0x0a,0x15,0x54,
 0x11,0x92,0x24,0xf9,0xff,0xff,0xff,0xff,0x5d,0x01,0x41,0x28,0x04,0x41,0x42,
 0x20,0x20,0x40,0x01,0x02,0x49,0x92,0xe4,0x7f,0xff,0xff,0xff,0xf7,0x54,0x2a,
 0x45,0xa9,0x94,0x28,0x15,0x95,0x2a,0x54,0x11,0x24,0x49,0xda,0xff,0xff,0xef,
 0xef,0xdf,0x8b,0x80,0x10,0x42,0x22,0x42,0x40,0x40,0x80,0x00,0x04,0x8a,0x24,
 0xf5,0xfb,0xef,0xff,0xff,0x7f,0x41,0x54,0x4a,0x91,0x14,0x29,0x2a,0x2a,0x2a,
 0x55,0x11,0x50,0x92,0xf4,0xff,0xff,0xff,0xfe,0xbd,0x8a,0x02,0x21,0x24,0x42,
 0x82,0x80,0x80,0x40,0x00,0x04,0x95,0x44,0xda,0xff,0xff,0xff,0xff,0xff,0x24,
 0x54,0x14,0x89,0x28,0x51,0x2a,0x55,0x14,0x4a,0x11,0x24,0x29,0x69,0xff,0xff,
 0xff,0xff,0x2f,0x91,0x20,0x21,0x52,0x42,0x04,0x81,0x00,0x41,0x20,0x04,0x92,
 0x84,0xd4,0xff,0xfe,0xfe,0xff,0xbf,0x04,0x95,0x94,0x04,0x29,0xa9,0x28,0xa8,
 0x94,0x0a,0x11,0x48,0x52,0xea,0xff,0xff,0xff,0xfb,0xbf,0x52,0x00,0x42,0x52,
 0x84,0x04,0x45,0x05,0x42,0x50,0x04,0x92,0x94,0xd2,0xff,0xff,0xff,0xbf,0xbf,
 0x24,0xaa,0x90,0x20,0x22,0xa1,0x10,0x40,0x11,0x0a,0x12,0x22,0x21,0xea,0xff,
 0xff,0xdf,0xff,0xef,0x82,0x40,0x2d,0x8a,0x94,0x04,0x42,0x15,0x44,0xa0,0x00,
 0x49,0x4a,0xe9,0xff,0xff,0xff,0xff,0x7f,0x55,0x2a,0xaa,0x50,0x02,0x51,0x29,
 0x80,0x12,0x15,0x14,0x92,0x28,0xaa,0xff,0xff,0xff,0xff,0x9b,0x00,0xf9,0xff,
 0x81,0x28,0x04,0x84,0x2a,0x20,0x40,0x01,0x29,0x45,0xe9,0xff,0xef,0xff,0xff,
 0x6f,0x54,0xe2,0xff,0x2b,0x44,0x51,0x21,0x40,0x4a,0x15,0x12,0x44,0x28,0xea,
 0xff,0xff,0xff,0x7f,0x05,0x21,0xfc,0xff,0x85,0x12,0x04,0x8a,0x12,0x00,0x40,
 0x08,0x29,0x45,0xe9,0xdf,0xff,0xfe,0xfd,0xab,0x14,0xfd,0xf7,0x4b,0x80,0xa2,
 0x40,0x84,0x2a,0x15,0x02,0x44,0x12,0xf5,0xff,0xff,0xff,0xbf,0x02,0x42,0xff,
 0xdf,0x0f,0x15,0x08,0x15,0x10,0x00,0x40,0x28,0x92,0xa4,0xd4,0xff,0xff,0xff,
 0xff,0xab,0x90,0xfe,0xfd,0x8f,0x40,0x45,0x40,0x45,0xa5,0x12,0x05,0x24,0x09,
 0xe9,0xfe,0xff,0xdf,0xff,0x0a,0x45,0xff,0x7f,0x1f,0x12,0x10,0x05,0x10,0x10,
 0x48,0x10,0x49,0xa4,0xf4,0xff,0xff,0xff,0xff,0xa5,0x20,0xff,0xef,0xaf,0x44,
 0x8a,0x50,0x05,0x85,0x82,0x04,0x22,0x49,0xea,0xff,0xff,0xff,0xff,0x0b,0xca,
 0xef,0xff,0x3f,0x00,0x21,0x02,0x50,0x10,0x08,0x10,0x94,0x24,0xe9,0xff,0xff,
 0xff,0xef,0xab,0xa0,0x7f,0xff,0x5d,0x52,0x08,0x50,0x05,0x44,0x52,0x05,0x22,
 0x89,0xf4,0xff,0xff,0xff,0xff,0x17,0xd5,0xff,0xff,0x3f,0x08,0xa1,0x02,0x90,
 0x10,0x00,0x10,0x49,0x52,0xda,0xff,0xff,0xfd,0xff,0xaf,0xe0,0xff,0xdf,0xbf,
 0x42,0x14,0xa8,0x24,0x04,0x95,0x04,0x24,0x89,0xf4,0xff,0xf7,0xff,0xff,0x5f,
 0xfa,0xff,0xff,0x7f,0x10,0x41,0x01,0x82,0x28,0x40,0x02,0x49,0x52,0xea,0xff,
 0xff,0xff,0xfd,0x2f,0xe8,0xff,0xff,0xbf,0x44,0x10,0x94,0x20,0x82,0x12,0x10,
 0x24,0x89,0xf4,0xff,0xff,0xff,0xdf,0x5f,0xfd,0xff,0xff,0x7f,0x00,0x45,0x40,
 0x8a,0x08,0x48,0x09,0x49,0x52,0xda,0xff,0xff,0xff,0xff,0x5b,0xf4,0xff,0xff,
 0xfd,0x54,0x00,0x12,0x20,0xa2,0x02,0x02,0x92,0x88,0xf4,0xff,0xff,0xdf,0xff,
 0x3f,0xff,0xef,0xbf,0xff,0x00,0x29,0x41,0x09,0x00,0x48,0x08,0x24,0x45,0xda,
 0xbd,0xff,0xff,0xff,0xaf,0xfa,0xff,0xfd,0x7f,0x11,0x02,0x10,0x42,0x55,0x02,
 0x11,0x92,0x28,0xf5,0xff,0xff,0xff,0xff,0xbf,0xff,0xff,0xff,0xff,0x48,0x48,
 0x42,0x08,0x00,0x11,0x04,0x49,0x92,0xe8,0xff,0xff,0xff,0xff,0xbf,0xff,0xfe,
 0xff,0xff,0x01,0x82,0x14,0x42,0x49,0x44,0x01,0x24,0x49,0xf6,0xff,0xff,0xff,
 0x7f,0xff,0xff,0xff,0xff,0xfb,0x12,0x08,0x40,0x08,0x00,0x10,0x14,0x91,0x24,
 0xf9,0xff,0x7f,0xff,0xff,0xff,0xff,0xff,0xff,0xff,0x81,0xa2,0x94,0x52,0x55,
 0x05,0x01,0x4a,0x92,0xb4,0xff,0xff,0xff,0xf7,0xff,0xfe,0xdf,0xef,0xff,0x11,
 0x08,0x02,0x00,0x00,0x50,0x04,0x21,0x49,0xea,0xff,0xff,0xff,0xff,0xef,0xbf,
 0xff,0xff,0xff,0x45,0x82,0x40,0x49,0x2a,0x05,0x10,0x94,0x24,0xe9,0xff,0xff,
 0xff,0xff,0xff,0xff,0xff,0xff,0xee,0x03,0x08,0x0a,0x04,0x01,0x90,0x02,0x49,
 0x92,0xf4,0xff,0xff,0xff,0xff,0xff,0xff,0xff,0xfd,0xff,0x97,0xa2,0x20,0x41,
 0x90,0x24,0x10,0x22,0x49,0xd2,0xff,0xff,0xff,0xff,0xff,0xef,0xfb,0xff,0xff,
 0x07,0x00,0x04,0x14,0x41,0x80,0x02,0x49,0x12,0xe9,0xff,0xff,0xff,0xff,0xbf,
 0xff,0xff,0xff,0xbf,0x4b,0x24,0x41,0x41,0x14,0x29,0x10,0x2a,0x49,0x54,0xff,
 0xff,0xdf,0xff,0xff,0xff,0xff,0xef,0xff,0x0f,0x81,0x14,0x04,0x01,0x84,0x04,
 0x44,0x92,0xe2,0xff,0xff,0xff,0xff,0xff,0xff,0xff,0xff,0xfb,0x4f,0x28,0x00,
 0x51,0x48,0x11,0x01,0x92,0x24,0xa9,0xff,0xff,0xff,0xef,0xfe,0xff,0xef,0xff,
 0xff,0x17,0x80,0x52,0x04,0x21,0x00,0x14,0x24,0x92,0xd4,0xff,0xff,0xff,0xff,
 0xef,0xff,0x7f,0xff,0xff,0x1f,0x25,0x04,0x41,0x08,0x54,0x01,0x51,0x49,0xa2,
 0xff,0xff,0xff,0xff,0xff,0xfe,0xff,0xff,0xdf,0x1f,0x00,0x10,0x14,0xa1,0x00,
 0x24,0x0a,0x92,0xd4,0xfe,0xff,0xff,0xff,0xff,0xef,0xfe,0xdf,0xfd,0x5e,0x52,
 0x45,0x01,0x08,0x24,0x01,0x50,0x49,0xa2,0xff,0xff,0xff,0xff,0xff,0xff,0xff,
 0xff,0xff,0x3f,0x00,0x10,0x54,0xa2,0x02,0x0a,0x4a,0x92,0x94,0xfe,0xff,0xff,
 0xff,0xff,0xff,0xff,0xff,0xff,0xbf,0x92,0x04,0x81,0x08,0xa0,0x00,0x12,0x21,
 0xa1,0xff,0xff,0xff,0xff,0xff,0xff,0xdf,0xfb,0xff,0x7b,0x00,0x20,0x04,0x42,
 0x0a,0x0a,0x49,0x4a,0x4a,0xfd,0xff,0xff,0xff,0xef,0xff,0xff,0xff,0xbf,0x3f,
 0x24,0x09,0xa1,0x90,0x80,0x10,0x24,0x89,0xa8,0xee,0xff,0xfd,0xfe,0xff,0x7f,
 0xff,0xff,0xf6,0x7f,0x00,0x20,0x04,0x04,0x2a,0x04,0x92,0x24,0x05,0xff,0xff,
 0xff,0xbf,0xff,0xfd,0xfb,0xff,0xff,0xff,0x48,0x0a,0x21,0xa1,0x00,0x01,0x24,
 0x49,0xa8,0xfa,0xff,0xff,0xff,0xff,0xff,0xff,0xf7,0xff,0xbd,0x00,0x40,0x04,
 0x04,0x12,0x24,0x92,0x24,0x45,0xfe,0xff,0xff,0xff,0xff,0xff,0xff,0xff,0xff,
 0xff,0x94,0x12,0x50,0x91,0x40,0x01,0x48,0x90,0x10,0xfd,0xff,0xff,0xff,0xff,
 0xff,0x7f,0xbf,0xff,0x7f,0x01,0x80,0x00,0x40,0x0a,0x14,0x12,0x05,0x4a,0xfd,
 0xff,0xff,0xff,0xff,0xdf,0xff,0xff,0xef,0xff,0x90,0x24,0x2a,0x15,0x20,0x01,
 0x44,0x54,0x11,0xfd,0xff,0xff,0xff,0xfb,0xfe,0xfd,0xff,0xff,0xfe,0x00,0x00,
 0x00,0x00,0x00,0x00,0xa9,0x42,0xa4,0xf4,0xff,0xff,0xff,0xff,0xff,0xff,0xff,
 0xff,0xf7,0x01,0x00,0x00,0x80,0x44,0x10,0x55,0xbd,0x5b,0xff,0xfb,0xff,0xff,
 0xff,0xff,0xff,0xdf,0xfd,0x7f,0xa9,0xaa,0xaa,0x12,0x12,0x05,0x56,0xab,0xaa,
 0xfa,0xff,0xff,0xbf,0xff,0xff,0x7f,0xff,0xff,0xff,0x11,0x10,0x81,0x48,0x81,
 0x10,0xb5,0x6a,0xb5,0xed,0xff,0xf7,0xfd,0xef,0xef,0xff,0xfb,0xdf,0xff,0xea,
 0xd7,0xb6,0xb6,0x7e,0x2f,0xaa,0xb6,0xad,0xfa,0x7f,0xff,0xff,0xff,0xff,0xf7,
 0xff,0xff,0xff,0x15,0x28,0xa9,0x92,0xd2,0x2a,0xdb,0xaa,0x6a,0xfb,0xff,0xff,
 0xff,0xff,0xff,0xff,0xdf,0xff,0xbd,0xd2,0x55,0x55,0x6d,0xad,0x2d,0x6d,0x5d,
 0x5b,0xdd,0xff,0xff,0xff,0xff,0x7f,0xff,0xff,0xff,0xff,0x55,0xaa,0xaa,0x2a,
 0xd5,0x2a,0xaa,0xd5,0xaa,0xf5,0xff,0xff,0x7f,0xbf,0xff,0xff,0xef,0xfb,0xff,
 0x57,0x55,0x52,0x55,0xbd,0x2d,0xab,0x6a,0xd5,0xaa,0xff,0xff,0xff,0xff,0xfb,
 0xff,0x5f,0xff,0xfe,0x55,0x55,0x55,0x55,0xa5,0x16,0xdd,0xad,0xbb,0xfd,0xf7,
 0xbf,0xfd,0xff,0xff,0xef,0xeb,0xff,0xff,0xaa,0xaa,0xaa,0xaa,0xda,0x3a,0xaa,
 0x5a,0xad,0xaa,0xff,0xff,0xff,0xfd,0xff,0xff,0xdf,0xff,0xff,0xab,0xaa,0xaa,
 0xaa,0x6a,0x17,0x00,0x00,0x00,0x40,0xff,0xff,0xff,0xff,0xff,0xfd,0xa7,0xbf,
 0x37,0xa8,0x5a,0x55,0xd5,0x56,0x35,0x00,0x04,0x80,0xa4,0xff,0xff,0xff,0xef,
 0xdf,0xff,0xdf,0xff,0xdf,0xa9,0xd6,0xb6,0xb6,0xda,0x1a,0x55,0xd9,0xaa,0x52,
 0xff,0xff,0xff,0xff,0xff,0xbf,0x03,0xf8,0x2f,0x04,0x00,0x00,0x00,0x00,0x00,
 0x52,0x25,0x55,0x94,0xfe,0xff,0xff,0xff,0xff,0xff,0x07,0xfc,0xf7,0x02,0x00,
 0x00,0x00,0x00,0x00,0x00,0x00,0x00,0x41,0xfd,0xff,0xf7,0xff,0xff,0xff,0x05,
 0xb2,0x14,0x09,0x00,0x10,0x80,0x48,0x20,0x2a,0xa9,0xaa,0x28,0xfa,0xff,0xff,
 0xff,0xfd,0xfb,0x47,0xe9,0xab,0xa4,0x54,0x85,0x2a,0x12,0x0a,0x40,0x12,0x00,
 0x45,0xf5,0xff,0xff,0xff,0xff,0xff,0x01,0x20,0x55,0x11,0x00,0x00,0x00,0x80,
 0x00,0x2a,0x89,0xaa,0x20,0xfa,0xff,0xff,0xff,0xdf,0xff,0x03,0xd0,0xaa,0x0a,
 0x00,0x00,0x48,0x20,0x00,0x80,0x20,0x40,0x8a,0xe8,0xff,0xff,0xff,0xff,0xff,
 0x28,0xa1,0x55,0xa1,0x00,0x12,0x95,0x02,0x09,0x2a,0x4a,0x15,0x21,0xea,0xff,
 0xff,0xff,0xff,0xff,0x03,0xa8,0xaa,0x4a,0x2a,0x41,0x2a,0x48,0x00,0x90,0x10,
 0x24,0x4a,0xa9,0xff,0xff,0xff,0xff,0x7f,0x00,0x40,0x2b,0xa4,0x45,0xbd,0x84,
 0x00,0x09,0x25,0x44,0x91,0x24,0xd2,0xff,0xff,0xef,0xff,0xfb,0x00,0xa5,0x56,
 0x43,0xaa,0xae,0x22,0x24,0x02,0x48,0x95,0x4a,0x49,0xa9,0xff,0xff,0xff,0xff,
 0x7f,0xa9,0x50,0x2b,0x0d,0x75,0x11,0x00,0x11,0x28,0x25,0x42,0x50,0x54,0x8a,
 0xfe,0xff,0xff,0xbf,0xff,0x02,0x8a,0x56,0x82,0xda,0x0e,0x48,0x80,0x02,0x90,
 0x94,0x8a,0x02,0x21,0xfd,0xff,0xff,0xfd,0x7f,0x48,0xa0,0xad,0x34,0x00,0x80,
 0x00,0x02,0x08,0x4a,0x22,0x25,0x51,0x92,0xfe,0xff,0xff,0xff,0x7f,0x11,0x15,
 0x56,0x15,0xa0,0x00,0x88,0x50,0x02,0x20,0x49,0x48,0xaa,0x54,0xfb,0xff,0xff,
 0xff,0x5f,0x42,0xc0,0xbb,0xa2,0x00,0x20,0x00,0x00,0x00,0x15,0x22,0x25,0x25,
 0x55,0xfd,0xff,0xff,0xff,0xbf,0x14,0x51,0xd5,0x54,0x00,0x04,0x01,0x04,0x08,
 0x40,0x88,0x54,0xca,0xaa,0xea,0xff,0xff,0xff,0xaf,0x6a,0xad,0x2b,0x01,0x25,
 0x00,0x10,0x00,0x00,0x12,0x20,0x22,0x31,0xb5,0xfa,0xff,0xdf,0xdf,0x9f,0xaa,
 0xea,0xda,0xaa,0x00,0x20,0x00,0x21,0x01,0x48,0x45,0x49,0x4a,0xd5,0xd6,0xff,
 0xff,0xff,0x2b,0x09,0x51,0xab,0x0a,0x00,0x00,0x15,0x08,0x08,0x22,0x92,0x24,
 0xa5,0x5a,0xb5,0xff,0xff,0xff,0xaf,0xaa,0xa4,0x6d,0x45,0x4a,0x00,0x80,0x00,
 0x00,0x88,0x54,0x4a,0x2a,0xd5,0x6e,0xff,0xff,0xff,0x2b,0x41,0xe8,0x92,0x2a,
 0x01,0x22,0x11,0x20,0x01,0x22,0x09,0x21,0x91,0xaa,0xda,0xff,0xff,0xff,0xab,
 0x2a,0x65,0x6d,0x52,0x92,0x10,0x04,0x04,0x10,0x00,0x20,0x4a,0xa5,0xa4,0xea,
 0xff,0xff,0xff,0x2f,0x55,0xd9,0xdb,0xed,0x6d,0xed,0x29,0x00,0x00,0x48,0x44,
 0x51,0x52,0x52,0x6a,0xff,0xff,0xff,0xd5,0xaa,0xe4,0xaa,0xb6,0x56,0xb5,0x0a,
 0x00,0x00,0x00,0x00,0x00,0x08,0x01,0x91,0x54,0x95,0x24,0x0b,0x10,0x55,0xb7,
 0x55,0xad,0xef,0x15,0x90,0x04,0x10,0x22,0x48,0x42,0x54,0x6a,0xaf,0x6d,0x5b,
 0x55,0xa5,0xa8,0xaa,0xda,0xf6,0x5a,0x4b,0x02,0x00,0x80,0x80,0x00,0x00,0x00,
 0x91,0x10,0x82,0x80,0x00,0x00,0x00,0x00,0x00,0x00,0x00,0x00,0x00,0x00,0x04,
 0x10,0x02,0x28,0xa5,0xa8,0xca,0x54,0x2a,0x12,0x00,0x40,0x00,0x00,0x00,0x00,
 0x00,0x00,0x08,0x10,0x02,0x48,0x01,0x00,0x42,0x14,0x49,0xa9,0x54,0x04,0x00,
 0x09,0x00,0x00,0x20,0x00,0x80,0x00,0x40,0x20,0x01,0x00,0x91,0x94,0xa2,0x24,
 0x92,0x0a,0x40,0x12,0x00,0x21,0x01,0x00,0x00,0x00,0x00,0x00,0x00,0x00,0x04,
 0x00,0x02,0x08,0x80,0x40,0x50,0x02,0xa0,0x2a,0x04,0x00,0x09,0x00,0x00,0x00,
 0x00,0x00,0xa0,0x40,0x80,0x50,0x02,0x29,0x14,0x0a,0x20,0x09,0x40,0x01,0x10,
 0x00,0x02,0x00,0x00,0x08,0x89,0x08,0x00,0x12,0x82,0x28,0x40,0x41,0xa1,0x00,
 0x40,0x02,0x24,0x00,0x40,0x00,0x00,0x00,0x00,0x00,0x00,0x24,0x80,0x28,0x42,
 0x15,0x28,0x10,0x08,0x10,0x94,0x00,0x04,0x08,0x00,0x00,0x00,0x40,0x00,0x02,
 0x00,0x08,0x82,0x08,0xa0,0x82,0x42,0x40,0x40,0x00,0x00,0x40,0x00,0x28,0x49,
 0x02,0x04,0x22,0x00,0x01,0xa1,0x20,0x42,0x15,0x20,0x14,0x02,0x02,0x21,0x88,
 0x00,0x00,0x02,0x00,0x10,0x00,0x00,0x00,0x00,0x00,0x0a,0x08,0x40,0x12,0x01,
 0x00,0x00,0x00,0x01,0x00,0x11,0x00,0x00,0x00,0x00,0x00,0x00,0x20,0x08,0x80,
 0x42,0x92,0x40,0x90,0x00,0x20,0x08,0x00,0x00,0x00,0x00,0x00,0x00,0x00,0x00,
 0x00,0x00,0x20,0x01,0x00,0x00,0x08,0x09,0x00,0x80,0x40,0x00,0x10,0x00,0x00,
 0x00,0x00,0x00,0x00,0x00,0x00,0x01,0x24,0x10,0x00,0x40,0x20,0x09,0x04,0x04,
 0x22,0x00,0x00,0x02,0x00,0x00,0x00,0x00,0x42,0x04,0x40,0x80,0x80,0x04,0x01,
 0x02,0x80,0x10,0x00,0x00,0x01,0x11,0x90,0x00,0x00};
