#define noname_width 195
#define noname_height 200
static char noname_bits[] = {
 0x52,0x55,0x95,0x54,0x55,0x95,0x2a,0x55,0x55,0x55,0x55,0x95,0xaa,0x54,0x55,
 0x55,0x95,0x54,0x49,0x49,0xa5,0x2a,0x55,0x4a,0x04,0x2a,0x92,0xa8,0xaa,0x94,
 0xaa,0xaa,0x2a,0x29,0x49,0xa9,0x52,0x55,0x4a,0xaa,0xa4,0x54,0x25,0xb5,0xaa,
 0x54,0xa4,0x4a,0xa5,0x02,0x52,0x55,0xab,0x92,0xaa,0x52,0x55,0x55,0x55,0x55,
 0x95,0xaa,0xa4,0x55,0xa5,0xaa,0x2a,0x55,0x45,0x29,0xa5,0x95,0x54,0xaa,0x02,
 0x49,0xa9,0x24,0x55,0x55,0x55,0x4a,0xa9,0xaa,0x54,0xaa,0x54,0x55,0x52,0x95,
 0x2a,0xa5,0x92,0x32,0xa5,0x2a,0x49,0x25,0x15,0x01,0x2a,0x25,0x55,0xa9,0x92,
 0xaa,0xaa,0xaa,0x52,0xab,0x52,0x95,0xaa,0x2a,0xa9,0x54,0xa9,0x2a,0x55,0x55,
 0xa9,0xaa,0x54,0xa9,0x02,0xa5,0x94,0x4a,0x55,0xaa,0x4a,0x55,0x95,0xaa,0x92,
 0x2a,0x55,0x92,0xaa,0x4a,0x95,0x24,0xa9,0x24,0x49,0x2a,0x29,0x95,0x94,0x04,
 0xaa,0xaa,0x54,0x4a,0x55,0xa9,0xaa,0xaa,0x4a,0xaa,0xaa,0xaa,0xaa,0x54,0x55,
 0xa9,0xaa,0x4a,0x55,0xaa,0x52,0xaa,0x52,0x25,0x01,0x25,0x55,0xa5,0xaa,0x4a,
 0x55,0x52,0xa5,0x54,0x55,0x55,0xa5,0xaa,0x92,0x52,0x4a,0x4a,0x55,0xa5,0x2a,
 0x95,0x92,0x94,0x52,0x05,0x48,0x92,0xaa,0x94,0x52,0xaa,0x2a,0x55,0x55,0x55,
 0x52,0x55,0x55,0x55,0x95,0x52,0x95,0x24,0x49,0xa5,0xa4,0xa4,0x52,0xaa,0x02,
 0xaa,0xaa,0x94,0x52,0x95,0xaa,0xaa,0xaa,0xaa,0xaa,0x2a,0xa9,0x24,0xaa,0x54,
 0xa9,0x52,0xaa,0x54,0x92,0x2a,0x55,0x54,0x95,0x00,0x22,0x41,0x52,0x4a,0x2a,
 0x91,0x44,0x92,0x92,0x44,0xa5,0x4a,0xd5,0x52,0xa9,0x4a,0xaa,0x52,0xa5,0x54,
 0x49,0x49,0x25,0x29,0x05,0x48,0x94,0x04,0x25,0x81,0x24,0x29,0x49,0x49,0x52,
 0x52,0x29,0x55,0xaa,0x4a,0x2a,0x95,0x4a,0x2a,0x55,0xaa,0xaa,0xaa,0xa4,0x02,
 0x02,0x11,0xa9,0x48,0x5a,0x4a,0x52,0x15,0xa5,0x2a,0x89,0x52,0x22,0x05,0x29,
 0x51,0x22,0xa9,0xa4,0x24,0x49,0x12,0x91,0x92,0x04,0x50,0x44,0x02,0x92,0x04,
 0x21,0x89,0xa0,0x28,0x88,0xa4,0x88,0x94,0xa8,0x44,0x8a,0x94,0x24,0x12,0x92,
 0x24,0x49,0x4a,0x24,0x01,0x8a,0x12,0xa9,0x08,0x51,0x4a,0x52,0x4a,0x42,0x25,
 0x49,0x52,0x22,0x11,0x29,0x29,0x51,0x92,0x48,0x49,0x49,0x92,0x10,0x91,0x04,
 0x20,0xa4,0x24,0xa2,0xa4,0x24,0x09,0x92,0x94,0x48,0x24,0x89,0x48,0x4a,0x42,
 0x82,0x88,0x24,0x45,0x12,0x92,0x48,0xa4,0x04,0x00,0x8a,0x10,0x92,0x14,0x89,
 0x92,0xa4,0x24,0x29,0x25,0x49,0x52,0x92,0x90,0x14,0x29,0x25,0x42,0x28,0xa1,
 0x48,0x12,0x09,0x52,0x05,0x41,0x8a,0x24,0x45,0x52,0x48,0x92,0x92,0x84,0x48,
 0x92,0x84,0x24,0x4a,0x42,0x92,0x90,0x14,0x45,0x14,0x12,0x44,0xa2,0x10,0x00,
 0x14,0x21,0x41,0x28,0x89,0x92,0x24,0x49,0x2a,0x25,0x49,0x52,0x52,0x91,0x94,
 0x24,0x25,0x51,0x12,0xa1,0x48,0x29,0x09,0xa5,0x02,0x41,0x48,0x14,0x85,0x24,
 0x49,0x92,0x24,0x91,0x48,0x92,0x24,0x09,0x4a,0x22,0x89,0x88,0x88,0x88,0x14,
 0x22,0x02,0xa2,0x00,0x00,0x94,0x92,0x48,0x2a,0x49,0x92,0x24,0x49,0x4a,0x92,
 0x24,0x49,0x52,0x91,0x94,0x24,0x25,0x25,0x51,0xa2,0x44,0xa9,0x08,0x55,0x05,
 0x21,0x04,0x22,0x41,0x24,0x49,0x92,0x24,0x91,0x24,0x49,0x92,0x88,0x48,0x22,
 0x92,0x90,0x48,0x8a,0x48,0x12,0x24,0xa4,0x88,0x00,0x84,0xa8,0x94,0x94,0x52,
 0x92,0x24,0x49,0x4a,0x92,0x24,0x25,0x55,0x92,0x94,0x24,0x25,0x25,0x11,0x25,
 0x49,0x91,0x12,0x22,0x02,0x29,0x45,0x22,0xa5,0x08,0x49,0x4a,0x92,0x22,0x49,
 0x92,0x90,0x80,0x24,0x22,0x49,0x48,0x40,0xa4,0x10,0x24,0x44,0x40,0x91,0x00,
 0x40,0x28,0x89,0x08,0xa5,0x94,0x28,0x29,0x54,0x95,0x24,0x25,0x55,0x92,0x94,
 0x90,0x92,0x8a,0x12,0x4a,0x91,0x88,0x0a,0x4a,0x02,0x15,0x42,0x44,0x52,0x51,
 0x22,0x85,0x84,0x22,0x24,0x49,0x12,0x09,0x49,0x22,0x25,0x24,0x50,0x44,0x21,
 0x44,0x52,0x44,0x81,0x00,0xa0,0x14,0x91,0x44,0x8a,0x94,0x54,0x52,0xd4,0x4a,
 0x92,0xa4,0xa4,0x24,0x89,0x48,0x49,0x85,0x12,0x44,0x89,0x84,0x28,0x2a,0x02,
 0x15,0x82,0x24,0x29,0x21,0x49,0x12,0x29,0x25,0x25,0x49,0x12,0x29,0x49,0x44,
 0x24,0x12,0x51,0x48,0x29,0x24,0x51,0x82,0x00,0x01,0xa0,0x28,0x49,0x44,0x4a,
 0x92,0xa4,0x42,0xa9,0x44,0x24,0xa9,0x44,0x24,0x29,0x49,0x49,0x8a,0x22,0x42,
 0x91,0x84,0x54,0xaa,0x04,0x14,0x44,0x92,0x92,0x94,0x24,0x49,0x54,0xaa,0x12,
 0x91,0x04,0x22,0x89,0x44,0x12,0x92,0x50,0x88,0x28,0x24,0x22,0x89,0x04,0x00,
 0x42,0x09,0x41,0x24,0x51,0x49,0x92,0x92,0x04,0xa4,0x4a,0x52,0x49,0x52,0x92,
 0xa4,0x48,0x8a,0x92,0x42,0x91,0x14,0x22,0x52,0x05,0x20,0x52,0x14,0x91,0x24,
 0x2a,0x29,0x49,0x52,0x51,0x12,0x49,0x94,0x04,0x49,0x12,0x22,0x22,0x49,0x28,
 0x24,0x42,0x11,0x09,0x00,0x4a,0x88,0x52,0x4a,0x4a,0x51,0xa2,0xa4,0x24,0xad,
 0xa4,0x24,0x51,0x52,0x92,0x48,0x95,0x94,0x24,0x41,0x91,0x14,0x4a,0xa4,0x02,
 0x10,0x45,0x00,0x21,0x11,0x8a,0x14,0x12,0xc9,0x12,0x09,0x92,0x0a,0x91,0x24,
 0x25,0x41,0x21,0x08,0x2a,0x24,0x41,0x11,0x41,0x00,0x4a,0x28,0x55,0x8a,0xa4,
 0x24,0x49,0xa9,0x14,0xa5,0xa4,0x24,0xa4,0x4a,0x92,0x48,0x2a,0x4a,0xa5,0x48,
 0x91,0x14,0xa2,0x94,0x02,0x81,0x42,0x22,0x51,0x12,0x92,0xa4,0x04,0xa5,0x4a,
 0x22,0x89,0x22,0x24,0x24,0x22,0x81,0x10,0x20,0x12,0x04,0x81,0x08,0x22,0x00,
 0x14,0x14,0x49,0x8a,0xa4,0x24,0x09,0xa9,0xa8,0x94,0x94,0x54,0x4a,0x49,0x91,
 0x94,0x54,0xa2,0x4a,0x48,0x29,0x2a,0xa5,0x88,0x02,0xa2,0x42,0x12,0x21,0x49,
 0x92,0xa4,0x24,0xaa,0x4a,0x42,0x82,0x28,0x92,0x44,0x22,0x09,0x49,0x10,0x12,
 0x82,0x90,0x00,0x22,0x00,0x08,0x29,0xa4,0x94,0x24,0x29,0x29,0x49,0x55,0x95,
 0x94,0x54,0xa2,0x24,0x29,0x89,0xa4,0x24,0x45,0xa1,0x54,0x4a,0xaa,0x48,0x05,
 0x52,0x42,0x09,0x49,0x82,0x44,0x8a,0x54,0xa9,0x52,0x22,0x89,0x14,0x48,0x84,
 0x24,0x11,0x02,0x22,0x0a,0x00,0x01,0x01,0x12,0x00,0x08,0x09,0x51,0x22,0x29,
 0x29,0x51,0x22,0x55,0x95,0x54,0x52,0xa2,0x22,0x29,0x49,0xa4,0xa8,0x48,0x50,
 0x55,0x54,0xaa,0xa0,0x02,0x42,0x50,0x8a,0x94,0x94,0x94,0x24,0x95,0xaa,0x4a,
 0x09,0x09,0x91,0x94,0x44,0x92,0x12,0x14,0x92,0x8a,0x08,0x89,0x10,0x14,0x00,
 0x94,0x8a,0x50,0x22,0x21,0x21,0x49,0xa8,0x5a,0x15,0x52,0x52,0x4a,0x22,0x29,
 0x49,0xa4,0xa2,0x44,0x10,0x51,0x22,0x45,0xa1,0x02,0x21,0x20,0x0a,0x91,0x54,
 0x95,0x24,0x45,0xd5,0x52,0x89,0x24,0x21,0x49,0x44,0x02,0x09,0x08,0x21,0x4a,
 0x84,0x48,0x20,0x08,0x00,0x44,0x95,0x54,0x4a,0x12,0x52,0x4a,0x59,0xaa,0x4a,
 0x52,0x92,0x94,0x24,0x89,0x54,0xa4,0xa2,0x94,0x20,0x29,0x12,0x95,0x52,0x05,
 0x11,0x22,0x81,0x24,0x49,0x09,0x91,0x84,0x6a,0x25,0x89,0x24,0x45,0x92,0x24,
 0x11,0x49,0x10,0x42,0x0a,0x82,0x84,0x20,0x09,0x00,0xa4,0x88,0x54,0x92,0x24,
 0x52,0x55,0xaa,0x5a,0x95,0x24,0x49,0x28,0x49,0x92,0xa4,0x24,0x45,0x29,0x51,
 0x29,0x51,0x8a,0xa4,0x02,0x09,0x22,0x09,0x49,0x4a,0xa9,0x08,0xa1,0xaa,0x22,
 0x52,0x22,0x45,0x92,0x24,0x12,0x89,0x28,0x42,0x08,0x42,0x08,0x41,0x00,0x00,
 0xa0,0x44,0x52,0x92,0x90,0x02,0x65,0x4a,0x55,0x55,0x89,0x94,0x28,0x49,0x92,
 0x24,0x12,0x45,0x14,0xa5,0x88,0x22,0x2a,0x55,0x05,0x15,0x11,0x84,0x44,0x4a,
 0xa8,0x92,0x54,0x2a,0x09,0x22,0x22,0x05,0x22,0x24,0x49,0xa1,0x10,0x81,0x10,
 0x52,0x48,0x01,0x02,0x00,0x20,0xa4,0x52,0x92,0x92,0x4a,0x24,0xa9,0xaa,0x52,
 0x49,0x49,0x52,0x49,0x91,0x24,0x0a,0xa5,0x54,0x4a,0x89,0x12,0xaa,0xa8,0x02,
 0x0a,0x49,0x88,0x48,0x48,0x92,0x92,0x44,0xaa,0x2a,0x24,0x24,0x51,0x92,0x24,
 0x49,0x51,0x08,0x04,0x01,0x20,0x84,0x04,0x44,0x00,0x50,0x22,0x51,0x92,0x92,
 0x24,0x49,0x52,0x55,0x49,0x49,0x49,0x8a,0x24,0x89,0x24,0x84,0xa2,0x52,0xaa,
 0x4a,0x51,0xa8,0x12,0x05,0x84,0x48,0x94,0x44,0x24,0x49,0x24,0x29,0x55,0x52,
 0x92,0x92,0x24,0x49,0x24,0x89,0x52,0x10,0x88,0x40,0x10,0x08,0x22,0x84,0x00,
 0x12,0x21,0x21,0x29,0x49,0x92,0x92,0x52,0x55,0x85,0x24,0x24,0x49,0x24,0x49,
 0x22,0x84,0x4a,0x11,0x15,0xa5,0x52,0x89,0x28,0x02,0x40,0x14,0x4a,0x84,0x24,
 0x49,0x49,0x24,0x55,0x29,0x49,0x49,0x22,0x49,0x92,0x48,0x51,0x44,0xa4,0x88,
 0x08,0x08,0x42,0x02,0x01,0x8a,0xa2,0x90,0x52,0x4a,0x12,0x52,0xc9,0xaa,0x52,
 0x92,0x24,0x49,0x92,0x44,0x12,0x85,0x92,0x02,0x51,0xa2,0x52,0x14,0xa9,0x04,
 0x50,0x48,0x24,0x24,0x22,0x49,0x15,0x2a,0x55,0x84,0x24,0x92,0x94,0x24,0x92,
 0xa4,0x50,0x20,0x54,0x04,0x48,0x04,0x41,0x04,0x00,0x82,0x22,0x49,0x49,0x49,
 0x2a,0xa2,0xa4,0xaa,0x2a,0x49,0x49,0x22,0x49,0x49,0x12,0x85,0x4a,0x21,0xa9,
 0x22,0xa9,0x14,0x51,0x05,0x28,0x08,0x12,0x22,0x94,0x44,0x91,0xaa,0x2a,0x45,
 0x52,0x92,0x94,0x24,0x92,0x48,0x52,0x10,0x48,0x02,0x10,0x02,0x82,0x08,0x00,
 0x42,0xa5,0x48,0x49,0x51,0x29,0x25,0xa9,0xaa,0xa8,0x84,0x24,0x21,0x49,0x49,
 0x92,0x88,0x4a,0x25,0x54,0x45,0xa9,0x28,0x52,0x01,0x24,0x10,0x22,0x24,0x0a,
 0x92,0x94,0x44,0x55,0x12,0x52,0x92,0x94,0x24,0x90,0x24,0x44,0x40,0x88,0x02,
 0x22,0x22,0x44,0x09,0x02,0x90,0xa2,0x44,0x49,0x51,0x49,0x52,0x5a,0x95,0x4a,
 0x29,0x49,0x52,0x92,0x45,0x92,0x92,0x2a,0x11,0x54,0x94,0x88,0x12,0xa4,0x00,
 0x25,0x08,0x29,0x52,0x94,0x24,0x89,0xa4,0xaa,0x44,0x8a,0x24,0x89,0x44,0x90,
 0x44,0x44,0x84,0x44,0x21,0x21,0x45,0x40,0x09,0x02,0x88,0x52,0x44,0x89,0x22,
 0x49,0x52,0xaa,0x2a,0x29,0x51,0x92,0x24,0x29,0x25,0x92,0x28,0x29,0x29,0x8a,
 0x84,0x28,0x15,0xa4,0x00,0x22,0x04,0x21,0x22,0x91,0x24,0x89,0x92,0xaa,0x92,
 0x08,0x49,0x52,0x92,0x94,0x24,0x45,0x42,0x04,0x41,0x28,0x02,0x42,0x01,0x02,
 0x48,0x51,0x4a,0x94,0x54,0x52,0x55,0x6a,0x55,0x24,0x55,0x92,0x84,0x24,0x21,
 0x89,0x88,0x94,0x52,0x2a,0x41,0x54,0x14,0xaa,0x00,0x12,0x88,0x90,0x22,0x09,
 0x89,0x80,0x54,0x95,0x92,0x84,0x24,0x29,0x89,0x54,0x22,0x22,0x21,0x88,0x00,
 0x2a,0x01,0x81,0x00,0x02,0x48,0x25,0x45,0x44,0x52,0x52,0x35,0xa5,0x2a,0x49,
 0xa9,0x92,0xa4,0x54,0x82,0x94,0x94,0x44,0x11,0x55,0x81,0x54,0x2a,0x55,0x04,
 0x02,0x40,0x10,0x29,0x49,0x25,0x8a,0xaa,0xaa,0x24,0x44,0x48,0x12,0x82,0x54,
 0x42,0x02,0x29,0x4a,0x08,0x28,0x09,0x41,0x08,0x01,0x54,0x95,0x4a,0x42,0x2a,
 0x94,0xa8,0x54,0x55,0x49,0x29,0x25,0x49,0x29,0x89,0x14,0x29,0x42,0x90,0x52,
 0x45,0x24,0x8a,0xa2,0x00,0x01,0x40,0x20,0x29,0x91,0x22,0x25,0x55,0x15,0x52,
 0x92,0x92,0xa4,0x94,0x24,0x49,0x92,0x28,0x25,0x84,0x10,0x89,0x20,0x10,0x02,
 0x54,0x95,0x4a,0x44,0x4a,0x4a,0x92,0xaa,0xaa,0x84,0x24,0x4a,0x12,0x21,0x49,
 0x22,0x49,0x42,0x92,0x28,0x22,0x10,0x95,0x42,0x00,0x42,0x02,0x21,0x29,0x21,
 0x91,0xa4,0xd4,0x4a,0xa9,0x52,0x21,0x49,0x4a,0x22,0x49,0x22,0x29,0x21,0x05,
 0x49,0x85,0x20,0x94,0x02,0x28,0x54,0x4a,0x92,0xaa,0x2a,0xa9,0xaa,0x2a,0x25,
 0x89,0x4a,0x92,0x24,0x49,0x24,0x44,0x92,0x84,0x50,0x24,0x52,0x8a,0x40,0x00,
 0x04,0x81,0x90,0x44,0x49,0x84,0x44,0xaa,0x92,0x10,0x52,0x90,0x24,0x49,0x12,
 0x49,0x91,0x04,0x29,0x88,0x82,0x10,0x20,0x15,0x02,0x52,0x2a,0x4a,0xba,0xb6,
 0x35,0x59,0x55,0x55,0xa5,0x84,0x2a,0x49,0x22,0xa9,0x84,0x0a,0x52,0x44,0x25,
 0x14,0x45,0x85,0x20,0x01,0x00,0x81,0x82,0x50,0x4b,0x8a,0xa4,0xaa,0x4a,0x28,
 0xa9,0x44,0x92,0x94,0x04,0x51,0x50,0x11,0x22,0x11,0x41,0x20,0x20,0x48,0x00,
 0x2a,0x2a,0x14,0xff,0xfd,0xb5,0xaa,0x6a,0x95,0x92,0x44,0x92,0x44,0x22,0xa9,
 0x24,0x85,0xa4,0x14,0xa2,0x94,0x8a,0x8a,0x82,0x02,0x81,0x04,0xa1,0x74,0x5f,
 0xab,0x52,0x95,0x52,0x4a,0x92,0x24,0x92,0x50,0x12,0x49,0x28,0x09,0x81,0x08,
 0x22,0x40,0x20,0x28,0x00,0x54,0xa8,0x54,0xff,0xfb,0xae,0xaa,0x5a,0xa5,0x24,
 0x49,0x92,0x24,0x45,0xa4,0x24,0x45,0xa4,0x54,0x52,0x44,0x95,0x4a,0x41,0x05,
 0x01,0x22,0x82,0xff,0xff,0x77,0x55,0x55,0x15,0x92,0x24,0x49,0x92,0x28,0x09,
 0x89,0x10,0x09,0x89,0x04,0x91,0x20,0x10,0x14,0x00,0x54,0x49,0xfc,0xae,0xd7,
 0xde,0xaa,0xaa,0xaa,0x24,0x49,0x92,0x24,0x45,0x52,0x52,0x4a,0x52,0x24,0x52,
 0x0a,0x45,0x45,0xa1,0x04,0x02,0x84,0xa2,0xff,0xbd,0xb7,0xad,0xaa,0x92,0x92,
 0x24,0x49,0x4a,0x22,0x89,0x04,0x91,0x04,0x89,0x24,0xa1,0x10,0x20,0x08,0x01,
 0xa8,0x28,0xfa,0xfb,0xff,0xde,0x6a,0x55,0x25,0x49,0x4a,0x92,0x28,0x49,0x52,
 0x52,0x4a,0x52,0x24,0x90,0x04,0xa5,0x8a,0x12,0x04,0x09,0x05,0xf9,0x7f,0xdb,
 0x77,0x95,0xaa,0x92,0x24,0x91,0x24,0x45,0xa4,0x88,0x28,0x21,0x84,0x42,0x05,
 0x50,0x08,0x20,0x44,0x01,0x24,0xa8,0xee,0xee,0xff,0xae,0x75,0xad,0x24,0x49,
 0x4a,0x52,0x28,0x09,0x25,0x45,0x8a,0x28,0x14,0x52,0x85,0xa0,0x8a,0x10,0x00,
 0x80,0x02,0xf8,0xff,0xff,0xab,0x4a,0x55,0x49,0x92,0x22,0x09,0x85,0xa4,0x48,
 0x90,0x20,0x85,0xa2,0x88,0x28,0x15,0x40,0x84,0x02,0x2a,0x54,0xff,0xff,0xbb,
 0x57,0x55,0x55,0x25,0x49,0x94,0xa4,0x54,0x12,0x91,0x4a,0x4a,0x28,0x44,0x22,
 0x02,0xa0,0x2a,0x11,0x04,0x80,0x42,0xea,0x7f,0xff,0xad,0xaa,0x5a,0x52,0x92,
 0x22,0x29,0x89,0xa4,0x24,0x91,0x24,0x85,0x12,0x91,0xa8,0x0a,0x00,0x48,0x01,
 0x2a,0x88,0xfe,0xee,0xff,0xaa,0x5a,0x55,0x89,0x24,0x4a,0x42,0x52,0x12,0x49,
 0x22,0x92,0x28,0x24,0x4a,0x02,0x51,0x55,0x21,0x04,0x80,0x52,0xfa,0xff,0xff,
 0x5b,0x55,0xab,0x22,0x49,0x91,0x94,0x04,0x48,0x84,0x94,0x08,0x45,0x49,0x11,
 0x50,0x04,0x00,0x08,0x01,0x2a,0x88,0xdd,0xff,0xef,0xb6,0xb5,0x56,0x4a,0x12,
 0x4a,0x52,0xb2,0xa2,0x52,0x22,0xa5,0x28,0x22,0x44,0x85,0xa8,0xaa,0x22,0x04,
 0x80,0x44,0xfe,0xff,0xff,0xab,0x56,0x5b,0xa1,0xa4,0x22,0x11,0x09,0x11,0x94,
 0x48,0x22,0x84,0x88,0x22,0x28,0x02,0x00,0x48,0x01,0x4a,0x92,0xfa,0xff,0xbd,
 0xae,0xda,0x2a,0x95,0x12,0x94,0xa4,0xa4,0xa4,0x42,0x12,0x49,0x29,0x11,0x94,
 0x42,0x54,0x55,0x21,0x04,0x10,0x80,0xf6,0xbf,0xff,0xb5,0xaa,0x96,0x48,0xa4,
 0x42,0x12,0x29,0x49,0x90,0x44,0x12,0x02,0x4a,0x01,0x10,0x01,0x00,0x0a,0x01,
 0xa2,0x2a,0xdd,0xff,0xdb,0xab,0xb5,0x29,0x25,0x89,0x94,0xa4,0x44,0x92,0x4a,
 0x92,0x48,0x54,0x10,0xaa,0x4a,0xaa,0x2a,0x20,0x04,0x08,0x44,0xf5,0xdf,0xbe,
 0xaa,0xaa,0x96,0x92,0x24,0x49,0x12,0x91,0x24,0x11,0x49,0x84,0x22,0x45,0x01,
 0x80,0x00,0x80,0x4a,0x01,0xa2,0x10,0xfd,0xfd,0xef,0x5f,0x55,0x49,0x24,0x49,
 0x92,0xa4,0x24,0x49,0x4a,0x24,0x29,0x44,0x12,0xaa,0x2a,0xaa,0x4a,0x00,0x02,
 0x08,0xa5,0xe4,0x6f,0xfb,0xea,0x5a,0x25,0x92,0x24,0x49,0x12,0x94,0x24,0x11,
 0x81,0x44,0x91,0x88,0x00,0x81,0x04,0x20,0xaa,0x00,0x22,0x10,0xb5,0xff,0xdf,
 0x5f,0xab,0x4a,0x25,0x49,0x92,0xa4,0x22,0x49,0xea,0x56,0x12,0x25,0x25,0x55,
 0x14,0x50,0x85,0x00,0x02,0x10,0x45,0xea,0xdf,0xb6,0xed,0xaa,0xaa,0x90,0x24,
 0x49,0x12,0x49,0x92,0x40,0x8b,0x88,0x48,0x40,0x08,0x82,0x0a,0x20,0xa9,0x00,
 0x4a,0x88,0x54,0xf5,0xff,0xbf,0x75,0x2b,0x55,0x49,0x92,0xa4,0x94,0x44,0xff,
 0x3f,0x22,0x22,0x15,0x51,0x29,0x50,0x15,0x04,0x01,0x80,0x22,0xd4,0x7f,0xb5,
 0xef,0x96,0xdd,0x24,0x24,0x49,0x52,0x22,0x11,0xfc,0x5f,0x91,0x88,0x40,0x04,
 0x00,0x05,0x40,0x41,0x00,0x2a,0x48,0xa9,0xed,0xff,0xbf,0xed,0x17,0x49,0x49,
 0x92,0x84,0x94,0xe4,0xff,0xff,0x44,0x12,0x8a,0x52,0x55,0x50,0x05,0x14,0x05,
 0x00,0x12,0x6a,0xbb,0xfe,0xff,0xd6,0xdf,0x24,0x25,0x49,0x52,0x22,0x92,0xff,
 0xff,0x90,0x44,0x51,0x00,0x00,0x05,0x20,0x41,0x00,0xaa,0x48,0x50,0xef,0xf7,
 0xff,0xfb,0x17,0x49,0x94,0xa4,0x24,0x49,0xe9,0xff,0xff,0x03,0x10,0x04,0x55,
 0x15,0x90,0x94,0x04,0x01,0x00,0x84,0xaa,0xfa,0xff,0xfe,0xfe,0x5f,0x92,0x42,
 0x12,0x49,0x24,0xd2,0xff,0xda,0x45,0x85,0x42,0x08,0xa0,0x0a,0x01,0x50,0x02,
 0xaa,0x12,0xa4,0xb7,0xfd,0xff,0xf7,0x45,0x49,0x94,0xa4,0x24,0x49,0xf4,0xff,
 0xff,0x0f,0x28,0x28,0xa1,0x02,0x20,0xa4,0x02,0x00,0x00,0x40,0x91,0xfa,0xff,
 0xdf,0xff,0x2f,0x10,0x22,0x11,0x89,0x24,0xe9,0xff,0xff,0x9f,0x02,0x42,0x08,
 0x50,0x89,0x08,0xa0,0x02,0xaa,0x2a,0x4a,0xef,0xff,0xff,0xff,0x4b,0xa5,0x94,
 0x24,0x52,0x92,0xfa,0xff,0x7f,0x17,0xa8,0x08,0xa5,0x0a,0x24,0x22,0x05,0x00,
 0x00,0x00,0xa1,0xfa,0xff,0xff,0xff,0x17,0x12,0x22,0x4a,0x09,0x49,0xfc,0xff,
 0xff,0x5f,0x02,0xa2,0x00,0x20,0x01,0x00,0x50,0x02,0xaa,0xaa,0x54,0xbf,0xff,
 0xff,0xdf,0xa5,0xa4,0x44,0x91,0xa4,0x24,0xff,0xef,0xfb,0x3f,0x48,0x04,0x52,
 0x82,0xa4,0x52,0x09,0x01,0x00,0x00,0x41,0xfb,0xbf,0xff,0xff,0x13,0x12,0x29,
 0x24,0x29,0x49,0x7d,0xff,0xbf,0x2f,0x02,0xa1,0x84,0x20,0x08,0x04,0x40,0x00,
 0xaa,0x2a,0xaa,0xfd,0xff,0xff,0xff,0x4a,0x49,0xa2,0x92,0x44,0xa4,0xff,0xff,
 0xff,0x7f,0x54,0x14,0x10,0x8a,0xa0,0x90,0x12,0x05,0x00,0x00,0xa1,0xee,0xff,
 0xff,0xfd,0x42,0x92,0x14,0x24,0x29,0x49,0xff,0xff,0xff,0x7f,0x00,0x01,0x85,
 0x00,0x0a,0x04,0x44,0x00,0xaa,0xaa,0x54,0xff,0xff,0xff,0xff,0x29,0x49,0xa2,
 0x92,0x44,0xd2,0xff,0xff,0xff,0xff,0x12,0x54,0x10,0xaa,0x20,0x51,0x10,0x01,
 0x00,0x00,0x88,0xff,0xff,0xff,0xff,0x0a,0x84,0x48,0x24,0x92,0xa4,0xff,0xff,
 0xff,0xdd,0x01,0x01,0x89,0x00,0x08,0x04,0x05,0x00,0xaa,0xaa,0xf2,0xff,0xff,
 0xff,0x5f,0x55,0x29,0x91,0x48,0x49,0xf2,0xff,0xff,0xff,0xff,0x52,0x24,0x24,
 0x2a,0x51,0x10,0x50,0x01,0x00,0x00,0x40,0xff,0xff,0xdf,0xff,0x8a,0x44,0x4a,
 0x12,0x92,0xe8,0xff,0xff,0xfe,0xff,0x07,0x08,0x81,0x00,0x04,0x45,0x05,0x00,
 0xaa,0xaa,0xfa,0xff,0xff,0xff,0xff,0x2b,0x29,0x91,0xa4,0x44,0xfe,0xff,0xff,
 0xff,0xff,0x45,0x21,0x24,0x52,0x11,0x10,0x50,0x05,0x00,0x40,0xd0,0xff,0xff,
 0xff,0xff,0xad,0x04,0x24,0x09,0x91,0xf8,0xff,0xff,0x77,0xdf,0x17,0x88,0x00,
 0x00,0x80,0x04,0x04,0x00,0xaa,0x8a,0xfe,0xff,0xff,0xff,0xbb,0x5f,0xa9,0x88,
 0xa4,0x24,0xff,0xff,0xef,0xff,0xff,0x8f,0x20,0xaa,0x4a,0x4a,0x50,0x11,0x01,
 0x00,0x20,0xf4,0xff,0xff,0xff,0xff,0x57,0x42,0x22,0x11,0x12,0xfc,0xff,0xff,
 0xff,0xff,0x1e,0x09,0x00,0x80,0x10,0x05,0x44,0x00,0x52,0x45,0xfb,0xff,0x7f,
 0xff,0xff,0x7f,0x09,0x49,0xa4,0xa4,0xff,0xff,0xff,0xff,0xfb,0x37,0xa0,0x24,
 0x09,0x02,0x90,0x00,0x01,0x08,0x90,0xfc,0xff,0xff,0xff,0xff,0x5f,0x45,0x92,
 0x12,0x89,0xff,0xdf,0xff,0xff,0xff,0x3f,0x02,0x00,0xa0,0xa0,0x04,0x52,0x00,
 0xa2,0x22,0xff,0xff,0xff,0xff,0xdf,0xff,0x12,0x41,0xa4,0xe4,0xff,0xff,0xff,
 0xff,0xbf,0x5f,0x48,0x55,0x02,0x0a,0x52,0x00,0x01,0x00,0x94,0xfd,0xff,0xff,
 0xbf,0xff,0x7b,0x95,0x14,0x09,0x41,0xff,0xff,0xff,0xff,0xff,0xff,0x00,0x00,
 0x90,0x80,0x00,0x4a,0x00,0xaa,0xa0,0xfe,0xff,0xff,0xff,0xff,0xff,0x25,0x22,
 0x24,0xfa,0x7f,0xff,0xff,0xff,0xfe,0xfd,0x25,0x92,0x42,0x24,0x44,0x20,0x05,
 0x00,0x4a,0xfa,0xff,0xff,0xff,0xff,0xff,0x8b,0x48,0x89,0xc2,0xff,0xff,0xff,
 0xff,0xf7,0xff,0x82,0x20,0x10,0x01,0x11,0x09,0x00,0xaa,0x20,0xeb,0xff,0xfe,
 0xff,0xff,0x6f,0x2f,0x22,0x52,0xf4,0xff,0xff,0xff,0xdf,0xff,0xf7,0x25,0x82,
 0x04,0x14,0x00,0x20,0x01,0x00,0x48,0xda,0xff,0xff,0xff,0xff,0xfe,0x57,0x89,
 0x04,0xe9,0xff,0xff,0xff,0xff,0xff,0xff,0x0b,0x10,0x20,0x41,0xa9,0x44,0x00,
 0xaa,0x82,0x74,0xff,0xff,0xff,0xfd,0xff,0xbf,0x24,0x52,0xfc,0xff,0xff,0xfb,
 0xff,0xff,0xdf,0x27,0x41,0x89,0x08,0x04,0x12,0x05,0x00,0x28,0xd5,0xff,0xff,
 0xfd,0xff,0xff,0xdb,0x12,0x21,0xea,0xfd,0xff,0xff,0xfd,0xff,0xfd,0x0f,0x10,
 0x00,0x80,0x80,0x00,0x00,0xaa,0x42,0x54,0xff,0xff,0xff,0xff,0x6f,0x7f,0x45,
 0x44,0xfd,0xff,0xff,0xff,0xff,0xbf,0xff,0x9e,0x44,0x2a,0x25,0x2a,0x92,0x00,
 0x00,0x10,0xd1,0xfd,0xff,0xff,0xff,0xff,0xff,0x2b,0x12,0xfa,0xff,0xbf,0xff,
 0xef,0xff,0xff,0x2f,0x00,0x00,0x00,0x80,0x00,0x02,0xaa,0x4a,0xaa,0xff,0xff,
 0xff,0xff,0xff,0x77,0x4b,0x49,0xfd,0xff,0xff,0xff,0xff,0xff,0xef,0x3f,0x92,
 0xa4,0x54,0x09,0x4a,0x00,0x00,0x80,0x40,0xfd,0xff,0xff,0xff,0xff,0xff,0x2f,
 0x00,0xfe,0xff,0xfd,0xff,0xff,0xf7,0xff,0xbf,0x00,0x00,0x00,0x80,0x10,0x01,
 0x52,0x15,0xaa,0xfe,0xff,0xff,0xff,0xff,0xff,0xfd,0x56,0xff,0xff,0xff,0xff,
 0xff,0xff,0xbf,0xff,0x48,0x92,0x44,0x15,0x02,0x04,0x04,0x40,0x11,0xfb,0xff,
 0xff,0xff,0xf7,0xdf,0xbf,0x82,0xfe,0xff,0xff,0xef,0xff,0xff,0xfb,0xef,0x01,
 0x00,0x10,0x80,0x20,0x01,0x50,0x09,0x44,0xed,0xff,0xff,0xef,0x7f,0xff,0xef,
 0xff,0xff,0xff,0xff,0xff,0xff,0xdf,0xff,0x7f,0x93,0x24,0x41,0x12,0x12,0x00,
 0x0a,0x44,0x51,0xfa,0xff,0xbf,0xff,0xff,0xff,0xff,0x5f,0xff,0xff,0xff,0xff,
 0xff,0xfe,0xff,0xfd,0x02,0x40,0x08,0x80,0x40,0x02,0x20,0x11,0x82,0xea,0xff,
 0xff,0xff,0xff,0xff,0xfd,0xff,0xdf,0xff,0xbf,0xff,0xfb,0xff,0xdf,0xff,0x47,
 0x02,0x21,0x25,0x12,0x00,0x00,0xa0,0x28,0xfa,0xff,0xff,0xff,0xff,0xdf,0xff,
 0xf7,0xfb,0xef,0xff,0xff,0xef,0xff,0xfd,0xef,0x03,0x28,0x08,0x00,0x00,0x02,
 0x24,0x01,0x82,0xa8,0xff,0xff,0xff,0xbf,0xff,0xff,0xfe,0xff,0xff,0xfe,0xf7,
 0xf7,0xff,0xff,0xff,0x97,0x00,0x21,0x49,0x49,0x00,0x00,0x48,0x00,0xea,0xff,
 0xff,0xff,0xff,0xfb,0xff,0xff,0xff,0xff,0xff,0xff,0xeb,0xfb,0xff,0xfd,0x03,
 0x04,0x04,0x00,0x00,0x01,0x55,0x25,0x55,0xa9,0xff,0xff,0xff,0xff,0x7f,0xef,
 0xf7,0xff,0xfd,0xff,0xff,0xd7,0xff,0xef,0xff,0x0f,0x20,0x00,0x92,0x24,0x04,
 0x92,0x92,0x4a,0xea,0xff,0xff,0xff,0xff,0xff,0x7f,0xff,0xfe,0xff,0xff,0xfe,
 0xe7,0xff,0xff,0xff,0x07,0x00,0x00,0x00,0x00,0x00,0x6d,0xad,0xaa,0xb5,0xfb,
 0xff,0xbf,0xff,0xef,0xff,0xff,0xff,0xff,0xff,0xff,0xef,0x7f,0x7f,0xff,0x8b,
 0x94,0x52,0xa0,0x92,0x00,0xaa,0xaa,0x6a,0xdb,0xff,0xff,0xff,0xf7,0xfd,0xf7,
 0xdd,0xff,0xff,0xef,0xff,0xaf,0xff,0xff,0xdf,0x47,0x40,0x08,0x88,0x24,0x02,
 0x55,0xd5,0x56,0xb5,0xfe,0xff,0xff,0xff,0xff,0xff,0xff,0xef,0xbf,0xff,0xdf,
 0xeb,0xff,0xef,0xfb,0x05,0x15,0xa1,0xb2,0xd5,0x05,0xaa,0x55,0xb5,0xde,0xff,
 0x7e,0xff,0xff,0xff,0xfe,0xff,0xff,0xff,0xff,0xff,0x97,0xfd,0xff,0xff,0x03,
 0x48,0x00,0xa4,0xba,0x06,0xb5,0xaa,0xaa,0xa5,0xf6,0xff,0xff,0xff,0xff,0x6f,
 0xff,0xfd,0xfd,0xff,0xfb,0xd5,0xff,0xff,0xff,0x00,0x01,0xa4,0xaa,0x6d,0x05,
 0x54,0x6b,0x55,0xb5,0xfd,0xff,0xff,0xff,0xb7,0xff,0xff,0xff,0xff,0xfb,0xff,
 0xab,0xee,0xfd,0xff,0x01,0x00,0x90,0xaa,0xb6,0x05,0xab,0x5a,0xdb,0xd6,0xf6,
 0xff,0xff,0xff,0xff,0xff,0xdd,0xff,0xff,0xbf,0x7f,0x55,0xff,0x7f,0xbf,0x04,
 0x40,0x69,0x6b,0x6d,0x05,0x75,0xab,0x55,0x6b,0xbb,0xef,0xff,0xf7,0xff,0xdb,
 0xff,0xff,0xff,0xff,0xff,0x4b,0xfd,0xff,0xff,0x00,0x00,0x92,0x55,0xb7,0x02,
 0x44,0x2a,0x55,0x5d,0xed,0xfd,0xff,0xff,0x7f,0xff,0xff,0xef,0xdf,0xff,0x7f,
 0x54,0xff,0xff,0x6b,0x17,0x55,0x55,0xad,0xda,0x05,0x51,0xa9,0xaa,0xd5,0x76,
 0xff,0xdd,0x7f,0xff,0xff,0xff,0xff,0xff,0xff,0xff,0xab,0xfc,0xff,0xbf,0x29,
 0x40,0xa9,0x52,0xb5,0x06,0x00,0x00,0x00,0x00,0x00,0xfd,0xff,0xff,0xff,0xef,
 0xde,0xff,0xff,0xff,0x3f,0xaa,0xf6,0xff,0x62,0x57,0xbb,0xaa,0xee,0xd6,0x02,
 0x00,0x00,0x00,0x00,0x80,0xf4,0xff,0xff,0xff,0xfd,0xff,0xff,0xfb,0xfd,0x7b,
 0x55,0xfd,0xff,0xab,0xaa,0xaa,0xaa,0x55,0x5b,0x05,0x12,0x22,0x49,0x52,0x25,
 0xdb,0xff,0xff,0xff,0xff,0xff,0xfd,0xff,0xff,0x3f,0x00,0xc0,0x5f,0x52,0x5d,
 0x55,0x01,0x00,0x00,0x00,0x84,0x48,0xa4,0x2a,0x55,0xf5,0xff,0xff,0xef,0xff,
 0xff,0xbf,0xff,0xff,0x3f,0x00,0xe0,0xff,0x8a,0xd6,0xaa,0x00,0x00,0x00,0x00,
 0x50,0x02,0x11,0x40,0x80,0x48,0xff,0xff,0xff,0xff,0xbd,0xff,0xff,0xdf,0x1f,
 0x80,0x00,0xa5,0x2a,0x55,0xb5,0x02,0x00,0x80,0x00,0x0a,0x50,0x04,0x15,0x29,
 0xa2,0xfe,0xff,0x7f,0xef,0xff,0xff,0xff,0xff,0xbf,0x56,0xaa,0x9e,0x12,0x55,
 0x55,0xa8,0xaa,0x2a,0x02,0x20,0x09,0x51,0x20,0x82,0x48,0xfd,0xff,0xff,0xff,
 0xff,0xff,0xff,0xff,0x0f,0x00,0x00,0x52,0x25,0xa8,0x16,0x02,0x00,0x80,0x00,
 0x00,0x40,0x08,0x8a,0x50,0x84,0xfa,0xff,0xff,0xff,0xff,0xff,0xdf,0xfd,0x1f,
 0x00,0x00,0xb4,0x9a,0x44,0x2d,0x00,0x00,0x00,0x00,0xaa,0x8a,0x52,0x51,0x8a,
 0x52,0xea,0xff,0xff,0xff,0xf7,0xfd,0xff,0x7f,0x0f,0x88,0x44,0x4a,0x25,0x00,
 0x15,0x90,0x84,0x24,0x00,0x45,0x20,0x88,0x08,0x51,0x88,0x68,0xff,0xff,0xff,
 0xff,0xff,0xfe,0xff,0x2f,0x01,0x10,0xb4,0x4a,0x41,0x8a,0x04,0x00,0x00,0x00,
 0x88,0x4a,0x25,0xa5,0x84,0x52,0xd2,0xff,0xff,0xff,0xff,0xff,0xff,0xff,0x17,
 0x48,0x42,0xd2,0x52,0x01,0x00,0x20,0x92,0x48,0x01,0x22,0x10,0x90,0x10,0x51,
 0x84,0x94,0xfe,0xff,0xff,0xff,0xef,0xff,0xf7,0x8f,0x00,0x00,0xb0,0x0a,0x04,
 0x00,0x82,0x20,0x00,0x00,0x88,0xa2,0x22,0xa5,0x24,0x55,0xa5,0xfa,0xff,0xff,
 0xfd,0xff,0xff,0xff,0x17,0x22,0x49,0x6a,0x75,0x11,0x00,0x00,0x84,0x92,0x02,
 0x21,0x08,0x48,0x12,0x49,0x52,0xaa,0xf6,0xff,0xff,0xff,0xff,0xef,0xff,0x0f,
 0x00,0x00,0x40,0x8d,0x00,0x00,0x00,0x00,0x20,0x00,0x84,0x50,0x25,0x49,0x92,
 0xaa,0x2a,0xa9,0xff,0xff,0xff,0xff,0xff,0xff,0x27,0x24,0x49,0xe9,0x5a,0x4a,
 0x00,0x90,0x24,0x85,0x04,0x00,0x05,0x00,0x90,0xaa,0xaa,0x4a,0xea,0xff,0xff,
 0xff,0xff,0xff,0xff,0x07,0x01,0x10,0x50,0x55,0x00,0x04,0x00,0x09,0x00,0x00,
 0x14,0x50,0x55,0xa5,0x54,0x55,0x55,0xa9,0xff,0xff,0xff,0xff,0xff,0xff,0xab,
 0x54,0x45,0x65,0xab,0x2a,0x00,0x24,0x40,0x08,0x01,0x00,0x00,0x80,0x2a,0x55,
 0x29,0x95,0x54,0xfd,0xff,0xff,0x7f,0xff,0xff,0x2b,0xa5,0x10,0xa8,0x55,0x02,
 0x00,0x90,0x00,0x00,0x00,0xa0,0x4a,0x55,0x54,0xa5,0xaa,0x6a,0xab,0xfb,0xff,
 0xff,0xff,0xff,0xfe,0x55,0x4a,0xa5,0x72,0x55,0x55,0xd5,0x25,0x02,0x22,0x00,
 0x04,0x20,0x28,0xa5,0x54,0x55,0x5b,0xd5,0xec,0xff,0xff,0xfd,0xff,0xff,0x4b,
 0x35,0x55,0xad,0xaa,0x84,0x24,0x14,0x20,0x00,0x00,0x90,0x44,0x45,0x49,0x55,
 0xb5,0xb6,0xad,0x5b,0xfb,0xff,0xff,0xff,0x7f,0x89,0x80,0x00,0xb0,0xad,0x5a,
 0x55,0xa5,0x8a,0x88,0x00,0x04,0x11,0x52,0xaa,0xaa,0xaa,0xd5,0x76,0xd5,0xfe,
 0xff,0xff,0xff,0xff,0x2a,0x12,0x48,0x65,0x55,0xa5,0xaa,0x92,0x40,0x02,0x02,
 0x50,0xa4,0x88,0x24,0x55,0x6d,0xb5,0xaa,0x6e,0xff,0xff,0xff,0xfd,0xff,0xa5,
 0x48,0x02,0xe8,0xab,0x10,0x00,0x00,0x12,0x10,0x00,0x04,0x09,0x22,0x92,0xaa,
 0x56,0x5b,0xdf,0xdb,0xfb,0xff,0xff,0xff,0xfd,0x08,0x02,0x20,0x51,0x55,0x02,
 0x00,0x00,0x00,0x40,0x00,0x00,0xa0,0x94,0x24,0x50,0xa9,0xa4,0x28,0xb5,0xdf,
 0xff,0xff,0xff,0xdf,0x55,0xa9,0x95,0xf4,0xaf,0x54,0x6d,0xaf,0x00,0x01,0x00,
 0x00,0x00,0x41,0x92,0x0a,0x44,0xaa,0xd6,0xea,0xfa,0xff,0xff,0xff,0x7f,0xab,
 0x54,0x4a,0x55,0xb5,0xaa,0xaa,0x52,0x05,0x00,0x00,0x48,0x02,0x08,0x49,0xa0,
 0x08,0x01,0x00,0x12,0xa5,0xaa,0xaa,0xaa,0x6a,0x41,0x22,0x11,0xa4,0x0a,0x00,
 0x00,0x00,0x00,0x00,0x01,0x00,0x00,0x40,0x00,0x0a,0x12,0xa0,0x92,0xa4,0x5a,
 0xed,0xbf,0x5b,0xab,0x2a,0x91,0x48,0xa9,0x92,0x84,0x08,0x00,0x00,0x08,0x00,
 0x00,0x48,0x00,0x44,0x50,0x40,0x04,0x08,0x12,0xa0,0x12,0x40,0x84,0x88,0x00,
 0x00,0x00,0x00,0x00,0x00,0x00,0x00,0x00,0x00,0x00,0x08,0x01,0x08,0x10,0x04,
 0x15,0x01,0x80,0x40,0x15,0x48,0x15,0x20,0x20,0x02,0x00,0x00,0x80,0x00,0x00,
 0x00,0x00,0x00,0x00,0x00,0x00,0x00,0x40,0x80,0x90,0x20,0x54,0x29,0x0a,0xa2,
 0x22,0x49,0x45,0x45,0x08,0x09,0x01,0x20,0x12,0x00,0x00,0x00,0x00,0x00,0x00,
 0x20,0x00,0x01,0x01,0x00,0x08,0x01,0x42,0xa1,0x14,0x48,0x92,0x28,0x92,0x42,
 0x00,0x48,0x84,0x00,0x92,0x00,0x08,0x80,0x00,0x00,0x00,0x08,0x00,0x10,0x02,
 0x40,0x24,0x08,0x0a,0x40,0x21,0x08,0x82,0x08,0x00,0x20,0x00,0x00,0x22,0x00,
 0x24,0x01,0x00,0x20,0x00,0x00,0x00,0x08,0x00,0x40,0x00,0x80,0xa2,0x40,0x09,
 0x08,0x42,0x00,0x82,0x04,0x04,0x00,0x48,0x08,0x89,0x00,0x00,0x00,0x00,0x00,
 0x00,0x01,0x00,0x00,0x00,0x09,0x49,0x08,0x0a,0x20,0x41,0x08,0x29,0x28,0x02,
 0x01,0x11,0x00,0x00,0x00,0x00,0x00,0x00,0x00,0x00,0x04,0x00,0x80,0x24,0x11,
 0x00,0x00,0xa2,0x80,0x4a,0x94,0x42,0x82,0x02,0x21,0x20,0x00,0x41,0x22,0x00,
 0x00,0x40,0x00,0x00,0x00,0x00,0x20,0x01,0x00,0x00,0x20,0x24,0x08,0x2a,0x00,
 0x01,0x08,0x48,0xa8,0x04,0x00,0x04,0x00,0x08,0x01,0x00,0x08,0x12,0x82,0x00,
 0x90,0x00,0x10,0x00,0x80,0x84,0x00,0x82,0x00,0x52,0x88,0x22,0x11,0x02,0x00,
 0x00,0x00,0x20,0x01,0x20,0x00,0x00,0x00,0x20,0x00,0x00,0x00,0x00,0x00,0x04,
 0x00,0x90,0x10,0x48,0x00,0x20,0x08,0x84,0x28,0x09,0x00,0x00,0x08,0x20,0x00,
 0x24,0x01,0x00,0x00,0x00,0x00,0x00,0x00,0x00,0x00,0x00,0x00,0x00,0x00,0x84,
 0x04,0x00,0x21,0x00,0x20,0x02,0x00,0x00,0x04,0x00,0x00,0x80,0x00,0x00,0x00,
 0x00,0x00,0x00,0x00,0x00,0x00,0x02,0x84,0x00,0x20,0x40,0x10,0x00,0x02,0x02,
 0x20,0x00,0x80,0x80,0x00,0x00,0x00,0x10,0x00,0x00,0x00,0x00,0x00,0x40,0x00,
 0x08,0x00,0x00,0x84,0x00,0x00,0x02,0x00,0x40,0x00,0x00,0x00,0x00,0x00,0x00,
 0x00,0x10,0x00,0x00,0x00};
