#define noname_width 140
#define noname_height 260
static char noname_bits[] = {
 0xff,0xff,0xfb,0xbf,0xdf,0xbb,0xab,0xad,0xad,0xaa,0x54,0x55,0xa9,0x4a,0x95,
 0xaa,0x44,0x02,0xff,0xff,0xff,0xfb,0xfb,0xff,0xff,0xff,0xff,0xff,0xff,0xff,
 0xff,0xff,0xff,0xf7,0xbf,0x0f,0xff,0xff,0xbf,0xff,0xff,0xff,0xff,0xff,0xff,
 0xff,0xff,0xff,0xdf,0xbe,0x6d,0x5f,0x75,0x05,0xff,0xbd,0xff,0xff,0x7f,0x77,
 0xff,0xff,0xf7,0xff,0xff,0xff,0xff,0xf7,0xff,0xfd,0xff,0x0f,0xef,0xff,0xff,
 0xff,0xff,0xff,0x7f,0xdb,0xff,0xee,0xf7,0xdf,0xff,0xff,0xff,0xff,0xff,0x0f,
 0xff,0xff,0xff,0xff,0xfd,0xff,0xf7,0xff,0xde,0xff,0xfe,0xfd,0xfd,0xff,0xff,
 0xff,0xff,0x0f,0xff,0xff,0xfb,0xdf,0xef,0xdf,0xff,0xff,0xff,0xff,0x7f,0xff,
 0xff,0xff,0xff,0xdf,0xff,0x0f,0xff,0xff,0xff,0xff,0xff,0xfb,0xff,0xff,0xff,
 0xff,0xff,0xff,0xef,0xff,0xbf,0xff,0xbf,0x0f,0xff,0xbe,0xff,0xfe,0xff,0xff,
 0xde,0xfb,0x7f,0xef,0xff,0xff,0xff,0xbd,0xfb,0xfb,0xfb,0x0f,0xf7,0xff,0xff,
 0xff,0xff,0xff,0xff,0xff,0xf7,0xff,0xef,0x7f,0xff,0xff,0xff,0xff,0xff,0x0f,
 0xff,0xff,0xef,0xff,0xbf,0xff,0xff,0xdf,0xff,0xff,0xfe,0xf7,0xbf,0xff,0xff,
 0x7f,0xff,0x0d,0xff,0xf7,0xff,0xdf,0xf6,0xdd,0x77,0xff,0xfd,0xfb,0xff,0xff,
 0xff,0xff,0xff,0xff,0xff,0x0f,0xbf,0xff,0xff,0xff,0xff,0xff,0xff,0xff,0x6f,
 0xff,0x7f,0xff,0xfb,0xf7,0xdf,0xfe,0xef,0x0f,0xff,0xff,0xfb,0x76,0xd5,0xff,
 0xff,0xfb,0xff,0xdf,0xff,0xff,0xff,0xff,0xfd,0xff,0xff,0x0f,0xf7,0xbf,0xff,
 0xdf,0xbd,0xff,0xff,0xff,0xff,0xff,0xf7,0xef,0xbf,0xff,0xff,0xef,0xff,0x0f,
 0xff,0xff,0x7f,0x77,0xcb,0xfd,0xfb,0x7f,0xff,0xff,0xfe,0x7f,0xff,0xff,0xff,
 0xff,0x7d,0x0f,0xff,0xf7,0xdf,0xdd,0xb6,0xbf,0xff,0xff,0xff,0xff,0xff,0xfe,
 0xff,0xbb,0xff,0xff,0xff,0x0f,0xff,0xff,0xff,0xb7,0x4a,0xfa,0xff,0xff,0xff,
 0xf7,0xff,0xff,0xf7,0xff,0x7f,0xff,0xff,0x0f,0xbf,0xff,0xb6,0xed,0x2a,0xfd,
 0xbf,0xf7,0xf7,0xff,0xfb,0xff,0xff,0xff,0xfb,0xbb,0xff,0x0f,0xff,0xff,0xff,
 0x7f,0x8b,0xc0,0xff,0xff,0xff,0xff,0xff,0xf7,0xff,0xff,0xff,0xff,0xff,0x0f,
 0xff,0xff,0x7f,0xab,0x12,0xfa,0xff,0xff,0xff,0xff,0xff,0xff,0xff,0xfd,0xff,
 0xff,0xdf,0x0f,0xff,0xbb,0xdb,0xff,0xad,0x00,0xfd,0xff,0xff,0x7e,0xbf,0xbf,
 0xfb,0xff,0xff,0xff,0xff,0x0f,0xf7,0xff,0x7f,0x6d,0x03,0x52,0xff,0xff,0xff,
 0xff,0xff,0xff,0xff,0xbf,0xbf,0xff,0xfe,0x0d,0xff,0xff,0xde,0xfb,0xfe,0x09,
 0xd2,0x7f,0xff,0xff,0xff,0xff,0xff,0xff,0xff,0xff,0xff,0x0f,0x7f,0xff,0x7b,
 0xef,0x0b,0xa5,0xf4,0xff,0xff,0xf7,0xff,0xfb,0xdf,0xff,0xfb,0xf7,0xf7,0x0f,
 0xff,0xff,0xff,0xff,0xfe,0x4a,0x4a,0xff,0xff,0xff,0xf7,0xff,0xff,0xfb,0xff,
 0xff,0xff,0x0f,0xff,0xef,0xd7,0xda,0xab,0x28,0xb5,0xff,0xf7,0xff,0xff,0x7f,
 0xff,0xff,0xff,0xff,0xbf,0x0f,0xff,0x7f,0xff,0x7f,0xbf,0x46,0xd2,0xff,0xff,
 0xff,0xff,0xff,0xff,0xff,0xff,0xfe,0xfe,0x0f,0xf7,0xff,0x7f,0xf7,0xdb,0x0a,
 0x69,0xff,0xff,0xff,0x7f,0xff,0xf7,0xbf,0xff,0xff,0xff,0x0f,0xff,0xff,0xdb,
 0xff,0xbf,0x6a,0x92,0xff,0xff,0xff,0xff,0xef,0xff,0xff,0xdd,0xef,0xff,0x0d,
 0x7f,0xff,0xff,0xde,0x76,0x25,0x69,0xff,0xff,0xdf,0xff,0xff,0xff,0xff,0xff,
 0xff,0xfb,0x0f,0xff,0x7f,0xef,0xff,0xdf,0x5b,0x45,0xf5,0xff,0xff,0xf7,0xff,
 0xff,0xfb,0xff,0xff,0xdf,0x0f,0xff,0xff,0xff,0xdd,0x7e,0x55,0x95,0xde,0x7f,
 0xff,0xff,0xff,0x7f,0xff,0xff,0xfd,0xff,0x0f,0xff,0xff,0xbf,0xff,0xd5,0xae,
 0x6a,0xf5,0xff,0xff,0xff,0xff,0xf7,0xff,0xff,0xff,0xff,0x0f,0xf7,0xfd,0xfe,
 0xbf,0xb7,0x75,0x55,0xfd,0xff,0xff,0xbf,0xef,0xfe,0xff,0xef,0xbf,0xff,0x0f,
 0xff,0xef,0xef,0xef,0x6d,0x5b,0x6f,0xeb,0xff,0xff,0xff,0xff,0xff,0xff,0xfe,
 0xff,0xff,0x0f,0xff,0xff,0x7f,0x7b,0xdb,0xb6,0xda,0xf6,0xfe,0xff,0xff,0xff,
 0xff,0xfb,0xff,0xff,0x77,0x0f,0xdb,0x7e,0xfb,0xff,0x56,0xdd,0xb7,0xdd,0xef,
 0xff,0xff,0xff,0xff,0xff,0xff,0xf7,0xff,0x0f,0xed,0xeb,0xdf,0xef,0xad,0x7b,
 0xed,0xff,0xff,0xff,0xff,0xff,0xff,0xff,0x7f,0xff,0xff,0x0f,0x5b,0x5a,0xf5,
 0x7f,0x77,0xad,0xff,0x56,0x55,0x49,0x55,0x55,0x55,0xad,0xd6,0xbf,0xfd,0x0f,
 0xaa,0x55,0x7b,0xff,0xad,0xf5,0x5a,0x7b,0xdb,0xb6,0xda,0xb6,0xfb,0xf7,0xfb,
 0xf6,0xef,0x0f,0xd6,0xb6,0xd5,0xfb,0xdf,0xbe,0xff,0xaf,0x55,0xdb,0xb6,0xda,
 0x2c,0x59,0xad,0x5a,0x55,0x02,0xad,0xaa,0xfe,0xdf,0x6a,0xeb,0xb5,0xba,0xaa,
 0xaa,0xaa,0x55,0xab,0x56,0x55,0xa5,0xaa,0x0d,0x55,0x55,0xa5,0xfe,0xdf,0x7b,
 0xef,0x57,0x6d,0x55,0xdb,0xb6,0x6a,0xab,0xaa,0x5a,0x5b,0x05,0x6a,0xad,0xda,
 0xff,0x7f,0xad,0xbd,0xda,0xda,0xb6,0xaa,0x6a,0xd5,0xda,0xdd,0x56,0xb5,0x0a,
 0x55,0xd5,0x2a,0xf5,0xd6,0x7b,0x57,0x55,0x2b,0xab,0x55,0x55,0x5b,0x55,0x65,
 0xd5,0xaa,0x0a,0xaa,0xaa,0xaa,0xba,0xbf,0xee,0xda,0xb6,0xea,0x5a,0xdb,0xaa,
 0x56,0x55,0xad,0xaa,0x6a,0x05,0xb5,0x55,0xd5,0xd6,0xed,0x5b,0xb7,0xaa,0xaa,
 0xaa,0xaa,0xb6,0xaa,0xb6,0xaa,0x5a,0xab,0x0a,0x55,0x55,0x55,0x55,0xbf,0xee,
 0x6d,0x6d,0xad,0x6a,0x55,0xa9,0xaa,0xd5,0x6a,0xb5,0xaa,0x0a,0xaa,0xaa,0xaa,
 0xaa,0xeb,0xbb,0x56,0xab,0x55,0xad,0xaa,0xae,0x55,0x55,0x55,0x4b,0x55,0x05,
 0x55,0x55,0x55,0xb5,0x5e,0xf7,0x6d,0x55,0xd5,0xaa,0x56,0xa9,0x56,0xad,0x56,
 0xb5,0x5a,0x0b,0x55,0xb5,0xad,0x56,0xf5,0x5d,0xb7,0xaa,0x56,0xd5,0x6a,0xab,
 0xaa,0x55,0x55,0x55,0x55,0x05,0xaa,0x56,0xd5,0xaa,0xdf,0xeb,0xaa,0xaa,0xaa,
 0xaa,0xaa,0x5a,0x55,0x55,0x55,0x55,0x55,0x05,0xaa,0xaa,0xaa,0x6a,0xf5,0x5e,
 0xff,0xb5,0x5a,0x5b,0x55,0x55,0xb5,0xaa,0xaa,0xaa,0xaa,0x0a,0x55,0x55,0x55,
 0xd5,0xfe,0xf7,0x56,0x4a,0xd5,0x54,0xab,0x6a,0xab,0xb6,0xaa,0x5a,0x5b,0x05,
 0xaa,0xa4,0x2a,0x55,0xff,0xbf,0xfd,0xb7,0xaa,0xaa,0x54,0x95,0x54,0x49,0x55,
 0xa5,0xa4,0x0a,0x52,0x95,0x54,0xa9,0xfa,0x7f,0xf7,0xa5,0x12,0x55,0x55,0x55,
 0x55,0x55,0x55,0xaa,0xaa,0x0a,0xaa,0x52,0xa5,0xaa,0xdf,0xff,0xfd,0x5f,0xca,
 0x92,0xaa,0xaa,0x2a,0x55,0x49,0x55,0xa5,0x04,0x25,0x55,0x55,0x55,0xfd,0xfe,
 0xb7,0x2f,0x29,0x55,0x92,0x24,0x49,0x92,0x92,0x12,0x49,0x09,0x52,0x95,0x52,
 0xaa,0xff,0xef,0xff,0x7f,0x55,0xa9,0xaa,0xaa,0xaa,0xaa,0x54,0xa9,0x2a,0x05,
 0xaa,0x24,0xa5,0xaa,0xfe,0xff,0xff,0x57,0x92,0x92,0x24,0xa9,0x54,0x55,0x95,
 0x52,0x52,0x0a,0x55,0xaa,0x2a,0xd5,0x77,0xff,0xff,0xff,0x49,0x55,0x55,0x95,
 0x2a,0x49,0x52,0x95,0xaa,0x02,0x92,0xaa,0x54,0xea,0xfe,0xed,0xff,0x3e,0x2a,
 0x29,0xa9,0xa4,0x52,0xaa,0x2a,0x52,0xa5,0x0c,0x55,0xa5,0xaa,0xaa,0xdf,0xff,
 0xf6,0xff,0x55,0x95,0x2a,0x55,0x4a,0x25,0x95,0xaa,0x94,0x02,0xaa,0x54,0x49,
 0xd9,0xfe,0xdf,0xff,0xf7,0x92,0xa4,0x52,0xa9,0x54,0x49,0xa2,0x24,0x29,0x05,
 0x92,0x2a,0x55,0xea,0x7f,0xfb,0xff,0xff,0x4b,0x55,0x29,0x95,0x2a,0x55,0x55,
 0x55,0x55,0x09,0x2a,0x49,0xa9,0xea,0xff,0x7f,0xef,0xfe,0x25,0x89,0x52,0x2a,
 0x49,0xaa,0x94,0x24,0x49,0x05,0xa5,0xaa,0x2a,0x75,0xdb,0xff,0xff,0xbf,0xaf,
 0x54,0x94,0x52,0x55,0x25,0xa5,0xaa,0xaa,0x04,0x4a,0x55,0x52,0xd5,0xff,0xed,
 0xfd,0xfb,0x97,0x92,0xaa,0xa4,0xa4,0x4a,0x29,0x49,0x92,0x0a,0xa9,0x92,0x2a,
 0xf5,0xff,0xff,0x7f,0xff,0x3f,0xa9,0x92,0x2a,0x55,0x52,0x95,0xaa,0x4a,0x02,
 0x2a,0xa9,0x54,0xed,0xdd,0xff,0xf7,0xdf,0x2f,0x25,0x29,0x49,0x49,0x25,0x52,
 0x12,0xa9,0x0a,0x4a,0x95,0x92,0xda,0xff,0x6e,0xff,0xff,0xff,0xa9,0xa4,0xaa,
 0x2a,0xa9,0x4a,0xd5,0x94,0x04,0x29,0xa5,0x2a,0xf5,0xff,0xff,0xbf,0xbb,0xbf,
 0x44,0x95,0x54,0x52,0x55,0x55,0x12,0xa5,0x0a,0xa5,0x52,0xa5,0xea,0xff,0xff,
 0xff,0xff,0xfd,0x37,0xa9,0x92,0xaa,0x24,0x29,0xa9,0x52,0x02,0x4a,0x4a,0x4a,
 0xfd,0xde,0x7b,0xff,0xdf,0xff,0x92,0x52,0x55,0x55,0x55,0x52,0x55,0x55,0x05,
 0xa4,0x24,0x51,0xea,0xff,0xff,0xfb,0xfb,0xff,0x5f,0x88,0x48,0x08,0x22,0x89,
 0x04,0x08,0x02,0x12,0x49,0x8a,0xfa,0xff,0xff,0xbf,0xff,0xef,0x2b,0x25,0x25,
 0xa5,0x44,0x22,0x52,0x51,0x04,0x49,0x92,0x44,0xfa,0x7f,0xff,0xff,0xbf,0xfd,
 0x7f,0x41,0x08,0x10,0x11,0x91,0x00,0x04,0x01,0x24,0x09,0x91,0xec,0xff,0xff,
 0xff,0xf7,0xff,0xaf,0x04,0xa1,0x42,0x44,0x44,0xaa,0x92,0x08,0x42,0x52,0x4a,
 0xfa,0xf7,0xef,0xff,0xff,0xff,0xff,0x23,0x08,0x10,0x11,0x11,0x00,0x20,0x02,
 0x14,0x41,0x20,0xf5,0xff,0x7f,0xff,0x7e,0xff,0xfe,0x85,0xa4,0x22,0x42,0x44,
 0x55,0x82,0x00,0xa2,0x28,0x95,0xf4,0xff,0xfd,0xff,0xff,0xfd,0xff,0x17,0x01,
 0x88,0x10,0x11,0x80,0x28,0x04,0x04,0x85,0x40,0xfa,0xff,0xff,0xff,0xdf,0xff,
 0xef,0x45,0x54,0x22,0x0a,0x44,0x09,0x80,0x00,0xa9,0x28,0x2a,0xea,0xff,0xff,
 0xff,0xff,0xbf,0xff,0x17,0x80,0x08,0x41,0x11,0xa2,0x2a,0x04,0x42,0x42,0x40,
 0xfd,0xdb,0xfb,0xff,0xfb,0xfb,0x7f,0x95,0x02,0x22,0x14,0x44,0x08,0x80,0x02,
 0x94,0x94,0x2a,0xf4,0xff,0xff,0xff,0x7f,0xff,0xff,0x2b,0xa8,0x88,0x42,0x21,
 0x42,0x2a,0x00,0x20,0x42,0x44,0xf5,0xff,0xdf,0xfb,0xff,0xff,0xff,0x83,0x00,
 0x22,0x08,0x84,0x08,0x81,0x04,0x4a,0x11,0x29,0xfa,0xff,0xfe,0xff,0xff,0xfb,
 0xbf,0x2d,0x92,0x48,0x52,0x29,0x45,0x20,0x00,0x22,0x24,0x40,0xfd,0xff,0xff,
 0x7f,0xef,0xff,0xff,0x02,0x00,0x00,0x01,0x40,0x10,0x85,0x02,0x88,0x92,0x2a,
 0xe8,0xff,0xf7,0xff,0xff,0xff,0xed,0x5f,0x25,0x55,0x48,0x95,0x4a,0x20,0x04,
 0x52,0x24,0x91,0xf6,0xf7,0xbf,0xff,0x7f,0xf7,0xbf,0x01,0x10,0x00,0x02,0x24,
 0x24,0x95,0x00,0x09,0x89,0x44,0xfa,0xff,0xff,0xfd,0xff,0xdf,0x76,0x5f,0x45,
 0xa5,0x50,0xa9,0x4a,0x00,0x04,0x24,0x22,0x92,0xf4,0x7f,0xff,0xff,0xfd,0xff,
 0xfb,0x25,0x09,0x08,0x82,0xa4,0x10,0x49,0x00,0x42,0x91,0x24,0xfd,0xff,0xef,
 0xff,0xdf,0x2b,0x95,0x5a,0x55,0xa5,0x54,0x55,0x4d,0x02,0x05,0x14,0x4a,0x92,
 0xfc,0xff,0x7f,0xef,0xff,0xaf,0x6a,0xab,0xaa,0x08,0x21,0xaa,0x92,0x48,0x00,
 0x42,0x81,0x24,0xf5,0xff,0xfd,0xff,0xff,0x5e,0x95,0x54,0x55,0xd5,0x54,0x55,
 0x55,0x12,0x04,0x94,0x14,0x02,0xfa,0xfb,0xff,0xff,0xfb,0x2f,0xa1,0xaa,0x4a,
 0x2a,0x49,0xaa,0xaa,0x80,0x00,0x42,0xa4,0xa8,0xf4,0xff,0x6f,0xff,0xbf,0xbf,
 0x28,0x49,0x55,0x95,0xaa,0xb5,0x55,0x2a,0x04,0x14,0x11,0x41,0xfa,0xdf,0xff,
 0xff,0xff,0x0d,0x82,0x54,0xaa,0x52,0x55,0x5a,0x95,0x80,0x00,0x49,0x4a,0x2a,
 0xf9,0xff,0xbf,0x77,0xff,0xbf,0x20,0x81,0x22,0xa9,0xaa,0xed,0x56,0x25,0x04,
 0x90,0x20,0x11,0xfa,0xff,0xee,0xfe,0xb7,0x3f,0x0a,0x14,0x94,0x4a,0x52,0xb7,
 0x2a,0x01,0x01,0x25,0x95,0x88,0xf4,0xff,0x2b,0xfd,0xff,0xbf,0xa0,0xa2,0xa2,
 0x24,0xa9,0xaa,0xaa,0x54,0x00,0x88,0x40,0x22,0xd9,0xff,0x47,0xfe,0xff,0x7f,
 0x02,0x08,0x04,0xa9,0xaa,0xba,0x25,0x01,0x05,0x25,0x2a,0x94,0xf4,0xff,0x15,
 0xe8,0xff,0x3d,0xa8,0x42,0x51,0x42,0xa4,0xaa,0x4a,0x4a,0x00,0x90,0x40,0x21,
 0xfa,0xbf,0x13,0xfa,0xff,0x7f,0x01,0x08,0x02,0x94,0x52,0x55,0x95,0x20,0x08,
 0x4a,0x2a,0x14,0xe9,0xff,0x04,0x40,0xff,0xbf,0x48,0xa2,0x54,0x21,0x10,0x52,
 0x49,0x8a,0x02,0x10,0x81,0x40,0xfa,0x7f,0x03,0xe8,0xff,0x3f,0x22,0x09,0x80,
 0x84,0x4a,0x55,0x12,0x01,0x00,0xa5,0x54,0x2a,0xf1,0x7f,0x55,0x10,0xfd,0xff,
 0x08,0xa0,0x2a,0x51,0x90,0x20,0xa5,0xa4,0x04,0x08,0x82,0x40,0xdc,0x6f,0x25,
 0xc0,0xfe,0xbd,0xa0,0x0a,0x00,0x04,0x45,0x96,0x00,0x00,0x02,0x45,0x51,0x2a,
 0xf2,0xff,0x54,0x02,0xf5,0xff,0x0a,0x40,0x55,0x51,0x90,0x40,0xaa,0xaa,0x00,
 0x10,0x0a,0x41,0xf8,0x3f,0x85,0x00,0xfd,0xbf,0x20,0x15,0x00,0x04,0x01,0x2a,
 0x01,0x00,0x02,0x4a,0xa1,0x28,0xe5,0x7f,0x59,0x25,0xa2,0x7f,0x8a,0x80,0xaa,
 0xa2,0xa8,0x80,0x54,0x95,0x04,0x10,0x0a,0x85,0xd8,0xff,0x24,0x00,0xf4,0xff,
 0x20,0x2a,0x00,0x08,0x02,0x12,0x02,0x00,0x00,0x45,0xa1,0x50,0xe4,0x7f,0xab,
 0x95,0x90,0xbe,0x14,0x01,0x55,0xa5,0xa4,0x84,0x48,0xa2,0x04,0x14,0x0a,0x09,
 0xf9,0xff,0xaa,0x02,0xa4,0x7f,0x40,0x54,0x00,0x10,0x00,0x10,0x02,0x08,0x02,
 0x42,0x41,0xa2,0xe4,0xff,0xab,0x34,0x81,0xd4,0x2a,0x02,0xaa,0x0a,0x55,0x45,
 0xa1,0x82,0x00,0x14,0x2a,0x08,0xfa,0xbf,0x25,0x45,0xa8,0xba,0x80,0xa8,0x00,
 0xa0,0x00,0x10,0x04,0x28,0x02,0x42,0x81,0x52,0xe1,0xff,0x5f,0xb5,0x12,0x6a,
 0x2a,0x05,0x54,0x15,0x28,0x25,0xa1,0x02,0x00,0x28,0x2a,0x04,0xfa,0xff,0x57,
 0x45,0x40,0x55,0x41,0x50,0x01,0x40,0x81,0x00,0x14,0xa8,0x0a,0x8a,0x84,0x52,
 0xd1,0xff,0xff,0x5a,0x15,0x50,0x94,0x24,0x54,0x15,0x2a,0x52,0x01,0x02,0x00,
 0x20,0x11,0x08,0xea,0xff,0x2f,0xa5,0x82,0x8a,0x00,0x82,0x00,0x40,0x00,0x00,
 0x94,0x48,0x04,0x4a,0xa4,0xa2,0xfa,0xff,0xff,0xab,0x2a,0x50,0xa4,0x28,0x55,
 0x95,0x54,0x55,0x21,0x10,0x01,0x10,0x11,0x09,0xfc,0xff,0xbf,0xaa,0x94,0x44,
 0x10,0x42,0x00,0x20,0x02,0x00,0x84,0x42,0x00,0xa5,0x44,0xa2,0xfa,0xff,0xff,
 0x57,0x25,0x21,0x84,0x10,0xaa,0x8a,0x90,0x2a,0x21,0x10,0x04,0x08,0x12,0x84,
 0xfc,0xff,0x7f,0xad,0x4a,0x84,0x40,0x42,0x11,0x20,0x42,0x00,0x84,0x42,0x01,
 0xa5,0x44,0x29,0xfa,0xff,0xff,0xdb,0x35,0x29,0x11,0x10,0x84,0x8a,0x10,0x52,
 0x21,0x10,0x04,0x00,0x10,0x44,0xfa,0xff,0xff,0x2f,0x55,0x02,0x44,0x42,0x10,
 0x20,0x8a,0x00,0x8a,0x44,0x00,0xaa,0x4a,0x91,0xfa,0xff,0xff,0xff,0xae,0xa9,
 0x80,0x10,0xa4,0x0a,0x21,0xa8,0x20,0x11,0x05,0x10,0x21,0x0a,0xee,0xff,0xff,
 0xf7,0x55,0x02,0x12,0x42,0x01,0x50,0x84,0x02,0x02,0x04,0x00,0x4a,0x14,0x51,
 0xfd,0xff,0xff,0xdf,0xde,0xaa,0x88,0x08,0x50,0x05,0x21,0x90,0x28,0xa1,0x04,
 0x84,0xa0,0x84,0xfe,0xff,0xfd,0xff,0x6b,0x05,0x22,0x40,0x04,0x28,0x92,0x42,
 0x80,0x08,0x00,0x22,0x15,0x51,0xfc,0xff,0xff,0xff,0xbf,0x57,0x91,0x12,0x51,
 0x85,0x04,0x10,0x2a,0x22,0x05,0x48,0x40,0x84,0xfe,0xff,0xff,0xff,0xee,0x0a,
 0x44,0x00,0x24,0x12,0x50,0x42,0x00,0x08,0x00,0x12,0x95,0x52,0xfa,0xff,0xff,
 0xff,0xff,0x4f,0x29,0x25,0x91,0x44,0x85,0x10,0x92,0x42,0x05,0x44,0x48,0x08,
 0xfd,0xff,0xff,0xff,0xbf,0x2a,0x82,0x00,0x4a,0x11,0x10,0x42,0x08,0x08,0x00,
 0x29,0x12,0x45,0xfa,0xff,0xff,0xff,0xff,0xbf,0x54,0x54,0x51,0x84,0x84,0x10,
 0x42,0x82,0x04,0x44,0x21,0x92,0xfe,0xff,0xbf,0xff,0xff,0x2f,0x10,0x01,0x4a,
 0x11,0x12,0x42,0x08,0x29,0x00,0x11,0x8a,0x48,0xfa,0xff,0xff,0xff,0xff,0xff,
 0x8b,0x54,0x25,0x8a,0x80,0x28,0x42,0x80,0x04,0x44,0x50,0x22,0xfd,0xff,0xff,
 0xff,0xff,0xff,0x22,0x82,0x48,0x21,0x2a,0x82,0x08,0x09,0x00,0x91,0x0a,0x94,
 0xfe,0xff,0xff,0xdf,0x7b,0xf7,0x5f,0x29,0x55,0x8a,0x80,0x20,0x42,0x42,0x05,
 0x24,0xa0,0x40,0xfe,0xff,0xff,0xff,0xff,0xbf,0x1b,0xa2,0xaa,0x00,0x12,0x02,
 0x08,0x08,0x00,0x09,0x15,0x95,0xfe,0xff,0xfd,0xff,0xff,0xff,0xf7,0x49,0x52,
 0xa5,0x84,0xa8,0x42,0x91,0x04,0xa0,0x40,0x20,0xff,0xf7,0xff,0xff,0xbf,0xff,
 0x5f,0x24,0x49,0x10,0x10,0x02,0x08,0x40,0x00,0x15,0x2a,0x95,0xfe,0xff,0xff,
 0xff,0xff,0xff,0xbf,0x57,0x2a,0x85,0xa4,0x48,0xa2,0x14,0x04,0xa0,0x80,0x04,
 0xbd,0xff,0xff,0x7f,0xf7,0xdf,0xfd,0x8a,0xa8,0x00,0x00,0x22,0x08,0x82,0x00,
 0x15,0x54,0x52,0xff,0xff,0xff,0xff,0xff,0xff,0x6f,0x3f,0x25,0xa8,0x92,0x08,
 0x82,0x20,0x04,0x40,0x81,0x84,0xfe,0xff,0xdf,0xfb,0xff,0xfb,0xff,0x55,0x48,
 0x01,0x40,0xa0,0x10,0x84,0x00,0x2a,0x2a,0xa9,0xfe,0xff,0xff,0xff,0xff,0xff,
 0xfb,0xff,0x25,0x10,0x15,0x09,0x24,0x21,0x04,0x40,0x04,0x04,0xfd,0xff,0xff,
 0xff,0x77,0x7f,0xff,0x56,0x92,0x42,0x00,0x24,0x01,0x84,0x00,0x2a,0x51,0x51,
 0xfe,0xff,0xff,0xff,0xff,0xff,0xff,0xff,0x0d,0x10,0x48,0x41,0x20,0x21,0x04,
 0x40,0x44,0x84,0xfe,0xff,0xff,0xbf,0xff,0xff,0xff,0xb7,0x4b,0x44,0x01,0x04,
 0x05,0x84,0x00,0x2a,0x22,0x29,0xfa,0xff,0xff,0xff,0xdf,0xf7,0xbf,0xff,0x3e,
 0x01,0x54,0x51,0x48,0x21,0x04,0x84,0x94,0x20,0xfd,0xff,0xff,0xff,0xff,0xbf,
 0xff,0xdf,0x2b,0x48,0x00,0x04,0x01,0x84,0x00,0x22,0x21,0x4a,0xfa,0xff,0xff,
 0xff,0xfb,0xfd,0xff,0xfb,0xff,0x00,0x24,0x21,0x24,0x21,0x04,0x48,0x84,0x10,
 0xfa,0xff,0xff,0xff,0xff,0xef,0xff,0x7f,0xbd,0x24,0x01,0x04,0x00,0x04,0x01,
 0x92,0x52,0x8a,0xf4,0xff,0xff,0xff,0xbf,0xff,0x7f,0xff,0xff,0x03,0x20,0x91,
 0x52,0x49,0x00,0x44,0x04,0x21,0xfa,0xff,0xff,0xff,0xfe,0xbf,0xff,0xf7,0xfb,
 0x45,0x0a,0x00,0x00,0x00,0x09,0x11,0xa9,0x48,0xd1,0xff,0xff,0xf7,0xff,0xf7,
 0xed,0xff,0xdf,0x1f,0x80,0xa4,0x14,0x49,0x00,0x44,0x00,0x02,0xf4,0xff,0xfb,
 0xff,0xdf,0xff,0xff,0xff,0xff,0x17,0x48,0x00,0x40,0x00,0x01,0x12,0x55,0xa9,
 0x82,0xff,0xff,0xff,0xff,0xfe,0xfe,0xfe,0xff,0xfe,0x01,0x10,0x09,0x54,0x04,
 0x48,0x00,0x04,0xd4,0xff,0xff,0xff,0xff,0xbf,0xf7,0xdf,0xff,0x2f,0x00,0x41,
 0x20,0x01,0x01,0x25,0x55,0x51,0xa1,0xfe,0xff,0xff,0xff,0xff,0xff,0xff,0xef,
 0xff,0x47,0x08,0x08,0x40,0x00,0x10,0x20,0x02,0x92,0xff,0xff,0xff,0xff,0xf7,
 0xfd,0xff,0xfe,0xfd,0x02,0x21,0x41,0x0a,0x02,0x45,0x95,0xa8,0x24,0xff,0xff,
 0xff,0xff,0xff,0xdf,0xff,0xff,0xff,0x2f,0x08,0x92,0x40,0x04,0x88,0x40,0x02,
 0x81,0xfe,0xff,0xff,0xf7,0xff,0xff,0xfb,0xdf,0xff,0x07,0x40,0x00,0x08,0x00,
 0x24,0x95,0xa8,0x54,0xf4,0xff,0xff,0xff,0xff,0xb7,0xff,0xff,0xdf,0x1f,0x09,
 0x48,0x22,0x05,0x02,0x00,0x02,0x02,0xfd,0xff,0xfe,0xff,0x7f,0xff,0xff,0xfd,
 0xfd,0x2e,0x40,0x02,0x01,0x00,0x50,0x55,0xa9,0x50,0xe2,0xff,0xff,0xff,0xfb,
 0xff,0xff,0xff,0xff,0x1f,0x02,0x20,0x90,0x02,0x0a,0x00,0x00,0x85,0xfc,0xff,
 0xef,0xff,0xff,0xdb,0xde,0xff,0xff,0x1f,0x48,0x08,0x04,0x00,0xa1,0xaa,0xaa,
 0x28,0x41,0xff,0xff,0xff,0xff,0xff,0xff,0xbf,0xbf,0x7f,0x00,0x02,0x81,0x04,
 0x04,0x10,0x00,0x42,0xd4,0xff,0xff,0xff,0x7f,0x7f,0xff,0xff,0xfb,0x1f,0x42,
 0x10,0x14,0x00,0xa9,0x8a,0xaa,0x14,0x81,0xfe,0xff,0xff,0xff,0xff,0xfb,0xff,
 0xff,0x7f,0x10,0x42,0x41,0x02,0x40,0x20,0x00,0x22,0x2a,0xff,0xff,0xff,0xff,
 0xef,0xff,0xff,0xff,0xbf,0x00,0x00,0x00,0x00,0x15,0x95,0xaa,0x48,0x81,0xf4,
 0xff,0xff,0xef,0xff,0xef,0xef,0xfe,0x7d,0x84,0x94,0x28,0x05,0x40,0x40,0x10,
 0x01,0x2a,0xfa,0xff,0xff,0xff,0xfe,0xfe,0xfe,0xdf,0x7f,0x00,0x00,0x02,0x00,
 0x2a,0x2a,0x8a,0xa8,0x84,0xf4,0xff,0xff,0xff,0xff,0xff,0xff,0xff,0xff,0x20,
 0x44,0x40,0x02,0x40,0x81,0x20,0x85,0x28,0xfa,0xff,0xbb,0xff,0xff,0xdb,0xff,
 0xff,0x2f,0x84,0x00,0x02,0x00,0x2a,0x28,0x4a,0x50,0x82,0xc8,0xff,0xff,0xff,
 0xbf,0xff,0xff,0xff,0xff,0x00,0xa0,0x50,0x05,0x40,0x45,0x20,0x05,0x29,0xf1,
 0xff,0xff,0xff,0xff,0xff,0xbf,0xfb,0x7e,0x84,0x04,0x04,0x00,0x15,0x20,0x8a,
 0x50,0x44,0x4a,0xff,0xff,0xff,0xff,0xdf,0xfe,0xff,0xff,0x20,0x20,0x10,0x02,
 0x48,0x85,0x10,0x8a,0x08,0x40,0xff,0xff,0xff,0xff,0xfd,0xff,0xdf,0x7f,0x00,
 0x81,0x40,0x00,0x22,0x50,0x4a,0x21,0x45,0x55,0xfd,0xff,0xff,0xff,0xff,0xff,
 0xff,0xfb,0x11,0x10,0x08,0x04,0x44,0x05,0x21,0x0a,0x10,0x80,0xfe,0xff,0xff,
 0xbb,0xdf,0xfe,0xff,0x3f,0x40,0x02,0x21,0x01,0x22,0x50,0x88,0xa0,0x8a,0x2a,
 0xfd,0xff,0xff,0xff,0xff,0xdf,0xff,0xff,0x08,0x48,0x08,0x00,0x88,0x82,0x22,
 0x0a,0x50,0x00,0xfd,0xff,0xff,0xff,0xff,0xff,0x7f,0x3f,0x80,0x00,0x20,0x09,
 0x52,0x50,0x10,0xa1,0x0a,0xaa,0xe8,0xff,0xff,0xff,0xbb,0x7b,0xef,0x7f,0x24,
 0x20,0x05,0x00,0x84,0x0a,0xa5,0x14,0xa4,0x00,0xfa,0xff,0xf7,0xff,0xff,0xff,
 0xff,0x7f,0x00,0x02,0x90,0x00,0x21,0xa0,0x10,0x42,0x09,0x54,0xd1,0xff,0xff,
 0xfd,0xff,0xff,0xff,0xf7,0x80,0x90,0x04,0x04,0x94,0x02,0x42,0x08,0xa0,0x00,
 0xe4,0xff,0xff,0xff,0xff,0xf6,0xbd,0xbf,0x08,0x00,0x20,0x01,0x42,0xa8,0x94,
 0x52,0x15,0xaa,0x42,0xff,0xff,0x7f,0xff,0xff,0xff,0x7f,0x00,0x09,0x09,0x00,
 0x08,0x05,0x22,0x04,0x40,0x00,0xe8,0xff,0xff,0xff,0xbb,0xef,0xff,0x7d,0x08,
 0x20,0xa0,0x04,0xa5,0xa0,0x48,0xa2,0x2a,0x55,0x05,0xfd,0xff,0xff,0xff,0xff,
 0xef,0xbf,0x00,0x09,0x0a,0x00,0x10,0x0a,0x22,0x09,0x41,0x00,0x48,0xff,0xff,
 0xff,0xff,0x7b,0xff,0x7f,0x24,0xa0,0x80,0x04,0x45,0xa1,0x08,0xa2,0x94,0xaa,
 0x92,0xf0,0xff,0xff,0xff,0xff,0xff,0x7f,0x00,0x04,0x20,0x00,0x10,0x0a,0xa2,
 0x08,0x02,0x00,0x01,0xfd,0xff,0xff,0xff,0xff,0xbf,0xaf,0x90,0x20,0x85,0x02,
 0x85,0xa0,0x08,0x52,0x51,0x55,0x54,0xa2,0xff,0xff,0x7f,0xff,0xff,0x7f,0x04,
 0x08,0x10,0x00,0x50,0x02,0x51,0x01,0x04,0x00,0x01,0xd0,0xff,0xff,0xff,0xff,
 0xff,0x3d,0x20,0x42,0x80,0x08,0x0a,0x54,0x0a,0x54,0xa9,0xaa,0xa8,0xfa,0xff,
 0xef,0xfb,0xbf,0xf7,0x7f,0x84,0x80,0x24,0x02,0xa0,0x00,0x50,0x81,0x04,0x08,
 0x02,0xf4,0xff,0xff,0xff,0xfb,0xff,0x7f,0x00,0x04,0x00,0x00,0x2a,0xaa,0x0a,
 0x28,0xa1,0xa2,0xa8,0xfe,0xff,0xff,0xff,0xff,0xff,0x7f,0x20,0x21,0x49,0x02,
 0x80,0x00,0xa1,0x02,0x44,0x44,0x02,0xfd,0xff,0xff,0xff,0xff,0xdf,0x1f,0x05,
 0x08,0x04,0x01,0x55,0x54,0x14,0xa9,0x12,0x91,0xd0,0xff,0xff,0xff,0xbb,0xff,
 0xff,0x7f,0x00,0x02,0x41,0x00,0x00,0x21,0x21,0x42,0x24,0x04,0x82,0xfe,0xff,
 0xff,0xff,0xff,0xfe,0x1e,0x94,0x10,0x10,0x02,0x55,0x4a,0x94,0x28,0x49,0xa9,
 0xf4,0xff,0xff,0xbf,0xff,0xff,0xff,0x3f,0x01,0x80,0x84,0x00,0x20,0x20,0x42,
 0x82,0x20,0x00,0xe1,0xff,0xff,0xff,0xff,0xff,0xff,0x2f,0x20,0x22,0x20,0x0a,
 0x8a,0x8a,0x20,0x29,0x8a,0xaa,0xf8,0xff,0xff,0xff,0xbf,0xfe,0xdf,0x3f,0x84,
 0x08,0x09,0x00,0x10,0x20,0x8a,0x40,0x10,0x00,0xea,0xff,0xff,0xfb,0xef,0xf7,
 0xff,0x3f,0x00,0x00,0x40,0x02,0x84,0x0a,0x21,0x14,0xa5,0xaa,0xfa,0xff,0xff,
 0xff,0x9f,0xfe,0xfe,0x3f,0x20,0xa4,0x94,0x00,0x52,0x20,0x44,0xa1,0x00,0x04,
 0xfc,0xff,0xff,0xff,0x8b,0xff,0x7f,0x2f,0x82,0x00,0x00,0x02,0x00,0x08,0x11,
 0x08,0x54,0xa1,0xff,0xff,0xff,0xff,0x85,0xfe,0xff,0x1f,0x00,0x10,0x02,0x00,
 0x88,0x00,0x00,0x02,0x00,0x00,0xfd,0xff,0xff,0xff,0x03,0xff,0xef,0x3f,0x00,
 0x00,0x10,0x00,0x55,0xd6,0x56,0xd5,0xaa,0xea,0xff,0xff,0xdf,0x7f,0xa8,0xff,
 0xff,0x1f,0xa4,0x84,0x40,0x02,0xaa,0x28,0xa9,0x28,0x11,0xd2,0xff,0xff,0xff,
 0xf7,0x40,0xff,0xff,0x0f,0x01,0x10,0x04,0x00,0x55,0x57,0x55,0xab,0xd6,0xfd,
 0xff,0xff,0xff,0x5f,0xff,0xff,0xfe,0xef,0xb5,0x4d,0xab,0x0a,0xaa,0xac,0xaa,
 0x56,0x55,0xf5,0xff,0xff,0xfe,0xbf,0xd2,0xff,0xff,0x5f,0xab,0xb2,0x54,0x05,
 0x55,0xab,0x55,0x55,0x55,0xff,0xff,0xef,0xff,0x57,0xfd,0xef,0xff,0xeb,0x56,
 0xad,0x56,0x0b,0x55,0x55,0x55,0xb5,0xaa,0xfe,0x7f,0xff,0xef,0xde,0xea,0xff,
 0xff,0x5f,0xab,0xaa,0x6a,0x05,0x55,0x55,0xb5,0xaa,0xb6,0xff,0xff,0xff,0xff,
 0x57,0x5d,0xff,0x77,0xf7,0xd6,0xaa,0xaa,0x0a,0xaa,0xaa,0x6a,0x55,0x55,0xfd,
 0xfe,0x7f,0x7f,0xb5,0xb5,0xff,0xff,0xdb,0xad,0xaa,0xaa,0x0a,0x55,0x55,0x55,
 0x5b,0xd5,0xff,0xff,0xff,0xdf,0xdb,0xda,0x7e,0xff,0xbf,0x56,0x55,0x6d,0x05,
 0x55,0x55,0x55,0x55,0x55,0xff,0xfb,0xff,0x3f,0xad,0xab,0xf7,0xff,0x6b,0xab,
 0xaa,0x52,0x0b,0xaa,0xaa,0xb6,0x6d,0xab,0xff,0xff,0xfb,0xe7,0xd6,0x7c,0xff,
 0x7f,0xb7,0x6b,0x55,0xbd,0x0a,0x55,0x55,0x55,0xdb,0x56,0xbf,0xff,0xff,0x5d,
 0xad,0xeb,0xff,0xfb,0xdf,0xae,0x6d,0xd3,0x06,0x00,0x00,0x00,0x00,0x40,0xfd,
 0xff,0x3f,0x00,0x00,0x00,0xfc,0xff,0x00,0x00,0x00,0x00,0x00,0x00,0x00,0x00,
 0x00,0xa0,0xfe,0xff,0xbf,0x00,0x00,0x00,0xfe,0xff,0x01,0x00,0x00,0x00,0x00,
 0x48,0x12,0x49,0x20,0x92,0xfa,0xff,0x0b,0x00,0x00,0x00,0xf8,0xff,0x00,0x00,
 0x00,0x09,0x00,0x95,0xa4,0x24,0xad,0x44,0xed,0xff,0xb7,0xaa,0xaa,0xaa,0xfe,
 0x6e,0x21,0x49,0x4a,0xa4,0x02,0x00,0x00,0x80,0x00,0x29,0xb5,0xb7,0x00,0x00,
 0x00,0x00,0xb0,0xb7,0x08,0x00,0x00,0x01,0x00,0x40,0x10,0x02,0x24,0xa4,0xea,
 0xde,0x00,0x00,0x04,0x02,0xfa,0x6e,0x01,0x80,0x08,0x00,0x00,0x12,0x84,0x28,
 0x11,0x49,0xb5,0x20,0x04,0x41,0x51,0x51,0x59,0x93,0x40,0x12,0x40,0x90,0x04,
 0x40,0x21,0x80,0x44,0xd0,0xae,0x80,0x10,0x14,0x04,0x0a,0xb6,0x64,0x02,0x00,
 0x00,0x02,0x00,0x12,0x88,0x54,0x10,0x55,0x2b,0x22,0xa4,0x02,0x91,0x80,0x6c,
 0x97,0x24,0x49,0x95,0x88,0x00,0x88,0x24,0x82,0xa2,0xa8,0x5e,0x84,0x02,0x48,
 0x00,0x10,0xfe,0x28,0x01,0x00,0x00,0x20,0x0a,0x22,0x81,0x50,0x14,0x56,0x2b,
 0x21,0x48,0x02,0x48,0x85,0x5a,0x0b,0xa8,0x2a,0xa5,0x4a,0x00,0x00,0x14,0x85,
 0xa0,0xaa,0x1e,0x84,0x00,0x90,0x22,0x48,0xb6,0x22,0x02,0x40,0x10,0x00,0x01,
 0xaa,0xa2,0x28,0x95,0xaa,0x6a,0x00,0x92,0x24,0x08,0x85,0xda,0x9b,0x40,0x95,
 0x84,0x24,0x00,0x44,0x04,0x91,0xa0,0xb6,0x3a,0x08,0x00,0x00,0x21,0x10,0xbe,
 0x06,0x00,0x00,0x12,0x82,0x04,0x11,0x51,0x04,0x15,0x49,0xa4,0xa3,0xaa,0xaa,
 0x54,0x55,0x55,0xf9,0x0a,0xa8,0x40,0x20,0x00,0x44,0x04,0x20,0xa4,0x92,0xd2,
 0x04,0x00,0x11,0x89,0xa0,0x6a,0x0b,0x01,0x00,0x02,0x00,0x01,0x11,0x51,0x49,
 0x15,0x49,0x54,0xdb,0x6e,0x55,0x55,0x56,0xbf,0x75,0x55,0x00,0x08,0x09,0x00,
 0x40,0x44,0x22,0x41,0x55,0xa9,0x27,0xa9,0xaa,0xaa,0x44,0xab,0xae,0x02,0x00,
 0x00,0x40,0x00,0x14,0x10,0x08,0x5d,0x02,0x44,0x58,0x95,0x94,0x4a,0xb5,0xee,
 0xdb,0x5d,0x09,0x40,0x00,0x04,0x80,0x80,0x20,0x25,0x28,0x91,0x6e,0x52,0x29,
 0xa9,0x4a,0xbf,0xb6,0x22,0x00,0x00,0x00,0x00,0x22,0x54,0x8a,0xb8,0x95,0x04,
 0xa0,0x2a,0x44,0x4a,0x52,0xeb,0xff,0xdf,0xb6,0x22,0x88,0x00,0x88,0x02,0x51,
 0x6a,0x53,0x00,0xd4,0x55,0x29,0x91,0x54,0xbd,0x6d,0x7f,0x55,0x88,0x00,0x00,
 0x00,0x50,0x04,0x55,0xad,0x96,0x00,0xa4,0xa6,0x24,0x02,0x85,0x52,0x01,0xa9,
 0x2a,0x00,0x02,0x52,0x82,0x50,0x52,0xb5,0x01,0x00,0xa8,0x4a,0x45,0x48,0x2a,
 0x85,0x54,0x55,0x55,0x00,0x00,0x00,0x20,0x04,0xa8,0x4a,0x7d,0xab,0x52,0xa9,
 0xaa,0x12,0xa5,0x28,0x09,0x00,0x00,0x40,0x00,0x20,0x89,0x50,0x82,0xaa,0xaa,
 0x54,0xd5,0x56,0x55,0xa2,0x48,0x22,0x02,0x00,0x00,0x00,0x02,0x00,0x00,0x02,
 0x50,0x40,0x04,0x55,0x24,0x01,0x80,0x48,0x2a,0x89,0x00,0x00,0x00,0x04,0x00,
 0x00,0x00,0x00,0x82,0x0a,0x51,0xa5,0xaa,0x00,0x08,0x25,0x55,0x04,0x00,0x00,
 0x00,0x00,0x00,0x08,0x00,0x00,0x28,0x51,0x08,0x00,0x00,0x00,0x00,0x00,0x42,
 0x21,0x12,0x00,0x00,0x00,0x00,0x80,0x00,0x90,0x80,0x24,0x45,0x04,0x00,0x00,
 0x04,0x00,0x08,0x84,0x00,0x00,0x20,0x20,0x00,0x00,0x10,0x00,0x10,0x88,0x00,
 0x51,0x00,0x20,0x00,0x00,0x80,0x00,0x00,0x04,0x04,0x09,0x01,0x00,0x80,0x00,
 0x02,0x00,0x12,0x0a,0x01,0x04,0x00,0x00,0x04,0x10,0x48,0x50,0x11,0x00,0x00,
 0x20,0x00,0x04,0x00,0x21,0x80,0x40,0x10,0x00,0x00,0x00,0x00,0x02,0x00,0x00,
 0x80,0x00,0x00,0x04,0x01,0x20,0x00,0x00,0x00,0x00,0x00,0x00,0x00,0x00,0x90,
 0x00,0x00,0x00,0x00,0x40,0x00,0x00,0x20,0x00,0x40,0x04,0x40,0x08,0x42,0x42,
 0x22,0x11,0x04,0x00,0x00,0x00,0x00,0x00,0x00,0x00,0x00,0x00,0x09,0x80,0x08,
 0x00,0x10,0x08,0x89,0x44,0x00,0x80,0x00,0x00,0x00,0x00,0x00,0x00,0x00,0x00,
 0x00,0x10,0x00,0x01,0x00,0x00,0x00,0x00,0x00,0x00,0x00,0x02,0x00,0x00,0x00};
