#define noname_width 48
#define noname_height 40
static char noname_bits[] = {
 0x00,0x80,0xea,0xb1,0x01,0x00,0x00,0xc0,0xf5,0xf0,0x01,0x00,0x00,0xf0,0x35,
 0x1f,0x06,0x00,0x00,0x4e,0x44,0x1f,0x0f,0x00,0x00,0xc4,0x4b,0x3b,0x1c,0x00,
 0x00,0x04,0x1a,0x3a,0x3e,0x00,0x00,0x4c,0x3e,0xdd,0x7c,0x00,0xa0,0xdd,0x26,
 0x53,0x39,0x00,0xc0,0xef,0x97,0xbb,0x0d,0x01,0xe0,0xbb,0x23,0x3d,0x97,0x03,
 0xdc,0x0f,0x3b,0xbc,0xf7,0x01,0xb8,0x17,0xb5,0xdc,0xbb,0x01,0xf8,0xb7,0xf5,
 0x75,0xaa,0x0b,0x7c,0xbf,0xfa,0x72,0xb7,0x05,0x58,0xfc,0xe6,0x76,0x77,0x05,
 0x78,0x2e,0xef,0x7f,0xf0,0x0f,0xf8,0x5c,0xdf,0xfb,0xb4,0x0d,0xfc,0xdd,0xc7,
 0xea,0x71,0x07,0xf8,0xfd,0x6f,0xef,0x33,0x0f,0xf8,0xd9,0x6e,0xeb,0x15,0x05,
 0xfc,0x48,0xe7,0xfd,0x88,0x03,0xf8,0xe3,0x6f,0xef,0xfb,0x0b,0xf8,0xf7,0x6f,
 0x48,0xee,0x0b,0x7c,0xf7,0xe6,0xb9,0xde,0x07,0xf8,0xf7,0xfe,0xbb,0xdb,0x0f,
 0xf8,0xff,0xff,0xff,0xef,0x0f,0xf8,0xff,0xf7,0x9f,0x3d,0x0f,0xf0,0xff,0xff,
 0x9f,0xbf,0x07,0xe0,0xff,0xff,0xbf,0xbd,0x0e,0xe0,0xff,0xff,0x7f,0xbc,0x04,
 0x20,0xff,0xff,0xff,0xfa,0x03,0x80,0xff,0xff,0xff,0xb3,0x01,0x00,0xfe,0xff,
 0xff,0x2f,0x00,0x00,0xfe,0xff,0xff,0x0f,0x00,0x00,0xfa,0xff,0xff,0x0f,0x00,
 0x00,0xf8,0xff,0xff,0x1f,0x00,0x00,0xf8,0xff,0xff,0x0b,0x00,0x00,0xf0,0xff,
 0xff,0x07,0x00,0x00,0xc0,0xff,0xff,0x03,0x00,0x00,0x00,0x97,0x5c,0x00,0x00};
