#define noname_width 48
#define noname_height 40
static char noname_bits[] = {
 0x00,0xec,0x5b,0xff,0x01,0x00,0x00,0xd6,0xfc,0xff,0x03,0x00,0x00,0xf7,0x77,
 0xff,0x07,0x00,0x80,0xff,0x38,0xff,0x0f,0x00,0x40,0xf5,0xbc,0xff,0x1f,0x00,
 0xe0,0xf5,0x7d,0xff,0x3f,0x00,0xe0,0xff,0xd8,0xff,0x7f,0x00,0xd0,0xff,0xc4,
 0xff,0xff,0x00,0xb8,0xe7,0x7f,0xff,0xff,0x01,0x68,0x52,0x3f,0xfd,0xff,0x03,
 0x50,0x7f,0x67,0xff,0xff,0x07,0x80,0x3c,0xcf,0xff,0xff,0x0f,0xc0,0x9e,0x9c,
 0xfe,0xff,0x0f,0x30,0xc7,0x3b,0xfd,0xff,0x07,0x38,0xb3,0x4d,0xff,0xff,0x0f,
 0xf8,0x15,0x6f,0xfc,0xff,0x0f,0xa0,0x6f,0xf7,0xfd,0xff,0x0f,0xac,0xba,0xdb,
 0x7d,0xff,0x07,0x58,0xe2,0x7d,0xfc,0xff,0x0f,0xd8,0xf7,0x77,0xf7,0xff,0x0f,
 0x7c,0x7e,0xdc,0xf1,0xff,0x07,0x70,0x61,0xfd,0x7d,0xff,0x0f,0x58,0xe4,0x77,
 0xff,0xff,0x0f,0xac,0xfe,0xdc,0xff,0xff,0x05,0x30,0x6e,0xbe,0xee,0xf7,0x0f,
 0x48,0x06,0x8f,0xff,0xf9,0x0f,0xa8,0xe7,0xdc,0x3f,0xfd,0x07,0x30,0x47,0xde,
 0xf3,0xf9,0x07,0xe0,0x1d,0x73,0xe7,0xee,0x0f,0x40,0x9f,0xe3,0xcf,0xf9,0x0f,
 0x20,0xc6,0x64,0x7e,0xf7,0x07,0x00,0xb2,0x3c,0x77,0xff,0x0f,0x80,0x17,0x79,
 0x7f,0xfe,0x0f,0x00,0x6f,0xd2,0xab,0xfe,0x0d,0x00,0xae,0xa2,0x3f,0xff,0x1f,
 0x00,0xc4,0x8d,0xdd,0xff,0x0f,0x00,0x50,0xcd,0xfd,0xfe,0x07,0x00,0xc0,0x63,
 0xef,0xff,0x03,0x00,0xa0,0x57,0xff,0xff,0x01,0x00,0x00,0x7c,0xfc,0xff,0x00};
