#define noname_width 48
#define noname_height 40
static char noname_bits[] = {
 0x00,0x80,0xff,0xff,0x01,0x00,0x00,0xc0,0xff,0xef,0x01,0x00,0x00,0xe0,0xff,
 0xef,0x06,0x00,0x00,0xf8,0xff,0xe3,0x0f,0x00,0x00,0xe8,0xf7,0xc7,0x1f,0x00,
 0x80,0xff,0x3f,0xea,0x0b,0x00,0x00,0xff,0x3f,0xec,0x45,0x00,0xa0,0xff,0x5b,
 0x5f,0xbd,0x00,0xc0,0xff,0xe1,0xbf,0xdf,0x00,0xe0,0xff,0x1f,0xfb,0x0a,0x03,
 0xf0,0xff,0x7f,0x53,0xce,0x03,0xf0,0xff,0xff,0x17,0xdc,0x0d,0xf8,0xff,0x75,
 0x5f,0x4a,0x05,0xfc,0xff,0xfb,0xef,0x47,0x02,0xf8,0xff,0xff,0xbf,0xbe,0x0a,
 0xf0,0xff,0x96,0xbc,0x39,0x0e,0xf8,0xff,0x27,0x4d,0x71,0x05,0xf0,0xff,0x7f,
 0xfd,0x29,0x07,0xf0,0xff,0xff,0xf8,0x17,0x0f,0xf8,0xff,0x6f,0x7f,0xc0,0x0e,
 0xfc,0xff,0xc7,0xfe,0x06,0x07,0xf0,0xff,0xef,0x5f,0xde,0x0b,0xf8,0xff,0x65,
 0xd8,0xdb,0x01,0xfc,0xff,0xe3,0xbd,0xa3,0x01,0xf8,0xff,0xdf,0xbc,0xff,0x07,
 0xf8,0xff,0x6f,0xfc,0xf7,0x0f,0xf8,0x7f,0xf6,0x7f,0x55,0x06,0xf0,0xcf,0xe6,
 0x83,0x07,0x06,0xf0,0xdf,0xef,0x97,0x19,0x0e,0xf0,0xdf,0x3e,0xf2,0xab,0x05,
 0xa0,0x8f,0xbf,0xb1,0xb3,0x01,0x80,0xe7,0xff,0xa4,0xfe,0x01,0x00,0xf0,0x8f,
 0xbf,0x3f,0x00,0x00,0xf8,0x35,0xdf,0x79,0x00,0x00,0x20,0x3f,0x5e,0x01,0x00,
 0x00,0x18,0x3e,0x89,0x11,0x00,0x00,0xd8,0xff,0xed,0x03,0x00,0x00,0x80,0x7f,
 0xff,0x07,0x00,0x00,0xc0,0x1f,0x5b,0x02,0x00,0x00,0x00,0x17,0x5c,0x00,0x00};
