#define noname_width 105
#define noname_height 285
static char noname_bits[] = {
 0x81,0x84,0x04,0x12,0xa1,0x44,0x52,0x90,0x04,0x82,0x08,0x91,0x24,0x01,0x54,
 0x52,0x52,0x49,0x55,0x2a,0x25,0x4d,0x69,0x59,0xa5,0x4a,0x92,0x00,0x92,0x24,
 0x49,0x92,0x24,0x51,0x92,0x12,0xa5,0x22,0x29,0x29,0xa5,0x00,0x49,0x92,0x24,
 0x49,0x95,0x4a,0x49,0x49,0x11,0xa9,0x94,0x94,0x52,0x00,0x24,0x29,0x49,0x12,
 0x22,0x92,0x94,0x54,0x4a,0x4a,0x49,0xa2,0xa4,0x00,0x49,0x8a,0x94,0xd4,0x54,
 0x49,0x4a,0x25,0xa5,0x92,0x54,0x55,0x92,0x00,0x12,0x51,0x49,0x11,0x49,0xaa,
 0x24,0x92,0x48,0x54,0x22,0x22,0x25,0x01,0xa4,0x94,0xa4,0xa4,0x24,0x49,0x52,
 0x49,0x2a,0x25,0x95,0x94,0x92,0x00,0x12,0x21,0x09,0x95,0x4a,0x95,0x24,0x55,
 0x51,0x49,0xa4,0x22,0x24,0x01,0x88,0x94,0xa4,0x22,0x29,0x49,0x95,0x24,0x8a,
 0xa4,0x52,0x54,0xab,0x00,0x52,0x22,0x29,0x54,0x52,0x12,0x29,0x49,0x55,0x15,
 0xa5,0x92,0x44,0x00,0x95,0x94,0x94,0x2a,0x29,0xa9,0x92,0x2a,0x49,0xa2,0x14,
 0x49,0x29,0x01,0x20,0x29,0xa1,0x40,0x92,0x92,0x24,0x44,0x92,0x54,0xa9,0x92,
 0x94,0x00,0x55,0x92,0x9a,0x5a,0x49,0x49,0x55,0xb3,0x56,0x8a,0x44,0x54,0xa5,
 0x00,0x92,0x24,0x21,0x25,0x15,0x95,0x48,0xd4,0xaa,0x28,0x95,0x12,0x49,0x01,
 0x24,0x95,0xaa,0x92,0xa4,0x52,0xaa,0xaf,0xbf,0xa6,0xaa,0xaa,0x2a,0x00,0x49,
 0x28,0x0a,0x55,0x52,0xa4,0x52,0x7a,0xdb,0x08,0x11,0x91,0xa4,0x01,0xaa,0xd6,
 0x6a,0xa9,0x2a,0x9b,0xda,0xdf,0xbe,0xd7,0xd4,0xaa,0x52,0x00,0x55,0x89,0x94,
 0xaa,0xaa,0x20,0x75,0xf5,0xeb,0x2a,0x25,0x25,0x95,0x00,0xff,0xff,0xff,0xff,
 0xff,0xff,0xae,0xdf,0xbe,0xdf,0x5f,0xdb,0x6a,0x01,0xbb,0xff,0x7b,0x5b,0xb5,
 0xbf,0xfb,0x7a,0xfb,0xaa,0xea,0xb6,0xad,0x01,0xff,0xff,0xef,0xff,0xff,0xf7,
 0xbf,0xdf,0x57,0xff,0xff,0xff,0xff,0x01,0xff,0xbd,0xff,0xff,0xff,0xfe,0xf5,
 0xf6,0xfe,0xb5,0xfe,0xff,0xff,0x01,0xff,0xff,0xfe,0xf7,0xdf,0xff,0xdf,0xff,
 0x6f,0xff,0xff,0xff,0xff,0x01,0xb7,0xff,0xef,0xff,0xff,0xbf,0xfb,0xdf,0xfb,
 0x5d,0xfd,0xff,0xff,0x01,0xff,0xef,0xff,0xfe,0xfe,0xff,0xee,0xf6,0xbf,0xf7,
 0xf7,0xff,0xff,0x01,0xff,0xff,0xff,0xdf,0xbf,0xed,0xbf,0x7f,0xff,0x7e,0xff,
 0xff,0xfd,0x01,0xf7,0xff,0xdd,0xff,0xff,0xff,0xf7,0xdd,0xef,0xd7,0xfb,0xdd,
 0xdf,0x01,0xbf,0xfd,0xff,0xfd,0xf7,0xff,0xfe,0xff,0x7d,0xb5,0xef,0xff,0xff,
 0x01,0xff,0xbf,0xff,0xff,0xff,0xff,0x5f,0x6b,0xff,0x6f,0xfd,0xff,0xff,0x01,
 0xff,0xff,0xf7,0xb7,0xbf,0xbb,0xfd,0xfd,0x5b,0xa9,0xff,0xff,0xff,0x01,0xf7,
 0xfb,0x7f,0xff,0xfb,0xff,0x6f,0xab,0xfe,0xf7,0xfe,0xff,0xff,0x01,0xff,0x7f,
 0xff,0xff,0xff,0xbf,0xfd,0xf6,0x57,0xcd,0xf7,0xff,0xfe,0x01,0xbf,0xff,0xff,
 0xff,0xff,0xfd,0x5f,0x5b,0xbb,0x75,0xff,0xff,0xef,0x01,0xff,0xfb,0xbb,0xbb,
 0xf7,0xef,0xfe,0xf6,0x6d,0xab,0xbf,0xf7,0xff,0x01,0xf7,0xdf,0xff,0xff,0xbf,
 0xff,0xb7,0x5d,0x57,0xdd,0xff,0xff,0xff,0x01,0x7f,0xff,0xff,0xff,0xff,0xff,
 0x5f,0xbb,0xda,0xea,0xff,0xff,0xff,0x01,0xff,0x7f,0xef,0xde,0xff,0x7b,0xf5,
 0x6d,0x6f,0x77,0xff,0xff,0xff,0x01,0xfb,0xff,0xff,0xff,0xfd,0xff,0x5f,0xdb,
 0xaa,0xed,0xff,0xff,0xff,0x01,0xef,0xef,0xfb,0xff,0xff,0x7f,0xd5,0xb6,0x76,
 0xbb,0xff,0xff,0xff,0x01,0xff,0xfe,0xdf,0xff,0xdf,0xff,0xaa,0xed,0xad,0xed,
 0xff,0xdf,0xfd,0x01,0xff,0xff,0xff,0x77,0xff,0xbb,0x6a,0xbb,0x56,0xff,0xbf,
 0xff,0xff,0x01,0xff,0x7f,0xff,0xff,0xff,0xff,0x54,0x6d,0xbb,0xfd,0xff,0xff,
 0xdf,0x01,0xff,0xfb,0xff,0xfe,0x7b,0x7f,0xad,0xdb,0xd6,0xd6,0xff,0xff,0xff,
 0x01,0xb7,0xff,0xff,0xff,0xff,0x5f,0x55,0xbd,0xad,0xbd,0xff,0xff,0xff,0x01,
 0xff,0xdf,0xdd,0xff,0xff,0x5f,0xd5,0xee,0x76,0xeb,0xfb,0xff,0xff,0x01,0xff,
 0xff,0xff,0xfb,0xef,0xbf,0xaa,0xbd,0xad,0xdd,0xff,0x7b,0xfb,0x01,0xff,0xfb,
 0xff,0xff,0xfe,0xa7,0xea,0x6e,0x77,0xf7,0xff,0xff,0xff,0x01,0xbb,0xff,0xee,
 0xdf,0xff,0x4f,0xb5,0xfd,0xad,0x7f,0xdf,0xff,0xff,0x01,0xff,0xff,0x7f,0xff,
 0xff,0x51,0x6d,0x77,0xf7,0xfd,0xff,0xff,0xff,0x01,0xff,0xef,0xff,0xf7,0xff,
 0x87,0xda,0xde,0xdd,0xf7,0xff,0xff,0xff,0x01,0xff,0xff,0xff,0xff,0xbb,0xbd,
 0xb6,0xfb,0xef,0xfe,0xff,0xbf,0xff,0x01,0xdf,0xfd,0xff,0xff,0xff,0x57,0x6d,
 0xfd,0xb6,0xff,0xfb,0xfd,0xbb,0x01,0xff,0xbf,0xfb,0xff,0xff,0xff,0x5b,0xdf,
 0xff,0xff,0xff,0xff,0xff,0x01,0xfb,0xff,0xff,0xbd,0xd7,0x7e,0xed,0xfa,0xab,
 0xbe,0xbf,0xff,0xff,0x01,0xff,0xff,0xff,0xff,0xff,0xfb,0xbb,0x6e,0xff,0xff,
 0xff,0xff,0xff,0x01,0xff,0xff,0xff,0xff,0xbb,0xff,0x6f,0xfb,0xff,0xff,0xff,
 0xff,0xff,0x01,0xaa,0x52,0x55,0x6d,0xff,0xdf,0xdf,0xde,0xed,0xff,0xff,0x7f,
 0xff,0x01,0x55,0xad,0xed,0xfb,0xed,0xf6,0xbf,0x7b,0xbf,0xed,0xf6,0xfb,0xef,
 0x01,0xaa,0xb6,0x2a,0xaa,0xff,0xff,0x7d,0xff,0x55,0x35,0x2b,0x55,0x55,0x01,
 0x55,0xa9,0x6a,0xd5,0xdb,0xff,0xff,0xdf,0xaa,0xca,0x54,0x55,0x55,0x01,0xad,
 0x56,0x55,0x75,0xff,0xde,0xff,0xff,0x57,0x55,0xad,0xaa,0xaa,0x00,0xaa,0xaa,
 0x56,0xfb,0xff,0xff,0xf7,0xff,0xab,0xaa,0x6a,0xad,0xb6,0x01,0x55,0xd5,0xaa,
 0xfc,0xef,0xf7,0xfe,0xfb,0x5e,0x55,0x95,0xaa,0xaa,0x00,0xaa,0x2a,0x55,0xfb,
 0xfd,0xfe,0xff,0xff,0x57,0x55,0xb5,0xaa,0xaa,0x00,0x55,0xd5,0xaa,0xde,0xff,
 0xbf,0xbf,0xdf,0xbf,0xaa,0x4a,0x55,0x55,0x01,0xaa,0x2a,0x55,0xff,0xff,0xff,
 0xfd,0xff,0x57,0x55,0xb5,0xaa,0xaa,0x00,0x55,0xd5,0xaa,0xff,0xff,0xff,0xff,
 0xff,0x7e,0xaa,0x4a,0x55,0x55,0x01,0xaa,0x2a,0x55,0xfd,0xff,0xb7,0xff,0xfd,
 0x9f,0x52,0x55,0x55,0x55,0x01,0x55,0x55,0xd5,0xff,0xff,0xff,0xef,0xff,0x7f,
 0xaa,0xaa,0xaa,0xaa,0x00,0xaa,0xaa,0xaa,0xff,0xfd,0xff,0xfd,0xff,0xb7,0x4a,
 0x55,0x55,0x55,0x01,0xaa,0xaa,0xea,0xef,0xbf,0xff,0xff,0xbf,0x7f,0xaa,0xaa,
 0xaa,0xaa,0x00,0x55,0x55,0xf5,0xff,0xff,0xff,0xdf,0xfb,0xbf,0x52,0x52,0xaa,
 0xaa,0x00,0x24,0xa9,0xaa,0xff,0xff,0x7f,0xff,0xff,0xff,0x54,0x4d,0x55,0x55,
 0x01,0x52,0x92,0xd4,0xff,0xff,0xff,0xff,0xff,0x7d,0x4a,0x51,0x49,0x95,0x00,
 0x2a,0x55,0xea,0xff,0xff,0xfe,0x77,0xbf,0xff,0xa9,0xac,0xaa,0xa4,0x00,0x44,
 0x4a,0xe9,0xff,0xff,0xff,0xff,0xfb,0xbf,0x44,0x11,0x89,0xaa,0x00,0xaa,0x22,
 0xea,0xff,0xff,0xff,0xff,0xff,0x7f,0x29,0xaa,0x64,0x92,0x00,0x24,0xd5,0xea,
 0xdf,0xff,0xef,0xfd,0xff,0x7e,0xaa,0x52,0x95,0x2a,0x01,0x92,0x28,0xf4,0xff,
 0xff,0xff,0x6f,0xf7,0xf7,0x92,0x94,0x52,0x91,0x00,0xa5,0x92,0xf5,0xff,0xfb,
 0xff,0xff,0xbf,0x7f,0x49,0x49,0x4a,0x2a,0x01,0x54,0x4a,0xea,0xff,0xff,0xff,
 0xff,0xff,0xff,0x24,0x55,0xa9,0xaa,0x00,0x22,0xa9,0xf4,0xf7,0xff,0xff,0xff,
 0xfe,0xff,0x52,0x22,0x25,0x49,0x01,0x95,0x54,0xda,0xff,0xff,0xff,0xff,0xff,
 0xff,0x29,0x95,0x54,0xa5,0x00,0xa4,0xa2,0xea,0xff,0xff,0xef,0xf7,0xdf,0x76,
 0x45,0xaa,0x92,0x14,0x01,0x52,0x94,0xf4,0xff,0xff,0xff,0xbf,0xff,0xff,0x51,
 0x91,0x54,0xaa,0x00,0x94,0x52,0xfa,0xff,0xff,0xff,0xff,0xfb,0xff,0x2a,0x25,
 0x49,0x29,0x01,0x4a,0x29,0xf5,0xff,0xff,0xff,0xff,0xff,0xff,0x49,0x55,0x55,
 0xa5,0x00,0x12,0x42,0xfa,0xfe,0xb7,0x7f,0xff,0x7f,0xf7,0x94,0x48,0x92,0x94,
 0x00,0xc9,0xaa,0xda,0xff,0xff,0xff,0xff,0xff,0xff,0x4b,0xa5,0x4a,0xa5,0x00,
 0x2a,0x29,0xfa,0xef,0xff,0xff,0xbf,0xef,0x7f,0x11,0x95,0x54,0x92,0x00,0x84,
 0x94,0xfa,0xff,0xff,0xff,0xff,0xff,0xff,0x52,0x49,0x25,0xa9,0x00,0x32,0xa9,
 0xfa,0xff,0xff,0xfd,0xfb,0xff,0xff,0x49,0x92,0x48,0x25,0x01,0x88,0x44,0xfc,
 0xff,0xff,0xff,0xff,0x7b,0xfb,0xa3,0xaa,0x2a,0xa9,0x00,0x42,0x10,0xbb,0xff,
 0xff,0xff,0xff,0xff,0xff,0x28,0x49,0xa5,0x92,0x00,0x10,0x85,0xfc,0xff,0xff,
 0xff,0xff,0xff,0xff,0x8b,0x24,0x50,0x49,0x00,0x02,0x10,0xf6,0xff,0xff,0xff,
 0xbf,0xdf,0xef,0x11,0x42,0x05,0x92,0x00,0xa4,0x44,0xfd,0xff,0xff,0xff,0xff,
 0xff,0xff,0xa7,0x28,0x52,0x49,0x00,0x10,0x02,0xfd,0x7f,0xff,0xff,0xfe,0xfd,
 0xff,0x01,0x80,0x08,0x20,0x01,0x82,0xa0,0xfe,0xff,0xff,0xf7,0xff,0xff,0xfd,
 0x23,0x2a,0xa2,0x0a,0x00,0x08,0x0a,0xff,0xff,0xff,0xff,0xff,0xff,0xdf,0x83,
 0x80,0x00,0x50,0x01,0x91,0x40,0xf5,0xfb,0xf7,0xff,0xdf,0xbf,0xff,0x25,0x24,
 0xaa,0x0a,0x00,0x00,0x24,0xfe,0xff,0xff,0xff,0xff,0xfe,0xff,0x83,0x10,0x00,
 0xa0,0x00,0x48,0x81,0x5a,0xff,0xff,0xff,0xff,0xff,0xfb,0x2b,0x44,0x55,0x15,
 0x00,0x02,0x24,0xee,0xff,0xff,0xff,0xff,0xf7,0x7f,0x85,0x10,0x00,0xa2,0x00,
 0xa0,0x08,0xf9,0xfd,0xff,0xff,0xff,0xff,0xbf,0x10,0x85,0xaa,0x08,0x00,0x04,
 0x22,0xdd,0xff,0xff,0xff,0xff,0xff,0x7f,0x42,0x50,0x00,0xa1,0x00,0x91,0x40,
 0xea,0xae,0xea,0xff,0x7f,0xff,0x5d,0x11,0x0a,0x55,0x14,0x00,0x00,0x0a,0xad,
 0x7b,0xfd,0xdf,0xfb,0xef,0x3f,0x42,0x21,0x40,0x42,0x01,0xa4,0x20,0xf5,0xae,
 0x02,0xfd,0xff,0xff,0xaf,0x14,0x08,0x15,0x21,0x00,0x00,0x82,0x5a,0x5b,0x52,
 0xff,0xff,0xff,0x3f,0x41,0xa1,0x20,0x94,0x00,0x94,0x24,0xac,0x55,0x05,0xd0,
 0xff,0xff,0x5f,0x2a,0x14,0x8a,0x22,0x00,0x00,0x40,0x7b,0xab,0x28,0xf5,0xff,
 0xbf,0xbf,0x80,0x20,0x11,0x88,0x00,0x52,0x12,0x4a,0x5d,0x4b,0x00,0xa8,0xff,
 0xbf,0x2a,0x4a,0x44,0x45,0x00,0x00,0x88,0xb4,0x55,0x95,0x00,0xf5,0xfe,0x6f,
 0x91,0x80,0x10,0x10,0x01,0x92,0x22,0xaa,0xaa,0xaa,0x4a,0x00,0xe0,0x7f,0x4d,
 0x2a,0x44,0x45,0x00,0x40,0x80,0x48,0xb5,0x5a,0x05,0x00,0xea,0xff,0x22,0x41,
 0x11,0x10,0x00,0x14,0x28,0xd2,0x4a,0x55,0xb5,0x0a,0x80,0xbe,0x9d,0x28,0x8a,
 0x8a,0x00,0x80,0x02,0xa8,0x92,0xaa,0x4a,0x21,0x00,0xff,0x53,0x82,0x20,0x20,
 0x00,0x24,0x88,0xc2,0xaf,0xaa,0xaa,0x9a,0x4a,0xf0,0xbe,0x54,0x8a,0x8a,0x00,
 0x00,0x21,0xe8,0x5f,0x49,0xaa,0x2a,0x00,0xfa,0xab,0x02,0x10,0x20,0x00,0x49,
 0x00,0x02,0xff,0x56,0xa9,0xaa,0xaf,0x40,0xff,0x5b,0x45,0x95,0x00,0x20,0x55,
 0xa8,0xff,0x55,0xa5,0xaa,0x10,0xd2,0xaf,0x02,0x10,0x00,0x00,0x08,0x00,0x02,
 0xfd,0xff,0x7f,0x55,0x6d,0x09,0xfc,0x5f,0x45,0xaa,0x00,0x42,0x22,0x29,0xff,
 0xff,0xd6,0x6d,0xa5,0x24,0xfd,0x15,0x10,0x00,0x00,0x10,0x48,0x40,0xfa,0xff,
 0xff,0xff,0x55,0x42,0x52,0xbf,0x85,0xaa,0x00,0x44,0x01,0x09,0xfd,0xff,0xff,
 0xff,0xab,0x0a,0xe9,0x2b,0x12,0x00,0x00,0x01,0x48,0x20,0xf8,0xff,0xff,0xff,
 0xaf,0x54,0x15,0xdc,0x44,0xa9,0x00,0x08,0x01,0x85,0xfe,0xff,0xff,0xf7,0x2f,
 0x91,0xc2,0xbb,0x12,0x04,0x00,0x42,0x48,0x20,0xf4,0xff,0xff,0x7f,0x7f,0x55,
 0x1d,0x84,0x24,0x91,0x00,0x10,0x21,0x8a,0xfa,0xff,0xff,0xff,0x97,0xa4,0x0a,
 0x38,0x89,0x44,0x00,0x04,0x84,0x00,0xfd,0xff,0xff,0xff,0xff,0xaa,0x6a,0x45,
 0x20,0x10,0x00,0xa0,0x10,0x2a,0xff,0xff,0xbf,0xff,0x3f,0x6d,0x2d,0x90,0x8a,
 0x44,0x00,0x09,0x42,0x80,0xfe,0xff,0xff,0xfb,0xfd,0xab,0x56,0x55,0x20,0x81,
 0x00,0x00,0x01,0x49,0xff,0xff,0xff,0xbf,0xff,0x54,0xb5,0x08,0x09,0x14,0x00,
 0x52,0x50,0xa0,0xff,0xff,0xff,0xff,0xff,0x6b,0xab,0x64,0xa5,0x82,0x00,0x00,
 0x02,0xc5,0xff,0xff,0xff,0xff,0xff,0xdb,0xaa,0x54,0x01,0x28,0x00,0x90,0x24,
 0x50,0xff,0xff,0xff,0xff,0xef,0xa7,0xd6,0x52,0xb5,0x82,0x00,0x02,0x80,0xc0,
 0xff,0xff,0xff,0xff,0xff,0x57,0x55,0xc9,0x42,0x08,0x00,0x90,0x24,0xa8,0xff,
 0xff,0xff,0xff,0xff,0xaf,0x2a,0x25,0x3d,0xa2,0x00,0x04,0x80,0xc2,0xff,0xff,
 0xff,0xff,0xff,0x9f,0x55,0x48,0xa2,0x08,0x00,0x41,0x2a,0xa8,0xff,0xff,0xff,
 0xff,0xff,0x5f,0x2a,0x92,0xaa,0xa2,0x00,0x08,0x00,0xa0,0xff,0xff,0xfd,0xf7,
 0xbd,0xbf,0xaa,0x48,0x54,0x08,0x01,0x40,0x92,0xd2,0xff,0xff,0xdf,0xff,0xff,
 0x3f,0x42,0x24,0xaa,0x42,0x00,0x12,0x40,0x60,0xff,0xff,0xff,0xff,0xff,0x2f,
 0x14,0x91,0xa4,0x08,0x00,0x00,0x12,0xd4,0xff,0xff,0xff,0xff,0xff,0x5f,0x42,
 0x44,0x2a,0xa2,0x00,0xa4,0x80,0xe0,0xff,0xef,0xff,0xfd,0x7f,0x3f,0x10,0x11,
 0x55,0x08,0x00,0x01,0x10,0xe9,0xff,0xff,0xff,0xbf,0xff,0x3f,0x45,0x84,0x2a,
 0xa2,0x00,0x48,0x42,0xd0,0xdf,0xff,0xff,0xff,0xf7,0x2f,0x00,0x51,0xaa,0x08,
 0x00,0x82,0x10,0xc4,0xff,0xff,0xfb,0xff,0xff,0xbf,0x54,0x08,0x15,0xa2,0x00,
 0x10,0x44,0xd0,0xff,0xff,0xff,0xff,0xff,0x7f,0x00,0x21,0x2a,0x01,0x01,0x04,
 0x11,0x45,0xff,0xff,0xff,0xff,0xff,0xbf,0x54,0x88,0x4a,0x54,0x00,0x20,0x00,
 0xd0,0xff,0xff,0xbf,0xfb,0xfb,0x7e,0x02,0xa5,0x15,0x00,0x01,0x09,0x4a,0x89,
 0xff,0xff,0xff,0x7f,0xff,0xff,0x90,0x00,0x05,0x55,0x00,0x20,0x00,0xa0,0xff,
 0xff,0xff,0xff,0xff,0x7f,0x40,0x52,0x52,0x00,0x01,0x08,0xa5,0x94,0xfe,0xff,
 0xff,0xff,0xff,0xff,0x15,0x80,0x04,0x55,0x00,0x40,0x00,0xc0,0xff,0xff,0xef,
 0xff,0xf7,0xbf,0x40,0x0a,0x10,0x00,0x01,0x12,0x24,0x25,0xfe,0xff,0xff,0xdd,
 0xff,0xfb,0x13,0x41,0x45,0x55,0x00,0x40,0x00,0x80,0xff,0xff,0xff,0xff,0xbf,
 0x7f,0x01,0x14,0x28,0x00,0x01,0x14,0x52,0x52,0xfe,0xff,0xff,0xff,0xfd,0xff,
 0x4b,0x41,0x02,0x55,0x00,0x80,0x00,0x81,0xfd,0xbf,0xff,0xff,0xff,0x7f,0x01,
 0x04,0x49,0x00,0x01,0x21,0x48,0x24,0xfe,0xff,0xff,0xdf,0xff,0xff,0x2a,0x51,
 0x10,0x55,0x00,0x08,0x01,0x00,0xfd,0xff,0xff,0xff,0xf7,0xf7,0x0b,0x02,0x41,
 0x20,0x01,0x00,0x90,0x24,0xf6,0xff,0xff,0xff,0xbf,0xff,0xa5,0x50,0x14,0x0a,
 0x00,0x22,0x01,0x10,0xfd,0xfd,0xdf,0xfb,0xff,0xff,0x13,0x04,0x40,0xa0,0x00,
 0x08,0x48,0x45,0xf8,0xff,0xff,0xff,0xfd,0xff,0x2a,0x91,0x2a,0x15,0x00,0x20,
 0x01,0x00,0xf5,0xff,0xff,0xbf,0xff,0xff,0x23,0x44,0x00,0x40,0x00,0x04,0xa8,
 0x54,0xf8,0xff,0xff,0xff,0xdf,0xee,0x4b,0x11,0x52,0x95,0x00,0x50,0x02,0x00,
 0xe9,0xff,0xff,0xff,0xff,0xff,0x27,0x44,0x08,0x20,0x00,0x02,0x40,0x52,0xf2,
 0xff,0xff,0xff,0xff,0xff,0x0b,0x11,0x82,0x8a,0x00,0x90,0x04,0x01,0xe8,0xbf,
 0xff,0xff,0xff,0xff,0x47,0x40,0x54,0x10,0x00,0x04,0x20,0x48,0xd2,0xff,0xff,
 0xfb,0x6f,0xdf,0x17,0x14,0x01,0x85,0x00,0x90,0x84,0x00,0xf1,0xff,0xff,0xff,
 0xfe,0xff,0x8f,0x40,0x14,0x28,0x00,0x04,0x20,0x52,0xc4,0xff,0xff,0xff,0xff,
 0xff,0x0b,0x12,0x82,0x82,0x00,0x20,0x09,0x00,0xd1,0xfd,0xff,0xff,0xff,0xfd,
 0x0f,0x48,0x28,0x28,0x00,0x09,0x82,0x4a,0xa0,0xff,0xdf,0xff,0xbf,0xff,0xaf,
 0x02,0x85,0x82,0x00,0x20,0x08,0x20,0xd2,0xff,0xff,0xef,0xff,0xbf,0x07,0x28,
 0x10,0x24,0x00,0x04,0x41,0x09,0x84,0xff,0xff,0xff,0xfb,0xff,0x9f,0x02,0x45,
 0x89,0x00,0x10,0x04,0xa0,0xd0,0xff,0xff,0xff,0xff,0xfe,0x07,0x28,0x10,0x20,
 0x00,0x40,0x21,0x09,0x04,0xff,0xff,0xff,0xff,0xff,0x9f,0x42,0x85,0x8a,0x00,
 0x02,0x08,0x40,0x51,0xff,0xff,0xff,0xff,0xf7,0x4f,0x10,0x10,0x10,0x00,0x20,
 0x82,0x12,0x80,0xfe,0xff,0xff,0xdf,0xff,0x1f,0x04,0x45,0x85,0x00,0x04,0x10,
 0x40,0x0a,0xff,0xff,0xdf,0xfd,0xfd,0x8f,0x10,0x10,0x28,0x00,0x90,0x44,0x92,
 0xa0,0xfc,0xff,0xff,0xff,0x7f,0x3f,0x45,0x45,0x82,0x00,0x04,0x10,0x00,0x02,
 0xff,0xff,0xfd,0xff,0xef,0x0f,0x10,0x10,0x09,0x00,0x81,0x02,0xaa,0xa8,0xf8,
 0xff,0xff,0xff,0xff,0x3f,0x84,0x44,0xa0,0x00,0x08,0x48,0x00,0x02,0xff,0xff,
 0xff,0xdf,0xff,0x9f,0x10,0x10,0x05,0x00,0x40,0x82,0x84,0x40,0xf8,0xff,0xff,
 0xff,0xfd,0x2f,0x24,0x45,0xa8,0x00,0x04,0x10,0x10,0x0a,0x7d,0xff,0xff,0xfe,
 0xff,0x9f,0x00,0x10,0x01,0x00,0x21,0x85,0x84,0x50,0xfa,0xff,0xff,0xff,0xdf,
 0x3f,0x49,0x45,0xa4,0x00,0x08,0x00,0x22,0x00,0xf4,0xff,0xff,0xff,0xff,0x2f,
 0x00,0x10,0x01,0x00,0x00,0xa9,0x08,0x55,0xf9,0xff,0xff,0xff,0xfb,0x3e,0x54,
 0x45,0xa8,0x00,0x12,0x00,0x20,0x00,0xf4,0xff,0xff,0xff,0xff,0x1f,0x01,0x10,
 0x05,0x01,0x80,0x44,0x84,0x52,0xe9,0xff,0xff,0xbf,0xdf,0x7f,0x20,0x05,0x50,
 0x00,0x24,0x10,0x01,0x00,0xf4,0xff,0xff,0xff,0xff,0x5f,0x02,0x50,0x01,0x01,
 0x80,0x04,0xa8,0x54,0xd1,0xff,0xff,0xff,0xff,0x7f,0xa8,0x04,0x54,0x00,0x04,
 0x20,0x01,0x02,0xd4,0xff,0x7f,0xff,0x77,0x3f,0x02,0x52,0x02,0x01,0x21,0x09,
 0x90,0x50,0xd1,0xff,0xff,0xff,0xff,0xbf,0xa0,0x80,0x50,0x00,0x00,0x20,0x01,
 0x02,0xe2,0xff,0xff,0x7f,0xff,0x7f,0x02,0x0a,0x02,0x01,0x94,0x44,0xa8,0xa8,
 0x94,0xff,0xff,0xff,0xbf,0x7f,0x90,0xa0,0x50,0x00,0x00,0x00,0x01,0x02,0xc0,
 0xfb,0xff,0xff,0xff,0x7d,0x04,0x02,0x0a,0x01,0x42,0x52,0x90,0xa8,0x2a,0x7f,
 0xff,0xf7,0xff,0xff,0x90,0x50,0x41,0x00,0x08,0x08,0x01,0x02,0x40,0xff,0xff,
 0xff,0xf7,0xbf,0x42,0x0a,0x14,0x00,0x40,0x02,0xa8,0x48,0x95,0xfe,0xff,0xff,
 0xff,0xff,0x10,0x40,0x81,0x00,0x02,0x90,0x04,0x20,0x20,0xff,0xff,0xff,0x7f,
 0x3f,0x40,0x09,0x2a,0x00,0x90,0x04,0x40,0x0a,0x8a,0xfc,0xff,0xff,0xff,0xbf,
 0x2a,0xa2,0x80,0x00,0x00,0xa0,0x04,0xa1,0x10,0xff,0xf7,0x7f,0xff,0x3f,0x00,
 0x08,0x0a,0x00,0x49,0x0a,0x50,0x10,0x44,0xfa,0xff,0xff,0xff,0x5f,0x94,0x82,
 0xa0,0x00,0x00,0x80,0x02,0x45,0x11,0xfd,0xff,0xff,0xef,0x2f,0x41,0x28,0x12,
 0x00,0x48,0x22,0x40,0x10,0x44,0xfa,0xff,0xfb,0xff,0x1f,0x10,0x82,0x84,0x00,
 0x00,0x88,0x04,0x49,0x91,0xfc,0xff,0xff,0xff,0x96,0x42,0x08,0x50,0x00,0x24,
 0x01,0x50,0x02,0x24,0xf5,0xff,0xff,0xfd,0x27,0x14,0xa5,0x0a,0x00,0x00,0x24,
 0x01,0x28,0x01,0xf4,0xef,0xef,0xff,0x87,0x20,0x10,0xa0,0x00,0x22,0x01,0x48,
 0x42,0xa8,0xff,0xff,0xff,0xff,0x2b,0x4a,0x45,0x15,0x00,0x08,0x48,0x02,0x88,
 0x02,0xff,0xff,0xff,0xef,0x81,0x00,0x10,0x40,0x01,0x00,0x82,0xa0,0x22,0xd4,
 0xfe,0xff,0xff,0x7f,0x55,0x54,0x25,0x15,0x00,0x22,0x08,0x04,0x84,0x80,0xff,
 0xfe,0xbe,0xff,0x00,0x01,0x80,0xa0,0x00,0x88,0x22,0x49,0x29,0xaa,0xff,0xff,
 0xff,0x7f,0xa5,0x54,0x55,0x08,0x00,0x00,0x08,0x20,0x40,0xd0,0xff,0xff,0xff,
 0x3f,0x10,0x02,0x00,0x25,0x01,0x24,0x41,0x09,0x95,0xea,0xff,0xff,0xff,0x57,
 0x85,0x50,0x55,0x42,0x00,0x00,0x08,0x80,0x00,0xd0,0xff,0xff,0xff,0x1f,0x10,
 0x05,0x00,0x89,0x00,0x48,0x02,0x2a,0x52,0xf5,0xff,0xff,0xdd,0xa7,0x4a,0x52,
 0x55,0x20,0x00,0x02,0x50,0x00,0x08,0xe8,0xff,0xbf,0xff,0x17,0x20,0x08,0x82,
 0x8a,0x00,0x80,0x04,0xa4,0x42,0xfd,0xff,0xff,0xff,0x09,0x15,0xa5,0x28,0x40,
 0x00,0x08,0x90,0x00,0x08,0xf8,0xff,0xff,0xff,0x4b,0x40,0x48,0x42,0x15,0x01,
 0x22,0x05,0x52,0x45,0xff,0xff,0xff,0x7f,0x10,0x95,0x92,0x28,0x40,0x00,0x00,
 0x20,0x00,0x08,0xfa,0xff,0xfb,0xbb,0x41,0x00,0x08,0x82,0x8a,0x00,0x90,0x00,
 0x49,0xa2,0xff,0xff,0xff,0x4f,0x14,0xaa,0x42,0x51,0x20,0x00,0x00,0x00,0x00,
 0x80,0xfe,0xff,0xff,0x1f,0x41,0x00,0x14,0x0a,0x45,0x01,0x00,0x24,0x10,0xa1,
 0xff,0xff,0xdf,0x27,0x94,0x54,0x81,0x40,0x10,0x00,0x00,0x00,0x00,0x80,0xff,
 0xff,0xff,0x0b,0x00,0x00,0x14,0x12,0x41,0x00,0x6d,0x55,0xab,0xda,0xff,0xdf,
 0xff,0xa7,0xaa,0x4a,0xa1,0x44,0x14,0x00,0x92,0x52,0x24,0xa9,0xff,0xfb,0xff,
 0x05,0x00,0x10,0x0a,0x11,0x42,0x01,0xad,0xaa,0x55,0xed,0xff,0xff,0x7b,0xdb,
 0xff,0xef,0x6a,0xd5,0xaa,0x00,0x52,0x55,0xad,0xf5,0xff,0xff,0xff,0x55,0x22,
 0xa9,0xad,0x56,0x55,0x01,0xaa,0xaa,0x52,0xfd,0xbf,0xff,0x7f,0xad,0xdd,0xb6,
 0x56,0x55,0x55,0x01,0x55,0x55,0xad,0x7a,0xff,0xff,0xfd,0xaa,0x2a,0x55,0xd9,
 0x5a,0xad,0x00,0xaa,0xaa,0xaa,0xfe,0xff,0xff,0xaf,0x6d,0xd5,0xda,0x56,0x55,
 0x55,0x01,0x55,0x55,0x55,0xfb,0xf7,0xbb,0xbf,0xda,0xae,0xb5,0xda,0x56,0xb5,
 0x00,0xaa,0xaa,0xaa,0xef,0xff,0xff,0xdf,0x56,0xb5,0x56,0xab,0x6a,0x55,0x01,
 0xb5,0x55,0xd5,0xfe,0xff,0xff,0xab,0xaa,0x55,0xb5,0xaa,0x55,0xd5,0x00,0x00,
 0x00,0x24,0xff,0xff,0xff,0x57,0xdb,0xda,0xaa,0xb6,0xaa,0x5a,0x01,0x00,0xa0,
 0x48,0xfd,0xff,0xff,0xba,0xaa,0xb6,0xdd,0x6a,0xad,0x55,0x01,0x00,0x00,0x00,
 0xfe,0xff,0xbf,0x00,0x00,0x00,0x00,0x00,0x00,0x20,0x00,0x90,0x00,0x00,0xfe,
 0xff,0xfe,0x00,0x00,0x00,0x00,0x00,0x20,0x81,0x00,0x04,0x24,0x12,0xfd,0xff,
 0x2f,0x44,0x52,0x89,0xa4,0xaa,0x4a,0x12,0x00,0x20,0x80,0x40,0xfa,0xff,0x9f,
 0x92,0xa4,0x32,0x29,0x49,0x02,0x04,0x00,0x00,0x12,0x10,0xd5,0xfe,0x0f,0x20,
 0x09,0x44,0x02,0x82,0x50,0xa1,0x00,0x00,0x40,0x42,0xed,0xff,0x87,0x08,0x40,
 0x00,0x90,0x08,0x02,0x04,0x00,0x24,0x01,0x90,0xaa,0xea,0x2b,0x82,0x14,0x92,
 0x24,0x50,0x51,0xa9,0x00,0x00,0x88,0x00,0x55,0xff,0x02,0x48,0x42,0x48,0x42,
 0x05,0x04,0x02,0x00,0x88,0x22,0x55,0xb5,0xba,0x91,0x12,0x90,0x82,0x10,0x40,
 0xa9,0xa0,0x00,0x22,0x94,0x20,0xad,0xfd,0x04,0x40,0x05,0x08,0x42,0x29,0x00,
 0x0a,0x00,0x08,0x21,0x4a,0xd5,0x6e,0xa1,0x2a,0xa0,0xa2,0x14,0x02,0x92,0x80,
 0x00,0x20,0x80,0x10,0xb5,0xfa,0x08,0x80,0x0a,0x14,0x20,0x48,0x09,0x2a,0x00,
 0x84,0x2a,0x84,0x6a,0x7f,0x47,0x55,0x90,0x82,0x4a,0x25,0x42,0x81,0x00,0x10,
 0x80,0x28,0xdd,0xea,0x11,0x08,0x45,0x28,0x92,0x48,0x14,0x24,0x00,0x02,0x22,
 0xc4,0x6a,0x7f,0x4f,0x82,0x10,0x85,0x24,0x92,0x42,0x89,0x00,0x20,0x00,0xa9,
 0xd6,0xaa,0x15,0x10,0x42,0x28,0x48,0x09,0x08,0x10,0x00,0x80,0x24,0x52,0xbb,
 0xff,0xbf,0x85,0x10,0x85,0x12,0xa4,0x52,0xa5,0x00,0x00,0x00,0xb4,0x6a,0x55,
 0x55,0x22,0x42,0x28,0x44,0x91,0x08,0x12,0x01,0x00,0x40,0x49,0xd5,0xfe,0xff,
 0x9b,0x10,0x02,0x01,0x00,0x82,0x00,0x00,0x04,0x09,0xb5,0xaa,0x55,0x55,0x57,
 0x42,0x48,0x08,0x01,0x10,0x20,0x00,0x40,0x80,0x80,0x52,0xaa,0xff,0xbb,0xbd,
 0x22,0x42,0xa8,0x04,0x84,0x00,0x00,0x28,0xb5,0x44,0xd5,0xda,0x6e,0x0b,0x8a,
 0x10,0x01,0x10,0x01,0x00,0x10,0x82,0x4a,0x29,0x29,0xb5,0xff,0xb7,0x51,0x8a,
 0x28,0x05,0x10,0x00,0x44,0x20,0x01,0x02,0x52,0xed,0xdb,0x5e,0xaa,0x2a,0x85,
 0x20,0x00,0x00,0x00,0x88,0x7a,0xa9,0x04,0x92,0xb4,0x8a,0x04,0x90,0x00,0x08,
 0x42,0x00,0x00,0x80,0x8a,0x04,0x50,0xa8,0x56,0x25,0x51,0x45,0x04,0x40,0x08,
 0x00,0x88,0x04,0x7d,0xab,0x04,0x25,0x55,0x49,0x04,0x10,0x41,0x02,0x00,0x00,
 0x00,0x50,0xf6,0x56,0x22,0x80,0xa8,0x00,0x50,0x49,0x14,0x29,0x01,0x00,0x42,
 0x00,0x15,0xb5,0xaa,0x55,0xb5,0x2a,0x05,0x02,0x00,0x00,0x00,0x00,0x00,0x02,
 0xa8,0x6a,0xab,0x2a,0x55,0x95,0x10,0x90,0x00,0x00,0x08,0x00,0x10,0x90,0x42,
 0x00,0x40,0x4a,0x92,0x20,0x00,0x01,0x20,0x01,0x41,0x00,0x00,0x00,0x04,0x25,
 0x89,0x28,0x49,0x8a,0x44,0x00,0x09,0x24,0x00,0x00,0x00,0x00,0x20,0x00,0x10,
 0x02,0x00,0x00,0x00,0x10,0x00,0x00,0x00,0x00,0x00,0x80,0x00,0x00,0x00,0x00,
 0x00,0x00,0x00,0x00,0x00,0x00,0x00,0x00,0x00,0x02,0x00,0x00,0x00,0x40,0x12,
 0x00,0x00,0x00,0x00,0x00,0x10,0x00,0x00,0x00,0x00,0x01,0x00,0x02,0x00,0x20,
 0x00,0x00,0x40,0x00,0x00,0x00,0x00,0x00,0x20,0x20,0x44,0x08,0x00,0x01,0x04,
 0x12,0x02,0x80,0x00,0x00,0x00,0x48,0x08,0x09,0x01,0x00,0x00,0x00,0x00,0x00,
 0x00,0x02,0x00,0x00,0x00,0x00,0x00,0x00,0x00,0x01,0x00,0x00,0x00,0x00,0x00,
 0x00,0x00,0x00,0x00,0x00,0x00,0x00,0x00,0x00,0x00,0x00,0x00,0x00,0x00,0x00,
 0x00,0x00,0x00,0x00,0x00,0x00,0x10,0x20,0x00,0x00,0x00,0x00,0x00,0x00,0x00,
 0x00,0x20,0x00,0x00,0x00,0x80,0x00,0x00,0x00,0x00,0x00,0x00,0x00,0x00,0x00};
