#define noname_width 130
#define noname_height 225
static char noname_bits[] = {
 0xaa,0xaa,0xaa,0xaa,0xaa,0xaa,0xaa,0xd6,0xb6,0xaa,0x6a,0xb5,0xaa,0xaa,0xaa,
 0x56,0x01,0x55,0x55,0x55,0x55,0x55,0x55,0x55,0x55,0x55,0x55,0x55,0x4d,0xd5,
 0xaa,0xaa,0xaa,0x02,0xaa,0xaa,0xaa,0xaa,0xaa,0xaa,0xaa,0xaa,0xaa,0xaa,0xaa,
 0xaa,0xaa,0xaa,0xaa,0x5a,0x01,0x55,0x55,0x55,0x55,0x55,0xd5,0xaa,0x55,0x55,
 0xad,0xaa,0xaa,0xaa,0xaa,0xaa,0xaa,0x02,0xaa,0xaa,0xaa,0xaa,0xaa,0xaa,0x5a,
 0xaa,0xaa,0xaa,0x55,0x55,0x55,0x55,0x55,0x55,0x01,0x55,0x55,0x55,0x55,0x55,
 0x55,0x55,0xab,0xaa,0xaa,0xaa,0xaa,0xaa,0xaa,0xaa,0xaa,0x02,0xaa,0xaa,0xaa,
 0xaa,0xaa,0xaa,0xaa,0x54,0x55,0x55,0x55,0x55,0x55,0x55,0x55,0x55,0x01,0xaa,
 0x54,0x55,0x55,0x55,0x55,0x55,0xab,0xaa,0xaa,0xaa,0xaa,0xad,0xaa,0xaa,0xaa,
 0x02,0x95,0x4a,0xaa,0xaa,0xaa,0xaa,0xaa,0x54,0x55,0x55,0x55,0x55,0xd5,0x5a,
 0x55,0x55,0x01,0x52,0x55,0xa5,0xaa,0xaa,0xaa,0xaa,0x56,0x55,0x55,0x55,0x55,
 0x55,0xa5,0xaa,0xaa,0x02,0xaa,0x54,0x29,0xa5,0xaa,0xaa,0xaa,0xa8,0xaa,0xaa,
 0xaa,0xaa,0x2a,0x55,0x55,0x49,0x02,0x25,0x25,0x55,0x55,0x55,0x55,0xa5,0x56,
 0x55,0x92,0x52,0x55,0xa9,0xaa,0x2a,0x55,0x01,0x54,0x4a,0x55,0x4a,0xa2,0x24,
 0x55,0x49,0xfd,0x6d,0x4a,0x4a,0x55,0x55,0xa4,0xaa,0x02,0x4a,0x55,0x49,0xa9,
 0x2a,0x55,0x95,0xaa,0x56,0xab,0xaa,0x52,0x4a,0xa9,0xaa,0x24,0x01,0x29,0x29,
 0x95,0x52,0x55,0xa9,0x54,0xd2,0xfd,0xff,0x95,0xa4,0x94,0xa2,0x92,0x4a,0x02,
 0x54,0x95,0xaa,0xaa,0x54,0x95,0x52,0x55,0xff,0xb6,0x56,0x95,0x52,0x5a,0xaa,
 0x52,0x01,0x25,0xa9,0xa4,0x54,0xa9,0x2a,0x95,0xfa,0x6d,0xdf,0xaf,0xaa,0x4a,
 0x89,0x24,0x55,0x01,0x52,0xa5,0xaa,0x2a,0x55,0x52,0x55,0x55,0xff,0xf7,0x5b,
 0x92,0x54,0x65,0x55,0x29,0x01,0x55,0x4a,0x4a,0xa5,0x92,0xaa,0xaa,0xfe,0x57,
 0xbd,0xfe,0x54,0x49,0x8a,0x92,0x44,0x02,0x48,0x55,0x55,0xa9,0xaa,0xaa,0x52,
 0xd7,0xfd,0xef,0xaf,0x2a,0xa5,0xb2,0x54,0x55,0x01,0x95,0xaa,0x94,0x4a,0xaa,
 0x24,0x55,0xfd,0x7f,0x3f,0xd0,0x92,0x2a,0xa5,0x92,0x54,0x02,0x55,0x91,0xaa,
 0x54,0x55,0x55,0x55,0xff,0xdb,0xf7,0x6d,0x49,0xa9,0x2a,0x55,0x25,0x01,0xa4,
 0x2a,0x29,0x95,0x92,0xaa,0xd2,0xdf,0xfe,0xbf,0x90,0x2a,0x25,0x49,0x52,0xaa,
 0x02,0x52,0x54,0xa5,0xaa,0xaa,0xaa,0x54,0xfd,0xff,0x7d,0x4a,0xa5,0x94,0xaa,
 0x4a,0x49,0x01,0x95,0x52,0x4a,0x51,0x52,0x49,0xd5,0xf7,0xff,0xef,0x28,0x4a,
 0xa9,0x54,0xa9,0x92,0x00,0xa9,0x4a,0x55,0xad,0x4a,0xaa,0xaa,0xbf,0xbf,0x7f,
 0x95,0x51,0x55,0x92,0x54,0x6a,0x02,0x52,0x55,0xa9,0x92,0x54,0x55,0xe9,0xff,
 0xed,0xbd,0x24,0x96,0xa4,0x2a,0x45,0x89,0x02,0x4a,0x2a,0x95,0x54,0x55,0x95,
 0xaa,0xfd,0xff,0xdf,0x55,0x49,0x2a,0x49,0xa9,0x54,0x01,0xaa,0xa4,0xaa,0xaa,
 0x4a,0xa9,0xea,0xff,0xdf,0x6e,0xaa,0xaa,0x52,0x55,0x95,0x92,0x02,0x92,0x52,
 0x49,0x25,0xa9,0xaa,0x54,0xdf,0xf7,0x7b,0x55,0x95,0x94,0xa4,0x54,0x55,0x01,
 0x08,0x04,0x12,0x48,0x22,0x04,0xd1,0xff,0x9e,0xae,0x7a,0xa1,0xa2,0x4a,0xa9,
 0x24,0x02,0xa2,0x52,0xa5,0x92,0x94,0x52,0xaa,0xfe,0xef,0x5b,0xad,0x2a,0x29,
 0x29,0x25,0x95,0x01,0x44,0x24,0x48,0x4a,0x22,0xa9,0xc4,0xff,0x5d,0xb5,0xb2,
 0x88,0x44,0x44,0x44,0x20,0x02,0x11,0x11,0x25,0x21,0x49,0x0a,0xa9,0xff,0xef,
 0x5e,0x6d,0x25,0x29,0x29,0xa9,0xaa,0x00,0x44,0x44,0x90,0x84,0x24,0xa1,0x44,
 0xdf,0xb5,0xa9,0x92,0x80,0x84,0x44,0x02,0x02,0x01,0x29,0x92,0x0a,0x29,0x49,
 0x2a,0xa9,0xff,0xdf,0x6e,0xad,0x2a,0x21,0x22,0xa9,0xa8,0x00,0x40,0x21,0x50,
 0x24,0x92,0x90,0x40,0xfa,0x6d,0xb5,0xdb,0x15,0x94,0x88,0x40,0x02,0x01,0x2a,
 0x88,0x0a,0x49,0x49,0x4a,0x94,0xfe,0xbb,0xdb,0x6a,0xa5,0x22,0x25,0x2a,0xa9,
 0x00,0x80,0x12,0xa4,0x24,0x22,0x21,0x25,0xfd,0x6f,0xad,0xad,0x0a,0x84,0x90,
 0x88,0x04,0x02,0x55,0xa4,0x12,0x88,0x94,0x14,0x91,0x74,0xdb,0x76,0x6b,0x53,
 0x29,0x4a,0x52,0xa8,0x00,0x80,0x10,0x48,0x25,0x21,0xa2,0x24,0xd9,0xef,0xdb,
 0xde,0x0a,0x42,0x20,0x89,0x42,0x01,0x55,0x4a,0x25,0x41,0x4a,0x49,0x92,0xf4,
 0xbb,0x76,0x6b,0xa5,0x94,0x4a,0x42,0x28,0x00,0x00,0x21,0x92,0x94,0x08,0x12,
 0x49,0xa2,0xf7,0xdd,0xd5,0x12,0x20,0x10,0x14,0x41,0x01,0x54,0x8a,0x08,0x49,
 0x52,0x49,0x92,0xd4,0x5d,0x77,0xfb,0x8a,0x8a,0x8a,0x42,0x2a,0x00,0x02,0x10,
 0x51,0x24,0x89,0x24,0x49,0x12,0xf7,0xde,0xaf,0x25,0x10,0x24,0x14,0x41,0x01,
 0xa8,0x4a,0x0a,0x11,0x22,0x49,0x12,0xc9,0xad,0xf5,0xfa,0x8a,0x4a,0x89,0xa2,
 0x28,0x00,0x02,0x20,0x51,0xa2,0x48,0x24,0x48,0xa4,0x76,0xdf,0xbf,0x21,0x20,
 0x20,0x08,0x45,0x01,0x50,0x95,0x08,0x49,0x24,0x49,0x25,0xa9,0xdd,0xf5,0x7f,
 0x15,0x15,0x95,0xa2,0x10,0x00,0x02,0x00,0xa2,0x24,0x89,0x84,0x90,0xa4,0xb6,
 0xde,0xdb,0x42,0x40,0x20,0x04,0xa2,0x02,0x54,0x55,0x29,0x90,0x24,0x29,0x25,
 0xa2,0xd5,0xf5,0xff,0x2a,0x2a,0x15,0xa9,0x14,0x00,0x02,0x02,0x84,0x4a,0x92,
 0x20,0x44,0x49,0x6d,0xaf,0x7f,0x81,0x80,0x48,0x04,0x42,0x01,0xa8,0xa8,0x22,
 0x81,0x48,0x4a,0x29,0x52,0xd5,0xfa,0x76,0x55,0x2a,0x12,0x51,0x51,0x00,0x42,
 0x22,0x94,0x14,0x05,0x11,0x41,0x54,0x55,0xd7,0x4d,0x00,0x41,0x40,0x22,0x82,
 0x02,0x90,0x94,0x42,0xa4,0xa8,0xa4,0x94,0xa2,0xaa,0xf5,0xb6,0xaa,0x28,0x95,
 0x94,0x54,0x00,0x22,0x42,0x28,0x11,0x41,0x12,0x49,0xfa,0x5f,0x2d,0x01,0x04,
 0x82,0x48,0x40,0x80,0x00,0x88,0x10,0x85,0x48,0x2a,0x49,0x92,0xf4,0x7f,0xdb,
 0xa8,0x52,0x55,0x12,0x2a,0x2a,0x01,0x12,0x4a,0x28,0x92,0x84,0x24,0x49,0xfe,
 0xff,0x36,0x05,0x09,0x00,0xa1,0x84,0x10,0x00,0x44,0x21,0x85,0x24,0x29,0x49,
 0x92,0xfa,0x7f,0x5b,0x51,0xa2,0xaa,0x14,0x22,0x45,0x01,0x28,0x84,0x28,0x89,
 0x44,0x24,0x49,0xff,0xf7,0x27,0x82,0x48,0x10,0x42,0x49,0x28,0x02,0x85,0x52,
 0x44,0x22,0x21,0x49,0x92,0xfa,0xff,0xbb,0x54,0x92,0x4a,0x51,0x24,0x85,0x00,
 0x10,0x04,0x11,0x49,0x94,0x24,0xa1,0xdf,0xff,0x4f,0x20,0x44,0x20,0x8a,0x10,
 0x28,0x02,0xa4,0x52,0x4a,0x24,0x25,0x49,0x94,0xfe,0xbd,0x3f,0x15,0x11,0x4a,
 0x21,0x45,0x85,0x00,0x02,0x88,0x20,0x91,0x90,0x24,0x69,0xff,0xff,0xff,0x40,
 0xa2,0x10,0x84,0x88,0x48,0x02,0x50,0x25,0x4a,0x4a,0x24,0x89,0x84,0x7f,0xef,
 0x7f,0x95,0x08,0x45,0x29,0x52,0x92,0x00,0x02,0x90,0x10,0x21,0x89,0x50,0xf2,
 0xff,0xff,0xfd,0x40,0x22,0x24,0x42,0x00,0x01,0x02,0x54,0x25,0x8a,0x48,0x52,
 0x8a,0x88,0xff,0xbf,0xff,0x15,0x48,0x89,0x94,0xaa,0xa8,0x00,0x00,0x42,0x51,
 0x12,0x09,0x51,0xea,0xdf,0xff,0x7f,0xa1,0x02,0x10,0x41,0x10,0x05,0x01,0xaa,
 0x28,0x88,0xa4,0xa4,0x14,0xf2,0xff,0xff,0xef,0x08,0x50,0xa5,0x28,0x8a,0x50,
 0x00,0x00,0x41,0x25,0x12,0x11,0xa1,0xfc,0xff,0xff,0xfe,0x53,0x05,0x01,0x82,
 0x50,0x82,0x02,0xaa,0x14,0x42,0x89,0xa4,0x14,0xe9,0xff,0xdf,0xff,0x04,0xa8,
 0xa8,0x54,0x8a,0x54,0x00,0x00,0xa2,0x28,0x24,0x09,0x49,0xf6,0xff,0xff,0xf7,
 0xa3,0x00,0x02,0x01,0x21,0x00,0x01,0xaa,0x10,0x0a,0x91,0xa4,0x24,0xf9,0xff,
 0xfe,0xff,0x0b,0xaa,0x54,0x54,0x94,0xaa,0x00,0x00,0xa5,0xa0,0x44,0x12,0x91,
 0xfe,0xff,0xff,0xdf,0x26,0x01,0x82,0x20,0x41,0x00,0x02,0xaa,0x10,0x14,0x29,
 0x49,0x4a,0xfd,0xf7,0xff,0xfb,0x47,0xa8,0x28,0x8a,0x28,0xaa,0x00,0x00,0x4a,
 0x21,0x80,0x24,0xa1,0xfe,0xff,0xff,0xff,0x0d,0x01,0x82,0x10,0x82,0x00,0x02,
 0x54,0x11,0x4a,0x55,0x48,0x14,0xff,0xff,0xbf,0xbf,0x57,0xaa,0x28,0x45,0x29,
 0xa9,0x00,0x02,0xa2,0x10,0x82,0x22,0xe1,0xfe,0xff,0xff,0xff,0x0f,0x00,0x81,
 0x08,0x84,0x04,0x02,0xa0,0x14,0x8a,0x54,0x94,0x14,0xff,0xff,0xff,0xff,0x5f,
 0x55,0x2a,0x52,0x51,0xa0,0x00,0x0a,0x40,0x20,0x20,0x41,0xa2,0xff,0xff,0xfd,
 0x77,0x1f,0x02,0x40,0x00,0x02,0x05,0x02,0x41,0x95,0x4a,0x95,0x94,0x54,0xff,
 0xff,0xff,0xff,0x77,0x51,0x15,0x55,0xa9,0xa8,0x00,0x14,0x40,0x24,0x22,0x49,
 0xa2,0xff,0xee,0xff,0xff,0x5f,0x04,0x20,0x00,0x04,0x02,0x02,0x41,0x15,0x11,
 0x49,0x24,0xa9,0xff,0xff,0xff,0xff,0xbe,0x48,0x15,0x55,0x51,0xa9,0x00,0x04,
 0x22,0xa2,0x24,0x89,0xd0,0xfd,0xff,0x7f,0xff,0x7f,0x22,0xa0,0x00,0x02,0x80,
 0x00,0xa8,0x48,0x09,0x89,0x24,0xa5,0xff,0xff,0xff,0xff,0xdf,0x88,0x0a,0xaa,
 0xa8,0x2a,0x01,0x82,0x04,0x52,0x24,0x92,0xe8,0xdf,0xff,0xff,0xdf,0xfb,0x02,
 0x90,0x40,0x02,0x40,0x00,0x20,0x51,0x09,0x91,0x24,0x45,0xff,0xff,0xff,0xff,
 0x7f,0x51,0x45,0x14,0x51,0x15,0x01,0x0a,0x04,0xa2,0x44,0x92,0xe8,0xff,0xff,
 0xfd,0xff,0xff,0x04,0x08,0x21,0x04,0x20,0x00,0x41,0xa9,0x28,0x92,0x24,0xa5,
 0xff,0xff,0xff,0xff,0xfb,0x89,0x52,0x4a,0xa9,0x0a,0x01,0x14,0x40,0x82,0x48,
 0x12,0xe8,0xff,0xff,0xff,0xfd,0x5f,0x21,0x00,0x01,0x02,0x51,0x00,0x42,0x95,
 0x54,0x92,0xa4,0x4a,0xff,0xff,0xff,0xff,0xff,0x0a,0x55,0x54,0x51,0x04,0x01,
 0x08,0x20,0x82,0x44,0x10,0xd1,0xff,0xff,0xff,0x7f,0xff,0x51,0x80,0x00,0x82,
 0x28,0x00,0x52,0x95,0x28,0x11,0xa5,0xd4,0xff,0xff,0xff,0xff,0xff,0x05,0x29,
 0xaa,0x28,0x42,0x01,0x00,0x40,0x42,0x24,0x12,0xd2,0xff,0xff,0xff,0xff,0xef,
 0x21,0x84,0x00,0x91,0x08,0x00,0x54,0x95,0x28,0x92,0x48,0xa9,0xff,0xff,0xff,
 0xff,0x7f,0x0b,0x41,0x54,0x0a,0x52,0x01,0x02,0x00,0x42,0x49,0x22,0xf2,0xfe,
 0xff,0xfd,0xbf,0xff,0x25,0x14,0x81,0xa0,0x00,0x00,0x48,0x55,0x29,0x24,0x49,
 0xc9,0xff,0xff,0xff,0xfe,0xff,0x03,0x41,0x54,0x14,0x54,0x01,0x04,0x08,0x42,
 0x91,0x24,0xfa,0xff,0xff,0xff,0xff,0xff,0x2a,0x0a,0x01,0x41,0x01,0x02,0xa1,
 0xa2,0x28,0x24,0x49,0xa5,0xff,0xef,0xff,0xff,0xf7,0x83,0x40,0x54,0x2a,0xa8,
 0x00,0x04,0x14,0x45,0x89,0x84,0xdc,0xff,0xff,0xff,0xf7,0xfe,0x4b,0x0a,0x81,
 0x80,0x02,0x01,0xa8,0x82,0x10,0x52,0x52,0xea,0xff,0xff,0xff,0xff,0xff,0x06,
 0xa0,0x50,0x54,0xa8,0x00,0x02,0x54,0xa2,0x08,0x49,0xfd,0xff,0xfe,0xff,0xff,
 0xff,0x2b,0x02,0x0a,0x01,0x01,0x02,0xa0,0x02,0x14,0xa2,0x24,0xf5,0xff,0xff,
 0xbf,0xff,0xff,0x87,0x50,0x41,0x54,0xaa,0x00,0x0a,0xa8,0xa0,0x04,0x92,0xfe,
 0xff,0xff,0xff,0xff,0xef,0x0b,0x05,0x14,0x01,0x00,0x02,0x40,0x05,0x15,0xa9,
 0xa4,0xfa,0xff,0xff,0xff,0xff,0xff,0x47,0x90,0x42,0xa8,0xaa,0x00,0x0a,0x50,
 0x20,0x92,0x08,0xed,0xff,0xff,0xff,0x7b,0xff,0x07,0x41,0x08,0x01,0x00,0x01,
 0xa0,0x0a,0x95,0x24,0xa5,0xfa,0xff,0xff,0xff,0xff,0xff,0x4f,0x14,0xa2,0x54,
 0x55,0x00,0x02,0x20,0x40,0x88,0x10,0xa4,0xff,0xff,0xff,0xff,0xbb,0x97,0x40,
 0x08,0x02,0x80,0x00,0x50,0x95,0x2a,0x25,0xa5,0xd2,0xfd,0xff,0xff,0xff,0xff,
 0x0f,0x92,0x82,0xa8,0x2a,0x01,0x0a,0x40,0x84,0x10,0x94,0xb4,0xea,0xff,0xff,
 0xfb,0xff,0x17,0x09,0x54,0x02,0x01,0x00,0x40,0x15,0x51,0xa4,0x22,0xc9,0x76,
 0xff,0xff,0xff,0xff,0x4f,0x40,0x01,0x50,0x54,0x01,0x0a,0x20,0x82,0x42,0x84,
 0x74,0xc9,0xfe,0xff,0xbf,0xf7,0x0f,0x09,0x4a,0x85,0x00,0x02,0x40,0x95,0x54,
 0x94,0x52,0xc2,0x56,0xff,0xff,0xff,0xff,0x5d,0x90,0x20,0x20,0xaa,0x00,0x2a,
 0x40,0x00,0x21,0x24,0xb9,0x92,0xfc,0xff,0xff,0xff,0x2f,0x42,0x82,0x4a,0x00,
 0x02,0x00,0x15,0x55,0x4a,0x49,0xca,0x4a,0xff,0xff,0xff,0xff,0x9f,0x10,0x50,
 0x10,0xaa,0x00,0x2a,0x20,0x24,0x11,0x22,0xb1,0x25,0xe8,0xff,0xff,0xef,0x5f,
 0x44,0x05,0x41,0x01,0x02,0x80,0x4a,0x89,0x48,0x49,0xd4,0x92,0xfe,0xff,0xff,
 0x7f,0x3f,0x11,0x50,0x2a,0xa8,0x00,0x4a,0x10,0x21,0x12,0x92,0xd2,0x2d,0xf0,
 0xff,0x7f,0xff,0x3f,0x40,0x01,0x41,0x01,0x02,0x10,0x45,0x94,0xa4,0x24,0xa9,
 0x56,0xd5,0xff,0xff,0xff,0x7f,0x2a,0x54,0x14,0xaa,0x00,0x22,0x88,0x20,0x11,
 0x11,0xa4,0x95,0xa8,0xff,0xff,0xff,0xbb,0x80,0x80,0x20,0x00,0x02,0x88,0x52,
 0x8a,0x44,0x4a,0xc9,0x55,0xd2,0xff,0xff,0xff,0x7f,0x24,0x2a,0x8a,0xaa,0x00,
 0x22,0x08,0x11,0x09,0x91,0x54,0xab,0xa2,0xfe,0xff,0xf7,0x7f,0x81,0x80,0x20,
 0x00,0x01,0x88,0xa2,0x48,0x52,0x4a,0xa2,0x55,0x91,0xff,0xff,0x7f,0x7f,0x28,
 0x29,0x48,0x55,0x00,0x22,0x08,0x22,0x48,0x90,0xd4,0xab,0x4a,0xff,0xff,0xff,
 0xbf,0x00,0x40,0x05,0x80,0x00,0x88,0xa2,0x94,0x92,0x4a,0xd2,0x56,0xa2,0xfe,
 0xff,0xff,0x7f,0xaa,0x2a,0xa0,0x2a,0x01,0x10,0x84,0x40,0x44,0x24,0xa9,0x57,
 0x15,0xff,0xfd,0xff,0xbf,0x00,0x80,0x04,0x04,0x00,0x45,0x29,0x2a,0x29,0x49,
 0xc2,0xb7,0x8a,0xfa,0xff,0xff,0xfb,0x48,0x2a,0x51,0x51,0x01,0x08,0x40,0x80,
 0x44,0x92,0x94,0xae,0x54,0xfe,0xff,0xff,0xbf,0x00,0x01,0x04,0x02,0x00,0x42,
 0x95,0x2a,0x91,0x44,0xa2,0x5b,0x15,0xf9,0xff,0x7f,0xff,0x54,0x50,0x51,0x51,
 0x01,0x08,0x40,0x48,0x44,0x28,0x09,0xb6,0xaa,0xf4,0xff,0xff,0x3f,0x80,0x02,
 0x04,0x04,0x00,0xa2,0x2a,0x12,0x29,0x45,0x52,0x59,0x25,0xf4,0xff,0xff,0x7f,
 0x25,0x48,0x49,0x51,0x01,0x08,0x80,0x48,0x84,0x88,0x88,0x6a,0xd5,0xe8,0xff,
 0xff,0x0f,0x90,0x04,0x20,0x04,0x00,0xa2,0x2a,0x85,0x52,0x52,0x52,0xb4,0x2a,
 0xd2,0xff,0xff,0x7f,0x05,0xa1,0x0a,0x51,0x01,0x08,0x20,0x50,0x88,0x84,0x84,
 0xf4,0xaa,0xa2,0xff,0xff,0x1f,0x29,0x04,0x50,0x04,0x02,0x85,0x8a,0x0a,0x25,
 0x52,0x52,0xb2,0x55,0x49,0xff,0xff,0xbf,0xa4,0x52,0x05,0xa1,0x00,0x50,0x48,
 0x50,0x90,0x24,0x89,0xf4,0x55,0x95,0xfe,0xff,0x7f,0x5b,0x05,0x28,0x0a,0x00,
 0x04,0x12,0x0a,0x4a,0x92,0x24,0xe9,0x57,0x45,0xff,0xff,0xbf,0xad,0xa2,0x82,
 0x40,0x01,0x52,0xa0,0x50,0x11,0x49,0x92,0xf4,0x4f,0x15,0xfa,0xfb,0xef,0xb6,
 0x0d,0x48,0x12,0x00,0x80,0x0a,0x8a,0x48,0x12,0x49,0xf4,0xb7,0x52,0xfd,0xff,
 0xbe,0x6f,0x55,0x12,0x44,0x01,0x0a,0x24,0x21,0x22,0x21,0x92,0xfa,0x5f,0x15,
 0xf4,0xff,0xff,0xbe,0x17,0x40,0x00,0x00,0xa0,0x42,0x14,0x49,0x48,0x49,0xfc,
 0x3f,0x55,0xf5,0xff,0xbf,0xeb,0x0d,0x15,0x2a,0x01,0x02,0x08,0xa1,0x24,0x25,
 0x22,0xfd,0xff,0x2a,0xc8,0xff,0xf7,0xbe,0x5a,0x40,0x80,0x00,0x50,0xa5,0x14,
 0x49,0x92,0x94,0xfa,0xff,0x54,0xe9,0xff,0xbf,0xff,0x97,0x14,0x29,0x00,0x02,
 0x10,0x40,0x04,0x49,0x22,0xfd,0xff,0xab,0x02,0xf5,0xfb,0x55,0x55,0x40,0x84,
 0x00,0x54,0x45,0x15,0x51,0x22,0x49,0xfe,0xff,0x95,0xd4,0xfe,0x6f,0xff,0x2e,
 0x14,0x11,0x01,0x00,0x10,0x48,0x24,0x89,0x24,0xfd,0xff,0x6f,0x09,0xa0,0xde,
 0x6d,0xab,0x40,0x40,0x00,0xaa,0x8a,0x12,0x49,0x52,0x92,0xfa,0xff,0x9f,0xa6,
 0xba,0x57,0xdb,0x55,0x94,0x14,0x00,0x00,0x20,0x48,0x12,0x09,0x49,0xfe,0xff,
 0x7f,0x15,0x40,0xbd,0x56,0x8a,0x02,0x42,0x01,0x52,0x95,0x92,0xa4,0x50,0x12,
 0xfd,0xff,0x5f,0x95,0x44,0x57,0xb5,0x55,0xa0,0x10,0x00,0x08,0x40,0x08,0x01,
 0x85,0xa4,0xfe,0xff,0x7f,0x55,0x10,0xad,0x94,0x24,0x05,0x49,0x02,0x82,0x2a,
 0xa5,0xa8,0x50,0x12,0xfa,0xff,0xff,0x2a,0x85,0x5a,0xaa,0x92,0x50,0x82,0x00,
 0x14,0x80,0x00,0x45,0x8a,0x48,0xfd,0xff,0xff,0xab,0x12,0xa5,0x10,0x04,0x82,
 0x28,0x02,0xa1,0x2a,0xaa,0x90,0x24,0xa5,0xfa,0xff,0xff,0x55,0x89,0x74,0xa5,
 0xa2,0x28,0x82,0x00,0x04,0x44,0x10,0x25,0x92,0x08,0xfa,0xbf,0xff,0xaf,0xaa,
 0x8a,0x10,0x14,0x42,0x08,0x00,0x50,0x91,0x4a,0x92,0x44,0xa4,0xfa,0xff,0xff,
 0x57,0x55,0x6a,0x85,0x82,0x14,0x45,0x01,0x02,0x22,0x20,0x49,0x92,0x12,0xfa,
 0xff,0xff,0x57,0xa5,0x92,0x12,0x28,0x20,0x10,0x00,0xa8,0x14,0x95,0x24,0x49,
 0xa4,0xfa,0xff,0xff,0x6f,0x55,0xd5,0x42,0x85,0x8a,0x4a,0x01,0x02,0xa0,0x48,
 0x92,0x24,0x89,0xfc,0xff,0xff,0x9f,0xaa,0xaa,0x07,0x10,0x20,0x00,0x00,0xa0,
 0x0a,0x24,0x21,0x91,0x52,0xd2,0xff,0xff,0xbf,0xaa,0xea,0x4d,0x45,0x8a,0x54,
 0x01,0x0a,0x50,0x89,0x94,0x24,0x84,0xf4,0xff,0xff,0xff,0xaa,0x5a,0x1f,0x00,
 0x20,0x02,0x00,0x90,0x0a,0x52,0x04,0x49,0x29,0xe9,0xff,0xff,0xbf,0xb5,0xd5,
 0x17,0xa9,0x8a,0x20,0x01,0x42,0xa0,0x84,0x52,0x12,0x45,0xd2,0xff,0xff,0xfe,
 0x57,0xf7,0x3f,0x00,0x20,0x12,0x00,0x10,0x15,0x51,0x90,0xa4,0xa8,0xf4,0xff,
 0xff,0xff,0xda,0x5a,0x5f,0x4a,0x09,0x44,0x01,0x42,0x40,0x04,0x25,0x12,0x01,
 0xd1,0xff,0xff,0xff,0x6f,0xff,0x3f,0x00,0xa0,0x00,0x00,0x10,0x14,0x51,0x89,
 0x44,0xaa,0xd4,0xff,0xff,0xff,0xdb,0xdb,0x5d,0x48,0x0a,0x28,0x01,0x00,0x00,
 0x04,0x20,0x10,0x01,0xc0,0xff,0xff,0xff,0x7f,0xff,0x7f,0x04,0x20,0x41,0x00,
 0x92,0x44,0x41,0x0a,0x45,0xa8,0xaa,0xff,0xff,0xff,0xdf,0x7b,0x7f,0x90,0x4a,
 0x14,0x01,0x24,0x29,0xaa,0xa8,0x10,0x05,0x44,0xff,0xff,0xbf,0xff,0xdf,0xff,
 0x00,0x00,0x00,0x00,0x55,0x45,0x29,0x45,0x44,0xa9,0xa9,0xff,0xff,0xff,0xfb,
 0xff,0xbf,0x04,0x00,0x42,0x00,0x55,0xb5,0xd6,0xb6,0x29,0x5a,0x6b,0xff,0xff,
 0xff,0xff,0x7e,0xfb,0xb3,0x5a,0xa9,0x02,0xad,0xaa,0xaa,0x5a,0x44,0xd5,0xaa,
 0xfe,0xff,0xff,0xff,0xef,0xff,0x4a,0xa5,0x14,0x00,0xaa,0xaa,0x5a,0x65,0x9b,
 0xa0,0xfe,0xfb,0xf7,0xff,0xff,0xff,0xff,0xab,0xaa,0xea,0x01,0xb5,0x5a,0xad,
 0xaa,0x2a,0x55,0xdb,0xfe,0xff,0xff,0xdf,0xff,0xee,0x57,0x55,0x2b,0x02,0x55,
 0x55,0x15,0x40,0x55,0xa8,0xff,0xff,0xff,0xfe,0xff,0xdd,0x7f,0xab,0xaa,0xd4,
 0x01,0x56,0x55,0x2b,0xa8,0x2a,0x45,0xff,0xfd,0xff,0xff,0xff,0xff,0xfe,0x57,
 0x55,0x55,0x02,0xd5,0x5a,0x15,0x02,0x40,0xd4,0xfe,0xff,0xff,0xff,0xff,0xff,
 0xff,0x56,0xaa,0xaa,0x02,0x2a,0xab,0x0d,0x10,0x2a,0xa9,0xff,0xff,0xff,0xff,
 0xfe,0xff,0xef,0x4b,0x55,0x55,0x01,0xaa,0x54,0x52,0x01,0x80,0xea,0xff,0xff,
 0xfd,0xff,0xff,0xb7,0xfd,0xaf,0xaa,0x4a,0x01,0x55,0xab,0x55,0x00,0x40,0xb4,
 0xff,0xff,0xff,0xff,0xff,0xff,0xff,0x57,0x55,0xb5,0x02,0x00,0x00,0x90,0x00,
 0x00,0xc0,0xff,0xff,0xff,0xfb,0xdf,0xff,0xbf,0xaf,0xaa,0xca,0x02,0x00,0x00,
 0x50,0x0a,0x20,0xa9,0xff,0xff,0x7f,0xff,0xff,0x7f,0xf7,0x5f,0x55,0x55,0x01,
 0x10,0x92,0x8a,0xe8,0x16,0xc0,0xff,0xff,0xff,0xff,0xff,0xfd,0xff,0x17,0x00,
 0x00,0x00,0x84,0x44,0x54,0x25,0x81,0x52,0xff,0xff,0xff,0x77,0xff,0xff,0xfd,
 0x0f,0x00,0x00,0x00,0x10,0x10,0x21,0xa8,0x5e,0xd4,0xff,0xdf,0xdb,0xff,0xef,
 0xdf,0xef,0x3f,0x42,0x24,0x02,0x45,0x45,0x14,0xd5,0x52,0xe5,0xff,0xff,0xff,
 0xff,0xff,0xff,0xff,0x9f,0x28,0x89,0x00,0x00,0x00,0x41,0xa0,0xaa,0xf5,0xff,
 0xff,0xff,0xef,0xfe,0xfd,0xfb,0x1f,0x00,0x00,0x00,0x50,0x52,0x14,0x55,0x55,
 0xea,0xff,0xff,0xfe,0xfd,0xff,0xff,0xff,0x3f,0x00,0x40,0x00,0x8a,0x88,0x00,
 0x48,0xab,0xf5,0xff,0xfe,0xf7,0xff,0xff,0xbf,0xdf,0x3e,0x02,0x02,0x01,0x21,
 0x22,0x55,0x55,0x55,0xf5,0xff,0xff,0xbf,0xff,0xdf,0xff,0xfd,0x7f,0x90,0x10,
 0x00,0x84,0x08,0x42,0xaa,0xda,0x76,0xff,0xef,0xff,0xf7,0xfb,0xff,0xef,0x5f,
 0x00,0x00,0x00,0x21,0xa2,0x94,0xaa,0xaa,0xea,0xff,0xff,0xff,0xff,0xff,0xf7,
 0xff,0x7f,0x00,0x48,0x01,0x84,0x08,0xa8,0xaa,0x25,0xf4,0xff,0xff,0xff,0xbf,
 0x7f,0xff,0x7f,0xff,0x22,0x01,0x00,0x20,0x42,0x45,0xd5,0x96,0xd2,0xdf,0xff,
 0xbf,0xff,0xff,0xff,0xee,0xff,0x08,0x00,0x00,0x12,0x08,0xa8,0x6a,0x01,0xa8,
 0xff,0xff,0xff,0xff,0xff,0xff,0xff,0x3f,0x00,0x48,0x00,0x00,0xa1,0x52,0xb5,
 0xa5,0xd2,0xff,0xff,0xfd,0xf7,0xfd,0xdf,0xff,0xff,0x40,0x02,0x01,0x24,0x00,
 0x54,0xad,0x00,0xe4,0xff,0xff,0xff,0xff,0xef,0xfd,0xdd,0x5e,0x04,0x10,0x00,
 0x00,0x14,0x50,0xb5,0x2a,0xa9,0xff,0xff,0xdf,0xbf,0xff,0xff,0xff,0x7f,0x90,
 0x02,0x00,0x88,0x80,0xaa,0x56,0x00,0x80,0xfe,0xfe,0xff,0xff,0xff,0xff,0xff,
 0x0f,0x01,0x08,0x00,0x22,0x22,0x50,0xad,0x92,0xaa,0xff,0xff,0xff,0xff,0xff,
 0xbf,0xbf,0x1f,0x48,0x82,0x00,0x00,0x00,0xa5,0x6b,0x6b,0x55,0xfe,0xff,0xff,
 0xff,0xfb,0xff,0xfd,0x23,0x00,0x00,0x00,0x00,0x48,0xd4,0xad,0x95,0xaa,0xf5,
 0xff,0xff,0xfd,0x7f,0xff,0xef,0x8f,0x04,0x20,0x00,0x4a,0x02,0x55,0xd3,0x5e,
 0x92,0xea,0xff,0xff,0xff,0xff,0xff,0x7f,0x29,0x20,0x80,0x00,0x00,0x20,0xa8,
 0x57,0x57,0x55,0xa9,0xff,0xff,0xff,0xff,0xdf,0xff,0x0b,0x00,0x09,0x00,0x80,
 0x80,0x46,0x05,0x00,0x20,0x4a,0xff,0xfe,0xff,0xff,0xff,0xff,0x04,0x00,0x00,
 0x00,0x20,0x08,0xa8,0x56,0x55,0x4d,0xa5,0xfa,0xff,0xdf,0xfb,0xff,0xfb,0x03,
 0x02,0x00,0x00,0x04,0x00,0x2a,0xa9,0x24,0x10,0x48,0xf5,0xff,0xff,0x7f,0xff,
 0xbf,0x00,0x00,0x80,0x00,0x00,0x00,0x54,0x55,0x92,0x4a,0x2b,0xfd,0xff,0xff,
 0xff,0xbf,0xff,0x10,0x00,0x00,0x00,0x20,0x91,0xb8,0xed,0xaa,0xaa,0xea,0xf6,
 0xff,0xff,0xff,0xf7,0x5f,0x00,0x00,0x00,0x00,0x00,0x00,0x55,0x55,0x55,0x55,
 0xad,0xbd,0xfd,0xff,0xff,0xff,0x7f,0x00,0x00,0x00,0x00,0x04,0x00,0x40,0x10,
 0x00,0x48,0x75,0xef,0xff,0xff,0xfd,0xff,0x9f,0x2a,0x20,0x02,0x00,0x00,0x04,
 0x20,0xa5,0x5a,0xa5,0xaa,0xfb,0xef,0xfd,0xef,0xff,0x7b,0x02,0x00,0x20,0x00,
 0x00,0x00,0x08,0x00,0x00,0x00,0x10,0x84,0x94,0xd6,0xff,0x7f,0x97,0x48,0x00,
 0x00,0x00,0x40,0x80,0x00,0x00,0x01,0x00,0x4a,0xb5,0xaa,0x7a,0xff,0xee,0x6f,
 0x05,0x10,0x00,0x00,0x00,0x00,0x20,0x01,0x24,0x11,0x20,0x00,0x51,0x82,0x80,
 0x10,0x00,0x10,0x81,0x88,0x00,0x04,0x08,0x04,0x40,0x00,0x80,0x8a,0xaa,0x08,
 0x29,0x6d,0x8d,0x90,0x24,0x00,0x00,0x00,0x80,0x40,0x00,0x02,0x12,0x02,0x20,
 0x00,0x22,0x04,0x02,0x20,0x42,0x00,0x00,0x00,0x00,0x10,0x00,0x90,0x10,0x80,
 0x20,0x09,0xaa,0x48,0xa1,0x50,0x8a,0x14,0x15,0x08,0x22,0x00,0x00,0x00,0x00,
 0x00,0x00,0x00,0x40,0x00,0x00,0x08,0x04,0x00,0x00,0x80,0x00,0x00,0x00,0x00,
 0x00,0x00,0x00,0x00,0x00,0x00,0x00,0x12,0x02,0x81,0x44,0x22,0x01,0x00,0x00,
 0x00,0x00,0x00,0x00,0x02,0x10,0x02,0x12,0x09,0x00,0x40,0x00,0x00,0x00,0x00,
 0x00,0x00,0x00,0x00,0x00,0x04,0x10,0x01,0x40,0x00,0x80,0x80,0x00,0x20,0x00,
 0x00,0x00,0x40,0x00,0x00,0x00,0x92,0x20,0x00,0x00,0x00,0x80,0x10,0x24,0x24,
 0x09,0x89,0x10,0x24,0x00,0x00,0x00,0x20,0x00,0x00,0x01,0x00,0x00,0x12,0x02,
 0x00,0x00,0x00,0x00,0x00,0x00,0x00,0x00,0x00,0x00,0x00,0x00,0x00,0x80,0x88,
 0x00,0x40,0x40,0x00,0x00,0x00,0x80,0x00,0x00,0x00,0x00,0x00,0x00,0x00,0x00,
 0x00,0x00,0x00,0x00,0x09,0x49,0x40,0x22,0x11,0x00,0x00,0x00,0x00,0x00,0x00,
 0x00,0x00,0x00,0x00,0x00,0x00,0x00,0x00,0x04,0x00,0x00,0x00,0x04,0x08,0x00};
