#define noname_width 185
#define noname_height 175
static char noname_bits[] = {
 0x22,0x22,0x29,0x21,0x20,0xa0,0x84,0x08,0x41,0x24,0x84,0x04,0x84,0x08,0x24,
 0x41,0x04,0x10,0x40,0x00,0x02,0x22,0x02,0x00,0x48,0x49,0x44,0x4a,0x55,0x15,
 0x29,0x45,0x2a,0x92,0x52,0xb2,0x52,0x52,0x49,0x2a,0x51,0x45,0x95,0xaa,0xa8,
 0x88,0xa0,0x00,0x12,0x12,0x11,0x09,0x89,0x48,0xa4,0x28,0x41,0x49,0x24,0x89,
 0x24,0x49,0x22,0x90,0x84,0x08,0x08,0x10,0x01,0x11,0x15,0x00,0x48,0x49,0x4a,
 0x52,0x52,0x92,0x12,0x42,0x2a,0x12,0x49,0x52,0x92,0x92,0x14,0x25,0x29,0x52,
 0x45,0x45,0x54,0xa4,0x80,0x00,0x22,0x92,0x90,0x88,0x88,0x44,0xa4,0x94,0x48,
 0xa4,0x24,0x89,0x48,0x48,0xa0,0x04,0xa2,0x80,0x28,0x12,0x21,0x01,0x2a,0x00,
 0x54,0x49,0x4a,0x52,0x52,0x92,0x12,0x42,0x92,0x12,0x49,0x52,0x92,0x92,0x2a,
 0x52,0x11,0x54,0x84,0x48,0x4a,0x54,0x81,0x00,0x02,0x22,0x91,0x84,0x84,0x48,
 0x48,0x29,0x21,0x44,0x22,0x81,0x24,0x42,0x84,0x88,0xa4,0x82,0x28,0x21,0x00,
 0x01,0x14,0x00,0xa9,0x94,0x24,0x29,0x29,0x25,0xa5,0x14,0x4a,0x29,0x49,0x2a,
 0x49,0x29,0x29,0x25,0x49,0x28,0x45,0x0a,0x55,0xa8,0xa2,0x00,0x24,0x21,0x49,
 0x44,0xa4,0x88,0x10,0x42,0x08,0x41,0x24,0x49,0x22,0x92,0x44,0x10,0x22,0x45,
 0x10,0x51,0x80,0x02,0x08,0x00,0x49,0x4a,0x92,0x92,0x12,0x52,0x8a,0xa8,0x52,
 0x2a,0x49,0x92,0x94,0x24,0x91,0x4a,0x89,0x28,0x4a,0x04,0x55,0xa8,0x82,0x00,
 0x84,0x88,0x24,0x24,0x44,0x09,0x51,0x01,0x85,0x48,0x92,0x24,0x21,0x89,0x24,
 0x22,0x12,0x41,0x21,0x51,0x00,0x01,0x14,0x01,0x29,0x25,0x49,0x49,0xa9,0x44,
 0x0a,0xaa,0x50,0x92,0x24,0x91,0x94,0x24,0x49,0x49,0x49,0x2a,0x48,0x88,0xaa,
 0x54,0x41,0x00,0x44,0x48,0x24,0x22,0x02,0x92,0x50,0x24,0x2a,0x00,0x00,0x44,
 0x22,0x49,0x22,0x24,0x24,0x90,0x22,0x25,0x00,0x02,0x12,0x01,0x92,0x92,0x12,
 0x89,0x54,0x51,0x8a,0x92,0x44,0x55,0x55,0x29,0x49,0x92,0x94,0x12,0x41,0x25,
 0x14,0x80,0xaa,0xa8,0x44,0x00,0x24,0x22,0x44,0x54,0xa2,0xbe,0x25,0x08,0xb9,
 0x6f,0x55,0x05,0x04,0x09,0x42,0x48,0x0a,0x82,0x40,0x15,0x10,0x01,0x08,0x01,
 0x49,0x49,0xa9,0x82,0xa8,0xdb,0x12,0x45,0xd2,0x5a,0xdb,0x52,0xa1,0xa0,0x28,
 0x12,0xa1,0x54,0x2a,0x40,0x45,0x54,0x45,0x00,0x24,0x12,0x02,0x29,0xf6,0xad,
 0x6d,0x50,0xff,0xff,0xff,0xbf,0x5f,0x42,0x41,0x41,0x14,0x00,0x41,0x15,0x08,
 0x01,0x10,0x01,0x12,0x49,0xa9,0x48,0xf9,0x77,0x2b,0x8a,0x7d,0xfb,0xb6,0xee,
 0x2a,0x15,0x2a,0x2a,0x42,0x55,0x14,0x80,0xa2,0xa4,0x4a,0x00,0x48,0x24,0x44,
 0xa2,0x7f,0xdd,0xee,0xd0,0xff,0xef,0xff,0xff,0xff,0x07,0x80,0x40,0x09,0x20,
 0xa1,0x2a,0x04,0x10,0x80,0x00,0x92,0x92,0x92,0x94,0xfe,0xb7,0xb5,0xca,0xff,
 0xff,0xff,0x7f,0xfb,0x56,0x29,0x2a,0xa0,0x4a,0x14,0x40,0x51,0x85,0x2a,0x00,
 0x44,0x48,0x44,0xa2,0xff,0xfe,0xab,0x02,0xbf,0x5b,0xdb,0xeb,0xdf,0x7f,0x05,
 0x80,0x0a,0x04,0x41,0x05,0x04,0x48,0x80,0x00,0x92,0x12,0x29,0x48,0xbf,0x6f,
 0x6d,0x45,0xfd,0xff,0xff,0xff,0xff,0xdb,0x45,0x55,0xa0,0xa2,0x28,0xa8,0xa2,
 0x12,0x2a,0x00,0x24,0xa2,0x44,0xa5,0xff,0xbd,0x9b,0x00,0xff,0xee,0xff,0xdf,
 0xdd,0x7e,0x3f,0x01,0x05,0x08,0x82,0x02,0x08,0xa0,0x40,0x01,0x89,0x14,0x29,
 0xa2,0xf7,0xf7,0x6e,0x8a,0xfc,0xff,0x77,0xff,0xff,0xdf,0xbf,0x44,0x50,0x45,
 0x51,0xa8,0xa2,0x0a,0x14,0x00,0x24,0x21,0x42,0xe8,0xbf,0xff,0xab,0x25,0xbf,
 0x7f,0xff,0xfd,0xf7,0xfd,0xf6,0x9f,0x04,0x10,0x04,0x01,0x04,0x50,0xa1,0x00,
 0x49,0x94,0x94,0xaa,0xff,0xb7,0xdd,0x02,0xfd,0xed,0xff,0xff,0x7e,0xdf,0xdf,
 0x56,0x41,0x25,0x49,0xa8,0xa2,0x0a,0x08,0x00,0x24,0x21,0x49,0xf4,0xff,0xfe,
 0x77,0x5f,0x7e,0x02,0xdd,0xf7,0xff,0xfb,0xff,0xff,0x17,0x80,0x20,0x01,0x08,
 0xa0,0xa2,0x00,0x42,0x4a,0x22,0xd5,0xff,0x6f,0xdd,0x25,0x7d,0x41,0xff,0xfe,
 0xff,0xff,0xfb,0xfd,0x95,0x20,0x08,0xaa,0x42,0x15,0x10,0x00,0x14,0x91,0x88,
 0xe8,0xff,0xff,0x77,0xdf,0x02,0x00,0xf4,0xff,0xef,0xef,0xdf,0xdf,0x7f,0x0b,
 0x22,0x00,0x14,0x40,0x45,0x00,0xa2,0x24,0x25,0xf5,0xff,0xdf,0xde,0xbf,0x04,
 0x00,0xfc,0xff,0xff,0x7f,0xff,0xff,0xfb,0x82,0x40,0x55,0x81,0x2a,0x90,0x00,
 0x04,0x89,0x48,0xfc,0xef,0xfe,0xbb,0x0a,0x00,0x40,0xfa,0xdd,0xff,0xfe,0x7b,
 0x7f,0xef,0xbf,0x0a,0x00,0x14,0x80,0x02,0x00,0x52,0x52,0x92,0xd2,0xff,0xff,
 0x6f,0x17,0x00,0x80,0xf4,0xff,0xff,0xff,0xff,0xf7,0xbf,0x5d,0x21,0x92,0x82,
 0x52,0xa8,0x00,0x24,0x09,0x09,0xf4,0xff,0x5b,0xbd,0x00,0x00,0x48,0xfb,0xff,
 0xfb,0xf7,0xdf,0xff,0xff,0xff,0x5f,0x00,0x28,0x08,0x01,0x00,0x49,0x42,0x52,
 0xf5,0xff,0xff,0xdf,0x02,0x40,0x21,0xfa,0xff,0xff,0xff,0xfd,0xff,0xff,0xff,
 0x3f,0x49,0x42,0x02,0xa4,0x00,0x22,0x29,0x09,0xd0,0xff,0xff,0x15,0x40,0x2a,
 0xd5,0xfa,0x7f,0xff,0xff,0xff,0xdd,0xff,0xb7,0xf5,0x17,0x00,0xa8,0x00,0x00,
 0x48,0x84,0xa4,0xea,0x7f,0x7f,0x3f,0x08,0x91,0x24,0xed,0xff,0xff,0xff,0xff,
 0xff,0xfd,0xfe,0xff,0x0a,0x90,0x02,0xa8,0x00,0x12,0x51,0x48,0xe4,0xff,0xdb,
 0x01,0xa0,0x76,0xdb,0xfe,0xff,0xfb,0xdf,0xef,0xff,0xef,0x77,0xb7,0xff,0x04,
 0xa8,0x02,0x00,0x44,0x0a,0x25,0xa9,0xff,0xff,0x05,0x90,0x94,0x6a,0xfb,0xff,
 0xff,0xff,0xff,0xf7,0xff,0xfe,0xfd,0xff,0x40,0x02,0x90,0x00,0x29,0x50,0x88,
 0xe4,0xfb,0x17,0x80,0xaa,0x6a,0x55,0xff,0xdf,0x7e,0xff,0x7d,0xff,0xbf,0xef,
 0xef,0xda,0x07,0x40,0x02,0x00,0x84,0x0a,0x25,0xd1,0xff,0x2f,0x20,0xa0,0xaa,
 0xaa,0xff,0xff,0xfb,0xff,0xff,0xff,0xef,0x7b,0xfb,0x7f,0x95,0x14,0xa8,0x00,
 0x52,0xa4,0x90,0x40,0x7f,0x00,0xc4,0xaf,0x55,0xfd,0xff,0xff,0xff,0xff,0xff,
 0x7f,0xfd,0xff,0x5f,0xf7,0x0f,0x40,0x00,0x00,0x88,0x12,0x24,0x92,0xff,0x03,
 0x50,0xa8,0x5a,0xd5,0xff,0xff,0xff,0xff,0xfe,0xff,0xff,0xde,0xfd,0xbd,0x3d,
 0x10,0x4a,0x00,0x22,0x48,0x89,0x04,0x04,0x40,0xab,0x57,0xa5,0xff,0xff,0xff,
 0xff,0xff,0xf7,0xff,0xb7,0xff,0xff,0xef,0xf7,0x40,0x00,0x01,0x49,0x45,0x44,
 0x02,0x14,0x90,0xa8,0xb4,0xaa,0xfe,0xf7,0xfe,0xff,0xff,0xff,0xef,0xfe,0x77,
 0x6f,0xff,0xbd,0x08,0x52,0x00,0x24,0x28,0x91,0x2d,0x80,0xaa,0x57,0x4b,0xf5,
 0xff,0xff,0xff,0xff,0xfb,0xff,0xfe,0xff,0xff,0xfb,0xdd,0xff,0x21,0x00,0x00,
 0x12,0x45,0x4a,0x16,0x00,0xa8,0xb4,0xaa,0xda,0xff,0xff,0xef,0xff,0xbf,0xff,
 0xff,0xbb,0xed,0xff,0x7f,0xed,0x09,0x92,0x00,0x48,0x12,0xa1,0xdf,0xff,0x2b,
 0x49,0x55,0xff,0xff,0xff,0xff,0xfe,0xff,0xff,0xb7,0xff,0x7f,0xdf,0xf7,0x7f,
 0x43,0x00,0x00,0x92,0x48,0x14,0x6d,0x22,0x54,0xa5,0xea,0xfd,0xff,0xff,0xff,
 0xff,0xff,0x77,0xff,0xff,0xff,0xfb,0xfe,0xf7,0x11,0xaa,0x00,0x44,0x22,0xa1,
 0xbf,0xda,0xd5,0xbe,0xff,0xff,0xff,0xff,0xff,0xff,0xff,0xff,0xbf,0xb5,0xff,
 0xff,0xdf,0xde,0x43,0x00,0x00,0x12,0x91,0x48,0x7d,0x55,0x2a,0xef,0xff,0xff,
 0xff,0xbf,0xff,0x7f,0xff,0xff,0xfb,0xff,0xdf,0xff,0xfb,0xff,0x07,0x20,0x00,
 0x48,0x4a,0x12,0xfe,0x4a,0xf1,0xff,0xff,0x1f,0xdd,0xfb,0xff,0xf7,0xf7,0xff,
 0xff,0xff,0xfe,0xdd,0xbf,0xfb,0x4b,0x82,0x00,0x22,0x81,0xa4,0x5a,0x55,0xca,
 0xff,0xff,0x7f,0xff,0xff,0xff,0xff,0xff,0xdf,0x7f,0xdf,0xfb,0xff,0xff,0xdf,
 0x07,0x28,0x00,0x8a,0x14,0x02,0xb5,0x15,0x68,0xad,0xd4,0x0f,0xfc,0xff,0xff,
 0xff,0xff,0xff,0xff,0xff,0xff,0xbf,0xf7,0xff,0x8f,0x00,0x00,0x21,0xa2,0xa8,
 0xe8,0xaa,0xea,0xff,0x6b,0x3f,0xfd,0xff,0xff,0xff,0xff,0xfb,0xff,0xff,0xbf,
 0xf7,0x7f,0xf7,0x17,0x88,0x00,0x94,0x88,0x02,0xa5,0x55,0xb4,0x12,0x10,0x80,
 0xf4,0xff,0xef,0xff,0x7f,0xff,0xfd,0xff,0xff,0xff,0xfd,0xbf,0x4f,0x21,0x00,
 0x22,0x52,0xa8,0xd0,0x96,0xea,0xad,0x8a,0x2a,0xfd,0xff,0xff,0xff,0xff,0xff,
 0xef,0xf7,0xff,0xff,0xff,0xff,0x0f,0x08,0x00,0x44,0x09,0x25,0xee,0x25,0xbd,
 0x02,0x20,0x80,0xf8,0xff,0xff,0xff,0xef,0xef,0xff,0xff,0xdd,0xfd,0xff,0xfd,
 0x17,0xa0,0x00,0x29,0xa2,0x50,0x71,0x55,0xd5,0x55,0x95,0x2a,0xea,0xff,0xff,
 0xff,0xff,0xff,0xff,0xff,0xff,0x7f,0xdf,0xdf,0x8f,0x0a,0x00,0x84,0x08,0x05,
 0x96,0xaa,0x6a,0x02,0x20,0x44,0x50,0xff,0xff,0xff,0x7d,0xff,0xff,0xff,0xff,
 0xff,0xff,0xff,0x17,0x00,0x01,0x51,0xa4,0xaa,0x54,0xa9,0x7d,0xa9,0x8a,0x12,
 0xa5,0xff,0xff,0xff,0xff,0xfd,0xfe,0xff,0xff,0xff,0xff,0xff,0x0f,0x48,0x00,
 0x84,0x12,0xa4,0x6b,0xb7,0x16,0x40,0x24,0xa0,0x84,0xfc,0xff,0xff,0xef,0xdf,
 0xff,0xde,0xfb,0xf7,0xfd,0xfa,0x46,0x00,0x00,0x52,0xa4,0x12,0xb5,0xda,0x2b,
 0x15,0x09,0x15,0x28,0xfa,0xff,0xff,0xff,0xff,0xff,0xff,0xbf,0xff,0xef,0xff,
 0x07,0xaa,0x00,0x24,0x01,0xed,0x6a,0xab,0xa6,0x20,0x50,0xa0,0x42,0xf4,0xff,
 0x77,0xff,0xff,0xf7,0xff,0xff,0xbf,0xff,0xdf,0x83,0x00,0x00,0x89,0x54,0x52,
 0xbd,0xfd,0x1a,0x48,0x85,0x4a,0x10,0xf5,0xff,0xff,0xff,0xff,0xff,0xff,0xff,
 0xff,0xff,0xff,0x2b,0x40,0x00,0x24,0xa2,0xdd,0xab,0x4a,0x41,0x05,0x12,0x84,
 0x4a,0xd0,0xff,0xff,0xff,0xff,0xff,0xbf,0xff,0xfd,0xbf,0xfd,0x01,0x05,0x01,
 0x92,0x54,0xb6,0x6a,0xb7,0x2a,0xa0,0x48,0x51,0x10,0xea,0xff,0xff,0xf7,0xee,
 0xff,0xff,0xff,0xff,0xff,0xff,0x43,0x20,0x00,0x48,0x80,0x6a,0xab,0x08,0x81,
 0x0a,0x21,0x82,0x42,0x81,0xff,0xff,0xff,0xff,0xff,0xfe,0xfb,0xdf,0xfb,0xbf,
 0x00,0x88,0x00,0x12,0x55,0xa9,0x2d,0x55,0x2a,0xa1,0x94,0x54,0x28,0x54,0xff,
 0xff,0xff,0xff,0xff,0xff,0xff,0xff,0xff,0x7d,0x40,0x02,0x00,0x44,0x00,0x04,
 0x80,0x20,0x20,0x14,0x21,0x08,0x85,0x20,0xfc,0xff,0xff,0xff,0xdf,0xf7,0xbf,
 0xff,0xee,0x17,0x14,0x28,0x01,0x92,0xaa,0xa2,0x2a,0x8a,0x4a,0x45,0x94,0xa2,
 0x50,0x8a,0xf6,0xff,0xff,0xff,0xfe,0x7f,0xff,0xfb,0xbf,0x2f,0x01,0x42,0x00,
 0x48,0x44,0x08,0xa0,0x10,0x11,0x90,0x40,0x14,0x02,0x11,0xfc,0xff,0xbf,0xff,
 0xff,0xff,0xff,0xff,0xff,0x02,0x20,0x08,0x00,0x12,0x29,0x52,0x15,0xa4,0x44,
 0x25,0x2a,0x42,0xa9,0xa4,0xfa,0xff,0xff,0xff,0xff,0xff,0xff,0xbf,0xfd,0x43,
 0x8a,0x82,0x00,0x44,0x44,0x09,0xa2,0x12,0x12,0x92,0x90,0x08,0x04,0x80,0xff,
 0xff,0xff,0xff,0xff,0xff,0xdb,0xfb,0x17,0x10,0x20,0x28,0x00,0x29,0x91,0x44,
 0x49,0x88,0x88,0x24,0x45,0x52,0x51,0x55,0xfe,0xff,0xff,0xff,0xff,0xfe,0xff,
 0xff,0x5f,0x00,0x09,0x82,0x00,0x84,0x44,0x10,0x84,0x22,0x21,0x80,0x88,0x08,
 0x02,0xa0,0xff,0xff,0xfe,0xff,0xfd,0xef,0xff,0xef,0x01,0x22,0x40,0x08,0x00,
 0x22,0x29,0xa5,0x52,0x48,0x4a,0x55,0x24,0x42,0xa9,0xca,0xff,0xff,0xff,0xdf,
 0xef,0xff,0xff,0xfd,0x87,0x08,0x12,0xa2,0x00,0x94,0x80,0x88,0x08,0x25,0x10,
 0x02,0x91,0x14,0x04,0xf8,0xff,0xff,0xff,0xfe,0xff,0x7f,0xdf,0x3f,0x00,0xa0,
 0x40,0x08,0x00,0x22,0x54,0x52,0xa2,0x88,0x8a,0x54,0x4a,0x42,0x51,0xf5,0xff,
 0xff,0xff,0xff,0xff,0xff,0xff,0xff,0x40,0x0a,0x90,0x92,0x00,0x88,0x22,0x09,
 0x09,0x21,0x50,0x80,0x20,0x09,0x05,0xfe,0xff,0xff,0xff,0xff,0xff,0xff,0xfb,
 0x07,0x12,0x40,0x05,0x00,0x00,0x45,0x14,0x42,0xa2,0x94,0x0a,0x55,0x14,0xa4,
 0x50,0xfd,0xff,0xff,0xff,0xff,0xff,0xef,0xff,0x2f,0x00,0x11,0x20,0xa9,0x00,
 0x28,0xa1,0x28,0x04,0x22,0x22,0x20,0x41,0x11,0x82,0xfe,0xff,0xff,0xff,0xff,
 0xdf,0xfe,0x7f,0x01,0x49,0x44,0x82,0x00,0x00,0x45,0x14,0x04,0x51,0x49,0x49,
 0x15,0x94,0x88,0x28,0xff,0xff,0xff,0xfd,0xbf,0xff,0xff,0xff,0x04,0x00,0x81,
 0x28,0x94,0x00,0x10,0xa1,0x52,0x0a,0x04,0x24,0x44,0x49,0x22,0xc2,0xff,0xff,
 0xff,0xff,0xfe,0xfb,0xff,0x17,0x90,0x12,0x14,0x82,0x40,0x00,0x8a,0x14,0x24,
 0x51,0x51,0x89,0x22,0x12,0x49,0x11,0xff,0xff,0xff,0xff,0xff,0xff,0x7f,0x2f,
 0x02,0x44,0x81,0x28,0x12,0x00,0x24,0xa2,0x88,0x84,0x04,0x22,0x94,0x40,0x04,
 0xa4,0xff,0xff,0xff,0xff,0xff,0xff,0xff,0x83,0x90,0x00,0x24,0x80,0x48,0x01,
 0x49,0x49,0x22,0x21,0xa9,0x88,0x22,0x2a,0x51,0x49,0xff,0xff,0xff,0xff,0xff,
 0xff,0xff,0x0b,0x04,0x90,0x08,0x2a,0x02,0x00,0x24,0x82,0x14,0x8a,0x84,0x22,
 0x88,0x80,0x04,0x80,0xff,0xff,0xff,0xff,0x7f,0xff,0x7e,0x00,0x90,0x04,0xa2,
 0x80,0x48,0x00,0x11,0x29,0x42,0x21,0x51,0x10,0x45,0x2a,0xa1,0xaa,0xfe,0xff,
 0xff,0xff,0xff,0xff,0xdf,0x49,0x22,0xa0,0x00,0x24,0x10,0x00,0xa4,0xa4,0x14,
 0x4a,0x04,0xa5,0x10,0x11,0x0a,0x40,0xff,0xff,0xef,0xff,0xf7,0xdf,0x17,0x20,
 0x80,0x12,0x4a,0x82,0x42,0x01,0x12,0x11,0x42,0x11,0x52,0x11,0x4a,0x44,0x41,
 0x95,0xff,0xff,0xff,0x7f,0xff,0xff,0x1f,0x04,0x29,0x84,0x80,0x28,0x10,0x00,
 0x44,0xa2,0x28,0x4a,0x09,0x44,0x20,0x11,0x14,0x42,0xff,0xff,0xff,0xfb,0xff,
 0xff,0x8f,0x10,0x80,0x10,0x12,0x82,0x44,0x00,0x91,0x14,0x12,0x21,0xa0,0x92,
 0x8a,0x88,0xa2,0x90,0xff,0xff,0xff,0xff,0xff,0xfd,0x0f,0x80,0x24,0x84,0x80,
 0x20,0x91,0x00,0x24,0xa0,0x44,0x44,0x05,0x08,0x50,0x22,0x08,0x42,0xff,0xff,
 0xff,0xff,0xff,0xff,0x0f,0x05,0x02,0x11,0x4a,0x0a,0x04,0x00,0x92,0x4a,0x92,
 0x12,0x52,0xa5,0x0a,0x94,0x92,0x28,0xff,0xff,0xff,0xff,0xff,0xff,0x1f,0xa0,
 0x48,0x80,0x10,0x20,0xa1,0x00,0x44,0x88,0x48,0x48,0x48,0x00,0x50,0x41,0x40,
 0x82,0xfe,0xff,0xff,0xff,0xff,0xff,0x0f,0x01,0x00,0x15,0x42,0x82,0x04,0x00,
 0x29,0x25,0x12,0x25,0x25,0xaa,0x0a,0x14,0x95,0xa8,0xfe,0xff,0xff,0xff,0xff,
 0xff,0x2f,0x28,0x52,0x80,0x88,0x28,0x90,0x00,0x84,0x48,0x40,0x90,0x90,0x10,
 0xa2,0x20,0x08,0x02,0xff,0xff,0xff,0xd7,0xbf,0xdf,0x17,0x80,0x00,0x49,0x20,
 0x80,0x44,0x00,0x51,0x92,0x2a,0x25,0x0a,0x4a,0x11,0x4a,0x45,0x51,0xfd,0xff,
 0xfe,0xff,0xff,0xff,0x0f,0x12,0x48,0x10,0x09,0x2a,0x11,0x00,0x04,0x09,0x81,
 0x90,0xa0,0x20,0xa4,0x10,0x10,0x84,0xfe,0xff,0xff,0xf0,0xff,0xff,0x43,0x40,
 0x22,0x02,0x44,0x00,0x40,0x00,0x52,0xa2,0x54,0x44,0x14,0x15,0x09,0x8a,0x8a,
 0x22,0xfe,0xff,0xff,0x53,0xff,0xff,0x0f,0x12,0x80,0x48,0x11,0x49,0x15,0x00,
 0x24,0x09,0x81,0x12,0x21,0x40,0x52,0x50,0x20,0x94,0xfe,0xff,0xef,0xe8,0xff,
 0xff,0x03,0x40,0x09,0x02,0x40,0x04,0x40,0x00,0x49,0xa4,0x54,0x44,0x4a,0x95,
 0x04,0x05,0x4a,0x81,0xfa,0xff,0xff,0xf0,0xff,0xff,0xa7,0x14,0x90,0x20,0x15,
 0x41,0x92,0x00,0x84,0x10,0x12,0x29,0x09,0x20,0x50,0xa8,0x20,0x14,0xfd,0xff,
 0xff,0xe9,0xff,0xff,0x01,0x80,0x04,0x8a,0x40,0x14,0x00,0x00,0x29,0x8a,0x44,
 0x02,0xa2,0x8a,0x0a,0x05,0x8a,0x42,0xfe,0xff,0xff,0xf0,0xff,0xff,0x45,0x22,
 0xa0,0x20,0x12,0x81,0xaa,0x00,0xa0,0x50,0x90,0xa8,0x08,0x11,0x50,0xa8,0x20,
 0x08,0xf9,0xff,0xff,0xfd,0xff,0xff,0x01,0x88,0x04,0x02,0x08,0x14,0x00,0x00,
 0x15,0x0a,0x25,0x12,0x52,0xa4,0x0a,0x05,0x8a,0x52,0xfc,0xff,0xff,0xe9,0xff,
 0xff,0x49,0x02,0x90,0xa8,0x42,0x81,0x92,0x00,0x48,0x51,0x44,0x44,0x81,0x40,
 0x20,0x50,0x20,0x08,0xf5,0xff,0xff,0xfa,0xf7,0xfe,0x00,0x90,0x02,0x00,0x08,
 0x14,0x48,0x00,0x25,0x8a,0x92,0x22,0x28,0x15,0x95,0x0a,0x8a,0x42,0xfa,0xff,
 0xff,0xfd,0xff,0xf7,0x21,0x04,0x48,0x55,0x22,0x81,0x02,0x00,0x90,0x10,0x08,
 0x94,0x42,0x48,0x40,0xa0,0x10,0x24,0xfc,0xff,0xff,0xff,0xff,0x7f,0x84,0x20,
 0x01,0x00,0x81,0x14,0xa8,0x00,0x25,0x4a,0xa5,0x42,0x28,0x22,0x15,0x15,0x45,
 0x89,0xf2,0xff,0xff,0xff,0xff,0xff,0x10,0x44,0x20,0x49,0x28,0x80,0x02,0x00,
 0x88,0x20,0x08,0x09,0x85,0x84,0x20,0x20,0x08,0x20,0xf4,0xef,0xff,0xff,0xff,
 0x3f,0x80,0x00,0x05,0x20,0x82,0x12,0x94,0x00,0x25,0x95,0xa2,0x50,0x21,0x29,
 0x8a,0x8a,0x52,0x15,0xf9,0xff,0xff,0xf7,0xff,0xff,0x24,0x48,0xa0,0x8a,0x24,
 0x40,0x21,0x00,0x88,0x40,0x04,0x05,0x0a,0x80,0x10,0x10,0x01,0x40,0xe4,0xff,
 0xff,0xff,0xff,0x1f,0x00,0x01,0x02,0x00,0x90,0x14,0x84,0x00,0x22,0x2a,0xa9,
 0xa0,0x50,0x55,0x44,0xa5,0xa8,0x2a,0xf9,0xff,0xff,0xff,0xf7,0x3f,0x48,0x90,
 0x48,0x52,0x05,0x01,0x21,0x00,0x88,0x80,0x04,0x15,0x45,0x80,0x92,0x08,0x25,
 0x91,0xe4,0xff,0xdf,0xff,0xff,0x9f,0x02,0x02,0x00,0x08,0x10,0x24,0x84,0x00,
 0x25,0x2a,0xa1,0x80,0x10,0x55,0x48,0x52,0x49,0x0a,0xf1,0xff,0xff,0xff,0xff,
 0x1f,0x90,0xa4,0xaa,0x82,0x24,0x09,0x21,0x00,0x40,0x00,0x04,0x0a,0x42,0x00,
 0x01,0x00,0x00,0x20,0xe4,0xff,0xff,0xff,0xff,0x87,0x00,0x00,0x00,0x08,0x80,
 0x20,0x04,0x01,0x14,0x55,0x91,0xa0,0x10,0x49,0x28,0x25,0x55,0x09,0xd1,0xff,
 0xff,0xf7,0xff,0x1f,0x54,0x29,0x95,0x42,0x25,0x08,0x49,0x00,0x6b,0x55,0xad,
 0x2a,0x55,0xaa,0x52,0x92,0x88,0xa4,0xe4,0xff,0xff,0xff,0xff,0x03,0x00,0x00,
 0x00,0x08,0x00,0x41,0x00,0x00,0xaa,0xaa,0x52,0xaa,0x4a,0x55,0x0a,0x29,0x25,
 0x29,0xd1,0xff,0x7f,0xff,0xff,0x17,0x01,0x24,0x21,0x21,0x49,0x12,0x90,0x00,
 0xd5,0x5a,0xad,0x55,0xb5,0xaa,0xf5,0xf6,0xde,0xf6,0x7e,0x7f,0xff,0xff,0xf7,
 0xd7,0xfe,0xdb,0xde,0x6e,0x5b,0xd5,0xab,0x00,0x55,0xab,0xaa,0xaa,0xaa,0xaa,
 0xaa,0x2a,0xb3,0x5b,0xd5,0xff,0xff,0xfd,0xff,0xaf,0x55,0xb5,0xaa,0xaa,0xaa,
 0x2a,0x54,0x01,0xaa,0x6a,0x5b,0xad,0x55,0xab,0x56,0xd5,0x6a,0xd5,0xed,0xff,
 0xf7,0xb7,0xff,0xfb,0xfe,0xff,0x6d,0xd5,0xaa,0xd6,0x55,0x01,0x6d,0xad,0xaa,
 0xb5,0x5a,0xd5,0xaa,0x5a,0xb5,0xbd,0xb6,0xff,0xff,0xff,0xff,0xaf,0xab,0xd6,
 0xb6,0xb6,0xb6,0x55,0xad,0x00,0x55,0xd5,0xb6,0xaa,0xaa,0xaa,0xb6,0x55,0xab,
 0xaa,0xea,0xff,0xff,0xf7,0xff,0x7e,0xf7,0xbb,0x55,0xa9,0xaa,0x5a,0x6b,0x01,
 0x55,0x6b,0xd5,0x56,0xab,0xb5,0xda,0xaa,0xac,0x6a,0xab,0xfb,0xff,0x5f,0xfb,
 0xd7,0xba,0x7e,0xab,0xae,0x55,0x6b,0x55,0x01,0xed,0x56,0xab,0xda,0x5a,0x55,
 0x55,0x5b,0x53,0x55,0xd5,0xff,0xff,0xff,0xaf,0xfe,0xd7,0xd5,0x6a,0xa9,0xaa,
 0xaa,0xda,0x00,0xaa,0x5a,0x6d,0xad,0xaa,0xd6,0x56,0x55,0xb5,0xad,0x6a,0xff,
 0xff,0xaf,0xf6,0xab,0x7a,0xb7,0xad,0x56,0x5b,0xd5,0x56,0x01,0x12,0x51,0x92,
 0xaa,0x6a,0xad,0xb5,0xf6,0x6e,0xdb,0xd6,0x7e,0xff,0xff,0x5b,0xff,0xef,0xfd,
 0xda,0xba,0xb6,0xad,0xed,0x00,0xa4,0x94,0x6a,0xb5,0x55,0xb3,0x5a,0xab,0xaa,
 0x6a,0xb5,0xff,0xff,0xdb,0xfe,0x6d,0x7b,0x5f,0x57,0xab,0xd5,0xda,0x5a,0x01,
 0x00,0x00,0x00,0x00,0x00,0x00,0x00,0x00,0x00,0x00,0x00,0xfc,0xff,0xff,0x17,
 0x00,0x00,0x00,0x00,0x00,0x00,0x00,0x00,0x00,0x4a,0x02,0x00,0x00,0x00,0x00,
 0x00,0x00,0x00,0x00,0x00,0xfa,0xff,0xbf,0x3d,0x00,0x00,0x00,0x00,0x00,0x00,
 0x42,0x82,0x00,0x90,0x54,0x95,0x4a,0x55,0x92,0x24,0xaa,0x8a,0x24,0x49,0xfe,
 0xdf,0xff,0x0f,0x41,0x04,0x10,0x88,0xa4,0x92,0x08,0x09,0x00,0x25,0x91,0x20,
 0x51,0x24,0x25,0x89,0x12,0x45,0x48,0x92,0xf8,0xff,0xdf,0x3d,0x10,0xa1,0x84,
 0x22,0x08,0x20,0x40,0xa0,0x00,0x08,0x04,0x0a,0x00,0x00,0x00,0x00,0x48,0x10,
 0x00,0x00,0xfa,0xff,0x7b,0x0f,0x00,0x00,0x20,0x00,0x41,0x02,0x12,0x00,0x00,
 0x92,0xa2,0x80,0x14,0x09,0x90,0xa4,0x04,0x82,0x04,0x24,0xf8,0xff,0xff,0x3f,
 0x09,0x10,0x08,0x48,0x88,0x88,0x00,0x4a,0x00,0x40,0x08,0x12,0x42,0xa0,0x02,
 0x12,0x90,0x08,0x50,0x81,0xf6,0xff,0xff,0x0f,0x40,0x42,0x21,0x02,0x00,0x00,
 0x80,0x00,0x00,0x15,0xa4,0xa4,0x10,0x0a,0xa8,0x00,0x25,0x20,0x05,0x2a,0xf9,
 0xff,0xff,0x3d,0x12,0x10,0x80,0x00,0x21,0x44,0x14,0x00,0x00,0xa0,0x02,0x01,
 0x49,0xa0,0x00,0x4a,0x80,0x84,0xa8,0xdd,0xef,0xff,0xdf,0x4f,0x40,0x41,0x0a,
 0x24,0x84,0x10,0x21,0x55,0x01,0x15,0x50,0x54,0x02,0x0a,0x92,0x10,0x2a,0x21,
 0x40,0xea,0xfa,0xff,0x7f,0x1f,0x12,0x94,0x40,0x09,0x21,0x44,0x44,0x00,0x00,
 0x40,0x01,0x01,0x48,0x20,0x08,0xa1,0x00,0x84,0x02,0xa9,0xff,0xff,0xff,0x1b,
 0x40,0x00,0x0a,0x20,0x84,0x10,0x00,0x92,0x00,0x29,0x54,0x88,0x02,0x89,0x42,
 0x0a,0x44,0x21,0xa8,0xd4,0x7b,0xff,0xff,0x5f,0x15,0xa4,0x50,0x09,0x21,0x05,
 0x91,0x00,0x00,0x84,0x88,0x52,0x28,0x22,0x08,0x20,0x10,0x8a,0x02,0x00,0xfe,
 0xff,0x7f,0x0b,0x40,0x11,0x02,0x20,0x04,0x20,0x04,0x12,0x00,0x21,0xa5,0x08,
 0x92,0x08,0x22,0x89,0x8a,0x20,0x28,0x95,0xf6,0xff,0xfb,0x3f,0x11,0x84,0x48,
 0x0a,0x91,0x08,0x81,0x80,0x00,0x84,0x10,0xa2,0x44,0xa2,0x08,0x20,0x50,0x92,
 0x40,0x52,0x48,0x55,0xed,0x0e,0x00,0x00,0x00,0x20,0x00,0x42,0x08,0x0a,0x00,
 0x20,0x44,0x49,0x12,0x11,0x22,0x15,0x0a,0x04,0x95,0xa4,0xd6,0xff,0xb6,0x1f,
 0x40,0xa2,0xa4,0x84,0x94,0x10,0xa2,0xa0,0x00,0x12,0x01,0x00,0x48,0x6a,0x55,
 0xd5,0x55,0x29,0x24,0x55,0x7b,0x05,0xe9,0xab,0x0a,0x08,0x00,0x12,0x42,0x80,
 0x00,0x00,0x00,0x44,0x10,0x88,0x22,0x09,0x91,0x2a,0x42,0x92,0x92,0xaa,0x5d,
 0xbf,0x94,0x1f,0xa1,0x82,0x94,0x80,0x10,0x24,0x08,0x24,0x00,0x10,0x45,0x21,
 0x94,0x52,0xaa,0xa4,0x94,0xa4,0x54,0x48,0x52,0x55,0xe5,0x56,0x4d,0x2a,0x01,
 0x08,0x80,0x80,0x20,0x80,0x00,0x45,0x10,0x08,0x42,0x94,0x44,0x55,0x22,0x95,
 0x92,0xa6,0xad,0xaa,0xaa,0xbf,0x2a,0x89,0xa8,0x22,0x25,0x2a,0x09,0x12,0x00,
 0x00,0x40,0x22,0x29,0x21,0x29,0x82,0x5a,0xaa,0x6a,0x7d,0x93,0x5a,0x49,0x25,
 0xa9,0xaa,0x4a,0x84,0x00,0x00,0xa0,0x80,0x00,0x92,0x12,0x88,0x48,0x4a,0x8a,
 0x54,0x89,0x52,0x55,0xab,0xa5,0x6a,0xa5,0x5e,0x55,0x55,0xa5,0x2a,0xa8,0x12,
 0x09,0x24,0x00,0x08,0x40,0x21,0x01,0x00,0x20,0x00,0x64,0xad,0xaa,0x0a,0xa8,
 0xaa,0x0a,0xad,0x4a,0x49,0x2a,0xa9,0x02,0x48,0x00,0x00,0x00,0x42,0x0a,0x4a,
 0xaa,0x52,0x89,0x92,0x92,0xaa,0xaa,0xaa,0x54,0x55,0xd5,0x5e,0xa9,0xaa,0x52,
 0x95,0x54,0x05,0x4a,0x49,0x00,0x00,0x20,0x00,0x01,0x89,0x24,0x44,0x24,0x55,
 0x52,0x01,0x82,0xa8,0x12,0xb5,0x4a,0x52,0x25,0x51,0x00,0x50,0x10,0x04,0x00,
 0x00,0x00,0x52,0xa8,0x24,0x49,0x29,0x92,0x92,0xaa,0xa4,0x28,0x55,0xa5,0x5e,
 0x55,0x55,0x52,0x15,0x2a,0x05,0x05,0x01,0x00,0x24,0x02,0x00,0x01,0x92,0x80,
 0x52,0x25,0xa4,0x7e,0x93,0xaa,0x00,0x40,0xa5,0xaa,0x4a,0x25,0x40,0x41,0x50,
 0x50,0x24,0x00,0x01,0x20,0x00,0x88,0x20,0x2a,0x89,0x94,0x52,0xd2,0x2a,0x25,
 0x55,0x55,0x5b,0x92,0xa4,0x94,0x2a,0x14,0x05,0x04,0x89,0x00,0x48,0x08,0x11,
 0x20,0x85,0x40,0x54,0x09,0x00,0xb5,0xff,0xde,0x56,0x92,0xaa,0x54,0x10,0x00,
 0x80,0x20,0xa8,0x52,0x20,0x00,0x02,0x02,0x80,0x44,0x28,0x2a,0x92,0xa4,0xa8,
 0x68,0x57,0x6b,0x55,0xa9,0x2a,0x25,0x05,0x52,0x25,0x8a,0x12,0x08,0x15,0x00,
 0x00,0x00,0x04,0x00,0x00,0x00,0x00,0x00,0x82,0xd6,0xfd,0xdd,0xfe,0xf7,0x05,
 0x00,0x20,0x00,0x00,0x40,0x40,0x21,0x00,0x00,0x90,0x90,0x10,0x11,0x84,0x80,
 0x00,0x10,0x28,0xb1,0xbe,0x6b,0xab,0x5a,0xbb,0x48,0x08,0x89,0x48,0x12,0x12,
 0x88,0x40,0x00,0x00,0x00,0x40,0x44,0x01,0x12,0x00,0x01,0x00,0x44,0x42,0x94,
 0x90,0x24,0x00,0x00,0x00,0x20,0x00,0x00,0x80,0x00,0x04,0x00,0x00,0x02,0x12,
 0x01,0x40,0x00,0x22,0x80,0x00,0x32,0xa9,0xaa,0x4a,0x95,0x05,0x00,0x82,0x04,
 0x4a,0x24,0x11,0x02,0x00,0x00,0x24,0x20,0x00,0x94,0x14,0x04,0x00,0x00,0x90,
 0x48,0x42,0x52,0x24,0x20,0x04,0x00,0x00,0x00,0x00,0x00,0x00,0x20,0x10,0x00,
 0x00,0x00,0x91,0x00,0x00,0x91,0x08,0x04,0x00,0x92,0x94,0x24,0x11,0x95,0x12,
 0x00,0x00,0x40,0x00,0x01,0x00,0x00,0x41,0x00,0x00,0x01,0x00,0x80,0x00,0x00,
 0x40,0x90,0x12,0x00,0x01,0x00,0x00,0x00,0x00,0x00,0x00,0x00,0x00,0x00,0x04,
 0x00,0x00,0x00,0x00,0x10,0x00,0x10,0x48,0x00,0x02,0x02,0x84,0x54,0x20,0x01,
 0x00,0x00,0x24,0x00,0x40,0x04,0x08,0x40,0x80,0x00,0x00,0x00,0x00,0x00,0x00,
 0x00,0x00,0x00,0x00,0x00,0x20,0x00,0x01,0x10,0x00,0x00,0x00,0x11,0x11,0x80,
 0x00,0x08,0x00,0x08,0x08,0x00,0x00,0x00,0x00,0x00,0x00,0x20,0x40,0x24,0x01,
 0x20,0x00,0x40,0x04,0x00,0x10,0x00,0x00,0x10,0x20,0x01,0x10,0x80,0x00,0x00,
 0x08,0x00,0x08,0x00,0x01,0x00,0x08,0x00,0x40,0x02,0x04,0x01,0x51,0x80,0x04,
 0x00,0x00,0x00,0x02,0x00,0x02,0x00,0x40,0x00,0x00,0x01,0x00,0x02,0x20,0x02,
 0x00,0x00,0x08,0x00,0x20,0x10,0x00,0x04,0x40,0x42,0x84,0x44,0x00,0x40,0x80,
 0x24,0x04,0x00,0x00,0x00,0x00,0x20,0x00,0x00,0x00,0x00,0x00,0x20,0x00,0x00,
 0x00,0x01,0x08,0x00,0x00,0x00,0x00,0x00,0x00,0x00,0x00,0x00,0x00,0x00,0x00,
 0x00,0x00,0x00,0x00,0x00,0x00,0x00,0x01,0x00,0x49,0x40,0x02,0x00,0x00,0x00,
 0x00,0x04,0x24,0x00,0x20,0x00,0x00,0x80,0x00,0x00,0x00,0x48,0x82,0x00,0x81,
 0x08,0x48,0x04,0x00,0x00,0x00,0x00,0x00,0x00,0x00,0x00,0x00,0x80,0x00,0x00};
