#define noname_width 150
#define noname_height 185
static char noname_bits[] = {
 0x12,0x22,0x21,0x22,0x09,0x21,0x89,0x84,0x10,0x11,0x4a,0x14,0x49,0x22,0x49,
 0x10,0x20,0x21,0x04,0x48,0x49,0x4a,0x91,0xa4,0x4a,0x44,0x52,0x4a,0x44,0x91,
 0xa2,0x90,0x48,0x12,0x85,0x8a,0x48,0x01,0x92,0x94,0x14,0x4a,0x12,0x24,0x29,
 0x89,0xa4,0x12,0x42,0x44,0x4a,0x12,0x21,0x28,0x24,0x02,0x2a,0x24,0x22,0x41,
 0x91,0xa4,0x92,0x44,0x22,0x11,0xa4,0x14,0x29,0x91,0x44,0x88,0x42,0x91,0x54,
 0x01,0x92,0x44,0x2a,0x4a,0x82,0x44,0x92,0x54,0x4a,0x91,0xa8,0x44,0x42,0x92,
 0x52,0x0a,0x22,0x21,0x0a,0x44,0x92,0x44,0x11,0x54,0x92,0x24,0x02,0x21,0x0a,
 0x05,0x91,0x94,0x48,0x88,0xa0,0x08,0x8a,0x10,0x92,0x24,0x09,0xa5,0x12,0x49,
 0x92,0x54,0x4a,0xa1,0xa8,0x24,0x12,0x25,0x25,0x15,0x51,0x10,0x05,0x24,0x49,
 0xa2,0x48,0x44,0x92,0x24,0x25,0x21,0x14,0x05,0x89,0x44,0x88,0x48,0x40,0x0a,
 0x45,0x10,0x92,0x24,0x49,0x92,0x28,0x49,0x92,0x48,0x4a,0x51,0x28,0x52,0x92,
 0x52,0x22,0x15,0x51,0x28,0x05,0x20,0x12,0x92,0x24,0x45,0x22,0x44,0x24,0x21,
 0x08,0x85,0x88,0x48,0x84,0x48,0x84,0x08,0x85,0x10,0x4a,0x49,0x49,0x42,0x88,
 0x94,0x92,0x92,0x94,0xa2,0x28,0x25,0x25,0x29,0x82,0x52,0xa2,0x10,0x05,0x12,
 0x22,0x92,0x28,0x25,0x42,0x48,0x24,0x82,0x14,0x92,0x40,0x48,0x82,0x28,0x00,
 0x10,0x4a,0x10,0xa4,0x94,0x08,0x45,0x52,0x29,0x25,0x91,0x54,0xa2,0x48,0x2a,
 0x21,0x29,0xa5,0xaa,0x4a,0x10,0x05,0x09,0x41,0xa2,0x10,0x09,0x88,0x48,0x0a,
 0x81,0x10,0x82,0x88,0x14,0x84,0x7a,0x5b,0x11,0x85,0x10,0xa4,0x94,0x14,0xa5,
 0xa4,0x52,0x22,0x51,0x2a,0xa5,0x54,0x12,0xa1,0x52,0xab,0x15,0xa2,0x28,0x02,
 0x22,0x4a,0x82,0x10,0x22,0x09,0x49,0x08,0x41,0x08,0x82,0x44,0x4a,0xe8,0xff,
 0xff,0x04,0x82,0x10,0x94,0x90,0x54,0x4a,0x49,0x52,0x92,0x52,0x8a,0x52,0x29,
 0x92,0x88,0xaa,0x55,0x5b,0x52,0x28,0x05,0x22,0x25,0x92,0x24,0x92,0x88,0x44,
 0x84,0x50,0x20,0x12,0x49,0x22,0x7a,0xff,0xff,0x05,0x42,0x10,0x44,0x44,0x49,
 0x92,0x24,0x25,0x89,0x52,0x8a,0x8a,0xa4,0x24,0x49,0xd5,0xd5,0xbe,0x4a,0x09,
 0x05,0x12,0x29,0x84,0x24,0x91,0x48,0x52,0x08,0x22,0xa1,0x08,0x41,0x92,0xfc,
 0xbf,0xef,0x17,0x40,0x10,0xa4,0x44,0x29,0x91,0x4a,0x92,0x84,0x52,0x49,0x0a,
 0x51,0x2a,0x49,0x5b,0xed,0x7e,0x4f,0x95,0x22,0x49,0x52,0x44,0x4a,0x90,0x24,
 0x51,0x24,0x92,0x50,0x0a,0x11,0x92,0xfe,0xff,0xd7,0x3b,0x20,0x08,0x24,0x89,
 0x92,0x90,0x22,0x49,0x82,0x42,0x49,0x8a,0xa4,0xa4,0x48,0xbb,0xdb,0xfe,0x8f,
 0x84,0x22,0x49,0x52,0x24,0x25,0x49,0x92,0x54,0x28,0x10,0x21,0x11,0x49,0xd2,
 0xee,0xff,0xed,0x7a,0x20,0x00,0x24,0x89,0x92,0x44,0x92,0x44,0x92,0x42,0x45,
 0x4a,0x24,0x22,0x49,0xbf,0xfd,0xbf,0x2f,0x89,0x0a,0x49,0x22,0x24,0x91,0x24,
 0x22,0x24,0x94,0x20,0x11,0x89,0x48,0xd0,0xed,0x6f,0xef,0x7b,0x22,0x10,0x04,
 0x49,0x91,0x24,0x92,0x94,0x92,0x10,0x95,0xa4,0x24,0x25,0x65,0xbf,0xff,0xfd,
 0xae,0x80,0x04,0xa2,0x24,0x24,0x49,0x49,0x42,0x44,0x4a,0x22,0x11,0x91,0x08,
 0xd9,0xab,0xf4,0xff,0xff,0x24,0x00,0x14,0x49,0x49,0x12,0x24,0x29,0x11,0x91,
 0x88,0x44,0x4a,0x52,0xd2,0xde,0xbf,0xb7,0x3f,0x91,0x2a,0x49,0x24,0x92,0x48,
 0x49,0x8a,0x48,0x4a,0x24,0x92,0x90,0x04,0xa9,0x6b,0xf5,0xff,0xfb,0x08,0x00,
 0x92,0x92,0x44,0x92,0x24,0x51,0x22,0x91,0x92,0x24,0x45,0x52,0x6a,0xb7,0xff,
 0xfd,0xfe,0x44,0x12,0x44,0x44,0x92,0x44,0x42,0x0a,0x49,0x24,0x20,0x49,0x90,
 0x10,0xd1,0xda,0x5a,0xbf,0xb7,0x81,0x00,0x92,0x28,0x49,0x92,0x14,0x51,0x92,
 0x88,0x8a,0x10,0x25,0xa5,0xa4,0xed,0xff,0xf7,0xfe,0x28,0x0a,0x24,0x85,0x24,
 0x24,0x49,0x24,0x24,0x52,0x22,0x8a,0x42,0x08,0x52,0xf6,0xd5,0xbd,0xbb,0x03,
 0x00,0x92,0x28,0x92,0x48,0x24,0x89,0x88,0x84,0x94,0x50,0x94,0x52,0x54,0xad,
 0x7f,0x77,0xef,0x28,0x29,0x48,0x12,0x89,0x12,0x89,0x44,0x22,0x21,0x41,0x0a,
 0xea,0x83,0xaa,0xf6,0xaa,0xad,0x75,0x41,0x00,0x92,0xa4,0x24,0x49,0x24,0x29,
 0x95,0x14,0x2a,0x51,0xd5,0x04,0xaa,0xad,0x7d,0x77,0x5b,0x09,0x05,0x24,0x09,
 0x49,0x92,0x42,0x84,0x20,0x42,0x41,0x84,0xfe,0x9f,0x52,0xf5,0xd6,0xda,0x0a,
 0x42,0x10,0x92,0x54,0x24,0x49,0x94,0x52,0x4a,0x29,0x8a,0x50,0xfb,0x17,0xaa,
 0x5a,0x5b,0xb7,0x55,0x28,0x05,0x24,0x22,0x89,0x10,0x42,0x10,0x11,0x04,0x21,
 0xd5,0xff,0xff,0xa4,0xaa,0xad,0x6d,0x03,0x02,0x10,0x92,0x44,0x52,0x4a,0x29,
 0xa5,0xa4,0x52,0x8a,0x68,0xb7,0x5f,0xa9,0x7a,0x7b,0xf5,0xaa,0xa8,0x02,0x44,
 0x92,0x84,0x44,0x44,0x12,0x08,0x88,0x20,0xfe,0xff,0x7e,0x5b,0xd5,0xad,0x5f,
 0x01,0x02,0x10,0x92,0x24,0x29,0x29,0x29,0x49,0xa5,0x22,0x95,0xfa,0xfe,0xff,
 0xaa,0xbd,0xd6,0xea,0x2a,0xa8,0x02,0x24,0x49,0x42,0x84,0x44,0x92,0x48,0x48,
 0x82,0xbf,0xef,0xf7,0xf7,0xd6,0xb5,0x7e,0x80,0x02,0x10,0x92,0x10,0x29,0x29,
 0x89,0x48,0x22,0x25,0x69,0xef,0x7f,0xbf,0xad,0x7d,0xef,0x55,0x25,0x48,0x05,
 0x24,0x44,0x08,0x42,0x24,0x11,0x89,0x10,0xd4,0xfd,0xf7,0xff,0x6f,0xb7,0x55,
 0x3e,0x00,0x12,0x10,0x92,0x2a,0xa5,0x94,0x92,0xa4,0x24,0x4a,0xf1,0xbf,0xbd,
 0xfb,0xb5,0xdf,0xba,0x5d,0xaa,0x40,0x02,0x21,0x81,0x28,0x49,0x24,0x09,0x11,
 0x21,0xfc,0xff,0xff,0xff,0xff,0xfd,0xee,0xb7,0x00,0x94,0x10,0x4a,0x2a,0x45,
 0x24,0x89,0x24,0x4a,0x4a,0xdb,0xf6,0xff,0xfe,0xeb,0xaf,0xb5,0x1e,0x92,0x00,
 0x02,0x10,0x91,0x10,0x11,0x22,0x91,0x10,0x82,0xfe,0xbf,0xdd,0xdf,0x77,0x7f,
 0xdf,0xab,0x04,0xa5,0x10,0x4a,0x4a,0x4a,0x4a,0x49,0x4a,0xa2,0x54,0xff,0xff,
 0xff,0xfb,0xef,0xff,0xbb,0x16,0x50,0x10,0x0a,0x22,0x21,0x21,0x21,0x92,0x80,
 0x14,0xa1,0xff,0xff,0xff,0xff,0x57,0x57,0x45,0x20,0x85,0x04,0x01,0x94,0x94,
 0x94,0x94,0x48,0x2a,0x49,0xca,0xfe,0xef,0xed,0xdf,0xef,0xff,0x03,0x89,0x10,
 0x52,0x14,0x42,0x44,0x08,0x42,0x12,0x49,0x92,0xe0,0xff,0xff,0xff,0xf6,0xbf,
 0xbb,0x50,0x00,0x84,0x00,0x01,0x94,0x92,0x52,0x29,0x49,0x22,0x48,0xba,0xef,
 0xff,0xff,0xff,0xe7,0x5f,0x05,0x55,0x51,0x2a,0x24,0x42,0x48,0x44,0x08,0x92,
 0x14,0x05,0xf5,0xff,0xff,0xbe,0xff,0x8f,0x36,0x40,0x00,0x04,0x00,0x09,0x94,
 0x92,0x92,0x52,0x21,0xa2,0x28,0xfa,0xff,0xdd,0xff,0xdf,0xa3,0x9f,0x2a,0x55,
 0x52,0x55,0x20,0x49,0x48,0x24,0x04,0x8a,0x14,0x92,0xfc,0xff,0xff,0xf7,0xff,
 0x05,0x20,0x00,0x80,0x00,0x00,0x0a,0x92,0x92,0x48,0xa9,0x28,0x51,0x49,0xf5,
 0xff,0xff,0xff,0xfe,0x93,0x8a,0xaa,0x0a,0xaa,0xaa,0x20,0x48,0x24,0x92,0x44,
 0x82,0x08,0x22,0xfe,0xff,0xff,0xff,0xff,0x05,0x20,0x00,0x40,0x01,0x00,0x0a,
 0x22,0x91,0x4a,0x92,0x54,0x52,0x49,0xfd,0xbf,0x7f,0xff,0xff,0x23,0x89,0xaa,
 0x2a,0x54,0x55,0x20,0x49,0x8a,0x10,0x24,0x89,0x24,0x42,0xff,0xfb,0xef,0xbb,
 0xff,0x03,0x20,0x00,0x00,0x02,0x80,0x0a,0x24,0x51,0xa2,0x12,0x12,0x49,0x94,
 0xff,0xff,0xff,0xff,0xfb,0x4a,0x85,0xaa,0xaa,0xa8,0x2a,0x10,0x49,0x0a,0x49,
 0xa0,0x48,0x22,0xc1,0xff,0xff,0xff,0xff,0xff,0x11,0x20,0x00,0x00,0x44,0x80,
 0x04,0x12,0x51,0x92,0x8a,0x92,0x48,0xaa,0xff,0xff,0xfd,0xff,0xff,0x40,0x4a,
 0x55,0x55,0x11,0x15,0x12,0xa4,0x88,0x24,0x22,0x24,0x92,0xf4,0x7f,0xff,0xdf,
 0xfe,0x7f,0x89,0x00,0x00,0x00,0x44,0x80,0x00,0x12,0x25,0x92,0x94,0x48,0x49,
 0xea,0xff,0xdf,0xff,0xff,0x7f,0x20,0xaa,0x54,0x55,0x11,0x15,0x15,0x84,0x90,
 0x44,0x42,0x12,0x84,0xf8,0xff,0xff,0xff,0xbf,0xbf,0x84,0x00,0x02,0x00,0x04,
 0xa1,0x00,0x52,0x45,0x92,0x94,0xa4,0x12,0xfd,0xff,0xfb,0xfd,0xff,0x3f,0x10,
 0x52,0x54,0x55,0x51,0x04,0x2a,0x24,0x90,0x24,0x21,0x42,0x48,0xfe,0xff,0xff,
 0xff,0xff,0xbf,0x84,0x04,0x01,0x00,0x04,0x49,0x01,0x92,0x4a,0x92,0x94,0x94,
 0x22,0xfd,0xdf,0xbf,0xef,0xff,0x7f,0x28,0x50,0x54,0x55,0x52,0x20,0x14,0x44,
 0x92,0x00,0x42,0x22,0x94,0xfe,0xff,0xff,0xff,0xef,0x3d,0x82,0x04,0x02,0x80,
 0x00,0x0a,0x01,0x92,0x48,0xaa,0x94,0x94,0xa2,0xfe,0xff,0xff,0xfe,0xff,0x1f,
 0x08,0x92,0xa8,0x12,0xaa,0x50,0x24,0x48,0x12,0x25,0x21,0x41,0x88,0xff,0xff,
 0xff,0xff,0xfe,0xbf,0xa2,0x40,0x04,0x44,0x01,0x04,0x02,0x92,0xa4,0x48,0x8a,
 0x94,0x52,0xff,0xfb,0xed,0xff,0xff,0x0f,0x00,0x0a,0x51,0x10,0x54,0x51,0x28,
 0x25,0x12,0x12,0x21,0x49,0xc4,0xff,0xff,0xff,0xff,0xff,0x3f,0xa8,0x40,0x04,
 0x45,0x02,0x04,0x05,0x48,0x49,0x49,0x4a,0x24,0xe9,0xfe,0xff,0xff,0xff,0xff,
 0x87,0x02,0x2a,0x51,0x08,0xa9,0x50,0x10,0x25,0x22,0x22,0x21,0x49,0xd2,0xff,
 0xff,0xfd,0xff,0xff,0x0f,0x20,0x01,0x08,0x52,0x00,0x0a,0x04,0x48,0x94,0x94,
 0x94,0x24,0xe9,0x7f,0xbf,0xff,0xf7,0xff,0x23,0x89,0x54,0xa5,0x80,0x2a,0xa0,
 0x12,0x92,0x22,0x41,0x44,0x08,0xfa,0xff,0xff,0xff,0xff,0xff,0x17,0x20,0x00,
 0x00,0x54,0x00,0x15,0x00,0x44,0x94,0x94,0x92,0x52,0xf5,0xff,0xf7,0xff,0xff,
 0xff,0x42,0x45,0x55,0x55,0x81,0xaa,0x40,0x15,0x29,0x05,0x25,0x24,0x04,0xfa,
 0xef,0xff,0x7f,0xff,0xff,0x07,0x10,0x00,0x00,0x28,0x00,0x24,0x00,0x42,0xa8,
 0x48,0x49,0xa9,0xfc,0xff,0xff,0xff,0xff,0xff,0x23,0x49,0x55,0xa9,0x42,0x55,
 0x91,0x2a,0x28,0x45,0x44,0x22,0x49,0xfa,0x87,0xaa,0xff,0xff,0xff,0x11,0x00,
 0x00,0x04,0x10,0x00,0x04,0x00,0x42,0x28,0x29,0x49,0x92,0xfe,0xa7,0xff,0xff,
 0xbf,0xff,0x41,0x55,0x55,0x52,0x42,0x55,0x52,0x25,0x14,0x45,0x12,0x12,0x04,
 0xff,0x13,0x55,0xff,0xff,0x7f,0x08,0x00,0x80,0x00,0x14,0x00,0x00,0x00,0x52,
 0x12,0x49,0x49,0x51,0xff,0xa5,0xff,0xff,0xff,0xff,0x20,0x92,0x24,0xaa,0xa0,
 0xaa,0xaa,0x0a,0x88,0xa4,0x20,0x42,0xa4,0xfd,0x53,0x55,0xfb,0xff,0x3f,0x84,
 0x00,0x00,0x00,0x09,0x00,0x00,0x00,0x52,0x12,0x95,0x94,0x92,0xff,0xd4,0xff,
 0xff,0xff,0x2f,0x10,0xaa,0xaa,0x2a,0x24,0x55,0x55,0x15,0x09,0x84,0x00,0x21,
 0xc8,0x7f,0x5b,0xa9,0xfe,0xff,0x1f,0x44,0x00,0x00,0x00,0x41,0x00,0x00,0x00,
 0xa4,0x28,0x55,0x4a,0xd1,0xff,0xa4,0xde,0x7f,0xff,0xaf,0x00,0x49,0x55,0x25,
 0x04,0x95,0xaa,0x14,0x12,0x85,0x88,0x10,0xea,0x7f,0x54,0xeb,0xff,0xdf,0x0f,
 0x52,0x10,0x00,0x48,0x51,0x40,0x00,0x01,0xa4,0x28,0x25,0xa5,0xf0,0x7f,0x55,
 0x5d,0xff,0xff,0x1f,0x00,0x41,0xaa,0x02,0x84,0x0a,0x15,0x14,0x09,0x85,0x90,
 0x10,0x6a,0x3f,0x55,0xf5,0xff,0xff,0x0f,0x49,0x14,0x00,0x50,0x21,0x40,0x40,
 0x01,0x52,0x54,0x4a,0x4a,0xe9,0x5f,0xaa,0xea,0xff,0xff,0x27,0x04,0x41,0xa5,
 0x04,0x94,0x12,0x09,0x0a,0x88,0x02,0x21,0x42,0xf4,0xbf,0xa4,0xf6,0xff,0xff,
 0x4f,0x41,0x10,0x00,0x41,0x01,0x44,0xa2,0x00,0x52,0x54,0x94,0x94,0xea,0x3f,
 0x55,0xed,0xff,0xff,0x0f,0x14,0x45,0x15,0x14,0xaa,0x10,0x08,0x15,0x04,0x25,
 0x45,0x42,0xf0,0x9f,0xaa,0xf5,0xff,0xff,0x07,0x41,0x10,0x80,0x82,0x00,0x84,
 0x42,0x00,0x52,0x88,0x88,0x94,0xf6,0x57,0x55,0xdd,0xff,0xff,0x4b,0x04,0x41,
 0x2a,0x28,0x4a,0x11,0x08,0x09,0x88,0x52,0x52,0x22,0xf8,0x8f,0xaa,0xf6,0xff,
 0xf7,0x03,0x20,0x90,0x00,0x82,0x10,0x44,0x45,0x02,0x52,0x04,0x89,0x44,0xfd,
 0x37,0xd5,0xfd,0xff,0xff,0x23,0x89,0x02,0xaa,0x08,0x42,0x12,0x10,0x28,0x09,
 0xa9,0x24,0x92,0xf4,0x4b,0x55,0xfe,0xff,0xff,0x01,0x00,0xa4,0x00,0xa2,0x90,
 0x80,0x84,0x02,0xa4,0x04,0x91,0x14,0xfd,0xa7,0xaa,0xfb,0xff,0xff,0x4a,0x55,
 0x10,0xaa,0x08,0x05,0x4a,0x12,0x08,0x12,0xa1,0x24,0x41,0xf4,0x57,0xd5,0xfe,
 0xff,0xff,0x01,0x00,0x84,0x00,0x42,0xa0,0x10,0x80,0x02,0xa4,0x14,0x49,0x2a,
 0xfd,0xab,0x5a,0xff,0xff,0x7f,0x28,0x49,0x11,0x4a,0x28,0x05,0x42,0x15,0x14,
 0x09,0x42,0x12,0x81,0xa0,0x47,0xd5,0xfe,0xef,0xff,0x02,0x10,0x84,0x10,0x02,
 0xa0,0x10,0x40,0x01,0xa4,0x94,0x48,0x2a,0xf5,0xab,0xaa,0xff,0xff,0xff,0x48,
 0x41,0x50,0x42,0x49,0x09,0xa2,0x12,0x24,0x49,0x22,0x92,0x44,0xc8,0x57,0xed,
 0xff,0xff,0x7f,0x12,0x14,0x05,0x10,0x20,0x90,0x08,0x04,0x09,0x12,0x49,0x49,
 0x92,0xd2,0x55,0x55,0xff,0xff,0xbf,0x40,0x40,0x50,0x49,0x85,0x42,0x22,0x51,
 0x20,0x44,0x24,0x12,0x24,0xe4,0xab,0xf5,0xff,0xff,0xff,0x0a,0x12,0x04,0x02,
 0x20,0x10,0x08,0x04,0x0a,0x92,0x92,0x48,0x49,0xe9,0x55,0xed,0xff,0xff,0x7f,
 0xa2,0x48,0x51,0xa8,0x4a,0x45,0xa1,0x50,0x20,0x48,0x44,0x22,0x12,0xd0,0xab,
 0xf6,0xff,0xff,0xff,0x0b,0x00,0x00,0x02,0x00,0x10,0x14,0x04,0x09,0x92,0x28,
 0x49,0xa1,0xea,0x55,0xf5,0xff,0xff,0xff,0xa0,0x4a,0x95,0xa8,0x54,0x45,0x41,
 0x91,0x04,0x24,0x05,0x12,0x08,0xf4,0x53,0xfb,0xff,0xff,0xff,0x07,0x00,0x20,
 0x02,0x01,0x10,0x10,0x24,0x00,0x12,0xa8,0x48,0xa5,0xfa,0x55,0xed,0xff,0xff,
 0xff,0x23,0x52,0x82,0x48,0x54,0x41,0x45,0x80,0x2a,0x44,0x25,0x92,0x50,0xc5,
 0x52,0xfb,0xff,0xff,0xff,0x0f,0x00,0x20,0x02,0x00,0x14,0x80,0x2a,0x00,0x92,
 0x90,0x44,0xaa,0xf4,0xad,0xfe,0xff,0xff,0xf7,0x2f,0x49,0x85,0xa8,0x4a,0x40,
 0x29,0x40,0x12,0x24,0x25,0x91,0x44,0xfa,0x52,0xfb,0xff,0xff,0xff,0x5f,0x00,
 0x20,0x00,0x00,0x12,0x02,0x12,0x04,0x92,0x88,0x04,0x29,0xf5,0x55,0xfd,0xff,
 0xff,0xff,0xbf,0x94,0x84,0x92,0xaa,0x48,0xa8,0x48,0x11,0x44,0x24,0x52,0x55,
 0xf5,0xaa,0xff,0xff,0xff,0xff,0x7f,0x21,0x28,0x20,0x00,0x02,0x02,0x02,0x04,
 0x92,0x92,0x08,0xaa,0xf4,0x6a,0xff,0xff,0xff,0xff,0xff,0x00,0x81,0x8a,0x24,
 0xa8,0x48,0x28,0x21,0x24,0x21,0x45,0x11,0xfd,0xaa,0xfe,0xff,0xff,0xff,0xff,
 0x0b,0x22,0x00,0x41,0x02,0x12,0x42,0x08,0x92,0x44,0x28,0x6a,0xfd,0xea,0xff,
 0xff,0xff,0xff,0xff,0x13,0x08,0x29,0x04,0x29,0x40,0x08,0x01,0x20,0x28,0x82,
 0x14,0x75,0x55,0xff,0xff,0xff,0x76,0xff,0x0f,0x41,0x00,0x51,0x80,0x14,0x02,
 0x10,0x8a,0x42,0x29,0x69,0xfd,0xaa,0xff,0xff,0xfd,0xff,0xff,0x47,0x04,0x25,
 0x00,0x09,0x42,0xa9,0x02,0x20,0x10,0x00,0x80,0x52,0xf5,0xff,0xff,0xef,0xff,
 0xf7,0x3f,0x00,0x00,0x08,0x20,0x00,0x00,0x00,0x92,0x42,0x55,0x55,0xf4,0xaa,
 0xff,0xff,0xff,0xff,0xff,0x1f,0x20,0x20,0x21,0x00,0x00,0x00,0x08,0x55,0xbd,
 0xaa,0xaa,0x00,0xb5,0xff,0xff,0xff,0xff,0xbf,0x7f,0x89,0x8a,0x08,0x95,0xaa,
 0xaa,0x02,0xad,0xa2,0xaa,0x12,0x50,0xed,0xff,0xff,0xff,0xff,0xff,0x7f,0x12,
 0x10,0x25,0x40,0x00,0x00,0x28,0x55,0x5d,0x55,0xd5,0x85,0xda,0xff,0xff,0xff,
 0x7f,0xff,0xff,0xd5,0xef,0xda,0x7f,0xff,0xff,0x2f,0xda,0x6a,0xad,0x56,0x52,
 0xf5,0xff,0xff,0xff,0xff,0xff,0xff,0x2b,0xb5,0x6d,0x55,0x55,0x55,0x15,0x6d,
 0xb5,0xd5,0x9a,0xa0,0xfa,0xff,0xff,0xff,0xff,0xdf,0xfb,0x57,0xad,0xb6,0xdf,
 0xd6,0xb6,0x3f,0xab,0x55,0x5b,0x55,0x4a,0xeb,0xff,0xff,0xff,0xff,0xff,0xff,
 0xad,0x76,0x6d,0xb5,0xbd,0x6d,0x15,0xaa,0xaa,0xaa,0xb5,0xf4,0xfe,0xff,0xff,
 0xff,0xfb,0xff,0xff,0xaf,0xad,0xab,0xee,0x56,0xbb,0x3f,0x6d,0x5b,0xad,0x2a,
 0x49,0xfd,0xff,0xff,0xff,0xff,0xfe,0xee,0x57,0x5b,0xdd,0xbd,0xed,0xd6,0x2a,
 0xb6,0xed,0x52,0xad,0xb6,0xfe,0xff,0xff,0xbf,0xff,0xef,0xff,0xbf,0x6a,0x6b,
 0xab,0xbb,0xb5,0x2d,0x55,0x55,0xa9,0x55,0x55,0xfd,0xff,0xef,0xff,0xff,0xff,
 0x7f,0xaf,0xda,0xb6,0x7d,0x6f,0x6f,0x37,0x00,0x92,0x04,0x50,0xfb,0xfe,0xff,
 0xff,0xff,0xdf,0xff,0xff,0x7f,0x6d,0x6b,0xd7,0xf5,0xfb,0x2d,0xaa,0x24,0xb5,
 0xaa,0x96,0xfe,0xff,0xff,0xff,0xff,0xff,0xed,0xdf,0xaa,0xb6,0xbd,0x5f,0xaf,
 0x1f,0x00,0x00,0xa8,0xda,0xfd,0xeb,0x7f,0xff,0xfe,0xff,0xde,0xff,0xfb,0x00,
 0x00,0x00,0x00,0x00,0x00,0xaa,0x92,0x52,0x55,0xff,0xfd,0xf7,0xff,0xff,0xff,
 0xff,0x7f,0x7f,0x00,0x00,0x00,0x00,0x00,0x00,0x01,0x24,0x09,0x49,0x57,0xbf,
 0xff,0xff,0xff,0xfb,0xff,0xff,0xff,0x83,0x10,0x00,0x80,0x40,0x00,0x54,0x49,
 0x54,0xd2,0xfd,0xfb,0xff,0xff,0xff,0xff,0xff,0xee,0xbb,0x28,0x42,0xa5,0x24,
 0x0a,0x15,0x24,0x10,0x01,0x40,0xaf,0x6e,0xfc,0xff,0xdf,0xff,0xff,0xff,0xff,
 0x03,0x00,0x00,0x00,0x00,0x00,0x92,0x42,0x54,0xd5,0xb5,0xbf,0xff,0xff,0xff,
 0xff,0xbb,0x7f,0xff,0x03,0x08,0x00,0x82,0x50,0x00,0x00,0x14,0x01,0xa0,0x5a,
 0x75,0xe9,0xff,0xff,0xbf,0xff,0xf7,0xef,0x0f,0x42,0x92,0x20,0x04,0x14,0xaa,
 0x48,0x54,0x6a,0xb7,0xde,0xfe,0xff,0xff,0xff,0xff,0xff,0xfb,0x45,0x28,0x00,
 0x84,0x90,0x00,0x49,0x22,0x82,0x90,0xd5,0xb5,0x82,0xfe,0xff,0xff,0xff,0xff,
 0xff,0x3f,0x00,0x28,0x21,0x22,0x0a,0x24,0x49,0x29,0xd2,0xaa,0xaf,0xba,0xff,
 0xff,0xff,0xff,0xff,0xbf,0x0f,0x50,0x01,0x04,0x88,0x20,0x01,0x02,0x80,0xe0,
 0x76,0x55,0x55,0xff,0xff,0xff,0xff,0xff,0xfe,0xff,0x02,0x44,0xa1,0x02,0x08,
 0x54,0xa8,0x4a,0x5a,0xad,0x5b,0xd5,0xff,0xbf,0xfb,0xff,0xff,0xff,0x3f,0x08,
 0x10,0x04,0xa8,0x22,0x02,0x85,0x10,0xb4,0x55,0x55,0x55,0xff,0xfb,0xff,0xf7,
 0xef,0xef,0xff,0x41,0x02,0x90,0x02,0x08,0x54,0x10,0x05,0x55,0xdb,0x56,0xd5,
 0xff,0xff,0xff,0xff,0xff,0xff,0x7d,0x00,0x90,0x40,0x90,0x00,0x01,0x44,0x48,
 0xed,0x6a,0xbb,0x56,0xff,0xff,0x7f,0xff,0xfe,0x7f,0xff,0x03,0x00,0x08,0x00,
 0x08,0x54,0x11,0x11,0x5b,0x57,0xa5,0xd5,0xff,0xff,0xff,0xff,0xff,0xff,0xff,
 0x81,0x04,0x01,0x09,0x21,0x00,0x00,0xa0,0xd6,0x6a,0x7b,0x6d,0xff,0xff,0xff,
 0xdf,0xff,0xff,0xf7,0x07,0x00,0x00,0x40,0x00,0x08,0x49,0xca,0xba,0xdd,0xd6,
 0xda,0xff,0xff,0xff,0xff,0xff,0xfe,0xff,0x21,0x90,0x48,0x00,0x02,0x42,0x02,
 0x60,0x6f,0xb7,0xaf,0xaa,0xde,0xff,0xff,0xfb,0xfb,0xdf,0xff,0x0f,0x02,0x00,
 0x08,0x08,0x00,0x28,0xb5,0xb5,0xda,0x56,0xf5,0xff,0xff,0xdf,0xff,0xff,0xff,
 0xff,0x47,0x08,0x02,0x40,0x00,0x24,0x00,0xf8,0x46,0x55,0x55,0x95,0xfe,0xff,
 0xff,0xff,0xdf,0xff,0xdd,0x07,0x40,0x80,0x04,0x00,0x80,0x04,0xd5,0x95,0xaa,
 0x4a,0x6d,0xff,0xff,0xfd,0xbf,0xff,0xfd,0xff,0x8b,0x12,0x09,0x10,0x25,0x10,
 0x40,0xb8,0x23,0xa4,0xaa,0xaa,0xd5,0xff,0xff,0xff,0xff,0x7f,0xff,0x03,0x00,
 0x50,0x42,0x00,0x42,0x02,0xf5,0x81,0x4a,0x55,0x55,0xfd,0xff,0xff,0xff,0xff,
 0xff,0xff,0x01,0x40,0x02,0x08,0x04,0x00,0x20,0xd0,0x47,0x50,0x52,0x5b,0x4b,
 0xea,0xff,0xff,0xff,0xff,0xef,0x02,0x08,0x00,0x01,0x00,0x08,0x08,0xf5,0x07,
 0xad,0xa4,0xaa,0xb6,0xfd,0xff,0xff,0xff,0xff,0xff,0x21,0x01,0x40,0x20,0x11,
 0x00,0x01,0xd0,0xaf,0xaa,0xaa,0xaa,0xd5,0x6e,0xff,0xff,0xf7,0xdf,0xfe,0x08,
 0x24,0x11,0x00,0x00,0x12,0x00,0xea,0x57,0x55,0x55,0xb5,0x5a,0xfb,0xff,0xff,
 0xff,0xfd,0x7f,0x80,0x00,0x00,0x02,0x00,0x40,0xaa,0x50,0xad,0xfe,0xab,0xda,
 0xfe,0xff,0xff,0xf7,0xff,0xff,0x7f,0x25,0x48,0x44,0x10,0x02,0x08,0x00,0xaa,
 0xab,0xaa,0xd4,0xaa,0x55,0xdd,0xff,0xff,0xff,0xff,0x5f,0x00,0x01,0x00,0x40,
 0x00,0x00,0x00,0x40,0x00,0x51,0x0a,0x41,0xa8,0xea,0x6a,0xff,0xff,0xff,0xb7,
 0x12,0x00,0x10,0x04,0x08,0x40,0x84,0x80,0x92,0xa4,0x10,0x2a,0xab,0x5d,0xff,
 0xbf,0xff,0xff,0x5f,0x00,0x10,0x01,0x01,0x00,0x08,0x10,0x28,0x00,0x08,0xa5,
 0x88,0x48,0x22,0x01,0x40,0x00,0x00,0x00,0x00,0x00,0x00,0x10,0x00,0x80,0x00,
 0x82,0x22,0x51,0x00,0x52,0x92,0x4a,0xaa,0x55,0x55,0x55,0x04,0x00,0x00,0x00,
 0x80,0x00,0x02,0x00,0x48,0x08,0x04,0xaa,0x00,0x49,0x91,0x12,0x08,0x20,0x92,
 0x52,0x55,0x02,0x00,0x00,0x08,0x10,0x92,0x20,0x21,0x90,0x00,0x92,0x24,0x2a,
 0xa4,0xa2,0x4a,0x49,0x24,0x00,0x00,0x00,0x00,0x00,0x00,0x00,0x00,0x04,0x02,
 0x02,0x00,0x00,0x00,0x01,0x10,0x01,0x00,0x00,0x00,0x00,0x00,0x00,0x00,0x20,
 0x00,0x48,0x80,0x10,0x28,0x00,0x52,0xa9,0x54,0x25,0x54,0x15,0x00,0x00,0x00,
 0x00,0x40,0x02,0x00,0x00,0x00,0x00,0x40,0x02,0xa9,0x00,0x02,0x00,0x80,0x02,
 0x00,0x00,0x00,0x00,0x00,0x08,0x00,0x00,0x04,0x00,0x12,0x04,0x40,0x00,0x94,
 0xa8,0x94,0x2a,0x28,0x49,0x00,0x00,0x00,0x00,0x00,0x08,0x08,0x80,0x00,0x80,
 0x40,0x12,0x08,0x01,0x00,0x41,0x00,0x45,0x22,0x40,0x02,0x00,0x20,0x00,0x00,
 0x40,0x00,0x80,0x00,0x04,0x00,0x21,0x54,0x12,0x14,0x55,0x28,0x84,0x0a,0x01,
 0x08,0x02,0x90,0x00,0x00,0x00,0x04,0x00,0x10,0x08,0x00,0x00,0x80,0x40,0x00,
 0x02,0x21,0x40,0x00,0x00,0x00,0x00,0x00,0x00,0x00,0x00,0x88,0x80,0x40,0x00,
 0x01,0x11,0x02,0x49,0x08,0x88,0x14,0x01,0x00,0x00,0x00,0x00,0x00,0x00,0x00,
 0x00,0x00,0x02,0x54,0x50,0x44,0x50,0x10,0x42,0x02,0x00,0x00,0x00,0x00,0x00,
 0x00,0x00,0x08,0x20,0x00,0x00,0x28,0x01,0x05,0x00,0x01,0x41,0x09,0x88,0x40,
 0x40,0x00,0x80,0x00,0x02};
