#define noname_width 170
#define noname_height 165
static char noname_bits[] = {
 0x00,0x02,0x00,0x00,0x00,0x10,0x20,0x84,0x08,0x04,0x49,0x48,0x92,0x44,0x40,
 0x10,0x91,0x00,0x12,0x01,0x10,0x00,0x92,0xa0,0x94,0x22,0x55,0x85,0x8a,0x22,
 0xa2,0x52,0x92,0x92,0x24,0x11,0x15,0xa5,0x24,0xb5,0x44,0xa8,0x4a,0x01,0x00,
 0x04,0x00,0x08,0x00,0x10,0x10,0x94,0x14,0x88,0x08,0x49,0x88,0xa4,0x48,0x02,
 0x11,0x88,0x90,0x02,0x20,0x00,0x24,0x11,0x49,0x42,0x49,0x45,0xa5,0x02,0xa1,
 0x52,0x52,0x12,0x45,0x12,0x92,0xa8,0x44,0x45,0x4a,0xa8,0x0a,0x01,0x00,0x40,
 0x20,0x10,0x04,0x10,0x08,0x54,0x04,0x01,0x89,0x48,0x28,0x49,0x44,0x42,0x12,
 0x12,0x20,0x05,0x51,0x00,0x48,0x12,0x08,0x05,0x51,0x85,0xa2,0x02,0xa9,0x54,
 0x22,0x25,0x45,0x90,0x22,0x94,0xa4,0x44,0x95,0xa8,0x08,0x01,0x00,0x80,0x02,
 0x50,0x00,0x10,0x04,0x54,0x42,0x22,0x49,0x90,0x88,0x42,0x94,0x22,0x42,0x10,
 0x41,0x42,0x22,0x00,0x94,0x24,0x50,0x05,0x54,0x45,0xa9,0x82,0x94,0x48,0x24,
 0x25,0x52,0x94,0x42,0x10,0x29,0xa5,0x14,0x11,0x49,0x01,0x00,0x82,0x00,0x50,
 0x01,0x08,0x00,0x28,0x22,0x25,0x91,0x48,0x89,0x12,0x29,0x45,0x44,0x14,0x49,
 0x44,0x04,0x01,0xa2,0x20,0x94,0x04,0x90,0xa2,0xaa,0x8a,0x48,0x48,0x24,0x25,
 0x44,0xa4,0x48,0x92,0x92,0x42,0x22,0x29,0x51,0x00,0x00,0x04,0x01,0x90,0x42,
 0x08,0x00,0x50,0x92,0x22,0x49,0x94,0x92,0x10,0x85,0x48,0x08,0x88,0x88,0x80,
 0x84,0x00,0x12,0x41,0x48,0x25,0x14,0xa2,0xaa,0x8a,0x44,0x48,0x92,0x42,0x49,
 0x8a,0x50,0x24,0xa5,0x52,0x24,0x2a,0x29,0x01,0x40,0x04,0x21,0x80,0x40,0x08,
 0x00,0x21,0x92,0x92,0x2d,0x15,0x50,0x51,0x8a,0x82,0x10,0x09,0x91,0x10,0x80,
 0x00,0x08,0x50,0x08,0x28,0x28,0x42,0x55,0x94,0x24,0x24,0xa5,0x08,0x25,0x14,
 0x21,0x51,0x4a,0x52,0x4a,0x4a,0x55,0x00,0x20,0x01,0x41,0x81,0x82,0x28,0x80,
 0x42,0x92,0x92,0xa8,0x13,0x00,0xa1,0x94,0x24,0x24,0x88,0x20,0x21,0x08,0x01,
 0x04,0x10,0x10,0x24,0x24,0x04,0x55,0x90,0x84,0x20,0x55,0x24,0x00,0x4a,0x22,
 0x92,0x12,0x45,0x8a,0x88,0xa2,0x00,0x10,0x41,0x42,0x80,0x90,0x50,0x10,0x45,
 0x50,0x8a,0x80,0x02,0x00,0x90,0x8a,0x44,0x48,0x12,0x11,0x25,0x0a,0x01,0x42,
 0x14,0x10,0x2a,0x08,0x05,0x8a,0x10,0x15,0x51,0x54,0x29,0x00,0x44,0x52,0x92,
 0x92,0xa4,0xa4,0x48,0xa1,0x00,0x08,0x80,0x44,0x80,0x22,0xa8,0x20,0x25,0x40,
 0xaa,0xab,0x92,0x52,0xa9,0x94,0x48,0x44,0x10,0x12,0x21,0x04,0x02,0x00,0x12,
 0x01,0x25,0x40,0x02,0x4a,0x88,0x2a,0x55,0xaa,0xa4,0x08,0x92,0x2a,0x25,0x22,
 0xa5,0x44,0x0a,0xa9,0x00,0x22,0x40,0x48,0x80,0x0a,0x29,0x00,0x51,0x50,0x55,
 0x55,0xab,0x76,0xad,0x2a,0x90,0x94,0x08,0x11,0x50,0x04,0x01,0x88,0x12,0x10,
 0x28,0x40,0x40,0x55,0x8a,0x0a,0xb5,0xaa,0x54,0x89,0x52,0x57,0x25,0x22,0x52,
 0x8a,0x0a,0x51,0x00,0x00,0x40,0x82,0x82,0x24,0x05,0x80,0x20,0x64,0x55,0x55,
 0x55,0xa5,0xaa,0x2a,0x89,0x88,0x00,0x51,0xa4,0x84,0x02,0xa4,0x88,0x20,0x20,
 0x08,0x50,0x55,0x94,0x92,0xaa,0xaa,0xaa,0x52,0xaa,0x95,0x44,0x52,0xaa,0x08,
 0x11,0x51,0x00,0x00,0x02,0x8a,0x84,0xa2,0x04,0x00,0x41,0x48,0x00,0xa9,0xaa,
 0x2a,0x55,0x2b,0x92,0x08,0x11,0xa5,0x44,0x04,0x01,0x49,0x90,0x00,0x20,0x00,
 0xa1,0xaa,0x28,0x92,0xaa,0x54,0x55,0x95,0x6a,0x95,0x24,0xa5,0x48,0x08,0x11,
 0xa9,0x00,0x00,0x02,0x24,0x89,0x14,0x04,0x00,0x85,0x44,0x92,0xa2,0xaa,0x2a,
 0xa8,0x25,0x11,0x08,0x25,0x51,0x44,0x00,0x01,0x90,0x48,0x09,0x22,0x42,0x51,
 0x55,0x20,0x91,0x48,0x54,0xd5,0x8a,0x6a,0x55,0x4a,0xa5,0x48,0x0a,0x29,0xaa,
 0x00,0x02,0x00,0x20,0x00,0x08,0x04,0x80,0x4a,0x0a,0x85,0x02,0x55,0x55,0xaa,
 0x85,0x20,0x02,0x21,0x51,0x44,0x01,0x02,0x24,0x91,0x44,0xa9,0x22,0x21,0x55,
 0x10,0xa1,0x50,0x54,0xa9,0x8a,0xd4,0x2a,0x95,0x54,0x4a,0x08,0x22,0xaa,0x00,
 0x00,0x04,0x00,0x00,0x88,0x84,0x00,0xa5,0x14,0x25,0x11,0xaa,0xb2,0xaa,0x42,
 0x20,0x21,0x11,0xa5,0x88,0x10,0x01,0x48,0x41,0x2a,0xa5,0x22,0x50,0x54,0x11,
 0x44,0x92,0xa4,0x52,0x95,0xda,0x2a,0x95,0x94,0x88,0x10,0x52,0xa4,0x00,0x00,
 0x08,0x00,0x00,0x88,0x02,0x01,0xa2,0x92,0x48,0x12,0x54,0x55,0x35,0x91,0x44,
 0x42,0x22,0x45,0x89,0x02,0x02,0x24,0xa2,0x92,0x52,0x22,0x50,0xa8,0x14,0x44,
 0x92,0xa4,0x52,0x55,0x55,0x25,0x29,0x91,0x94,0x50,0x42,0xa8,0x00,0x00,0x00,
 0x00,0x08,0x88,0x02,0x01,0xa1,0x28,0x49,0x92,0xa4,0x2a,0xaa,0x88,0x80,0x24,
 0x22,0x05,0x29,0x01,0x01,0x92,0x92,0x48,0x82,0x22,0xa8,0x54,0x14,0x45,0x92,
 0x24,0x55,0x55,0x69,0x25,0x55,0x92,0x94,0x50,0x44,0xaa,0x00,0x00,0x00,0x02,
 0x10,0x88,0x04,0x22,0xa1,0x28,0x49,0x92,0x48,0x82,0x76,0x49,0x04,0x49,0x40,
 0x8a,0x08,0x01,0x02,0x48,0x92,0xa0,0x44,0x02,0xa1,0x88,0x14,0x44,0x12,0x49,
 0x24,0x55,0xe8,0x92,0x52,0x92,0x2a,0x22,0xa5,0xa8,0x00,0x00,0x00,0x0a,0x10,
 0x48,0x04,0x11,0xa1,0x12,0x21,0x22,0x49,0x20,0x7f,0x05,0x48,0x40,0x40,0x14,
 0x10,0x02,0x01,0x24,0x49,0x00,0x85,0x12,0x50,0x44,0x14,0x88,0x94,0x54,0x25,
 0x95,0xf4,0x52,0x25,0x15,0x95,0x42,0x45,0xa9,0x00,0x00,0x00,0x11,0x20,0x40,
 0x81,0x88,0x40,0x51,0x22,0x09,0x92,0x40,0xfa,0x89,0x90,0x48,0x08,0x28,0x08,
 0x04,0x02,0x11,0x49,0x44,0x89,0x14,0x28,0x25,0x2a,0x0a,0x94,0x52,0x49,0x95,
 0xfa,0x24,0x25,0x92,0x52,0x05,0xa5,0xa2,0x00,0x40,0x00,0x00,0x04,0x42,0x05,
 0x90,0x40,0x50,0x21,0x84,0x24,0xa9,0xee,0x93,0x88,0x48,0x84,0x50,0x08,0x14,
 0x01,0x08,0x44,0x92,0xa0,0x20,0x50,0x25,0x2a,0x25,0x4a,0x29,0x91,0xaa,0xfa,
 0x25,0x52,0x12,0x29,0x8a,0xa2,0x82,0x00,0x00,0x11,0x00,0x02,0x8a,0x04,0x40,
 0x44,0x92,0x88,0x44,0xea,0xff,0xff,0x8b,0x84,0x44,0x42,0x10,0x0a,0x28,0x02,
 0x52,0x00,0xa9,0x90,0x20,0x49,0x95,0x12,0x49,0x52,0x92,0xd2,0xff,0xff,0x25,
 0x21,0x91,0x94,0x4a,0xa1,0x8a,0x00,0x00,0x44,0x00,0x02,0x04,0x20,0x00,0x48,
 0x24,0x89,0x24,0xe4,0xff,0xff,0x0b,0x8a,0x44,0x20,0x10,0x04,0x11,0x01,0x08,
 0x11,0x88,0x50,0x91,0x0a,0x55,0x25,0x89,0x24,0x49,0xd5,0xff,0xff,0x45,0x51,
 0x28,0x95,0x4a,0xa9,0xa4,0x00,0x20,0x80,0x20,0x02,0x40,0x20,0x00,0x90,0x24,
 0x91,0x24,0xf8,0xff,0xff,0x13,0x82,0x82,0x40,0x20,0x02,0x02,0x02,0x04,0x12,
 0x0a,0x24,0x15,0x94,0xaa,0x0a,0x49,0x24,0x49,0xeb,0xff,0xff,0xa5,0x54,0x50,
 0x2a,0x15,0xa9,0xa8,0x00,0x20,0x00,0x40,0x80,0x40,0x41,0x00,0x51,0x24,0x49,
 0x92,0xfc,0xff,0xff,0x02,0x82,0x0a,0x81,0xa0,0x10,0x01,0x01,0x82,0x44,0x11,
 0x29,0x14,0x24,0xaa,0x08,0x49,0x92,0x24,0xf5,0xff,0xff,0x53,0x51,0xa0,0x28,
 0x15,0x44,0xaa,0x00,0x08,0x00,0x44,0x00,0x40,0x80,0x00,0x51,0x24,0x49,0x92,
 0xfe,0xfd,0x7f,0x09,0x84,0x0a,0x12,0xa0,0x12,0x01,0x02,0x00,0x52,0x00,0x92,
 0x2a,0x2a,0x55,0x0a,0x89,0x24,0x49,0xf5,0xff,0xff,0x82,0x52,0x50,0x89,0x4a,
 0xa4,0xa8,0x00,0x90,0x00,0x91,0x08,0x80,0x00,0x00,0x50,0x24,0x92,0x24,0xfe,
 0xff,0xff,0x29,0x84,0x02,0x52,0x10,0x11,0x22,0x01,0x04,0x10,0x20,0x40,0x25,
 0xa9,0xaa,0x0a,0x91,0x44,0x92,0xfa,0xff,0xff,0x42,0x51,0xa8,0x08,0x4a,0x8a,
 0x14,0x00,0x40,0x44,0x02,0x09,0x00,0x04,0x40,0x50,0x42,0x12,0x49,0xff,0xff,
 0xff,0x08,0x82,0x42,0x52,0x21,0x20,0x41,0x01,0x12,0x01,0x48,0x42,0x52,0x41,
 0x95,0x0a,0x29,0xa9,0x24,0xfd,0xff,0xff,0x42,0x29,0x94,0x24,0x8a,0x4a,0x28,
 0x00,0x00,0x10,0x01,0x08,0x08,0x14,0x00,0x50,0x44,0x04,0x49,0xfd,0xff,0xfd,
 0x2a,0x44,0x21,0x42,0x10,0x24,0x85,0x02,0x90,0x44,0x50,0x82,0x42,0x82,0xaa,
 0x0a,0x29,0xa9,0xa4,0xfe,0xff,0xbf,0x81,0x22,0x94,0x94,0x4a,0x89,0x50,0x00,
 0x04,0x00,0x02,0x28,0x08,0x28,0x40,0xa0,0x84,0x24,0x49,0xff,0xff,0x7f,0x14,
 0x94,0x42,0x20,0x90,0x24,0x02,0x01,0x20,0x91,0x90,0x02,0x42,0x05,0x15,0x15,
 0x52,0x49,0x52,0xff,0xff,0xff,0xa5,0x82,0x28,0x4a,0x25,0x11,0xa9,0x00,0x00,
 0x00,0x00,0x90,0x08,0x50,0x50,0xa0,0x08,0x22,0x49,0xff,0xff,0x7f,0x00,0x54,
 0x42,0x11,0x12,0x42,0x04,0x02,0x8a,0x24,0x95,0x24,0x52,0x85,0x0a,0x15,0xa4,
 0x94,0x24,0xfb,0xff,0xff,0xaa,0x02,0x94,0x88,0x44,0x29,0xa9,0x00,0x00,0x00,
 0x00,0x80,0x00,0x08,0x20,0x48,0x11,0x21,0x49,0xff,0xff,0xbf,0x40,0xa8,0x20,
 0x22,0x12,0x84,0x00,0x01,0x20,0x92,0x44,0x29,0x4a,0xa2,0x4a,0x45,0x4a,0x4a,
 0x52,0xff,0xbf,0xff,0x2a,0x12,0x15,0x49,0x41,0x51,0x54,0x00,0x12,0x00,0x10,
 0x00,0x20,0x08,0x10,0x88,0x90,0x88,0xa4,0xff,0xff,0x3f,0x80,0x44,0x48,0x12,
 0x0a,0x02,0x81,0x00,0x00,0x49,0x42,0x4a,0x89,0xa2,0x8a,0x52,0x4a,0x52,0x49,
 0xff,0xff,0xff,0x2a,0x91,0x22,0x49,0xa1,0x54,0x2a,0x01,0x44,0x00,0x08,0x00,
 0x04,0x00,0x20,0x04,0x21,0x09,0xd2,0xff,0xfd,0x5f,0x20,0x42,0x44,0x04,0x14,
 0x81,0x80,0x00,0x01,0x20,0x82,0x24,0xa1,0x94,0x4a,0x51,0x4a,0x52,0xa5,0xff,
 0xff,0x7f,0x95,0x14,0x29,0x51,0x45,0x54,0x54,0x00,0x08,0x85,0x10,0x80,0x08,
 0x22,0x20,0x84,0x88,0x84,0xe8,0xff,0xff,0x7d,0x40,0x90,0x84,0x84,0x28,0x01,
 0x01,0x01,0x40,0x00,0x40,0x2a,0x82,0x40,0x0a,0x51,0x52,0x52,0xd4,0xff,0xff,
 0xbf,0x14,0x25,0x21,0x51,0x84,0xa8,0x54,0x00,0x04,0x48,0x02,0x00,0x28,0x0a,
 0x21,0x22,0x09,0x89,0xf2,0xff,0xff,0x7f,0x22,0x84,0x44,0x84,0x10,0x02,0x82,
 0x02,0x41,0x02,0x50,0x89,0x82,0x40,0x94,0x14,0x42,0x52,0xc9,0xff,0xff,0x7f,
 0x48,0x29,0x11,0x29,0x45,0xa9,0x28,0x00,0x10,0x48,0x02,0x20,0x08,0x0a,0x41,
 0x42,0x29,0x01,0xfa,0xff,0xff,0x1f,0x01,0x41,0x24,0x84,0x08,0x04,0x42,0x01,
 0x04,0x01,0x20,0x0a,0x42,0x51,0x94,0x90,0x88,0xa8,0xe8,0xff,0xff,0x3f,0x54,
 0x14,0x89,0x22,0x52,0x51,0x11,0x00,0x00,0x48,0x82,0x40,0x08,0x04,0x21,0x4a,
 0x12,0x57,0xfb,0xff,0xff,0x4f,0x21,0x21,0x24,0x94,0x80,0x04,0x44,0x01,0x48,
 0x02,0x20,0x10,0x22,0x41,0x14,0x91,0xa4,0xb4,0xf2,0xff,0xff,0x3f,0x48,0x4a,
 0x89,0x22,0x2a,0x51,0x29,0x00,0x00,0x48,0x0a,0x41,0x08,0x14,0x41,0x44,0x48,
 0x6d,0xfd,0xff,0xff,0x4f,0x05,0x21,0x24,0x88,0x10,0x04,0x82,0x02,0x22,0x01,
 0x40,0x14,0x92,0x42,0x28,0x22,0x52,0xab,0xeb,0xff,0xff,0x1f,0x50,0x94,0x92,
 0x52,0x8a,0xa2,0x28,0x00,0x00,0x48,0x02,0x41,0x40,0x08,0x81,0x88,0xc4,0x5e,
 0xfd,0xff,0xf7,0x47,0x45,0x42,0x44,0x08,0x51,0x14,0x41,0x02,0x48,0x02,0x50,
 0x10,0x15,0x52,0x2a,0x25,0x51,0xeb,0xf6,0xff,0xff,0x2f,0x90,0x28,0x92,0xa2,
 0x08,0x41,0x94,0x00,0x00,0x90,0x00,0x02,0x00,0x00,0x40,0x90,0xc4,0xdd,0xfd,
 0xbf,0xff,0x9f,0x04,0x80,0x04,0x04,0x52,0x14,0x01,0x02,0x92,0x04,0x8a,0x48,
 0x91,0x4a,0x95,0x24,0xd2,0x6a,0xdf,0xff,0xff,0x2f,0x81,0x2a,0x51,0xa9,0x04,
 0x85,0xa8,0x00,0x00,0x10,0x20,0x00,0x04,0x20,0x00,0x91,0xa8,0xbf,0xff,0xff,
 0xff,0xff,0x6a,0x40,0x24,0x81,0x28,0x50,0x02,0x02,0x24,0x02,0x09,0x24,0x41,
 0x89,0x54,0x0a,0x45,0x6b,0xfb,0xff,0xff,0xbf,0xa1,0x15,0x49,0x2a,0x82,0x0a,
 0xa8,0x00,0x80,0x48,0x40,0x01,0x14,0x04,0x02,0x50,0xd8,0xfd,0xff,0xfd,0x7f,
 0xf9,0x59,0x47,0x00,0x90,0x54,0xa0,0x04,0x02,0x12,0x00,0x12,0x50,0x21,0xa1,
 0xa8,0x0a,0x65,0xff,0xff,0xbf,0xff,0xfa,0x43,0x1b,0xaa,0x4a,0x02,0x0a,0xa1,
 0x00,0x00,0x12,0x80,0x04,0x80,0x04,0x02,0x20,0xd0,0xad,0xfd,0xff,0xfb,0xd3,
 0x2c,0x74,0x00,0x20,0xa9,0x90,0x04,0x02,0x90,0x80,0x24,0x20,0x2a,0x50,0x51,
 0x95,0xaa,0xfb,0xff,0xff,0xff,0xf5,0x91,0xaa,0x54,0x15,0x02,0x24,0xa8,0x00,
 0x04,0x12,0x80,0x84,0x80,0x04,0x04,0x21,0x64,0x23,0xff,0xff,0xff,0xa7,0x00,
 0xe8,0x03,0x40,0xa8,0x82,0x00,0x02,0x81,0x00,0x12,0x20,0x10,0x21,0xa1,0x48,
 0x91,0xdb,0xbe,0xff,0xff,0xf7,0x89,0xb4,0x95,0x2a,0x45,0x50,0xaa,0x00,0x10,
 0x52,0x40,0x82,0x02,0x84,0x04,0x22,0xa2,0x26,0xff,0xff,0xff,0x07,0x22,0x4a,
 0x2f,0x40,0x08,0x05,0x01,0x02,0x84,0x00,0x12,0x28,0x50,0x21,0x50,0x89,0x54,
 0xab,0xfe,0xff,0xff,0xd7,0x94,0x94,0x1f,0x15,0x52,0x51,0xa8,0x00,0x20,0x04,
 0x40,0x00,0x05,0x84,0x02,0x24,0x42,0xdd,0xff,0xff,0xff,0x03,0x00,0xe2,0x7f,
 0x40,0x00,0x84,0x02,0x00,0x08,0x41,0x12,0x45,0x20,0x29,0x54,0x11,0x91,0xb6,
 0xfe,0xff,0xff,0x87,0xaa,0xd0,0xef,0x2a,0x55,0x21,0x50,0x01,0x00,0x08,0x00,
 0x10,0x82,0x80,0x00,0x42,0x24,0xfd,0xff,0xff,0xff,0x57,0x54,0xfd,0xff,0x01,
 0x00,0x94,0x02,0x00,0x44,0x22,0x49,0x82,0x24,0x28,0xaa,0x28,0x49,0xda,0xff,
 0xff,0xff,0x97,0x82,0xe8,0x7f,0xa5,0xaa,0x02,0x28,0x01,0x10,0x00,0x00,0x00,
 0x80,0x84,0x40,0x42,0x12,0xf1,0xff,0xff,0xff,0x2f,0x54,0xfb,0xff,0x0f,0x00,
 0xa8,0x40,0x00,0x84,0x24,0xa5,0x52,0x29,0x20,0x94,0x94,0x44,0xaa,0xff,0xff,
 0xff,0x57,0x51,0xfa,0xff,0x57,0x22,0x05,0x14,0x01,0x00,0x00,0x00,0x00,0x80,
 0x82,0x00,0x20,0x92,0xa8,0xfa,0x7f,0xff,0x1f,0x4a,0xfd,0xff,0xbf,0x88,0x50,
 0x41,0x00,0x21,0x91,0x48,0x10,0x2a,0x28,0x54,0x95,0x24,0xc4,0xef,0xff,0xff,
 0x4f,0xa1,0xfa,0xff,0x7f,0x22,0x08,0x12,0x01,0x08,0x04,0x02,0x4d,0x00,0x80,
 0x00,0x40,0x92,0xd2,0xdd,0xff,0xff,0x9f,0xaa,0xbf,0xff,0xdf,0x81,0x22,0x08,
 0x00,0x40,0x40,0x40,0x12,0x41,0x55,0x54,0x95,0x44,0x48,0xf7,0xff,0xff,0x5f,
 0x55,0xfe,0xf7,0xff,0x25,0x80,0x42,0x01,0x04,0x01,0x48,0x0b,0x14,0x15,0x01,
 0x42,0x10,0xa5,0xde,0xff,0xff,0x17,0xa9,0xff,0xbf,0xfd,0x17,0x12,0x08,0x00,
 0x00,0x24,0xa1,0x55,0x42,0x55,0xa2,0x28,0x4a,0x11,0xf7,0xff,0xff,0xaf,0xd4,
 0xff,0xff,0xff,0x8d,0x40,0x22,0x01,0x00,0x00,0xd0,0x07,0xac,0xac,0x04,0x80,
 0x20,0xa2,0x7c,0xff,0xff,0x4f,0xf5,0xff,0xfd,0xb7,0x3f,0x0a,0x80,0x00,0x00,
 0x00,0xe8,0x2b,0x51,0x52,0x29,0x25,0x8a,0x14,0xed,0xfb,0xff,0xbf,0xaa,0xff,
 0xff,0xff,0xef,0x90,0x2a,0x00,0x10,0x00,0xf4,0x06,0xa4,0xa0,0x52,0x01,0x00,
 0x00,0xf4,0xdf,0xff,0x57,0xf5,0xff,0xdf,0xfe,0xfd,0x01,0x80,0x00,0x84,0x44,
 0xf8,0x55,0x29,0x8a,0x95,0x4a,0xa2,0xa4,0xfa,0xfd,0xff,0x9f,0xea,0xff,0xff,
 0xef,0xbf,0x22,0x22,0x00,0x55,0x5b,0xd7,0x0b,0x0a,0x10,0x55,0x2b,0x09,0x89,
 0xdc,0xff,0xff,0x57,0xf5,0xff,0xff,0xff,0xff,0x03,0x00,0x00,0xaa,0x24,0xfd,
 0x55,0x55,0xa5,0xd6,0x8d,0x54,0x52,0xf5,0xf7,0xff,0x5f,0xf5,0x7f,0xff,0xff,
 0xf6,0x0a,0x80,0x00,0xb5,0xdb,0xfe,0xab,0x92,0x54,0x6a,0x77,0xab,0xfd,0xff,
 0xfe,0xfb,0xab,0xda,0xf7,0xff,0xdf,0xff,0x57,0x55,0x02,0xd5,0xa4,0xfa,0x97,
 0xaa,0x92,0xda,0x5f,0xad,0xd6,0xff,0xbf,0xff,0x5f,0xf5,0xff,0xdf,0xfd,0xff,
 0x2f,0x29,0x01,0x2a,0xab,0xfd,0x7e,0x25,0xad,0xea,0xa7,0xda,0xff,0xff,0xff,
 0xff,0x57,0xf5,0xff,0xff,0xff,0xef,0x5f,0xd5,0x02,0xd5,0x54,0xff,0xdf,0xaa,
 0xaa,0xfa,0xaf,0xea,0xfd,0xff,0xff,0xff,0xaf,0xfa,0xff,0xff,0xff,0x7f,0xb7,
 0x2a,0x01,0xaa,0xaa,0xbe,0x7b,0x57,0x55,0xf7,0xd5,0xfd,0xff,0xfe,0xff,0xff,
 0x57,0xd5,0xff,0xff,0xff,0xff,0x5f,0x55,0x01,0xaa,0xaa,0xff,0xdf,0xb5,0xaa,
 0xdc,0xaf,0x76,0xff,0xff,0xff,0xff,0xad,0xfa,0xff,0xff,0xef,0xfd,0xbf,0xaa,
 0x02,0x75,0xd5,0xff,0x7e,0xdf,0xb7,0x7f,0xfb,0xff,0xf7,0xff,0xff,0xf7,0x53,
 0xed,0xff,0xff,0xff,0xff,0x3e,0xa5,0x00,0xad,0x6a,0xdb,0xd7,0x6b,0xad,0xb5,
 0xbf,0xdf,0xff,0xff,0xdf,0xff,0x5f,0xf5,0xff,0x7f,0xff,0xff,0xbf,0xaa,0x02,
 0x00,0x80,0xff,0xff,0x56,0xf5,0x6e,0xff,0xff,0xfe,0xfb,0xfe,0xff,0xa2,0xfa,
 0xff,0xfe,0xff,0xee,0x37,0xaa,0x02,0x00,0xc0,0xff,0xff,0xb5,0xba,0xb7,0xfd,
 0xf7,0xdf,0xff,0xff,0xff,0x5d,0xf5,0xff,0xff,0xff,0xff,0x7f,0x55,0x01,0x00,
 0xa0,0xfe,0xbf,0xeb,0x6a,0xdb,0x6f,0xff,0xff,0xff,0xff,0xff,0xa3,0xf6,0xff,
 0xff,0xef,0xff,0x5f,0x55,0x01,0x49,0x95,0xff,0xff,0xad,0xda,0xde,0xff,0xff,
 0xff,0xff,0xff,0xff,0xab,0xfa,0xff,0xff,0xff,0xff,0x7d,0xaa,0x02,0x00,0x40,
 0xff,0xee,0x93,0x76,0xfb,0xfb,0x7b,0xfb,0xff,0xff,0xff,0x54,0xf5,0xff,0xff,
 0xff,0xdf,0x1f,0x00,0x00,0x00,0x80,0xfe,0xff,0xab,0xda,0xee,0x7f,0xff,0xff,
 0xdf,0xff,0xff,0x55,0xf5,0xff,0x7f,0xff,0xfd,0x1f,0x00,0x00,0x00,0x00,0xfd,
 0x7f,0x77,0xb7,0xbb,0xff,0xdf,0xff,0xfe,0xff,0x7b,0xa9,0xf6,0xfb,0xf7,0xff,
 0xff,0x0f,0x21,0x00,0xa4,0x40,0xde,0xff,0xaf,0xdd,0xed,0xdb,0xff,0xff,0xff,
 0xfb,0xff,0xaa,0xfa,0xff,0xff,0xff,0xff,0x3f,0x08,0x01,0x00,0x02,0xfa,0xfd,
 0xfd,0x76,0xfb,0xff,0xfd,0xee,0xff,0xff,0x7f,0x55,0xf5,0xff,0xff,0xb7,0xff,
 0x0d,0x00,0x00,0x10,0x10,0xfd,0xdf,0xbf,0xbf,0xfd,0xfe,0xdf,0x7f,0xef,0xff,
 0xff,0xaa,0xfa,0xff,0xff,0xff,0xbd,0x0f,0x00,0x00,0x42,0x49,0xf4,0xff,0xff,
 0xf5,0xee,0xef,0xff,0xff,0xff,0xff,0x5f,0xaa,0xf6,0xff,0xff,0xff,0xff,0x43,
 0x24,0x00,0x10,0x02,0xfa,0xff,0xef,0xbf,0xff,0xff,0xfb,0xfb,0x7f,0xbb,0x7f,
 0xd5,0xfa,0xff,0xff,0xff,0xff,0x07,0x00,0x01,0x00,0x00,0xe0,0xfd,0xfd,0xd5,
 0xbe,0xff,0xdf,0xdf,0xfd,0xff,0x8f,0xaa,0xfe,0xff,0xff,0xff,0xf7,0x00,0x00,
 0x00,0x42,0x50,0xb5,0xff,0xff,0xb7,0xfb,0x7b,0xff,0xff,0xef,0xff,0x7f,0x55,
 0xf5,0xff,0xff,0xff,0xff,0x03,0x49,0x00,0x08,0x01,0x80,0xbe,0x1f,0x00,0xfc,
 0xff,0xff,0xff,0xff,0xf7,0x8f,0xaa,0xfd,0xff,0xff,0xdd,0xbf,0x00,0x00,0x00,
 0x00,0x04,0xa0,0xfa,0xff,0x0a,0xfd,0xff,0x7f,0xfb,0xff,0x7f,0x77,0xb5,0xfa,
 0xff,0xfe,0xff,0x7e,0x40,0x80,0x00,0x00,0x00,0x00,0x00,0x00,0x40,0xfa,0xff,
 0xff,0xbf,0x7f,0xff,0xaf,0x56,0xff,0xef,0xef,0xff,0x17,0x10,0x12,0x00,0x20,
 0x40,0x08,0x80,0x02,0x00,0xfc,0xff,0xff,0xff,0xff,0xff,0xaf,0xaa,0xbd,0xff,
 0xff,0xff,0x0f,0x00,0x00,0x00,0x00,0x00,0x00,0x00,0x00,0x88,0xfe,0xff,0xff,
 0xef,0xfd,0xfb,0xdb,0x6a,0xff,0xff,0xff,0xff,0x01,0x02,0x20,0x01,0x00,0x00,
 0x00,0x24,0x00,0x21,0xfe,0xff,0xff,0xff,0xbf,0xff,0x57,0xad,0xfa,0xff,0xff,
 0xff,0xa5,0x80,0x04,0x00,0x80,0x00,0x49,0x82,0x4a,0x84,0xfe,0xff,0xfd,0xff,
 0xff,0xef,0xae,0xeb,0xff,0xff,0xff,0x5b,0x0a,0x09,0x00,0x00,0x04,0x10,0x00,
 0x50,0x20,0x21,0xfd,0xff,0xbf,0xff,0xee,0xff,0x6b,0xb5,0xfe,0xff,0xff,0xff,
 0x52,0x22,0x91,0x00,0x00,0x40,0xb5,0xab,0xaf,0xae,0xfa,0xef,0xff,0xff,0xff,
 0xff,0xb7,0xaa,0xff,0xff,0x5f,0xa5,0xaa,0x04,0x00,0x00,0x00,0x10,0x48,0xaa,
 0xa8,0x52,0xed,0xff,0xff,0xff,0x7f,0xff,0x5b,0xdd,0xff,0xff,0xff,0x5b,0xad,
 0x52,0x02,0x00,0x20,0x42,0x82,0x24,0x25,0x49,0xfa,0xff,0xff,0xff,0xfd,0xff,
 0xb7,0x6b,0xff,0xff,0xbf,0xaa,0x2a,0x05,0x08,0x00,0x00,0x00,0x50,0x92,0x52,
 0xa5,0xfa,0xff,0xff,0xef,0xdf,0xf7,0x6d,0xfd,0xff,0xff,0xff,0x6d,0xab,0x22,
 0x41,0x00,0x00,0x00,0x00,0x00,0x00,0x00,0x54,0xff,0xff,0xff,0xff,0xbe,0xff,
 0xff,0xff,0xfd,0xff,0xbf,0x14,0x08,0x00,0x00,0x00,0x00,0x00,0x00,0x00,0x00,
 0xaa,0xfd,0xff,0xff,0xff,0xff,0xff,0xff,0xbf,0xef,0x7d,0xd7,0xa5,0x02,0x00,
 0x00,0x00,0x20,0x00,0x00,0x00,0x00,0x00,0x00,0x49,0xb5,0xff,0xff,0xfb,0x57,
 0x55,0x55,0xcb,0x14,0x02,0x00,0x00,0x00,0x20,0x00,0x00,0x00,0x00,0x00,0x54,
 0xd5,0x6a,0xfb,0xdd,0xff,0xbf,0xfd,0xef,0x7a,0x35,0xab,0x08,0x00,0x00,0x00,
 0x00,0x00,0x02,0x90,0x84,0x04,0x22,0x08,0x02,0x00,0x20,0x00,0x00,0x01,0x88,
 0x82,0x04,0x00,0x00,0x00,0x00,0x00,0x00,0x00,0x00,0x02,0x10,0x80,0x10,0xa5,
 0x54,0x95,0x4a,0xaa,0x52,0x75,0x6b,0x55,0x52,0x01,0x01,0x00,0x00,0x00,0x00,
 0x02,0x20,0x40,0x00,0x00,0x40,0x00,0x00,0x40,0x00,0x01,0x08,0x88,0x00,0x08,
 0x09,0x54,0x44,0x24,0x09,0x00,0x00,0x00,0x00,0x11,0x04,0x11,0x12,0xa9,0x52,
 0x15,0x55,0x50,0x42,0x25,0x54,0xa5,0xa0,0x02,0x10,0x00,0x00,0x00,0x00,0x00,
 0x01,0x84,0x10,0x00,0x00,0x00,0x00,0x40,0x00,0x02,0x00,0x00,0x01,0x00,0x02,
 0x90,0x00,0x00,0x80,0x00,0x00,0x00,0x48,0x00,0x40,0x04,0xa4,0x4a,0x14,0x12,
 0x80,0x10,0x29,0x40,0x10,0x91,0x20,0x04,0x88,0x00,0x00,0x00,0x00,0x00,0x00,
 0x88,0x04,0x40,0x00,0x00,0x41,0x48,0x15,0x42,0x80,0x12,0x42,0x04,0x8a,0x90,
 0x02,0x00,0x08,0x00,0x00,0x08,0x00,0x22,0x00,0x00,0x00,0x40,0x10,0x02,0x80,
 0x10,0x02,0x00,0x10,0x91,0x00,0x22,0x48,0x44,0x00,0x00,0x00,0x00,0x48,0x80,
 0xa4,0x84,0x54,0x09,0x41,0x40,0x04,0x84,0x10,0x48,0x02,0x00,0x12,0x88,0x20,
 0x00,0x00,0x00,0x00,0x00,0x00,0x29,0x00,0x20,0x00,0x40,0x08,0x11,0x21,0x21,
 0x40,0x02,0x48,0xa4,0x80,0x02,0x0a,0x01,0x40,0x00,0x00,0x00,0x00,0x00,0x00,
 0x00,0x00,0x00,0x00,0x00,0x00,0x00,0x00,0x00,0x00,0x00,0x24,0x08,0x00,0x00,
 0x00,0x00,0x00,0x00,0x24,0x00,0x24,0x09,0x00,0x00,0x00,0x00,0x00,0x00,0x04,
 0x00,0x00,0x12,0x00,0x40,0x21,0x08,0x00,0x00,0x00,0x80,0x80,0xa4,0x00,0x80,
 0x84,0x08,0x00,0x00,0x00,0x20,0x00,0x00,0x21,0x00,0x01,0x00,0x00,0x00,0x02,
 0x00,0x00,0x00,0x10,0x00,0x00,0x00,0x00,0x00,0x89,0x24,0x44,0x04,0x00,0x00,
 0x00,0x00,0x20,0x00,0x00,0x00,0x00,0x00,0x40,0x00,0x02,0x02,0x12,0x20,0x88,
 0x20,0x00,0x00,0x00,0x00,0x01,0x10,0x84,0x04,0x00,0x01,0x00,0x01,0x00,0x00};
