#define noname_width 215
#define noname_height 115
static char noname_bits[] = {
 0x00,0x00,0x00,0x00,0x80,0x04,0x42,0x22,0x05,0x45,0x52,0x12,0x48,0x22,0x12,
 0x21,0x09,0x92,0x44,0xa0,0x24,0x84,0x08,0x10,0x01,0x42,0x40,0x48,0x52,0x55,
 0xa5,0x2a,0xa8,0x28,0x91,0x50,0x29,0x25,0xa5,0x95,0x54,0xa5,0x94,0x54,0x49,
 0x29,0x15,0x49,0x29,0x45,0xa5,0x54,0x11,0x15,0x02,0x00,0x00,0x10,0x40,0x41,
 0x82,0x44,0x4a,0x52,0x48,0x12,0x22,0x89,0x94,0x2a,0xa1,0x12,0xa2,0x4a,0x92,
 0x24,0x52,0x12,0x82,0x44,0x20,0x80,0x94,0x24,0x85,0x2a,0x94,0x28,0x92,0x24,
 0x49,0x55,0x49,0x95,0x52,0xa5,0x44,0x2a,0x49,0x49,0xa0,0x24,0x49,0x89,0x44,
 0x51,0x28,0x15,0x28,0x00,0x00,0x08,0x80,0x20,0x42,0x29,0x91,0x24,0x89,0x52,
 0x54,0x0a,0x09,0xa9,0x44,0x52,0x2a,0x15,0x89,0x10,0x12,0x12,0x8a,0x82,0x40,
 0x02,0x49,0xaa,0xa2,0x2a,0x15,0x29,0x44,0x4a,0x92,0x54,0xa9,0x8a,0xa4,0xa4,
 0x12,0x29,0x29,0x45,0xa5,0x24,0xa5,0xa4,0x44,0x41,0x50,0x14,0x10,0x00,0x01,
 0x08,0x80,0xa0,0x44,0x89,0x54,0x29,0x91,0x44,0x51,0x29,0x29,0x4a,0x92,0x44,
 0x28,0x08,0x49,0x14,0x11,0x11,0x2a,0x05,0x21,0x84,0x54,0x90,0x42,0x55,0x14,
 0x51,0x52,0x82,0xa4,0x4a,0x2a,0x2a,0x55,0x95,0xa2,0x4a,0x2a,0x45,0x55,0x92,
 0x82,0xa4,0xa4,0x04,0xa8,0x14,0x20,0x00,0x02,0x08,0x00,0x41,0x04,0x81,0x54,
 0x12,0x29,0x49,0x49,0x42,0xa2,0x14,0xa9,0x90,0x14,0x21,0x49,0x54,0x02,0x11,
 0x52,0x01,0x42,0x09,0x92,0xa0,0xa2,0xaa,0x28,0xa9,0x54,0x22,0x49,0x4a,0xa5,
 0x24,0xa9,0x54,0x4a,0x12,0x4a,0x49,0x4a,0x92,0x92,0x54,0x8a,0x88,0x54,0x11,
 0x20,0x01,0x0a,0x04,0x00,0x85,0x00,0x89,0x94,0x54,0x91,0x14,0xa9,0x12,0x89,
 0xa8,0xa4,0x12,0x52,0x29,0x09,0x08,0x80,0x50,0x22,0x02,0x44,0x08,0xa4,0x20,
 0x51,0x55,0x50,0x54,0x22,0x49,0x25,0x4a,0xa5,0x4a,0xa4,0x52,0x25,0x92,0xa4,
 0x8a,0x44,0x52,0x45,0x55,0x8a,0x88,0xa8,0x12,0x20,0x00,0x82,0x00,0x80,0x02,
 0x89,0x94,0x24,0x48,0x29,0x48,0x94,0x4a,0x24,0x52,0x25,0x49,0x24,0x29,0x89,
 0x90,0xaa,0x7d,0x21,0x02,0x08,0x89,0x52,0x24,0x54,0x55,0xa8,0x52,0x42,0x92,
 0x92,0x44,0x2b,0x45,0x91,0x4a,0x29,0x52,0x92,0x92,0x44,0x52,0x4a,0x54,0xab,
 0x8a,0xa8,0x22,0x00,0x00,0x81,0x00,0x00,0x05,0x80,0x28,0x49,0x25,0x29,0xa4,
 0x14,0x2a,0x29,0x45,0x45,0x29,0x49,0x12,0x81,0xb4,0xff,0xff,0x07,0x02,0x08,
 0x92,0x48,0x28,0x94,0xaa,0xa0,0x2a,0x95,0x52,0xa8,0xa4,0x4a,0x52,0x49,0x92,
 0xa8,0x28,0x8a,0xa4,0xa4,0x54,0x4a,0xf5,0xff,0xa5,0x48,0x25,0x00,0x02,0x80,
 0x40,0x00,0x0a,0x11,0x20,0x84,0x92,0x4a,0x29,0xa5,0x92,0x24,0x05,0xa5,0x50,
 0x12,0x11,0x52,0xff,0xff,0xff,0x0f,0x02,0x00,0x48,0x90,0x2a,0x15,0x54,0xa1,
 0x48,0x95,0x52,0x2a,0x51,0x44,0x29,0x49,0x4a,0x51,0x49,0x2a,0x49,0x8a,0xd4,
 0xfa,0xff,0xff,0x97,0x20,0x29,0x02,0x41,0x00,0x40,0x01,0x14,0x22,0x22,0x24,
 0x41,0x8a,0x92,0x44,0x92,0x24,0x4a,0x92,0x44,0x22,0xb0,0xff,0xff,0xbf,0xbf,
 0x5f,0x84,0x00,0x40,0x10,0x90,0x12,0xa8,0x82,0x94,0x94,0x4a,0x2a,0xa9,0x54,
 0x92,0xaa,0x52,0x25,0x49,0x92,0x94,0xaa,0xea,0xff,0xff,0xfb,0x1f,0x21,0x24,
 0x14,0x82,0x42,0x48,0x02,0x54,0x40,0x22,0x91,0x54,0x12,0x89,0x54,0x44,0x8a,
 0x48,0x92,0x24,0x42,0xfd,0xff,0xff,0xff,0xff,0x3f,0x08,0x10,0x00,0x24,0x10,
 0x02,0xa4,0x02,0x95,0x48,0x2a,0x09,0xa5,0x52,0x8a,0x92,0x24,0x25,0x49,0x49,
 0x29,0xed,0xff,0xbf,0xfb,0xff,0x7f,0x40,0x05,0xa2,0x00,0x89,0x48,0x11,0x28,
 0x22,0x92,0x40,0x52,0x94,0xa4,0x28,0x55,0xa9,0xa8,0x24,0xa2,0xfa,0xff,0xff,
 0xff,0xff,0xde,0x3b,0x02,0x10,0x08,0x50,0x20,0x20,0x24,0x45,0x11,0x49,0x2a,
 0x49,0x49,0x12,0x95,0x22,0x14,0x15,0x12,0x29,0x55,0xff,0xff,0xff,0xff,0xff,
 0xff,0xa8,0x04,0x20,0x01,0x01,0xd5,0x2b,0x10,0x44,0x24,0x49,0x92,0x92,0xa4,
 0x20,0x94,0x42,0xa0,0xf4,0xff,0xff,0xff,0xff,0xfb,0xff,0xff,0x5f,0x02,0x10,
 0x04,0x48,0x54,0xa4,0x54,0x85,0x22,0x89,0x24,0x49,0xa4,0x2a,0xad,0xa5,0xa8,
 0x2a,0x55,0xd5,0xff,0xff,0xbf,0xff,0xff,0xff,0x7f,0x40,0x22,0x90,0x04,0x00,
 0xfd,0x2f,0x10,0x88,0x50,0x92,0x94,0x12,0x51,0x42,0xa8,0xf6,0xd5,0xff,0xff,
 0xff,0xf7,0xff,0xff,0xff,0xff,0x3f,0x04,0x00,0x04,0x20,0x49,0x6a,0x15,0xa5,
 0x52,0x8a,0x48,0x4a,0xa9,0x8a,0x94,0x56,0x5b,0xad,0xf6,0xff,0xbb,0xff,0xff,
 0xbf,0xdf,0x77,0x5f,0x21,0x15,0xa0,0x02,0xa0,0xff,0x25,0x08,0x04,0x21,0x91,
 0x10,0x45,0x54,0x12,0xfd,0xff,0xff,0xff,0xff,0xff,0xff,0xff,0xff,0xff,0xff,
 0x3f,0x04,0x00,0x04,0x50,0x89,0x7e,0x93,0xa2,0xa2,0x48,0x4a,0x4a,0x92,0x22,
 0xa5,0xfe,0xff,0xff,0xbf,0xff,0xff,0x7f,0xf7,0xff,0xff,0xff,0xbf,0x90,0x24,
 0x10,0x02,0xd0,0xff,0x04,0x0d,0x08,0x05,0x91,0xa4,0x24,0x49,0xe8,0xff,0xff,
 0xff,0xfd,0xdf,0xfe,0xff,0xff,0xff,0xff,0xff,0x0f,0x00,0x00,0x84,0x90,0xe4,
 0xbf,0x53,0xaa,0x52,0xa8,0x24,0x29,0x52,0x2a,0x55,0xff,0xff,0xf7,0xff,0xff,
 0xff,0xff,0xff,0xff,0xff,0xff,0x7f,0x24,0x29,0x20,0x02,0xfa,0x7f,0xa5,0x52,
 0x15,0x41,0x92,0xa4,0x24,0xa1,0xfe,0xff,0xdf,0xff,0xff,0xfb,0xbf,0xff,0xff,
 0xff,0xfd,0xff,0x15,0x01,0x00,0x8a,0xa0,0xa0,0xdf,0x12,0x55,0x94,0x94,0x24,
 0x49,0x92,0x4a,0xf5,0xff,0xfd,0xff,0xff,0xff,0xff,0xff,0xff,0xff,0xff,0xef,
 0x0f,0x40,0x12,0x00,0x04,0xfe,0x7b,0xeb,0x8a,0x17,0x22,0x92,0x24,0x49,0xfa,
 0xff,0xff,0xff,0xff,0x7f,0xdf,0xff,0xfb,0xbf,0xbb,0xdf,0xff,0x45,0x12,0x40,
 0x20,0x21,0xf9,0xdf,0x95,0x2a,0x95,0x88,0x24,0x91,0x24,0xd5,0x7f,0xef,0xf7,
 0x7f,0xff,0xff,0xff,0xff,0xfd,0xff,0xff,0xff,0x93,0x00,0x15,0x02,0x84,0xfe,
 0xff,0x6e,0x40,0x55,0x22,0x90,0xa4,0xfa,0xff,0xf7,0x7f,0xff,0xfe,0xef,0xff,
 0xfd,0xbf,0xff,0xff,0xff,0xff,0x00,0x24,0x00,0x28,0x91,0xfe,0xfb,0x55,0xab,
 0x16,0x90,0x4a,0x92,0xd2,0xff,0xfe,0xff,0xff,0xf7,0xff,0xef,0xdf,0xff,0xff,
 0xff,0xff,0xff,0x2b,0x81,0x24,0x00,0x40,0xff,0xff,0x57,0x95,0xd4,0x0a,0x22,
 0xf4,0xff,0xdf,0xff,0xef,0xef,0xff,0x7d,0xff,0xff,0xff,0xff,0xff,0xfd,0x7f,
 0x00,0x04,0x00,0x45,0x2a,0xfd,0x7f,0x5b,0xa9,0xaa,0x42,0x91,0xea,0xff,0xff,
 0xdf,0xff,0xfd,0xff,0xff,0xff,0xff,0xff,0xff,0xdf,0xff,0xfd,0x0a,0x21,0x25,
 0x10,0x80,0xbe,0xff,0x6f,0x55,0x55,0x2d,0x44,0xfd,0xdf,0xf6,0xfe,0xfd,0xff,
 0xbf,0xdf,0xff,0xff,0xff,0xff,0xfb,0xdf,0xbf,0x00,0x08,0x00,0x04,0x89,0xfe,
 0xdf,0xbb,0xaa,0xaa,0x8a,0x22,0xbb,0xff,0xff,0xfb,0xff,0xff,0xff,0xff,0xff,
 0xff,0xfd,0xff,0xff,0xff,0x7f,0x40,0x82,0x28,0x20,0x20,0xf6,0xff,0x6f,0x5f,
 0x6d,0x1f,0xc8,0xff,0xfd,0xff,0xff,0xff,0x7f,0xf7,0xff,0xff,0xff,0xff,0xff,
 0xff,0xff,0xbf,0x04,0x11,0x02,0x48,0x0a,0xfd,0x7f,0xbb,0xa9,0xb5,0x57,0xa5,
 0xfd,0xdf,0xfb,0xff,0x7b,0xff,0xff,0xfb,0xff,0xff,0xff,0xff,0xff,0xff,0x7f,
 0x40,0x84,0x10,0x02,0xa0,0xfe,0xfd,0xed,0xb6,0xde,0x1f,0xf4,0xef,0xff,0xdf,
 0xff,0xff,0xef,0xff,0xff,0xff,0xff,0xff,0xff,0xff,0xfe,0x17,0x05,0x10,0x42,
 0x80,0x04,0xfe,0xff,0xb7,0xad,0xf5,0x3e,0xf9,0xff,0x7f,0xff,0xff,0xff,0xff,
 0xbf,0xff,0xfe,0xff,0xdf,0x7f,0xff,0xff,0x3f,0xa0,0x84,0x10,0x14,0x90,0xfe,
 0xbf,0x5a,0x7b,0xff,0xcf,0xdf,0xbe,0xfd,0x7f,0xdf,0xff,0xfe,0xff,0xff,0xff,
 0xff,0xff,0xf7,0xff,0x7f,0x0f,0x09,0x50,0x02,0x21,0x05,0xfe,0xff,0xd5,0xd6,
 0xda,0x5f,0xfd,0xf7,0xff,0xef,0x7f,0xff,0xff,0xff,0xff,0xff,0xff,0xff,0xff,
 0xef,0xff,0x4f,0x00,0x05,0x28,0x00,0x90,0xf4,0xff,0xb6,0xed,0xff,0xff,0xff,
 0xff,0xf7,0xfd,0xff,0xff,0xff,0xff,0xf7,0xff,0xff,0xff,0xff,0xff,0xf7,0x07,
 0x2a,0x90,0x00,0x48,0x02,0xfd,0xff,0xad,0xb6,0xf6,0xff,0xdf,0xfd,0xbf,0xff,
 0xff,0xff,0xff,0xff,0xff,0xff,0xff,0xff,0xff,0xff,0xff,0x97,0x80,0x04,0x24,
 0x02,0x48,0xe8,0xff,0xbb,0xed,0xdb,0x7b,0xff,0xbf,0xff,0xff,0xfb,0xff,0xff,
 0xfb,0xff,0xff,0xfe,0xff,0xff,0xff,0xff,0x0b,0x00,0x50,0x00,0x90,0x02,0xf5,
 0xdf,0x56,0xbb,0xfe,0xff,0xff,0xff,0xf7,0xff,0xff,0xff,0xff,0xff,0xff,0xff,
 0xff,0xff,0xff,0xff,0xff,0x07,0x94,0x04,0x2a,0x00,0x10,0xa0,0xff,0xff,0xd6,
 0xea,0xff,0xff,0xff,0x7f,0xdf,0xdf,0xf7,0xff,0xff,0xfe,0xff,0xff,0xff,0xff,
 0xff,0xff,0x51,0x00,0x20,0x01,0x4a,0x04,0x69,0xff,0x5f,0x7b,0xff,0xdf,0xf7,
 0xf7,0xff,0xff,0xff,0xff,0xdf,0xff,0xff,0xff,0xff,0xff,0xff,0xfd,0xfd,0x03,
 0xa5,0x0a,0x10,0x00,0x21,0xc0,0xfa,0xff,0xee,0xf5,0x7d,0xff,0xff,0xff,0xff,
 0xff,0xff,0xff,0xff,0xff,0xff,0xbf,0xbf,0xf7,0xff,0x7f,0x10,0x00,0xa0,0x04,
 0x50,0x40,0x2a,0xff,0xaf,0xb5,0xfe,0xff,0x7f,0xff,0xff,0xf7,0xff,0xff,0xff,
 0xff,0xff,0xff,0xff,0xff,0xff,0xdf,0xff,0x81,0x48,0x08,0x21,0x00,0x00,0x00,
 0x10,0xb9,0xdf,0xfd,0xef,0xfd,0xff,0xff,0x7f,0xff,0xff,0xfe,0xff,0xff,0xef,
 0xff,0xff,0xff,0xff,0x3f,0x04,0x02,0x01,0x04,0x00,0x00,0x00,0xea,0x6e,0x75,
 0xff,0xfd,0xff,0xfb,0xfd,0xff,0xff,0xff,0xff,0xff,0xff,0xff,0xfb,0xff,0xff,
 0xff,0xff,0x40,0x20,0x90,0x10,0x00,0x09,0x40,0x00,0x80,0xda,0xbe,0xff,0xef,
 0xff,0xdf,0xff,0xff,0xff,0xff,0xff,0xdf,0xd4,0xff,0xff,0xdf,0xff,0x1f,0x08,
 0x89,0x42,0x42,0x24,0x40,0x12,0x00,0x51,0x6d,0xff,0xff,0xfe,0xff,0xff,0xff,
 0xff,0xfb,0xff,0xff,0xff,0xff,0xff,0xff,0xff,0xfd,0x3f,0x00,0x02,0x10,0x10,
 0xad,0x57,0xad,0xad,0x4a,0xda,0xef,0xef,0x7f,0xff,0xff,0xff,0xff,0xff,0xff,
 0xff,0x5b,0xaa,0xbf,0xf7,0xf7,0xff,0x07,0x00,0x00,0x00,0x00,0x52,0xa9,0x52,
 0x55,0x29,0xb5,0xfe,0xff,0xff,0xff,0xff,0xff,0xff,0xff,0xff,0xf7,0xbf,0xfb,
 0xf6,0xff,0xff,0xff,0x8f,0x48,0x20,0x89,0x04,0x6d,0x55,0xad,0xaa,0xd6,0xea,
 0xff,0xfe,0xf7,0xff,0xff,0xff,0xfb,0xff,0xff,0xff,0x56,0xd6,0xdd,0xff,0xff,
 0xff,0x23,0x25,0x95,0x24,0x29,0x55,0xad,0x55,0x55,0x55,0x55,0xfd,0xff,0xbf,
 0xff,0xff,0xef,0xff,0x7f,0xff,0xff,0xbf,0x6b,0xf7,0xb7,0xff,0xff,0x97,0x48,
 0x22,0x49,0x12,0x6a,0x55,0xaa,0xaa,0xaa,0xaa,0xff,0xff,0xfe,0xdd,0xff,0xff,
 0xff,0xff,0xff,0xff,0xd5,0xae,0xbd,0xfd,0xfe,0xef,0xaa,0xaa,0xad,0x56,0x55,
 0xaa,0x55,0xab,0xb6,0xaa,0xb6,0xfa,0xff,0xff,0xff,0xff,0xfe,0xff,0xff,0xff,
 0x7f,0x7f,0x75,0xef,0xbf,0xff,0xff,0x53,0x55,0x52,0x55,0x55,0x55,0x55,0x55,
 0x55,0xb5,0x6a,0xff,0xff,0xff,0xff,0xfd,0xff,0xff,0xff,0x7f,0xeb,0xd5,0xda,
 0xfb,0xb7,0xfa,0xff,0x54,0x55,0xad,0xaa,0x2a,0xaa,0xaa,0x6a,0xab,0x56,0x95,
 0xfd,0xff,0xff,0xff,0xdf,0xff,0xff,0xff,0xff,0x77,0x5f,0x6f,0xff,0x6e,0xbd,
 0xff,0xab,0xaa,0xaa,0xaa,0x5a,0x7d,0x6d,0x57,0x5d,0xad,0x6d,0xff,0xfb,0xdf,
 0xfb,0xff,0xff,0xff,0xfe,0xf7,0x54,0xb5,0xda,0xff,0x5b,0x65,0x55,0xaa,0xaa,
 0x55,0x55,0x55,0xa5,0xaa,0x59,0xab,0x52,0xd5,0xfe,0xff,0xfd,0xff,0xff,0xff,
 0xff,0xff,0xbf,0xab,0xdb,0x75,0x77,0xbf,0xda,0xbe,0x55,0xb5,0xaa,0xaa,0x2a,
 0x00,0x00,0x00,0x00,0x88,0x88,0xda,0xff,0xff,0xff,0xff,0xff,0xff,0xff,0xbf,
 0xd4,0xb6,0xff,0xff,0xad,0x24,0x51,0x5b,0x55,0x55,0x55,0x55,0x00,0x00,0x00,
 0x00,0x22,0x55,0xfd,0xff,0xff,0xbf,0xfb,0xff,0xff,0xef,0x5e,0xb2,0xad,0xda,
 0xbd,0x5b,0xd5,0xd6,0x6a,0xab,0xaa,0xad,0x2a,0x10,0x01,0x00,0x49,0x00,0x00,
 0xc0,0xff,0xff,0xff,0xff,0xff,0xfb,0xff,0x83,0x6a,0x91,0xfe,0xef,0x3f,0xa9,
 0xaa,0xd6,0xb6,0xdd,0xf6,0x76,0x44,0x20,0x49,0x00,0x10,0x00,0xb0,0xff,0xff,
 0xff,0x7f,0xff,0xff,0xfe,0x57,0x5d,0x25,0xf5,0xff,0xad,0xaa,0xda,0xaa,0xaa,
 0x66,0x95,0x2a,0x00,0x00,0x00,0x90,0x42,0x8a,0x40,0xfe,0xff,0xff,0xff,0xff,
 0xff,0xbf,0x40,0xb5,0x00,0xe8,0xff,0x57,0x54,0x05,0x00,0x00,0x00,0x00,0x00,
 0x00,0x08,0x10,0x04,0x80,0x20,0xaa,0xfd,0xff,0xff,0xef,0xff,0xff,0xff,0x52,
 0xad,0x00,0x74,0x77,0x97,0xaa,0x05,0x00,0x00,0x00,0x00,0x00,0x08,0x41,0x80,
 0x20,0x0a,0x02,0x00,0xfa,0xff,0xff,0xfd,0xfd,0xff,0x02,0xa8,0x17,0xaa,0xc0,
 0xfe,0x4b,0x69,0x05,0x49,0x55,0x00,0x22,0x09,0x40,0x00,0x04,0x84,0xa0,0xa8,
 0xaa,0xfc,0xff,0xff,0xff,0xff,0xff,0x0b,0xa2,0xac,0x00,0x95,0xff,0x57,0x54,
 0x55,0x92,0xa2,0xaa,0x48,0x20,0x04,0x24,0x11,0x00,0x00,0x00,0x00,0xf1,0xff,
 0xff,0x7f,0xff,0x07,0x80,0xd4,0x13,0x52,0x00,0xfc,0x80,0xaa,0x02,0x00,0x08,
 0x00,0x00,0x02,0x20,0x01,0x00,0x29,0x8a,0x94,0x54,0xd4,0xff,0xff,0xff,0xff,
 0x7f,0x21,0x54,0x8d,0x04,0xa9,0xea,0x4b,0xa4,0x05,0x08,0x81,0x02,0x00,0x08,
 0x82,0x54,0x55,0x44,0x51,0x22,0x81,0xa2,0xff,0xff,0xff,0x77,0x01,0x84,0xba,
 0x01,0x10,0x04,0x70,0x20,0x5b,0xab,0x20,0x48,0x90,0x92,0x40,0x28,0x00,0x80,
 0x22,0x0a,0x49,0x54,0x50,0xff,0xff,0xff,0xff,0x05,0x41,0xd5,0x52,0x45,0x91,
 0xea,0x41,0x55,0x05,0x0a,0x02,0x04,0x04,0x02,0x80,0x24,0x09,0x08,0x20,0x24,
 0x81,0x8a,0xe8,0xff,0xff,0x3f,0x10,0xb4,0xb6,0x08,0x08,0x42,0x80,0x94,0xba,
 0x0a,0xa0,0x48,0x50,0x50,0x08,0x10,0x00,0x42,0x82,0x4a,0x49,0x54,0x50,0xfd,
 0xff,0xff,0x7f,0x45,0x49,0xad,0x44,0xa5,0x14,0x69,0x49,0x55,0x45,0x09,0x10,
 0x05,0x05,0x22,0x42,0x92,0x08,0x29,0x20,0x00,0x81,0x02,0x40,0xff,0xff,0x2f,
 0x88,0xaa,0x15,0x22,0x10,0x00,0x90,0x50,0x4b,0x09,0x20,0x02,0x00,0x00,0x00,
 0x08,0x00,0x40,0x80,0x8a,0x52,0x28,0x50,0xd5,0xff,0xff,0x5f,0xa5,0xd4,0xae,
 0x08,0x45,0xa9,0x64,0x95,0x2a,0x4a,0x8a,0x40,0xa2,0x50,0x29,0x00,0x00,0x02,
 0x04,0x00,0x00,0x41,0x05,0x22,0xff,0xff,0x15,0xa9,0xb6,0x05,0x90,0x10,0x45,
 0x8a,0x48,0x92,0x52,0x11,0x0a,0x09,0x05,0x00,0x80,0xa4,0x28,0xa1,0x90,0x54,
 0x14,0x50,0x91,0xfe,0xff,0x9f,0x54,0xab,0x4a,0x25,0xa4,0x20,0x69,0x45,0x49,
 0x29,0x4a,0x51,0x40,0x48,0x12,0x04,0x00,0x00,0x04,0x02,0x02,0xa1,0xaa,0xd6,
 0xfd,0xbf,0xa5,0x56,0x75,0x95,0x4a,0x95,0xae,0x52,0x15,0x02,0xa4,0x24,0x8a,
 0x8a,0x00,0x00,0x40,0x08,0x82,0xa2,0xa8,0x40,0x94,0x4a,0x55,0xf6,0xff,0x5b,
 0xb5,0x9a,0x53,0xa9,0x52,0x49,0xaa,0x56,0x51,0xa9,0x4a,0x21,0x51,0x24,0x09,
 0x00,0x42,0x28,0x14,0xa5,0x5e,0x6b,0xb5,0xda,0xdd,0x7f,0x56,0xad,0x75,0xaa,
 0xaa,0xaa,0xba,0xdd,0xad,0x04,0x90,0x94,0x56,0x02,0x01,0x00,0x10,0x10,0x82,
 0x42,0x2a,0xa1,0x54,0x55,0xad,0xf6,0xbf,0xab,0xd5,0xae,0x5b,0xad,0xb6,0xa6,
 0xaa,0x76,0x12,0x4a,0xa5,0x88,0x54,0x10,0x21,0x00,0x80,0x10,0x28,0xa1,0xaa,
 0xaa,0xd6,0x5a,0xf5,0xff,0x5a,0x6d,0xb5,0x6a,0xdb,0xda,0x5a,0x55,0xad,0xad,
 0x20,0x00,0x00,0x00,0x04,0x04,0x44,0x22,0x84,0x04,0x28,0x29,0x55,0x5b,0xd7,
 0x6d,0xbf,0xd7,0x5a,0xdb,0xb6,0xb5,0x56,0x6d,0xab,0x76,0x55,0x40,0x55,0x12,
 0x81,0x80,0x00,0x00,0x00,0x00,0x40,0x02,0x40,0xa2,0x54,0x6d,0xdb,0xff,0xaf,
 0xea,0xb6,0x6a,0xad,0xad,0xd5,0xda,0xdb,0x52,0x05,0x00,0x01,0x08,0x00,0x10,
 0x00,0x08,0x41,0x10,0x40,0x95,0x54,0xaa,0xb5,0xb6,0xff,0x77,0x5b,0x5b,0x5d,
 0x6b,0xd5,0xaa,0xaa,0x5e,0x55,0x01,0x55,0x24,0x01,0x48,0x00,0x00,0x00,0x00,
 0x00,0x00,0x00,0x80,0x48,0xaa,0xdd,0xff,0xff,0xff,0xf7,0xaa,0xaa,0x5a,0x55,
 0xf5,0xab,0xaa,0x0a,0x00,0x01,0x48,0x00,0x02,0x00,0x00,0x08,0x00,0x02,0x00,
 0x28,0xa5,0xaa,0xea,0xff,0xff,0xd5,0x2f,0xd7,0xaa,0xaa,0x5a,0x55,0xbd,0xaa,
 0xa5,0x54,0x50,0x02,0x22,0x00,0x10,0x00,0x00,0x00,0x00,0x80,0x00,0x00,0x00,
 0x20,0x88,0x24,0x2d,0x49,0x20,0x04,0x82,0xa4,0xaa,0x55,0x55,0x15,0x02,0x03,
 0x11,0x88,0x48,0x00,0x91,0x00,0x22,0x88,0x10,0x02,0x20,0x44,0x95,0xb7,0x5a,
 0xeb,0xaa,0x8a,0xa2,0x28,0x49,0xd4,0xae,0xaa,0xda,0x40,0x54,0x84,0x02,0x02,
 0x00,0x00,0x20,0x00,0x00,0x00,0x10,0x01,0x01,0x40,0x00,0x00,0x00,0x00,0x00,
 0x08,0x01,0x00,0x22,0xa9,0x6a,0xf7,0x2f,0x05,0x00,0x00,0x00,0x04,0x00,0x00,
 0x00,0x01,0x22,0x00,0x08,0x20,0x12,0x94,0x52,0x29,0x2a,0x21,0x40,0x24,0x80,
 0xa8,0x56,0x55,0x6d,0x95,0x82,0x10,0x00,0x00,0x00,0x00,0x04,0x00,0x10,0x00,
 0x00,0x00,0x80,0x40,0x21,0x08,0x84,0x80,0x88,0x04,0x80,0x24,0x02,0x00,0x00,
 0x50,0x55,0x15,0x00,0x00,0x00,0x80,0x00,0x40,0x24,0x80,0x80,0x44,0x40,0x12,
 0x14,0x94,0x22,0x21,0x2a,0x00,0x20,0x15,0x00,0x50,0x15,0x10,0x55,0xab,0x00,
 0x04,0x20,0x00,0x00,0x84,0x00,0x00,0x00,0x00,0x00,0x00,0x40,0x40,0x00,0x00,
 0x00,0x80,0x00,0x00,0x00,0x88,0x04,0x00,0x01,0x00,0x00,0x00,0x20,0x81,0x04,
 0x10,0x00,0x00,0x00,0x04,0x10,0x00,0x12,0x01,0x88,0x44,0x00,0x12,0x11,0x12,
 0x09,0x00,0x21,0x20,0x09,0x00,0xa4,0x00,0x10,0x01,0x08,0x00,0x00,0x00,0x00,
 0x00,0x00,0x00,0x00,0x00,0x54,0x21,0x12,0x25,0x40,0x04,0x00,0x00,0x40,0x80,
 0x84,0x24,0x20,0x01,0x00,0x02,0x00,0x00,0x00,0x00,0x20,0x08,0x81,0x40,0x02,
 0x00,0x80,0x00,0x08,0x00,0x00,0x09,0x20,0x49,0x40,0x04,0x10,0x21,0x00,0x04,
 0x10,0x48,0x00,0x00,0x00,0x00,0x00,0x00,0x00,0x04,0x12,0x90,0x54,0x22,0x88,
 0xa4,0x54,0x08,0x20,0x01,0x00,0x00,0x00,0x42,0x94,0x02,0x40,0x00,0x00,0x00,
 0x12,0x00,0x00,0x00,0x02,0x00,0x20,0x00,0x00,0x00,0x00,0x22,0x00,0x01,0x22,
 0x02,0x48,0x12,0x12,0x21,0x10,0x01,0x50,0x02,0x09,0x02,0x40,0x80,0x20,0x12,
 0x20,0x00,0x00,0x00,0x00,0x00,0x00,0x00,0x00,0x00,0x00,0x00,0x00,0x00,0x00,
 0x00,0x00,0x00,0x88,0x00,0x10,0x00,0x00,0x00,0x00,0x00,0x00,0x00,0x00,0x21,
 0x00,0x00,0x00,0x00,0x44,0x00,0x09,0x40,0x00,0x00,0x00,0x80,0x00,0x00,0x88,
 0x20,0x08,0x00,0x00,0x00,0x08,0x00,0x04,0x00,0x00,0x00,0x00,0x00,0x00,0x02,
 0x20,0x00,0x49,0x20,0x0a,0x02,0x20,0x02,0x01,0x00,0x00,0x00,0x00,0x40,0x00,
 0x00,0x40,0x00,0x00,0x00,0x00,0x04,0x44,0x84,0x00,0x00,0x00,0x04,0x22,0x00,
 0x00,0x00,0x00,0x04,0x20,0x10,0x08,0x00,0x00,0x00,0x08,0x04,0x00,0x00,0x00,
 0x02,0x80,0x00,0x00,0x00,0x00,0x08,0x11,0x40,0x80,0x08,0x02,0x82,0x40,0x08,
 0x00,0x00,0x00,0x00,0x22,0x02,0x02,0x01,0x00,0x00,0x00,0x00,0x90,0x00,0x04};
