#define noname_width 195
#define noname_height 190
static char noname_bits[] = {
 0x00,0x00,0x00,0x00,0x00,0x21,0x48,0x4a,0x29,0x91,0x92,0x24,0xa5,0x28,0xa9,
 0x52,0xaa,0x22,0x29,0x95,0xaa,0x52,0xaa,0x2a,0x05,0x48,0x92,0x24,0x55,0x55,
 0x88,0x12,0x10,0x84,0x24,0x24,0x91,0x10,0x8a,0x04,0x08,0x11,0x48,0x92,0x20,
 0x40,0x08,0x12,0x41,0x02,0x02,0x08,0x42,0x00,0x80,0x22,0xa0,0xa2,0x52,0x92,
 0x48,0x4a,0xaa,0x50,0x6a,0xa5,0x4a,0x95,0x24,0x95,0x95,0x52,0xa9,0xac,0x04,
 0x40,0x42,0x10,0x24,0x29,0x88,0x0a,0x08,0x88,0x48,0x92,0x24,0x05,0x25,0x11,
 0x92,0x50,0x42,0x92,0x48,0x48,0x94,0x04,0x02,0x01,0x14,0x11,0x41,0x11,0x84,
 0x22,0xa4,0x52,0x25,0x25,0x49,0x92,0xa8,0x94,0xa4,0x24,0x85,0x94,0x44,0x22,
 0x25,0x21,0x52,0x29,0x02,0x01,0x00,0x10,0x04,0x41,0x08,0x11,0x84,0x40,0x40,
 0x92,0x44,0x4a,0x22,0x12,0x49,0x28,0x21,0x91,0x94,0x88,0x14,0x11,0x84,0x00,
 0x48,0x52,0x85,0x50,0x14,0xa1,0xa0,0x28,0x95,0x2a,0x49,0x92,0x28,0x49,0x49,
 0x92,0xa2,0x94,0x24,0x21,0x25,0xa2,0xa4,0x52,0x02,0x00,0x04,0x20,0x04,0x42,
 0x14,0x0a,0x42,0x22,0x44,0x92,0x24,0x45,0x24,0x92,0x24,0x09,0x25,0x49,0x4a,
 0x12,0x09,0x49,0x10,0x01,0x92,0x20,0x89,0x50,0x08,0x41,0xa8,0x14,0x49,0x89,
 0x24,0x91,0x88,0x92,0x24,0x89,0x54,0x88,0x24,0x94,0xa4,0x24,0x22,0xa5,0x04,
 0x00,0x08,0x02,0x04,0x42,0x10,0x05,0x41,0x92,0x24,0x49,0x24,0x25,0x49,0x49,
 0x52,0x82,0x22,0x89,0x22,0x49,0x92,0x88,0x08,0x00,0x24,0x41,0xa8,0x50,0x94,
 0x4a,0x28,0x2a,0x24,0x49,0x22,0x49,0xa8,0x24,0x92,0x44,0x55,0x4a,0x52,0x44,
 0x92,0x24,0x25,0xa5,0x02,0x00,0x10,0x02,0x04,0x21,0x00,0x02,0x01,0x49,0x22,
 0x91,0x24,0x05,0x92,0x24,0x29,0x88,0x90,0x84,0x92,0x54,0x49,0x40,0x10,0x00,
 0x52,0x42,0x28,0x91,0x84,0xaa,0x54,0xaa,0x84,0x94,0x24,0x49,0x52,0x49,0x4a,
 0x42,0x25,0x25,0x12,0x24,0x49,0x92,0x8a,0xa2,0x02,0x80,0x10,0x02,0x24,0x20,
 0x00,0x81,0x00,0x51,0x22,0x49,0x92,0x28,0x22,0x21,0x91,0x90,0x48,0x49,0x89,
 0x24,0x25,0x21,0x94,0x00,0x02,0x42,0x48,0x80,0x42,0x55,0x14,0x55,0x84,0x44,
 0x24,0x49,0x42,0x94,0x4a,0x2a,0x25,0x25,0x92,0x24,0x55,0x95,0x94,0x20,0x02,
 0x48,0x08,0x01,0x25,0x10,0x00,0x41,0x10,0x29,0x12,0x89,0x24,0xa9,0x42,0x90,
 0x44,0x92,0x80,0x44,0x92,0x90,0x24,0x42,0x0a,0x01,0x00,0x21,0x14,0x90,0x4a,
 0x95,0x94,0x4a,0xa2,0xa8,0x24,0x49,0x12,0x95,0x4a,0x92,0x24,0x55,0x12,0x49,
 0xa6,0x92,0x14,0x51,0x04,0x24,0x08,0x81,0x04,0x00,0x00,0x22,0x80,0x08,0x05,
 0x49,0x92,0x88,0x20,0x91,0x24,0x91,0x88,0xa4,0x10,0x51,0x29,0x41,0x0a,0x01,
 0x90,0x20,0x24,0xa2,0x54,0x55,0x48,0x55,0x52,0xa8,0x24,0x49,0x52,0x96,0x24,
 0x89,0x24,0x25,0x12,0xa5,0x94,0x4a,0x2a,0x50,0x04,0x02,0x04,0x81,0x08,0x01,
 0x00,0x12,0x02,0x89,0x12,0x48,0x22,0x25,0x21,0x49,0x22,0x89,0x90,0xa4,0x40,
 0x4a,0x95,0x84,0x0a,0x01,0x40,0x10,0x24,0x20,0x54,0x55,0x41,0x54,0x24,0xa2,
 0x92,0x94,0x48,0x4a,0x22,0x49,0x52,0x4a,0x12,0x95,0x50,0x29,0x11,0x50,0x04,
 0x08,0x85,0x00,0x0a,0x01,0x00,0x14,0x11,0x89,0x94,0x24,0x42,0x92,0x90,0x94,
 0x90,0x88,0x84,0x84,0x24,0x95,0xa6,0x48,0x05,0x01,0x02,0x20,0x92,0x20,0x24,
 0x55,0xa2,0x44,0x24,0x22,0x91,0x14,0x25,0x25,0x22,0x25,0x51,0x52,0x52,0x92,
 0xa4,0x54,0x25,0x52,0x04,0x90,0x08,0x00,0x08,0x81,0x80,0x08,0x92,0x92,0x48,
 0x44,0xa2,0x48,0x92,0x48,0x48,0x0a,0x91,0x08,0x21,0xa9,0x2a,0x88,0x08,0x01,
 0x04,0x42,0x55,0x22,0x14,0x2a,0x52,0x24,0x48,0x91,0x92,0x14,0x25,0x49,0x25,
 0x25,0x51,0x4a,0xa2,0x94,0x24,0xa5,0x22,0x51,0x04,0x80,0x10,0x00,0x00,0x81,
 0x00,0x04,0x89,0x12,0x44,0x48,0xa2,0x48,0x22,0x40,0x42,0x24,0x91,0x28,0x22,
 0x92,0x52,0x49,0x04,0x01,0x08,0x40,0x90,0x2a,0x14,0x55,0x51,0x24,0xa4,0x2a,
 0x25,0x45,0x92,0x94,0x2a,0x29,0x49,0x44,0x42,0x44,0xa9,0x8a,0x84,0x28,0x04,
 0x42,0x0a,0x04,0x00,0x41,0x00,0x88,0x42,0x09,0x81,0x90,0x90,0x44,0x42,0x45,
 0x44,0x92,0x2a,0x29,0x29,0x94,0x54,0x22,0x42,0x01,0x10,0xa0,0x50,0x52,0x04,
 0x55,0x25,0x08,0x51,0x2a,0x25,0x25,0x29,0x29,0x88,0x12,0x49,0x90,0x44,0xa2,
 0x52,0x55,0x49,0x14,0x02,0x04,0x09,0x04,0x04,0x51,0x00,0x80,0x52,0x84,0x90,
 0x48,0x92,0x44,0x92,0x52,0x48,0x12,0x25,0x90,0x14,0x49,0x55,0x92,0x82,0x00,
 0x10,0x20,0x91,0x10,0x84,0xaa,0x0a,0x82,0x12,0x25,0x25,0x49,0x29,0x49,0x8a,
 0x92,0xa4,0x94,0x4a,0xa2,0x54,0x95,0x44,0x28,0x02,0x42,0x0a,0x04,0x02,0x21,
 0x00,0xa0,0x50,0xa4,0x88,0x48,0x24,0x4a,0x12,0xa1,0x24,0x11,0x22,0x11,0x11,
 0x25,0x55,0x11,0x84,0x00,0x08,0xa0,0x50,0x28,0x84,0xaa,0x12,0x85,0x48,0x52,
 0x22,0x49,0x91,0xa4,0x14,0x49,0xa2,0x48,0xa2,0xa4,0xa8,0x2a,0x45,0x51,0x02,
 0x80,0x04,0x02,0x02,0x51,0x00,0x44,0x28,0x12,0x89,0x88,0x24,0x24,0x11,0x49,
 0x22,0x49,0x92,0x14,0x12,0xaa,0x52,0x21,0x08,0x00,0x22,0x10,0x48,0x28,0x02,
 0x55,0x91,0x42,0x49,0x12,0x25,0x49,0x49,0x4a,0x92,0x94,0x24,0x45,0xa2,0x48,
 0x55,0x55,0x8a,0xa2,0x02,0x08,0x42,0x02,0x82,0x50,0x00,0x04,0x10,0x82,0xa4,
 0x90,0x24,0x12,0x91,0x44,0x22,0x92,0x90,0x48,0x22,0x48,0x55,0x25,0x10,0x00,
 0x40,0x08,0xa8,0x08,0x0a,0x55,0xa8,0x4a,0x54,0x08,0x25,0x49,0x49,0x4a,0x29,
 0x49,0x49,0x4a,0x12,0x89,0x54,0x55,0x49,0xa5,0x02,0x12,0x00,0x02,0xa2,0x40,
 0x80,0x02,0x20,0x89,0x52,0x92,0x24,0x22,0x21,0x84,0x24,0x22,0x92,0x88,0x00,
 0x00,0x55,0x15,0x08,0x00,0x40,0xa9,0x48,0x08,0x25,0x25,0x54,0x95,0x24,0xa2,
 0x24,0x49,0x49,0x4a,0x29,0x92,0x94,0x24,0x25,0xaa,0xa4,0xaa,0x4a,0x51,0x05,
 0x08,0x00,0x00,0x41,0x08,0x10,0x02,0x00,0x89,0x14,0x92,0x24,0x24,0x21,0x44,
 0x49,0x22,0x41,0x08,0x00,0x92,0x54,0x25,0x04,0x00,0x22,0x25,0x25,0x04,0xa1,
 0x44,0xa9,0xaa,0x50,0xa2,0x24,0x49,0x49,0x4a,0x29,0x92,0x94,0x14,0x51,0x20,
 0x49,0xaa,0x4a,0x51,0x01,0x00,0x00,0x00,0x51,0x08,0x21,0x00,0x21,0x0a,0x11,
 0x89,0x24,0x92,0x52,0x92,0x44,0x02,0xea,0x2f,0x88,0x54,0xd5,0x2a,0x08,0x02,
 0x24,0x91,0x4a,0x00,0x21,0x44,0x55,0x44,0x51,0xa4,0x24,0x49,0x49,0x84,0x24,
 0x29,0xa9,0xaa,0xaa,0x20,0x55,0x95,0x4a,0x21,0x00,0x01,0x04,0x00,0x54,0x08,
 0x11,0x08,0x12,0x84,0x12,0x49,0x22,0x22,0x29,0x89,0x84,0xe8,0xff,0x7f,0x02,
 0x84,0x52,0x24,0x8a,0x02,0x24,0x21,0x51,0x02,0x25,0x44,0x51,0xa9,0x28,0x24,
 0x92,0x94,0x94,0x44,0x52,0x12,0xd5,0xff,0x9f,0x50,0x59,0xaa,0xaa,0x10,0x04,
 0x00,0x08,0x04,0x40,0x40,0x11,0x04,0x02,0x85,0x92,0x24,0x49,0x22,0x29,0x89,
 0xc8,0xff,0xff,0x7f,0x0b,0x25,0x01,0x11,0x45,0x01,0x92,0x20,0x90,0x14,0x05,
 0x44,0xa9,0x28,0x28,0x24,0x49,0xa2,0x94,0x44,0x52,0x52,0xfd,0xff,0xff,0x52,
 0x52,0x5a,0xa2,0x14,0x04,0x00,0x04,0x05,0x01,0x48,0x11,0x02,0x44,0x45,0x49,
 0x92,0x14,0x42,0x92,0x04,0xfd,0xff,0xfb,0xff,0x4d,0x09,0x81,0x08,0x22,0x01,
 0x24,0x91,0x10,0xa4,0x20,0x44,0xa8,0x12,0x92,0x24,0x49,0xa2,0x94,0x24,0x69,
 0xff,0xff,0x7f,0xff,0x93,0xa4,0x14,0xa2,0x94,0x00,0x00,0x00,0x20,0x01,0x0a,
 0x11,0x05,0x44,0x21,0x11,0x22,0x49,0x49,0x88,0xf4,0xfb,0x7f,0xef,0xff,0x2f,
 0x11,0x80,0x48,0x22,0x02,0x4a,0x12,0x82,0x28,0x20,0x42,0xa8,0x28,0x8a,0xa4,
 0x48,0x12,0x25,0x25,0xdd,0xff,0xef,0xff,0xff,0x4a,0x44,0x15,0x82,0x94,0x00,
 0x00,0x80,0x10,0x82,0x84,0x10,0x02,0x82,0x24,0x09,0x95,0xa4,0x40,0xf5,0xff,
 0xdf,0xfd,0xff,0xef,0x37,0x11,0x80,0x28,0x02,0x02,0x90,0x12,0x42,0x08,0x12,
 0xa2,0x54,0x14,0x91,0xa4,0x20,0x49,0x2a,0xd5,0xff,0xff,0xff,0xff,0xff,0x0b,
 0x44,0x55,0xa2,0x54,0x00,0x04,0x80,0x10,0xa0,0x80,0x08,0x01,0x41,0x24,0x11,
 0x4a,0x12,0xc9,0xff,0xfd,0xfd,0xff,0xff,0x7f,0x55,0x21,0x00,0x10,0x12,0x02,
 0x90,0x24,0x42,0x09,0x4a,0x22,0x54,0x2a,0x89,0xa4,0x94,0xa4,0xd4,0xff,0xff,
 0xff,0xff,0xdd,0xfd,0x02,0x8a,0x52,0xa5,0x44,0x01,0x02,0x00,0x10,0x80,0x00,
 0x48,0x82,0x40,0x22,0x12,0x21,0x11,0xf2,0x7b,0xff,0xff,0xfe,0xff,0x7f,0xa1,
 0x20,0x00,0x52,0x29,0x00,0x48,0x4a,0x41,0x15,0xaa,0x00,0x29,0x8a,0x94,0x48,
 0x4a,0x4a,0xd9,0xff,0xf7,0xf7,0xef,0xff,0xff,0x0a,0x82,0x24,0x89,0x42,0x05,
 0x00,0x00,0x14,0x80,0x00,0x54,0x80,0x24,0x21,0x22,0x21,0xa1,0xfc,0xff,0xff,
 0xfe,0xff,0xff,0xdf,0x97,0x28,0x40,0x52,0x14,0x00,0x92,0x10,0x40,0x12,0x92,
 0x00,0x15,0x11,0x8a,0x44,0x4a,0x0a,0xfd,0xff,0xff,0xff,0xff,0xff,0xff,0x0a,
 0x82,0x12,0x49,0x21,0x01,0x00,0x04,0x09,0x80,0x20,0xaa,0x40,0x44,0x21,0x29,
 0x92,0xa4,0xf6,0xef,0xff,0xff,0xff,0xff,0xfd,0x5f,0x20,0x84,0x24,0x48,0x02,
 0x24,0x52,0xa0,0x2a,0x8a,0x00,0x2a,0x29,0x4a,0x92,0x24,0x49,0xfd,0xff,0xbe,
 0xbf,0xff,0xbd,0xff,0x2f,0x08,0x50,0x92,0x02,0x00,0x00,0x00,0x0a,0x80,0x00,
 0x52,0x01,0x82,0x90,0x44,0x92,0x24,0xff,0xfe,0xff,0xff,0xff,0xff,0xef,0x5f,
 0x41,0x5b,0x49,0xa8,0x02,0x92,0x08,0x20,0x09,0x52,0x04,0xaa,0x28,0x45,0x92,
 0x24,0x49,0xff,0xff,0xff,0xff,0xf7,0xff,0xff,0x3f,0x00,0xa4,0x12,0x05,0x00,
 0x00,0x42,0x09,0x80,0x04,0xa1,0x00,0x84,0x90,0x48,0x92,0xa4,0xfe,0xff,0xff,
 0xff,0xff,0xff,0x7f,0xdf,0x85,0x52,0x4a,0xa0,0x02,0x24,0x10,0xa0,0x14,0x10,
 0x04,0xaa,0x12,0x25,0x25,0x49,0xd2,0xff,0xff,0xff,0xff,0xbf,0xf7,0xff,0x3f,
 0x10,0xaa,0x22,0x09,0x00,0x00,0x04,0x09,0x40,0x45,0x51,0x01,0x40,0x48,0x48,
 0x24,0x49,0xff,0xff,0xff,0xff,0xff,0x7f,0xff,0xf7,0x57,0x55,0x09,0x42,0x02,
 0x22,0x21,0x20,0x05,0x10,0x04,0x54,0x95,0x22,0x91,0x92,0xa4,0xff,0xff,0xff,
 0xff,0xfe,0xff,0xff,0xbf,0xaa,0xaa,0x92,0x88,0x00,0x08,0x00,0x08,0xa0,0x04,
 0xa1,0x02,0x40,0x10,0x4a,0x44,0xd2,0xff,0x77,0xff,0xef,0xff,0xff,0xef,0xff,
 0x55,0x55,0x25,0x20,0x02,0x40,0x4a,0xa1,0x04,0x52,0x0a,0x54,0x95,0x4a,0x91,
 0x92,0x94,0xff,0xff,0xef,0xff,0xff,0xff,0xff,0x5f,0x55,0x55,0x89,0x92,0x00,
 0x02,0x00,0x04,0x90,0x00,0x20,0x81,0x24,0x44,0x48,0x48,0xc2,0xfd,0xff,0xff,
 0xff,0xff,0xff,0x7f,0xbf,0xaa,0xaa,0x22,0x04,0x02,0x88,0x20,0x90,0x00,0x4a,
 0x89,0x14,0x91,0x28,0x25,0x95,0xb4,0xff,0xff,0xff,0xff,0xff,0xff,0xff,0x7f,
 0x55,0x55,0x89,0x50,0x00,0x20,0x88,0x04,0xaa,0x10,0x22,0x40,0x48,0x42,0x92,
 0x22,0x49,0xff,0xff,0xff,0xbf,0x54,0xdb,0xff,0x81,0xa8,0xbb,0x04,0x04,0x02,
 0x02,0x02,0x90,0x00,0x42,0x88,0x2a,0x25,0x89,0x24,0x94,0xa4,0xff,0xff,0xff,
 0x6f,0xfb,0xff,0xff,0x57,0x52,0x55,0xa9,0x28,0x01,0x80,0x20,0x02,0x48,0x00,
 0x42,0x00,0x80,0x24,0x91,0x42,0xd2,0xff,0xff,0xff,0x1b,0x00,0x00,0x80,0x00,
 0xa4,0xae,0x02,0x42,0x00,0x24,0x00,0x48,0x02,0x55,0x08,0x55,0x15,0x92,0x24,
 0x95,0xa4,0xff,0xff,0xff,0xaf,0x8a,0x48,0xbd,0xaa,0x48,0xb5,0x94,0x08,0x05,
 0x00,0x94,0x02,0x48,0x00,0xa2,0x00,0xa0,0x24,0x89,0x20,0xd2,0xff,0xff,0xff,
 0x5f,0x20,0x22,0x00,0x10,0x12,0x55,0x22,0x42,0x00,0x84,0x00,0x28,0x01,0x49,
 0x09,0xaa,0x0a,0x11,0x52,0x4a,0xa9,0xff,0xff,0xff,0x2f,0x85,0x88,0x52,0x45,
 0xa1,0xaa,0x88,0x08,0x01,0x20,0x40,0x00,0x50,0x10,0x20,0x01,0x40,0x84,0x88,
 0x94,0xa4,0xff,0xff,0xff,0xff,0x28,0x44,0x04,0x20,0x0a,0x00,0x22,0x42,0x02,
 0x82,0x0a,0x49,0x02,0x41,0x82,0x54,0x95,0x52,0x25,0x51,0xd2,0xff,0xff,0xff,
 0x5f,0x41,0x11,0x51,0x95,0x50,0x55,0x89,0x28,0x00,0x10,0x20,0x00,0x48,0x94,
 0x28,0x00,0x42,0x08,0x50,0x0a,0x49,0xfb,0xff,0xff,0xff,0x14,0x44,0x08,0x02,
 0x04,0x88,0x20,0x04,0x02,0x80,0x80,0x52,0x21,0x01,0x42,0x55,0x14,0xa5,0x8a,
 0x54,0xd2,0xff,0xff,0xff,0x7f,0xa0,0x88,0xa2,0x54,0xa9,0x22,0x8a,0x52,0x00,
 0x08,0x12,0x00,0x04,0xa4,0x10,0x80,0x82,0x48,0x44,0x82,0x54,0xff,0xff,0xff,
 0xf7,0x13,0x52,0x10,0x01,0x02,0x10,0x21,0x80,0x02,0x22,0x40,0x84,0x90,0x10,
 0x4a,0x15,0x54,0x22,0x29,0x29,0xd1,0xff,0xff,0xff,0xff,0x4a,0x89,0x4a,0x54,
 0x54,0x45,0x44,0x15,0x00,0x00,0x08,0x21,0x04,0x04,0x01,0x82,0x82,0x88,0x84,
 0x94,0x24,0xff,0xff,0xff,0xff,0x05,0x20,0x10,0x82,0x42,0x28,0x11,0x80,0x02,
 0x44,0x01,0x04,0x51,0x51,0x54,0x28,0x54,0x52,0x52,0x22,0xc9,0xff,0xff,0xff,
 0xff,0x53,0x45,0x45,0x29,0x14,0x81,0xa4,0x2a,0x04,0x10,0xa0,0x48,0x00,0x00,
 0x01,0x45,0x81,0x08,0x91,0x94,0x54,0xfd,0xff,0xff,0xfe,0x07,0x10,0x20,0x04,
 0xa1,0x54,0x08,0x00,0x01,0x80,0x04,0x20,0x4a,0x4a,0x54,0x10,0x2a,0x52,0x4a,
 0x22,0x51,0xff,0xff,0xff,0xff,0xab,0x4a,0x95,0x52,0x0a,0x81,0xa2,0xaa,0x00,
 0x09,0x90,0x04,0x00,0x10,0x01,0x8a,0x08,0x85,0x90,0x94,0x94,0xff,0xff,0xff,
 0xff,0x07,0x20,0x20,0x84,0x50,0x2a,0x08,0x00,0x02,0x20,0x01,0xa2,0x54,0x41,
 0x54,0x50,0xa2,0x28,0x25,0x29,0xa5,0xff,0xff,0xff,0xef,0x4b,0x89,0x8a,0x28,
 0x05,0x41,0xa1,0x54,0x00,0x02,0x44,0x08,0x01,0x14,0x01,0x05,0x11,0x92,0x48,
 0x82,0x48,0xfe,0xff,0xff,0xff,0x0f,0x02,0x21,0x42,0x40,0x28,0x14,0x02,0x02,
 0x88,0x10,0x20,0xa4,0x40,0x54,0x28,0x4a,0x49,0x22,0x29,0xa5,0xff,0xff,0xff,
 0xff,0x27,0x54,0x44,0x89,0x2a,0x85,0x40,0xa8,0x00,0x00,0x00,0x02,0x00,0x12,
 0x00,0x85,0x20,0x12,0x49,0x4a,0x49,0xfe,0xff,0xff,0xff,0x0f,0x01,0x29,0x20,
 0x00,0x20,0x15,0x02,0x00,0x92,0xa2,0x48,0x29,0x40,0x15,0x10,0x95,0x48,0x92,
 0x28,0x92,0xff,0xff,0xff,0xff,0x4f,0x54,0x44,0x95,0xaa,0x0a,0xa0,0xa8,0x02,
 0x00,0x08,0x02,0x82,0x14,0x40,0x45,0x20,0x92,0x24,0x85,0xa4,0xfa,0xff,0xef,
 0xff,0x1f,0x01,0x11,0x40,0x04,0xa0,0x0a,0x02,0x00,0x24,0x00,0x28,0x08,0x42,
 0x12,0x28,0x45,0x44,0x92,0xa8,0x92,0xfe,0xff,0xff,0xff,0x17,0x14,0x44,0x15,
 0x51,0x05,0x20,0x54,0x05,0x00,0xa2,0x00,0xa2,0x20,0x84,0x42,0x90,0x22,0x44,
 0x44,0x88,0xfe,0xff,0xff,0xbd,0x7f,0x42,0x21,0x80,0x08,0xa0,0x0a,0x01,0x00,
 0x92,0x08,0xa2,0x00,0x8a,0x10,0x14,0x45,0x94,0x28,0xa9,0x52,0xff,0xff,0xff,
 0xff,0x1f,0x09,0x8a,0x2a,0xa2,0x0a,0x50,0x94,0x02,0x00,0x00,0x08,0xa8,0x00,
 0x45,0x81,0x10,0x21,0x85,0x12,0x89,0xf8,0xff,0xff,0xff,0x7f,0xa0,0x20,0x81,
 0x28,0x40,0x05,0x21,0x00,0x24,0x51,0x20,0x01,0x2a,0x10,0x14,0x4a,0x44,0x28,
 0xa2,0x54,0xff,0xff,0xff,0xff,0x7f,0x09,0x85,0x54,0x42,0x15,0x28,0x84,0x04,
 0x00,0x04,0x05,0x90,0x00,0x85,0x42,0x11,0x29,0x45,0x49,0x0a,0xf4,0xff,0xff,
 0xff,0xfd,0x42,0x20,0x00,0x10,0x80,0x02,0x21,0x01,0x44,0x00,0x90,0x02,0x52,
 0x10,0x08,0xa2,0x44,0x92,0x2a,0x51,0xfd,0xff,0xff,0xff,0xff,0x11,0x95,0xaa,
 0x4a,0x55,0x28,0x0a,0x04,0x00,0x22,0x01,0xa4,0x00,0x84,0xa2,0x14,0x91,0x48,
 0x80,0x94,0xf4,0xbf,0xff,0xff,0xff,0x87,0x00,0x01,0x01,0x02,0x84,0x40,0x01,
 0x12,0x08,0x24,0x00,0x4a,0x51,0x08,0x40,0x24,0x25,0x2d,0x29,0xfd,0xff,0xff,
 0xff,0xdf,0x51,0x2a,0x2a,0x54,0xa8,0x12,0x15,0x04,0x80,0x80,0x00,0x92,0x10,
 0x04,0x42,0x15,0x49,0x48,0x92,0x84,0xe8,0xff,0xff,0xff,0xff,0x1f,0x80,0x80,
 0x02,0x05,0x40,0x40,0x01,0x04,0x12,0x52,0x08,0x42,0xa8,0x14,0x20,0x22,0x25,
 0x21,0x29,0xf5,0xff,0xff,0xff,0xfb,0x0f,0x25,0x4a,0x28,0x50,0x15,0x05,0x04,
 0x90,0x80,0x00,0x82,0x10,0x02,0x20,0x95,0x94,0x90,0x48,0x92,0xd4,0xff,0xff,
 0xee,0xff,0x5f,0x88,0x20,0x04,0x09,0x40,0x20,0x01,0x00,0x04,0x92,0x28,0x42,
 0xa9,0x82,0x20,0x21,0x25,0x25,0x25,0xf9,0xff,0xff,0xff,0xff,0x2f,0x21,0x8a,
 0x52,0xa2,0x12,0x89,0x00,0x22,0x41,0x00,0x00,0x10,0x00,0x24,0x8a,0x88,0x48,
 0x92,0x90,0xc4,0xff,0xff,0xff,0xff,0x7f,0x88,0x20,0x80,0x10,0x44,0x22,0x02,
 0x00,0x24,0x92,0x52,0x49,0x25,0x91,0x10,0x25,0x25,0x49,0x25,0xf5,0xff,0xff,
 0xff,0xbf,0x3f,0x22,0x82,0x0a,0x45,0x10,0x88,0x00,0x88,0x00,0x00,0x00,0x00,
 0x40,0x04,0x44,0x90,0x48,0x52,0x94,0xe8,0xff,0xff,0xff,0xff,0xff,0x08,0x50,
 0x50,0x10,0x85,0x22,0x00,0x20,0x92,0x24,0x49,0x92,0x14,0x50,0x29,0x25,0x11,
 0x89,0x52,0xea,0xff,0xff,0xff,0xfe,0x3d,0xa0,0x02,0x81,0x22,0x28,0x88,0x04,
 0x04,0x00,0x08,0x82,0x20,0x00,0x05,0x82,0x48,0xa4,0xa4,0x88,0xfa,0xff,0xff,
 0xff,0xef,0xff,0x09,0x50,0x28,0x88,0x42,0x22,0x00,0x90,0x24,0x21,0x08,0x8a,
 0xaa,0x50,0x14,0x91,0x12,0x49,0x52,0xf4,0xff,0xff,0xff,0xff,0xff,0xa0,0x82,
 0x42,0x22,0x04,0x89,0x02,0x02,0x00,0x04,0x91,0x00,0x00,0x04,0x41,0x24,0x44,
 0x92,0x24,0xfa,0xff,0xff,0xff,0xff,0xff,0x03,0x24,0x10,0x08,0xa1,0x00,0x00,
 0xa8,0x24,0x50,0x00,0x52,0x92,0xa8,0x94,0x42,0x29,0x49,0x92,0xfa,0xff,0xff,
 0xff,0xff,0xfb,0x28,0x90,0x44,0x51,0x0a,0xaa,0x04,0x00,0x80,0x02,0x92,0x80,
 0x20,0x02,0x21,0x10,0x42,0x92,0xa4,0xec,0xff,0xff,0xf7,0xff,0xff,0x03,0x05,
 0x11,0x84,0x90,0x00,0x00,0x82,0x04,0x88,0x00,0x0a,0x8a,0x28,0x42,0xa5,0x94,
 0x24,0x09,0xfb,0xff,0xff,0xff,0xbf,0xff,0x90,0x10,0xa4,0x08,0x45,0x4a,0x02,
 0x20,0x90,0x20,0xa4,0x40,0x00,0x82,0x14,0x10,0x22,0x49,0xd2,0xff,0xff,0xff,
 0xff,0xff,0xff,0x05,0x88,0x02,0x52,0x10,0x10,0x00,0x04,0x01,0x82,0x10,0x12,
 0x55,0x28,0xa0,0x4a,0x89,0x24,0x49,0xfd,0xff,0xff,0xff,0xff,0xff,0x51,0x25,
 0xa8,0x80,0x44,0x41,0x01,0x40,0x48,0x08,0x02,0x40,0x00,0x02,0x15,0x22,0x24,
 0x49,0xd2,0xff,0xff,0xff,0xff,0xfb,0xfd,0x06,0x00,0x02,0x2a,0x11,0x14,0x00,
 0x12,0x22,0x20,0x48,0x09,0xa9,0x28,0xa0,0x48,0x91,0x24,0xe9,0xff,0xff,0xbf,
 0xff,0xff,0xff,0x91,0xaa,0x54,0x00,0x44,0x41,0x05,0x80,0x00,0x09,0x02,0x20,
 0x02,0x44,0x15,0x12,0x44,0x48,0xd2,0xff,0xff,0xff,0xdf,0xff,0x6b,0x21,0x00,
 0x00,0x55,0x11,0x10,0x00,0x04,0x12,0xa0,0xa8,0x82,0x48,0x11,0x40,0xa4,0x92,
 0x92,0xf4,0xff,0xff,0xfd,0xff,0xff,0xff,0x8a,0x54,0x95,0x00,0xa2,0x4a,0x02,
 0x40,0x80,0x04,0x00,0x28,0x10,0x84,0x2a,0x89,0x48,0x24,0xfa,0xff,0xff,0xff,
 0xff,0xff,0xab,0x21,0x02,0x20,0xa8,0x08,0x00,0x00,0x12,0x12,0x10,0x49,0x80,
 0x42,0x12,0x42,0x24,0x25,0x49,0xfd,0xff,0xdf,0xff,0xff,0x7f,0x7d,0x85,0xa8,
 0x42,0x05,0x51,0x55,0x01,0x00,0x00,0x44,0x00,0x25,0x88,0x80,0x10,0x41,0x48,
 0x92,0xde,0xff,0xff,0xff,0xff,0xff,0x6f,0x49,0x04,0x14,0x50,0x04,0x00,0x00,
 0x48,0x52,0x01,0x09,0x90,0x20,0x2a,0x25,0x2a,0x91,0x48,0xff,0xff,0xff,0xff,
 0xdf,0xfd,0xba,0x12,0x51,0xa1,0x82,0xa8,0x94,0x02,0x02,0x00,0x10,0x52,0x04,
 0x0a,0x40,0x88,0x84,0x24,0xe5,0xff,0xff,0xff,0xff,0xff,0x7f,0x55,0x41,0x24,
 0x08,0x28,0x02,0x20,0x00,0x90,0x00,0x44,0x04,0x21,0xa0,0x12,0x21,0x29,0x45,
 0xda,0xfd,0xfe,0xff,0xff,0xff,0xff,0xdf,0x0a,0x91,0x52,0x41,0x54,0x89,0x02,
 0x00,0x2a,0x81,0x7b,0x00,0x09,0x44,0x14,0x42,0x28,0xff,0xf7,0xff,0xfe,0xff,
 0xfe,0xbf,0x24,0xa1,0x04,0x04,0x14,0x01,0x02,0x00,0x12,0x00,0xa8,0x0a,0x49,
 0x20,0x11,0x41,0x14,0xc1,0xfe,0xff,0xff,0xff,0xff,0xff,0xff,0x7a,0x0a,0x52,
 0x51,0x21,0x52,0xa8,0x04,0x00,0x00,0xf0,0x5f,0x12,0x08,0x00,0x28,0x41,0xba,
 0x7f,0xff,0xef,0xff,0xef,0xbf,0x77,0x95,0x90,0x00,0x08,0x88,0x04,0x02,0x00,
 0x00,0x00,0xea,0x2b,0x88,0x24,0x52,0x82,0x14,0xe9,0xfe,0xdf,0xff,0xff,0xff,
 0xff,0xbf,0x6b,0x41,0xaa,0xa2,0x22,0x50,0x28,0x01,0x80,0x88,0xf8,0x07,0x54,
 0x72,0x00,0x00,0x00,0xfe,0xdf,0xfd,0xff,0xff,0xff,0xff,0xff,0x94,0x14,0x00,
 0x10,0x08,0x05,0x02,0x02,0x0a,0x22,0x76,0x97,0xa8,0x2a,0x00,0x24,0x50,0xfd,
 0xf7,0xff,0xff,0xff,0xff,0xff,0xbf,0xad,0x40,0x55,0x49,0x25,0x50,0xa8,0x00,
 0xea,0x55,0xfd,0x2a,0x45,0xd4,0xaa,0x92,0xca,0xff,0xff,0xff,0xfe,0xff,0xff,
 0xff,0x7f,0x4a,0x08,0x00,0x00,0x80,0x00,0x01,0x00,0x15,0xaa,0xf6,0x4b,0xaa,
 0x38,0xa9,0xa4,0xf4,0xbf,0xff,0xfb,0xff,0x7f,0xff,0xf7,0xdd,0x95,0x22,0x20,
 0x91,0x00,0x02,0x00,0x00,0xaa,0x55,0xdf,0xab,0x0a,0xa2,0x6a,0x5b,0x6b,0xf7,
 0xbb,0xdf,0x6f,0xef,0xff,0xff,0x7f,0xa9,0x54,0x9b,0x4c,0x5a,0xb5,0x56,0x05,
 0x55,0xed,0xfe,0x96,0x52,0x54,0xd4,0xaa,0xfe,0xff,0xff,0xff,0xff,0xff,0xdf,
 0xff,0xaf,0xaa,0x4a,0xa4,0x52,0x25,0x49,0x28,0x01,0xa9,0xaa,0xff,0xbd,0x4a,
 0x55,0xeb,0x57,0xdb,0xff,0xff,0xff,0xff,0xff,0xff,0xff,0x3f,0x55,0xb5,0x5b,
 0xad,0x5a,0x55,0x57,0x05,0x56,0xd5,0xbf,0x77,0x95,0xaa,0xb4,0x6a,0xff,0x6e,
 0xf7,0xfe,0xff,0xff,0xff,0xff,0xd5,0xaa,0x4a,0xaa,0xaa,0xaa,0xaa,0x54,0x05,
 0x91,0xaa,0xef,0x6f,0x55,0xab,0xea,0xd7,0xfe,0xff,0xff,0xf7,0xfe,0xff,0xfb,
 0xfb,0x2f,0x55,0xb5,0xd5,0xaa,0xaa,0xaa,0xaa,0x02,0x56,0xed,0x7d,0xbb,0x55,
 0x55,0xdf,0xaa,0xff,0xff,0xff,0xff,0xff,0xff,0xff,0x7f,0xd5,0xaa,0x55,0x55,
 0x55,0x55,0x55,0x55,0x05,0xaa,0xb6,0xff,0xff,0xab,0x5a,0xf5,0xff,0xb7,0xfb,
 0xdf,0xff,0x77,0xef,0xff,0xff,0xab,0xaa,0xaa,0x5a,0x55,0x55,0xb5,0xaa,0x02,
 0x55,0xf5,0xdf,0xad,0x56,0xab,0xee,0xda,0xff,0x7f,0xff,0xdf,0xff,0xff,0xbf,
 0x5f,0x55,0x55,0x6d,0x55,0xad,0xaa,0x56,0x55,0x05,0x00,0xc0,0xff,0xff,0xed,
 0xad,0xff,0xff,0xfe,0xff,0xfd,0xfd,0xff,0xbf,0xff,0xdf,0xaa,0x6a,0xab,0xb6,
 0x55,0x55,0xd5,0xaa,0x02,0x00,0xf0,0xfb,0xff,0xb7,0xda,0xfa,0xff,0xff,0xef,
 0xff,0xff,0xff,0xff,0xff,0xb7,0x5a,0x5b,0x55,0x55,0x55,0x55,0x55,0xad,0x02,
 0x00,0xa8,0xff,0xbf,0xd4,0x6e,0x6f,0xef,0xff,0xfd,0xbf,0xf7,0xfb,0xff,0xff,
 0x55,0x15,0x84,0xa8,0xaa,0xaa,0xad,0xb6,0xd6,0x06,0xaa,0xe4,0xbf,0xef,0x5a,
 0xbb,0xfd,0xff,0xdb,0xff,0xff,0xff,0xbf,0xff,0xff,0x5b,0x4b,0x29,0xa5,0xaa,
 0x5a,0xd5,0x6a,0xad,0x01,0x00,0xc0,0xfe,0xbd,0xae,0xea,0xf7,0xfb,0xff,0xff,
 0xff,0xff,0xff,0xff,0xaf,0xa4,0x14,0x00,0x00,0x00,0x00,0x00,0x00,0x00,0x00,
 0x00,0xa0,0xef,0x7f,0x55,0xb7,0xbe,0x6f,0xff,0xbf,0xf7,0x7f,0xff,0xff,0x7f,
 0xab,0x02,0x00,0x00,0x00,0x00,0x00,0x00,0x00,0x00,0x00,0xc0,0xff,0xff,0xd5,
 0xda,0xfb,0xfe,0xff,0xff,0xff,0xfd,0xff,0xf7,0x02,0xa8,0x4a,0x55,0x55,0x52,
 0x4a,0x92,0x08,0xa8,0x04,0x10,0xc9,0xff,0x6f,0xb5,0x77,0xff,0xff,0xdb,0xfd,
 0xff,0xff,0xff,0xff,0xab,0x55,0x21,0x20,0x80,0x44,0x91,0x44,0xa2,0x22,0x01,
 0x02,0x20,0xff,0xff,0xde,0xdc,0xf7,0x77,0xff,0xef,0xbe,0xff,0xff,0x3f,0x00,
 0xaa,0x0a,0x48,0x24,0x00,0x00,0x00,0x00,0x00,0x02,0x20,0xc4,0xdf,0xfd,0xab,
 0x7b,0xfd,0xff,0x7f,0xff,0xf7,0xf7,0xff,0xbf,0xaa,0xaa,0xa0,0x02,0x91,0x0a,
 0x44,0x10,0x02,0x44,0x00,0x08,0x01,0xfc,0xff,0x7e,0xad,0xdf,0xfe,0xed,0xff,
 0xff,0xff,0xff,0x4b,0x80,0x5a,0x08,0x50,0x04,0x40,0x11,0x84,0x50,0x11,0x00,
 0x20,0xd4,0xff,0xef,0xeb,0xdb,0xfe,0xdf,0xff,0xdf,0x7f,0xff,0xff,0x87,0xaa,
 0xaa,0x22,0x09,0x11,0x15,0x40,0x11,0x02,0x80,0x04,0x80,0x00,0xe8,0xff,0xff,
 0xbe,0xff,0xff,0xff,0xfb,0xfb,0xbf,0xed,0x2a,0xa8,0x2a,0x94,0xa4,0xa4,0x80,
 0x14,0x80,0x90,0x24,0x00,0x02,0x00,0xfa,0xfe,0x5f,0xeb,0xef,0xff,0xb7,0xff,
 0xde,0xfb,0xff,0x41,0x55,0xab,0x22,0x11,0x09,0x15,0x41,0x2a,0x02,0x02,0x01,
 0x20,0x14,0xc4,0xff,0xff,0x7e,0xfd,0xf7,0xfe,0xff,0xff,0xff,0x0f,0x54,0xd5,
 0x4a,0x48,0x44,0x42,0x80,0x10,0x01,0xa0,0x50,0x00,0x88,0x40,0xf0,0xff,0xbe,
 0xeb,0x7f,0xff,0xff,0xee,0xff,0xef,0x2b,0x49,0xb5,0x2a,0x25,0x29,0x29,0x55,
 0x22,0x54,0x05,0x05,0x05,0x00,0x00,0x00,0x00,0x00,0xa8,0xff,0xff,0xff,0xff,
 0xef,0xfd,0x87,0xb4,0x56,0x95,0x92,0x4a,0x92,0x00,0x48,0x02,0x20,0x00,0x00,
 0x00,0x00,0x00,0xfd,0x02,0xd0,0xff,0xff,0xdf,0x7f,0xff,0xff,0x2b,0xa5,0xda,
 0xaa,0xac,0x54,0x49,0xaa,0x02,0xa9,0x84,0x28,0x01,0x00,0x00,0x00,0x00,0x00,
 0x00,0xf8,0xff,0xff,0xef,0xff,0x7f,0x87,0x5a,0xab,0xaa,0x22,0x25,0x12,0x01,
 0x54,0x00,0x20,0x00,0x00,0x00,0x12,0x02,0x00,0x00,0x02,0xff,0xff,0xff,0xff,
 0xef,0xff,0xab,0xd4,0xb6,0xaa,0xaa,0x54,0x49,0x54,0x81,0x4a,0x12,0x02,0x00,
 0x20,0x80,0xa0,0x42,0x6a,0x51,0xf8,0xff,0xfb,0xff,0xff,0xf6,0xab,0xb6,0x5a,
 0xab,0x4a,0x02,0x02,0x01,0x20,0x00,0x00,0x48,0x02,0x00,0x00,0x0a,0x94,0x84,
 0x8a,0xfe,0xff,0xff,0xdd,0xfd,0xff,0x55,0xd5,0xb6,0xaa,0xaa,0x54,0x28,0x24,
 0x0a,0x49,0x42,0x00,0x00,0x00,0xa4,0xd4,0x6b,0xbb,0x6a,0xfd,0xff,0xff,0xff,
 0xff,0xff,0xb7,0xbb,0xd5,0xaa,0x2a,0x95,0x84,0x02,0x00,0x00,0x08,0x22,0x00,
 0x84,0x00,0x52,0xaa,0xa4,0xaa,0xfe,0xf7,0xff,0xff,0xff,0x7f,0x6d,0x55,0x57,
 0xdb,0x4a,0x25,0x12,0x84,0x00,0x00,0x00,0x80,0x00,0x00,0x48,0x80,0x00,0x49,
 0x84,0xd4,0xff,0xff,0x7f,0x5b,0xff,0xab,0xee,0xba,0x55,0x55,0x95,0x40,0x21,
 0xa4,0x24,0x90,0x10,0x00,0x00,0x00,0x12,0x2a,0x22,0x29,0xfd,0xff,0xff,0xff,
 0xff,0x77,0x77,0x5b,0x6b,0x55,0x55,0x29,0x02,0x04,0x01,0x82,0x00,0x02,0x01,
 0x00,0x00,0x00,0x00,0x00,0x00,0x50,0xfd,0xff,0xff,0xff,0xff,0xdf,0xff,0x9f,
 0xaa,0xaa,0x84,0xa8,0x48,0x90,0x10,0x44,0x00,0x00,0x00,0x00,0x00,0x00,0x00,
 0x00,0xd5,0xff,0xff,0xff,0xff,0xff,0x7e,0xb5,0x6a,0xab,0x24,0x15,0x02,0x02,
 0x02,0x40,0x00,0x24,0x00,0x00,0x01,0x00,0x00,0x00,0x00,0x00,0x00,0x00,0x48,
 0xb5,0x6d,0xa3,0xaa,0x02,0x00,0x00,0x00,0x00,0x00,0x00,0x00,0x88,0x00,0x00,
 0x20,0x00,0x80,0x24,0x02,0x20,0xaa,0x54,0xb5,0xb5,0xff,0xff,0x5a,0x55,0x55,
 0x49,0x85,0x40,0x10,0x00,0x90,0x04,0x01,0x00,0x00,0x00,0x00,0x10,0x80,0x48,
 0x8a,0x00,0x02,0x00,0x02,0x00,0x80,0x24,0x09,0x22,0x12,0x20,0x12,0x84,0x40,
 0x02,0x00,0x00,0x00,0x00,0x00,0x10,0x80,0x0a,0x20,0x20,0xaa,0xa8,0xaa,0xa8,
 0x54,0x2d,0x49,0xb2,0x94,0x40,0x15,0x80,0x00,0x12,0x00,0x00,0x00,0x00,0x00,
 0x00,0x00,0x09,0x80,0x04,0x81,0x00,0x02,0x00,0x02,0x01,0x10,0x82,0x04,0x02,
 0x12,0x00,0x09,0x00,0x00,0x48,0x20,0x00,0x24,0x01,0x00,0x00,0x20,0x12,0x10,
 0x08,0x2a,0xa8,0x2a,0x48,0x54,0xa1,0x28,0x52,0x29,0x40,0x90,0x20,0x92,0x20,
 0x01,0x01,0x10,0x00,0x00,0x00,0x00,0x00,0x40,0x02,0x20,0x80,0x00,0x00,0x01,
 0x00,0x08,0x00,0x00,0x80,0x00,0x00,0x00,0x00,0x00,0x00,0x00,0x01,0x00,0x00,
 0x00,0x04,0x49,0x02,0x20,0x81,0x00,0x92,0x20,0x24,0x81,0x04,0x82,0x10,0x04,
 0x04,0x01,0x00,0x00,0x00,0x00,0x00,0x80,0x00,0x00,0x00,0x00,0x00,0x90,0x08,
 0x04,0x24,0x00,0x88,0x08,0x54,0xa0,0x08,0x04,0x41,0x00,0x00,0x00,0x00,0x00,
 0x44,0x08,0x00,0x00,0x00,0x00,0x00,0x20,0x00,0x82,0x20,0x80,0x08,0x21,0x22,
 0x01,0x11,0x20,0x20,0x08,0x11,0x08,0x40,0x00,0x02,0x00,0x40,0x04,0x10,0x00,
 0x00,0x00,0x04,0x4a,0x20,0x08,0x29,0x42,0x08,0x00,0x48,0x84,0x04,0x02,0x21,
 0x00,0x01,0x09,0x48,0x40,0x00,0x00,0x00,0x02,0x00,0x00,0x40,0x40,0x00,0x09,
 0x40,0x00,0x08,0x21,0x29,0x00,0x10,0x82,0x08,0x00,0x02,0x20,0x00,0x00,0x08,
 0x10,0x02,0x20,0x80,0x00,0x00,0x00,0x08,0x00,0x00,0x00,0x00,0x00,0x00,0x00,
 0x00,0x00,0x00,0x00,0x04,0x00,0x00,0x00,0x00,0x00,0x00,0x00,0x00,0x00,0x00,
 0x00,0x00,0x01,0x22,0x80,0x04,0x09,0x01,0x00,0x00,0x91,0x00,0x00,0x00,0x20,
 0x10,0x00,0x00,0x81,0x00,0x01,0x00,0x00,0x00,0x00,0x40,0x00,0x90,0x08,0x00,
 0x00,0x40,0x40,0x04,0x00,0x00,0x88,0x00,0x00,0x00,0x00,0x02,0x00,0x00,0x00,
 0x00,0x00,0x00,0x00,0x00,0x00,0x20,0x02,0x80,0x24,0x20,0x00,0x08,0x21,0x02,
 0x04,0x00,0x04,0x10,0x00,0x01,0x00,0x00,0x00,0x00,0x20,0x00,0x00,0x00,0x00,
 0x00,0x00,0x20,0x11,0x00,0x01,0x22,0x00,0x00,0x40,0x00,0x02,0x20,0x80,0x00,
 0x00,0x00,0x00,0x00,0x00,0x00,0x00,0x00,0x00,0x00};
