#define noname_width 190
#define noname_height 350
static char noname_bits[] = {
 0x24,0x11,0x82,0x10,0x89,0x44,0x20,0x41,0x50,0x08,0x22,0x49,0x41,0x02,0xa1,
 0x12,0x21,0x24,0x49,0x42,0x80,0x12,0x22,0x02,0x4a,0xaa,0x54,0x4a,0x22,0x29,
 0x95,0x94,0x0a,0xa5,0x94,0x24,0x2a,0xa9,0x14,0xa4,0x94,0x92,0x24,0x29,0x55,
 0xa0,0x94,0x14,0x90,0x20,0x91,0x24,0x49,0x42,0x22,0x49,0x52,0x92,0x22,0x49,
 0x49,0x12,0xa5,0x08,0x49,0x24,0x92,0xa4,0x24,0x95,0x20,0x11,0x2a,0x95,0x24,
 0x49,0x24,0x29,0x49,0x92,0x88,0x48,0x94,0x24,0x92,0xa4,0x48,0x52,0x12,0x89,
 0x24,0x09,0x49,0x22,0x8a,0x08,0x42,0x24,0x49,0x92,0x48,0x92,0x24,0x49,0x52,
 0x92,0x48,0x92,0x48,0x12,0x25,0x89,0xa4,0x24,0x49,0x52,0x22,0x49,0x29,0x25,
 0x29,0x49,0x92,0x24,0x92,0x24,0x49,0x92,0x14,0x49,0x92,0x48,0x92,0xa4,0x48,
 0x52,0x12,0x52,0x92,0x88,0x94,0x24,0x44,0x08,0xa4,0x24,0x49,0x92,0x2a,0x49,
 0x22,0x49,0xa2,0x24,0x49,0x92,0x44,0x12,0x25,0x89,0xa4,0x84,0x24,0x25,0x49,
 0x92,0x92,0x12,0x12,0x49,0x92,0x24,0x41,0x92,0x48,0x12,0x09,0x92,0x24,0x4a,
 0x29,0x89,0x90,0x24,0x49,0x52,0x92,0x50,0x92,0xa4,0x24,0x04,0xa4,0x84,0x24,
 0x92,0x94,0x48,0x12,0x49,0xa4,0x44,0x92,0x10,0x45,0x52,0x4a,0x92,0x92,0x24,
 0x49,0x8a,0x24,0x11,0x49,0x29,0x12,0x29,0x91,0x44,0x24,0x25,0x49,0x92,0x52,
 0x92,0x24,0xa5,0x28,0x89,0x22,0x49,0x24,0x49,0x92,0x22,0x49,0x4a,0x92,0x04,
 0xa4,0xa4,0x4a,0x92,0x92,0x48,0x92,0x24,0x84,0x54,0x92,0x94,0x42,0x52,0x94,
 0x24,0x49,0x92,0x24,0x94,0x24,0x91,0x48,0x12,0x12,0x12,0x90,0xa4,0x48,0x92,
 0x24,0x89,0x52,0x02,0x49,0x42,0x28,0x09,0x22,0x49,0x92,0x24,0x49,0x25,0x49,
 0x24,0x25,0x09,0xa4,0xa4,0x4a,0x12,0x25,0x45,0x92,0x24,0xa9,0xb4,0x24,0x95,
 0x92,0x54,0x49,0x92,0x24,0x49,0x92,0x48,0x92,0x92,0x48,0x24,0x29,0x49,0x12,
 0x49,0x91,0x28,0x49,0x48,0x0a,0x09,0x92,0x08,0x48,0x82,0x94,0x24,0x49,0x92,
 0x24,0x92,0x44,0x24,0x92,0x12,0x42,0x92,0xa4,0x24,0x4a,0x92,0x24,0x25,0x51,
 0x52,0x49,0x52,0x95,0x34,0x51,0x92,0x24,0x49,0x92,0x24,0x29,0x91,0x24,0x04,
 0x94,0x24,0x29,0x49,0x21,0x45,0x22,0x49,0x24,0x89,0x24,0x45,0x21,0x49,0x0a,
 0x49,0x49,0x92,0xa4,0x92,0x44,0x4a,0x89,0x12,0x52,0x49,0x42,0x12,0x95,0x28,
 0x49,0x92,0x92,0x54,0x92,0x48,0x41,0x92,0xa4,0x12,0x92,0x24,0x09,0x49,0x2a,
 0x11,0xa5,0x24,0x09,0x92,0x94,0xa4,0x24,0x45,0x2a,0x49,0x24,0x85,0x24,0xa5,
 0x98,0x24,0x51,0x48,0x25,0x49,0x52,0x22,0x81,0xa4,0x10,0x09,0xa4,0x24,0x29,
 0x49,0x92,0x28,0x91,0x24,0x49,0x28,0x49,0x54,0x22,0x49,0x8a,0x92,0x48,0x92,
 0x24,0x49,0x2a,0x89,0x4a,0x24,0x52,0x92,0x44,0x92,0x24,0x45,0x4a,0x92,0x24,
 0x55,0x92,0x6a,0x5b,0x92,0xa4,0x24,0xa5,0x24,0x92,0x24,0x49,0x52,0xa4,0x0a,
 0x84,0x24,0x29,0x49,0x52,0x92,0x90,0x24,0x49,0x42,0x29,0x99,0x84,0x24,0x49,
 0x92,0x48,0x49,0x49,0x4a,0x92,0x24,0x09,0x11,0x2a,0x91,0x44,0x12,0x09,0x49,
 0x4a,0x92,0x24,0x29,0x84,0x64,0x55,0x95,0x24,0x29,0x25,0x92,0x24,0x21,0x49,
 0x92,0x52,0x0a,0x50,0x4a,0x29,0x49,0x52,0x92,0x24,0xa5,0x4a,0xca,0x2a,0xd5,
 0x2a,0x29,0x49,0x42,0x4a,0x49,0x4a,0xaa,0x94,0x24,0xa2,0x28,0x95,0x22,0x8a,
 0xa4,0x24,0x49,0x92,0x10,0x21,0x25,0xa1,0x52,0x49,0x95,0x24,0x29,0x21,0x24,
 0x91,0x12,0x42,0x92,0x14,0x02,0x48,0x94,0x50,0x12,0x49,0x92,0x24,0xa5,0x4c,
 0x48,0x4a,0xac,0xaa,0x52,0x95,0x4a,0x4a,0x49,0x4a,0xa4,0x94,0xa4,0x52,0x15,
 0x12,0xa2,0x8a,0xa4,0x24,0x49,0x92,0x54,0x52,0x95,0x94,0x62,0x55,0x09,0x42,
 0x91,0x54,0x92,0x92,0x92,0x52,0x4a,0x88,0x08,0xa5,0x0a,0x55,0x12,0x49,0x2a,
 0xa9,0x22,0x89,0x24,0x29,0xad,0xaa,0x52,0x29,0x4a,0x89,0x24,0x24,0x49,0x24,
 0x91,0x52,0x12,0x88,0xa0,0x80,0xa4,0xa4,0x44,0x0a,0x49,0x52,0x92,0x8a,0x50,
 0xb7,0xaa,0x94,0x24,0x52,0x92,0x52,0x92,0x92,0x2a,0x09,0x05,0x52,0x4a,0x55,
 0x92,0x92,0x92,0x54,0x2a,0x49,0x29,0x54,0xd5,0x2a,0x11,0x49,0x49,0x49,0xa5,
 0x8a,0x24,0x25,0x44,0x52,0x28,0x25,0x25,0x94,0x24,0x49,0x48,0xa2,0x84,0x24,
 0x84,0x22,0xa4,0xbd,0xa4,0x44,0x24,0x24,0x48,0x50,0x92,0x90,0x92,0x4a,0x15,
 0x94,0x48,0x49,0x49,0x92,0x52,0x89,0x52,0x92,0x69,0x55,0x69,0xab,0x88,0x2a,
 0x49,0x49,0x95,0x4a,0x49,0xa5,0x24,0x91,0x20,0x22,0x25,0x25,0x94,0x54,0x25,
 0x52,0x28,0x49,0x14,0x22,0x95,0xaa,0x2a,0x41,0xa5,0x94,0x24,0x25,0x94,0x28,
 0x52,0x4a,0x16,0x44,0x54,0x54,0x51,0x49,0x4a,0x49,0x45,0x95,0xa2,0x54,0xd2,
 0x56,0x51,0x2a,0x8a,0x22,0x49,0x52,0x29,0x45,0x49,0x29,0x09,0x92,0x82,0x02,
 0x25,0x24,0x91,0x24,0x52,0xa2,0x54,0x09,0x51,0xb5,0x8a,0x52,0x51,0x94,0xa4,
 0x14,0x45,0x92,0x24,0x84,0x04,0x2a,0x29,0x55,0x4a,0x49,0x2a,0x49,0x95,0x14,
 0x89,0xb2,0xaa,0xad,0x24,0xa4,0xa4,0x52,0x49,0x49,0x92,0x54,0x4a,0x29,0x29,
 0x44,0xaa,0x24,0x21,0xa5,0x44,0x92,0x20,0x49,0x25,0x89,0xa4,0xaa,0xaa,0x12,
 0x12,0x24,0x2a,0x52,0x29,0x09,0xa1,0x44,0x12,0x92,0x10,0x49,0x56,0x92,0x92,
 0x24,0x4b,0x52,0xaa,0x54,0xa9,0x55,0x91,0x54,0xa5,0x4a,0x51,0x89,0x4a,0xaa,
 0x8a,0xaa,0x24,0x24,0xa5,0x24,0x09,0x49,0x54,0xa9,0xa8,0x2a,0x11,0x25,0xa4,
 0x7e,0x25,0x25,0x51,0x51,0x0a,0x2a,0x51,0x49,0x54,0x10,0x09,0x92,0x84,0xaa,
 0xa4,0x94,0x22,0x45,0x12,0x49,0xaa,0x54,0x55,0xa5,0x4a,0x52,0x8a,0x24,0x55,
 0x51,0x8a,0x92,0x92,0xa6,0x12,0x49,0x52,0x10,0x52,0xa2,0x94,0x28,0xa5,0x24,
 0x25,0x09,0x89,0x5b,0x21,0x89,0x52,0x92,0x40,0x0a,0x51,0x24,0x49,0x49,0x14,
 0x94,0x94,0x4a,0x89,0x14,0x49,0x92,0x48,0x92,0x48,0xd2,0x72,0xad,0x54,0x52,
 0x4a,0xa5,0xaa,0x50,0x25,0x49,0x92,0x24,0x09,0x45,0x49,0x92,0x24,0xa5,0x92,
 0x4a,0x2a,0x49,0x95,0x2a,0x88,0x56,0x25,0x49,0x91,0x28,0x55,0x4a,0x92,0xa4,
 0x54,0x92,0x12,0x28,0x92,0x24,0x49,0x12,0x49,0xa4,0x92,0x12,0x51,0x52,0xab,
 0x5a,0x4a,0x95,0x2a,0x45,0x22,0x95,0x24,0x15,0x49,0x49,0x24,0x45,0xa5,0x92,
 0xa4,0xa4,0x94,0x52,0x48,0xa9,0x24,0x89,0xa4,0x2d,0x91,0x48,0x44,0x29,0x49,
 0x49,0x92,0xa2,0x92,0x24,0x09,0x12,0x4a,0x2a,0x95,0x92,0x22,0x89,0x12,0x45,
 0x95,0x52,0xaa,0x5a,0x25,0x95,0x12,0xa5,0x94,0x54,0x55,0x14,0x49,0x4a,0x25,
 0x49,0x21,0x41,0x21,0x49,0x54,0x52,0xaa,0x94,0x48,0x29,0x51,0x2d,0x92,0xa2,
 0x54,0x52,0x4a,0x22,0x22,0xa5,0x24,0x21,0x11,0x24,0x4a,0x2a,0x4a,0x52,0x89,
 0xa4,0x24,0x29,0x25,0x52,0x4a,0xab,0x54,0x14,0x49,0x89,0xa4,0x94,0x54,0x49,
 0x92,0xaa,0x24,0x49,0x21,0x49,0x25,0x09,0x52,0x49,0x92,0x92,0x92,0x8a,0x52,
 0x55,0x25,0xa5,0x24,0x52,0x52,0x4a,0x12,0x94,0xa4,0x10,0x12,0x92,0xaa,0x24,
 0x4a,0xaa,0x84,0xaa,0x24,0x49,0xaa,0x54,0xaa,0xae,0x54,0x49,0xa9,0xa4,0x84,
 0x92,0xa4,0x22,0x49,0xa5,0x0a,0x48,0x10,0x49,0x21,0x45,0x55,0x12,0x95,0x54,
 0x11,0x25,0x49,0x55,0x02,0x24,0x44,0x2a,0x55,0x49,0x95,0x94,0x24,0x94,0x10,
 0x92,0xaa,0x24,0xaa,0x28,0x29,0xa9,0x28,0x91,0xaa,0x48,0x52,0x5b,0xb5,0xaa,
 0x95,0x44,0x29,0x12,0x29,0x29,0xa9,0x52,0x0a,0x25,0x05,0x92,0x24,0x95,0x84,
 0x44,0x4a,0x25,0x09,0x25,0xa9,0x56,0x88,0x44,0x48,0xa9,0x44,0xa9,0x84,0x84,
 0x14,0x29,0x25,0x44,0xb4,0xa4,0x4a,0x22,0x55,0x95,0x52,0x4a,0xb2,0x54,0x55,
 0xad,0x52,0x29,0x93,0x12,0x95,0x52,0xa9,0x6a,0xa5,0x42,0x12,0x29,0x09,0x29,
 0x91,0x54,0x21,0x51,0x24,0xa9,0x4a,0x92,0x48,0x2b,0x55,0x92,0x48,0xa4,0xa4,
 0x08,0x24,0x11,0x29,0x29,0x09,0x52,0x52,0x45,0x2a,0x89,0x4a,0x4a,0x49,0x92,
 0xa4,0x4a,0x55,0x5d,0x92,0x54,0x55,0x49,0x49,0xd5,0x4a,0x4a,0x52,0xaa,0x14,
 0x08,0x89,0x28,0x91,0x52,0x28,0x25,0x25,0x49,0x12,0x21,0xa9,0x56,0x49,0x8a,
 0x24,0x55,0x2a,0x22,0xa9,0x52,0x89,0x04,0x05,0x55,0x25,0xa5,0x4a,0xa4,0x52,
 0x4a,0xaa,0xaa,0x54,0x56,0x52,0x55,0xaa,0x28,0x49,0x92,0x54,0x95,0x24,0x25,
 0x25,0x69,0x12,0x82,0x50,0x12,0xa4,0x12,0x0a,0x21,0x49,0x92,0x4a,0x49,0x55,
 0x2b,0x05,0x45,0x55,0x49,0x85,0x48,0x92,0x90,0xa8,0x92,0x14,0x54,0x4a,0xa9,
 0x92,0x54,0xa9,0xaa,0x92,0x24,0x29,0x95,0xd4,0x56,0xaa,0x2a,0x49,0x95,0x54,
 0xa5,0x2a,0x4b,0x45,0x4a,0x29,0x91,0x52,0x84,0x48,0x8a,0x44,0x49,0xa4,0x52,
 0x8a,0x48,0x52,0x2d,0xa1,0x50,0x52,0x24,0x29,0x29,0x91,0x24,0x2a,0x91,0x04,
 0x4a,0x24,0x29,0x95,0x54,0x95,0x92,0x4a,0x4a,0xa9,0x52,0x55,0x5b,0x4a,0xa5,
 0xa4,0x52,0x52,0x92,0x2a,0xa9,0x94,0x24,0x29,0x90,0x4a,0xa5,0xa4,0x22,0x51,
 0x54,0x22,0x91,0x44,0x2a,0x52,0x2d,0x95,0x14,0x12,0x24,0x25,0x29,0x89,0x92,
 0x42,0x95,0x14,0x4a,0x88,0x48,0x49,0x54,0xaa,0x92,0x54,0x25,0x99,0x42,0xd5,
 0xaa,0x24,0xa9,0xaa,0x49,0xa9,0x52,0x52,0x24,0x29,0x52,0x22,0x25,0x25,0x25,
 0x92,0x8a,0x12,0x49,0x95,0x54,0x45,0x29,0xa9,0x2e,0x92,0x44,0x45,0xaa,0x14,
 0x09,0xa9,0x92,0x54,0x09,0x15,0x48,0x52,0x4a,0x55,0x52,0xa4,0x92,0x28,0x49,
 0x2a,0x55,0x6a,0xab,0x2a,0x95,0x28,0x11,0xa9,0x6a,0x12,0x25,0x89,0x52,0x24,
 0x92,0x14,0x91,0x88,0x94,0x52,0x54,0x45,0x25,0xa9,0x24,0xad,0xaa,0xa4,0x52,
 0x95,0x4a,0x45,0x12,0xa5,0x92,0x52,0xa9,0x09,0x4a,0xa2,0x24,0x25,0x49,0x4a,
 0x25,0x95,0x54,0xa5,0x4a,0xd5,0x56,0x4a,0x8a,0x48,0xaa,0x94,0xa4,0x4a,0x54,
 0x0a,0x0a,0x12,0x21,0x49,0x4a,0x52,0x25,0xa5,0x94,0x52,0x29,0x92,0x24,0x55,
 0x2d,0x51,0x51,0xa5,0x44,0x52,0xaa,0xa4,0x25,0x61,0x65,0x15,0x94,0x94,0x28,
 0x25,0xaa,0x88,0x52,0x24,0xa5,0x54,0xa9,0xaa,0x55,0x25,0x25,0x49,0xa9,0x94,
 0x12,0x49,0x4a,0x96,0x88,0x24,0x4a,0x22,0x45,0x49,0x05,0x55,0x49,0x55,0x92,
 0x8a,0x94,0xda,0x5a,0x92,0x94,0xa4,0x54,0x4a,0xa9,0x2a,0x51,0x29,0x55,0x12,
 0x90,0x94,0x94,0x94,0x68,0x92,0x94,0x4a,0x29,0x29,0xa5,0xaa,0x56,0x55,0x29,
 0x15,0x45,0x51,0x92,0xa4,0x8a,0x44,0x92,0x24,0x4a,0x4a,0x52,0x22,0x15,0x49,
 0x4a,0x91,0xa4,0x54,0xa9,0x6a,0xab,0x48,0x4a,0xa9,0x92,0x94,0x4a,0x4a,0x52,
 0x52,0xa5,0x12,0x92,0x90,0x24,0x55,0x52,0x55,0x91,0x2a,0x95,0x22,0x92,0xd6,
 0x2a,0x95,0x24,0x25,0x55,0x25,0x95,0x94,0xa4,0x4a,0x14,0x25,0xa9,0x4a,0x92,
 0x08,0x89,0x24,0x55,0x44,0xa5,0x94,0xaa,0x5a,0xad,0xa2,0x52,0x91,0x24,0x52,
 0xa2,0x42,0x15,0x91,0x4a,0x12,0x42,0x92,0xa4,0xb2,0xaa,0x4a,0x4a,0x95,0x28,
 0xa9,0xa4,0xaa,0x2a,0x95,0x4a,0x2a,0x49,0x49,0x15,0x95,0xa8,0x2a,0x51,0x09,
 0x29,0x49,0x2a,0x89,0x24,0x51,0xa5,0x52,0x95,0x4a,0x95,0x5a,0xab,0xa8,0x24,
 0x95,0xaa,0x54,0xa4,0x54,0x25,0x49,0x8a,0x24,0x4a,0xaa,0x44,0x2a,0x49,0x4a,
 0x2a,0x25,0x55,0x95,0x52,0xb5,0xaa,0x92,0xaa,0xa4,0x94,0x92,0x4a,0x29,0x55,
 0x52,0x55,0x0a,0x21,0x11,0x29,0xa5,0x54,0x95,0x92,0x54,0x89,0xa4,0xa4,0xd6,
 0x16,0x4a,0x49,0x52,0x22,0x49,0xa2,0x44,0x22,0x15,0xa1,0x12,0xaa,0x4a,0xa5,
 0x94,0x92,0x28,0xa5,0x4a,0x32,0x29,0x55,0x5b,0x55,0x55,0x92,0x4a,0x55,0xaa,
 0x4c,0xaa,0x54,0xa2,0x4a,0x2a,0x10,0x51,0x49,0x49,0x4a,0x45,0x29,0xa9,0x4a,
 0x95,0x92,0xaa,0xaa,0x24,0x55,0xa9,0x2a,0x95,0xa2,0x12,0x95,0x2a,0x29,0x09,
 0x55,0x4a,0x2a,0x55,0x29,0x55,0xaa,0x92,0xaa,0x52,0xaa,0xb6,0x55,0xa9,0x2a,
 0x25,0x49,0x29,0x15,0x65,0x52,0x52,0x4a,0x12,0x4a,0x55,0xa5,0xaa,0xaa,0x52,
 0x55,0xad,0x24,0x49,0x49,0x6d,0x95,0x94,0x48,0x92,0xa4,0x92,0xa8,0x14,0x25,
 0x29,0x25,0x15,0x55,0x55,0x55,0x55,0x55,0xaa,0xaa,0x52,0x55,0x55,0x55,0xdb,
 0xaa,0xaa,0xaa,0x54,0x95,0xa4,0x52,0xa9,0x54,0x52,0x4a,0x29,0xff,0xff,0xff,
 0xbe,0xef,0xdf,0xdf,0xfd,0xfb,0xde,0x6e,0x55,0x6d,0x55,0x55,0x55,0x55,0x55,
 0x2d,0xa5,0x92,0x8a,0xa2,0x04,0xff,0x6d,0xfb,0xeb,0xbe,0x7d,0x75,0x57,0xaf,
 0xb5,0xb5,0xb6,0xaa,0x6d,0x55,0xab,0xaa,0xaa,0x52,0x55,0x55,0x55,0x2d,0x15,
 0xef,0xff,0xdf,0xff,0xfb,0xf7,0xff,0xff,0xff,0xff,0x7f,0xab,0x7a,0xff,0xff,
 0xff,0xff,0xff,0xff,0xff,0xee,0xb6,0xd5,0x36,0xff,0xff,0xff,0xff,0xff,0xff,
 0xff,0xff,0xff,0xff,0x7f,0x55,0xed,0xfd,0xff,0xff,0xff,0xb7,0x6d,0xd5,0x5b,
 0xdb,0xbe,0x2d,0xff,0xfe,0xff,0xff,0x7f,0xbf,0xff,0xff,0xef,0xff,0xbf,0xaa,
 0x7a,0xa7,0xff,0xff,0xef,0xff,0xff,0xff,0xff,0xff,0xff,0x3f,0xfb,0xef,0xff,
 0xff,0xff,0xff,0xff,0xfe,0xfe,0xef,0x5f,0x57,0xdd,0xfb,0xff,0xff,0xff,0xff,
 0xff,0xff,0xff,0xff,0xfb,0x3f,0xff,0xff,0xdd,0x76,0xdb,0xf7,0xdf,0xef,0xff,
 0xfd,0x7f,0xa9,0x7e,0xaf,0xfe,0xbf,0xff,0xff,0xff,0xff,0xff,0xff,0xbf,0x3b,
 0xff,0xff,0xff,0xff,0xff,0xff,0xfd,0xff,0xff,0x7f,0xaf,0x56,0xd5,0xdf,0xff,
 0xff,0xff,0xfe,0xff,0xff,0xfd,0x77,0xff,0x3f,0xbf,0xfb,0xff,0xff,0xff,0xdf,
 0xff,0xff,0xbf,0xff,0x5f,0x55,0x15,0xf0,0xff,0xff,0xff,0xff,0xff,0xff,0xff,
 0xff,0xff,0x3f,0xff,0xdf,0xff,0xff,0xff,0xfe,0xff,0xff,0xfb,0xf7,0xbf,0xaa,
 0x0a,0xbd,0xfd,0xff,0xff,0xff,0xff,0xff,0xff,0xff,0x6f,0x3f,0xff,0xff,0x6e,
 0xf7,0xfe,0xff,0xff,0xbb,0xff,0xff,0x5f,0x55,0x45,0x64,0xff,0xff,0xff,0xff,
 0xed,0xff,0xff,0xfe,0xfd,0x37,0xf7,0xff,0xff,0xff,0xf7,0xff,0xee,0xff,0xff,
 0xff,0xbf,0xaa,0x0a,0xd9,0xff,0xff,0xff,0xdf,0xff,0xde,0xf7,0xbf,0xff,0x3f,
 0x7f,0xf7,0xff,0xff,0xff,0xef,0x7f,0xff,0xff,0xfd,0xef,0xaa,0x4b,0xd2,0xfe,
 0xff,0xef,0xff,0xff,0xff,0xff,0xff,0xff,0x3f,0xff,0xff,0xff,0xff,0x7f,0xff,
 0xff,0xff,0xee,0xff,0xbf,0xaa,0x26,0xa8,0xff,0xbf,0xff,0xff,0xff,0xff,0xff,
 0xf7,0xdf,0x3f,0xff,0xff,0xf7,0xbf,0xff,0x7f,0xff,0xf7,0xff,0x7f,0xfb,0xd7,
 0x0b,0x45,0xfd,0xff,0xff,0xff,0xff,0x7f,0xff,0xff,0xff,0x3d,0xff,0x7f,0x7f,
 0xff,0xfd,0xff,0xff,0xff,0xff,0xff,0x7f,0xed,0xa3,0x94,0xff,0xff,0xff,0xfd,
 0xbf,0xff,0xdf,0xfd,0xfb,0x3f,0x77,0xff,0xff,0xf7,0xef,0xff,0xf7,0xff,0x7f,
 0xf7,0xff,0xf7,0x7e,0xbf,0xfe,0xfe,0xff,0xff,0xfb,0xf7,0xfb,0xff,0xff,0x3f,
 0xff,0xf7,0xff,0xff,0xff,0xfd,0x7f,0xdf,0xfb,0xff,0xf7,0xdd,0xd3,0x55,0xff,
 0xff,0xff,0xff,0xff,0xff,0xff,0xbf,0xff,0x3f,0xff,0xff,0xff,0xff,0xff,0xff,
 0xff,0xff,0xff,0xff,0xfe,0xff,0x63,0xd7,0xfd,0xff,0xff,0xdf,0xff,0xff,0xff,
 0xff,0xff,0x3f,0xff,0x7f,0xf7,0xff,0xbf,0xef,0xfe,0xff,0xff,0xff,0xff,0xfb,
 0xd2,0x6f,0xff,0xff,0xfb,0xff,0xff,0xff,0xff,0xff,0xf7,0x3e,0xef,0xfd,0x7f,
 0xbf,0xfb,0xff,0xff,0xfb,0xff,0xff,0xbf,0xff,0x05,0x80,0xff,0xff,0xff,0xff,
 0xff,0x7e,0xff,0xf7,0xdf,0x37,0xff,0xff,0xff,0xff,0xff,0xff,0xff,0xbf,0xef,
 0xff,0xff,0xff,0x53,0xd5,0xfe,0xdf,0xff,0xff,0xff,0xff,0xbf,0xff,0xff,0x3f,
 0xff,0xdf,0xff,0xfb,0xff,0xfb,0xfb,0xff,0xff,0xf7,0xf7,0xff,0xb7,0xab,0xff,
 0xff,0xff,0xff,0xff,0xff,0xff,0x7f,0xff,0x3f,0x7f,0xff,0xfd,0xff,0xdf,0xbf,
 0xbf,0xff,0xff,0xbf,0xff,0xef,0xdb,0x4a,0xff,0xff,0xff,0xfe,0xff,0xff,0xfb,
 0xff,0xff,0x3f,0xf7,0xff,0xef,0xff,0xff,0xff,0xff,0xff,0xfd,0xff,0xff,0xff,
 0xfe,0xfe,0xfe,0xfe,0xef,0xff,0xf7,0xf7,0xff,0xff,0xff,0x3f,0xff,0xf7,0xff,
 0xef,0xfe,0xff,0xff,0xfb,0xff,0xff,0xbf,0xff,0xab,0x5d,0xff,0xff,0xff,0xff,
 0x7f,0xff,0xff,0xfb,0xff,0x3f,0xff,0xff,0xff,0xfd,0xbb,0xf7,0xff,0xff,0xdf,
 0xff,0xfd,0xfd,0xfb,0xb7,0xfb,0xff,0xff,0x7f,0xff,0x7f,0xff,0xff,0xbf,0x3b,
 0xff,0x7e,0xff,0xff,0xff,0xff,0xee,0xbf,0xff,0xf7,0xff,0xff,0xfd,0x7e,0xff,
 0xff,0xff,0xfb,0xff,0xff,0xdf,0xff,0xfe,0x3f,0xff,0xff,0xbf,0xff,0xff,0xff,
 0xff,0xff,0xff,0xff,0xff,0xff,0xaf,0xda,0xff,0xff,0xff,0xff,0xff,0xff,0xff,
 0xff,0xff,0x3f,0xef,0xff,0xff,0xff,0xff,0xff,0xff,0xff,0xff,0xff,0xdf,0xef,
 0xba,0x7d,0xff,0xff,0xff,0xff,0xff,0xff,0xff,0xff,0xff,0x3f,0xff,0xff,0xff,
 0xdf,0xff,0xff,0xff,0xee,0xff,0xfe,0xff,0xff,0xaf,0xd6,0xdf,0xef,0xfd,0xff,
 0xef,0xbf,0xff,0xef,0xf7,0x3f,0xff,0xf7,0xfd,0xfe,0xef,0xfd,0xff,0xff,0xfb,
 0xdf,0xfd,0xff,0x7b,0xfb,0xff,0xff,0x7f,0xff,0xfe,0xfd,0xfd,0xfe,0xff,0x3b,
 0xfb,0xff,0xf7,0xff,0xfd,0xdf,0xfd,0xff,0xff,0xff,0xff,0xfd,0x5f,0x6d,0xff,
 0xff,0xff,0xff,0xff,0xff,0xff,0xff,0xbf,0x3f,0xbf,0xff,0xff,0xf7,0xff,0xff,
 0xff,0xff,0xff,0xff,0xff,0xdf,0xbf,0xfb,0xff,0xfd,0xff,0xef,0xff,0xef,0xdf,
 0xff,0xff,0x3f,0xff,0xfd,0xdf,0xff,0xff,0xff,0xbf,0x7f,0xff,0xef,0xf7,0xff,
 0xfb,0xde,0xff,0xff,0xf7,0xff,0xff,0xff,0xff,0x7f,0xff,0x3f,0xff,0xdf,0xff,
 0xff,0xff,0xff,0xff,0xff,0xff,0x7f,0xff,0xff,0xff,0xfb,0xfd,0xff,0xff,0xff,
 0xdf,0xff,0xff,0xff,0xff,0x3f,0xff,0xff,0xff,0xff,0xff,0xff,0xff,0xff,0xff,
 0xff,0x7f,0xff,0xff,0xff,0xff,0xbf,0xff,0xfd,0xff,0xfd,0xfd,0xff,0xff,0x3b,
 0xff,0xff,0xff,0xff,0xff,0xfe,0xff,0xff,0xdf,0xff,0xff,0x7f,0x6f,0xef,0xef,
 0xff,0xff,0xff,0xfe,0xff,0xff,0xf7,0xfb,0x3f,0xa5,0xaa,0xaa,0xaa,0xaa,0x57,
 0xb5,0xb5,0xfb,0xde,0xff,0xef,0xfb,0xff,0xff,0xff,0xff,0xff,0xff,0xff,0xff,
 0xff,0xff,0x3f,0xdd,0xdd,0x7f,0xff,0xff,0xfe,0xff,0xff,0xff,0xff,0xfb,0xff,
 0xff,0xff,0xff,0xff,0xff,0xff,0xff,0xff,0xdf,0xff,0xff,0x3f,0x55,0xa6,0x80,
 0x02,0x90,0x92,0x4a,0x4a,0x92,0xfa,0xff,0xff,0x2f,0x52,0x55,0xa9,0xaa,0xd6,
 0xb6,0xad,0xf6,0x7e,0xff,0x3e,0xaa,0xb5,0x7f,0xfd,0x57,0x6d,0xb5,0xb5,0x6d,
 0xff,0xff,0xff,0xff,0x6d,0xbb,0x77,0xff,0xfd,0xff,0xff,0xff,0xfb,0xdb,0x3f,
 0xab,0xaa,0x48,0x55,0xda,0xaa,0xaa,0x56,0x55,0xfd,0x7f,0xff,0x7f,0xaa,0x4a,
 0x99,0x49,0x2a,0x89,0xa4,0x12,0x8a,0x54,0x05,0xaa,0xaa,0xb6,0xaa,0xa5,0x5a,
 0x55,0x55,0xd5,0xde,0xff,0xff,0xde,0xd5,0xba,0x56,0xb7,0xd5,0x76,0x5b,0xed,
 0x75,0xab,0x3a,0x55,0x55,0x55,0x55,0xb5,0xaa,0x6a,0xb5,0x6a,0xfb,0xff,0xff,
 0x7f,0x5a,0x4b,0x6b,0xa9,0x5a,0x55,0x55,0x55,0x55,0x55,0x15,0xaa,0xaa,0xaa,
 0xaa,0xaa,0xaa,0x55,0xd5,0x56,0xff,0xfb,0xff,0x7f,0x55,0xb5,0x5a,0x55,0xab,
 0xaa,0x6a,0xab,0x56,0x6d,0x15,0x55,0x55,0x55,0x55,0x55,0x55,0xad,0xaa,0xaa,
 0xfe,0xff,0xef,0xfe,0x55,0x55,0xa5,0xaa,0xaa,0xaa,0x95,0x54,0xa9,0xaa,0x2a,
 0xaa,0xaa,0xaa,0xaa,0xaa,0xaa,0xaa,0x56,0xd5,0x7f,0xff,0xff,0x7f,0x55,0xad,
 0xb6,0xb5,0xaa,0x55,0xb5,0xb5,0x56,0x55,0x15,0x55,0x55,0x55,0x55,0x55,0x55,
 0xd5,0xaa,0xaa,0xee,0xff,0xff,0xfb,0xab,0x52,0x55,0x56,0x55,0x55,0x55,0x55,
 0xa9,0xaa,0x2a,0xaa,0xaa,0xaa,0xaa,0xaa,0xda,0xaa,0xaa,0xd5,0xff,0xff,0xff,
 0xff,0x55,0x6b,0x55,0x55,0xad,0xaa,0xaa,0xaa,0x56,0x55,0x15,0x55,0x55,0x55,
 0x55,0x55,0xa5,0xaa,0xaa,0x5a,0xff,0xdf,0xff,0xff,0xab,0x9a,0xaa,0xaa,0x52,
 0x55,0x55,0x55,0xa9,0xaa,0x2a,0xaa,0xaa,0xaa,0xaa,0xaa,0xad,0xaa,0xaa,0xaa,
 0xff,0xff,0xff,0xdf,0x57,0x65,0x55,0x55,0xad,0xaa,0xaa,0xaa,0x56,0x55,0x15,
 0x55,0x55,0x55,0xb5,0xaa,0x52,0x55,0xad,0xaa,0xfe,0xff,0xbf,0xff,0x5f,0x55,
 0x55,0x55,0x55,0x55,0x55,0x55,0xa9,0xaa,0x2a,0xaa,0xaa,0xaa,0xaa,0xaa,0xaa,
 0xaa,0xaa,0xaa,0xff,0xff,0xff,0xff,0xab,0xaa,0xaa,0xaa,0xaa,0xaa,0xaa,0xaa,
 0xaa,0xaa,0x2a,0x11,0x49,0xa9,0x4a,0x55,0x55,0x55,0x55,0xd5,0xfe,0xff,0xfe,
 0xfb,0x5f,0x55,0x55,0x55,0x55,0x55,0x55,0x55,0x55,0x55,0x15,0xaa,0x52,0x4a,
 0x55,0x55,0x55,0x55,0x55,0x55,0xff,0xfd,0xff,0xff,0x57,0x55,0x55,0x55,0x55,
 0x55,0x55,0x55,0x55,0x55,0x2d,0x4a,0xaa,0x2a,0xa9,0x2a,0x95,0xaa,0x52,0x55,
 0xff,0xff,0xff,0xbf,0x1f,0xa9,0xaa,0xaa,0xaa,0xaa,0xaa,0xaa,0xaa,0xaa,0x12,
 0x52,0x25,0x55,0x95,0xa4,0xaa,0x94,0xaa,0xaa,0xfd,0xff,0xff,0xff,0xaf,0x4a,
 0x55,0x55,0x55,0x55,0x55,0x55,0x55,0x55,0x2d,0x29,0x52,0x91,0xa4,0xaa,0xa4,
 0x4a,0x2a,0x55,0xff,0xff,0xff,0xff,0x5f,0x55,0x92,0x24,0x49,0x4a,0x2a,0x29,
 0x55,0xaa,0x12,0x52,0x95,0xaa,0x4a,0x49,0x55,0xb5,0xaa,0xaa,0xff,0xff,0xdf,
 0xff,0x3f,0xa9,0xaa,0xaa,0xaa,0x52,0x49,0x55,0xa9,0x92,0x24,0x89,0xa4,0x94,
 0x54,0xaa,0x2a,0x49,0x55,0x49,0xfd,0xff,0xff,0xff,0x7f,0x14,0x49,0x95,0x52,
 0xaa,0xaa,0x92,0x4a,0x4a,0x15,0x2a,0x49,0xa5,0x52,0x55,0xaa,0xaa,0xaa,0xaa,
 0xfe,0xff,0xff,0x7b,0x5f,0xa9,0x2a,0x29,0xa5,0x12,0x55,0x2a,0x95,0x2a,0x29,
 0x52,0x55,0x52,0x2a,0x25,0x49,0x55,0x49,0x55,0xbf,0xff,0xff,0xff,0x7f,0x46,
 0x92,0xa4,0x54,0xaa,0x12,0xa5,0xa4,0xa4,0x0a,0x4a,0x92,0xaa,0x4a,0xa9,0xaa,
 0x4a,0xaa,0xaa,0xfd,0xbf,0xff,0xff,0xbf,0x98,0xaa,0x4a,0x89,0xaa,0x54,0xa9,
 0xaa,0x4a,0x12,0x51,0x49,0x29,0x29,0x55,0x95,0x50,0x25,0x49,0xff,0xff,0xbf,
 0xff,0x7d,0x45,0x49,0xaa,0x6a,0x49,0x4a,0x25,0x51,0x52,0x29,0x8a,0x2a,0xa5,
 0xaa,0x92,0x52,0xab,0xaa,0xaa,0xfe,0xff,0xff,0xff,0xff,0x5a,0xaa,0x52,0x25,
 0x95,0xaa,0x54,0x26,0x95,0x0a,0x54,0xa4,0x52,0x92,0x54,0xa9,0x28,0xa9,0xaa,
 0xff,0xff,0xff,0xff,0x7f,0x21,0x49,0x29,0x92,0xa4,0x52,0x4a,0x51,0x49,0x25,
 0xa9,0x4a,0x94,0xaa,0x4a,0x4a,0x4b,0x55,0x4a,0xff,0xff,0xff,0xdd,0xff,0x4a,
 0x95,0x52,0x55,0x55,0x4a,0x95,0x96,0x52,0x0a,0x84,0xa4,0x4a,0x91,0xa4,0xaa,
 0x54,0x55,0xa9,0xfe,0xff,0xef,0xff,0xef,0xa9,0x52,0x4a,0x49,0x29,0xa5,0xa4,
 0x24,0xa9,0x24,0x35,0x29,0x55,0x55,0x59,0x95,0xaa,0x4a,0x55,0xff,0xff,0xff,
 0xff,0x7f,0x09,0x95,0x2a,0x95,0x52,0x49,0x29,0xa9,0x4a,0x29,0x88,0x4a,0x22,
 0x25,0x95,0xa4,0x4a,0xa9,0xaa,0xfe,0xff,0x7f,0xff,0xff,0xd5,0xa4,0xa4,0x52,
 0x4a,0xaa,0x54,0x95,0xa4,0x14,0xa5,0x94,0x54,0x4a,0xa5,0xaa,0x54,0x55,0x55,
 0xff,0xff,0xff,0xff,0xfe,0x29,0x55,0x49,0x4a,0x95,0x24,0xa5,0xa4,0x4a,0x25,
 0x52,0x4a,0x95,0x52,0xa9,0x94,0xaa,0xaa,0xa4,0xde,0xf7,0xff,0xf7,0xff,0x93,
 0x24,0x35,0x25,0x49,0x95,0x12,0x29,0x29,0x12,0xaa,0x52,0xa9,0x2a,0x95,0x52,
 0x55,0x25,0x55,0xff,0xff,0xff,0xff,0xff,0x25,0x49,0x42,0xa9,0x52,0x2a,0x55,
 0x4a,0x52,0x25,0x00,0x48,0x94,0x94,0x52,0x55,0x8a,0x54,0x55,0xff,0xff,0xfb,
 0xff,0xff,0x49,0x55,0xb5,0x94,0x94,0xa2,0x48,0xa5,0x4a,0x12,0xaa,0x92,0x22,
 0xa9,0x54,0x4a,0x29,0x55,0xa9,0xfe,0xff,0xff,0xff,0xf7,0x93,0x24,0x49,0x25,
 0x29,0x55,0x95,0x54,0xa9,0x14,0x00,0x20,0x48,0x02,0x09,0x91,0x44,0x02,0x84,
 0xfe,0xff,0xff,0x7e,0xff,0x53,0x92,0x94,0x54,0xa5,0x92,0xa4,0x92,0x24,0x15,
 0xaa,0x82,0x02,0xa9,0xa4,0x4a,0x92,0xb4,0x55,0xff,0xff,0xff,0xff,0xff,0xa3,
 0xaa,0x52,0x55,0x4a,0x55,0x55,0x55,0x55,0x09,0x00,0x28,0x50,0x02,0x21,0x90,
 0x24,0x45,0x20,0xfd,0xff,0xff,0xff,0x7f,0x07,0x00,0x08,0x00,0x21,0x20,0x10,
 0x88,0x08,0x12,0x52,0x82,0x82,0x28,0x94,0x22,0x49,0x88,0x4a,0xff,0xff,0xef,
 0xf7,0xfb,0x53,0x55,0xa5,0xaa,0x54,0x4b,0xab,0x52,0x52,0x25,0x80,0x50,0x28,
 0x84,0x42,0x14,0x92,0x52,0x24,0xfe,0xff,0xff,0xff,0xff,0x2f,0x20,0x10,0x11,
 0x09,0x20,0x40,0x08,0x24,0x00,0x0a,0x02,0x41,0x51,0x14,0xa1,0x48,0x84,0x92,
 0xfd,0xff,0xff,0xbf,0xff,0x83,0x8a,0x22,0x4a,0xa4,0x4a,0x85,0xa2,0x90,0x2a,
 0x90,0x50,0x14,0x08,0x82,0x4a,0x22,0x52,0x44,0xfe,0xff,0xff,0xff,0xff,0x1f,
 0x40,0x48,0x01,0x09,0x10,0x50,0x10,0x0a,0x04,0x44,0x82,0xa0,0x52,0x29,0x88,
 0x94,0x24,0x29,0xfd,0xff,0xff,0xff,0xff,0x4f,0x15,0x05,0x2a,0xa2,0xa2,0x8a,
 0x4a,0x51,0x11,0x01,0x28,0x14,0x04,0x44,0x25,0x22,0x49,0x42,0xfa,0xff,0xbf,
 0xf7,0xbf,0x1f,0x80,0xa0,0x40,0x91,0x14,0x41,0x20,0x44,0x08,0x28,0x41,0xa1,
 0x50,0x11,0x48,0x89,0x24,0x89,0xfe,0xff,0xff,0xff,0xfe,0x2f,0x29,0x0a,0x15,
 0x4a,0x40,0x94,0x8a,0x12,0x25,0x42,0x14,0x08,0x0a,0xa4,0x22,0x24,0x89,0x54,
 0xf8,0xff,0xff,0xff,0xff,0x3f,0x84,0x50,0x82,0x10,0x2a,0x22,0x40,0x80,0x00,
 0x08,0xa1,0x52,0x50,0x11,0x49,0x49,0x52,0x22,0xf7,0xff,0xfe,0xff,0xff,0x8f,
 0x10,0x89,0x28,0x45,0x81,0x88,0x2a,0x55,0x2a,0x21,0x08,0x00,0x05,0x44,0x12,
 0x92,0x84,0x88,0xf8,0xff,0xff,0xff,0xef,0x3f,0x44,0x22,0x84,0x20,0x54,0x22,
 0x00,0x82,0x00,0x84,0x44,0x55,0xa8,0x12,0x49,0x44,0x12,0x25,0xfe,0xff,0xff,
 0xdf,0xff,0x9f,0x12,0x88,0x52,0x4a,0x01,0x49,0x55,0x14,0x0a,0x20,0x10,0x00,
 0x45,0x48,0x22,0x91,0xa4,0x48,0xe9,0xff,0xff,0xff,0x7f,0x7f,0x84,0x42,0x08,
 0x10,0xa8,0x10,0x00,0x41,0x11,0x82,0x42,0x15,0x88,0x22,0x49,0x42,0x12,0x11,
 0xfd,0xff,0xff,0xfd,0xfd,0x0f,0x51,0x94,0xa4,0xa2,0x42,0xa2,0xaa,0x14,0x02,
 0x28,0x10,0xa0,0x22,0x10,0x92,0x94,0x48,0x4a,0xf2,0xff,0xdf,0xff,0xff,0x3f,
 0x04,0x01,0x01,0x10,0x28,0x09,0x00,0x81,0x10,0x80,0xa2,0x04,0x49,0xa5,0x48,
 0x12,0xa5,0x24,0xfd,0xff,0xff,0xff,0xff,0x3f,0x51,0x54,0x54,0xa5,0x42,0xa4,
 0x2a,0x2a,0x05,0x25,0x08,0x48,0x10,0x08,0x84,0xa4,0x10,0x91,0xf0,0xff,0xff,
 0xff,0xbf,0x5f,0x04,0x09,0x81,0x02,0x14,0x09,0x80,0x40,0x10,0x80,0x20,0x21,
 0x45,0x51,0x11,0x11,0x25,0x4a,0xfe,0xff,0xff,0xff,0xff,0x3f,0x51,0x24,0x54,
 0x49,0x21,0xa4,0x2a,0x0a,0x25,0x28,0x0a,0x0a,0x20,0x0a,0xa4,0x88,0x48,0x81,
 0xe8,0xff,0xff,0xff,0xfb,0x3f,0x0a,0x00,0xed,0x2a,0x10,0x11,0x80,0xa0,0x08,
 0x02,0xa0,0xa0,0x8a,0x50,0x09,0x25,0x11,0x2a,0xf5,0xff,0xff,0xff,0xff,0x3e,
 0xa0,0x42,0xda,0x15,0x45,0x44,0x15,0x0a,0x22,0x90,0x0a,0x14,0x20,0x45,0xa4,
 0x90,0xa4,0x44,0xfa,0xff,0xff,0xdf,0xff,0xff,0x00,0x90,0x6a,0xdd,0x10,0x11,
 0x40,0x81,0x08,0x42,0x50,0xa1,0x8a,0x88,0x12,0x45,0x8a,0x28,0xfd,0xff,0xdf,
 0xff,0xef,0x1f,0x00,0x24,0xb5,0x2b,0x42,0x44,0x05,0x54,0x22,0x08,0x01,0x08,
 0x20,0x22,0x44,0x22,0x21,0x45,0xf4,0xff,0xff,0xff,0xff,0xff,0x40,0x80,0xee,
 0xfd,0x14,0x11,0x50,0x01,0x08,0x20,0x24,0xa1,0x8a,0x48,0x11,0x89,0x94,0x88,
 0xfa,0xff,0xff,0xff,0xfe,0x7f,0x04,0xa9,0xba,0x56,0x41,0x44,0x05,0xaa,0x22,
 0x0a,0x49,0x08,0x20,0x92,0x48,0x24,0x22,0x52,0xf8,0xff,0xff,0xfd,0xff,0xfe,
 0x01,0x84,0xda,0x7f,0x15,0x01,0xa0,0x00,0x08,0x20,0x00,0xa5,0x8a,0x08,0x25,
 0x49,0x49,0x89,0xf6,0xff,0xff,0xff,0xff,0xff,0x90,0x68,0x77,0x75,0x01,0x54,
 0x12,0x4a,0x02,0x08,0x49,0x00,0x20,0x42,0x48,0x22,0x24,0x24,0xf9,0xff,0xff,
 0xff,0xff,0xff,0xa1,0xbe,0x80,0xbe,0x49,0x81,0x80,0x90,0x10,0x22,0x20,0x55,
 0x45,0x94,0x22,0x49,0x49,0x49,0xf4,0xff,0xff,0xff,0xdf,0x7f,0x95,0xd2,0x95,
 0x6e,0x22,0x24,0x0a,0x41,0x02,0x80,0x0a,0x00,0x10,0x21,0x48,0x24,0x22,0x22,
 0xf5,0xff,0xff,0xbf,0xfb,0xff,0xeb,0x16,0x20,0xd0,0x0a,0x89,0x50,0x14,0x10,
 0x0a,0x50,0x55,0x45,0x44,0x85,0x88,0x94,0x94,0xf8,0xff,0xff,0xff,0xff,0xfb,
 0x5c,0x55,0x8a,0xea,0x22,0x20,0x82,0xa0,0x0a,0x90,0x04,0x00,0x10,0x29,0x50,
 0x52,0x42,0x22,0xfe,0xff,0xfd,0xff,0xff,0xff,0xab,0x82,0x40,0xa0,0x88,0x8a,
 0x28,0x0a,0x00,0x40,0x90,0x54,0x45,0x44,0x85,0x84,0x94,0x94,0xfa,0xff,0xff,
 0xff,0xff,0xbf,0x57,0x14,0x8a,0x6a,0x21,0x10,0x41,0x50,0x15,0x14,0x04,0x01,
 0x10,0x11,0x20,0x22,0x21,0x42,0xff,0xff,0xdf,0xff,0xff,0xff,0x08,0x21,0x21,
 0x90,0x08,0x45,0x14,0x05,0x00,0x42,0x51,0x54,0x22,0xa2,0x4a,0x49,0x4a,0xa9,
 0xff,0xff,0xff,0xff,0xdf,0x2f,0x25,0x84,0x94,0x62,0x91,0x10,0x41,0x50,0x0a,
 0x00,0x04,0x00,0x88,0x08,0x21,0x24,0x21,0xa4,0xff,0xbd,0xff,0xfd,0xff,0x1f,
 0x80,0x48,0x20,0x08,0x24,0x44,0x28,0x84,0x10,0x2a,0x90,0x4a,0x51,0x52,0x94,
 0x48,0x4a,0xd1,0xff,0xff,0xff,0xff,0xff,0x57,0x15,0x21,0x45,0xa5,0x80,0x08,
 0x81,0x12,0x05,0x00,0x25,0x00,0x04,0x04,0x42,0x92,0x24,0xd4,0xff,0xff,0xff,
 0xff,0xfb,0x8f,0x80,0x48,0x10,0x00,0x2a,0xa2,0x28,0x40,0x00,0x24,0x80,0xaa,
 0x90,0x50,0x29,0x09,0x49,0xe9,0xff,0xff,0xfb,0xff,0xff,0x2f,0x2a,0x82,0xa2,
 0xaa,0x40,0x08,0x42,0x95,0x2a,0x81,0x24,0x00,0x24,0x0a,0x42,0xa2,0x90,0xe4,
 0xff,0xff,0xff,0xdf,0xff,0x3f,0x80,0x28,0x08,0x00,0x94,0x82,0x14,0x00,0x00,
 0x14,0x90,0xaa,0x90,0x50,0x14,0x44,0x0a,0xf9,0xff,0xff,0xff,0xff,0xff,0x8f,
 0x24,0x42,0xa5,0x2a,0x01,0x54,0xa0,0xaa,0x0a,0x00,0x05,0x00,0x05,0x04,0x41,
 0x29,0xa2,0xe4,0xff,0xff,0xff,0xff,0xff,0x3f,0x89,0x10,0x08,0x40,0x24,0x01,
 0x0a,0x00,0x10,0x48,0x50,0x92,0xa8,0x52,0x2a,0x42,0x49,0xfa,0xff,0xff,0xdf,
 0xff,0xdf,0x3f,0x24,0xa2,0xa2,0x12,0x91,0x54,0xa1,0xaa,0x02,0x12,0x04,0x24,
 0x02,0x08,0x81,0x28,0x92,0xf4,0xff,0xff,0xff,0xff,0xff,0x7e,0x81,0x08,0x10,
 0x44,0x04,0x00,0x08,0x00,0x10,0x40,0x51,0x81,0xa8,0xa2,0x54,0x92,0x08,0xf9,
 0xdf,0xff,0xff,0xff,0xff,0x3f,0x24,0x52,0x45,0x10,0x51,0x55,0xa2,0xaa,0x02,
 0x10,0x04,0x28,0x22,0x10,0x80,0x24,0x52,0xfc,0xff,0xff,0xfd,0xf7,0xfe,0x7f,
 0x82,0x00,0x10,0x45,0x08,0x80,0x10,0x00,0x10,0x42,0x90,0x80,0x88,0x4a,0x15,
 0x42,0x89,0xfa,0xff,0xff,0xff,0xff,0xff,0x5f,0x08,0xaa,0x22,0x08,0xa5,0x0a,
 0x42,0x55,0x05,0x10,0x22,0x2a,0xa2,0x80,0x40,0x29,0x44,0xf4,0xff,0xff,0xff,
 0xff,0xff,0xff,0xa0,0x00,0x88,0xa2,0x00,0xa0,0x10,0x00,0x10,0x42,0x08,0x80,
 0x08,0x2a,0x2a,0x44,0xa9,0xfa,0xff,0xff,0x7f,0xff,0xff,0x7f,0x04,0x4a,0x11,
 0x04,0xaa,0x12,0x45,0x95,0x02,0x10,0x42,0x29,0x42,0x81,0x84,0x22,0x12,0xfd,
 0xff,0xfb,0xff,0xff,0xef,0xff,0x91,0x10,0x44,0x51,0x01,0x44,0x20,0x20,0x10,
 0x42,0x08,0x84,0x28,0x54,0x12,0x94,0x24,0xfd,0xff,0xff,0xff,0xff,0xff,0xff,
 0x40,0x42,0x12,0x04,0x2a,0x11,0x85,0x82,0x0a,0x10,0x22,0x21,0x02,0x02,0xa0,
 0x22,0x49,0xfe,0xff,0xff,0xff,0x7f,0x7f,0xfb,0x13,0x90,0x80,0xa2,0x40,0x44,
 0x50,0x50,0x00,0x44,0x08,0x84,0xa8,0xa8,0x0a,0x89,0x24,0xfd,0xff,0xff,0xff,
 0xff,0xff,0xff,0x88,0x42,0x2a,0x08,0x05,0x11,0x05,0x05,0x15,0x01,0x42,0x21,
 0x04,0x04,0x44,0x42,0x48,0xff,0xff,0xff,0xf7,0xfd,0xff,0xff,0x23,0x10,0x00,
 0x45,0x50,0x44,0x40,0x40,0x00,0xa8,0x08,0x84,0x50,0xa9,0x92,0x28,0xa5,0xff,
 0xff,0xff,0xff,0xff,0xff,0xff,0x83,0x4a,0x55,0x90,0x84,0x10,0x15,0x95,0x0a,
 0x02,0x20,0x21,0x05,0x42,0x20,0x8a,0x80,0xfe,0xff,0x7f,0xff,0xff,0xbf,0xff,
 0x07,0x00,0x80,0x24,0x21,0x44,0x40,0x20,0x10,0x48,0x85,0x14,0xa8,0x88,0x8a,
 0x50,0x2a,0xff,0xff,0xff,0xff,0xbf,0xff,0xff,0x53,0x24,0x15,0x02,0x4a,0x11,
 0x15,0x89,0x04,0x01,0x10,0x80,0x02,0x22,0x40,0x0a,0x49,0xff,0xff,0xff,0xff,
 0xff,0xfd,0xdf,0x0f,0x09,0x80,0xa0,0x10,0x44,0x00,0x02,0x01,0x24,0x44,0x4a,
 0x48,0x48,0x15,0x51,0x92,0xff,0xff,0xff,0xbf,0xff,0xff,0xff,0x07,0xa0,0x4a,
 0x0a,0x42,0x11,0xa5,0x28,0x14,0x00,0x01,0x00,0x12,0x12,0xa2,0x04,0x21,0xfa,
 0xff,0xff,0xff,0xfb,0xff,0xfb,0x9f,0x08,0x10,0xa0,0x24,0x44,0x08,0x80,0x02,
 0x92,0x54,0x55,0x48,0x41,0x04,0x52,0x4a,0xff,0xff,0xff,0xff,0xff,0xbf,0xff,
 0x0f,0xa2,0x40,0x05,0x90,0x10,0x21,0x15,0x08,0x00,0x00,0x00,0x02,0x14,0xa9,
 0x24,0x91,0xfc,0xff,0xff,0xff,0xff,0xff,0xff,0x3e,0x00,0x14,0x50,0x05,0x44,
 0x48,0x80,0x02,0x2a,0x45,0x92,0x28,0xa1,0x40,0x92,0x44,0xff,0xff,0xdf,0xff,
 0xff,0xff,0xff,0x8f,0x2a,0x41,0x09,0xa8,0x10,0x01,0x55,0x14,0x00,0x90,0x20,
 0x42,0x08,0x94,0x20,0x92,0xfe,0xff,0xff,0xff,0xff,0xff,0xff,0x3f,0x80,0x10,
 0x82,0x02,0x44,0x54,0x00,0x01,0x48,0x02,0x8a,0x08,0x51,0x21,0x8a,0x48,0xff,
 0xff,0xff,0xfb,0xff,0xfe,0xff,0x3f,0x11,0x42,0x28,0x54,0x11,0x81,0x0a,0x24,
 0x02,0x48,0x00,0x42,0x0a,0x0a,0x51,0x52,0xff,0xff,0xff,0xff,0xff,0xff,0xdf,
 0x7f,0x84,0x14,0x02,0x01,0x44,0x28,0x40,0x09,0xa8,0x00,0x55,0x14,0xa0,0x50,
 0x8a,0xc4,0xff,0xff,0xfe,0xbf,0xff,0xef,0xfe,0x7f,0x10,0xa0,0x28,0x54,0x11,
 0x81,0x2a,0x20,0x00,0x52,0x00,0x81,0x0a,0x8a,0x50,0x22,0xfe,0xff,0xff,0xff,
 0xef,0xff,0xff,0xfd,0x43,0x0a,0x42,0x01,0x44,0x2a,0x00,0x09,0x12,0x08,0x49,
 0x14,0x50,0x50,0x22,0xc9,0xff,0xff,0xff,0xff,0xff,0xff,0xff,0xff,0x00,0x21,
 0x08,0x2a,0x11,0x40,0x25,0x04,0x80,0x42,0x10,0x41,0x85,0x0a,0x89,0x24,0xff,
 0xff,0xff,0xff,0xff,0xff,0xf7,0xff,0x52,0x88,0x92,0x40,0x84,0x14,0x08,0x11,
 0x14,0x08,0x41,0x24,0x28,0x50,0x24,0xc9,0xff,0xff,0xff,0xff,0xff,0xff,0xff,
 0xef,0x09,0x21,0x40,0x0a,0x11,0x22,0x21,0x00,0x01,0x41,0x14,0x09,0x82,0x0a,
 0x49,0xa4,0xfe,0xff,0xff,0xff,0xff,0xfe,0xff,0xff,0x43,0x88,0x14,0x40,0x84,
 0x48,0x08,0x15,0x24,0x24,0x42,0xa0,0x28,0xa4,0x24,0xc9,0xff,0xff,0xff,0xf7,
 0xff,0xff,0xff,0xff,0x10,0x01,0x42,0x15,0x51,0x04,0x21,0x00,0x00,0x81,0x10,
 0x0a,0x05,0x11,0x88,0xa2,0xff,0xff,0xff,0xff,0xff,0xff,0xff,0xfe,0x47,0xa8,
 0x20,0x40,0x04,0x41,0x88,0x12,0x48,0x04,0x42,0x50,0x50,0xa2,0x52,0xd4,0xff,
 0xff,0xbf,0x7f,0xff,0xef,0xfd,0xff,0x01,0x01,0x8a,0x12,0x51,0x14,0x21,0x08,
 0x12,0xa0,0x90,0x04,0x89,0x14,0x04,0xe9,0xff,0xff,0xff,0xff,0xff,0xff,0xff,
 0xff,0x47,0x94,0x20,0x44,0x04,0x41,0x0a,0x02,0x40,0x09,0x02,0x92,0x24,0x42,
 0xa9,0xe4,0xff,0xff,0xff,0xff,0xff,0xff,0xff,0xff,0x0b,0x40,0x82,0x10,0x11,
 0x0a,0x50,0x28,0x08,0x80,0xa8,0x20,0x80,0x28,0x12,0xa9,0xbf,0xf7,0xff,0xff,
 0xff,0xff,0xbf,0xf7,0x27,0x15,0x28,0x04,0xa4,0x40,0x05,0x02,0x20,0x15,0x02,
 0x8a,0x2a,0x42,0x48,0xf4,0xff,0xff,0xff,0xff,0xef,0xff,0xff,0xff,0x07,0x40,
 0x81,0x50,0x00,0x15,0x50,0x08,0x0a,0x80,0x90,0x20,0x00,0x91,0x22,0xd2,0xff,
 0xff,0xff,0xfd,0xff,0xfb,0xff,0xff,0x5f,0x15,0x28,0x04,0x55,0x80,0x04,0x02,
 0x20,0x49,0x42,0x92,0x2a,0x4a,0x44,0xe9,0xff,0xff,0xfd,0xff,0xff,0xff,0xff,
 0xff,0x0b,0x40,0x81,0x52,0x00,0x49,0x92,0x08,0x00,0x00,0x10,0x04,0x80,0x00,
 0x29,0xf4,0xff,0xff,0xff,0xbf,0xff,0x7f,0xdb,0xfb,0x0f,0x11,0x28,0x00,0x29,
 0x02,0x00,0x02,0x4a,0x49,0x42,0x51,0x55,0x2a,0x42,0xe9,0xff,0xff,0xff,0xff,
 0xff,0xff,0xff,0xff,0x17,0x44,0x82,0x4a,0x80,0x28,0x29,0x28,0x00,0x10,0x10,
 0x08,0x00,0x91,0x28,0xf2,0xff,0xff,0xff,0x87,0xff,0xff,0xff,0x7f,0x1f,0x81,
 0x20,0x00,0x2a,0x02,0x82,0x02,0x94,0x42,0x45,0xa2,0x2a,0x22,0x45,0xec,0xff,
 0xff,0xff,0xf7,0xbf,0xff,0xff,0xff,0x97,0x14,0x8a,0x2a,0x81,0xa8,0x08,0x08,
 0x01,0x08,0x90,0x10,0x80,0x48,0x22,0xf9,0xff,0xff,0xef,0x03,0xfe,0xff,0xff,
 0xff,0x3f,0x80,0x00,0x40,0x24,0x00,0xa0,0x04,0x28,0x20,0x41,0x4a,0x55,0x02,
 0x49,0xfa,0xff,0xff,0xff,0xa1,0xff,0xff,0xff,0xef,0x5f,0x24,0xaa,0x04,0x91,
 0x4a,0x05,0x12,0x00,0x09,0x14,0x00,0x00,0xa8,0x90,0xfc,0xff,0xff,0xff,0x13,
 0xfd,0xff,0xff,0xff,0x7f,0x00,0x00,0x50,0x00,0x10,0x90,0x00,0x22,0x44,0x40,
 0xa9,0xaa,0x42,0x4a,0xee,0xff,0xff,0xff,0x48,0xff,0xff,0xff,0xff,0xbf,0xa4,
 0x52,0x01,0x55,0x41,0x02,0x12,0x08,0x11,0x15,0x02,0x40,0x10,0x11,0xfd,0xff,
 0xff,0xff,0x01,0xf8,0xff,0xff,0xfe,0xfd,0x00,0x00,0x54,0x00,0x14,0xa0,0x00,
 0x20,0x40,0x40,0xa8,0x8a,0x4a,0x44,0xfd,0xff,0xff,0x7f,0xaa,0xfe,0xff,0xef,
 0xff,0x7f,0x42,0x4a,0x00,0x55,0x42,0x05,0x0a,0x04,0x09,0x12,0x02,0x20,0x90,
 0x52,0xfe,0xff,0xff,0xfe,0x08,0xf9,0xff,0xff,0xbf,0xff,0x11,0x00,0x4a,0x80,
 0x10,0xa0,0x00,0x40,0x20,0x48,0x54,0x45,0x05,0x84,0xfd,0xff,0xff,0x3f,0x52,
 0xfa,0xff,0xff,0xff,0xff,0x40,0x95,0x20,0x09,0x42,0x0a,0x12,0x12,0x44,0x01,
 0x01,0x10,0x50,0x29,0xfe,0xff,0xff,0x7f,0x00,0xe4,0xff,0xff,0xff,0xef,0x0b,
 0x00,0x08,0x40,0x08,0x40,0x00,0x40,0x02,0x24,0x54,0xa5,0x82,0xa0,0xff,0xff,
 0xff,0x9f,0xaa,0xf8,0xff,0xff,0xff,0xff,0x20,0x24,0x21,0x15,0xa1,0x04,0x09,
 0x12,0x90,0x08,0x01,0x08,0x28,0x8a,0xfe,0xff,0xfb,0x2f,0x00,0xd2,0x7f,0xff,
 0xff,0xff,0x07,0x41,0x44,0x40,0x08,0x48,0x00,0x40,0x42,0x22,0x54,0xa1,0x42,
 0xa4,0xff,0xff,0xff,0x5f,0x55,0xe9,0xff,0xff,0xff,0xfd,0x03,0x04,0x11,0x09,
 0x21,0x01,0x25,0x08,0x10,0x00,0x01,0x94,0x28,0xd1,0xff,0xff,0xff,0x17,0x00,
 0x40,0xff,0xff,0xff,0xff,0xa7,0x40,0x00,0x20,0x44,0x48,0x00,0x42,0x42,0xaa,
 0x54,0x41,0x42,0x6a,0xff,0xff,0xff,0x4f,0x55,0xd5,0xff,0xff,0xfb,0xff,0x03,
 0x0a,0x55,0x85,0x10,0x21,0x04,0x00,0x08,0x00,0x00,0x94,0x90,0xe8,0xff,0xff,
 0xff,0x17,0x10,0x82,0xfe,0xff,0xbf,0xbf,0x8f,0x20,0x00,0x20,0x04,0x04,0x11,
 0x28,0x21,0x49,0xaa,0x00,0x25,0xfa,0xff,0xff,0xff,0x4f,0x45,0x54,0xff,0xff,
 0xff,0xff,0x07,0x80,0x44,0x92,0x20,0x10,0x00,0x02,0x04,0x00,0x00,0xaa,0x90,
 0xe4,0xff,0xff,0xff,0x07,0x90,0x02,0xfd,0xff,0xff,0xff,0x1f,0x2a,0x90,0x00,
 0x88,0x04,0x09,0x90,0x50,0xa9,0x24,0x01,0x45,0xfa,0xff,0x7f,0xf7,0x53,0x45,
 0x54,0xff,0xff,0xff,0xff,0x43,0x80,0x04,0x4a,0x21,0x52,0x20,0x00,0x04,0x02,
 0x08,0x52,0x20,0xf0,0xff,0xfe,0xff,0x05,0x10,0x89,0xfc,0xff,0xff,0xff,0x1f,
 0x11,0x41,0x00,0x88,0x00,0x04,0x4a,0x10,0x48,0x21,0x84,0x4a,0xfd,0xff,0xff,
 0xff,0xa3,0x4a,0x24,0xfd,0xff,0xff,0xf7,0x07,0x44,0x24,0x29,0x01,0x24,0x11,
 0x00,0x04,0x11,0x44,0x51,0x90,0xfa,0xff,0xff,0xff,0x11,0x20,0x91,0xf4,0xff,
 0xff,0xff,0x3f,0x00,0x00,0x00,0x52,0x41,0x00,0xa4,0x50,0x44,0x10,0x02,0x45,
 0xff,0xff,0xff,0xff,0x41,0x95,0x44,0xfa,0xff,0xff,0xff,0x8f,0x92,0x94,0x2a,
 0x08,0x04,0x05,0x00,0x04,0x00,0x85,0xa8,0xa0,0xff,0xff,0xff,0x7f,0x28,0x02,
 0x92,0xf0,0xff,0xbf,0xdf,0x1f,0x00,0x00,0x00,0x41,0x40,0x10,0x42,0x90,0x2a,
 0x10,0x01,0xd5,0xfe,0xff,0xff,0xff,0x42,0x54,0x09,0xfd,0xff,0xff,0xff,0x0f,
 0x29,0xa5,0xa4,0x04,0x15,0x01,0x10,0x22,0x00,0x45,0xa8,0xf8,0xff,0xff,0xff,
 0x3f,0x88,0x02,0x40,0xd0,0xff,0xff,0xff,0x57,0x00,0x00,0x00,0x40,0x00,0x08,
 0x44,0x88,0x24,0x88,0x02,0xea,0xff,0xff,0xff,0x5f,0x25,0x54,0x95,0xea,0xff,
 0xff,0xff,0x0f,0x49,0x92,0x2a,0x09,0x49,0x21,0x10,0x02,0x08,0x45,0xa8,0xfc,
 0xef,0xfb,0xff,0x2f,0x00,0x91,0x48,0xe0,0xff,0xff,0xff,0x4f,0x00,0x04,0x00,
 0x42,0x00,0x04,0x40,0x90,0x20,0x10,0x01,0xfd,0xff,0xff,0xdf,0x9f,0xaa,0x44,
 0x92,0xea,0xff,0xff,0xff,0x17,0x55,0x50,0x92,0x08,0x25,0x10,0x0a,0x22,0x0a,
 0x89,0x28,0xfd,0xff,0xff,0xff,0x0f,0x10,0x29,0x24,0x91,0xde,0xff,0xff,0x1f,
 0x00,0x02,0x04,0x40,0x80,0x02,0x20,0x08,0xa0,0x24,0x42,0xfe,0xff,0xff,0xff,
 0x57,0x25,0x42,0x11,0xe2,0xff,0xff,0xff,0x9f,0x48,0xa8,0x50,0x0a,0x09,0x08,
 0x00,0x01,0x09,0x00,0x91,0xff,0xff,0xff,0xfd,0x23,0x88,0x28,0x84,0x08,0xff,
 0xff,0xff,0x3f,0x02,0x02,0x04,0x40,0x42,0x02,0x12,0x24,0xa4,0x2a,0x4a,0xff,
 0xff,0xff,0xff,0x43,0x51,0x42,0x29,0xa5,0xff,0xff,0xef,0x2f,0x90,0x48,0x90,
 0x12,0x08,0x08,0x00,0x01,0x01,0x40,0x01,0xff,0xff,0xff,0xff,0x15,0x0a,0x29,
 0x92,0x90,0xfe,0xff,0xff,0x3f,0x22,0x02,0x22,0x00,0x41,0x02,0x24,0x54,0x54,
 0x0a,0xd4,0xff,0xff,0xff,0xff,0xa0,0x50,0x44,0x24,0x25,0xff,0xff,0xff,0x3d,
 0x01,0x28,0x81,0x24,0x14,0x11,0x00,0x01,0x80,0xa0,0xc2,0xff,0xff,0xff,0x7e,
 0x09,0x0a,0x29,0x89,0x88,0xfa,0xff,0xff,0x7f,0x48,0x02,0x28,0x08,0x01,0x00,
 0x12,0x48,0x05,0x05,0xd4,0xff,0xff,0xff,0x7f,0xa4,0x50,0x42,0x22,0x52,0xfe,
 0xff,0xff,0xbf,0x04,0x48,0x80,0x20,0xa4,0x24,0x80,0x02,0x50,0x50,0xe1,0xff,
 0xff,0xf7,0x1f,0x11,0x8a,0x14,0x11,0x09,0xf4,0xff,0xfe,0x7f,0x40,0x02,0x15,
 0x02,0x01,0x00,0x24,0x28,0x01,0x09,0xfa,0xff,0xff,0xff,0x5f,0xa4,0x50,0xa2,
 0xa4,0xa4,0xfa,0xff,0xff,0x7f,0x04,0x29,0x40,0x48,0x54,0x15,0x00,0x02,0x54,
 0x82,0xe4,0xff,0xff,0xff,0x07,0x11,0x8a,0x28,0x12,0x48,0xf4,0xff,0xff,0xff,
 0x48,0x80,0x08,0x02,0x00,0x00,0x92,0x48,0x00,0x28,0xfa,0xff,0xff,0xff,0x4f,
 0xa4,0x24,0x91,0xa4,0x22,0xf9,0xff,0xff,0x7f,0x00,0x11,0x22,0xa8,0x12,0x09,
 0x00,0x00,0x24,0x05,0xf9,0xff,0xff,0xff,0x23,0x09,0x91,0x44,0x12,0x11,0xd2,
 0xfb,0xbf,0xff,0x21,0x84,0x00,0x02,0x40,0x00,0x94,0x52,0x91,0x50,0xf6,0xff,
 0xbf,0xdf,0x13,0x52,0x4a,0x2a,0x49,0x4a,0xe9,0xff,0xff,0xff,0x14,0x10,0x4a,
 0x28,0x09,0x25,0x01,0x00,0x00,0x04,0xfd,0xff,0xff,0xff,0x84,0x08,0x11,0x41,
 0x92,0x20,0xa0,0xff,0xff,0xf7,0x81,0x44,0x00,0x02,0x00,0x00,0x48,0x92,0x4a,
 0x50,0xfe,0xfe,0xff,0xfb,0x29,0xa5,0xa4,0x14,0x49,0x4a,0xd5,0xff,0xff,0xff,
 0x00,0x02,0x29,0x91,0x52,0x04,0x00,0x00,0x00,0x05,0xff,0xff,0xff,0x7f,0x40,
 0x10,0x09,0xa5,0x04,0x11,0x40,0xff,0xff,0xff,0xa9,0x40,0x00,0x00,0x00,0x11,
 0x92,0x54,0x52,0xa8,0xfe,0xff,0xf7,0xbf,0x8a,0x4a,0x52,0x08,0x29,0xa2,0xaa,
 0xff,0xff,0xff,0x00,0x14,0x49,0x2a,0x25,0x00,0x00,0x00,0x00,0x82,0xff,0xff,
 0xff,0x1f,0x20,0xa0,0x88,0x52,0x44,0x09,0x40,0xff,0xff,0xff,0x03,0x00,0x00,
 0x40,0x00,0x09,0x00,0x00,0x09,0xd1,0xff,0xff,0xff,0x4f,0x45,0x15,0x25,0xa2,
 0x12,0x52,0x95,0xff,0xff,0xff,0x50,0x91,0x94,0x02,0x09,0x04,0x00,0x04,0x00,
 0xa0,0xff,0xff,0xff,0x07,0x10,0x00,0x80,0x08,0x80,0x08,0x41,0xfc,0xff,0xff,
 0x07,0x04,0x21,0x50,0x50,0x11,0x24,0x10,0x40,0xc0,0xff,0xff,0xff,0x0b,0x40,
 0x55,0x15,0x51,0x55,0xa2,0x94,0xfe,0xff,0xff,0x11,0x50,0x84,0x02,0x05,0x04,
 0x4a,0xa5,0xaa,0xea,0xff,0xff,0xfe,0xa3,0x2a,0x00,0x40,0x0a,0x00,0x08,0x00,
 0xf4,0xff,0xfd,0x03,0x00,0x00,0x00,0x40,0x00,0x92,0x4a,0x12,0xa9,0xff,0xff,
 0xff,0x05,0x40,0xad,0x2a,0x51,0xab,0xa2,0x2a,0xfd,0xff,0xff,0x42,0x02,0x48,
 0x94,0x10,0x11,0x6a,0x55,0xed,0xea,0xff,0xef,0xff,0xb2,0xbf,0xd6,0x55,0xad,
 0xaa,0x5a,0x55,0xe9,0xff,0xff,0x8f,0xa8,0x12,0x41,0x04,0x04,0x95,0xaa,0xaa,
 0xfa,0xff,0xff,0xf7,0xad,0xa8,0x5a,0x55,0x55,0x55,0xa5,0xaa,0xfa,0xff,0xff,
 0x23,0x02,0x48,0x14,0x51,0x10,0x6a,0x55,0x55,0xdd,0x7f,0xff,0x7f,0x55,0x57,
 0xab,0xb6,0xd5,0xb6,0x5a,0x55,0xd5,0xef,0xff,0xaf,0xf5,0xaf,0xeb,0xb6,0x2f,
 0x55,0xb5,0x6a,0xfd,0xfd,0xff,0xbf,0x6a,0xb5,0xba,0x55,0xad,0xad,0xb5,0xaa,
 0xea,0xff,0xff,0xaf,0x4a,0x52,0xad,0xad,0x14,0xaa,0xaa,0xaa,0xf6,0xff,0xff,
 0x5f,0x5b,0x55,0x57,0xb5,0x76,0xd5,0x5a,0xdb,0xda,0xff,0xef,0x5f,0xaa,0x6a,
 0xb5,0x56,0x37,0x55,0x55,0x55,0xfd,0xff,0xdf,0xaf,0xaa,0x6d,0x6d,0x6b,0x55,
 0xab,0xd6,0x56,0x75,0xff,0xff,0xad,0xaa,0xaa,0xaa,0x6a,0x2d,0xaa,0xaa,0xda,
 0x7a,0xff,0xfd,0x53,0x55,0xd5,0xaa,0xad,0x55,0x6d,0x55,0xd5,0xaa,0xff,0xff,
 0x7f,0x55,0x55,0x55,0xab,0x12,0x55,0xab,0x56,0xfb,0xef,0xff,0xed,0x6e,0x5b,
 0x5b,0x55,0xdb,0xaa,0xaa,0x5a,0xab,0x7f,0xff,0xbf,0xb5,0xaa,0xaa,0x5a,0x2d,
 0x00,0x10,0x91,0xf4,0xff,0x7f,0x56,0xb5,0xed,0xed,0x76,0xad,0x76,0xf7,0x6d,
 0x55,0xfd,0xdf,0xef,0x4a,0x55,0x55,0xa5,0x2a,0x00,0xa2,0x24,0xfd,0xff,0xff,
 0xad,0x55,0x55,0x5b,0xab,0xb5,0xd5,0x2a,0xab,0xb6,0xff,0xff,0xbf,0xb6,0xaa,
 0xaa,0xaa,0x2a,0x22,0x00,0x00,0xa0,0xfe,0x1f,0x00,0x00,0x00,0x00,0x00,0x00,
 0x00,0x90,0x50,0xa9,0xe2,0xff,0x7f,0x55,0x55,0xb5,0x5b,0x1b,0x00,0x00,0x00,
 0xd8,0xff,0x1f,0x00,0x00,0x00,0x00,0x10,0x95,0xaa,0xaa,0xa6,0xaa,0xfa,0xff,
 0xbf,0x6a,0xab,0xaa,0xaa,0x2a,0x08,0x09,0x21,0x65,0x2a,0x42,0xa4,0xaa,0xda,
 0xd6,0xaa,0x48,0x00,0x00,0x00,0x00,0xc0,0xff,0x1f,0x00,0x00,0x00,0x00,0x00,
 0x20,0x20,0x04,0xaa,0xad,0x2a,0x49,0x92,0x24,0x29,0x05,0x25,0x25,0x11,0x00,
 0x00,0xe0,0xff,0x1f,0x00,0x00,0x00,0x00,0x00,0x00,0x84,0x90,0xb4,0x36,0x00,
 0x00,0x00,0x01,0x02,0xa0,0x00,0x48,0x8a,0x2a,0x15,0x89,0xfe,0x17,0x80,0x54,
 0x02,0x00,0x00,0x92,0x00,0x42,0x6a,0x2b,0x52,0x95,0x24,0x54,0xa8,0x0a,0x55,
 0x21,0x20,0xa1,0xa0,0x64,0xff,0x2d,0x55,0x91,0xa8,0xaa,0x0a,0x00,0x48,0x08,
 0x54,0x95,0x00,0x00,0x89,0x22,0x45,0x40,0x08,0x8a,0x0a,0x08,0x00,0x00,0x5d,
 0x57,0x00,0x00,0x00,0x00,0x00,0x44,0x02,0xa1,0xaa,0x2d,0x24,0x55,0x10,0x94,
 0x88,0xaa,0xa2,0x10,0xa0,0x20,0x05,0x00,0xfa,0x15,0x40,0x12,0x00,0x00,0x10,
 0x11,0xa9,0x14,0x54,0x17,0x89,0x00,0xa4,0x02,0x22,0x01,0x10,0xa5,0x12,0x0a,
 0xa0,0xaa,0x74,0xb7,0x94,0x00,0x11,0x88,0x04,0x24,0x04,0x41,0x69,0x4d,0x10,
 0xaa,0x00,0x54,0x84,0x54,0x45,0x10,0x44,0x50,0x09,0x01,0xda,0x55,0x00,0x12,
 0x40,0x21,0x00,0x00,0x41,0x28,0xaa,0x0f,0x45,0x01,0xaa,0x02,0x29,0x08,0x28,
 0x45,0x91,0x0a,0x52,0xa8,0xb4,0xaa,0xa8,0x44,0x08,0x08,0x11,0x92,0x28,0x41,
 0x55,0x55,0x08,0xaa,0x44,0x54,0x42,0x51,0x41,0x12,0x22,0xa0,0x80,0x02,0x79,
 0xbb,0x00,0x10,0x21,0x21,0x00,0x00,0x02,0x94,0x55,0x8f,0x52,0x11,0x11,0x91,
 0x94,0x24,0x2a,0x84,0x08,0x15,0x54,0x50,0xa8,0x25,0x85,0x02,0x04,0x00,0x08,
 0x24,0x48,0xa0,0xaa,0x0a,0x84,0x44,0x4a,0x4a,0x22,0x95,0x88,0x28,0x22,0xa0,
 0x82,0x0a,0x7d,0xab,0x00,0x40,0x20,0x49,0x22,0x00,0x01,0x44,0x15,0x2d,0x21,
 0x90,0x90,0x92,0x54,0x02,0x42,0x02,0x49,0x15,0x50,0x40,0xea,0x5e,0x11,0x14,
 0x49,0x00,0x00,0x00,0xa4,0x90,0x4a,0x95,0x84,0x42,0x22,0x49,0x49,0xa9,0x94,
 0x54,0x24,0x49,0x85,0x0a,0xbd,0xa5,0x04,0x40,0x00,0x21,0x00,0x48,0x00,0x44,
 0x10,0x20,0x20,0x10,0x94,0xa4,0xaa,0x54,0x25,0x25,0x49,0x90,0x20,0x50,0xfa,
 0xb6,0x02,0x00,0x00,0x08,0x09,0x00,0x00,0x90,0x42,0x8d,0x80,0x44,0xa9,0x2a,
 0x95,0x92,0x54,0x48,0x22,0x45,0x4a,0x85,0xdc,0xad,0x0a,0x00,0x92,0x04,0x00,
 0x02,0x04,0x45,0x29,0x50,0x11,0x00,0x42,0x84,0x40,0x24,0x02,0x55,0x95,0x2a,
 0x29,0x51,0x76,0x57,0x55,0x05,0x00,0xa0,0x04,0x10,0x11,0x90,0x84,0x22,0x04,
 0x29,0xa9,0x2a,0x95,0x52,0xb5,0x92,0x54,0xa4,0xa2,0x24,0xff,0x6d,0x05,0x00,
 0x90,0x00,0x10,0x00,0x00,0x2a,0x22,0x48,0x49,0x40,0x12,0x90,0x48,0x88,0x48,
 0x55,0x92,0x52,0x99,0xaa,0x5a,0xff,0xbf,0x93,0x0a,0x04,0x01,0x00,0x00,0x84,
 0x94,0x20,0x22,0x05,0xc9,0x4a,0x92,0x52,0x92,0x48,0x25,0x25,0x22,0x55,0xed,
 0xf5,0x5f,0x4a,0x24,0x20,0x00,0x40,0x20,0x69,0x01,0x00,0x08,0xd9,0x2a,0x25,
 0x25,0x89,0x24,0x22,0x90,0x48,0x95,0x88,0x14,0x0a,0xd0,0xf6,0x3f,0x00,0x04,
 0x00,0x02,0x0a,0x02,0x00,0xa0,0x24,0x49,0x4a,0x49,0x52,0x4a,0x49,0x25,0x25,
 0x4a,0x25,0x55,0xa9,0xaa,0xad,0x0b,0x00,0x00,0x00,0x00,0xf0,0xbd,0x00,0x00,
 0xa8,0x52,0xa1,0x24,0x89,0x52,0x2a,0x49,0x00,0x00,0x00,0x00,0x02,0x00,0x00,
 0x00,0x00,0x00,0x00,0x00,0xaa,0x02,0x02,0x40,0x25,0x45,0x2a,0xa9,0x24,0x89,
 0x44,0x22,0x95,0x00,0x00,0xaa,0x08,0x00,0x00,0x12,0x08,0x00,0x00,0x00,0x00,
 0xf4,0xda,0x2a,0x5a,0x90,0x40,0x04,0x49,0x20,0x10,0x00,0x00,0x20,0x00,0x00,
 0x40,0x05,0x00,0x00,0x01,0x00,0x00,0x00,0x80,0x4a,0x55,0x40,0x15,0x01,0x15,
 0x29,0x22,0x45,0x81,0x00,0x00,0x00,0x00,0x48,0x15,0x20,0x00,0x00,0x80,0x00,
 0x20,0x10,0x08,0x00,0x20,0x2d,0x0a,0x24,0x00,0x82,0x08,0x00,0x08,0x04,0x00,
 0x00,0x01,0x00,0x00,0x00,0x00,0x00,0x00,0x00,0x00,0x82,0x00,0x08,0x95,0x52,
 0x51,0x80,0xa4,0x28,0x20,0x09,0x21,0x00,0x00,0x02,0x20,0x00,0x00,0x00,0x00,
 0x00,0x00,0x00,0x00,0x00,0x00,0x00,0x00,0x00,0x00,0x2a,0x10,0x00,0x04,0x00,
 0x00,0x21,0x91,0x00,0x00,0x49,0x00,0x00,0x80,0x08,0x00,0x00,0x00,0x00,0x20,
 0x00,0x00,0x00,0xa4,0x80,0x42,0x82,0x40,0x90,0x00,0x08,0x00,0x48,0x04,0x00,
 0x11,0x00,0x00,0x00,0x00,0x00,0x00,0x00,0x00,0x00,0x00,0x00,0x00,0x00,0x00,
 0x00,0x00,0x00,0x04,0x00,0x00,0x00,0x00,0x20,0x00,0x01,0x08,0x40,0x24,0x00,
 0x08,0x00,0x02,0x00,0x00,0x00,0x00,0x4a,0x24,0x10,0x04,0x00,0x00,0x00,0x00,
 0x00,0x80,0x84,0x04,0x00,0x00,0x00,0x00,0x01,0x00,0x00,0x00,0x02,0x00,0x00,
 0x00,0x00,0x01,0x00,0x10,0x08,0x80,0x00,0x00,0x00,0x10,0x20,0x40,0x00,0x00,
 0x00,0x00,0x00,0x80,0x08,0x00,0x00,0x00,0x00,0x48,0x12,0x84,0x80,0x80,0x00,
 0x10,0x88,0x40,0x00,0x00,0x0a,0x09,0x20,0x02,0x00,0x00,0x00,0x00,0x00,0x80,
 0x48,0x00,0x10,0x01,0x80,0x10,0x08,0x00,0x00,0x01,0x00,0x08,0x10,0x01,0x40,
 0x00,0x00,0x00,0x02,0x00,0x00,0x20,0x80,0x10,0x00,0x00,0x00,0x20,0x09,0x00,
 0x00,0x00,0x04,0x00,0x00,0x00,0x01,0x90,0x08,0x21,0x02,0x00,0x00,0x00,0x00,
 0x00,0x00,0x00,0x00,0x00,0x00,0x00,0x00,0x00,0x00,0x00,0x00,0x00,0x00,0x00,
 0x00,0x00,0x00,0x00,0x00,0x20,0x00,0x08,0x00,0x00,0x00,0x00,0x00,0x04,0x00,
 0x00,0x00,0x00,0x01,0x00,0x00,0x08,0x01,0x00,0x00,0x00,0x01,0x00,0x00,0x00,
 0x00,0x00,0x00,0x00,0x00,0x00,0x00,0x00,0x00,0x00,0x00,0x00,0x00,0x00,0x00,
 0x00,0x00,0x00,0x00,0x48,0x90,0x04,0x00,0x00,0x00,0x00,0x00,0x00,0x00,0x00,
 0x00,0x80,0x00,0x00,0x00,0x00,0x00,0x00,0x00,0x00,0x00,0x00,0x00,0x00,0x02,
 0x00,0x00,0x00,0x00,0x00,0x00,0x00,0x00,0x00,0x90,0x04,0x00,0x00,0x00,0x00,
 0x00,0x20,0x40,0x00,0x00,0x00,0x00,0x01,0x00,0x00,0x00,0x00,0x82,0x00,0x04};
