#define noname_width 185
#define noname_height 285
static char noname_bits[] = {
 0x04,0x51,0x29,0x92,0x92,0x54,0x4a,0xaa,0x4a,0x49,0x8a,0x52,0x52,0x45,0x49,
 0xa9,0x94,0x54,0x41,0xaa,0xa8,0x94,0x44,0x01,0xb2,0x24,0x44,0x25,0xa9,0x92,
 0x52,0x91,0x54,0x2a,0x55,0x49,0x29,0x52,0xaa,0x24,0x4a,0x22,0x34,0x45,0x4a,
 0x22,0x29,0x00,0x8a,0x4a,0x15,0x48,0x22,0x49,0x24,0x25,0x49,0x51,0x92,0x2a,
 0xa5,0x94,0x44,0x4a,0x51,0x95,0x45,0xaa,0x92,0xaa,0x52,0x01,0x41,0x24,0x49,
 0x2b,0x95,0x54,0x95,0x54,0xa5,0x4c,0x55,0x92,0x94,0xaa,0xaa,0x52,0xaa,0x54,
 0x52,0x25,0xa9,0x94,0x48,0x00,0xaa,0x92,0x54,0xa4,0xa4,0x22,0xa9,0x4a,0x4a,
 0x91,0x48,0x55,0x25,0x91,0x24,0x49,0x45,0x92,0x94,0x48,0x4a,0xa2,0xaa,0x00,
 0x49,0x48,0x22,0x29,0x95,0x94,0x4a,0x52,0xa9,0x54,0xa5,0x52,0xaa,0xaa,0x92,
 0x2a,0x29,0x49,0x4a,0x55,0x25,0x29,0x49,0x00,0x24,0x25,0x95,0x42,0x52,0xaa,
 0x24,0x25,0x15,0x25,0x29,0x4a,0x49,0x12,0x25,0x91,0x54,0x95,0x94,0x48,0x54,
 0xa5,0xa4,0x00,0x92,0x92,0x48,0xa9,0x94,0x52,0xaa,0x54,0x49,0x55,0x95,0x52,
 0xaa,0xaa,0xa8,0x4c,0x92,0xa4,0x52,0x55,0x25,0x49,0x92,0x00,0x24,0x24,0x25,
 0x2a,0x49,0x4a,0x49,0x89,0x52,0x92,0xa4,0xa4,0x24,0x49,0x55,0x51,0x25,0xa9,
 0x24,0x22,0x49,0x2a,0x55,0x01,0x4a,0x95,0x52,0x49,0x25,0x25,0x25,0x55,0x29,
 0x55,0xaa,0x2a,0x95,0xa4,0x4a,0x2a,0x55,0x55,0x4a,0x95,0xaa,0x92,0x4a,0x00,
 0xa4,0x28,0x84,0x92,0x54,0x49,0xaa,0x28,0xa5,0xa4,0x92,0x52,0x52,0x15,0x29,
 0xa5,0x94,0x22,0x95,0x54,0x92,0x24,0x91,0x00,0x29,0x95,0xb5,0x54,0x49,0xaa,
 0x92,0x4a,0x55,0x95,0x4a,0x95,0x4a,0xca,0x54,0x29,0xa5,0x54,0x49,0x25,0x49,
 0xaa,0xaa,0x00,0x42,0x22,0x12,0x49,0x92,0x94,0x54,0x95,0x24,0x29,0xf5,0x6f,
 0x95,0x52,0x45,0xaa,0x94,0x4a,0x12,0x49,0x55,0x49,0x44,0x00,0x29,0x55,0x49,
 0x25,0x55,0xa5,0x4a,0x52,0x95,0xaa,0xb4,0xb5,0x52,0x29,0x52,0x25,0x25,0xa5,
 0xaa,0x2a,0x49,0xaa,0x2a,0x01,0x4a,0xa4,0xaa,0x54,0x2a,0x49,0xaa,0x54,0xa9,
 0x44,0xdf,0xde,0x2d,0xa5,0x2a,0x49,0xaa,0x54,0x52,0x54,0x92,0x24,0x49,0x00,
 0xa4,0x2a,0x49,0x4a,0x45,0x55,0xa9,0x4a,0x55,0x55,0xf5,0x7f,0xab,0xaa,0x92,
 0xaa,0x52,0x2a,0x95,0x92,0xaa,0x92,0x54,0x01,0x55,0x55,0xaa,0xaa,0x5a,0xaa,
 0x2a,0x55,0x25,0xd5,0x5e,0xfb,0x5f,0x29,0xa5,0xa4,0xa4,0x90,0x52,0xa5,0x24,
 0x55,0x49,0x00,0x2a,0xa5,0x55,0x55,0x45,0x55,0xd5,0xaa,0x54,0x55,0xf7,0xdf,
 0x6b,0xa5,0x54,0x55,0x95,0x4e,0xa9,0x54,0x95,0x92,0x24,0x01,0xff,0xff,0xff,
 0xff,0xff,0xef,0xbf,0xff,0xff,0xf6,0xdd,0xae,0xbe,0x5b,0xab,0xaa,0x6a,0xb1,
 0x4a,0x25,0xa9,0x24,0x55,0x00,0xff,0xbf,0xed,0xb6,0x75,0xbb,0xea,0xaa,0xaa,
 0x5d,0xff,0x7b,0xd7,0xaa,0xaa,0xaa,0x2a,0x2d,0x55,0x55,0x95,0xaa,0x4a,0x01,
 0xf7,0xf6,0xff,0xff,0xff,0xff,0xff,0xff,0xff,0xff,0xed,0x87,0xfc,0xff,0xff,
 0xff,0xff,0xff,0xff,0xff,0xee,0xdf,0xba,0x01,0xff,0xff,0xff,0xff,0xff,0xff,
 0xff,0xff,0xff,0x5b,0xff,0x56,0xef,0xfe,0xff,0xfd,0xf6,0xaf,0xdd,0xaa,0xbb,
 0x6a,0xd7,0x00,0xff,0xff,0xbf,0xbf,0xef,0xfb,0xff,0xff,0xff,0xff,0xbb,0x93,
 0xb4,0xff,0xbf,0xbe,0xff,0xfd,0xff,0xff,0xff,0xff,0xff,0x01,0xbf,0xff,0xf6,
 0xff,0x7f,0xff,0xff,0xfe,0xbf,0xff,0xff,0xab,0xee,0xff,0xff,0xf7,0xbd,0xff,
 0xff,0xff,0xff,0xff,0xff,0x01,0xf7,0xed,0xff,0xfd,0xff,0xdf,0xfd,0xbf,0xff,
 0xdb,0xef,0xaa,0x5a,0xf5,0x7f,0xbf,0xef,0xff,0xff,0xff,0xff,0xbb,0xfb,0x01,
 0xff,0xff,0xff,0xff,0xfe,0xff,0xdf,0xf7,0xf7,0xff,0xfd,0xab,0xea,0xff,0xdf,
 0x7d,0xfb,0xff,0xff,0xff,0xfd,0xff,0xff,0x01,0xff,0xff,0xdf,0xef,0xef,0xfb,
 0xff,0xff,0xff,0xbf,0xbf,0x4a,0x55,0xd5,0x7e,0xf7,0xb6,0xff,0xfb,0xff,0xdf,
 0xff,0xdf,0x01,0xff,0xff,0xfd,0xff,0xff,0xff,0xfe,0xff,0xfe,0xee,0xed,0xab,
 0xda,0xff,0xff,0x5d,0xfb,0xff,0xff,0xff,0xff,0xff,0xff,0x01,0xff,0xdb,0xff,
 0xff,0xff,0xff,0xff,0xfe,0xff,0xbf,0xb6,0x54,0xb7,0xd6,0x5f,0xbb,0xd6,0xff,
 0xbf,0xfb,0xff,0x77,0xf7,0x01,0xbb,0xff,0xef,0xfd,0xfd,0xde,0xef,0xff,0xef,
 0xef,0x7d,0xdb,0xda,0xef,0x7f,0x6d,0xfb,0xbd,0xff,0xbf,0x7f,0xff,0xff,0x01,
 0xff,0xff,0xff,0xbf,0xff,0xff,0xff,0xff,0xff,0xbf,0xab,0xfa,0x6f,0x57,0xbd,
 0x56,0xf5,0xff,0xff,0xff,0xfb,0xff,0x7f,0x01,0xff,0xfd,0xfe,0xff,0xdf,0xff,
 0xff,0xdf,0xff,0x6f,0x7d,0xd5,0xdb,0xbd,0x6f,0xbb,0xda,0xff,0xff,0xff,0xff,
 0xff,0xfd,0x01,0xdf,0xff,0xdf,0xf7,0xff,0xbd,0xfd,0xfe,0xde,0xdd,0x53,0xd5,
 0xef,0xaf,0xba,0xa6,0xf6,0xff,0xf7,0xff,0xff,0xf7,0xff,0x01,0xff,0xff,0xff,
 0xff,0xff,0xff,0xff,0xff,0xff,0xbf,0xae,0xea,0xf6,0xbf,0x6e,0x5b,0xed,0xff,
 0xff,0xff,0xff,0xdf,0xef,0x01,0xf7,0xf7,0xff,0xfe,0xfd,0xff,0xef,0xff,0xff,
 0xff,0xba,0x95,0xc2,0x2f,0xd5,0x54,0xff,0xff,0xff,0xff,0xbd,0xff,0xff,0x01,
 0xff,0x7f,0xef,0xdf,0x7f,0xf7,0xff,0xdf,0xff,0xbf,0x6d,0xd5,0x5a,0xbf,0x5a,
 0xab,0xfa,0xff,0xff,0xfb,0xff,0xff,0xff,0x01,0x7f,0xff,0xff,0xff,0xf7,0xff,
 0x7f,0xff,0xfb,0x77,0xdb,0x76,0xeb,0x5f,0xb5,0xea,0xff,0xdf,0xff,0xbf,0xff,
 0xfd,0xfe,0x01,0xff,0xff,0xff,0xff,0xff,0x7f,0xf7,0xfb,0xbf,0xdf,0x6d,0xdb,
 0xab,0xbf,0xaa,0x2d,0xfd,0xff,0xdf,0xff,0xff,0xff,0xdf,0x01,0xf7,0xdb,0x7d,
 0xff,0xfe,0xfd,0xff,0x7f,0xff,0x7f,0xb7,0x7d,0xff,0x5d,0x54,0xf5,0xff,0xff,
 0xff,0xff,0xef,0xff,0xff,0x01,0xff,0xff,0xff,0xdf,0xff,0xff,0xff,0xff,0xff,
 0xdf,0xdd,0xae,0xab,0x3f,0x6b,0xab,0xff,0xfd,0xff,0xff,0xff,0xdf,0xff,0x01,
 0xff,0xff,0xff,0xfb,0xef,0xbf,0xff,0xef,0xff,0xbf,0x7b,0xfb,0xfe,0x7f,0xd5,
 0xfa,0xff,0xff,0xfe,0xff,0xfe,0xff,0xff,0x01,0x7f,0xff,0xdf,0xff,0x7f,0xff,
 0xbb,0xff,0xfb,0xff,0xae,0xfd,0xab,0x5f,0xb5,0xf6,0xff,0xff,0xff,0xee,0xff,
 0xff,0xf7,0x01,0xfb,0xbf,0xff,0xff,0xff,0xfb,0xff,0xfd,0xbf,0x5f,0xfb,0x57,
 0xff,0xff,0x56,0xdd,0xff,0xff,0xff,0xff,0xdf,0xfe,0xfe,0x01,0xff,0xfb,0xff,
 0xff,0xfd,0xff,0xff,0xff,0xff,0xbf,0x7d,0xfd,0xff,0xbf,0x5a,0xf7,0xef,0xff,
 0xff,0xff,0xff,0xef,0xff,0x01,0xff,0xff,0xbd,0xfd,0xff,0xff,0xff,0xff,0xff,
 0x5b,0xf7,0x6f,0xf5,0x7d,0x55,0xfd,0xff,0xff,0xff,0xff,0xff,0xff,0xbf,0x01,
 0xdf,0xff,0xff,0xff,0xff,0xdf,0xfd,0xff,0xfe,0xff,0xfa,0xdf,0xdf,0x7f,0xd5,
 0xfe,0x7f,0xff,0xf7,0xff,0xff,0xff,0xff,0x01,0xff,0xff,0xff,0x6f,0xbf,0xff,
 0xdf,0xf7,0xf7,0x8f,0xbf,0x7d,0xfb,0xbf,0x56,0xff,0xff,0xf7,0xff,0xed,0xfe,
 0xff,0xff,0x01,0xfb,0xbf,0xff,0xff,0xff,0xff,0xff,0xff,0xff,0x7f,0xf5,0xdf,
 0xff,0xbf,0xb5,0xb7,0xff,0xff,0xff,0xff,0xff,0xff,0xfe,0x01,0xff,0xf6,0xed,
 0xff,0xf7,0xff,0xff,0xfd,0xff,0x57,0xff,0xff,0xfe,0x57,0xd5,0xff,0xff,0x7f,
 0xbf,0xff,0xf7,0xf7,0xff,0x01,0xff,0xff,0xff,0xfd,0xff,0xbb,0xfb,0x7f,0xff,
 0xaf,0xed,0xbb,0xff,0x6f,0xed,0xfe,0xfb,0xff,0xff,0xff,0x7f,0xff,0xff,0x01,
 0xef,0xff,0xff,0xdf,0xff,0xff,0xff,0xff,0xbf,0xfe,0xbe,0xff,0x7b,0xaf,0xb5,
 0xff,0xff,0xff,0xff,0xff,0xff,0xff,0xfb,0x01,0xff,0xff,0xff,0xff,0xdf,0xff,
 0xbf,0xff,0xf7,0x7f,0xeb,0xff,0xff,0xb7,0xea,0xff,0xff,0xff,0xfb,0x7f,0xff,
 0xff,0xbf,0x01,0xbf,0xff,0xff,0xff,0xfd,0xff,0xff,0xff,0xff,0xfb,0xbf,0x6a,
 0xff,0x53,0xf5,0xff,0xff,0xff,0xff,0xfd,0xff,0xbf,0xff,0x01,0xf7,0xef,0xbe,
 0xfb,0xff,0xf7,0xff,0xdf,0x7b,0xff,0xeb,0xff,0xdf,0xaf,0xda,0xff,0xff,0xde,
 0xdf,0xff,0xfb,0xff,0xff,0x01,0xff,0xff,0xff,0xff,0xff,0xff,0xff,0xff,0xef,
 0x6f,0xbf,0xfa,0xff,0x51,0xeb,0xef,0xef,0xff,0xff,0xff,0xbf,0xfb,0xfb,0x01,
 0xff,0xff,0xff,0xff,0xff,0xff,0xf7,0xfd,0xfe,0xfd,0xef,0xf7,0xff,0x57,0xf5,
 0x7f,0xff,0xff,0xff,0xbf,0xff,0xff,0xff,0x01,0x55,0xaa,0xaa,0xaa,0xaa,0x5a,
 0xdd,0xf7,0xdf,0xf7,0xbf,0xfd,0x7f,0xa8,0xfe,0xff,0xff,0xff,0xff,0xff,0xff,
 0xff,0xff,0x01,0xb5,0x77,0xf7,0xdf,0xff,0xff,0xff,0xbe,0xfb,0xff,0x7f,0xff,
 0xfd,0xab,0x72,0xff,0xff,0xff,0xff,0xff,0xff,0xff,0xdf,0x01,0x4a,0x54,0x95,
 0x34,0x49,0x24,0xa5,0xd2,0x7f,0xdf,0xfd,0x57,0x0b,0x6a,0xad,0xb5,0xaa,0xaa,
 0xb5,0xb5,0xed,0xdb,0xfe,0x01,0xb6,0xab,0x6a,0xd7,0xb6,0xdb,0x5a,0xed,0xff,
 0xff,0xff,0x7e,0xed,0xaa,0x76,0xdb,0xff,0xff,0xff,0xff,0xff,0xfe,0xff,0x01,
 0xa9,0xaa,0x56,0xa9,0xaa,0xaa,0xaa,0xd5,0xef,0xfb,0xff,0xff,0x15,0xd5,0xaa,
 0xaa,0x44,0x24,0x4a,0x22,0x24,0x25,0x01,0x01,0xad,0xaa,0x5a,0x6d,0x55,0x55,
 0xd5,0xea,0xfe,0xff,0xef,0xfb,0xab,0xb4,0xaa,0x6d,0xbb,0xdb,0xb5,0xdd,0xab,
 0x5b,0xfd,0x00,0xaa,0xaa,0x52,0x55,0xb5,0xaa,0x2d,0xed,0x7f,0x6f,0xfb,0xff,
 0x0b,0x55,0x6d,0x55,0x55,0x55,0x55,0x55,0x56,0x6a,0x53,0x01,0x55,0x55,0xad,
 0x55,0xab,0x6d,0xd5,0xd6,0xff,0xff,0xff,0xbf,0x57,0x55,0xab,0xb6,0xaa,0xaa,
 0xaa,0xaa,0xaa,0x55,0xad,0x00,0xaa,0xda,0xaa,0xaa,0xaa,0xaa,0xaa,0xfa,0xf7,
 0xff,0xef,0xff,0xa1,0xaa,0x54,0x55,0x55,0x5b,0x55,0x55,0xb5,0xaa,0x52,0x01,
 0x55,0x55,0x55,0xb5,0xaa,0xaa,0x6a,0x55,0xff,0xef,0xfd,0xfe,0x17,0x6d,0xb7,
 0xaa,0x6d,0x55,0xad,0x55,0x55,0xad,0x5a,0x01,0xaa,0xaa,0xaa,0x4a,0x55,0x55,
 0x55,0xfd,0xff,0xbe,0xbf,0x7f,0xe8,0xaa,0x54,0x55,0x55,0x55,0x55,0xaa,0xaa,
 0x52,0x55,0x01,0x55,0x55,0x55,0xb5,0xaa,0xaa,0xaa,0xea,0xff,0xff,0xf7,0xff,
 0x13,0x55,0xab,0xad,0xaa,0xaa,0xaa,0x55,0x55,0xad,0xaa,0x00,0xaa,0xaa,0xaa,
 0xaa,0xaa,0xaa,0xaa,0xfa,0xff,0xff,0xfe,0x56,0xe4,0xb6,0xaa,0xaa,0xaa,0x5a,
 0x55,0xad,0xaa,0xaa,0xaa,0x00,0x55,0x55,0x55,0x55,0x55,0x55,0xad,0xf6,0xef,
 0xdf,0xdf,0x3f,0x52,0xd5,0x5a,0x55,0x55,0x55,0x55,0x55,0x55,0x55,0x55,0x01,
 0xaa,0xaa,0xaa,0xaa,0xaa,0xaa,0x52,0xfd,0xff,0xfb,0xff,0x8f,0xaa,0x2a,0xa5,
 0xaa,0x55,0x55,0x55,0x55,0x55,0x55,0x55,0x01,0x55,0x55,0x55,0xb5,0x5a,0x55,
 0xb5,0xea,0xff,0xff,0xfb,0x5f,0x55,0xd5,0xda,0xaa,0xaa,0xaa,0xaa,0xaa,0xaa,
 0xaa,0xaa,0x00,0x52,0x4a,0xaa,0x4a,0xa5,0xaa,0xaa,0xfa,0xfe,0xff,0x7f,0xa3,
 0xaa,0x56,0x55,0x55,0x55,0x55,0x55,0x55,0x55,0x55,0x55,0x01,0x2a,0xa5,0xaa,
 0xaa,0x5a,0x55,0x55,0xf5,0xff,0x7f,0xff,0x2f,0xd5,0xaa,0xaa,0xaa,0xaa,0xaa,
 0xaa,0xaa,0xaa,0xaa,0xaa,0x00,0xa4,0x54,0x92,0x52,0x52,0xa9,0xaa,0xf6,0xdf,
 0xff,0xef,0x51,0x55,0x55,0x55,0x55,0x55,0x55,0x55,0x55,0x55,0x55,0x55,0x01,
 0x92,0x92,0x4a,0xaa,0x4a,0x55,0x55,0xf9,0xff,0xff,0xff,0x57,0xb5,0xaa,0xaa,
 0xaa,0xaa,0xaa,0xaa,0xaa,0xaa,0xaa,0xaa,0x00,0x2a,0x55,0x52,0xa5,0x54,0xaa,
 0xa4,0xd6,0xff,0xf7,0xff,0xa8,0xaa,0x2a,0x25,0x55,0x49,0x49,0x25,0x49,0x95,
 0x54,0x55,0x01,0x49,0xa9,0xaa,0x54,0x55,0x55,0x55,0xf9,0xff,0xff,0xff,0x55,
 0xab,0x55,0xa9,0x92,0xaa,0x2a,0xa9,0xaa,0xa4,0x92,0xa4,0x00,0x52,0x92,0x94,
 0x92,0x4a,0x89,0x2a,0xf5,0xff,0xff,0x7e,0xda,0xb6,0x4a,0x95,0x54,0x4a,0x52,
 0x4a,0x92,0xaa,0x2a,0x49,0x01,0x95,0xaa,0x4a,0x55,0xa9,0x6a,0xa5,0xfa,0xff,
 0xff,0xbf,0xad,0xaa,0xaa,0x4a,0x55,0x55,0x55,0x55,0x55,0x29,0x49,0x55,0x00,
 0x24,0x49,0x52,0x4a,0xaa,0x92,0x54,0xfd,0xff,0xff,0x7f,0x6a,0xad,0x1d,0x51,
 0x92,0x92,0xa4,0xa4,0x48,0x52,0xaa,0x4a,0x01,0x55,0xa5,0xaa,0x52,0x55,0x55,
 0x55,0xea,0xff,0xfd,0xbf,0xab,0xd6,0xae,0xaa,0xaa,0x54,0x95,0xaa,0xaa,0x4a,
 0xa5,0xa4,0x00,0xa4,0x94,0x24,0xa9,0x92,0x54,0xa5,0xfa,0xff,0x6f,0x6f,0x6a,
 0x55,0x97,0x94,0x54,0x25,0x29,0x49,0x92,0x94,0x14,0x49,0x00,0x52,0x52,0x95,
 0x14,0xa9,0x92,0x94,0xfa,0xff,0xff,0xbf,0xb5,0xb5,0x3f,0xa5,0x92,0x54,0x55,
 0xa5,0xaa,0x52,0xa5,0x2a,0x01,0x8a,0x4a,0x52,0x65,0x4a,0x55,0x55,0xee,0xfe,
 0xff,0x6f,0xab,0xd6,0x57,0x29,0xa5,0x4a,0x4a,0x95,0x94,0x4a,0xaa,0x54,0x00,
 0xa5,0x24,0x49,0x15,0x55,0x4a,0x55,0xf9,0xff,0xff,0xff,0xad,0xb5,0x3f,0x95,
 0x54,0xa5,0x52,0x52,0xa5,0x54,0x49,0x4a,0x01,0x94,0xaa,0x2a,0xd2,0xa4,0x52,
 0x4a,0xfd,0xff,0xff,0x5d,0x5b,0xf5,0x5d,0x52,0x95,0x54,0x95,0x24,0x49,0x49,
 0x92,0x24,0x01,0x4a,0x49,0x92,0x4a,0x52,0x55,0xa9,0xf6,0xef,0xff,0xff,0xed,
 0xed,0xbf,0xaa,0x52,0x2a,0xa9,0xaa,0x2a,0xa5,0xaa,0xaa,0x00,0x24,0xa5,0xa4,
 0x54,0x95,0x54,0x55,0xfa,0xff,0xff,0xff,0xb7,0xf6,0x3f,0x92,0xa4,0xa2,0x52,
 0x25,0x55,0x2a,0x25,0x49,0x01,0x52,0x29,0x55,0x95,0xaa,0x2a,0x55,0xed,0xff,
 0xff,0xff,0xdd,0x7d,0xff,0xaa,0x2a,0x55,0x2a,0x52,0x49,0x55,0xa9,0x54,0x00,
 0x95,0x52,0x29,0xa9,0x54,0xa5,0xaa,0xfa,0xff,0xff,0xff,0x7f,0xf7,0x7b,0x91,
 0x54,0x4a,0x45,0xa5,0x52,0x22,0x95,0x22,0x01,0x49,0x4a,0x4a,0x55,0x25,0xa9,
 0x4a,0xfd,0xff,0xff,0xff,0xff,0xfd,0xdf,0xaa,0x4a,0x29,0xa9,0x52,0x4a,0xa9,
 0xa4,0x94,0x00,0x24,0x91,0x94,0x92,0xaa,0xaa,0x94,0xf6,0xff,0xbf,0xff,0xdf,
 0xff,0x3f,0x44,0x54,0x52,0x15,0x25,0x95,0x4a,0x49,0x55,0x01,0x42,0x4a,0x4a,
 0xa9,0x54,0x95,0x52,0xfd,0xff,0xff,0xff,0xff,0x7f,0x7f,0xab,0x4a,0x95,0xa4,
 0x94,0x52,0x29,0x55,0x92,0x00,0x08,0x21,0x21,0x04,0x81,0x48,0x8a,0xfc,0xff,
 0xff,0xff,0xff,0xef,0x2f,0x94,0x24,0x55,0xa9,0xaa,0x94,0xaa,0xaa,0x2a,0x01,
 0x52,0x48,0x10,0xa9,0x34,0x25,0x51,0xfa,0xff,0xff,0xdf,0xff,0xff,0xbf,0x49,
 0xaa,0x24,0x95,0x24,0x55,0x49,0x92,0xa4,0x00,0x00,0x01,0x45,0x04,0x41,0x92,
 0x24,0xf5,0xff,0xff,0xff,0x7b,0xff,0x1e,0x20,0x01,0x89,0x48,0x92,0x08,0x92,
 0x44,0x92,0x00,0x54,0x54,0x22,0xa1,0x94,0x48,0x92,0xf8,0xff,0xff,0xff,0xff,
 0xef,0x3f,0x95,0xa8,0x24,0x25,0x49,0x52,0x49,0x29,0x49,0x00,0x80,0x00,0x89,
 0x14,0x49,0x22,0x49,0xfa,0xff,0xff,0xff,0xff,0xff,0x3f,0x40,0x02,0x12,0x10,
 0x22,0x89,0x24,0x84,0x24,0x01,0x2a,0x54,0x20,0x42,0x12,0x49,0x92,0xea,0xff,
 0xff,0xff,0xff,0x7b,0xbf,0x14,0xa8,0x44,0x45,0x49,0x44,0x12,0x51,0x10,0x00,
 0x80,0x02,0x45,0x88,0x48,0x92,0x44,0xe8,0xff,0xff,0xff,0xff,0xff,0x7d,0xa0,
 0x42,0x10,0x0d,0x20,0x11,0x48,0x02,0x45,0x01,0x24,0xa0,0x90,0x52,0x92,0x24,
 0x29,0xf5,0xef,0xff,0xff,0x7f,0xdf,0x5f,0x0a,0x28,0x45,0x55,0x8a,0xa4,0x12,
 0xa9,0x20,0x00,0x82,0x14,0x02,0x04,0x41,0x88,0x40,0xf2,0xff,0xff,0xff,0xff,
 0xff,0x3f,0x50,0x05,0xd0,0x2b,0x09,0x02,0x44,0x04,0x95,0x00,0x28,0x82,0x54,
 0xa9,0x28,0x25,0x2a,0xa9,0xff,0xfb,0xff,0xff,0xbb,0xfd,0x04,0x48,0xaa,0x56,
 0x50,0x51,0x21,0xa1,0x40,0x00,0x40,0x28,0x00,0x02,0x45,0x52,0x49,0xea,0xff,
 0xff,0xff,0xff,0xff,0x2f,0x92,0x80,0xf4,0xad,0x03,0x84,0x8a,0x04,0x0a,0x01,
 0x15,0x82,0xaa,0xa8,0x90,0x08,0x24,0xe9,0xff,0xff,0xff,0xff,0xff,0xff,0x24,
 0x24,0xaa,0x56,0xaa,0x52,0x20,0x51,0x51,0x00,0x40,0x09,0x00,0x11,0x25,0x52,
 0x91,0xd0,0xff,0xff,0xdf,0xff,0xbf,0x7d,0x82,0x90,0xda,0xbd,0x10,0x04,0x05,
 0x84,0x84,0x00,0x12,0x50,0x55,0x8a,0x90,0x24,0x4a,0xea,0xff,0xff,0xff,0xbf,
 0xf7,0xff,0x54,0x44,0xed,0xd6,0x46,0xa9,0x50,0x29,0x51,0x00,0x48,0x02,0x20,
 0x20,0x4a,0x42,0x11,0xa1,0xff,0xff,0xff,0xff,0xff,0x7f,0x01,0x11,0xb5,0x5b,
 0x15,0x00,0x05,0x04,0x04,0x01,0x82,0xa8,0x8a,0x4a,0x11,0x29,0x4a,0xea,0xff,
 0xff,0xff,0xff,0xbf,0xed,0x28,0xa4,0xea,0xb6,0xaa,0xaa,0xa0,0xa2,0x52,0x00,
 0x08,0x02,0x10,0x10,0xa2,0x84,0x90,0xe8,0xff,0xff,0xff,0xff,0xff,0x7f,0x41,
 0xa9,0x2d,0xfb,0x07,0x40,0x0a,0x08,0x81,0x00,0xa2,0xa0,0x8a,0x8a,0x14,0x51,
 0x4a,0xd2,0xff,0xff,0xff,0xff,0xfb,0xff,0x94,0xd4,0xaa,0x5d,0x55,0x15,0xa1,
 0xa2,0x28,0x00,0x00,0x0a,0x20,0x20,0x40,0x8a,0x24,0xf5,0xff,0xff,0xff,0xff,
 0xbf,0xfd,0xb5,0xb7,0x02,0xa0,0x0b,0x48,0x04,0x04,0x42,0x01,0x54,0xa1,0x4a,
 0x95,0x2a,0x21,0x49,0xa1,0xff,0xff,0xff,0xff,0xff,0x6f,0xd5,0xaa,0xaa,0xaa,
 0xad,0x12,0x51,0xa9,0x28,0x00,0x00,0x04,0x00,0x40,0x90,0x94,0x24,0xfa,0x7f,
 0xff,0xff,0xfd,0xff,0xfb,0xbf,0x0a,0x00,0xa0,0x02,0x40,0x04,0x00,0x81,0x00,
 0x2a,0x91,0xaa,0x2a,0x25,0x24,0x89,0xc4,0xff,0xdf,0xff,0xdf,0xff,0xff,0x55,
 0xab,0xaa,0x4a,0x57,0x15,0x51,0x55,0x54,0x00,0x00,0x44,0x00,0x81,0x88,0x42,
 0x24,0xf9,0xff,0xff,0xff,0xff,0xef,0xdf,0x56,0x00,0x00,0x10,0x00,0x48,0x0a,
 0x00,0x01,0x01,0x52,0x11,0x54,0x54,0x44,0x10,0x91,0xc4,0xff,0xff,0xff,0xff,
 0xff,0xfb,0x2b,0xaa,0xaa,0x8a,0xaa,0x92,0xa0,0xaa,0x54,0x00,0x08,0x40,0x81,
 0x80,0x92,0x4a,0x4a,0xf2,0xff,0xff,0xff,0xff,0xff,0xff,0x81,0x10,0x00,0x22,
 0x44,0x00,0x02,0x00,0x80,0x00,0x21,0x15,0x28,0x2a,0x44,0x24,0x91,0xa4,0xff,
 0xff,0xff,0xff,0xff,0xff,0x25,0x8a,0xaa,0x94,0x22,0xaa,0xa8,0xaa,0x2a,0x00,
 0x04,0xa0,0x42,0x90,0x10,0x91,0x44,0x92,0xff,0xff,0xfb,0xff,0x7e,0xff,0x81,
 0x20,0x00,0x41,0x88,0x00,0x01,0x00,0x40,0x01,0xa0,0x0a,0x14,0x25,0xa5,0x24,
 0x29,0x49,0xff,0xff,0xff,0xff,0xff,0xff,0x2b,0x4a,0x55,0x14,0x25,0xaa,0x54,
 0x55,0x15,0x00,0x04,0x20,0x41,0x08,0x08,0x49,0x84,0x10,0xfd,0xff,0xff,0xff,
 0xff,0xf7,0x81,0x00,0x20,0x21,0x90,0x00,0x02,0x00,0xa0,0x00,0x21,0x49,0x28,
 0x85,0x52,0x12,0x29,0xa5,0xfa,0xff,0xff,0xf7,0xf7,0xff,0x2b,0xa8,0x8a,0x48,
 0x25,0xaa,0x50,0x55,0x15,0x00,0x84,0x00,0x81,0x50,0x88,0x48,0x42,0x44,0xff,
 0xff,0xff,0xff,0xff,0x7f,0x85,0x02,0x11,0x22,0x80,0x00,0x05,0x00,0x42,0x00,
 0x21,0xaa,0x28,0x0a,0x45,0x92,0x94,0x92,0xfe,0xff,0xbf,0xff,0xff,0xff,0x23,
 0x54,0x44,0x09,0x55,0x54,0xa8,0xaa,0x90,0x00,0x08,0x00,0x42,0x50,0x10,0x21,
 0x22,0xa4,0xff,0xff,0xff,0xff,0xbf,0xff,0x91,0x80,0x08,0x24,0x00,0x81,0x00,
 0x00,0x05,0x00,0x82,0x92,0x10,0x05,0x4a,0x8a,0x94,0xd2,0xff,0xff,0xff,0xff,
 0xff,0xf7,0x03,0x54,0x52,0x49,0x55,0x2a,0xaa,0xaa,0xa0,0x00,0x28,0x48,0x4a,
 0x50,0x21,0x28,0x21,0xe9,0xff,0xff,0xff,0xff,0xff,0xff,0xa8,0x02,0x81,0x00,
 0x80,0x40,0x80,0x00,0x85,0x00,0x02,0x02,0x00,0x15,0x48,0x85,0x94,0xa4,0xff,
 0xff,0xef,0xfb,0xff,0xff,0x12,0xa8,0x28,0xaa,0x2a,0x14,0x55,0x54,0x28,0x00,
 0x48,0xa8,0x4a,0xa0,0x02,0x52,0x22,0xf2,0xff,0xff,0xfe,0xbf,0xfb,0x7e,0x40,
 0x02,0x42,0x40,0x40,0x21,0x00,0x21,0x41,0x00,0x11,0x05,0x10,0x14,0x54,0x89,
 0x90,0xd4,0xff,0xfd,0xff,0xff,0xff,0xff,0x12,0xa1,0x94,0x2a,0x2a,0x88,0xaa,
 0x48,0x94,0x00,0x04,0x50,0x42,0x41,0x00,0x24,0x25,0xf9,0xff,0xff,0xff,0xff,
 0xff,0x7f,0x48,0x04,0x42,0x80,0x80,0x22,0x00,0x02,0x41,0x00,0x40,0x85,0x28,
 0x28,0x55,0x49,0x92,0xe4,0xff,0xef,0xff,0xff,0xff,0xff,0x01,0x51,0x11,0x2a,
 0x55,0x10,0x55,0xa9,0x28,0x00,0x12,0x10,0x82,0x42,0x20,0x84,0x44,0xfa,0xf7,
 0xff,0xff,0xff,0x7f,0xff,0x12,0x04,0x44,0x44,0x00,0x45,0x00,0x00,0x81,0x00,
 0x84,0x84,0x48,0x90,0x4a,0x51,0x92,0xe4,0xff,0xff,0xff,0xff,0xff,0xff,0x45,
 0x51,0x91,0x22,0xaa,0x10,0x55,0x55,0x54,0x00,0x20,0x12,0x22,0x05,0x04,0x0a,
 0x49,0xfa,0xff,0xff,0xff,0xff,0xff,0xff,0x01,0x04,0x04,0x88,0x00,0x49,0x00,
 0x00,0x01,0x01,0x09,0xa0,0x48,0xa8,0x52,0x51,0x22,0xf1,0xff,0xff,0xff,0xff,
 0xf7,0xf7,0x93,0x42,0x51,0x45,0x54,0x04,0xaa,0xaa,0x54,0x00,0x20,0x09,0x02,
 0x01,0x08,0x82,0x94,0xfe,0xff,0xff,0xff,0xdf,0xff,0xff,0x02,0x08,0x02,0x08,
 0x81,0x50,0x00,0x01,0x82,0x00,0x08,0x82,0xa0,0xa8,0x52,0x51,0x22,0xf0,0xff,
 0xff,0xff,0xfe,0xff,0xff,0x53,0xa5,0xa8,0x52,0x2a,0x8a,0xaa,0xa8,0x28,0x00,
 0xa2,0x28,0x0a,0x02,0x04,0x8a,0x88,0xfe,0xff,0xff,0xff,0xff,0xff,0xbf,0x03,
 0x10,0x02,0x09,0x80,0x10,0x00,0x02,0x42,0x00,0x08,0x80,0x90,0x54,0x51,0x21,
 0x25,0xf9,0xff,0xff,0xff,0xff,0xff,0xfd,0xa7,0x44,0x51,0xa2,0x2a,0x45,0x55,
 0x51,0x91,0x00,0xa0,0x12,0x42,0x20,0x02,0x14,0x48,0xfe,0xff,0x7f,0xef,0xff,
 0xfb,0xff,0x0b,0x02,0x04,0x09,0x40,0x08,0x00,0x04,0x04,0x00,0x0a,0x84,0x14,
 0x8a,0x54,0x45,0x95,0xf4,0xff,0xff,0xff,0xff,0xff,0xff,0x8f,0x50,0xa9,0xa0,
 0x2a,0x42,0x55,0x51,0xa9,0x00,0x20,0x48,0x40,0x21,0x40,0x88,0x20,0xfd,0xff,
 0xff,0xff,0xef,0xff,0xef,0x0f,0x02,0x02,0x0a,0x80,0x14,0x00,0x02,0x04,0x00,
 0x88,0x12,0x29,0x88,0x2a,0x22,0x4a,0xfe,0xff,0xff,0xff,0xff,0xbf,0xff,0x9f,
 0xa8,0x50,0xa1,0x2a,0x81,0xaa,0x50,0xa1,0x00,0x02,0x00,0x84,0x12,0x40,0x49,
 0x10,0xff,0xff,0xff,0xff,0xff,0xff,0xff,0x2e,0x02,0x09,0x04,0x00,0x54,0x00,
 0x0a,0x04,0x01,0x48,0x49,0x51,0xa4,0x2a,0x92,0x8a,0xfc,0xff,0xff,0xff,0xff,
 0xff,0xfb,0x9f,0x50,0x42,0xa9,0xaa,0x02,0x55,0x21,0x51,0x00,0x00,0x20,0x00,
 0x01,0x40,0x44,0x52,0xff,0xff,0xff,0x7f,0xbf,0xff,0xff,0x3f,0x04,0x08,0x02,
 0x00,0x28,0x00,0x84,0x04,0x01,0x54,0x8a,0x54,0xa8,0x2a,0x29,0x89,0x7e,0xff,
 0xff,0xfd,0xff,0xff,0xdf,0x3f,0x41,0xa5,0x50,0x55,0x85,0xaa,0x22,0x50,0x00,
 0x02,0x01,0x82,0x04,0x84,0x80,0x24,0xfb,0xf7,0xf7,0xff,0xff,0xbb,0xff,0x5f,
 0x14,0x10,0x85,0x00,0x10,0x00,0x88,0x02,0x00,0x40,0xa8,0x20,0x51,0x51,0x54,
 0x88,0xfe,0xff,0xff,0xff,0xff,0xff,0xff,0x7e,0x20,0x45,0x20,0xaa,0x8a,0xaa,
 0x22,0xa8,0x00,0x04,0x01,0x0a,0x04,0x09,0x21,0x51,0xfe,0xff,0xff,0xff,0xff,
 0xff,0xff,0xbf,0x80,0x10,0x15,0x00,0x20,0x00,0x88,0x02,0x01,0x51,0x48,0x41,
 0x51,0x44,0x4a,0x0a,0xfd,0xff,0xff,0xff,0xfb,0xff,0xff,0x7f,0x2a,0x44,0x80,
 0xaa,0x4a,0x55,0x45,0x50,0x00,0x00,0x21,0x14,0x04,0x91,0x24,0x51,0xfd,0xff,
 0xff,0xbf,0xff,0xff,0xef,0xff,0x80,0x10,0x29,0x01,0x20,0x00,0x10,0x05,0x01,
 0x52,0x08,0x41,0xa1,0x24,0x49,0x24,0xfe,0xff,0xff,0xff,0xdf,0xfd,0xfe,0xfb,
 0x24,0x45,0x42,0x54,0x15,0xaa,0x8a,0x48,0x00,0x00,0x21,0x04,0x14,0x82,0x20,
 0x89,0xfe,0xff,0xbf,0xfb,0xff,0xff,0xff,0xff,0x10,0x08,0x08,0x01,0x40,0x01,
 0x20,0x20,0x00,0x49,0x0a,0xa1,0x82,0x28,0x4a,0x52,0xfd,0xff,0xff,0xff,0xff,
 0xff,0xff,0xff,0x83,0x44,0x45,0xa8,0x2a,0xa8,0x8a,0x8a,0x00,0x04,0x20,0x14,
 0x28,0x22,0x11,0x89,0xff,0xff,0xff,0xff,0xff,0xff,0xbf,0xff,0x05,0x10,0x10,
 0x01,0x80,0x00,0x10,0x20,0x00,0x20,0x89,0x02,0x05,0x89,0x88,0x44,0xfe,0xff,
 0xff,0xff,0xff,0xdf,0xfb,0xdf,0x83,0x84,0x44,0x54,0x55,0xaa,0x8a,0x8a,0x00,
 0x02,0x44,0x28,0x50,0x24,0x22,0x92,0xff,0xff,0xff,0xff,0xff,0xff,0xff,0xfd,
 0x47,0x10,0x02,0x01,0x00,0x01,0x20,0x20,0x00,0x50,0x11,0x82,0x0a,0x89,0x94,
 0x48,0xff,0xff,0xff,0xff,0xf7,0xff,0xff,0xff,0x0b,0xa5,0xa8,0x50,0x55,0x48,
 0x4a,0x4a,0x00,0x04,0x40,0x08,0x20,0x10,0x42,0xa2,0xff,0xff,0xff,0xdf,0xff,
 0xff,0xff,0xff,0x27,0x00,0x02,0x02,0x80,0x22,0x00,0x00,0x01,0x81,0x14,0xa2,
 0x4a,0x45,0x91,0x14,0xfd,0xff,0xff,0xff,0xff,0xfb,0xdf,0xff,0x0f,0xa9,0x48,
 0xa9,0x2a,0x08,0x55,0x55,0x00,0x08,0x40,0x08,0x00,0x10,0x0a,0xa2,0xff,0xff,
 0xff,0xfd,0xff,0xff,0xfd,0xef,0x0f,0x00,0x20,0x04,0x40,0x21,0x00,0x00,0x01,
 0x42,0x15,0x82,0xaa,0x4a,0xa1,0x94,0xff,0xff,0xf7,0xff,0xfe,0xff,0xff,0xff,
 0x9f,0x4a,0x0a,0x41,0x15,0x4a,0x95,0x4a,0x00,0x08,0x40,0x28,0x00,0x21,0x14,
 0xa1,0xfe,0xff,0xff,0xff,0xdf,0xbf,0xff,0x7e,0x1f,0x00,0x21,0x14,0x40,0x00,
 0x40,0x20,0x00,0x42,0x12,0x45,0xaa,0x88,0x82,0x94,0xff,0xff,0xff,0xff,0xff,
 0xff,0xff,0xff,0x5b,0x52,0x08,0x21,0x15,0x29,0x15,0x89,0x00,0x08,0x40,0x00,
 0x01,0x22,0x54,0xa2,0xff,0xff,0xff,0xff,0xff,0xfd,0xff,0xff,0x1f,0x00,0x21,
 0x84,0x40,0x84,0x00,0x04,0x00,0x41,0x15,0x52,0xa8,0x14,0x89,0x48,0xff,0x7f,
 0xff,0xfb,0xff,0xff,0xdf,0xf7,0x3f,0x55,0x94,0x22,0x10,0x21,0x50,0xa1,0x00,
 0x24,0x40,0x08,0x01,0x41,0x22,0xd2,0xff,0xff,0xbf,0xdf,0xff,0xff,0xff,0xff,
 0x5f,0x00,0x41,0x88,0x4a,0x84,0x02,0x04,0x00,0x00,0x29,0x42,0x54,0xa8,0x48,
 0x91,0xff,0xfe,0xff,0xff,0xfb,0xff,0xff,0x7f,0x3f,0x48,0x10,0x44,0x00,0x51,
 0x54,0x91,0x00,0x14,0x80,0x08,0x81,0x02,0x11,0xca,0xff,0xff,0xff,0xff,0x7f,
 0xdf,0xfd,0xfe,0x7f,0x02,0x45,0x11,0x15,0x04,0x01,0x44,0x00,0x81,0x24,0x42,
 0x54,0x54,0x4a,0xa1,0xff,0xff,0xff,0xff,0xff,0xff,0xff,0xff,0x5f,0x50,0x10,
 0x84,0x40,0x51,0x48,0x11,0x00,0x08,0x80,0x08,0x01,0x81,0x20,0xea,0xff,0xff,
 0xff,0xff,0xff,0xff,0xff,0xdf,0x3f,0x01,0x89,0x10,0x12,0x04,0x11,0x44,0x00,
 0xa2,0x2a,0x42,0x50,0x28,0x4a,0x41,0xff,0xff,0xff,0xff,0xfd,0xff,0xef,0xff,
 0x7f,0x48,0x20,0x84,0x24,0x41,0x24,0x11,0x00,0x00,0x00,0x28,0x85,0x42,0x08,
 0xea,0xff,0xff,0xf7,0x3f,0xfa,0xfb,0xff,0xfb,0x7e,0x00,0x85,0x50,0x80,0x14,
 0x81,0x40,0x01,0x48,0xa4,0x02,0x20,0x94,0x52,0x91,0xff,0xff,0xff,0xff,0xfc,
 0xff,0xff,0xff,0xff,0x54,0x20,0x0a,0x2a,0x40,0x28,0x14,0x00,0x00,0x01,0x48,
 0x85,0x40,0x80,0xe4,0xff,0xff,0xff,0x1f,0xf0,0xff,0xff,0xff,0xff,0x00,0x85,
 0xa0,0x80,0x12,0x81,0x40,0x00,0x54,0x50,0x22,0x28,0x15,0x2a,0x49,0xff,0xff,
 0xff,0x7e,0xfa,0xff,0xff,0xff,0xbf,0x91,0x20,0x09,0x29,0x44,0x24,0x14,0x00,
 0x00,0x02,0x88,0x40,0xa0,0x48,0xa4,0xff,0xff,0xff,0x0f,0xa0,0xff,0xff,0xde,
 0xfb,0x01,0x12,0x20,0x84,0x00,0x91,0x40,0x01,0x25,0x91,0x12,0x15,0x15,0x25,
 0xc9,0xff,0xdf,0xff,0x9f,0xea,0xff,0xff,0xff,0xff,0x89,0x40,0x0a,0x41,0x54,
 0x04,0x14,0x00,0x80,0x44,0x40,0x20,0x40,0x10,0xf2,0xdf,0xff,0xff,0x03,0xe4,
 0xff,0xfe,0xff,0xff,0x22,0x0a,0x21,0x14,0x01,0x51,0x41,0x00,0x24,0x10,0x14,
 0x8a,0x2a,0x8a,0xe4,0xff,0xff,0xff,0x4f,0xa9,0xff,0xff,0xff,0xff,0x01,0x40,
 0x88,0x42,0x52,0x04,0x90,0x00,0x10,0x41,0x41,0x10,0x80,0x50,0xfa,0xff,0xff,
 0xff,0x20,0xc4,0xff,0xff,0xff,0xee,0x2b,0x25,0x22,0x08,0x08,0x50,0x05,0x00,
 0x44,0x14,0x10,0x45,0x55,0x0a,0xe9,0xff,0xff,0xfd,0x89,0xa2,0xfe,0xff,0xff,
 0xff,0x47,0x88,0x08,0xa2,0x22,0x05,0x90,0x00,0x00,0x41,0x45,0x08,0x20,0x51,
 0xfa,0xff,0xff,0x7f,0x21,0x88,0xff,0xdf,0xff,0xff,0x07,0x00,0xa2,0x08,0x88,
 0x90,0x04,0x00,0x49,0x10,0x10,0xa2,0x4a,0x84,0xf4,0xff,0xff,0xff,0x89,0x52,
 0xfe,0xff,0xff,0xff,0x1f,0xaa,0x08,0x42,0x02,0x04,0xa1,0x00,0x00,0x42,0x42,
 0x08,0x04,0x29,0xfa,0xff,0xf7,0x3f,0x24,0x84,0xfc,0xff,0xef,0xdf,0x4d,0x00,
 0x22,0x08,0x29,0x51,0x00,0x00,0xa8,0x90,0x10,0x45,0xa9,0x04,0xf5,0xff,0xff,
 0xff,0x82,0x52,0xfe,0xff,0xff,0xff,0x17,0xa5,0x80,0x42,0x40,0x04,0x49,0x00,
 0x02,0x02,0x4a,0x10,0x04,0x51,0xfc,0xfd,0xff,0x3f,0x28,0x08,0xf9,0xff,0xff,
 0xfd,0x1f,0x10,0x12,0x08,0x09,0x11,0x04,0x01,0x40,0xa4,0x00,0x45,0x51,0x24,
 0xe9,0xff,0xff,0xff,0x04,0x45,0xf6,0xff,0xff,0xff,0x7f,0x44,0x84,0x52,0x42,
 0x04,0x41,0x00,0x14,0x00,0x12,0x10,0x84,0x88,0xfe,0xff,0xff,0x1f,0x52,0x28,
 0xf9,0xff,0xff,0xff,0x1f,0x01,0x11,0x00,0x08,0x51,0x14,0x00,0x00,0x49,0x44,
 0x45,0x21,0x45,0xf8,0xff,0xff,0xbf,0x20,0x45,0xd0,0xff,0xff,0x7f,0x7f,0x48,
 0x40,0xaa,0x52,0x04,0x81,0x00,0x22,0x04,0x01,0x10,0x8a,0x90,0xfe,0xff,0xff,
 0x5f,0x84,0x10,0xf5,0xff,0xff,0xff,0x3f,0x00,0x02,0x00,0x00,0x20,0x04,0x00,
 0x08,0x41,0x50,0x8a,0x50,0x24,0xff,0xff,0xff,0x3d,0x29,0x8a,0xc8,0xff,0xff,
 0xff,0x7f,0x92,0xa4,0x92,0x94,0x8a,0x50,0x00,0x20,0x14,0x85,0x20,0x05,0x89,
 0xfe,0xff,0xff,0x0f,0x44,0x50,0xd2,0xff,0xff,0xff,0x3f,0x08,0x10,0x08,0x42,
 0x20,0x02,0x01,0x0a,0x41,0x20,0x49,0x50,0x52,0xff,0xff,0xff,0x5f,0x91,0x0a,
 0x51,0xff,0xff,0xff,0x7f,0x42,0x02,0x82,0x10,0x09,0x48,0x00,0x40,0x00,0x09,
 0x04,0x89,0x00,0xfe,0xff,0xff,0x1f,0x20,0x50,0xca,0xff,0xfd,0xf7,0x7e,0x00,
 0x48,0x28,0x04,0xa0,0x00,0x00,0x10,0x54,0x22,0x51,0x22,0xaa,0xfa,0xff,0xff,
 0x9f,0x8a,0x0a,0x21,0xff,0xff,0xff,0xff,0xa8,0x22,0x02,0x41,0x0a,0x94,0x00,
 0x84,0x00,0x08,0x04,0x88,0x40,0xff,0x7f,0xef,0x07,0x24,0x50,0x44,0xfd,0xff,
 0xff,0xff,0x01,0x80,0x28,0x14,0x20,0x01,0x00,0x21,0x4a,0x42,0xa1,0x42,0xaa,
 0xff,0xff,0xff,0x5f,0x91,0x0a,0x29,0xff,0xff,0xff,0x7f,0x11,0x24,0x82,0x82,
 0x4a,0xa0,0x00,0x00,0x00,0x11,0x04,0x0a,0xf5,0xff,0xff,0xff,0x83,0x44,0x50,
 0x42,0xfd,0xff,0xff,0xff,0x41,0x01,0x08,0x28,0x00,0x05,0x00,0x94,0x52,0x04,
 0xa1,0x50,0xf4,0xff,0xff,0xff,0x27,0x92,0x8a,0x94,0xfe,0xff,0xff,0xff,0x12,
 0x90,0xa2,0x02,0x49,0x90,0x00,0x00,0x00,0x50,0x14,0x81,0xfe,0xff,0xff,0xff,
 0x91,0x08,0x22,0x41,0xfe,0xff,0x7f,0x77,0x88,0x0a,0x08,0x28,0x00,0x01,0x00,
 0x22,0x29,0x05,0x41,0x2a,0xfd,0xff,0xff,0xff,0x05,0x45,0x91,0x28,0xf9,0xff,
 0xff,0xff,0x20,0xa0,0x42,0x82,0x54,0xa8,0x00,0x08,0x00,0x10,0x04,0x40,0xff,
 0xff,0xff,0x7f,0x51,0x28,0x4a,0x82,0xfc,0xff,0xff,0xff,0x00,0x01,0x08,0x08,
 0x00,0x01,0x00,0x20,0x49,0x85,0x52,0x55,0xff,0xff,0xdf,0xfb,0x29,0x45,0x81,
 0x54,0xfa,0xff,0xff,0xff,0x4a,0x48,0xa2,0xa2,0x4a,0x94,0x00,0x02,0x20,0x50,
 0x08,0x40,0xff,0xff,0xff,0x7f,0x80,0x10,0x14,0x09,0xf1,0xff,0xff,0xff,0x03,
 0x01,0x00,0x08,0x00,0x01,0x00,0x88,0x0a,0x04,0x82,0xaa,0xff,0xff,0xff,0xff,
 0x55,0x4a,0x49,0x52,0xf4,0xff,0xfe,0xff,0x53,0x54,0x95,0x82,0x48,0xa0,0x00,
 0x20,0x40,0x51,0x28,0xd0,0xff,0xbf,0xfb,0x1f,0x80,0x20,0x92,0x80,0xe8,0xff,
 0xff,0xff,0x05,0x00,0x40,0x08,0x02,0x05,0x00,0x09,0x11,0x04,0x45,0xa5,0xff,
 0xff,0xff,0x7f,0x2a,0x95,0x44,0x2a,0xa5,0xff,0xff,0xff,0x07,0x22,0x12,0xa2,
 0x50,0x80,0x00,0x00,0x44,0x50,0x10,0xe8,0xff,0xff,0xff,0x8f,0x48,0x44,0x12,
 0x49,0xe8,0xff,0xbf,0xf7,0x23,0x88,0x08,0x08,0x02,0x0a,0x00,0x48,0x11,0x85,
 0xa4,0xe2,0xff,0xff,0xff,0x3f,0x25,0x29,0x49,0x92,0x92,0xff,0xff,0xff,0x4f,
 0x02,0xa2,0x82,0x90,0x40,0x00,0x02,0x00,0x10,0x02,0xfc,0xff,0xff,0xff,0x8b,
 0x88,0x44,0x22,0x49,0x64,0xff,0xff,0xff,0x07,0x28,0x00,0x48,0x02,0x12,0x01,
 0x90,0x54,0x85,0x50,0xe9,0xff,0xfe,0xff,0x2f,0x52,0x22,0x49,0x12,0x89,0xff,
 0xff,0xff,0x0f,0x01,0x49,0x02,0xa4,0x44,0x00,0x00,0x00,0x10,0x02,0xf4,0xff,
 0xff,0xef,0x43,0x89,0x94,0x24,0x48,0x22,0xfd,0xff,0xff,0x2f,0x24,0x00,0x29,
 0x00,0x00,0x00,0x49,0x92,0xa4,0x54,0xf9,0xff,0xff,0xff,0x2e,0x50,0x45,0x92,
 0x92,0x48,0xff,0xff,0xbf,0x0f,0x81,0x54,0x00,0x55,0xaa,0x00,0x00,0x01,0x00,
 0x00,0xfe,0xff,0xff,0xff,0x81,0x02,0x28,0x49,0x44,0x22,0xfe,0xff,0xff,0x3f,
 0x08,0x00,0x12,0x00,0x00,0x00,0x52,0xa4,0xaa,0xaa,0xf4,0xff,0xff,0xff,0x2b,
 0x55,0x45,0x92,0x22,0x4a,0xfd,0xff,0xff,0x1f,0xa2,0x92,0x44,0x89,0x92,0x00,
 0x00,0x00,0x00,0x00,0xff,0xff,0xdf,0x7f,0x90,0x48,0x14,0x09,0x49,0x11,0xfa,
 0xff,0xff,0x1f,0x00,0x08,0x00,0x24,0x00,0x00,0x24,0x49,0x92,0xaa,0xfe,0xff,
 0xff,0xfe,0x4a,0x92,0xa2,0x44,0x2a,0x8a,0xfc,0xff,0xff,0xbf,0x52,0x22,0x29,
 0x01,0xa9,0x00,0x00,0x00,0x40,0x40,0xff,0xff,0xff,0xbf,0x24,0x49,0x14,0x51,
 0x40,0x50,0xf8,0xff,0xbf,0x5f,0x00,0x01,0x80,0x48,0x00,0x00,0x49,0xaa,0x14,
 0x29,0xff,0xff,0xff,0x7f,0x89,0x24,0x89,0x14,0x95,0x8a,0xea,0xff,0xff,0x3f,
 0x52,0xa4,0x2a,0x02,0x94,0x00,0x00,0x01,0x02,0xc4,0xff,0xff,0xff,0x0f,0x52,
 0x92,0x22,0xa2,0x48,0x24,0xf4,0xff,0xff,0x3f,0x00,0x00,0x00,0x28,0x01,0x00,
 0x54,0xa0,0x50,0xa1,0xff,0xff,0xff,0xbf,0x84,0x44,0xa8,0x14,0x25,0x92,0xd2,
 0xff,0xff,0xbf,0x24,0x49,0x92,0x82,0xa0,0x00,0x00,0x04,0x04,0xe4,0xff,0xff,
 0xfe,0x07,0x52,0x92,0x82,0xa2,0x48,0x49,0xe8,0xfb,0xfe,0x7f,0x00,0x00,0x00,
 0x08,0x0a,0x00,0x00,0x00,0x00,0xd1,0xff,0xff,0xff,0xaf,0x88,0x48,0x54,0x10,
 0x22,0x12,0x85,0xff,0xff,0xff,0x48,0x2a,0x49,0xa2,0x40,0x00,0x00,0x10,0x01,
 0xf0,0xff,0xf7,0xff,0x01,0x22,0x22,0x81,0x42,0x88,0x40,0xd0,0xff,0xbf,0x3f,
 0x80,0x80,0x24,0x08,0x12,0x01,0x40,0x02,0x50,0xd4,0xff,0xff,0xef,0x83,0x88,
 0x08,0x28,0x94,0x22,0x2a,0x4a,0xff,0xff,0x7f,0x29,0x28,0x80,0xa2,0x44,0x00,
 0x2b,0x55,0x25,0xe9,0xff,0xff,0xff,0x28,0x11,0xa5,0x92,0x40,0x84,0x80,0x80,
 0xfe,0xff,0xfb,0x00,0x00,0x12,0x00,0x00,0x00,0x94,0x52,0x52,0xf5,0xff,0xff,
 0xff,0x92,0xa4,0x28,0x49,0x15,0x51,0x28,0x52,0xff,0xff,0x7f,0x00,0x82,0x00,
 0x88,0x48,0x00,0x55,0x55,0xad,0xfa,0xff,0xff,0x7f,0xb5,0xdb,0xd6,0x56,0x6d,
 0x57,0xab,0xaa,0xfe,0xff,0xff,0x55,0x29,0xaa,0x22,0x22,0x01,0x55,0x55,0x55,
 0xf5,0xbf,0xff,0xff,0xaa,0x6c,0xb5,0xaa,0xaa,0x54,0x55,0x95,0xfa,0xff,0xff,
 0x03,0x88,0x04,0x88,0x08,0x00,0xaa,0xaa,0x6a,0xff,0xff,0xf7,0x2e,0x5b,0xab,
 0x6d,0x6d,0xab,0xb5,0xaa,0x6a,0xf5,0xff,0xff,0xed,0x6b,0xfb,0x77,0xf7,0x01,
 0x55,0x55,0x55,0xf9,0xff,0xff,0x7f,0xad,0xb5,0xb6,0xb6,0x6d,0xad,0xdd,0x56,
 0xfd,0xff,0xff,0x2b,0xaa,0xaa,0xaa,0xaa,0x00,0xaa,0xaa,0x5a,0xdf,0xfd,0xff,
 0xaf,0x72,0x6b,0xab,0x55,0xd5,0xaa,0xb2,0xaa,0xea,0xed,0x77,0x5f,0x55,0xa5,
 0xda,0x56,0x01,0xad,0x55,0xd5,0xfa,0x7f,0xff,0x5f,0xad,0xbd,0x6d,0xdb,0x5a,
 0x5b,0xad,0xb6,0xf5,0x7f,0xff,0xaf,0xaa,0x5a,0x55,0x5b,0x01,0xab,0x5a,0xb5,
 0xfe,0xff,0xdf,0xd4,0x5a,0xa5,0x5a,0x55,0xab,0xb6,0xaa,0xaa,0xaa,0xff,0xff,
 0x5f,0x95,0x52,0x55,0xa5,0x00,0x55,0x55,0x55,0xfb,0xff,0xff,0x57,0xab,0xdb,
 0xd6,0xb6,0xda,0xca,0xb6,0xad,0xda,0xff,0xfb,0xb7,0x6a,0xad,0xaa,0x6a,0x01,
 0x00,0x40,0x4a,0xfd,0xef,0x8f,0xb4,0x76,0x6d,0x5b,0xdb,0xb6,0xbd,0x6d,0xdb,
 0xb6,0xff,0xbf,0xaf,0xaa,0x52,0x55,0x95,0x00,0x20,0x2a,0x51,0xfa,0xff,0x7f,
 0x5b,0xad,0xb6,0xd5,0x55,0xab,0xa6,0xaa,0x6a,0x55,0xff,0xff,0xbf,0x55,0x55,
 0xd5,0x6a,0x01,0x00,0x00,0x00,0x54,0xff,0x07,0x00,0x00,0x00,0x00,0x00,0x00,
 0x10,0x49,0x92,0xaa,0xfa,0xff,0x57,0x55,0xab,0xb6,0xad,0x01,0x08,0x00,0x00,
 0xf4,0xff,0x0f,0x00,0x00,0x40,0x10,0xa4,0x54,0x89,0xa4,0x4a,0x55,0xfd,0xff,
 0x5f,0xb5,0xda,0xaa,0xaa,0x00,0x20,0x89,0x84,0xaa,0x1a,0x92,0x54,0xb5,0x55,
 0x67,0x49,0x22,0x24,0x00,0x00,0x00,0xe0,0xff,0x07,0x00,0x00,0x00,0x00,0x00,
 0x04,0x00,0x20,0x54,0xf7,0x4a,0x89,0x4a,0xaa,0x94,0x94,0x14,0x41,0x2a,0x00,
 0x00,0xf0,0xff,0x07,0x00,0x00,0x00,0x00,0x00,0x40,0x92,0x12,0xb5,0x0a,0x00,
 0x20,0x20,0x00,0x40,0x20,0x42,0x12,0x41,0x55,0xaa,0x8a,0xff,0x02,0x50,0x29,
 0x08,0x22,0x00,0x08,0x20,0x84,0xd4,0x3e,0x28,0x09,0x8a,0xaa,0x2a,0x8a,0xa8,
 0x44,0x28,0x04,0x01,0x60,0xfd,0x17,0x05,0x92,0xa2,0x88,0x00,0x20,0x00,0x20,
 0xad,0x83,0x82,0xa4,0x10,0x09,0x91,0x24,0x01,0x89,0x82,0x10,0x24,0x01,0xaf,
 0x0c,0x40,0x40,0x00,0x00,0x00,0x04,0x15,0x09,0x74,0x1d,0x20,0x10,0x4a,0xa2,
 0x24,0x49,0xaa,0x24,0x24,0x84,0x08,0x88,0x7a,0x15,0x88,0x12,0x00,0x10,0x00,
 0x52,0x48,0xa2,0xaa,0x4b,0x95,0xa2,0x20,0x09,0x82,0x10,0x11,0x92,0x90,0x28,
 0xa2,0x04,0xea,0x2a,0x00,0x00,0x92,0x82,0x00,0x89,0x22,0x49,0x6a,0x15,0x20,
 0x08,0x4a,0xa2,0x28,0x85,0x44,0x21,0x04,0x82,0x08,0x41,0x5d,0x15,0x24,0x81,
 0x00,0x00,0x00,0x20,0x88,0x90,0xd4,0x47,0x85,0x52,0x11,0x88,0x04,0x24,0x12,
 0x8a,0xaa,0x14,0x51,0x14,0xea,0xaa,0x00,0x14,0x4a,0x2a,0x00,0x08,0x22,0x24,
 0x55,0x95,0x50,0x89,0x48,0x45,0x52,0x91,0x48,0x41,0x10,0x49,0x0a,0xa2,0x7a,
 0x13,0x40,0x41,0x80,0x80,0x00,0xa2,0x88,0x90,0xaa,0x16,0x05,0x52,0x92,0x94,
 0x88,0x44,0x22,0x94,0xa2,0x24,0x50,0x09,0xb4,0xa5,0x00,0x04,0x12,0x08,0x00,
 0x00,0x42,0xa4,0x56,0x8b,0xa8,0x14,0x25,0x49,0x52,0x22,0x89,0x42,0x14,0x91,
 0x0a,0xa0,0xea,0x2a,0x00,0x90,0x00,0x42,0x00,0x44,0x08,0x42,0x49,0x0a,0x02,
 0x41,0x10,0x22,0x89,0x14,0x24,0x14,0x21,0x4a,0xa4,0x0a,0xba,0x55,0x05,0x00,
 0x20,0x00,0x00,0x10,0x81,0xa0,0x26,0x95,0xa0,0x28,0xa5,0x54,0xa2,0x44,0x89,
 0xa2,0x4a,0x21,0x49,0x80,0xec,0x56,0x11,0x00,0x88,0x48,0x00,0x00,0x00,0x48,
 0x00,0x12,0x04,0x82,0x54,0x49,0x2d,0x55,0x55,0x49,0x24,0x8a,0x20,0x15,0x5f,
 0xab,0xa2,0xa0,0x26,0x00,0x00,0x04,0x90,0x90,0xaa,0x48,0x01,0x24,0x09,0xa5,
 0x90,0xaa,0x52,0x2a,0x92,0x52,0x4a,0x40,0xf4,0x5a,0x15,0x02,0x12,0x12,0x00,
 0x20,0x02,0x22,0x01,0x29,0x54,0x49,0x52,0x0a,0x25,0x11,0xa5,0xa4,0x4a,0x84,
 0x94,0x56,0xbb,0x77,0xeb,0xfa,0x42,0x40,0x00,0x00,0x08,0xa8,0x54,0x92,0x42,
 0x24,0xa9,0xa2,0x94,0xaa,0x94,0x52,0x91,0x52,0x4a,0x91,0xee,0xad,0x95,0x4a,
 0x95,0x94,0x00,0x08,0x20,0x01,0x01,0x40,0x94,0x92,0x04,0x14,0x51,0x44,0x29,
 0x25,0x2a,0x55,0xa9,0x56,0x5d,0x7f,0xfb,0x15,0x00,0x00,0x00,0x00,0x01,0x52,
 0x2a,0x91,0x4a,0x24,0xa2,0x49,0x8a,0x52,0x94,0x52,0x95,0x22,0x55,0x91,0xea,
 0xd5,0xaa,0xae,0x00,0x00,0x00,0x00,0x40,0x94,0x00,0x00,0x20,0xa9,0x2c,0x52,
 0x11,0x24,0x21,0x84,0x00,0x88,0x80,0x2a,0x05,0x2a,0xd5,0x55,0x09,0x08,0x00,
 0x20,0x08,0x2a,0x05,0x00,0x48,0x95,0xa2,0x2a,0xca,0x52,0x95,0x52,0x54,0x22,
 0x54,0x94,0x5a,0x91,0xaa,0x6e,0x05,0x41,0x00,0x00,0x00,0xd8,0x5a,0x00,0x00,
 0x28,0x55,0x49,0x29,0x45,0x4a,0x00,0x00,0x00,0x00,0x01,0x94,0x44,0x10,0x00,
 0x20,0x00,0x00,0x00,0x00,0x69,0x2b,0x04,0x80,0x4a,0x49,0xa4,0x92,0x28,0x91,
 0x4a,0x02,0x00,0x01,0x40,0x29,0x11,0x45,0x52,0x08,0x08,0x00,0x00,0x00,0x00,
 0xd4,0xbb,0x25,0x1e,0x00,0x11,0x44,0x02,0x00,0x00,0x90,0x08,0x48,0x04,0x00,
 0x44,0x10,0x01,0x01,0x00,0x00,0x00,0x01,0x00,0x29,0x55,0x49,0x29,0x55,0x8a,
 0x92,0xa8,0x14,0x00,0x00,0x20,0x00,0x00,0x54,0x11,0x04,0x20,0x00,0x02,0x00,
 0x08,0x10,0x04,0x00,0x40,0x92,0x12,0x00,0x20,0x00,0x00,0x80,0x20,0x01,0x00,
 0x00,0x00,0x00,0x00,0x00,0x00,0x00,0x00,0x00,0x00,0x80,0x40,0x84,0x94,0x4a,
 0x8c,0x92,0x94,0x24,0x00,0x00,0x08,0x08,0x00,0x00,0x00,0x00,0x00,0x00,0x00,
 0x00,0x00,0x00,0x00,0x00,0x00,0x00,0x00,0x00,0x00,0x00,0x00,0x91,0xaa,0x24,
 0x82,0x40,0x00,0x84,0x48,0x24,0x42,0x00,0x80,0x04,0x00,0x00,0x00,0x00,0x00,
 0x00,0x00,0x00,0x40,0x90,0x52,0x44,0x00,0x00,0x00,0x04,0x89,0x00,0x00,0x80,
 0x00,0x80,0x10,0x20,0x00,0x00,0x00,0x00,0x00,0x00,0x00,0x00,0x00,0x00,0x00,
 0x00,0x89,0x44,0x04,0x00,0x00,0x00,0x00,0x11,0x08,0x00,0x00,0x00,0x11,0x00,
 0x20,0x02,0x10,0x01,0x00,0x00,0x08,0x02,0x00,0x20,0x20,0x10,0x91,0x00,0x00,
 0x00,0x04,0x04,0x01,0x00,0x00,0x00,0x00,0x00,0x00,0x00,0x00,0x10,0x00,0x10,
 0x01,0x00,0x80,0x00,0x02,0x01,0x00,0x4a,0x00,0x88,0x20,0x10,0x20,0x04,0x04,
 0x00,0x00,0x00,0x00,0x00,0x01,0x00,0x00,0x00,0x80,0x20,0x12,0x08,0x00,0x08,
 0x92,0x00,0x22,0x01,0x00,0x85,0x08,0x40,0x00,0x02,0x00,0x00,0x00,0x04,0x20,
 0x04,0x42,0x00,0x00,0x00,0x00,0x82,0x10,0x00,0x00,0x00,0x00,0x20,0x08,0x10,
 0x02,0x00,0x00,0x00,0x00,0x00,0x88,0x40,0x80,0x40,0x08,0x88,0x10,0x84,0x40,
 0x00,0x00,0x81,0x40,0x48,0x08,0x04,0x40,0x42,0x00,0x00,0x00,0x00,0x00,0x00,
 0x00,0x00,0x00,0x00,0x00,0x00,0x00,0x00,0x00,0x00,0x00,0x00,0x00,0x00,0x00,
 0x00,0x00,0x00,0x00,0x00,0x10,0x10,0x41,0x00,0x00,0x00,0x00,0x00,0x00,0x00,
 0x00,0x00,0x00,0x00,0x00,0x00,0x04,0x00,0x40,0x00,0x24,0x09,0x00,0x00,0x80,
 0x00,0x00,0x00,0x00,0x00,0x00,0x00,0x00,0x00,0x00,0x00,0x00,0x00,0x00,0x00,
 0x00,0x00,0x00,0x00,0x00,0x20,0x01,0x00,0x00,0x00,0x00,0x00,0x00,0x00,0x00,
 0x00,0x02,0x00,0x00,0x00,0x00,0x00,0x00,0x00,0x00,0x00,0x00,0x00,0x49,0x0a,
 0x00,0x84,0x00,0x00,0x04,0x00,0x00,0x00,0x00,0x88,0x40,0x00,0x00,0x00,0x00,
 0x00,0x10,0x00,0x00,0x00,0x00,0x00,0x00,0x00,0x04,0x00,0x00,0x00,0x00,0x00};
