#define noname_width 150
#define noname_height 260
static char noname_bits[] = {
 0x00,0x40,0x00,0x02,0x04,0x10,0x00,0x01,0x10,0x10,0x21,0x48,0x00,0x00,0x10,
 0x04,0x00,0x00,0x00,0xa4,0x14,0x92,0x48,0x51,0x05,0x55,0x54,0x45,0x45,0x88,
 0x02,0xa8,0xaa,0x04,0x41,0x92,0x94,0x12,0x10,0x42,0x40,0x20,0x04,0xa8,0x00,
 0x00,0x08,0x10,0x21,0xa8,0x02,0x00,0x52,0x14,0x01,0x02,0x08,0x85,0x10,0x15,
 0x0a,0x91,0x02,0xa8,0xaa,0x22,0x05,0x0a,0x02,0x48,0x92,0x00,0x40,0xa4,0x40,
 0x02,0x10,0x42,0x40,0x10,0x44,0xa8,0x02,0x00,0x44,0xa8,0x50,0x54,0x20,0x08,
 0x4a,0x09,0x10,0x12,0x08,0x80,0x10,0x14,0x45,0x11,0x04,0x50,0x55,0x11,0x02,
 0x04,0x01,0x0a,0xa1,0x10,0x42,0x85,0x80,0x02,0x2a,0x42,0x41,0x10,0xa2,0x52,
 0x05,0x00,0xa2,0xa8,0x50,0x54,0x20,0x04,0x02,0x08,0x10,0x2a,0x08,0x00,0x14,
 0x90,0x84,0x08,0x00,0xa0,0xaa,0x08,0x04,0x0a,0x81,0x0a,0x91,0x90,0x42,0x84,
 0x00,0x01,0xaa,0x40,0x05,0x52,0xa2,0xaa,0x0a,0x00,0xa5,0x52,0x20,0x0a,0x50,
 0x44,0x44,0x88,0x10,0x12,0x24,0x00,0x29,0xa0,0x00,0x10,0x00,0x40,0x55,0x00,
 0x84,0x8a,0x40,0x05,0x11,0x11,0x22,0x84,0x80,0x08,0x2a,0x80,0x0a,0x55,0x45,
 0x55,0x15,0x80,0xaa,0x28,0x10,0x15,0x28,0x04,0x44,0x88,0x10,0x0a,0x02,0x00,
 0x4a,0x80,0x00,0x20,0x00,0x88,0x2a,0x00,0x02,0x4a,0x40,0x02,0x41,0x11,0x22,
 0x84,0xa0,0x10,0x4a,0x21,0x55,0xaa,0x8a,0xaa,0x22,0x44,0x55,0xa8,0x20,0x09,
 0x29,0x0a,0xa0,0x88,0x10,0x02,0x09,0x10,0x14,0x80,0x00,0x40,0x04,0x10,0x21,
 0x00,0x05,0x0a,0xa4,0x80,0xa0,0x0a,0x42,0x84,0x48,0x00,0x42,0x40,0x15,0x55,
 0x15,0x51,0xa5,0x94,0x2a,0xa8,0xa0,0x58,0x4a,0x12,0x90,0x08,0x51,0x02,0x05,
 0x90,0x12,0x40,0x00,0x42,0x24,0x08,0x00,0x80,0x02,0x5a,0xb7,0x02,0x84,0x24,
 0x50,0x04,0x50,0x10,0x02,0x44,0x15,0x55,0x09,0x91,0xa2,0xaa,0x2a,0x48,0xa4,
 0xdd,0x94,0x10,0x82,0x82,0x90,0x04,0x01,0x54,0x91,0x80,0x20,0x50,0x04,0x08,
 0x00,0x80,0x92,0xfe,0xb6,0x2b,0x80,0x20,0x20,0x04,0x20,0x10,0x00,0x22,0x2a,
 0x8a,0x82,0x50,0xa1,0xaa,0x2a,0x08,0xad,0xfb,0x56,0x25,0x84,0x84,0x50,0x89,
 0x02,0xa5,0x08,0x81,0x20,0x28,0x0a,0x14,0x00,0x80,0xc2,0xfb,0xbe,0xbf,0x08,
 0x21,0x28,0x04,0x02,0x08,0x10,0xa5,0x14,0x8a,0x42,0x50,0x41,0x55,0x15,0x54,
 0xff,0xfb,0x5a,0x21,0x84,0x82,0x48,0x28,0x21,0x44,0x00,0x80,0x44,0x10,0x05,
 0x28,0x00,0x42,0xa1,0xad,0xae,0xef,0x05,0x21,0x20,0x02,0x00,0x08,0x82,0x54,
 0x55,0x12,0xa5,0xa8,0x42,0x55,0x29,0xc4,0xff,0xff,0xba,0x52,0x84,0x8a,0xa8,
 0x52,0x22,0x28,0x02,0x82,0x80,0x08,0x04,0x10,0x00,0x00,0xf1,0xfe,0xb7,0xdf,
 0x0f,0x28,0x00,0x02,0x84,0x00,0x80,0xa8,0x28,0x2a,0x52,0x51,0xa5,0xaa,0xaa,
 0xd4,0xb7,0xff,0x76,0xa5,0x82,0x54,0x48,0x10,0x0a,0x2a,0x04,0x82,0x84,0x04,
 0x88,0x08,0x11,0x00,0xe8,0xff,0xdd,0xdf,0x1b,0x20,0x00,0x11,0x82,0x00,0x40,
 0x51,0x14,0x52,0x50,0x25,0x52,0xa4,0xaa,0xf2,0xff,0xff,0xfe,0x27,0x89,0x12,
 0x84,0x08,0x0a,0x14,0x08,0xa2,0x08,0x0a,0x80,0x04,0x49,0x10,0xd4,0xff,0xff,
 0x57,0x1d,0x20,0x20,0x21,0x42,0x10,0x42,0xa5,0x08,0x51,0xa1,0x2a,0x29,0x84,
 0x4a,0xf9,0xf6,0xf7,0xff,0x57,0x82,0x84,0x88,0x08,0x01,0x20,0x10,0x42,0x04,
 0x14,0x40,0x80,0x52,0x00,0xea,0xbf,0xde,0xaa,0x2e,0x28,0x10,0x02,0x42,0x08,
 0x8a,0x42,0x29,0x51,0xa1,0x8a,0x2a,0x88,0xaa,0xf4,0xd5,0xff,0xdf,0x8f,0x80,
 0x44,0x28,0x08,0x21,0x41,0x10,0x42,0x08,0x08,0x21,0x81,0x12,0x09,0x74,0x6f,
 0xbf,0xaa,0x2a,0x12,0x01,0x41,0x92,0x08,0x14,0xa5,0x08,0x51,0x51,0x4a,0x2a,
 0x44,0xa4,0xfa,0xb5,0xfb,0x75,0x95,0x08,0x14,0x04,0x41,0x02,0x81,0x10,0xa4,
 0x04,0x8a,0x90,0x80,0x22,0x11,0xd0,0xff,0x5e,0xad,0x22,0x40,0x21,0x51,0x10,
 0x10,0x54,0x4a,0x11,0x52,0x20,0x0a,0x15,0x14,0xa2,0xfa,0xea,0xef,0xd6,0x82,
 0x12,0x84,0x84,0x8a,0x02,0x01,0x00,0x88,0x88,0x8a,0x40,0xa0,0x82,0x14,0xe9,
 0xbf,0x5a,0x75,0x29,0x04,0x21,0x20,0x20,0x14,0x54,0x55,0x25,0x25,0x10,0x95,
 0x0a,0x54,0x20,0x7a,0xf5,0x6f,0x5b,0x45,0x50,0x84,0x84,0x84,0x00,0x01,0x00,
 0x48,0x10,0xa5,0x20,0x40,0x01,0x8a,0xa4,0x5b,0xaa,0xad,0x01,0x05,0x10,0x21,
 0x20,0x10,0x54,0x55,0x21,0x45,0x08,0x45,0x15,0xaa,0x50,0xda,0xee,0x6d,0x75,
 0x29,0x90,0x42,0x84,0x82,0x02,0x01,0x00,0x8a,0x20,0x45,0x10,0x42,0x41,0x0a,
 0xa0,0xb2,0xb6,0x5e,0x02,0x02,0x10,0x20,0x28,0x10,0x54,0x55,0x10,0x95,0x90,
 0x4a,0x94,0x14,0x51,0xbd,0xad,0x6b,0xab,0xa8,0xa8,0x42,0x45,0x81,0x02,0x01,
 0x80,0x4a,0x00,0x4a,0x10,0x21,0x42,0xfc,0xd2,0xf6,0xad,0x7d,0x01,0x02,0x10,
 0x10,0x28,0x10,0x54,0x15,0x20,0x55,0x10,0x45,0x8a,0x88,0x7e,0xb5,0xad,0x56,
 0x2b,0x24,0xa8,0x44,0x45,0x82,0x02,0x09,0x40,0x95,0x00,0x85,0x90,0x20,0x52,
 0xfb,0xaf,0xfa,0x75,0xfd,0x88,0x02,0x11,0x10,0x24,0x14,0xa4,0x0a,0x42,0xaa,
 0x28,0x45,0x4a,0xc8,0xff,0x6a,0x57,0xab,0x2a,0x42,0x08,0x44,0x41,0x91,0x00,
 0x00,0xa1,0x28,0x04,0x44,0x10,0x91,0xf2,0xee,0xdf,0xfa,0xae,0xf6,0x01,0x42,
 0x11,0x14,0x00,0x12,0x2a,0x8a,0x82,0xa8,0x12,0x45,0x22,0xd4,0xff,0xbf,0xd7,
 0x55,0xad,0x94,0x28,0x44,0xa0,0x4a,0x08,0x81,0x50,0x50,0x02,0x84,0x20,0x08,
 0x7f,0xff,0x7f,0xf9,0xed,0x1f,0x20,0x02,0x11,0x0a,0x10,0x02,0x14,0x05,0x85,
 0x54,0x51,0x4a,0xa5,0xfc,0xdb,0xee,0xb7,0x5b,0x6b,0x05,0x28,0x44,0xa1,0x44,
 0x28,0x42,0x50,0x28,0x81,0x88,0x24,0xa0,0xb7,0xff,0x7f,0xed,0xee,0x0a,0x48,
 0x05,0x11,0x08,0x80,0x02,0x94,0x82,0x02,0x2a,0x12,0x91,0x4a,0xff,0xfe,0xff,
 0xfd,0xbb,0x47,0x21,0x50,0x44,0xa2,0x0a,0x08,0x21,0x28,0xa8,0x90,0xa4,0x08,
 0xf1,0xff,0x77,0xff,0xab,0xdf,0x29,0x88,0x04,0x81,0x10,0xa0,0x02,0x84,0xa2,
 0x42,0x4a,0x08,0xa5,0xec,0xfb,0xff,0xff,0xf7,0x77,0x83,0x02,0x12,0x14,0x42,
 0x09,0x14,0x51,0x10,0x10,0x11,0xa2,0x10,0x7a,0xbf,0xff,0xfb,0xbf,0xfd,0x21,
 0xa0,0x84,0x82,0x10,0x22,0x01,0x84,0x4a,0x25,0xa2,0x04,0xa5,0xfe,0xff,0xff,
 0xff,0xf7,0xdf,0x8a,0x0a,0x50,0x28,0x45,0x08,0x24,0xa9,0x80,0x88,0x08,0xa9,
 0x90,0xfa,0xfb,0xf7,0xff,0xff,0xf7,0x21,0x90,0x0a,0x42,0x28,0x42,0x01,0x04,
 0x15,0x25,0x25,0x44,0x4a,0xbf,0xff,0xff,0x7f,0xbf,0xbf,0x82,0x44,0x20,0x09,
 0x81,0x08,0x0a,0xa1,0x40,0x88,0x90,0x12,0xa1,0xfd,0xff,0xfe,0xff,0xff,0xff,
 0x29,0x11,0x8a,0x50,0x24,0xa2,0x00,0x14,0x95,0x52,0x4a,0xa4,0x94,0xff,0xf7,
 0xff,0xff,0xff,0xfd,0x03,0x44,0x10,0x02,0x91,0x08,0x15,0xa2,0x48,0x00,0x21,
 0x12,0xc2,0xdf,0xff,0x6f,0xf7,0xff,0xff,0x25,0x01,0x85,0x54,0x04,0x42,0x00,
 0x04,0x25,0x55,0x4a,0x49,0x69,0xff,0xff,0xff,0xff,0xff,0xef,0x07,0x14,0x28,
 0x80,0x50,0x08,0x15,0xa9,0x48,0x92,0x24,0x24,0xd4,0xff,0xff,0xff,0xff,0xef,
 0xff,0x4b,0x81,0x82,0x2a,0x04,0xa2,0x00,0x92,0x92,0x24,0x49,0x49,0xe9,0xfb,
 0xbf,0xff,0xff,0xfe,0xff,0x27,0x14,0x48,0x44,0x51,0x09,0x0a,0xee,0x7d,0xdb,
 0xb6,0xb6,0xf6,0xff,0xff,0xdb,0xfd,0xff,0xff,0x0f,0xa1,0x12,0x21,0x0a,0x20,
 0x11,0x35,0xcb,0xaa,0x55,0x55,0xd9,0xff,0xfd,0xff,0xef,0xff,0xfe,0x57,0x04,
 0x44,0x48,0x51,0x45,0x04,0xff,0xff,0xff,0xff,0xff,0xff,0xfe,0xff,0x7f,0xff,
 0xff,0x7f,0xbf,0xfb,0x2b,0x00,0x6c,0xb5,0x2a,0xff,0xff,0xff,0xff,0xff,0xef,
 0xef,0xff,0xff,0xff,0xff,0xff,0x6b,0x57,0x2d,0x00,0x55,0x55,0x09,0xff,0xdd,
 0xff,0xff,0xff,0xff,0xff,0xff,0xde,0xf7,0xbf,0xff,0xff,0xff,0xff,0x07,0xf0,
 0xff,0x3f,0xdf,0xff,0xfe,0xfe,0xfb,0xb6,0xff,0xdf,0xff,0xfe,0xfe,0xef,0xff,
 0xfd,0xaf,0x08,0xfc,0xff,0x3f,0xff,0xff,0xff,0xff,0xff,0xff,0xbe,0xff,0xff,
 0xff,0xff,0xfe,0xff,0xff,0x5f,0x27,0xc0,0xff,0x3f,0xff,0xff,0xdf,0xff,0xbf,
 0xfb,0xff,0xff,0xff,0xdf,0xff,0xff,0xff,0xdf,0xbf,0x14,0xfa,0xff,0x3b,0xbb,
 0xdb,0xff,0x7f,0xff,0xff,0xfb,0xfb,0xed,0xff,0xfb,0xff,0xbb,0xff,0x5b,0xeb,
 0xeb,0xbf,0x3f,0xff,0xff,0xfb,0xfb,0x6f,0xed,0xff,0xff,0xff,0xff,0xff,0xff,
 0xff,0xff,0xaf,0x5a,0xfa,0xfd,0x3f,0xff,0xff,0xff,0xff,0xff,0xff,0xff,0xff,
 0xff,0xfb,0xbf,0x6f,0xff,0xfb,0x5f,0xed,0xff,0xff,0x3f,0x77,0x7f,0xff,0xff,
 0xff,0xff,0xff,0xff,0xff,0xff,0xff,0xff,0xff,0x7f,0xab,0xfa,0xbf,0xef,0x36,
 0xff,0xef,0x7f,0xff,0xdf,0xba,0xbd,0xff,0x7f,0x7f,0xff,0xfd,0xdf,0xff,0x55,
 0xd5,0xff,0xff,0x3f,0xff,0xff,0xff,0x7f,0xff,0xff,0xff,0xbf,0xfd,0xef,0xff,
 0xff,0xfd,0xff,0xab,0xfa,0xfd,0xff,0x3f,0xf7,0xfd,0xff,0xef,0x77,0xff,0xff,
 0xfb,0xff,0xff,0xef,0xef,0x7f,0x5f,0x2a,0xed,0xef,0xfb,0x3f,0xff,0xff,0xfe,
 0xff,0xff,0xf7,0xf7,0xff,0xff,0xff,0xff,0xff,0xff,0xbf,0x54,0xfd,0xff,0xdf,
 0x3d,0xbf,0xff,0xbf,0xff,0x6f,0xdf,0xff,0xff,0xef,0xfb,0xfd,0xfd,0xff,0x8b,
 0x4a,0xff,0xff,0xff,0x3f,0xff,0xef,0xff,0xff,0xff,0xff,0xff,0xff,0xff,0xbf,
 0xff,0xdf,0xff,0xa7,0xaa,0x7f,0x7f,0xff,0x3f,0xff,0xfd,0xff,0xfb,0xdd,0xfd,
 0x7e,0xbf,0xff,0xff,0xbf,0xff,0x5b,0x50,0xd5,0xfb,0xff,0xff,0x3f,0xdb,0x7f,
 0xff,0xff,0xff,0xff,0xff,0xff,0x7f,0xff,0xff,0xff,0xbf,0xa4,0xea,0xff,0xff,
 0xbf,0x3b,0xff,0xff,0xef,0xff,0x69,0xdb,0xf7,0xf7,0xff,0xf7,0xfd,0x7f,0x03,
 0x5a,0xf5,0xff,0xef,0xfb,0x3f,0xff,0xef,0xff,0xff,0xf5,0xff,0xff,0xff,0xee,
 0xff,0xff,0xfe,0x43,0xad,0xda,0xff,0xff,0xff,0x3f,0xff,0xff,0xff,0xff,0x49,
 0xfd,0xff,0xff,0xff,0xff,0xef,0xf7,0x47,0x55,0xfd,0xff,0xff,0xff,0x3f,0xdf,
 0xff,0x7f,0x7f,0xd1,0x77,0xff,0xff,0xff,0xff,0xff,0xff,0x51,0x5b,0xfe,0xbf,
 0xff,0xef,0x3e,0xff,0xfe,0xfd,0xf7,0x21,0xda,0xff,0xff,0xff,0xdf,0xfe,0xff,
 0xaf,0x2d,0xff,0xf7,0xfd,0xfe,0x3f,0xff,0xff,0xff,0xff,0xd4,0xfd,0xff,0xff,
 0xff,0xff,0x7f,0xff,0x53,0xa5,0xfe,0xff,0xff,0xff,0x37,0xfb,0xff,0xef,0xff,
 0x11,0x14,0xe0,0xff,0xff,0xff,0xff,0xfb,0xbd,0xd5,0xff,0xff,0xdf,0xff,0x3f,
 0xff,0xfb,0xff,0x7f,0x48,0xab,0xfc,0xff,0xff,0xfe,0xf7,0xff,0x6b,0x55,0xff,
 0xff,0xff,0xbb,0x3f,0xdf,0xdf,0xff,0x7f,0xa5,0x10,0x80,0xfe,0xff,0xff,0xff,
 0x7f,0x2d,0xf5,0xff,0xff,0xff,0xff,0x3f,0xff,0xff,0xff,0xff,0x48,0x55,0xe0,
 0xff,0xff,0x77,0xff,0xff,0x55,0xf5,0xff,0xff,0xfb,0xff,0x3d,0xfb,0xff,0x7d,
 0xbb,0xaa,0xaa,0x02,0xf4,0xff,0xff,0xff,0xbf,0xaa,0xfe,0xdf,0xff,0xbf,0xf7,
 0x3f,0x7f,0xff,0xff,0x7f,0x95,0x24,0x09,0xfc,0xff,0xff,0xbf,0xef,0x55,0xfd,
 0xff,0x7d,0xff,0x7f,0x3f,0xff,0xff,0xff,0x7f,0x41,0xaa,0x92,0x00,0xe8,0xff,
 0x03,0xb5,0xaa,0xff,0xff,0xff,0xff,0xff,0x3f,0xff,0xff,0xef,0x7f,0x55,0x55,
 0x4a,0x80,0xff,0xff,0x42,0x6f,0xd5,0xff,0xff,0xdf,0xff,0xfe,0x3f,0xdf,0xdf,
 0xff,0xff,0x1b,0x20,0xa9,0x02,0x00,0x00,0x00,0x90,0xfa,0xff,0xff,0xff,0xef,
 0xdf,0x3b,0xff,0xfd,0xfd,0xff,0xa7,0x55,0x95,0x04,0x00,0x00,0x00,0x5d,0xfd,
 0xff,0xf7,0xff,0xff,0xff,0x3f,0xff,0xff,0xff,0xff,0x7f,0x09,0x49,0x52,0x00,
 0x00,0x00,0xa5,0xff,0xff,0xff,0xfb,0xbf,0xff,0x3f,0xff,0xff,0x7f,0xdf,0xff,
 0x22,0xa5,0x2a,0x01,0x00,0x80,0x54,0xff,0xff,0xff,0xff,0xfe,0xfb,0x3f,0xb6,
 0xff,0xff,0xff,0xff,0x5f,0x48,0x92,0x0a,0x44,0x40,0xe0,0xff,0xff,0xff,0xff,
 0xff,0xff,0x3d,0xff,0x76,0xff,0xff,0xff,0x97,0x90,0xa4,0x28,0x10,0x85,0xea,
 0xff,0xff,0xff,0xff,0xff,0xff,0x3f,0x01,0x89,0x04,0x21,0x42,0xfe,0x6f,0x12,
 0x45,0x25,0x20,0xd2,0x56,0x6d,0x7b,0xef,0xff,0xff,0x3f,0x76,0xb5,0xda,0xae,
 0x5d,0xff,0x8b,0xaa,0x94,0x92,0x44,0xd5,0xff,0xff,0xff,0xff,0xf7,0xff,0x3f,
 0x95,0x4a,0x55,0x51,0xa2,0xff,0xff,0xff,0xb7,0x24,0xa9,0x50,0xa2,0x24,0x04,
 0x20,0x10,0x00,0x08,0x54,0x55,0xa9,0x56,0xad,0xfe,0xff,0x57,0xad,0x4a,0x12,
 0xa5,0xad,0xda,0xf5,0xaf,0xd7,0xff,0x2b,0x4a,0xaa,0x54,0xa9,0x52,0xff,0xff,
 0xff,0xff,0xbb,0xd5,0x54,0x52,0x55,0x14,0xa0,0x54,0x00,0x14,0xa9,0x52,0x4b,
 0x95,0xaa,0xee,0xff,0xff,0xff,0x6f,0x95,0x52,0xad,0x4a,0x6b,0xaf,0xaa,0x6f,
 0x15,0x52,0xaa,0x50,0x52,0x55,0xff,0xff,0xff,0xff,0xff,0x57,0xaa,0x42,0xa4,
 0x92,0x50,0x49,0x28,0x25,0x4a,0x25,0xab,0xaa,0x4a,0xff,0xff,0xff,0xfd,0xff,
 0xaf,0x4a,0x5d,0x55,0xaa,0xa6,0xaa,0x52,0x29,0x52,0x92,0x94,0x94,0x54,0xfd,
 0xff,0xff,0xff,0xdf,0x5f,0xa9,0xa2,0x2a,0x55,0x29,0x55,0x55,0x15,0x4a,0x55,
 0x29,0xa5,0xaa,0xff,0xff,0xff,0xbf,0xff,0xab,0x2a,0x95,0x52,0x49,0x4a,0x92,
 0x94,0x24,0x91,0x94,0x94,0x52,0x04,0xfd,0xff,0xdf,0xff,0xff,0x1f,0x90,0x54,
 0x89,0x54,0xa5,0x49,0x4a,0x15,0x2a,0x29,0xa5,0x94,0xda,0xfe,0xff,0xff,0xff,
 0xfd,0xa6,0x55,0x29,0x55,0x49,0x29,0x56,0x55,0x2a,0x49,0x85,0x52,0xaa,0xa2,
 0xff,0xff,0xff,0xff,0xff,0x4b,0x55,0x95,0x24,0xa5,0x54,0x91,0x22,0x09,0x92,
 0x54,0xa4,0x92,0xd4,0xff,0xff,0xff,0xff,0xff,0x95,0x24,0xa9,0xaa,0x2a,0xa5,
 0x2a,0x55,0x15,0x54,0x52,0x15,0x49,0xea,0xff,0xff,0xff,0xef,0x6f,0x53,0xaa,
 0x94,0x44,0x91,0x94,0xa4,0x94,0x08,0xa2,0x24,0x65,0xaa,0xea,0xff,0xff,0xff,
 0xff,0xff,0xa5,0x92,0x52,0x29,0x55,0x29,0x95,0x52,0x15,0x14,0x95,0x90,0x12,
 0xf0,0xff,0xff,0xfe,0xfd,0xff,0x1f,0x49,0x4a,0x54,0x4a,0x4a,0x25,0x49,0x12,
 0xa2,0x48,0x25,0xc9,0xea,0xff,0xff,0xff,0xff,0xff,0xa3,0x94,0x94,0xa2,0x94,
 0x54,0x4a,0xaa,0x24,0x14,0x24,0x48,0x24,0xf4,0xff,0xff,0xff,0xff,0xfd,0x3f,
 0x42,0x42,0x14,0x41,0x82,0x20,0x01,0x09,0xa2,0x52,0xa5,0x52,0xf9,0xfe,0xff,
 0xff,0xff,0xff,0x5f,0x28,0x29,0x21,0x2a,0x29,0x95,0x54,0x24,0x10,0x09,0x12,
 0x08,0xea,0xff,0xff,0xdf,0xff,0xbf,0x7f,0x85,0x44,0x8a,0x84,0x48,0x44,0x04,
 0x09,0xa5,0x64,0xc9,0x52,0xf5,0xff,0xff,0xff,0xff,0xff,0x7f,0x10,0x12,0x51,
 0x52,0x92,0x28,0x51,0x20,0x10,0x12,0x24,0x24,0xfa,0xff,0xff,0xff,0xff,0xff,
 0xff,0xa3,0x44,0x08,0x88,0x44,0x42,0x8a,0x0a,0x4a,0xa9,0x92,0x92,0xf4,0xff,
 0xff,0xff,0xdf,0xfd,0xff,0x08,0x91,0x52,0x25,0x12,0x15,0x11,0x24,0x24,0x84,
 0x88,0x48,0xfa,0xff,0xff,0xff,0xff,0xff,0xfd,0xa7,0x24,0x84,0x90,0xa4,0x40,
 0x44,0x09,0x92,0x52,0x52,0x92,0xfc,0xff,0xff,0xff,0xff,0xff,0xff,0x09,0x91,
 0x28,0x4a,0x12,0x95,0x12,0x20,0x89,0x88,0x24,0x25,0xf6,0xff,0xff,0xff,0xff,
 0xff,0xef,0xaf,0x48,0x8a,0x04,0x89,0x20,0xa4,0x0a,0x24,0x25,0x92,0x48,0xfd,
 0xff,0xff,0xff,0xff,0xff,0xff,0x07,0x22,0x51,0x52,0x24,0x45,0x11,0x29,0x91,
 0x90,0x44,0x92,0xf4,0xff,0xff,0xff,0xff,0x7b,0xff,0x3f,0x49,0x00,0x10,0x49,
 0x12,0x44,0x02,0x4a,0x4a,0x92,0x24,0xfd,0xff,0xff,0xff,0xfd,0xff,0xff,0x0f,
 0x80,0xaa,0x4a,0x22,0x48,0x11,0x08,0x21,0x91,0x24,0x49,0xf8,0xff,0x7f,0xff,
 0xbf,0xff,0xff,0xff,0x2a,0x10,0x21,0x11,0x25,0x88,0x12,0x94,0x24,0x92,0x84,
 0xee,0xff,0xf7,0xff,0xff,0xff,0xf7,0x3f,0x44,0x45,0x44,0x4a,0x90,0x22,0x04,
 0x4a,0x12,0x21,0x51,0xf8,0xff,0xff,0xef,0xff,0xff,0xff,0xfd,0x10,0x20,0x29,
 0x00,0x45,0x48,0x11,0x90,0xa4,0x94,0x24,0xfd,0xff,0xff,0xff,0xff,0xf7,0xff,
 0xbf,0x44,0x95,0x44,0x55,0x88,0x02,0x05,0x25,0x12,0x09,0x92,0xf4,0xbf,0xff,
 0xff,0xff,0xff,0xff,0xff,0x10,0x00,0x10,0x88,0x22,0x51,0x10,0x44,0x49,0x52,
 0x44,0xfa,0xff,0xff,0xff,0xff,0x7f,0xbf,0xbf,0x48,0x55,0xa5,0x22,0x04,0x8a,
 0x02,0x10,0x20,0x04,0x29,0xfa,0xff,0xff,0x7f,0xff,0xff,0xff,0x7b,0x23,0x22,
 0x48,0x48,0x51,0x41,0x14,0x42,0x82,0x50,0x84,0xfc,0xff,0xbf,0xff,0xdf,0xff,
 0xff,0xff,0x88,0x88,0x22,0x11,0x0a,0x2a,0x21,0x00,0x10,0x00,0x00,0xf0,0xff,
 0xff,0xf7,0xff,0xdd,0xf7,0xff,0x03,0x20,0x08,0x84,0x80,0x00,0x00,0x24,0x41,
 0x4a,0x29,0xf5,0xfe,0xff,0xff,0xff,0xff,0xff,0xff,0x21,0x89,0x20,0x11,0x12,
 0x00,0x0a,0x00,0x10,0x00,0x00,0xf0,0xff,0xf7,0xff,0xfd,0xff,0xbf,0xff,0x07,
 0x00,0x00,0x00,0x00,0x44,0x00,0x42,0x02,0x11,0x42,0xec,0xff,0xff,0xdf,0xff,
 0xff,0xff,0xff,0x07,0x00,0x02,0x44,0x20,0x01,0x00,0x10,0x00,0x80,0x08,0xe0,
 0xff,0xff,0xff,0xff,0xff,0xfe,0xff,0x2f,0x20,0x88,0x00,0x04,0x10,0x00,0x80,
 0x28,0x09,0x80,0xf8,0xff,0xff,0xfd,0xf7,0xff,0xff,0xfd,0x0f,0x00,0x00,0x08,
 0x00,0x00,0x01,0x08,0x00,0x20,0x02,0xc0,0xff,0xdf,0xff,0xff,0xfb,0xff,0x7f,
 0x7f,0x02,0x00,0x80,0x20,0x00,0x00,0x20,0x49,0x00,0x28,0xf1,0x7f,0xff,0x7f,
 0xff,0xff,0xff,0xff,0x2f,0x80,0x20,0x02,0x04,0x21,0x08,0x04,0x00,0x12,0x01,
 0x40,0xff,0xff,0xff,0xff,0xff,0xdf,0xff,0xff,0x00,0x04,0x20,0x00,0x00,0x00,
 0x90,0x84,0x40,0x20,0xa9,0xff,0x7f,0xef,0xdf,0xff,0xff,0xf7,0x3d,0x00,0x00,
 0x80,0x40,0x08,0x01,0x00,0x10,0x08,0x08,0xc0,0xff,0xff,0xff,0xfb,0xff,0xff,
 0xff,0xff,0x0b,0x80,0x00,0x00,0x00,0x00,0x22,0x02,0x82,0x80,0xd0,0xff,0xfb,
 0xff,0xff,0xbf,0xff,0xfe,0xff,0x40,0x20,0x04,0x02,0x00,0x04,0x08,0x80,0x20,
 0x12,0x42,0xff,0xff,0x7b,0xff,0xff,0xff,0xff,0xff,0x05,0x00,0x20,0x20,0x44,
 0x00,0x40,0x24,0x08,0x00,0xc8,0xff,0xff,0xff,0xff,0xff,0xff,0x7f,0xf7,0x03,
 0x04,0x00,0x00,0x00,0x00,0x02,0x00,0x00,0x88,0x00,0xf7,0xff,0xfe,0xa7,0xff,
 0xff,0xff,0xdf,0x1f,0x00,0x00,0x04,0x00,0x00,0x88,0x80,0x22,0x21,0xd0,0xff,
 0xef,0xff,0xfb,0xff,0xf7,0xff,0xff,0x02,0x00,0x00,0x40,0x04,0x01,0x00,0x28,
 0x08,0x00,0x02,0xbe,0xff,0xdf,0x07,0xfe,0xff,0xf7,0xff,0x1f,0x00,0x88,0x00,
 0x00,0x08,0x20,0x02,0x40,0x84,0x80,0xff,0xff,0xfd,0xc5,0xff,0xff,0xff,0xff,
 0x17,0x20,0x02,0x04,0x20,0x00,0x08,0x80,0x00,0x00,0x20,0xff,0xff,0xff,0x03,
 0xf4,0xff,0xff,0xfd,0x5f,0x00,0x00,0x00,0x02,0x00,0x40,0x12,0x12,0x11,0x02,
 0xff,0xef,0xef,0x07,0xff,0xff,0xff,0xff,0x17,0x00,0x00,0x00,0x00,0x00,0x04,
 0x00,0x00,0x40,0x90,0xfc,0xff,0xff,0x03,0xd0,0xff,0xff,0xbf,0x7f,0x02,0x80,
 0x40,0x00,0x01,0x10,0x48,0x22,0x02,0x02,0xff,0xff,0xfe,0x43,0xf4,0xff,0xff,
 0xff,0x5f,0x00,0x08,0x04,0x04,0x08,0x00,0x01,0x08,0x20,0x00,0xfa,0xff,0xff,
 0x07,0xa0,0xff,0xff,0xff,0x7d,0x01,0x00,0x00,0x40,0x00,0x04,0x80,0x40,0x84,
 0x48,0xfe,0xff,0xef,0x03,0xe8,0xff,0xff,0xfb,0xaf,0x40,0x00,0x20,0x00,0x00,
 0x80,0x24,0x00,0x00,0x00,0xf8,0xdf,0xff,0x27,0x02,0xfd,0xff,0xff,0xff,0x0a,
 0x00,0x00,0x01,0x00,0x12,0x00,0x82,0x10,0x81,0xfe,0xff,0xfb,0x03,0xa0,0xfe,
 0xff,0xff,0xbf,0x00,0x20,0x02,0x80,0x00,0x80,0x80,0x10,0x04,0x20,0xf0,0xfe,
 0xff,0x07,0x00,0xfa,0xff,0xbf,0xff,0x07,0x00,0x00,0x10,0x08,0x20,0x12,0x00,
 0x40,0x04,0xfc,0xff,0xbf,0x03,0x84,0xfa,0xff,0xff,0x7b,0x11,0x02,0x00,0x00,
 0x00,0x04,0x00,0x89,0x08,0x00,0xe9,0x7f,0xff,0x8b,0x00,0xa8,0xff,0xff,0xff,
 0x0e,0x00,0x48,0x00,0x00,0x00,0x04,0x20,0x40,0x12,0xf4,0xff,0xef,0x07,0x10,
 0xf5,0xff,0xff,0xff,0x23,0x00,0x01,0x42,0x04,0x90,0x80,0x00,0x04,0x40,0xf8,
 0xff,0xff,0x05,0x00,0xd0,0x77,0xff,0xff,0x0f,0x20,0x00,0x00,0x00,0x02,0x08,
 0x82,0x10,0x04,0xf4,0xff,0xff,0x07,0x02,0xd4,0xff,0xff,0x7b,0x05,0x00,0x00,
 0x00,0x00,0x20,0x21,0x10,0x00,0x11,0xf9,0xff,0xfd,0x43,0x20,0xa1,0xff,0xff,
 0xff,0x2f,0x00,0x40,0x40,0x00,0x00,0x00,0x80,0x40,0x00,0xf4,0xff,0xff,0x03,
 0x00,0xd8,0xff,0xff,0xff,0x0f,0x00,0x00,0x12,0x04,0x08,0x08,0x09,0x08,0x04,
 0xf9,0xff,0xbf,0x0f,0x00,0xa0,0xff,0xff,0xff,0x1f,0x00,0x00,0x00,0x00,0x20,
 0x21,0x20,0x02,0x10,0xfc,0xdf,0xf7,0x03,0x49,0xc0,0xff,0xff,0xff,0x07,0x10,
 0x00,0x00,0x00,0x04,0x00,0x02,0x40,0x82,0xf2,0xff,0xff,0x07,0x00,0x90,0xfe,
 0xff,0xff,0x1f,0x02,0x20,0x00,0x00,0x20,0x04,0x48,0x12,0x08,0xfa,0xff,0xff,
 0x03,0x00,0xa1,0xff,0xff,0xff,0x07,0x00,0x02,0x40,0x04,0x02,0x21,0x01,0x00,
 0xa1,0xfe,0xff,0xff,0x07,0x11,0x40,0xff,0xff,0xef,0x0f,0x00,0x00,0x04,0x00,
 0x48,0x00,0x10,0x11,0x80,0xfd,0xff,0xfd,0x43,0x00,0x80,0xff,0xff,0xff,0x07,
 0x00,0x00,0x00,0x00,0x00,0x44,0x00,0x00,0xe2,0xff,0xff,0xbf,0x17,0x40,0x84,
 0xfe,0xff,0xfe,0x03,0x00,0x00,0x00,0x00,0x02,0x01,0x49,0x22,0xc8,0xff,0xff,
 0xff,0x03,0x04,0x40,0xff,0xff,0xff,0x07,0x00,0x00,0x21,0x02,0x20,0x10,0x00,
 0x00,0xf0,0xff,0xef,0xff,0x07,0x00,0x80,0xff,0xff,0xff,0x01,0x80,0x00,0x00,
 0x00,0x08,0x80,0x00,0x44,0xea,0xff,0xff,0xff,0x01,0x20,0x91,0xff,0xff,0xff,
 0x02,0x00,0x08,0x00,0x00,0x80,0x04,0x24,0x11,0xf8,0x7f,0xff,0xee,0x27,0x04,
 0xc0,0xff,0xff,0xbf,0x00,0x00,0x40,0x00,0x00,0x04,0x10,0x00,0x80,0xfa,0xff,
 0xff,0xff,0x01,0x00,0xa0,0xff,0xff,0xfe,0x00,0x04,0x00,0x44,0x02,0x90,0x00,
 0x11,0x04,0xfd,0xff,0xff,0xff,0x00,0x00,0xd1,0xff,0xff,0x7f,0x00,0x40,0x00,
 0x00,0x00,0x00,0x12,0x40,0x10,0xfe,0xff,0xff,0x7f,0x01,0x11,0xe8,0xff,0xff,
 0x5f,0x80,0x00,0x00,0x00,0x00,0x02,0x80,0x08,0x41,0xff,0xff,0xff,0x2f,0x00,
 0x00,0xe2,0xff,0xef,0x37,0x00,0x00,0x00,0x00,0x00,0x50,0x08,0x02,0x00,0xff,
 0xff,0x7f,0x3f,0x40,0x04,0xf8,0xff,0xff,0x1f,0x00,0x00,0x02,0x01,0x00,0x00,
 0x42,0x40,0xd2,0xfe,0xff,0xef,0x0f,0x00,0x40,0xf4,0xff,0xff,0x0f,0x00,0x00,
 0x00,0x10,0x02,0x04,0x00,0x04,0xc0,0xff,0xff,0xff,0x97,0x00,0x00,0xfa,0xff,
 0xff,0x0d,0x00,0x10,0x10,0x00,0x00,0x80,0x20,0x20,0xb4,0xff,0xfd,0xfe,0x03,
 0x10,0x11,0xfa,0xff,0xff,0x07,0x00,0x00,0x00,0x00,0x00,0x10,0x82,0x08,0xd0,
 0xff,0xff,0xff,0x05,0x04,0x40,0xfa,0xff,0xff,0x05,0x20,0x00,0x00,0x00,0x00,
 0x02,0x08,0x00,0xf9,0xff,0xff,0x7f,0x01,0x00,0x80,0xfe,0xff,0xff,0x0a,0x00,
 0x00,0x00,0x41,0x00,0x10,0x21,0x21,0xf4,0xff,0xff,0xdf,0x82,0x20,0x09,0xfd,
 0xff,0xff,0x01,0x00,0x40,0x04,0x00,0x02,0x00,0x00,0x04,0xfa,0xff,0xdf,0x6f,
 0x00,0x00,0x40,0xff,0xf7,0x5e,0x01,0x00,0x04,0x00,0x08,0x00,0x04,0x84,0x40,
 0xfd,0xff,0xff,0x1f,0x20,0x02,0xa0,0xfe,0xff,0x7f,0x02,0x04,0x00,0x00,0x00,
 0x00,0x90,0x20,0x08,0xfe,0xff,0xff,0x45,0x02,0x08,0xa9,0xff,0xff,0x3f,0x00,
 0x40,0x00,0x02,0x80,0x00,0x00,0x02,0x40,0xfd,0xff,0xff,0x17,0x00,0x20,0xa0,
 0xfe,0xff,0x57,0x80,0x00,0x10,0x90,0x00,0x00,0x02,0x08,0x12,0xfe,0xff,0xff,
 0x03,0x80,0x00,0xd5,0xff,0xff,0x2d,0x00,0x00,0x00,0x00,0x00,0x00,0x28,0xa0,
 0x40,0xff,0xbf,0xff,0x00,0x04,0x00,0xf4,0xff,0xff,0x17,0x00,0x00,0x81,0x00,
 0x08,0x02,0x00,0x02,0x40,0xfd,0xff,0x6f,0x09,0x00,0x90,0xd2,0xff,0xff,0x04,
 0x01,0x00,0x00,0x00,0x00,0x00,0x40,0x20,0x84,0xfe,0xff,0x7f,0x40,0x48,0x02,
 0xed,0xff,0xdf,0x13,0x10,0x00,0x00,0x00,0x00,0x10,0x12,0x08,0x40,0xfe,0xfe,
 0x17,0x00,0x01,0x40,0xfa,0xff,0x7f,0x08,0x00,0x10,0x04,0x40,0x00,0x00,0x80,
 0x40,0x92,0xf5,0xff,0xad,0x02,0x80,0x88,0xfe,0xff,0xdf,0x02,0x00,0x81,0x40,
 0x08,0x44,0x00,0x04,0x08,0x00,0xda,0xff,0x03,0x10,0x10,0xa0,0xfd,0xff,0x2d,
 0x00,0x00,0x00,0x00,0x00,0x00,0x00,0x10,0x81,0xa4,0xfd,0xbb,0x0d,0x80,0x00,
 0x80,0xfe,0xff,0x5f,0x09,0x00,0x00,0x00,0x00,0x00,0x00,0x40,0x20,0x00,0xae,
 0xae,0x00,0x00,0x82,0xa4,0xff,0xff,0x27,0x00,0x11,0x08,0x10,0x01,0x00,0x00,
 0x04,0x02,0xa9,0xf9,0x7b,0x92,0x24,0x10,0x40,0xff,0x7f,0x15,0x00,0x00,0x00,
 0x00,0x20,0x08,0x02,0x00,0x00,0x40,0x4a,0x8a,0x00,0x00,0x00,0xa9,0xff,0xff,
 0x0a,0x00,0x40,0x80,0x04,0x80,0x00,0x00,0x90,0x28,0x91,0xaa,0x55,0x00,0x41,
 0x44,0xc4,0xfe,0xdf,0x51,0x00,0x00,0x02,0x20,0x01,0x00,0x00,0x04,0x00,0x24,
 0x55,0x09,0x49,0x10,0x00,0xa9,0x7f,0xb7,0x04,0x10,0x02,0x00,0x00,0x00,0x00,
 0x00,0x40,0x42,0x40,0xaa,0x12,0x00,0x04,0x49,0x90,0xfb,0xbf,0x02,0x01,0x00,
 0x10,0x00,0x00,0x10,0x00,0x02,0x00,0xa9,0x52,0x80,0x20,0x00,0x80,0xaa,0xee,
 0xaa,0x00,0x00,0x00,0x00,0x00,0x10,0x02,0x02,0x08,0x09,0xa4,0x24,0x25,0x84,
 0x48,0x28,0x52,0xbf,0x2b,0x05,0x88,0x10,0x44,0x22,0x00,0x00,0x00,0x40,0x80,
 0x20,0x55,0x00,0x00,0x00,0x80,0xaa,0x6b,0x55,0x80,0x00,0x00,0x00,0x00,0x00,
 0x00,0x00,0x00,0x10,0x4a,0x95,0x04,0x21,0x82,0xa4,0x54,0x5e,0x25,0x00,0x00,
 0x00,0x00,0x00,0x00,0x20,0x00,0x24,0x42,0x50,0x22,0x00,0x80,0x20,0x20,0xab,
 0x52,0x09,0x22,0x22,0x04,0x01,0x10,0x44,0x02,0x00,0x80,0x00,0x45,0x2d,0x90,
 0x04,0x04,0x49,0xd5,0xae,0x24,0x00,0x00,0x00,0x88,0x80,0x00,0x00,0x00,0x10,
 0x08,0x50,0x92,0x02,0x20,0x10,0x40,0xaa,0x2a,0x08,0x00,0x00,0x20,0x00,0x00,
 0x00,0x00,0x00,0x02,0x42,0x4a,0x55,0x20,0x82,0x40,0x48,0x55,0x55,0x21,0x89,
 0x48,0x00,0x00,0x00,0x00,0x00,0x01,0x80,0x00,0xa0,0x14,0x08,0x08,0x04,0x82,
 0x54,0x15,0x00,0x00,0x00,0x00,0x02,0x00,0x00,0x00,0x00,0x14,0x24,0x95,0x2a,
 0x80,0x20,0x00,0x28,0x55,0x2b,0x01,0x10,0x02,0x01,0x20,0x12,0x10,0x09,0x00,
 0x40,0x00,0x48,0x15,0x02,0x04,0xa4,0x80,0x52,0x15,0x20,0x02,0x20,0x10,0x00,
 0x00,0x00,0x00,0x00,0x00,0x91,0x52,0x55,0x28,0x21,0x01,0x24,0x54,0x2d,0x04,
 0x40,0x00,0x80,0x00,0x80,0x00,0x00,0x08,0x12,0x00,0x48,0x15,0x00,0x00,0x00,
 0x00,0xa5,0x15,0x80,0x08,0x00,0x02,0x08,0x00,0x00,0x40,0x00,0x80,0x84,0xa4,
 0x2a,0x42,0x4a,0x4a,0x41,0xa8,0x2a,0x01,0x00,0x09,0x00,0x80,0x08,0x00,0x04,
 0x00,0x08,0x00,0x28,0x95,0x00,0x00,0x00,0x08,0x91,0x16,0x00,0x00,0x80,0x00,
 0x00,0x00,0x09,0x00,0x00,0x20,0x90,0x52,0x25,0x94,0x10,0x10,0x00,0x64,0x15,
 0x88,0x10,0x00,0x88,0x10,0x20,0x00,0x00,0x00,0x84,0x04,0x48,0x95,0x00,0x84,
 0x44,0x92,0x90,0x2a,0x00,0x00,0x22,0x00,0x00,0x00,0x80,0x00,0x00,0x00,0x20,
 0x55,0x2a,0xa4,0x10,0x00,0x00,0xa2,0x0a,0x22,0x82,0x00,0x00,0x00,0x04,0x09,
 0x80,0x00,0x10,0x02,0xa8,0x2a,0x01,0x04,0x02,0x41,0x48,0x55,0x00,0x00,0x00,
 0x42,0x04,0x00,0x00,0x04,0x00,0x40,0x48,0xa5,0x4a,0x48,0x22,0x48,0x04,0x50,
 0x0d,0x00,0x08,0x48,0x00,0x80,0x10,0x00,0x00,0x00,0x09,0x00,0x50,0x35,0x02,
 0x00,0x01,0x40,0x82,0x32,0x20,0x21,0x00,0x00,0x00,0x40,0x08,0x00,0x00,0x40,
 0x22,0x55,0x95,0x90,0x24,0x10,0x09,0xa8,0x8a,0x04,0x00,0x01,0x09,0x10,0x00,
 0x42,0x00,0x00,0x04,0x08,0x92,0x2a,0x00,0x80,0x04,0x00,0x41,0x2a,0x00,0x00,
 0x00,0x00,0x01,0x04,0x00,0x00,0x00,0x10,0x41,0xa4,0x2a,0x44,0x12,0x20,0x20,
 0xa0,0x2a,0x10,0x02,0x24,0x00,0x00,0x00,0x00,0x42,0x00,0x00,0x00,0x51,0xaa,
 0x10,0x00,0x02,0x09,0x84,0x54,0x80,0x40,0x00,0x00,0x00,0x40,0x10,0x00,0x00,
 0x22,0x14,0x4a,0x15,0x40,0x55,0x08,0x80,0x20,0x15,0x02,0x08,0x00,0x09,0x00,
 0x00,0x00,0x00,0x00,0x00,0x01,0x90,0x54,0x0a,0x00,0x42,0x12,0x00,0x55,0x00,
 0x00,0x01,0x80,0x10,0x12,0x04,0x01,0x00,0x44,0xa0,0x4a,0x89,0x20,0x49,0x08,
 0x00,0x49,0x2a,0x48,0x00,0x48,0x00,0x00,0x80,0x20,0x08,0x04,0x10,0x04,0x20,
 0x24,0x08,0x00,0x01,0x40,0x00,0x49,0x00,0x02,0x00,0x10,0x00,0x00,0x00,0x80,
 0x00,0x00,0x40,0x4a,0x95,0xa0,0x12,0x24,0x09,0x50,0x2a,0x00,0x10,0x01,0x02,
 0x80,0x20,0x08,0x00,0x00,0x89,0x12,0x10,0x09,0x04,0x44,0x49,0x20,0x02,0x11,
 0x04,0x00,0x20,0x00,0x02,0x04,0x00,0x10,0x00,0x20,0x80,0x44,0x52,0x92,0x10,
 0x00,0x81,0x00,0x4a,0x20,0x41,0x00,0x40,0x00,0x80,0x40,0x02,0x00,0x00,0x24,
 0x90,0x04,0x00,0x04,0x11,0x08,0x80,0x12,0x01,0x00,0x84,0x04,0x10,0x00,0x00,
 0x80,0x04,0x8a,0x80,0x04,0x10,0x29,0x51,0x44,0x20,0x24,0x44,0x08,0x04,0x00,
 0x00,0x00,0x08,0x12,0x00,0x00,0x00,0x20,0x40,0x42,0x00,0x00,0x01,0x04,0x00,
 0x10,0x80,0x90,0x20,0x00,0x00,0x20,0x00,0x00,0x00,0x90,0x84,0x12,0x01,0xa5,
 0x12,0x94,0x20,0x81,0x02,0x00,0x00,0x04,0x12,0x40,0x00,0x41,0x12,0x01,0x04,
 0x20,0x04,0x28,0x00,0x44,0x01,0x02,0x20,0x90,0x24,0x00,0x00,0x00,0x02,0x00,
 0x00,0x00,0x00,0x20,0x85,0x50,0x84,0x24,0x00,0x24,0x48,0x12,0x42,0x80,0x24,
 0x41,0x40,0x00,0x12,0x12,0x00,0x04,0x40,0x10,0x80,0x20,0x08,0xaa,0x10,0x01,
 0x00,0x10,0x00,0x00,0x00,0x00,0x08,0x40,0x00,0x84,0x00,0x0a,0x41,0x0a,0x82,
 0xa0,0x00,0x42,0x24,0x82,0x04,0x25,0x04,0x04,0x09,0x80,0x00,0x00,0x00,0x10,
 0x00,0x10,0x40,0x20,0x08,0x90,0x10,0x00,0x10,0x20,0x80,0x40,0x20,0x00,0x00,
 0x00,0x04,0x21,0x00,0x48,0x85,0x04,0x89,0x22,0x45,0x42,0x89,0x80,0x00,0x04,
 0x10,0x00,0x00,0x00,0x48,0x20,0x00,0x01,0x02,0x20,0x40,0x00,0x40,0x10,0x10,
 0x20,0x04,0x88,0x10,0x02,0x09,0x04,0x01,0x00,0x00,0x04,0x04,0x28,0x82,0x0a,
 0x55,0x0a,0x49,0x45,0x05,0x10,0x21,0x80,0x00,0x20,0x00,0x48,0x80,0x04,0x40,
 0x00,0x81,0x20,0x40,0x00,0x00,0x02,0x10,0x00,0x42,0x00,0x04,0x20,0x82,0x10,
 0x00,0x10,0x00,0x01,0x00};
