#define noname_width 175
#define noname_height 265
static char noname_bits[] = {
 0xaa,0x92,0x92,0x52,0x95,0xaa,0x4a,0x29,0xa9,0x2a,0x49,0xaa,0x4a,0xa5,0x24,
 0x49,0x4a,0x52,0xaa,0x24,0x15,0x49,0x4a,0xa9,0x54,0x55,0xa9,0x92,0x54,0x4a,
 0x95,0x48,0xa5,0x92,0xa4,0x28,0xa9,0x54,0x25,0x95,0x22,0x52,0xa2,0x12,0x55,
 0x56,0x55,0xaa,0x52,0x55,0x55,0x55,0xa5,0xaa,0x2a,0xa5,0x2a,0x55,0x25,0xa5,
 0x54,0x52,0x4a,0xa5,0x94,0x54,0xee,0xb7,0xdb,0x55,0xbd,0x6a,0x55,0x55,0x55,
 0x55,0x55,0x55,0xa9,0x92,0x54,0x55,0x4a,0x29,0xa9,0x28,0x4a,0x25,0xbb,0xda,
 0xb6,0xbe,0x6b,0x5b,0xab,0xb5,0xaa,0xaa,0xaa,0xaa,0x4a,0x55,0x55,0x49,0xa9,
 0x52,0x95,0xca,0x92,0x14,0xff,0xff,0xff,0xff,0xff,0xff,0xff,0xff,0xff,0xff,
 0xff,0xff,0xff,0xbf,0xb7,0xbe,0xae,0x56,0x55,0x35,0xaa,0x4a,0xff,0xff,0xff,
 0xff,0xff,0xff,0xff,0xff,0xff,0x6f,0x6b,0x5b,0xab,0xea,0xda,0xd5,0xb5,0xad,
 0xaa,0xca,0xaa,0x2a,0xef,0xff,0xff,0xff,0xff,0xff,0xff,0xff,0xff,0xff,0xff,
 0xff,0xff,0xff,0xff,0xff,0xff,0xff,0xff,0xff,0xff,0x7f,0xff,0xff,0xfe,0x7d,
 0xff,0xff,0xff,0xdf,0xff,0xff,0xff,0xff,0xff,0xff,0xff,0xff,0xff,0xff,0xff,
 0xff,0xff,0x7f,0xff,0xdd,0xdf,0xff,0xdf,0xff,0xff,0xfe,0xfb,0xff,0xff,0xff,
 0xff,0xff,0xbf,0x7f,0xff,0xfb,0xff,0xfb,0xff,0x7b,0xfb,0xff,0xff,0xff,0xff,
 0xf7,0xfe,0xff,0xbf,0xff,0xff,0xff,0xff,0xef,0xfb,0xef,0x77,0xff,0x77,0xbf,
 0xdf,0x7f,0x7f,0xff,0xfb,0xff,0xff,0xff,0xff,0xff,0xff,0xfb,0xff,0xff,0xff,
 0x7f,0xff,0xfd,0xff,0xdf,0xfe,0xff,0xfb,0x7f,0xff,0xff,0xff,0xf7,0xff,0xfe,
 0xff,0xef,0xff,0x7f,0xdf,0xef,0xbf,0xff,0xff,0xff,0xff,0xff,0xff,0xff,0xff,
 0x7f,0xff,0xef,0xff,0xfe,0xab,0xef,0xdf,0xff,0xff,0xff,0xff,0xfd,0xff,0xfb,
 0xff,0xff,0xfd,0xff,0xff,0xf7,0xff,0x6e,0xf7,0xfd,0xdf,0x7f,0xff,0xfa,0xff,
 0xff,0xfd,0xff,0xff,0xff,0xfe,0xff,0xdf,0xdf,0xdf,0xfd,0xf7,0xff,0xff,0x7f,
 0xdf,0xff,0xfd,0xbf,0xaa,0xaf,0xfe,0xff,0xff,0xff,0xff,0xff,0xff,0xff,0xff,
 0xff,0xff,0x7f,0xbf,0x7f,0xef,0x7f,0xff,0xbf,0xff,0xff,0x7f,0xfb,0xff,0xff,
 0xdf,0xdf,0xff,0xff,0xff,0xdf,0xff,0xfe,0xfb,0xf7,0xff,0xff,0xff,0x7f,0xff,
 0xff,0xff,0x5f,0xd5,0x6e,0xeb,0xfb,0xff,0xfb,0xef,0xff,0x7f,0xff,0xef,0x77,
 0xff,0xff,0xff,0xff,0xfd,0x7f,0x7f,0xff,0xff,0xfb,0x7f,0xfb,0xfd,0xbf,0xff,
 0xff,0xff,0xfb,0xf7,0xff,0xfd,0xff,0xff,0xff,0xff,0xfd,0xbf,0x7f,0xfb,0xf7,
 0xff,0x57,0xd5,0x5f,0xdf,0xff,0xff,0xff,0xfe,0x7f,0xff,0xfb,0xff,0xff,0xff,
 0xfe,0xdb,0xdf,0xff,0x7f,0xff,0xff,0xff,0xff,0x7f,0xf5,0xff,0xff,0xff,0xff,
 0xff,0xff,0xff,0xff,0xff,0xff,0xef,0xbf,0xff,0xff,0xff,0x7b,0xff,0xff,0xbd,
 0xab,0xed,0xbf,0x77,0xff,0xf7,0xfe,0xbf,0xff,0xff,0xbf,0xff,0xee,0xff,0xff,
 0xff,0xff,0xff,0x7f,0xdf,0xdf,0xff,0xfd,0xbe,0xf7,0xfe,0xff,0xff,0xef,0xff,
 0xff,0xff,0xff,0xff,0x7f,0xff,0xff,0xff,0xbf,0xf7,0x7f,0xff,0xfd,0xff,0xbf,
 0xeb,0xfd,0xa9,0xff,0xff,0xff,0xff,0xfb,0x7e,0xff,0xef,0xff,0xff,0xff,0xff,
 0xfb,0x7f,0x7f,0xff,0xff,0xff,0xed,0x5f,0xff,0xeb,0xfd,0xff,0xff,0xff,0xff,
 0xff,0xff,0xfd,0xff,0xdf,0xfd,0xff,0xff,0xff,0x7b,0xff,0xff,0x7f,0xff,0xaa,
 0xaf,0xd4,0x7f,0xff,0xff,0xff,0xff,0xf7,0xdf,0xff,0xff,0xff,0xef,0xee,0xff,
 0xff,0x7f,0xdf,0xff,0xfb,0x6d,0xf7,0xfa,0xe9,0xff,0xff,0xff,0xfd,0xff,0xff,
 0xfb,0xff,0xff,0xf7,0xff,0xff,0xee,0xfe,0x7f,0xff,0xbf,0xff,0xff,0x55,0x2f,
 0xb5,0xff,0xff,0xff,0xff,0xff,0xff,0xff,0xff,0xfd,0xfe,0xff,0xff,0xff,0xff,
 0x7f,0xff,0xff,0x7f,0xdb,0xfa,0xda,0xea,0xff,0xff,0xff,0xff,0xef,0xff,0xff,
 0xfd,0xff,0xff,0xff,0xff,0xff,0xef,0x7f,0xf7,0xfb,0xff,0x7f,0xab,0x25,0xa9,
 0xff,0xdf,0xef,0xef,0xfe,0xff,0xff,0xbf,0xff,0xff,0xff,0xfe,0xff,0xff,0x77,
 0xff,0xff,0xdf,0xed,0x7a,0x5b,0xf5,0xff,0xff,0xff,0xff,0xff,0xff,0xff,0xff,
 0xdf,0x7f,0xdf,0xef,0x7b,0xff,0x7e,0x7f,0xff,0xfd,0xff,0xad,0x24,0xbb,0xff,
 0xff,0xff,0xff,0x7f,0xbf,0xfd,0xff,0xff,0xff,0xff,0xff,0xff,0xff,0x7f,0xff,
 0xff,0xff,0xb6,0xba,0xaa,0xd6,0xff,0xff,0xff,0xff,0xff,0xff,0xdf,0xff,0xff,
 0xfb,0xfb,0x7f,0xff,0xff,0x7f,0xff,0xff,0xff,0x5f,0xb5,0x56,0xfd,0xfb,0xff,
 0xfb,0xff,0xff,0xfb,0xff,0xfe,0xfb,0xff,0xff,0xff,0xff,0xdf,0x7f,0xff,0xdf,
 0xff,0x6d,0x5d,0x55,0xff,0xbf,0xff,0xbf,0xff,0xfd,0xff,0xff,0xff,0xff,0xbf,
 0xff,0xfd,0xdf,0xfb,0x7f,0xdf,0xfb,0xff,0x17,0xea,0xed,0xda,0xff,0xdf,0xff,
 0xef,0xff,0xff,0xff,0xdf,0x7f,0xff,0xdf,0xff,0xff,0xff,0x7d,0xff,0xff,0xf7,
 0xab,0x34,0xb5,0xff,0xff,0xff,0xff,0xff,0xff,0xef,0xfd,0xff,0xff,0xef,0xff,
 0xff,0xfe,0xff,0x7f,0xfb,0xff,0xff,0x06,0xff,0xdf,0xea,0xff,0xff,0xff,0xff,
 0x7f,0xff,0xff,0xff,0xfd,0xff,0xff,0xff,0xff,0xff,0x7f,0xff,0xff,0xff,0xab,
 0xf6,0xbe,0xfd,0xff,0xff,0xff,0xff,0xef,0xff,0xff,0xfd,0xff,0xff,0xff,0xff,
 0x77,0xff,0x7f,0xff,0xff,0xff,0xe7,0xbf,0xf7,0x56,0xff,0xfb,0xf7,0xf7,0xfe,
 0xff,0xef,0xff,0xef,0xfd,0xdd,0xdb,0xff,0xbf,0x77,0xff,0xff,0xff,0xd9,0xfe,
 0xbf,0xdb,0xff,0xff,0x7f,0xff,0xff,0xff,0xff,0xff,0xff,0xff,0xff,0xff,0xff,
 0xff,0x7f,0x5b,0xad,0xdd,0xf3,0xaf,0xfb,0xfe,0xff,0xff,0xff,0xff,0xff,0xff,
 0xff,0xff,0xff,0xff,0xff,0xff,0xff,0xf7,0x7f,0xff,0xff,0xff,0xec,0xfd,0xff,
 0xed,0xff,0xff,0xff,0xff,0xff,0xfb,0xfe,0xbf,0xff,0xbf,0xff,0xff,0xfe,0xff,
 0x7f,0x49,0x52,0x92,0xfa,0xff,0xbd,0xbf,0xaa,0xaa,0x5a,0xdb,0x76,0xbf,0xdf,
 0xf6,0x7f,0xff,0xff,0xff,0xff,0xff,0x7f,0xb6,0xad,0x6d,0xff,0x77,0xef,0xab,
 0xb5,0xff,0xf7,0xef,0xff,0xfb,0xfd,0xff,0xfd,0xfb,0xff,0xff,0xff,0xff,0x7f,
 0xaa,0xaa,0xaa,0xfd,0xfe,0xff,0xbf,0x56,0x89,0x54,0x51,0x4a,0x95,0x8a,0x94,
 0x8a,0xaa,0x04,0x48,0x25,0x29,0x55,0x55,0x55,0xb5,0xff,0xdf,0xbf,0x55,0xb5,
 0x76,0x5b,0xdf,0xb5,0x6e,0x7b,0x6b,0x75,0x55,0xfb,0xb7,0xde,0xf6,0x36,0xaa,
 0x6a,0xf5,0xdf,0xff,0xfb,0xaf,0xd5,0xaa,0xaa,0xaa,0xda,0xaa,0x4a,0x55,0xab,
 0xda,0xaa,0xaa,0x52,0x15,0x55,0x55,0x55,0xdd,0xff,0xfe,0xff,0x56,0x55,0x55,
 0xb5,0x55,0x55,0xd5,0xb6,0xad,0xaa,0x55,0x55,0xd5,0xb6,0xed,0x2a,0xaa,0x56,
 0xff,0xfd,0xd7,0xdf,0xbf,0xaa,0x6a,0xab,0x5a,0x6d,0xb5,0xaa,0x6a,0xad,0xaa,
 0xaa,0x5a,0x55,0x55,0x55,0xb5,0xaa,0xfd,0xef,0xff,0xff,0x57,0xad,0x55,0x55,
 0xd5,0xaa,0x55,0x55,0x55,0x55,0x6d,0xad,0x55,0x55,0x55,0x2b,0x4a,0xd5,0xef,
 0xff,0xfd,0xfb,0xbd,0x52,0xaa,0xaa,0xaa,0xaa,0xaa,0x6a,0x55,0x55,0x55,0xb5,
 0xaa,0xaa,0xaa,0x54,0xb5,0xaa,0xff,0xde,0x7f,0xff,0x6f,0xd5,0xaa,0xaa,0xaa,
 0xaa,0x6a,0xab,0x5a,0x55,0xab,0x55,0x55,0x55,0x55,0x2b,0x4a,0xd5,0xff,0x7b,
 0xef,0x7f,0xff,0x2a,0x55,0x55,0x55,0x55,0x95,0xaa,0xaa,0xaa,0xaa,0xaa,0x6a,
 0xd5,0x5a,0x55,0xb5,0x6a,0xff,0xff,0xff,0xdb,0xff,0xaa,0xaa,0xaa,0xaa,0xaa,
 0x5a,0x55,0x55,0x55,0x55,0x55,0x55,0x55,0x55,0x55,0x4a,0xd5,0xff,0xff,0x7e,
 0xff,0xff,0x57,0x55,0x55,0x55,0x55,0xad,0xaa,0xaa,0xaa,0xaa,0xaa,0xaa,0xaa,
 0xaa,0x2a,0x55,0xb5,0xdf,0xb6,0xff,0xff,0xfb,0x55,0x55,0x55,0x55,0x55,0x55,
 0x55,0x55,0x55,0x55,0x55,0x55,0x55,0x55,0x55,0xaa,0xea,0xff,0xff,0xdf,0xfb,
 0xff,0xaf,0xaa,0xaa,0xaa,0xaa,0xaa,0xaa,0xaa,0xaa,0x55,0x55,0xad,0xaa,0xaa,
 0x2a,0xaa,0xd4,0xff,0xff,0xff,0xbf,0xbf,0xab,0xaa,0x5a,0x55,0x55,0x55,0x55,
 0xb5,0x56,0x55,0xad,0xaa,0xaa,0xaa,0x6a,0x49,0xea,0xff,0x5f,0xfb,0xfe,0xff,
 0x1f,0x50,0xa5,0xaa,0xaa,0xaa,0xaa,0x4a,0xfb,0xbf,0xaa,0xaa,0xaa,0xaa,0x2a,
 0xaa,0xd2,0xff,0xf6,0xff,0xf7,0xff,0x17,0xad,0xaa,0xaa,0xaa,0xaa,0xaa,0xaa,
 0x6a,0x55,0x55,0x55,0x55,0x55,0x55,0xa5,0xaa,0xff,0xff,0xbf,0xff,0xdb,0x7e,
 0x00,0x91,0x24,0x55,0x52,0x2a,0x55,0xff,0xff,0x22,0x89,0x52,0x92,0x24,0x2a,
 0xd5,0xff,0xff,0xff,0xfd,0xff,0x3f,0x5a,0x55,0x55,0x49,0xa5,0x52,0xe9,0xfe,
 0xbf,0xaa,0x52,0x4a,0xa5,0x4a,0x95,0xd2,0xbf,0xfb,0xff,0xff,0xff,0xff,0xa4,
 0xa4,0x24,0xa5,0x94,0x4a,0xb6,0xbf,0xff,0x45,0x54,0x25,0x29,0x29,0xa4,0xd4,
 0xff,0xef,0x6d,0xff,0xff,0x7f,0x49,0x95,0x4a,0x55,0x55,0xaa,0xda,0xfb,0xff,
 0xa9,0x8a,0xa8,0xaa,0x24,0xaa,0x6a,0xff,0x00,0xf0,0xff,0xff,0xfe,0x97,0x48,
 0x52,0x29,0xa9,0x52,0xff,0xff,0xf7,0x4b,0x52,0x4a,0x44,0x2a,0x95,0xd4,0xff,
 0x15,0xf4,0xff,0xff,0xff,0x28,0x55,0x95,0x52,0x92,0x54,0xfb,0xdf,0xff,0x93,
 0xa4,0xa4,0xaa,0x24,0xa9,0xf2,0x7f,0x00,0x40,0xff,0xdf,0xef,0x47,0x92,0xa4,
 0x94,0x4a,0xea,0xff,0xff,0x7f,0x4f,0x12,0x2a,0x49,0x12,0x52,0xd5,0x7f,0xa1,
 0x80,0xff,0xff,0xfd,0x55,0x25,0x29,0xa5,0x54,0xe9,0xff,0xff,0xfd,0x2b,0xa5,
 0x44,0x92,0x2a,0x2a,0xea,0xff,0x09,0x0a,0xd0,0xff,0xff,0x97,0x54,0x95,0x94,
 0x52,0xfa,0xbb,0xfb,0xff,0x3f,0x51,0x29,0x49,0x49,0xca,0xb4,0x3f,0x04,0x00,
 0xf0,0xff,0xff,0x57,0xa5,0xaa,0x2a,0xa5,0xee,0xff,0xff,0x6f,0x87,0x84,0x52,
 0x2a,0x15,0x25,0xe5,0xff,0xa2,0xaa,0x00,0xfd,0xbf,0x7f,0x28,0x91,0xa4,0x54,
 0x7d,0xff,0x7f,0xff,0x3f,0x55,0x89,0x92,0x44,0xaa,0xea,0xbf,0x14,0x49,0xa2,
 0xff,0xff,0x2f,0x55,0xa6,0x4a,0xa5,0xff,0xf7,0xff,0xff,0x5f,0x28,0x2a,0x29,
 0x29,0x52,0xd2,0x7d,0xaa,0x2a,0x15,0xe0,0xff,0xff,0x85,0x91,0xa4,0xd2,0xfe,
 0x7f,0xef,0xbb,0x3d,0x45,0x49,0x4a,0x25,0x4a,0xf5,0x5f,0x49,0x52,0x49,0xfa,
 0xff,0xff,0x59,0x2a,0x29,0xe9,0xef,0xff,0xff,0xff,0xbf,0x94,0x94,0x24,0x15,
 0xa9,0xd4,0xff,0xb6,0xaa,0x2a,0x00,0xfd,0xff,0x0f,0x40,0x55,0xfa,0xff,0xfd,
 0xff,0xff,0xf7,0x20,0x42,0x92,0x20,0x4a,0xf5,0xbf,0xaa,0xaa,0xaa,0x00,0xfe,
 0xff,0x27,0x54,0x92,0xea,0xff,0xff,0xbf,0x7f,0xbf,0x4a,0x55,0x25,0x4b,0x25,
 0xa9,0xff,0xaa,0x55,0x55,0x0b,0x00,0xfa,0x01,0x00,0xa9,0xfe,0xfd,0xef,0xfb,
 0xef,0x7f,0x91,0x20,0x91,0x28,0x54,0xf2,0xff,0xaa,0xaa,0xaa,0x24,0x40,0xff,
 0x01,0xa8,0x92,0xfa,0xbf,0xff,0xff,0xff,0xff,0x54,0x96,0xaa,0x12,0x22,0x89,
 0xff,0x57,0xb5,0x55,0x55,0x11,0x00,0xa0,0xbf,0xca,0xff,0xff,0xff,0xff,0xff,
 0xf7,0x03,0x25,0x49,0x4a,0x94,0xf2,0xff,0x2f,0x55,0xad,0x2a,0x42,0x00,0x54,
 0x52,0xa9,0xff,0xff,0xff,0xff,0xbb,0xff,0x55,0x48,0x92,0x14,0x42,0x84,0xfb,
 0xff,0xa2,0xaa,0xaa,0xad,0x2a,0x49,0x29,0xf2,0xff,0xf7,0xff,0xfd,0xff,0xbe,
 0x03,0x92,0x24,0x21,0x14,0xd1,0xff,0x7f,0x55,0x55,0x55,0x92,0x92,0x52,0x4a,
 0xf4,0x7f,0xff,0xfd,0xff,0xff,0xf7,0x53,0x41,0x82,0x44,0x81,0xa4,0xff,0xff,
 0x2f,0xa9,0xaa,0x6b,0x6d,0x55,0xbb,0xff,0xff,0xff,0xdf,0xdf,0xff,0xff,0x07,
 0x10,0x28,0x10,0x54,0x52,0x7f,0xff,0xab,0x52,0x55,0xaa,0xaa,0xaa,0x6a,0xff,
 0xee,0xbf,0xff,0xff,0xed,0xff,0x83,0x04,0x81,0x04,0x09,0x84,0xff,0xff,0xff,
 0xaf,0x52,0x55,0x55,0x55,0x95,0xff,0xff,0xfb,0xff,0xff,0xff,0xbb,0x2f,0x40,
 0x20,0x20,0xa4,0x90,0xff,0xff,0x7f,0x55,0x55,0x55,0xbb,0x6d,0xeb,0xf7,0xff,
 0xff,0xff,0xfd,0xff,0xff,0x87,0x0a,0x85,0x02,0x41,0x4a,0xfe,0xff,0xff,0xff,
 0x7f,0xab,0x4a,0xb5,0xfd,0xff,0xfe,0xff,0xfb,0xff,0x7f,0xff,0x3f,0x40,0x10,
 0x28,0x14,0x91,0xff,0xbf,0xff,0xff,0xef,0x56,0xb5,0xaa,0xd6,0xff,0xdf,0xff,
 0xff,0xff,0xff,0xef,0x0f,0x11,0x40,0x02,0x42,0x24,0xfc,0xff,0xff,0xff,0xff,
 0xff,0xdf,0xaa,0xaa,0xfe,0xff,0xff,0xff,0xdf,0xfd,0xff,0x3e,0x80,0x14,0x10,
 0x94,0x42,0xff,0xff,0xff,0xff,0xff,0xff,0xbf,0x56,0xd5,0xef,0xff,0xfd,0xff,
 0xf7,0xff,0xff,0x0f,0x09,0x40,0x41,0x21,0x28,0xfd,0xff,0xff,0xff,0xff,0xff,
 0xff,0xff,0xff,0xff,0xfb,0xbf,0xff,0x86,0xff,0xff,0x3f,0xa0,0x04,0x08,0x44,
 0x91,0xfe,0xff,0xff,0xff,0xdf,0xff,0xfb,0xab,0xea,0x7f,0xff,0xff,0xef,0xf3,
 0x7f,0xff,0x8f,0x04,0x90,0x24,0x12,0x0a,0xfa,0xfe,0xbf,0xff,0xff,0xbf,0xff,
 0xff,0x7f,0xf7,0x7f,0xff,0xff,0x01,0xff,0xff,0x3f,0x00,0x05,0x00,0xa4,0x50,
 0xfd,0xff,0xff,0xff,0xff,0xfb,0xff,0xff,0xff,0xff,0xff,0xf7,0xff,0xa1,0xff,
 0x77,0x1f,0x12,0x90,0x12,0x09,0x0a,0xfa,0xff,0xff,0xbf,0xff,0xff,0xff,0xff,
 0xff,0xdf,0xff,0xff,0xfd,0x88,0xfe,0xff,0x7f,0x40,0x02,0x00,0x50,0x51,0xfa,
 0x7f,0xff,0xff,0xff,0xff,0xff,0xff,0xff,0xff,0xfe,0xff,0x7f,0x41,0xff,0xff,
 0x3f,0x00,0x48,0x4a,0x05,0x84,0xe8,0xff,0xff,0xff,0xff,0xff,0x7d,0xff,0xff,
 0xfd,0xb7,0xff,0x7f,0x08,0xfd,0xff,0x5f,0x24,0x01,0x00,0xa8,0x28,0xf2,0xff,
 0xff,0xff,0xff,0xff,0xff,0xff,0xff,0xff,0xff,0xff,0x3f,0xa2,0xfe,0xff,0x3f,
 0x00,0x94,0x24,0x02,0x85,0xc4,0xff,0xff,0xff,0xff,0xff,0xff,0xfb,0xff,0xff,
 0xff,0x77,0x1f,0x00,0xfc,0xff,0x7d,0x48,0x01,0x00,0x54,0x50,0xd2,0xff,0xff,
 0xff,0xf7,0xff,0xff,0xff,0xde,0xdf,0xff,0xfe,0x2f,0x88,0xfe,0xff,0x3f,0x02,
 0x48,0x09,0x11,0x8a,0x08,0xfa,0xff,0xfe,0x7f,0xff,0xff,0xff,0xff,0xff,0xf7,
 0xff,0x0f,0x22,0xf0,0xff,0xff,0x20,0x02,0x20,0xa4,0x10,0x51,0xfd,0xff,0xff,
 0xff,0xef,0xff,0xff,0xff,0xff,0xfe,0xff,0x83,0x80,0xfe,0xff,0x3f,0x84,0x28,
 0x01,0x09,0x4a,0x0a,0xf5,0xff,0xbf,0xff,0xff,0xbb,0xff,0xff,0xff,0xbf,0xff,
 0x25,0x28,0xf0,0xff,0xfb,0x10,0x00,0x14,0x50,0x91,0x50,0xfa,0xff,0xff,0xff,
 0xff,0xff,0xff,0xff,0xfb,0xff,0xff,0x03,0x81,0xfa,0xff,0x7f,0x44,0x22,0x40,
 0x0a,0x24,0x0a,0xd4,0xff,0xff,0xff,0xff,0xff,0xff,0xbf,0xbf,0xff,0xef,0x00,
 0x20,0xf4,0x7f,0xbf,0x00,0x08,0x09,0x50,0x91,0x50,0xe9,0xff,0xff,0xff,0xfd,
 0xff,0xef,0xff,0xff,0xff,0xff,0x28,0x05,0xf8,0xff,0x7f,0x24,0x41,0x20,0x05,
 0x24,0x04,0x42,0xff,0xff,0xff,0xff,0xff,0xff,0xff,0xff,0xff,0xbe,0x00,0x90,
 0xe2,0xf7,0x3f,0x00,0x08,0x04,0xa8,0x42,0xa9,0xa8,0xff,0xff,0xff,0xff,0xff,
 0xff,0xfd,0xff,0xfb,0x7f,0x91,0x08,0xf4,0xff,0x3f,0x49,0x42,0x10,0x44,0x10,
 0x02,0x92,0xaa,0xff,0xff,0xdf,0xf7,0xfd,0xff,0xff,0xff,0x3f,0x04,0x42,0xa1,
 0xff,0x5f,0x02,0x10,0x02,0x12,0xa5,0xa8,0x48,0xd5,0xf7,0xfd,0xff,0xff,0xff,
 0xff,0xbb,0xff,0x1f,0x20,0x10,0xd4,0x7f,0x3f,0x50,0x82,0x48,0x40,0x11,0x04,
 0x02,0x40,0xff,0xff,0xff,0xff,0xff,0xdf,0xff,0xdf,0x07,0x89,0x04,0xc1,0xff,
 0x5f,0x00,0x20,0x02,0x0a,0x4a,0x51,0xa9,0xaa,0xff,0xff,0xff,0xff,0xff,0xff,
 0xff,0xff,0x8f,0x00,0x50,0xd4,0xff,0x3f,0x4a,0x05,0x08,0xa1,0x10,0x14,0x12,
 0xa2,0xff,0xff,0xfe,0xdf,0x7f,0xff,0xff,0xff,0x01,0x48,0x04,0x40,0xff,0x15,
 0x00,0x20,0x21,0x14,0x45,0xa1,0x48,0xc9,0xff,0xff,0xff,0xff,0xff,0xff,0xef,
 0xfe,0x22,0x02,0x21,0xd5,0xef,0x57,0x29,0x12,0x04,0x42,0x50,0x08,0x22,0x10,
 0xff,0xff,0xff,0xff,0xfb,0x7b,0xff,0x7f,0x80,0x40,0x88,0x00,0x5a,0x0a,0x80,
 0x40,0x21,0x94,0x82,0xa2,0x48,0xc5,0xff,0xff,0xff,0xff,0xff,0xff,0xff,0x3f,
 0x08,0x2a,0x21,0xd2,0xfd,0x55,0x12,0x02,0x04,0x21,0x28,0x10,0x12,0x20,0xfc,
 0xff,0xff,0xff,0xdf,0xff,0xff,0x2f,0x41,0x00,0x08,0x04,0x54,0x92,0x40,0x28,
 0x11,0x84,0x42,0x45,0x49,0x95,0xff,0xff,0xff,0xff,0xff,0xff,0xff,0x1f,0x00,
 0x91,0x24,0x91,0x5a,0x15,0x0a,0x81,0x40,0x51,0x28,0x20,0x20,0x22,0xf8,0xd1,
 0xff,0x7f,0xff,0xdf,0xbd,0x8f,0x54,0x04,0x01,0x20,0xd4,0xaa,0x40,0x10,0x14,
 0x84,0x42,0x95,0x4a,0x44,0xff,0xf1,0xff,0xff,0xff,0xfd,0xff,0x0d,0x00,0x11,
 0xa4,0x82,0xb8,0x12,0x09,0x45,0x00,0x22,0x94,0x40,0x10,0x29,0x00,0xc8,0xff,
 0xff,0xff,0xff,0xff,0x17,0x42,0x80,0x00,0x10,0x44,0x49,0x20,0x00,0x24,0x94,
 0x20,0x95,0xa2,0x90,0x54,0xe5,0xff,0xff,0xf7,0xff,0xff,0x8f,0x08,0x09,0x2a,
 0x49,0xb9,0x92,0x82,0x94,0x00,0x41,0x4a,0x20,0x08,0x05,0x02,0xd0,0xff,0xff,
 0xff,0xff,0xff,0x07,0x40,0xa0,0x00,0x00,0x22,0x49,0x28,0x40,0x14,0x2a,0x11,
 0x45,0x25,0x54,0xa9,0xa2,0xff,0xff,0xff,0xff,0xfe,0x27,0x05,0x05,0x52,0x15,
 0xa8,0x24,0x81,0x02,0x41,0x00,0x88,0x28,0x88,0x22,0x44,0x48,0xff,0xff,0xbf,
 0xff,0xef,0x07,0x50,0x80,0x00,0x80,0x12,0x92,0x24,0x50,0x08,0xaa,0x22,0x81,
 0x22,0x94,0x28,0xa5,0xff,0xff,0xff,0xfb,0xff,0x4b,0x00,0x29,0x4a,0x2a,0x48,
 0x24,0x11,0x09,0x21,0x01,0x48,0x2a,0x91,0x22,0x82,0x08,0xfd,0xff,0xff,0xff,
 0xff,0x07,0x24,0x00,0x10,0x40,0x12,0xa9,0x44,0x40,0x04,0x54,0x25,0x90,0x24,
 0x44,0x29,0x51,0xff,0xff,0xff,0xbf,0xff,0x8b,0x80,0x44,0x41,0x11,0x21,0x52,
 0x01,0x05,0x10,0x02,0x08,0x25,0x48,0x11,0x44,0x04,0xfa,0xff,0xff,0xff,0xff,
 0x23,0x24,0x10,0x10,0x04,0x88,0x24,0x50,0x20,0x05,0x54,0xa1,0x90,0x12,0x4a,
 0x89,0x52,0xfd,0xff,0xff,0xff,0xff,0x83,0x90,0x42,0x42,0x50,0x25,0xa8,0x04,
 0x89,0x10,0x21,0x14,0x44,0x44,0x21,0x22,0x08,0xf4,0xfb,0xff,0xff,0xff,0x15,
 0x02,0x08,0x10,0x05,0x12,0x00,0x40,0x02,0x00,0x44,0xa1,0x92,0x08,0x8a,0x94,
 0xa2,0xfe,0xff,0xff,0xfb,0xff,0x03,0x88,0xa0,0x42,0x90,0x44,0x55,0x10,0x28,
 0x15,0x12,0x14,0x20,0x52,0x21,0x41,0x10,0xa0,0xff,0xff,0xff,0xff,0x47,0x21,
 0x08,0x10,0x04,0x35,0x02,0x00,0x41,0x00,0xa4,0x42,0x45,0x89,0x94,0x94,0x4a,
 0xf5,0xff,0xfd,0xff,0xff,0x01,0x84,0x22,0x45,0x51,0x4a,0x29,0x41,0x04,0x29,
 0x11,0x28,0x12,0x22,0x22,0x22,0x84,0x00,0xff,0xff,0xff,0xf7,0x47,0x20,0x00,
 0x10,0x04,0xea,0x4a,0x08,0x20,0x00,0xa4,0x42,0xa4,0x94,0x88,0x44,0x51,0xaa,
 0xff,0xff,0xff,0xff,0x11,0x09,0x55,0x42,0x50,0xaa,0x2a,0x20,0x89,0x24,0x09,
 0x10,0x11,0x22,0x25,0x29,0x08,0x80,0xfe,0xff,0xff,0xff,0x07,0x00,0x00,0x08,
 0x85,0xa8,0x4a,0x55,0x00,0x02,0x50,0xa5,0xa4,0x44,0x88,0x40,0xa5,0x2a,0xff,
 0xff,0xff,0xff,0x21,0x29,0x49,0x22,0x10,0x55,0x95,0x04,0x49,0x08,0x0a,0x12,
 0x09,0x29,0x22,0x2a,0x10,0x04,0xfd,0xff,0xff,0xff,0x07,0x40,0x00,0x80,0x04,
 0x00,0x42,0xb5,0x00,0x21,0x50,0x49,0xa4,0x40,0x49,0x41,0x45,0x51,0xfd,0xff,
 0xff,0xff,0x51,0x02,0xa5,0x14,0x52,0xaa,0x94,0x4a,0x22,0x04,0x05,0x00,0x11,
 0x2a,0x24,0x28,0x90,0x88,0xfe,0xff,0xfb,0xff,0x83,0x28,0x00,0x81,0x80,0x00,
 0xa0,0xaa,0x08,0x00,0xa8,0xaa,0x44,0x91,0x92,0x92,0x22,0x22,0xff,0xff,0xff,
 0xff,0x11,0x82,0x4a,0x48,0x24,0xaa,0x12,0x15,0x21,0x15,0x45,0x04,0x28,0x44,
 0x44,0x24,0x88,0x94,0xfc,0xff,0xff,0x7e,0x03,0x20,0x00,0x10,0x01,0x00,0x80,
 0xea,0x4a,0x20,0x10,0x51,0x41,0x29,0x89,0x40,0x25,0x41,0xfe,0xff,0xff,0xff,
 0x51,0x82,0x94,0x02,0x54,0x49,0x55,0x95,0x12,0x00,0x8a,0x24,0x14,0x02,0x22,
 0x15,0x48,0x14,0xf9,0xff,0xff,0xff,0x03,0x10,0x00,0x48,0x01,0x02,0x00,0xea,
 0x0d,0x12,0x50,0x92,0x52,0x54,0x49,0xa0,0x22,0x21,0xfe,0xff,0xff,0xff,0x41,
 0x42,0x52,0x02,0x24,0x28,0xa9,0x5a,0xa5,0x00,0x8a,0x88,0x88,0x22,0x12,0x15,
 0x48,0x88,0xe8,0xff,0xff,0xff,0x13,0x10,0x00,0x20,0x41,0x02,0x00,0xea,0x0b,
 0x24,0x20,0x52,0x22,0x94,0x48,0x44,0x21,0x25,0xfa,0xff,0xff,0xff,0x41,0x42,
 0xa9,0x8a,0x04,0x51,0xa5,0x5c,0x4d,0x00,0x95,0x84,0x94,0x42,0x84,0x22,0x8a,
 0x08,0xf1,0xff,0xff,0xff,0x13,0x10,0x00,0x10,0x20,0x04,0x00,0xa2,0x17,0x12,
 0x40,0x12,0x21,0x94,0x52,0x94,0x10,0x51,0xfa,0xff,0xff,0xff,0x41,0x4a,0x49,
 0x40,0x8a,0x10,0xa9,0xdc,0x8a,0x40,0x95,0x48,0x94,0x22,0x08,0x21,0x4a,0x0a,
 0xf8,0xff,0xff,0xff,0x07,0x00,0x02,0x95,0x20,0x42,0x02,0x51,0x07,0x08,0x24,
 0x92,0x48,0x94,0x52,0x4a,0x11,0x51,0xfd,0xff,0xff,0xff,0x91,0x24,0x28,0x00,
 0x02,0x08,0x08,0xe4,0x92,0x20,0x08,0x21,0x85,0x42,0x84,0x10,0x44,0x84,0xe0,
 0xff,0xff,0xff,0x21,0x00,0x02,0x49,0x90,0x42,0xa2,0x28,0x25,0x08,0xa2,0x44,
 0x12,0x94,0x28,0x42,0x89,0x28,0xfa,0xff,0xff,0xdf,0x03,0x49,0x48,0x04,0x09,
 0x08,0x01,0xa2,0x89,0x02,0x10,0x92,0x48,0x21,0x05,0x29,0x52,0x82,0xc0,0xff,
 0xff,0xff,0x11,0x00,0x11,0x40,0x40,0x42,0x90,0x48,0x02,0x20,0x4a,0x49,0x92,
 0x84,0xa8,0x44,0x08,0x29,0xfa,0xff,0xff,0xff,0x43,0x0a,0x44,0x09,0x85,0x08,
 0x05,0x20,0x29,0x02,0x41,0x90,0x24,0x29,0x12,0x22,0x45,0x04,0xa1,0xff,0x7f,
 0xff,0x03,0x40,0x01,0x40,0x20,0x22,0x40,0x0a,0x80,0x10,0x94,0x22,0x12,0xa2,
 0xa0,0x48,0x28,0x51,0xc4,0xff,0xff,0xff,0x91,0x14,0x24,0x25,0x85,0x80,0x14,
 0xa1,0x02,0x44,0x22,0x88,0x84,0x14,0x14,0x12,0x85,0x08,0xa2,0xbf,0xff,0xff,
 0x03,0x00,0x40,0x00,0x20,0x28,0x40,0x00,0x28,0x01,0x44,0x25,0x29,0xa1,0xa2,
 0xa4,0x50,0x52,0xc9,0xff,0xff,0xff,0x55,0x49,0x09,0x95,0x84,0x82,0x02,0x49,
 0x00,0x08,0x29,0x48,0x82,0x48,0x08,0x09,0x0a,0x04,0x20,0xfe,0xff,0xff,0x03,
 0x00,0x42,0x00,0x20,0x20,0x28,0x02,0x92,0x22,0x40,0x11,0x29,0x25,0xa5,0xa4,
 0x50,0x51,0xc5,0xff,0xff,0xef,0x81,0x2a,0x08,0xa9,0x92,0x84,0x80,0x28,0x01,
 0x00,0x15,0x44,0x84,0x08,0x11,0x10,0x0a,0x08,0x10,0xfe,0xff,0xff,0x27,0x00,
 0x51,0x00,0x00,0x20,0x12,0x00,0x90,0x28,0x50,0x89,0x28,0x51,0xa2,0xa2,0x50,
 0xa5,0x42,0xff,0xff,0xff,0x01,0x92,0x00,0x25,0x25,0x85,0x88,0x24,0x09,0x02,
 0x0a,0x22,0x45,0x8a,0x48,0x14,0x24,0x00,0x14,0xfd,0xff,0xff,0x87,0x00,0x54,
 0x40,0x00,0x20,0x00,0x01,0x40,0x00,0x50,0x49,0x28,0x51,0x92,0x48,0x91,0xaa,
 0x20,0xff,0xff,0xff,0x11,0x4a,0x00,0x09,0xa9,0x84,0x12,0x54,0x02,0x49,0x0a,
 0x12,0x45,0x84,0x24,0x22,0x88,0x04,0x0a,0xfa,0xff,0xff,0x43,0x00,0x4a,0x42,
 0x00,0x21,0x40,0x01,0x50,0x00,0xa4,0x48,0x28,0x29,0x92,0x44,0x25,0x52,0x51,
 0xfd,0xff,0xff,0x01,0x29,0x21,0x08,0x25,0x84,0x0a,0x44,0x09,0x09,0x41,0x22,
 0x05,0x82,0x04,0x92,0x08,0x21,0x04,0xf8,0xff,0xff,0x2b,0x42,0x08,0x42,0x08,
 0x20,0x80,0x10,0x00,0x20,0x94,0x94,0xa8,0x14,0x51,0x09,0xa5,0x94,0x50,0xfd,
 0xff,0xff,0x01,0x08,0xa1,0x08,0xa1,0x82,0x24,0x40,0x52,0x05,0x02,0x41,0x04,
 0xa1,0x24,0xa2,0x10,0x42,0x04,0xe2,0xff,0xf7,0x07,0x21,0x08,0x42,0x00,0x24,
 0x00,0x14,0x00,0x10,0x54,0x8a,0x52,0x0a,0x49,0x14,0xa5,0x14,0x51,0xfc,0xff,
 0xff,0x21,0x84,0x20,0x08,0x15,0x10,0x55,0x81,0x04,0x02,0x02,0x50,0x14,0x51,
 0x22,0x81,0x08,0x81,0x04,0xf1,0xff,0xff,0x13,0x11,0x8a,0x42,0x40,0x02,0x00,
 0x20,0xa0,0x20,0xa8,0x82,0xa2,0x44,0x89,0x2a,0x51,0x54,0x52,0xfc,0xff,0xff,
 0x44,0x44,0x20,0x08,0x01,0x48,0x20,0x89,0x04,0x02,0x4a,0x54,0x10,0x28,0x52,
 0x44,0x0a,0x02,0x08,0xfa,0xff,0xff,0x01,0x00,0x09,0x42,0x50,0x02,0x0a,0x02,
 0xa1,0x20,0x10,0x89,0xaa,0x42,0x88,0x28,0x51,0xa9,0xa2,0xfc,0xff,0xff,0x49,
 0x29,0x44,0x08,0x05,0x28,0x21,0x48,0x04,0x0a,0x45,0x42,0x04,0x29,0x45,0x04,
 0x24,0x44,0x10,0xfd,0xff,0xff,0x01,0x82,0x10,0x42,0x10,0x01,0x00,0x01,0x40,
 0x00,0x28,0x29,0xa9,0x44,0x92,0x52,0x41,0x91,0x4a,0xfe,0xff,0xff,0x10,0x08,
 0x82,0x10,0x42,0x44,0x4a,0x24,0x09,0x29,0x42,0x84,0x44,0x92,0x48,0x24,0x14,
 0x24,0x00,0xfa,0xff,0xff,0x45,0x42,0x20,0x84,0x10,0x00,0x00,0x00,0x20,0x00,
 0x94,0x28,0x29,0x49,0x22,0x91,0x48,0x91,0xaa,0xfe,0xff,0x7f,0x00,0x11,0x89,
 0x10,0x44,0x29,0x29,0x49,0x82,0x08,0x02,0x45,0x44,0x12,0x49,0x24,0x22,0x48,
 0x10,0xf4,0xff,0xfd,0x21,0x40,0x00,0x04,0x11,0x00,0x00,0x10,0x10,0x20,0x54,
 0x88,0x12,0x49,0x92,0x42,0x89,0x22,0x45,0xfd,0xff,0xff,0x84,0x04,0x55,0x52,
 0x44,0x92,0x4a,0x41,0x41,0x01,0x89,0x52,0xa4,0x90,0x24,0x10,0x24,0x09,0x22,
 0xfe,0xff,0x7f,0x10,0x50,0x00,0x00,0x80,0x00,0x00,0x08,0x10,0x10,0x24,0x84,
 0x08,0x45,0x92,0x4a,0x91,0xa4,0x88,0xfa,0xff,0x7f,0x44,0x01,0xa9,0xa4,0x12,
 0x92,0x94,0x24,0x82,0x42,0x89,0x52,0xa2,0x10,0x21,0x51,0x24,0x40,0x44,0xff,
 0xff,0x3f,0x01,0x48,0x00,0x00,0x04,0x00,0x00,0x80,0x10,0x08,0x24,0x84,0x14,
 0x25,0x8a,0x84,0x42,0x95,0x92,0xff,0xff,0x5f,0x54,0x21,0x45,0x12,0x51,0x92,
 0x90,0x08,0x42,0x20,0x41,0x51,0x42,0x49,0x21,0x29,0x14,0x22,0xc8,0xff,0xff,
 0x0f,0x00,0x08,0x10,0x44,0x80,0x00,0x04,0x42,0x08,0x02,0x14,0x25,0x29,0x12,
 0x4a,0x42,0x51,0x48,0x51,0xff,0xdf,0x4f,0x22,0x25,0x41,0x10,0x09,0x2a,0x91,
 0x10,0x21,0x08,0x49,0x88,0x88,0x48,0x91,0x28,0x84,0x12,0xea,0xff,0xff,0x07,
 0x08,0x40,0x10,0x05,0x40,0x40,0x00,0x00,0x08,0x02,0x24,0x51,0x52,0x92,0x24,
 0x92,0x12,0x49,0xf1,0xff,0xff,0x8b,0xa0,0x04,0x05,0x50,0x12,0x09,0x4a,0x4a,
 0xa0,0x10,0x41,0x0a,0x89,0x24,0x89,0x24,0x48,0x20,0xe8,0xff,0xff,0x23,0x08,
 0x20,0xa0,0x84,0x00,0x80,0x00,0x00,0x04,0x04,0x14,0x51,0x52,0x92,0x24,0x42,
 0x91,0x4a,0xf5,0xff,0xff,0x03,0x21,0x89,0x04,0x02,0x4a,0x12,0x24,0x49,0x10,
 0x10,0x45,0x24,0x89,0x08,0x49,0x91,0x24,0x11,0xf4,0xff,0xff,0x12,0x08,0x00,
 0x90,0x90,0x00,0x40,0x00,0x00,0x42,0x02,0x90,0x92,0x24,0xa5,0x24,0x4a,0x82,
 0x44,0xf9,0xff,0xff,0x41,0xa2,0x2a,0x41,0x04,0xaa,0x04,0x49,0x12,0x08,0x48,
 0x4a,0x08,0x91,0x10,0x49,0x21,0x50,0x20,0xea,0xff,0xff,0x01,0x00,0x40,0x10,
 0xa0,0x00,0x20,0x10,0x40,0x01,0x01,0x20,0x51,0x4a,0x4a,0x24,0x4a,0x85,0x8a,
 0xfc,0xff,0xff,0x94,0x4a,0x02,0x45,0x09,0x92,0x8a,0x44,0x09,0x24,0x04,0x4a,
 0x8a,0x90,0x24,0x09,0x11,0x52,0x20,0xf1,0xff,0x7f,0x21,0x80,0x50,0x10,0x80,
 0x04,0x00,0x00,0x00,0x01,0x21,0x24,0x24,0x25,0x89,0xa4,0xa4,0x88,0x4a,0xfe,
 0xff,0x7f,0x84,0x14,0x02,0x41,0x25,0x50,0x52,0x49,0x2a,0x48,0x08,0x09,0x49,
 0x48,0x52,0x12,0x12,0x44,0x10,0xf8,0xff,0xff,0x20,0x80,0x50,0x14,0x08,0x04,
 0x00,0x10,0x80,0x00,0x00,0xa4,0x24,0x21,0x89,0x48,0x49,0x91,0x4a,0xff,0xff,
 0x3f,0x84,0x12,0x02,0x41,0xa2,0x50,0x15,0x42,0x02,0x92,0x12,0x11,0x41,0x4a,
 0x22,0x25,0x22,0x2a,0x20,0xfa,0xff,0x3f,0x21,0x88,0x48,0x00,0x00,0x04,0x80,
 0x08,0x40,0x04,0x00,0x24,0x8a,0x88,0x94,0x48,0x49,0x41,0x95,0xfe,0xff,0x5f,
 0x84,0x24,0x22,0x95,0x2a,0x91,0x08,0x20,0x09,0x91,0x48,0x49,0x51,0x52,0x42,
 0x24,0x22,0x2a,0x02,0xfd,0xef,0x3f,0x21,0x80,0x08,0x20,0x40,0x20,0x90,0x04,
 0x42,0x00,0x02,0x24,0x0a,0x89,0x94,0x92,0x94,0x48,0x29,0xff,0xff,0x0f,0x94,
 0x12,0xa2,0x84,0x04,0x85,0x02,0x92,0x08,0x49,0x10,0x09,0x41,0x22,0xa2,0x48,
 0x02,0x12,0x44,0xfe,0xff,0x1f,0x01,0x88,0x08,0x10,0x50,0x20,0x40,0x00,0x20,
 0x00,0x00,0xa4,0x94,0x54,0x09,0x25,0xa9,0x40,0x89,0xfd,0xff,0x97,0x48,0x22,
 0x22,0x41,0x01,0x85,0x0a,0x49,0x84,0x24,0x25,0x21,0x24,0x01,0xaa,0x48,0x24,
 0x2a,0x50,0xff,0xff,0x0f,0x80,0x08,0x08,0x08,0x28,0x20,0x40,0x00,0x00,0x00,
 0x00,0x94,0x92,0x54,0x11,0x91,0x92,0x90,0x8a,0xff,0xff,0xa3,0x2a,0xa2,0xa0,
 0x22,0x81,0x12,0x09,0xa5,0x92,0x4a,0x02,0x84,0x24,0x8a,0xa4,0x44,0x08,0x45,
 0x42,0xff,0xff,0x0f,0x00,0x08,0x0a,0x08,0x24,0x40,0x40,0x08,0x04,0x00,0x28,
 0x52,0x92,0x50,0x12,0x29,0x25,0x88,0xd4,0xff,0xff,0x47,0x49,0x21,0x20,0x21,
 0x80,0x0a,0x15,0x21,0x50,0x28,0x01,0x11,0x21,0x15,0xa4,0x44,0x48,0x25,0x81,
 0xff,0xff,0x07,0x10,0x88,0x0a,0x84,0x2a,0x20,0x00,0x00,0x02,0x02,0x10,0xa4,
 0x94,0xa0,0x10,0x89,0x12,0x88,0x54,0xff,0xff,0x53,0x42,0x22,0x20,0x11,0x80,
 0x84,0x54,0x4a,0x88,0x20,0x41,0x00,0x00,0x08,0x04,0x42,0x80,0x22,0xc0,0xff,
 0xf7,0x87,0x90,0x10,0x4a,0x44,0x29,0x21,0x82,0x10,0x22,0x08,0x08,0x4a,0xa5,
 0xa2,0xa8,0x28,0x15,0x44,0xd5,0xff,0xff,0x25,0x02,0x4a,0x01,0x11,0x04,0x84,
 0x08,0x42,0x88,0x22,0x21,0x21,0x10,0x14,0x05,0x04,0x40,0x11,0xa0,0xff,0xff,
 0x03,0x00,0x00,0x20,0x00,0x20,0x21,0x40,0x10,0x02,0x40,0x08,0x4a,0xa5,0x20,
 0xa8,0x52,0x15,0x44,0xe5,0xff,0xff,0x01,0x94,0x00,0x04,0x42,0x02,0x04,0x15,
 0x41,0x28,0x05,0x01,0xb5,0x5a,0xdf,0xab,0xaa,0xaa,0xb7,0xda,0xff,0xff,0xa9,
 0x22,0xb5,0xa2,0x90,0x48,0x41,0x00,0x08,0x02,0x00,0x00,0xaa,0xd5,0xaa,0xaa,
 0xaa,0xaa,0xa8,0xf2,0xff,0xff,0x94,0x94,0x44,0x14,0x05,0x22,0x14,0x49,0x22,
 0x48,0x28,0x15,0xd5,0x56,0x55,0x55,0xb5,0x55,0x5b,0xdd,0xbf,0xff,0x55,0x55,
 0xb5,0xeb,0xfa,0xbd,0xef,0x76,0xdb,0xb7,0xd7,0x6a,0xad,0x5a,0x6b,0xdb,0xaa,
 0x5a,0x55,0xf5,0xff,0x7f,0x55,0x55,0x55,0x56,0xab,0x6a,0xa9,0x4a,0xad,0x54,
 0xad,0x56,0xd5,0xaa,0xb5,0xaa,0xaa,0xaa,0xd5,0xea,0xff,0xff,0x55,0x55,0x55,
 0x55,0x55,0xab,0x56,0xfb,0xf7,0xff,0xff,0x7b,0x6d,0x5b,0xab,0x55,0xdb,0x56,
 0xad,0xfd,0xff,0x5f,0xaa,0xaa,0xaa,0xaa,0x6a,0x55,0xbd,0xad,0xae,0xaa,0x56,
 0x2d,0x55,0xad,0xb5,0xda,0xaa,0xaa,0x55,0xf5,0xff,0xbf,0x55,0xd5,0x56,0x55,
 0x95,0xaa,0xca,0xaa,0x75,0xdb,0xfb,0x77,0xad,0x5a,0xad,0xb5,0xaa,0x5a,0x6d,
 0xfb,0xfe,0xbf,0xaa,0x5a,0x55,0x55,0x6d,0xad,0xb5,0x5a,0xaf,0x6d,0xaf,0x5e,
 0xd6,0xeb,0x6b,0xad,0xb6,0x6d,0x5b,0xfd,0xff,0x2e,0x55,0xa5,0xaa,0xaa,0xa2,
 0x52,0xaa,0xd6,0xda,0xb6,0xf5,0x6b,0xad,0x56,0xd6,0x6a,0x55,0xab,0xb6,0xed,
 0xf7,0x5f,0x55,0xad,0xaa,0xaa,0x5a,0xad,0x55,0xad,0x6a,0xdb,0x5e,0x3f,0x00,
 0x00,0x00,0x00,0x00,0x00,0x40,0xf4,0xff,0xa7,0xaa,0xb5,0x6d,0xad,0xad,0xd6,
 0xaa,0x6b,0xdf,0xb6,0xeb,0x6b,0x00,0x00,0x00,0x40,0x2a,0x55,0x55,0xb5,0xfd,
 0xaf,0xaa,0xaa,0xaa,0xaa,0x6a,0x55,0x6d,0xda,0x6a,0xdb,0xbe,0x5e,0xaa,0xaa,
 0x6d,0x2d,0x41,0x00,0x00,0xc0,0xde,0x03,0x00,0x00,0x00,0x00,0x00,0x00,0x00,
 0x00,0x00,0x00,0x00,0x00,0x44,0x54,0x92,0x90,0x14,0xa5,0x04,0x68,0xfb,0x03,
 0x00,0x00,0x00,0x00,0x00,0x00,0x00,0x00,0x00,0x00,0x00,0x00,0x11,0x01,0x00,
 0x04,0x40,0x08,0x51,0xb3,0x55,0x29,0x25,0x09,0x80,0x52,0x01,0x00,0x00,0x01,
 0x00,0x08,0x00,0x00,0x00,0x44,0x55,0x51,0x15,0x21,0x82,0x54,0xed,0x42,0x88,
 0xa4,0x2a,0x45,0x54,0x55,0x55,0x54,0x55,0xa1,0x20,0x29,0x54,0x29,0x20,0x08,
 0x42,0x4a,0x24,0x48,0x22,0x00,0x00,0x00,0x00,0x00,0x00,0x00,0x00,0x00,0x00,
 0x00,0x04,0x00,0x02,0x42,0x45,0xa5,0x08,0x01,0x11,0x55,0xad,0x84,0x00,0x00,
 0x80,0x94,0x00,0x00,0x00,0x00,0x00,0x04,0x00,0x00,0xa0,0x20,0x10,0x00,0x42,
 0x50,0x44,0x50,0x51,0x29,0xaa,0xaa,0x2a,0x00,0x10,0x88,0x48,0x22,0x24,0x51,
 0x21,0x09,0x0a,0x8a,0x42,0x55,0x28,0x05,0x01,0xad,0xaa,0x80,0x00,0x00,0x80,
 0x40,0x42,0x21,0x00,0x88,0x00,0x00,0x04,0x20,0x41,0x41,0x28,0x80,0x42,0xa8,
 0x54,0x22,0x55,0x25,0xaa,0xaa,0x2a,0x14,0x08,0x04,0x92,0x02,0x88,0x88,0x80,
 0x04,0x14,0x2a,0x45,0x15,0x84,0x42,0x92,0xac,0x92,0x44,0x00,0x00,0x80,0x40,
 0x20,0x50,0x00,0x10,0x21,0x22,0x2a,0x10,0x82,0x40,0x10,0x40,0x29,0x94,0x08,
 0x55,0x55,0x12,0xaa,0x52,0x55,0x08,0x09,0x05,0x52,0x42,0x08,0x08,0x80,0x0a,
 0x54,0x8a,0xa2,0x0a,0x84,0x10,0xa5,0xaa,0xaa,0x44,0x01,0x08,0x00,0x21,0x40,
 0x80,0x00,0x08,0x21,0xa1,0x24,0x20,0x81,0x52,0x2a,0x51,0x21,0xa4,0x48,0x52,
 0x15,0x29,0x54,0x21,0x2a,0x00,0x04,0x20,0x88,0x02,0x04,0x08,0x00,0x04,0x54,
 0xaa,0x44,0x8a,0x94,0x02,0x91,0x54,0x55,0x42,0x01,0x82,0x80,0x24,0x10,0x02,
 0x22,0x28,0x91,0x80,0x24,0x11,0x12,0x11,0xaa,0x52,0xa5,0x54,0x44,0x4a,0x55,
 0x35,0x54,0x29,0x10,0x00,0x81,0x00,0x00,0x00,0x00,0x00,0x00,0x00,0xa4,0xca,
 0x94,0x24,0x12,0xa9,0x92,0xb2,0xaa,0x42,0x49,0x84,0x42,0x12,0x04,0x48,0x00,
 0x00,0x00,0x12,0x00,0x20,0x11,0x10,0x01,0x11,0x41,0x02,0x20,0x49,0xb5,0x5a,
 0x92,0x52,0x29,0x45,0x41,0x02,0x08,0x92,0x94,0x00,0x92,0x04,0x44,0x45,0x54,
 0x44,0x2a,0xa8,0x4a,0x55,0x55,0x95,0x48,0x0a,0x92,0x28,0x2a,0xa9,0x20,0x00,
 0x42,0x24,0x01,0x00,0x21,0x10,0x09,0x91,0x80,0x92,0xa0,0xaa,0xaa,0x2a,0x15,
 0xa0,0x44,0x82,0x00,0x00,0x84,0xa4,0x00,0x08,0x08,0x11,0x94,0x4a,0x24,0x22,
 0x2a,0x45,0xaa,0xaa,0x56,0x55,0xa2,0x0a,0x29,0x29,0x92,0x8a,0x10,0x02,0x94,
 0x20,0x20,0x00,0x22,0x11,0x41,0x49,0x45,0x90,0xa0,0xd7,0xfd,0xbf,0x5a,0x52,
 0x00,0x80,0x44,0x40,0x8a,0x88,0x00,0x42,0x02,0x08,0x84,0x44,0x0a,0x12,0x28,
 0x05,0x55,0xad,0xdb,0xab,0x56,0x25,0x49,0x2a,0x12,0x95,0x50,0x20,0x00,0x00,
 0x00,0x21,0x21,0x10,0xa0,0x44,0x02,0x48,0xa0,0x76,0x6d,0xdd,0xdb,0x2a,0x00,
 0x80,0x40,0x08,0x01,0x02,0x10,0x00,0x00,0x00,0x84,0x42,0x05,0x10,0xa9,0x20,
 0x49,0xad,0x55,0xbb,0x54,0xab,0x22,0x09,0x0a,0x21,0x04,0x00,0x02,0x00,0x08,
 0x02,0x10,0x10,0x50,0x42,0x00,0x04,0x00,0x00,0x20,0x00,0x22,0x00,0x08,0x40,
 0x20,0x80,0x80,0x00,0x40,0x12,0x41,0x00,0x40,0x42,0x01,0x08,0x22,0x80,0x50,
 0x55,0x95,0x4a,0x94,0x2a,0x40,0x02,0x01,0x05,0x10,0x24,0x00,0x00,0x00,0x00,
 0x08,0x08,0x88,0x00,0x00,0x22,0x04,0x00,0x00,0x00,0x00,0x00,0x01,0x00,0x00,
 0x00,0x00,0x00,0x00,0x00,0x00,0x00,0x22,0x20,0x02,0x00,0x24,0x09,0xa1,0x94,
 0x52,0x25,0x01,0x00,0x00,0x00,0x00,0x00,0x00,0x00,0x01,0x80,0x00,0x00,0x80,
 0x8a,0x50,0x55,0x01,0x40,0x08,0x41,0x08,0x08,0x48,0x04,0x08,0x00,0x00,0x00,
 0x00,0x00,0x00,0x00,0x00,0x00,0x0a,0x00,0x02,0x00,0x24,0x02,0x01,0x00,0x25,
 0x21,0x00,0x20,0x00,0x00,0x00,0x00,0x00,0x00,0x00,0x00,0x00,0x00,0x00,0x00,
 0x00,0x00,0x00,0x00,0x00,0x08,0x00,0x00,0x00,0x00,0x80,0x00,0x00,0x00,0x00,
 0x00,0x00,0x00,0x00,0x00,0x00,0x08,0x90,0x44,0x80,0x10,0x00,0x40,0xa4,0x84,
 0x00,0x00,0x00,0x10,0x00,0x44,0x00,0x00,0x00,0x00,0x40,0x00,0x00,0x00,0x00,
 0x00,0x00,0x00,0x10,0x01,0x00,0x00,0x10,0x04,0x00,0x00,0x00,0x00,0x00,0x00,
 0x00,0x00,0x00,0x00,0x80,0x40,0x00,0x00,0x12,0x00,0x00,0x00,0x00,0x20,0x80,
 0x80,0x00,0x00,0x04,0x00,0x00,0x00,0x00,0x00,0x00,0x00,0x00,0x00,0x00,0x00,
 0x00,0x00,0x02,0x90,0x14,0x01,0x00,0x00,0x00,0x00,0x00,0x00,0x00,0x00,0x40,
 0x04,0x00,0x00,0x00,0x00,0x22,0x04,0x00,0x44,0x00,0x02,0x00,0x00,0x00,0x00,
 0x10,0x00,0x00,0x00,0x20,0x12,0x11,0x00,0x00,0x00};
