#define noname_width 240
#define noname_height 285
static char noname_bits[] = {
 0x52,0xa4,0x8a,0x48,0x49,0x91,0x94,0xa8,0xa2,0xa4,0x94,0x4a,0xa5,0x44,0x52,
 0x92,0xaa,0x48,0x55,0x92,0x94,0x52,0x15,0x49,0x42,0x49,0xa4,0x94,0x10,0x10,
 0x84,0x12,0x50,0x25,0x54,0x4a,0x49,0x4a,0x54,0x2a,0xa5,0x24,0xa9,0x2a,0x95,
 0x4a,0x12,0x55,0x12,0xa5,0xa2,0x88,0xa0,0x92,0x54,0x92,0x12,0x22,0xa5,0xa6,
 0x12,0xa9,0x0a,0x49,0xa1,0x94,0x52,0x95,0x4a,0x49,0x4a,0xa9,0x92,0x54,0x29,
 0x55,0xa5,0x92,0x64,0x4a,0x8a,0x2a,0x4b,0x2a,0x89,0x24,0xa5,0x54,0x4a,0x48,
 0xa4,0x44,0xa2,0x24,0x15,0x25,0x49,0x42,0xa5,0xa4,0x52,0x4a,0x4a,0x92,0xa4,
 0xa2,0x54,0x49,0x15,0x25,0xa9,0xa4,0x28,0x89,0x54,0xa9,0xa8,0x0a,0x21,0x25,
 0x4a,0x2a,0x95,0xaa,0x54,0x4a,0xaa,0x2c,0x4a,0x95,0xa4,0x94,0xaa,0x2a,0x95,
 0x94,0x92,0x2a,0xd5,0xa8,0x2a,0x49,0xa5,0x54,0x49,0x92,0x12,0x51,0x95,0x94,
 0x21,0x81,0x48,0x48,0x22,0xa1,0x12,0x52,0x21,0x52,0x55,0x4a,0x91,0xa4,0x4a,
 0x55,0x48,0xa4,0x22,0x55,0x92,0x2a,0x52,0xa2,0x24,0x25,0x49,0xaa,0x48,0x42,
 0x4a,0x5a,0xa5,0x92,0x4a,0x4d,0xaa,0x4a,0xad,0x2a,0x4a,0x29,0x55,0x49,0x52,
 0x92,0x55,0x95,0x4c,0x45,0x25,0x51,0xa5,0x0a,0x49,0x4a,0xaa,0x04,0x95,0x2a,
 0x94,0x24,0x12,0x49,0x52,0x22,0x91,0x52,0x92,0x92,0x22,0xa5,0x4a,0x2a,0x95,
 0x54,0x2a,0x49,0xa2,0x28,0xa9,0x94,0x14,0xa9,0x2a,0x21,0x11,0x69,0x49,0x51,
 0x52,0x92,0xa4,0x52,0x49,0x55,0x25,0xa5,0x54,0xaa,0xac,0x2a,0xa9,0x52,0xa9,
 0x52,0x49,0x55,0x55,0x55,0x4a,0xa5,0x52,0x52,0xa4,0xaa,0x4a,0x12,0x92,0x8a,
 0x24,0x49,0x52,0x94,0x94,0x48,0xaa,0x28,0x25,0xa5,0x4a,0x49,0x25,0x95,0x4a,
 0x4a,0xaa,0x4a,0x95,0xa4,0x52,0x2a,0x89,0x8a,0x92,0x14,0x51,0x49,0x49,0x50,
 0x92,0x92,0x44,0x49,0x52,0x95,0xa4,0x4a,0x55,0x4a,0x29,0x95,0x54,0x2a,0xa9,
 0xaa,0x52,0x94,0xa4,0x4a,0xa5,0xa4,0x54,0x52,0xaa,0x52,0x8a,0x52,0x92,0x4a,
 0x49,0x28,0x95,0x24,0x25,0xa2,0x52,0x52,0x92,0x52,0x52,0x49,0x89,0x82,0x94,
 0x24,0x95,0x52,0x29,0x51,0x12,0x2a,0x25,0x25,0x89,0x24,0xa5,0x14,0x29,0x25,
 0x24,0x45,0x52,0x92,0x54,0x55,0x8a,0x4a,0xa5,0x94,0x4a,0xaa,0x76,0xbd,0x52,
 0x49,0x52,0x25,0xa5,0x4a,0xd5,0x44,0x4a,0x4a,0x55,0x49,0x29,0x49,0xa5,0x48,
 0x49,0xa9,0x14,0x49,0x89,0x24,0x51,0x52,0x52,0x4a,0x25,0x25,0x55,0x4b,0x49,
 0xaa,0x4a,0x94,0x54,0x94,0x24,0x52,0x51,0x51,0x22,0x54,0x4a,0x52,0x12,0x25,
 0x12,0x45,0xa1,0x2a,0x25,0x49,0x95,0x94,0x94,0x52,0xaa,0xaa,0xfe,0x7f,0x57,
 0xa5,0x54,0xa9,0x92,0x52,0xaa,0x2a,0x95,0x8a,0x54,0x89,0xa8,0x24,0xa9,0x54,
 0xa4,0x92,0x54,0x91,0xa8,0xaa,0x4a,0x55,0x55,0x95,0x52,0x49,0xfb,0xdb,0x2a,
 0x29,0x25,0x95,0x4a,0x95,0x92,0x92,0xa4,0x24,0x25,0xa5,0x12,0x92,0x14,0x22,
 0x12,0x54,0x8a,0xa4,0x92,0x24,0x52,0x29,0x29,0x55,0x4a,0xea,0xae,0x7e,0x5b,
 0xa5,0x4a,0xa5,0x94,0xa4,0xa4,0x54,0x29,0xa9,0x94,0x94,0x64,0x55,0xa2,0x94,
 0xa4,0x02,0x25,0x55,0x4a,0x49,0x29,0x8a,0x8a,0x90,0x92,0x52,0xf7,0xd7,0xad,
 0x28,0x21,0x51,0x52,0x2a,0x55,0x8a,0x94,0x54,0x42,0x49,0x12,0x22,0xa9,0x42,
 0x4a,0xaa,0xa8,0xa4,0x54,0xaa,0x4a,0xb5,0xb4,0x56,0x55,0xed,0x5d,0xbd,0xb6,
 0x52,0xae,0x96,0xaa,0x52,0x92,0x32,0xa5,0xa2,0x2a,0xa5,0xaa,0x4a,0x45,0x2a,
 0x91,0x24,0x25,0x12,0xa5,0x92,0xa4,0x44,0x4a,0xa5,0x54,0x7a,0xbf,0xeb,0xfd,
 0x49,0xa1,0xa4,0x12,0x29,0x49,0x89,0x92,0x14,0x49,0x51,0x44,0x92,0x28,0x49,
 0x56,0x55,0xd5,0x6a,0x55,0x55,0x55,0xb5,0x55,0x55,0x55,0xed,0xfb,0x8f,0x56,
 0x95,0x56,0x29,0xa5,0x52,0x55,0xaa,0x54,0xa9,0x94,0xa4,0xaa,0x54,0xa5,0x92,
 0xa9,0xaa,0x2a,0x95,0x2a,0x55,0x55,0x55,0x54,0xaa,0x4a,0xfd,0xde,0xb6,0xfd,
 0xab,0x92,0x94,0x54,0x49,0x2a,0x45,0x2a,0x4a,0x22,0x15,0x11,0x25,0x14,0x49,
 0xff,0xff,0xff,0xff,0xff,0xbf,0xbf,0xff,0xef,0xdb,0xf6,0xdf,0xff,0x4b,0xab,
 0xaa,0x6a,0x6b,0xab,0xaa,0xca,0xb4,0x52,0x55,0xad,0x54,0xa5,0x54,0xa9,0x2a,
 0xff,0xff,0xef,0xfd,0x6d,0xeb,0xea,0x55,0xbb,0xb6,0xbb,0xf6,0xf7,0xaf,0x6a,
 0x6d,0xad,0xaa,0x54,0xaa,0x2a,0x15,0x95,0x92,0x42,0x8a,0x54,0x89,0x4a,0x92,
 0xef,0xbe,0xff,0x7f,0xff,0xff,0xff,0xff,0xff,0xff,0xff,0xff,0x7f,0x49,0xfd,
 0xff,0xff,0xff,0xff,0xff,0xff,0xfb,0x6d,0xdb,0xbe,0x75,0xab,0x6a,0x55,0x55,
 0xff,0xff,0xfd,0xff,0xff,0xff,0xff,0xff,0xff,0xff,0xff,0x7f,0xff,0xa7,0xaa,
 0xff,0xff,0xff,0xbb,0xb7,0xb5,0x6e,0xdb,0xb6,0x6a,0x95,0xaa,0xaa,0xaa,0xaa,
 0xff,0xf7,0xbf,0xf7,0xff,0xff,0x7f,0xff,0xff,0xff,0xdf,0xfe,0xfb,0x5a,0xd5,
 0xff,0xff,0xef,0xff,0xff,0xff,0xff,0xff,0xff,0xff,0xff,0xff,0xff,0xff,0xff,
 0xbf,0xff,0xff,0xff,0xff,0xff,0xff,0xff,0xff,0xff,0xff,0xdf,0xbf,0x2f,0xd5,
 0xff,0xff,0xff,0xff,0xff,0xff,0xff,0xff,0xff,0xff,0xff,0xff,0xff,0xff,0xdf,
 0xff,0xff,0xff,0xff,0x77,0xef,0xfd,0xef,0xf6,0xbf,0xfb,0x7b,0xf7,0xd4,0xb6,
 0xff,0xdf,0xff,0xff,0xff,0xff,0xff,0xff,0xff,0xff,0xff,0xff,0xef,0xfd,0xff,
 0xf7,0xff,0xdf,0xfd,0xfe,0xff,0xbf,0xff,0x7f,0xf7,0xff,0xff,0xbf,0xab,0x5a,
 0xff,0xff,0xff,0xff,0xff,0xff,0xff,0x7f,0xf7,0x6f,0xf7,0xdb,0xfe,0xff,0xfd,
 0xff,0xee,0xfe,0xff,0xff,0xff,0xff,0xff,0xff,0xff,0xff,0x6f,0xf5,0xd4,0xef,
 0xff,0xff,0xff,0xff,0xfe,0xff,0xfb,0xff,0xbf,0xfd,0xbf,0xff,0xfb,0xdf,0xff,
 0xff,0xff,0xff,0xdf,0xff,0xff,0xfe,0xff,0xff,0xff,0xff,0xbd,0x6d,0x6b,0xbb,
 0xff,0xff,0xff,0xfb,0xff,0xff,0x7f,0xf7,0xff,0xff,0xff,0xff,0xff,0xff,0xff,
 0xdf,0xff,0xff,0xff,0xf7,0xdd,0x77,0xff,0xff,0xff,0xde,0xff,0xb6,0xda,0xae,
 0xff,0xff,0xff,0xff,0xff,0xff,0xff,0xff,0xff,0xff,0xff,0x7f,0xe0,0xff,0xef,
 0xfb,0xff,0xbf,0x7d,0xff,0xff,0xff,0xbb,0xdf,0xf7,0xff,0xb7,0xdd,0x55,0xd7,
 0xfe,0xff,0xff,0xff,0xff,0xbe,0xff,0xff,0xed,0xff,0xee,0xfb,0xd1,0xff,0xff,
 0xff,0x7b,0xf7,0xff,0xbf,0xff,0xff,0xff,0xff,0xfe,0xff,0x7f,0xb7,0xaa,0x2d,
 0xff,0xff,0xff,0xff,0xf7,0xff,0xff,0xdf,0xff,0xee,0x7f,0x0f,0xea,0xff,0xff,
 0xbf,0xff,0xff,0xff,0xff,0xff,0xff,0xff,0xfb,0xbf,0xff,0xdf,0xdb,0xd6,0x8a,
 0xdf,0xff,0xee,0xbf,0xff,0xff,0xdd,0xff,0xff,0xff,0xff,0x1f,0xc0,0xf7,0xff,
 0xff,0xdf,0xff,0xf7,0xfd,0x77,0xf7,0xff,0xff,0xff,0xf7,0x7f,0xad,0xad,0x77,
 0xff,0xff,0xff,0xff,0xff,0xf7,0xff,0xfb,0xff,0xff,0xff,0x43,0xaf,0xff,0xfd,
 0xff,0xff,0xff,0xbf,0xff,0xff,0x7f,0x77,0xff,0xff,0xff,0xdf,0xeb,0x6a,0xda,
 0xfd,0xf7,0xff,0xfd,0xff,0xff,0xff,0xff,0xde,0xf7,0xfe,0x05,0x14,0xff,0xff,
 0xff,0xfd,0xdd,0xfe,0xef,0xfe,0xff,0xff,0xff,0xff,0xff,0x7d,0x5d,0xd7,0xed,
 0xff,0xff,0xff,0xff,0xff,0xff,0xff,0xff,0xff,0xff,0x07,0xa9,0xea,0xff,0xff,
 0xff,0xff,0xff,0xff,0xff,0xff,0xff,0xff,0xf7,0xee,0xff,0xff,0xd6,0x5a,0x76,
 0xff,0xff,0xff,0xff,0xbf,0x7f,0x7f,0xff,0xff,0xff,0x5f,0x02,0x50,0xff,0xff,
 0xff,0xff,0xff,0xff,0xff,0xef,0xfe,0xff,0xff,0xff,0xfe,0x5f,0x6d,0xeb,0xfd,
 0xff,0xff,0xff,0xff,0xfe,0xff,0xff,0xff,0xbf,0x02,0x20,0x5d,0xa5,0xff,0xff,
 0xbb,0xbf,0xff,0xf7,0xfd,0xff,0xef,0xee,0xff,0xff,0xbf,0xff,0xf5,0xaa,0xea,
 0xff,0xff,0xdf,0xff,0xff,0xfb,0xff,0xff,0xef,0x2a,0x80,0x52,0xc8,0xff,0xff,
 0xff,0xfb,0xff,0xff,0x7f,0xff,0xff,0xff,0xff,0xff,0xff,0xbf,0xd6,0xb7,0xff,
 0xff,0xff,0xff,0xef,0xff,0xff,0x17,0x00,0x00,0x40,0xaa,0xaa,0xeb,0xff,0xff,
 0xff,0xff,0x77,0xff,0xef,0xff,0xff,0xff,0xde,0xfd,0xff,0xff,0xbb,0xda,0xdb,
 0xff,0xff,0xff,0xff,0xff,0xff,0x5f,0x00,0x00,0x00,0x55,0x54,0xda,0xff,0xff,
 0xff,0xff,0xff,0xbf,0xff,0x77,0xff,0xff,0xff,0xff,0xff,0xbf,0xf6,0x6f,0xff,
 0x7f,0x6f,0xff,0xff,0xf7,0x1f,0x00,0x00,0x00,0x7a,0xa9,0xeb,0xff,0xff,0xff,
 0xbf,0xff,0xfe,0xff,0xff,0xff,0xdf,0xff,0xff,0x7f,0xf7,0xff,0x55,0xfb,0xea,
 0xff,0xff,0xfb,0xff,0xff,0xff,0x00,0x00,0x80,0x44,0x55,0xfa,0xff,0xff,0xff,
 0xff,0xef,0xbf,0xf7,0xfd,0xff,0xff,0xfe,0xff,0xff,0xff,0x7e,0xef,0xef,0x7f,
 0xf7,0x7b,0xdf,0xfe,0xff,0x03,0x40,0x02,0x50,0xb5,0xf6,0xff,0xff,0xf7,0xfe,
 0xf7,0xfe,0xff,0xff,0x7f,0xff,0xff,0xbf,0xfb,0xef,0xff,0xff,0x75,0x7d,0xed,
 0xff,0xde,0xf7,0xb7,0x5d,0x07,0x94,0x10,0x8a,0x56,0xf9,0xff,0xff,0xff,0xef,
 0xff,0xff,0xf7,0xff,0xff,0xff,0xfd,0xff,0x7f,0xff,0xff,0x5f,0xad,0xff,0xff,
 0xdf,0xff,0xbf,0xff,0xff,0x03,0x00,0xa2,0x6a,0xa9,0xff,0xff,0xff,0xff,0xff,
 0xff,0xdf,0xff,0xfe,0xff,0xbf,0xff,0xfb,0xff,0xff,0xff,0xff,0xdb,0xb6,0xff,
 0xfb,0xff,0xfd,0xfd,0xf7,0x07,0x00,0x88,0x94,0xd6,0xff,0xff,0xff,0xff,0xff,
 0xff,0xff,0xff,0xdf,0xff,0xfb,0xff,0xff,0xff,0xff,0x7b,0x7f,0x6d,0xfb,0x7b,
 0xff,0xff,0xff,0x6f,0xff,0x07,0x40,0xb5,0xaa,0xfa,0xff,0xff,0xbf,0xff,0xff,
 0xef,0xff,0xfe,0xff,0xdf,0xff,0xff,0xff,0xf7,0xff,0xff,0xff,0xdb,0x7e,0xff,
 0x7f,0x6f,0xdf,0xff,0xdf,0x0b,0x00,0x4a,0x2b,0xfd,0xff,0xff,0xff,0xfb,0xff,
 0xff,0xfb,0xff,0xff,0xfd,0xff,0xff,0xdf,0xff,0xdd,0xff,0x7f,0x6f,0xeb,0xff,
 0xff,0xff,0xff,0xff,0xff,0xa3,0xaa,0xaa,0xd4,0xff,0xff,0xbf,0xff,0xbf,0xfb,
 0x7f,0xff,0xef,0xfb,0xff,0xff,0xb7,0xff,0xff,0xff,0xff,0xff,0xfa,0xb6,0xff,
 0xff,0xff,0xfb,0xff,0xfb,0x57,0x54,0x55,0xe9,0xff,0xff,0xff,0xfb,0xff,0xff,
 0xff,0xff,0xff,0xff,0xff,0xff,0xff,0xff,0xbf,0xff,0xff,0xfb,0xad,0xff,0xfe,
 0xef,0xfb,0xff,0xee,0x7f,0x49,0x55,0xa5,0xfe,0xff,0xff,0xff,0xff,0xff,0xff,
 0xfb,0xbf,0xff,0x7f,0xff,0xdf,0xff,0xfb,0xfe,0xff,0xbd,0x7f,0xfb,0xda,0xbf,
 0xff,0xff,0xff,0xff,0xff,0xab,0x4a,0x92,0xfe,0xff,0xff,0xfe,0xff,0xff,0xef,
 0xff,0xff,0xff,0xff,0xdf,0xff,0xff,0xff,0xff,0xbf,0xff,0xff,0xef,0xff,0xff,
 0xff,0xfe,0xff,0x7f,0x6f,0x52,0x52,0xfd,0xff,0xff,0xfe,0xff,0x7f,0xff,0xff,
 0xbf,0xf7,0xfb,0xfe,0xff,0xfb,0xff,0xff,0xff,0xff,0xff,0xfb,0xbf,0xfe,0xff,
 0xf7,0xbf,0xef,0xff,0xff,0x88,0x48,0xeb,0xff,0xff,0xef,0xf7,0xff,0x77,0xff,
 0xff,0xff,0xff,0xff,0xff,0xff,0xff,0xff,0xef,0xf7,0xff,0xff,0xf7,0xff,0xfb,
 0xff,0xff,0xff,0xff,0x9f,0xf6,0xff,0xff,0xff,0xef,0xff,0xff,0xff,0xff,0xff,
 0xff,0xff,0xff,0xef,0xff,0xff,0xff,0xff,0xff,0xff,0xff,0xff,0x7f,0xf7,0xff,
 0xfe,0xff,0xff,0xfb,0xbd,0x6a,0xfb,0xff,0xdf,0xfd,0xff,0xbf,0xfb,0xff,0xff,
 0xa9,0x54,0x55,0x5d,0x55,0xb7,0xaa,0xb5,0x7d,0xff,0xdf,0xef,0xdd,0xff,0xff,
 0x7f,0xff,0xff,0xff,0xff,0xff,0xff,0xff,0xff,0xff,0xff,0xff,0xff,0xff,0xff,
 0x56,0x5b,0x6d,0xeb,0xfe,0xed,0x7f,0xef,0xef,0xdd,0xf7,0xfe,0xff,0xff,0xff,
 0xff,0xff,0x7f,0xbf,0xff,0xff,0xff,0xff,0xff,0x7f,0xff,0xfe,0xff,0xfe,0xef,
 0xb5,0xaa,0xd5,0x5a,0x49,0x5b,0x6a,0x5d,0x5a,0x6b,0xff,0xff,0xff,0xff,0xef,
 0xf7,0xf7,0xfb,0xff,0xf7,0xff,0x77,0x6f,0xff,0xff,0xf7,0xff,0xff,0xff,0xff,
 0x55,0x55,0x55,0xa5,0x56,0xa5,0x55,0xa5,0xaa,0xaa,0xff,0xff,0xff,0x7f,0xff,
 0xff,0xff,0xff,0xff,0xbf,0x5a,0xdd,0xfb,0xb7,0xfb,0xff,0xff,0xff,0xff,0xff,
 0xaa,0xaa,0xaa,0x5a,0x55,0xad,0xaa,0xda,0xaa,0xfd,0xfd,0xdf,0xff,0xff,0x7f,
 0xff,0xff,0xff,0xff,0xaa,0xd5,0xaa,0xaa,0xac,0xa6,0x94,0x52,0x52,0x25,0xd5,
 0x55,0xb5,0xb6,0xaa,0x6a,0x55,0xad,0x55,0x55,0xa5,0x6f,0xfb,0xff,0xff,0xff,
 0xff,0xfd,0xff,0xfb,0x55,0x55,0x55,0x55,0x53,0xa9,0x6a,0xad,0xad,0xda,0x6d,
 0xaa,0x55,0x55,0x55,0x55,0xb5,0xaa,0xaa,0xb6,0xfa,0xff,0xff,0xbe,0xfb,0xff,
 0xf7,0xbf,0xff,0x7f,0xab,0xaa,0xb6,0xaa,0xaa,0x56,0x55,0x55,0x55,0x2b,0x55,
 0xb5,0xaa,0xaa,0xaa,0x5a,0x55,0x55,0xd5,0xaa,0xed,0xff,0xdf,0xf7,0xff,0xef,
 0xff,0xff,0xbf,0xff,0x55,0xb5,0x55,0xad,0x5a,0x55,0xab,0xaa,0xaa,0xd4,0xaa,
 0x4a,0x55,0x55,0x55,0x55,0xab,0xda,0xaa,0xaa,0xfa,0xff,0xff,0xff,0xff,0x7f,
 0xbf,0xff,0xff,0x5f,0xaa,0x56,0xaa,0xaa,0xd6,0xaa,0x6a,0x55,0xd5,0x2a,0x55,
 0xb5,0xaa,0xaa,0xaa,0xaa,0xaa,0x2a,0x55,0xb5,0xfa,0xff,0xfb,0xff,0xff,0xfd,
 0xf7,0xff,0xff,0x7f,0xaa,0xaa,0x55,0x55,0xa9,0x6a,0x95,0xaa,0x55,0xd5,0xaa,
 0x4a,0x55,0x55,0x55,0x55,0xd5,0x6a,0x5b,0xab,0xfd,0xff,0xff,0xef,0xfe,0xff,
 0xfd,0xfb,0xfb,0x97,0x55,0x55,0xaa,0xaa,0x56,0x55,0x6d,0x55,0xad,0x2a,0x55,
 0xaa,0xaa,0xaa,0xaa,0x55,0x55,0x55,0x55,0x55,0xee,0x7e,0xdf,0xfd,0xdf,0xdf,
 0xff,0xff,0xff,0x5f,0xaa,0xaa,0x55,0x55,0xa9,0xaa,0x92,0xaa,0x52,0x55,0xab,
 0x55,0x55,0x55,0x55,0xaa,0xaa,0xaa,0xaa,0x6a,0xfb,0xff,0xff,0xff,0xff,0xf7,
 0xff,0xff,0xff,0x57,0x55,0x55,0xaa,0xaa,0x56,0x55,0x6d,0x55,0xad,0xaa,0xaa,
 0xaa,0xaa,0xaa,0xaa,0xaa,0xaa,0xaa,0xaa,0xaa,0xfe,0xff,0xff,0xff,0xfb,0xff,
 0xbf,0xff,0x7f,0xaf,0xaa,0xaa,0xaa,0xaa,0xaa,0xaa,0x52,0x55,0x55,0x55,0x55,
 0x55,0x55,0x55,0x55,0x55,0x55,0x55,0x55,0x55,0xff,0xff,0xff,0xdf,0xbf,0x7f,
 0xfb,0xef,0xff,0xa9,0xaa,0xaa,0xaa,0xaa,0xaa,0xaa,0xaa,0xaa,0xaa,0xaa,0xaa,
 0xaa,0xaa,0xaa,0xaa,0x55,0x55,0x55,0xd5,0xaa,0xfa,0xff,0x7f,0xff,0xff,0xfe,
 0xff,0xff,0xff,0x53,0x55,0x55,0x55,0x55,0x55,0x55,0x55,0x55,0x55,0x55,0x55,
 0x92,0x24,0x55,0x55,0xaa,0xaa,0xaa,0xaa,0xda,0xff,0xff,0xff,0xff,0xfe,0xff,
 0xff,0xfe,0xfe,0xaa,0xaa,0xaa,0xaa,0xaa,0xaa,0xaa,0xaa,0xaa,0xaa,0xaa,0xaa,
 0x49,0x92,0xa2,0xaa,0xaa,0xaa,0xaa,0xaa,0xaa,0xbe,0xff,0xff,0xf7,0xef,0xef,
 0xef,0xff,0xff,0x54,0x55,0x55,0x55,0x55,0x55,0x55,0x55,0x55,0x55,0x55,0x55,
 0xaa,0xaa,0x94,0xa4,0xaa,0xaa,0xaa,0xaa,0xaa,0xff,0xff,0xfb,0xff,0xff,0xff,
 0xff,0xff,0x9f,0x92,0xaa,0xaa,0xaa,0xaa,0xaa,0xaa,0xaa,0xaa,0xaa,0xaa,0xaa,
 0x52,0x4a,0x55,0x55,0x52,0xa9,0xaa,0x2a,0x55,0xff,0xff,0xff,0xff,0xff,0xbe,
 0xfd,0xff,0x7f,0x54,0x49,0x52,0x55,0x55,0x55,0x55,0x55,0x55,0x55,0x55,0x55,
 0x4a,0x29,0x49,0x4a,0x95,0xaa,0xaa,0x54,0xd5,0xff,0xff,0x7f,0xff,0xfe,0xff,
 0x7f,0xef,0x97,0x29,0x55,0xa5,0xaa,0x52,0x52,0x55,0x95,0x92,0x24,0x49,0x92,
 0x25,0x92,0xa4,0x52,0x4a,0x95,0x94,0xaa,0x52,0xff,0xff,0xff,0xef,0xef,0xfb,
 0xff,0xff,0x5f,0x4a,0x29,0x29,0x49,0x94,0x4a,0x92,0x48,0x49,0x92,0x24,0x49,
 0xa8,0xa4,0x2a,0x55,0x55,0xaa,0x52,0x55,0xd5,0xff,0xff,0xff,0xff,0xff,0xdf,
 0xef,0xff,0xa3,0x52,0x52,0x4a,0x92,0xa9,0x94,0x2a,0x53,0xaa,0xaa,0xaa,0xaa,
 0x4a,0x55,0x49,0x92,0x24,0xa5,0xaa,0x2a,0x55,0xff,0xf7,0xff,0xfd,0xff,0xff,
 0xfa,0xff,0x5f,0xaa,0x2a,0x55,0x55,0x4a,0x52,0xa5,0x28,0x25,0x55,0x52,0x12,
 0x29,0x89,0x52,0x55,0xa9,0x2a,0x55,0x52,0xd5,0xff,0xff,0xff,0xdf,0x7f,0x01,
 0xfc,0xff,0xa1,0x94,0x4a,0xa9,0xa4,0x52,0x95,0x54,0x4b,0xa9,0x48,0xa5,0xa4,
 0x92,0x54,0x2a,0x49,0xaa,0x52,0xa9,0x4a,0xe9,0xff,0xff,0xff,0x7f,0xf7,0x0b,
 0xf2,0xfd,0x2f,0xa5,0xa4,0x4a,0x2a,0xa9,0xaa,0x8a,0x50,0x4a,0x2a,0x29,0x55,
 0xaa,0x92,0x54,0xaa,0x52,0xaa,0x4a,0x55,0xd5,0xff,0xff,0xff,0xff,0x7f,0x04,
 0xd4,0xff,0x50,0x55,0x95,0x54,0x55,0x25,0x91,0x54,0x95,0x94,0x52,0x95,0xaa,
 0x44,0xa4,0x4a,0xa5,0x2a,0x95,0xaa,0xaa,0xea,0xff,0xff,0xff,0xff,0x7f,0x90,
 0xe8,0xff,0x55,0x92,0x54,0x25,0x8a,0x54,0x4a,0x4a,0xaa,0xa2,0x4a,0xa2,0x44,
 0xa9,0x4a,0x92,0x2a,0xa5,0xa4,0x54,0x55,0xf5,0xff,0xff,0xff,0xff,0x0f,0xa5,
 0xe2,0x7f,0x95,0xaa,0x52,0xd5,0x54,0xa5,0xaa,0x94,0x24,0x55,0x92,0x4a,0x29,
 0x24,0x29,0x55,0x91,0x92,0xaa,0xaa,0x48,0xca,0xff,0xff,0xff,0xff,0x3f,0x48,
 0xa5,0xff,0x55,0x49,0x2a,0x29,0x25,0x29,0xa5,0xa2,0x92,0x94,0x54,0x29,0xa5,
 0x95,0x52,0x92,0xaa,0xac,0x52,0xa5,0xaa,0xfa,0xff,0xff,0xf7,0xff,0x85,0x12,
 0xe8,0x7f,0xa4,0xaa,0x52,0x4a,0xa9,0x4a,0x49,0x55,0x55,0x29,0x29,0xa5,0x94,
 0xa2,0x24,0x49,0x49,0xa2,0x94,0x54,0x55,0xd5,0xff,0xff,0xff,0xff,0x23,0xa8,
 0x12,0xff,0x15,0xa5,0x94,0x52,0x4a,0x52,0x2a,0x92,0x88,0x44,0x45,0x29,0x49,
 0x94,0x4a,0x95,0xaa,0x2a,0x55,0x95,0xaa,0xf4,0xff,0xff,0xff,0x5f,0xc4,0x56,
 0xed,0x5f,0x52,0x2a,0x55,0xa5,0x52,0xa5,0x52,0x25,0x33,0x95,0x94,0x52,0x95,
 0x55,0x51,0x52,0x92,0xaa,0x4a,0xa5,0x94,0xea,0xff,0xff,0xff,0x7f,0x28,0xd5,
 0xb6,0x7f,0xa9,0xa9,0x4a,0x2a,0xa9,0x94,0x94,0x52,0x8a,0x52,0x52,0x08,0x42,
 0x12,0xa5,0x94,0xa4,0xa4,0x54,0xaa,0x52,0xf5,0xff,0xff,0xff,0x01,0xa5,0x2a,
 0xc9,0x2f,0x55,0x4a,0xa9,0x94,0x4a,0x29,0xa5,0x94,0x54,0xa5,0x4a,0x6b,0x35,
 0xa4,0x2a,0x55,0x55,0x52,0x52,0xa9,0xaa,0xfa,0xdf,0xff,0xff,0x97,0xa8,0xaa,
 0xa2,0x5e,0x25,0xa5,0x24,0xa5,0x94,0x54,0x29,0x55,0xa5,0x50,0xa4,0x10,0x89,
 0x12,0x90,0x20,0x49,0x95,0xaa,0x4a,0x25,0xf5,0xff,0xff,0x0f,0x24,0xab,0xaa,
 0xfe,0x2f,0x4a,0x49,0x55,0x49,0x29,0x25,0x55,0x52,0x4a,0x8b,0x49,0x55,0x32,
 0x40,0x25,0x94,0x24,0xa9,0x2a,0x55,0xa9,0xfa,0xff,0xff,0xff,0x92,0x54,0x55,
 0xfb,0x5f,0xa5,0x54,0x52,0x2a,0xa5,0x4a,0x89,0x94,0x24,0x54,0x2a,0x8a,0x8a,
 0x12,0x80,0x42,0x92,0x44,0x44,0x24,0x4a,0xf4,0xff,0xaf,0x00,0x54,0xab,0xfa,
 0xff,0x8f,0x28,0xa5,0x4a,0x55,0x29,0xa9,0xb2,0x52,0xa9,0x52,0xa9,0x54,0x29,
 0x80,0x54,0x10,0x20,0x22,0x22,0x49,0x91,0xfa,0xff,0x7f,0x02,0x51,0x55,0xd5,
 0xff,0xbf,0xaa,0x2a,0x29,0x49,0x95,0x4a,0x2a,0x29,0x55,0x95,0x94,0xa2,0xa4,
 0x0a,0x02,0x45,0x85,0x88,0x94,0x24,0x4a,0xfa,0xff,0x00,0x51,0xd6,0xfe,0xff,
 0xbf,0x0b,0x42,0x44,0x52,0x12,0xa9,0x90,0x44,0x45,0x82,0x48,0x22,0x15,0x49,
 0xa0,0x50,0x20,0x50,0x22,0x21,0x49,0x11,0xfd,0xff,0x01,0x84,0x2a,0xf5,0xff,
 0xff,0x97,0x28,0x29,0x89,0xa4,0x44,0x4a,0x92,0xa8,0x54,0x12,0x49,0x40,0x12,
 0x02,0x02,0x45,0x05,0x49,0x8a,0x04,0x25,0x76,0x3f,0x2a,0xa9,0xea,0xff,0xff,
 0xff,0x0f,0x41,0x42,0x24,0x09,0x11,0x11,0x49,0x02,0x81,0x40,0x84,0x0a,0xa1,
 0xa8,0xa8,0x10,0x50,0x84,0x20,0x52,0x48,0xfd,0xef,0x80,0x54,0x95,0xfe,0xff,
 0xef,0x47,0x94,0x10,0x09,0x42,0x44,0x44,0x10,0x54,0x28,0x2a,0x21,0x50,0x08,
 0x00,0x02,0xa2,0x02,0x11,0x95,0x88,0x92,0x5a,0x35,0xb7,0xaa,0xfa,0xff,0xff,
 0xff,0x8f,0x20,0x4a,0xa4,0x28,0x89,0x88,0x4a,0x21,0x45,0x80,0x94,0x02,0x21,
 0x92,0x90,0x08,0x50,0x48,0x42,0x52,0x24,0x74,0xd5,0xa8,0xb6,0xca,0xff,0xff,
 0xff,0x17,0x0a,0x11,0x01,0x04,0x22,0x25,0x81,0x48,0x10,0x2a,0x20,0x50,0x08,
 0x40,0x04,0xa2,0x8a,0x22,0x14,0x89,0x92,0x92,0x56,0x57,0x55,0xff,0xff,0xff,
 0xfd,0x47,0x50,0xa4,0x54,0xa9,0x14,0x90,0x14,0x05,0x45,0x41,0x85,0x82,0xa2,
 0x14,0xa1,0x08,0x20,0x88,0x42,0x42,0x44,0xa4,0xb5,0xaa,0x55,0xf9,0xff,0xff,
 0xbf,0x9f,0x0a,0x09,0x89,0x04,0x41,0x25,0x42,0x50,0x20,0x28,0x20,0x28,0x08,
 0x00,0x04,0xa2,0x8a,0x52,0x94,0x94,0x28,0xa9,0x6a,0xb5,0xea,0xff,0xff,0xff,
 0xff,0x03,0x50,0x24,0x52,0x52,0x14,0x89,0x28,0x81,0x8a,0x82,0x8a,0x82,0x90,
 0x4a,0x91,0x08,0x40,0x04,0x21,0x22,0x45,0xd2,0xb6,0x56,0xad,0xfe,0xff,0xff,
 0xff,0x4f,0x05,0x89,0x84,0x88,0x42,0x42,0x04,0x54,0x40,0x50,0x20,0x24,0x04,
 0x20,0x44,0xa0,0x2a,0x51,0x4a,0x49,0x28,0xa9,0xaa,0xd5,0xfa,0xff,0xff,0xff,
 0xfe,0x21,0xa8,0x50,0x28,0x22,0x14,0x14,0x51,0x01,0x15,0x05,0x45,0x90,0x52,
 0x04,0x01,0x0a,0x00,0x88,0x00,0x12,0x45,0xa4,0xb6,0x5a,0xeb,0xff,0xff,0xff,
 0xbf,0x87,0x04,0x04,0x02,0x09,0x41,0xa1,0x08,0xa8,0x40,0x48,0x10,0x05,0x00,
 0x10,0x94,0xa0,0xaa,0x22,0xaa,0x48,0x88,0x52,0xad,0xb5,0xff,0xff,0xff,0xff,
 0xf7,0x25,0x52,0xa9,0x54,0xa4,0x14,0x0a,0xa5,0x02,0x8a,0x22,0x45,0x50,0x95,
 0x04,0x21,0x10,0x00,0x14,0x11,0x92,0x52,0x88,0xaa,0xca,0xfe,0xff,0xff,0xff,
 0xff,0x8b,0x08,0x12,0x09,0x21,0x45,0x51,0x10,0x51,0x21,0x08,0x10,0x05,0x00,
 0x50,0x84,0x4a,0x55,0xa1,0x44,0x49,0x22,0x65,0xb5,0xfe,0xff,0xff,0xbf,0xff,
 0xff,0x21,0xa2,0x48,0xa4,0x14,0x08,0x82,0x42,0x04,0x8a,0xa2,0x42,0xa8,0x24,
 0x04,0x21,0x00,0x00,0x08,0x22,0x92,0x94,0x12,0x6d,0xf3,0xff,0xff,0xfb,0xef,
 0xfe,0x87,0x10,0x02,0x01,0x82,0xa2,0x24,0x10,0xa9,0x20,0x10,0x10,0x02,0x40,
 0x12,0x84,0x52,0xaa,0x52,0x94,0x20,0x22,0xa4,0x4a,0xec,0xff,0xff,0xff,0xff,
 0xff,0x10,0x4a,0xa9,0x54,0x54,0x04,0x90,0x4a,0x04,0x89,0x42,0x45,0x48,0x05,
 0x00,0x21,0x84,0x00,0x04,0x21,0x0a,0x49,0x49,0x2a,0xf1,0xff,0xff,0xff,0xff,
 0xff,0x87,0x00,0x10,0x88,0x02,0x51,0x05,0x00,0x51,0x42,0x28,0x10,0x12,0x20,
 0x24,0x84,0x10,0xaa,0x50,0x8a,0x50,0x12,0x91,0x44,0xfe,0xff,0xff,0xff,0xff,
 0x7f,0x10,0x55,0x45,0x25,0x54,0x02,0x50,0x55,0x04,0x08,0x81,0xa2,0x48,0x85,
 0x01,0x21,0x82,0x00,0x0a,0x21,0x8a,0x44,0x4a,0x12,0xfd,0xff,0xff,0xff,0xff,
 0xf7,0x45,0x00,0x90,0x10,0x81,0xa8,0x0a,0x00,0xa1,0xa2,0x24,0x08,0x02,0x20,
 0x54,0x84,0x48,0x52,0x50,0x94,0x50,0x92,0x24,0xe9,0xff,0xff,0xff,0xff,0xff,
 0x7e,0x90,0xaa,0x4a,0x42,0x2a,0x02,0xa1,0x2a,0x14,0x04,0x92,0x24,0x28,0x85,
 0x00,0x21,0x02,0x04,0x05,0x02,0x85,0x24,0x91,0x04,0xff,0xff,0xbf,0xff,0xf7,
 0xff,0x22,0x40,0x10,0x94,0x84,0x54,0x14,0x80,0x82,0xa2,0x00,0x81,0x42,0x28,
 0x12,0x84,0xa8,0x50,0xa8,0x54,0x14,0x91,0x24,0xe9,0xff,0xff,0xff,0x7f,0xff,
 0xff,0x88,0x8a,0x42,0x21,0x52,0x82,0x40,0x55,0x28,0x14,0x2a,0x14,0x04,0x01,
 0x00,0x21,0x02,0x09,0x02,0x02,0xa1,0x48,0x88,0xa4,0xff,0xff,0xff,0xff,0xff,
 0xff,0x43,0x20,0x28,0x14,0x01,0x50,0x14,0x00,0x05,0x01,0x41,0x42,0x51,0x48,
 0x24,0x04,0x48,0xa4,0x54,0xa9,0x14,0x25,0x25,0xe9,0xff,0xff,0xff,0xff,0xff,
 0xdf,0x08,0x95,0x42,0xa1,0x54,0x05,0xa1,0x2a,0x50,0x54,0x14,0x09,0x04,0x21,
 0x08,0xa1,0x02,0x01,0x01,0x10,0x42,0x10,0x49,0x92,0xff,0xef,0xff,0xff,0xff,
 0xff,0xa1,0x40,0x14,0x0a,0x08,0xa0,0x08,0x80,0x0a,0x02,0x41,0x40,0x41,0x08,
 0x20,0x04,0x28,0x54,0x54,0x45,0x29,0xa5,0x24,0xe9,0xff,0xff,0xff,0xff,0xbf,
 0xfb,0x12,0x0a,0x21,0x50,0xa1,0x0a,0x52,0x15,0xa0,0x28,0x0a,0x15,0x14,0xa1,
 0x09,0x51,0x02,0x01,0x02,0x20,0x84,0x08,0x11,0xd2,0xff,0xff,0xf7,0xff,0xff,
 0xff,0x81,0x50,0x88,0x0a,0x4a,0x90,0x04,0x40,0x15,0x82,0x40,0x20,0x41,0x08,
 0x20,0x04,0x29,0xaa,0xa8,0x4a,0x29,0x51,0x4a,0xf9,0xff,0xff,0xff,0xdf,0xf7,
 0xff,0x2a,0x82,0x22,0x50,0x10,0x45,0x52,0x15,0x40,0x28,0x15,0x89,0x04,0x25,
 0x0a,0x41,0x80,0x00,0x84,0x10,0x42,0x0a,0x91,0xe4,0x7f,0xff,0xff,0xff,0xff,
 0xff,0x83,0x54,0x10,0x85,0x4a,0x92,0x00,0x20,0x25,0x42,0x40,0x22,0x50,0x00,
 0x20,0x14,0x25,0xaa,0x52,0xa2,0x94,0x50,0x22,0xf9,0xff,0xff,0xff,0xff,0xff,
 0xff,0x25,0x80,0x4a,0x28,0x20,0x09,0xaa,0x82,0x88,0x14,0x15,0x88,0x82,0x52,
 0x08,0x01,0x88,0x00,0x84,0x08,0x21,0x25,0x49,0xe4,0xff,0xff,0xff,0xff,0xff,
 0xff,0x47,0x2a,0x80,0x02,0x4a,0x40,0x01,0x28,0x22,0x81,0x80,0x02,0x28,0x00,
 0x42,0xa4,0x20,0x2a,0x11,0x52,0x4a,0x94,0x94,0xfa,0xff,0xdf,0x7f,0xff,0xff,
 0xef,0x0f,0x41,0x55,0x54,0x01,0x15,0xaa,0xa2,0x44,0x54,0x2a,0x54,0x81,0x4a,
 0x10,0x00,0x84,0x40,0xa4,0x84,0x90,0x22,0x42,0xe4,0xff,0xff,0xff,0xff,0xff,
 0xfd,0x2f,0x28,0x08,0x01,0xa8,0x80,0x40,0x08,0x11,0x02,0x40,0x01,0x28,0x10,
 0x44,0x95,0x10,0x12,0x01,0x29,0x45,0x44,0x29,0xf9,0xfb,0xff,0xff,0xff,0xff,
 0xff,0x9f,0x40,0x25,0xaa,0x02,0x55,0x8a,0x22,0xa4,0xa8,0x0a,0xaa,0x82,0x40,
 0x01,0x00,0x84,0x04,0x50,0x42,0x10,0x29,0x92,0xf4,0xff,0xff,0xff,0xff,0xff,
 0xff,0x7f,0x14,0x40,0x11,0x54,0x02,0x21,0x10,0x09,0x04,0xa0,0x00,0x20,0x14,
 0x94,0x52,0x11,0x50,0x05,0x29,0xa5,0x44,0x49,0xfa,0xff,0xff,0xf7,0xff,0xff,
 0xff,0x2f,0xa1,0x0a,0x42,0x81,0x28,0x4a,0x45,0xa4,0x52,0x05,0x55,0x8a,0x40,
 0x00,0x00,0x44,0x05,0x50,0x00,0x11,0x22,0x24,0xfd,0xff,0xff,0xff,0xdf,0xdd,
 0xff,0x3f,0x12,0xa0,0x28,0x28,0x84,0x10,0x20,0x11,0x04,0x50,0x00,0x21,0x12,
 0x52,0x4a,0x10,0xa8,0x82,0xaa,0xa4,0x94,0x92,0xfc,0xff,0xff,0xff,0xff,0xff,
 0xdf,0x5f,0x48,0x15,0x41,0x45,0x51,0x42,0x95,0x44,0x51,0x05,0x25,0x84,0x48,
 0x00,0x00,0x85,0x02,0x50,0x10,0x12,0xa1,0x48,0xfa,0xff,0xff,0xff,0xff,0xff,
 0xff,0x7d,0x02,0x44,0x14,0x50,0x08,0x28,0x00,0x21,0x04,0x50,0x08,0x21,0x02,
 0x24,0x95,0x10,0x54,0x85,0x4a,0x44,0x0a,0x25,0xff,0xff,0xf7,0xff,0xff,0xff,
 0xfe,0x3f,0x54,0x91,0x48,0x85,0x52,0x85,0x2a,0x94,0x50,0x85,0x20,0x84,0x48,
 0x01,0x00,0x44,0x01,0x50,0x20,0x91,0xa4,0x08,0xfd,0xff,0xff,0xff,0xff,0xff,
 0xff,0xff,0x00,0x08,0x22,0x20,0x04,0x20,0x81,0x02,0x0a,0x20,0x4a,0x29,0x02,
 0x54,0x52,0x10,0x54,0x05,0x45,0x4a,0x12,0x51,0xff,0xff,0xff,0xff,0xfe,0xff,
 0xef,0x5f,0xaa,0xa2,0x44,0x95,0xa8,0x0a,0x2a,0x28,0xa0,0x8a,0x00,0x80,0x28,
 0x00,0x00,0x05,0x01,0xa0,0x10,0x11,0x84,0x14,0xfd,0xff,0xff,0xff,0xff,0xff,
 0xff,0xbf,0x00,0x10,0x91,0x20,0x02,0xa0,0x80,0x84,0x0a,0x20,0x51,0x25,0x00,
 0x90,0x24,0x50,0x54,0x05,0xa5,0xa4,0x52,0xa2,0xff,0xff,0xff,0xff,0xff,0xf7,
 0xff,0x7f,0xaa,0x4a,0x04,0x45,0xa9,0x0a,0x15,0x12,0x50,0x05,0x04,0x90,0x4a,
 0x04,0x80,0x04,0x02,0x50,0x08,0x08,0x24,0x49,0xfe,0x7f,0xff,0xfe,0xff,0xff,
 0xff,0xfd,0x00,0x00,0x51,0x10,0x00,0x40,0x80,0x40,0x05,0x48,0x91,0x04,0x10,
 0xa2,0x0a,0x92,0x28,0x85,0x52,0xa5,0x48,0x92,0xff,0xff,0xff,0xff,0xdf,0xff,
 0xfe,0xbf,0xaa,0x2a,0x82,0xa2,0xaa,0x8a,0x2a,0x2a,0xa8,0x20,0x44,0x92,0x40,
 0x00,0xa0,0x20,0x42,0x20,0x80,0x40,0x92,0xa4,0xff,0xff,0xff,0xff,0xff,0xff,
 0xdf,0xff,0x00,0x80,0x50,0x08,0x00,0x20,0x00,0x01,0x02,0x0a,0x11,0x20,0x14,
 0x14,0x01,0x82,0x08,0x95,0x2a,0x15,0x49,0x52,0xff,0xff,0xff,0xff,0xfe,0xff,
 0xff,0x7f,0x54,0x55,0x0a,0xa5,0xaa,0x8a,0xaa,0x54,0x29,0x21,0x44,0x89,0x40,
 0x40,0x94,0x28,0x40,0x20,0x04,0x42,0x92,0x88,0xff,0xfd,0xff,0xff,0xff,0xde,
 0xff,0x7f,0x01,0x80,0x40,0x08,0x00,0x20,0x00,0x00,0x40,0x08,0x01,0x00,0x12,
 0x02,0x01,0x82,0x0a,0x85,0x52,0x14,0x21,0xf5,0xff,0xff,0xff,0xdf,0xff,0xff,
 0xff,0xfe,0x54,0x15,0x2a,0xa1,0xaa,0x92,0x52,0x55,0x05,0xa1,0x54,0x55,0x88,
 0x20,0x90,0x20,0xa0,0x40,0x84,0xa2,0x48,0x80,0xff,0xbf,0x7f,0xff,0xff,0xff,
 0xf7,0xff,0x00,0x40,0x01,0x08,0x00,0x04,0x00,0x00,0x50,0x08,0x00,0x00,0x02,
 0x8a,0x04,0x8a,0x04,0x2a,0x51,0x04,0x25,0xf5,0xff,0xff,0xff,0xff,0xff,0xff,
 0xff,0xf7,0x55,0x15,0x54,0xa5,0x2a,0x51,0x55,0x55,0x05,0x25,0x95,0x24,0x51,
 0x20,0xa0,0x00,0xa1,0x00,0x08,0xa9,0x10,0xc9,0xff,0xff,0xff,0xff,0xff,0xff,
 0xff,0xff,0x01,0x40,0x02,0x10,0x40,0x04,0x00,0x00,0x50,0x00,0x00,0x02,0x04,
 0x88,0x02,0x52,0x04,0x55,0x25,0x22,0xa5,0xf4,0xff,0xff,0xff,0xff,0xff,0xff,
 0xdf,0xff,0x55,0x05,0xa9,0x42,0x05,0x51,0x55,0x55,0x81,0xaa,0x2a,0x28,0x91,
 0x02,0x88,0x04,0x50,0x00,0x80,0x48,0x08,0xa2,0xff,0xff,0xfd,0xfd,0xef,0xbf,
 0xfb,0xfd,0x03,0x50,0x00,0x10,0x50,0x04,0x00,0x00,0x28,0x00,0x80,0x42,0x00,
 0x90,0x20,0x90,0x02,0x55,0x55,0x22,0xa5,0xf8,0xff,0xff,0xff,0xff,0xff,0xfe,
 0xff,0xdf,0x25,0x09,0x55,0xa5,0x04,0x51,0x55,0x95,0x82,0x2a,0x09,0x08,0x25,
 0x20,0x08,0x22,0x50,0x00,0x00,0x48,0x48,0xd2,0xff,0xff,0xff,0x7f,0xff,0xff,
 0xff,0xff,0x47,0x82,0x00,0x08,0x48,0x04,0x00,0x20,0x24,0x00,0x42,0x42,0x08,
 0x02,0xa1,0x88,0x82,0xaa,0xaa,0x22,0x11,0xf5,0xff,0xff,0xff,0xff,0xff,0xff,
 0xff,0xfb,0x0b,0x28,0x4a,0xa2,0x22,0x51,0x55,0x89,0x90,0x54,0x28,0x08,0xa1,
 0x48,0x08,0x00,0x28,0x00,0x00,0x88,0xa4,0xf0,0x7f,0xff,0xff,0xff,0xff,0xef,
 0xbd,0xff,0x0f,0x82,0x90,0x08,0x08,0x08,0x00,0x00,0x04,0x01,0x82,0x22,0x08,
 0x00,0x41,0xaa,0x80,0xaa,0xaa,0x12,0x09,0xfd,0xff,0xff,0xff,0xff,0xff,0xff,
 0xff,0xff,0x57,0x08,0x02,0x51,0x51,0x51,0xa5,0xaa,0x10,0x94,0x08,0x80,0x20,
 0x52,0x88,0x00,0x2a,0x00,0x40,0x48,0x52,0xfa,0xff,0xff,0xff,0xff,0x77,0xff,
 0xff,0xff,0x0f,0xa2,0x50,0x04,0x04,0x04,0x08,0x00,0x04,0x01,0x42,0x29,0x0a,
 0x08,0x21,0x92,0x80,0xaa,0x8a,0x22,0x89,0xfa,0xff,0xff,0xbf,0xfb,0xff,0xff,
 0xff,0xef,0x9e,0x08,0x05,0x51,0x51,0x51,0xa1,0xaa,0x52,0x24,0x08,0x04,0x20,
 0x00,0x08,0x00,0x48,0x00,0x20,0x48,0x42,0xfc,0xff,0xff,0xff,0x7f,0xff,0xff,
 0xf7,0xff,0x2f,0x42,0xa0,0x08,0x08,0x04,0x08,0x00,0x00,0x88,0x22,0x01,0x09,
 0x52,0x42,0xaa,0x22,0x55,0x95,0x22,0x94,0xfe,0xff,0xef,0xff,0xff,0xff,0xf7,
 0xff,0xff,0x1f,0x28,0x05,0xa2,0xa2,0xa8,0x52,0x92,0x54,0x21,0x08,0x54,0x20,
 0x00,0x10,0x00,0x08,0x00,0x40,0x48,0x49,0xfa,0xff,0xff,0xff,0xff,0xff,0xff,
 0xff,0xfd,0xbf,0x00,0xa0,0x10,0x08,0x02,0x00,0x04,0x01,0x08,0x42,0x01,0x0a,
 0x8a,0x44,0x49,0xa2,0xaa,0x8a,0x22,0x22,0xff,0xff,0xff,0xff,0xff,0xde,0xff,
 0xff,0xbf,0x1f,0x4a,0x09,0x45,0xa1,0xa8,0xaa,0x50,0x54,0xa1,0x08,0x24,0x21,
 0x20,0x00,0x00,0x08,0x00,0x20,0x88,0x94,0xfc,0xff,0xff,0xfd,0xff,0xfb,0x7f,
 0xff,0xff,0x7f,0x01,0x44,0x20,0x14,0x02,0x00,0x05,0x00,0x08,0x20,0x09,0x40,
 0x80,0x94,0xaa,0x50,0xa9,0x4a,0x25,0xa1,0xff,0xff,0xff,0xff,0xbf,0xfe,0xff,
 0xff,0xff,0x1f,0x54,0x12,0x45,0x41,0x54,0x2a,0x50,0x25,0xa5,0x82,0xa0,0x04,
 0x14,0x00,0x00,0x04,0x02,0x10,0x40,0x48,0xfe,0xff,0xff,0xdf,0xfd,0xf8,0xf7,
 0xbf,0xf7,0x3f,0x81,0x40,0x10,0x10,0x81,0x80,0x04,0x08,0x00,0x28,0x04,0x51,
 0x40,0x52,0x92,0x50,0x54,0xa5,0x2a,0xa5,0xff,0xff,0xff,0xff,0x3f,0xea,0xff,
 0xff,0xff,0x7f,0x24,0x0a,0xa5,0x4a,0x24,0x12,0x92,0xa0,0x92,0x80,0x10,0x04,
 0x11,0x00,0x00,0x04,0x01,0x08,0x88,0x88,0xfe,0xff,0xff,0xff,0x7f,0xf4,0xff,
 0xff,0xff,0x7d,0x80,0xa0,0x00,0x00,0x09,0x84,0x20,0x0a,0x20,0x24,0x84,0x00,
 0x44,0x49,0xa5,0x92,0x54,0xa1,0x52,0x52,0xff,0xff,0xff,0xff,0x8f,0xe8,0xff,
 0xff,0xff,0x7f,0x15,0x02,0xaa,0x2a,0xa0,0x10,0x82,0xa0,0x8a,0x82,0x10,0x52,
 0x00,0x00,0x08,0x20,0x00,0x14,0x04,0x09,0xff,0xff,0xff,0xff,0x3f,0xf2,0xff,
 0xfd,0xff,0xff,0x80,0x50,0x01,0x00,0x15,0xa4,0x28,0x08,0x00,0x20,0x84,0x00,
 0x24,0x95,0xa0,0x84,0xaa,0xa0,0x28,0xd2,0xfe,0xff,0xff,0xff,0x43,0xe8,0xff,
 0xff,0xff,0xbf,0x28,0x0a,0x54,0x55,0x40,0x01,0x42,0x21,0x91,0x8a,0x10,0x4a,
 0x00,0x00,0x04,0x20,0x00,0x0a,0x82,0x04,0xff,0xff,0xff,0xff,0x97,0xa2,0xff,
 0xff,0xff,0x7f,0x82,0x20,0x01,0x00,0x14,0x92,0x10,0x48,0x24,0x00,0x42,0x00,
 0x92,0x48,0x90,0x8a,0xaa,0x50,0x29,0xd2,0xff,0xff,0xff,0xff,0x08,0xca,0xff,
 0xff,0xef,0xff,0x08,0x82,0x54,0x49,0x21,0x48,0x42,0x01,0x81,0x54,0x08,0x11,
 0x00,0x02,0x24,0x20,0x00,0x04,0x04,0xa1,0xfe,0xbe,0xbf,0xf7,0x43,0xa1,0xff,
 0xff,0xff,0xfb,0x80,0x20,0x00,0x12,0x88,0x02,0x10,0x48,0x20,0x00,0x22,0x04,
 0x24,0xa8,0x80,0x82,0xaa,0x52,0xa9,0xd4,0xff,0xff,0xff,0x7f,0x2a,0x8a,0xfe,
 0xff,0xff,0xff,0x2a,0x8a,0x92,0x40,0x25,0xa8,0x4a,0x25,0x85,0x92,0x80,0x50,
 0x00,0x01,0x2a,0x28,0x00,0x24,0x12,0x09,0xff,0xff,0xff,0xff,0x00,0x41,0xff,
 0xff,0xff,0xbf,0x81,0x20,0x04,0x14,0x00,0x05,0x00,0x00,0x20,0x04,0x12,0x02,
 0x44,0x84,0x80,0x40,0xa9,0x90,0x48,0xe4,0xff,0xff,0xff,0x1f,0xaa,0x94,0xfe,
 0xff,0xff,0xff,0x08,0x85,0x50,0x41,0x29,0x50,0x29,0xa9,0x8a,0x50,0x48,0x08,
 0x10,0x20,0x10,0x14,0x02,0x0a,0x12,0xa2,0xff,0xff,0xff,0x9f,0x00,0x20,0xfd,
 0xff,0xff,0xff,0x41,0x20,0x04,0x28,0x82,0x04,0x42,0x00,0x20,0x04,0x02,0x41,
 0x82,0x84,0x42,0x41,0xa8,0xa0,0x48,0xd9,0xff,0xff,0xff,0x47,0xaa,0x4a,0xfd,
 0xff,0xf7,0x7f,0x29,0x95,0x52,0x82,0x48,0x10,0x08,0x25,0x89,0x90,0x10,0x24,
 0x10,0x20,0x10,0x90,0x04,0x14,0x22,0xea,0xff,0xff,0xef,0x27,0x44,0x24,0xfe,
 0xff,0xff,0xfb,0x01,0x00,0x80,0x20,0x10,0x84,0x42,0x08,0x02,0x04,0x04,0x01,
 0x40,0x09,0x41,0x05,0x52,0xa1,0x44,0xf4,0xff,0xff,0xff,0x48,0x29,0x91,0xf4,
 0xff,0xff,0xff,0x54,0xa5,0x0a,0x8a,0x42,0x11,0x08,0xa1,0xa8,0x50,0x90,0x24,
 0x08,0x40,0x14,0xa0,0x04,0x08,0x91,0xfa,0xff,0xff,0xff,0x23,0x82,0x24,0xfd,
 0xff,0xff,0xff,0x01,0x10,0xa0,0x20,0x10,0x84,0x42,0x08,0x00,0x04,0x04,0x00,
 0x22,0x09,0x40,0x12,0x50,0x25,0x4a,0xfc,0xff,0xff,0x7f,0x88,0x54,0x92,0xe8,
 0xbf,0x7f,0xff,0x11,0x41,0x12,0x92,0x42,0x28,0x08,0xa1,0x92,0x90,0x50,0x4a,
 0x00,0x80,0x12,0x04,0x15,0x80,0x10,0xf5,0xff,0xff,0x7f,0x25,0x01,0x04,0xf5,
 0xff,0xff,0xff,0x07,0x14,0x84,0x04,0x90,0x02,0x42,0x08,0x04,0x22,0x04,0x00,
 0x44,0x12,0x40,0x51,0x40,0x55,0x42,0xfe,0xff,0xff,0xbf,0x10,0xaa,0xa8,0xc8,
 0xff,0xff,0xff,0xa3,0x40,0x11,0x50,0x05,0xa8,0x08,0x21,0x51,0x88,0x90,0x94,
 0x10,0x40,0x12,0x00,0x29,0x00,0x94,0xfc,0xff,0xff,0x5f,0x44,0x11,0x45,0xe4,
 0xff,0xff,0xff,0x07,0x12,0x40,0x05,0x50,0x02,0x50,0x44,0x00,0x02,0x04,0x01,
 0x80,0x04,0x88,0x4a,0x84,0xaa,0x22,0xff,0xff,0x7f,0x2f,0x89,0xa4,0x88,0xd2,
 0xff,0xff,0xef,0x97,0x48,0x05,0xa8,0x04,0x49,0x01,0x11,0x95,0x48,0x22,0x24,
 0x22,0x90,0x02,0x00,0xa1,0x40,0x08,0xfd,0xff,0xff,0x1f,0x52,0x12,0x52,0xa4,
 0xff,0xff,0xff,0x27,0x02,0x50,0x02,0x41,0x00,0x48,0x04,0x00,0x02,0x08,0x00,
 0x08,0x01,0x28,0x15,0x04,0x15,0xd1,0xff,0xff,0xff,0x4b,0x09,0x49,0x89,0xd2,
 0xff,0xff,0xff,0x0f,0xa8,0x04,0x11,0x14,0x55,0x22,0x50,0x92,0xa8,0xa0,0x92,
 0x40,0x48,0x42,0x40,0x51,0x80,0xc4,0xff,0xff,0xff,0x07,0x42,0x22,0x42,0x44,
 0xff,0xff,0xff,0x8b,0x02,0x48,0x24,0x41,0x00,0x08,0x02,0x00,0x00,0x04,0x00,
 0x02,0x21,0x00,0x09,0x82,0x2a,0xfa,0xff,0xff,0xff,0xab,0x28,0x49,0x94,0xa8,
 0xff,0xdf,0xff,0x0f,0x48,0x21,0x82,0x04,0x49,0x21,0x49,0x55,0x25,0x91,0x14,
 0x20,0x04,0x54,0x80,0x28,0x40,0xe1,0xff,0xff,0xff,0x07,0x44,0x92,0x22,0x45,
 0xff,0xff,0xfb,0x1f,0x11,0x84,0x20,0x50,0x02,0x08,0x00,0x00,0x00,0x00,0x40,
 0x84,0x90,0x00,0x15,0x42,0x15,0xfe,0xff,0xff,0xfe,0xa8,0x12,0x49,0x94,0x88,
 0xff,0xff,0xff,0x4f,0x44,0x10,0x8a,0x02,0x28,0x21,0x91,0x24,0xa9,0x54,0x09,
 0x10,0x02,0x49,0xa0,0x10,0x82,0xf8,0xff,0xff,0xff,0x23,0x49,0x92,0x22,0x52,
 0xfe,0xff,0xdf,0x9f,0x00,0x85,0x20,0x48,0x02,0x04,0x04,0x08,0x00,0x01,0x40,
 0x42,0x08,0x00,0x09,0x45,0x54,0xfe,0xff,0xff,0x7f,0x44,0x24,0x49,0x44,0x89,
 0xff,0xff,0xff,0x0f,0x2a,0x10,0x82,0x00,0x91,0x90,0x50,0xa0,0x12,0x24,0x09,
 0x00,0x40,0x52,0x40,0x20,0x01,0xfd,0xff,0xff,0xff,0x11,0x49,0x12,0x29,0x42,
 0xfd,0xff,0xff,0x5f,0x80,0x84,0x28,0x54,0x20,0x04,0x04,0x05,0x04,0x01,0x20,
 0x94,0x04,0x08,0x25,0x15,0xaa,0xff,0xff,0xfd,0x1f,0x44,0x24,0x21,0x42,0x29,
 0xff,0xff,0xff,0x2f,0x09,0x12,0x42,0x01,0x85,0x50,0x22,0x10,0x50,0x24,0x09,
 0x00,0x40,0x42,0x00,0x80,0x40,0xfe,0xff,0xdf,0x7f,0x11,0x09,0x4a,0x29,0x88,
 0xfc,0xff,0xff,0x1f,0x80,0x40,0x11,0x90,0x20,0x04,0x08,0xa4,0x02,0x00,0x00,
 0x22,0x09,0x11,0xa9,0x2a,0xd5,0xff,0xff,0xff,0x0f,0xa4,0xa4,0x14,0x92,0x52,
 0xfe,0xff,0xff,0x8f,0x2a,0x0a,0x44,0x45,0x92,0x90,0xa0,0x00,0x48,0x49,0x52,
 0x40,0x40,0x00,0x04,0x40,0x80,0xff,0xff,0xff,0x3f,0x11,0x21,0xa1,0x84,0x88,
 0xfa,0xff,0xff,0x1f,0x80,0x20,0x11,0x10,0x04,0x04,0x04,0x48,0x02,0x10,0x04,
 0x04,0x25,0xa9,0x50,0x05,0xf5,0xff,0xff,0xff,0x87,0x24,0x4a,0x4a,0x29,0x25,
 0xfd,0xff,0x7f,0x3f,0x22,0x82,0x44,0x41,0x90,0x50,0x91,0x02,0x29,0x41,0x10,
 0x20,0x00,0x00,0x04,0x50,0xc0,0xff,0xff,0xff,0x4f,0x92,0x90,0x10,0x84,0x48,
 0xf4,0xff,0xff,0x2f,0x08,0x28,0x00,0x10,0x04,0x04,0x04,0x20,0x00,0x08,0x41,
 0x12,0x49,0x92,0x50,0x82,0xfa,0xff,0xff,0xff,0x11,0x49,0x25,0xa5,0x52,0x12,
 0xff,0xff,0xff,0x3f,0xa1,0x80,0x2a,0x45,0x51,0x11,0x50,0x8a,0x24,0x21,0x04,
 0x40,0x00,0x04,0x04,0x20,0xf4,0xbf,0xef,0xff,0x4b,0x22,0x90,0x10,0x88,0xa4,
 0xf8,0xff,0xff,0x5f,0x00,0x24,0x40,0x00,0x00,0x40,0x05,0x20,0x00,0x04,0x20,
 0x04,0x92,0x50,0x51,0x85,0xfc,0xff,0xff,0xff,0x24,0x49,0x25,0xa5,0x52,0x12,
 0xfd,0xff,0xff,0x3f,0x2a,0x91,0x04,0x55,0x4a,0x0a,0x90,0x80,0x52,0x50,0x81,
 0x80,0x00,0x02,0x04,0x28,0xf4,0xff,0xff,0xfb,0x92,0x24,0x92,0x48,0x09,0x49,
 0xfa,0xff,0xff,0x7f,0x00,0x04,0x21,0x80,0x80,0x80,0x04,0x24,0x00,0x02,0x14,
 0x12,0x4a,0x48,0x50,0x42,0xfd,0xff,0xff,0x7f,0x44,0x92,0x24,0x25,0x52,0x22,
 0xf4,0xff,0xf7,0x1f,0xa9,0x10,0x94,0x04,0x12,0x2a,0x50,0x11,0x49,0x48,0x40,
 0x20,0x00,0x02,0x82,0x10,0xfc,0xff,0xff,0x7f,0x11,0x44,0x92,0x88,0x88,0x48,
 0xf5,0xff,0xff,0x7f,0x02,0x20,0x01,0x50,0x84,0x80,0x04,0x04,0x00,0x01,0x09,
 0x84,0x48,0x28,0x09,0x42,0xff,0xff,0xff,0xbf,0xa4,0x28,0x49,0x52,0x52,0x12,
 0xf9,0xff,0xff,0x3f,0x90,0x82,0xa4,0x02,0x11,0x12,0x22,0x51,0x25,0x04,0x20,
 0x00,0x02,0x00,0x80,0x90,0xfa,0xff,0xff,0x7f,0x08,0x85,0x24,0x09,0x09,0xa5,
 0xe4,0xff,0xff,0xff,0x00,0x28,0x08,0x48,0x80,0x80,0x08,0x00,0x08,0xa0,0x04,
 0x12,0x28,0xa5,0x2a,0x42,0xff,0xff,0xff,0x0f,0x51,0x52,0x92,0x54,0x52,0x08,
 0xf9,0xff,0xff,0x3f,0x24,0x81,0x20,0x01,0x25,0x12,0xa0,0x8a,0xa0,0x02,0x90,
 0x80,0x00,0x00,0x00,0x51,0xff,0xff,0x7f,0x5f,0x84,0x14,0x49,0x22,0x25,0xa5,
 0xa4,0xff,0xbf,0x7b,0x48,0x10,0x4a,0x50,0x08,0x80,0x04,0x20,0x02,0x48,0x04,
 0x24,0x52,0x4a,0x2a,0xa4,0xff,0xff,0xff,0x97,0x2a,0xa1,0x24,0x95,0x48,0x49,
 0xea,0xff,0xff,0xbf,0x00,0x45,0x00,0x05,0xa0,0x4a,0x10,0x08,0x88,0x00,0x21,
 0x00,0x00,0x00,0x00,0xc9,0xff,0xff,0xff,0x47,0x90,0x28,0x92,0x20,0x25,0x12,
 0xf1,0xff,0xff,0x7f,0x24,0x10,0x24,0x80,0x0a,0x00,0x84,0x42,0x21,0x48,0x04,
 0x92,0x44,0xa9,0xa4,0xf0,0xff,0xff,0xf7,0x03,0x45,0x42,0x49,0x4a,0x52,0xa9,
 0xd4,0xff,0xff,0xbf,0x80,0x42,0x81,0x14,0x20,0x29,0x21,0x00,0x84,0x02,0x90,
 0x20,0x00,0x00,0x08,0xd4,0xff,0xff,0xff,0x53,0x22,0x29,0x92,0x12,0x09,0x04,
 0xd2,0xff,0xff,0x7f,0x28,0x10,0x28,0x21,0x09,0x02,0x08,0xa8,0x00,0x90,0x04,
 0x84,0x92,0x92,0xa2,0xf0,0xff,0xff,0xff,0x09,0x49,0x52,0x49,0xa4,0xa4,0x52,
 0xa9,0xff,0xff,0x7f,0x82,0x44,0x02,0x84,0x20,0x48,0x40,0x01,0x52,0x02,0x10,
 0x00,0x20,0x20,0x08,0xea,0xff,0xff,0xff,0x43,0x24,0x09,0x92,0x12,0x29,0x49,
 0xc2,0xff,0xff,0xff,0x20,0x81,0x90,0x10,0x08,0x11,0x12,0x88,0x00,0xa0,0x44,
 0x92,0x84,0x84,0x20,0xf9,0xff,0xff,0x7f,0x90,0x48,0x52,0x49,0xa4,0x44,0x92,
 0x54,0x7f,0xff,0xff,0x08,0x14,0x42,0x42,0xa2,0x40,0x41,0x22,0x92,0x0a,0x20,
 0x00,0x00,0x20,0x44,0xe8,0xff,0x7f,0xff,0x08,0x92,0x24,0x22,0x12,0x91,0x24,
 0xa1,0xff,0xff,0xff,0x04,0x81,0x10,0x10,0x08,0x14,0x08,0x08,0x00,0x00,0x04,
 0x24,0x29,0x85,0x10,0xfd,0xff,0xff,0x3f,0xa2,0x24,0x49,0x95,0x24,0x4a,0x52,
 0x4a,0xff,0xdf,0x7f,0x50,0x14,0x4a,0x45,0x21,0x41,0x20,0x21,0x29,0x51,0x21,
 0x00,0x00,0x20,0x04,0xfd,0xff,0xff,0xbf,0x28,0x89,0x94,0xa0,0x92,0x24,0x89,
 0x92,0xff,0xff,0xfd,0x01,0x81,0x00,0x10,0x08,0x00,0x0a,0x00,0x02,0x04,0x08,
 0x52,0x92,0x84,0x50,0xfe,0xff,0xff,0x47,0x42,0xa4,0x22,0x15,0xa9,0x92,0x24,
 0x24,0xff,0xff,0x7f,0x94,0x54,0xaa,0x40,0xa1,0x2a,0xa0,0x4a,0x48,0x20,0x41,
 0x00,0x00,0x10,0x04,0xff,0xff,0xf7,0x9f,0x28,0x52,0x54,0x49,0x44,0x24,0x49,
 0x89,0xfe,0xff,0xff,0x01,0x00,0x00,0x14,0x08,0x00,0x09,0x10,0x00,0x09,0x08,
 0x24,0x25,0x41,0x22,0xf4,0xff,0xff,0x01,0x45,0x89,0x02,0x92,0x12,0x91,0x24,
 0x51,0xfa,0xff,0x7f,0xa9,0x4a,0x25,0x41,0x22,0x29,0x20,0x42,0x49,0x20,0x20,
 0x01,0x00,0x94,0x88,0xfa,0xff,0xff,0x47,0x10,0x24,0x69,0x49,0x49,0x0a,0x49,
 0x0a,0xfd,0xff,0xff,0x01,0x00,0x88,0x88,0x40,0x00,0x09,0x08,0x00,0x04,0x05,
 0x88,0x90,0x00,0x00,0xfc,0xff,0x7f,0x88,0xa4,0x52,0x92,0x24,0x92,0x50,0x24,
 0x51,0xfa,0xff,0xff,0xa4,0x52,0x20,0x22,0x0a,0x25,0xa4,0x20,0x25,0x11,0x90,
 0x00,0x00,0x00,0x04,0xf2,0xff,0xff,0x11,0x09,0x11,0x09,0x49,0x49,0x2a,0x49,
 0x88,0xfc,0xff,0xff,0x09,0x04,0x0a,0x88,0x20,0x00,0x01,0x08,0x00,0x00,0x01,
 0x00,0x00,0x10,0x90,0xfc,0xff,0x1f,0x00,0x20,0x4a,0x52,0x12,0x22,0x41,0x22,
 0x25,0xf9,0xff,0xff,0x20,0x50,0xa0,0x20,0x82,0x54,0x48,0xa1,0x24,0x49,0x24,
 0x00,0x00,0x00,0x00,0xe8,0xfd,0x7f,0x20,0x89,0x80,0x04,0x84,0x48,0x94,0x48,
 0x48,0xf4,0xff,0xff,0x83,0x04,0x0a,0x0a,0x28,0x01,0x12,0x08,0x00,0x00,0x00,
 0xbb,0x6d,0x6b,0xab,0xfa,0xff,0x07,0x95,0x24,0x55,0xaa,0x52,0x25,0x11,0x22,
 0x21,0xf9,0xff,0xff,0x10,0x40,0x40,0x40,0x00,0x08,0x40,0x20,0x49,0x12,0x11,
 0x4a,0x92,0x94,0x48,0xa5,0xff,0x4f,0x00,0x89,0x24,0x21,0x29,0x40,0x84,0x08,
 0x0a,0xe0,0xff,0xff,0x03,0x00,0x00,0x00,0x00,0x00,0x00,0x02,0x00,0x00,0x00,
 0x6a,0xad,0xaa,0xb6,0xda,0x56,0xb5,0x7f,0x75,0xdb,0xde,0xd6,0x5f,0x7b,0xeb,
 0xf4,0xfe,0xff,0xff,0xa9,0x56,0x55,0x55,0x55,0x55,0x95,0x48,0x12,0x42,0x44,
 0xaa,0xaa,0x55,0x55,0x65,0xfb,0xad,0x92,0xaa,0xad,0xaa,0x55,0xa8,0x4d,0x55,
 0x8b,0xe2,0xff,0xff,0x13,0x29,0x92,0x24,0x49,0x22,0x21,0x12,0x84,0x10,0x11,
 0x55,0x55,0x55,0x55,0xd5,0x4a,0xab,0x6a,0x5b,0xbb,0xdb,0xb6,0xb7,0xba,0xb6,
 0xb6,0xde,0xff,0xff,0xd7,0xaa,0x55,0xad,0x56,0xad,0x56,0xed,0x75,0x6f,0xd5,
 0x5a,0x55,0xd5,0xaa,0x2a,0xab,0x6c,0xad,0xaa,0x55,0x6d,0x6b,0x55,0xcb,0xaa,
 0x55,0xe5,0xff,0xff,0x5b,0x55,0xaa,0xaa,0xaa,0x52,0x55,0x55,0xad,0x5a,0xad,
 0xa5,0xaa,0xaa,0x2a,0xf4,0xaa,0x5b,0xdb,0x76,0x7b,0xab,0xb6,0xb5,0xba,0x5d,
 0xed,0x5a,0xff,0xfd,0x57,0x55,0x55,0x55,0x55,0x55,0x55,0xbb,0xb5,0xf7,0x76,
 0x5a,0x55,0x55,0x55,0x49,0xad,0x54,0x65,0x55,0xad,0xda,0x5a,0xad,0x55,0xaa,
 0xb5,0xd6,0xff,0xbf,0xa7,0xaa,0xaa,0xaa,0x55,0x55,0x55,0xd5,0xda,0x5a,0xab,
 0x55,0xad,0xaa,0xaa,0xb2,0xab,0xdb,0xd6,0xee,0xea,0xad,0xb5,0xaa,0xb6,0xb5,
 0x56,0xad,0xfd,0xff,0x55,0x55,0x55,0x55,0xaa,0xaa,0xaa,0xae,0x55,0xb7,0xdd,
 0xae,0xb6,0xda,0x2a,0xc8,0x5a,0xad,0x7a,0x55,0x37,0x6b,0xd5,0xd6,0xda,0xd6,
 0xda,0x76,0xff,0xff,0xab,0xaa,0xaa,0xaa,0x55,0x55,0x55,0xf5,0xb6,0xed,0x6e,
 0x00,0x00,0x00,0x52,0xb5,0x52,0xd5,0x4a,0x5b,0xed,0xb6,0xad,0xb5,0xb5,0xb5,
 0x55,0xd5,0xde,0xff,0xab,0x55,0x55,0x55,0xad,0xaa,0xaa,0xaa,0x6a,0xdb,0xb5,
 0x00,0x00,0xa0,0xa8,0xaa,0x55,0xb5,0xb6,0xed,0x56,0xdb,0x76,0xad,0x5a,0xad,
 0xb6,0x5b,0xfb,0xff,0x55,0xaa,0xaa,0xaa,0xaa,0xaa,0xaa,0x5a,0xb7,0xb5,0xde,
 0x00,0x40,0x02,0x20,0x69,0x01,0x00,0x00,0x00,0x00,0x00,0x00,0x10,0x21,0x51,
 0xa9,0xa4,0xfa,0x7f,0xd5,0xb6,0x55,0x55,0x55,0x55,0xd5,0x6a,0xad,0xee,0x7b,
 0x20,0x01,0x00,0x94,0xb4,0x00,0x00,0x00,0x00,0x00,0x08,0x00,0x04,0x44,0x24,
 0x55,0x5a,0xf5,0xff,0xaa,0xaa,0xb6,0x6a,0x6b,0x55,0xb5,0xad,0xd5,0xbb,0xd6,
 0x04,0x04,0x10,0x50,0x55,0x92,0x92,0x54,0x4a,0xb5,0x55,0x6d,0xa9,0x10,0x09,
 0x00,0x00,0xc0,0x56,0x00,0x00,0x00,0x00,0x00,0x00,0x00,0x00,0x00,0x00,0x00,
 0x00,0x40,0x82,0x04,0xa8,0x24,0xa9,0x92,0xaa,0x4a,0xa5,0x22,0x25,0x45,0x40,
 0x00,0x00,0xa0,0xbb,0x00,0x00,0x00,0x00,0x00,0x00,0x00,0x00,0x00,0x00,0x00,
 0x10,0x08,0x00,0x52,0x55,0x80,0x04,0x44,0x10,0x11,0x08,0x49,0x94,0x08,0x15,
 0x55,0xa5,0xea,0xae,0x02,0x40,0xa2,0x04,0x00,0x00,0x00,0x00,0x00,0x00,0x00,
 0x00,0x01,0xa9,0x08,0x92,0x11,0x80,0x00,0x45,0x44,0x42,0x10,0x01,0x42,0x42,
 0x95,0x54,0x44,0x5b,0xa9,0x2a,0x95,0xa2,0xaa,0xaa,0xaa,0xaa,0xaa,0x24,0x55,
 0x02,0x44,0x00,0x52,0x29,0x44,0x12,0x29,0x10,0x91,0x14,0x45,0xaa,0x94,0x28,
 0x40,0x00,0xd1,0xb7,0x02,0x00,0x40,0x08,0x00,0x00,0x00,0x00,0x00,0x00,0x00,
 0x50,0x00,0x20,0x28,0xa4,0x91,0x44,0x12,0x45,0x48,0x42,0x91,0x00,0x21,0x02,
 0x09,0x08,0x40,0xdb,0x02,0x04,0x00,0x01,0x80,0x00,0x00,0x00,0x00,0x00,0x00,
 0x02,0x95,0x8a,0x42,0xa9,0x44,0x28,0x48,0x92,0x92,0x14,0x4a,0x2a,0x4a,0x29,
 0xa4,0xa2,0xf4,0x56,0xa9,0xa8,0x2a,0x80,0x10,0x4a,0x12,0x91,0x52,0x92,0x04,
 0x54,0x20,0xa1,0x50,0x52,0x11,0x05,0xa5,0x24,0x24,0xa1,0x10,0x91,0x10,0x44,
 0x01,0x10,0x81,0x5b,0x05,0x02,0x00,0x24,0x04,0x00,0x00,0x00,0x00,0x00,0x20,
 0x00,0x05,0x0a,0x85,0x54,0x24,0x50,0x12,0x49,0x89,0x94,0x22,0x22,0xa5,0x92,
 0x5a,0xa5,0x7c,0xb5,0x52,0x54,0x49,0x91,0x50,0x29,0xa9,0x24,0x52,0x29,0x89,
 0x42,0x80,0x20,0x40,0x4a,0x49,0x95,0x40,0x22,0x52,0x04,0x89,0x94,0x94,0x54,
 0x52,0x55,0xe2,0xae,0x0a,0x01,0x22,0x04,0x25,0x42,0x02,0x88,0x00,0x04,0x22,
 0x08,0x29,0x82,0x0a,0xa9,0x00,0x42,0x2a,0x49,0x49,0xa9,0x54,0x22,0x29,0x49,
 0x89,0x80,0xd4,0xdb,0x2a,0x54,0x88,0x10,0x80,0x00,0xa8,0x22,0xaa,0x50,0x80,
 0x20,0x82,0x48,0x40,0x64,0x54,0x91,0x44,0x2a,0x92,0x24,0x89,0x90,0x44,0x12,
 0x22,0x2a,0xe8,0x6e,0x55,0x00,0x12,0x04,0x11,0x10,0x00,0x80,0x00,0x04,0x2a,
 0x00,0x00,0x00,0x05,0x91,0x02,0x0a,0x12,0xa1,0x24,0x49,0x52,0xad,0x2a,0xa5,
 0x54,0x91,0x52,0xb7,0x2b,0x01,0x80,0x20,0x04,0x84,0x00,0x04,0x92,0x10,0x80,
 0x04,0x00,0x22,0x20,0x40,0x91,0x80,0x40,0x48,0x92,0x24,0x29,0x02,0x89,0x10,
 0x25,0xa4,0xe4,0xdf,0x4a,0x00,0x00,0x04,0x81,0x00,0x92,0x90,0x00,0x42,0x04,
 0x20,0x24,0x00,0x05,0x92,0x44,0x2a,0x95,0x92,0x2a,0x55,0xd5,0xba,0xb2,0x56,
 0xca,0x4a,0xd5,0xfd,0x55,0x0b,0x01,0x00,0x00,0x20,0x00,0x00,0x04,0x00,0x20,
 0x00,0x00,0x00,0x00,0x20,0x01,0x80,0x40,0xa5,0x92,0xa4,0xaa,0x4a,0x4d,0xa9,
 0x35,0x55,0x75,0xff,0xae,0x22,0x08,0x00,0x20,0x04,0x00,0x00,0x00,0x00,0x00,
 0x00,0x10,0x09,0x0a,0x00,0x54,0x55,0x56,0x54,0x24,0x89,0x00,0x95,0x90,0x12,
 0x44,0xaa,0x4a,0x49,0xb5,0xad,0x52,0x29,0x04,0x00,0x10,0x01,0x40,0x08,0x01,
 0x00,0x01,0x80,0x10,0x00,0x42,0x2a,0x91,0x8a,0x92,0x24,0xaa,0x40,0xaa,0xc8,
 0x22,0x11,0xa0,0x56,0xfb,0x56,0x15,0x02,0x81,0x00,0x01,0x88,0x00,0x00,0x00,
 0x00,0x00,0x08,0x22,0x40,0xb4,0x52,0x55,0x52,0x2a,0xa9,0x94,0x2a,0x01,0x25,
 0x48,0x44,0x15,0x48,0x00,0xa8,0x4a,0x48,0x08,0x2a,0x40,0x00,0x12,0x01,0x10,
 0x10,0x80,0x80,0x18,0x01,0xa0,0x4a,0x4a,0x95,0x92,0x92,0x22,0x49,0xaa,0x88,
 0x92,0x22,0x80,0x22,0x8a,0x4a,0x05,0x02,0x42,0x82,0x14,0x42,0x00,0x40,0x00,
 0x00,0x04,0x00,0x62,0xaa,0x1a,0x94,0x90,0x48,0x2a,0x25,0x4a,0x22,0x04,0x02,
 0x00,0x88,0x24,0x88,0x00,0x00,0x00,0x10,0x00,0x00,0x00,0x08,0xa4,0x04,0x01,
 0x42,0x00,0x40,0x94,0x12,0x4a,0x22,0x4a,0x92,0xa2,0x48,0x91,0x14,0x51,0x00,
 0x00,0x00,0x80,0x22,0x22,0x00,0x80,0x00,0x10,0x20,0x80,0x00,0x01,0x50,0x24,
 0x00,0x20,0x04,0x40,0xd4,0x12,0x80,0x00,0x01,0x08,0x02,0x42,0x40,0x84,0x28,
 0x29,0x01,0x08,0x88,0x00,0x08,0x00,0x80,0x00,0x01,0x02,0x20,0x10,0x01,0x00,
 0x00,0x00,0x00,0x00,0x4a,0x0a,0x21,0x24,0xa4,0x40,0x90,0x10,0x2a,0x22,0x02,
 0x00,0x80,0x40,0x02,0x88,0x00,0x00,0x00,0x00,0x00,0x00,0x00,0x00,0x00,0x09,
 0x00,0x00,0x00,0x00,0x00,0x00,0x08,0x00,0x00,0x04,0x00,0x04,0x00,0x00,0x40,
 0x44,0x00,0x00,0x11,0x00,0x00,0x08,0x04,0x00,0x00,0x00,0x00,0x00,0x00,0x00,
 0x00,0x00,0x00,0x00,0x00,0x00,0x00,0x00,0x00,0x00,0x41,0x00,0x00,0x00,0x00,
 0x00,0x10,0x20,0x80,0x04,0x00,0x01,0x40,0x20,0x00,0x00,0x00,0x00,0x20,0x00,
 0x00,0x00,0x40,0x04,0x00,0x48,0x00,0x48,0x02,0x08,0x04,0x40,0x44,0x92,0x04,
 0x00,0x00,0x04,0x04,0x00,0x10,0x00,0x00,0x00,0x00,0x00,0x00,0x00,0x04,0x00,
 0x08,0x22,0x08,0x00,0x80,0x00,0x24,0x02,0x48,0x82,0x00,0x09,0x00,0x00,0x10,
 0x00,0x00,0x00,0x00,0x00,0x00,0x00,0x00,0x00,0x80,0x00,0x00,0x00,0x00,0x00,
 0x00,0x00,0x00,0x01,0x00,0x00,0x00,0x00,0x00,0x20,0x44,0x80,0x10,0x21,0x80,
 0x84,0x00,0xa0,0x10,0x80,0x00,0x00,0x00,0x00,0x02,0x10,0x40,0x08,0x00,0x20,
 0x00,0x00,0x00,0x00,0x00,0x80,0x00,0x80,0x00,0x00,0x00,0x00,0x02,0x84,0x24,
 0x10,0x24,0x01,0x44,0x00,0x00,0x80,0x00,0x00,0x00,0x00,0x04,0x00,0x00,0x00,
 0x00,0x00,0x00,0x10,0x00,0x04,0x00,0x11,0x20,0x08,0x02,0x12,0x00,0x00,0x00,
 0x00,0x00,0xa8,0x00,0x04,0x84,0x08,0x44,0x42,0x00,0x00,0x00,0x00,0x00,0x01,
 0x00,0x00,0x01,0x00,0x02,0x00,0x00,0x00,0x00,0x00,0x00,0x00,0x40,0x00,0x00,
 0x00,0x00,0x00,0x08,0x00,0x00,0x00,0x00,0x00,0x00,0x00,0x00,0x40,0x00,0x00,
 0x40,0x00,0x00,0x00,0x20,0x00,0x10,0x00,0x00,0x00,0x10,0x00,0x00,0x48,0x20,
 0x01,0x00,0x92,0xa2,0x20,0x00,0x00,0x00,0x10,0x02,0x00,0x00,0x00,0x00,0x00,
 0x00,0x00,0x40,0x00,0x80,0x00,0x00,0x00,0x08,0x02,0x01,0x02,0x12,0x00,0x04,
 0x40,0x02,0x20,0x00,0x00,0x00,0x00,0x00,0x00,0x00,0x00,0x00,0x00,0x00,0x00,
 0x00,0x04,0x08,0x04,0x00,0x40,0x04,0x40,0x00,0x20,0x40,0x10,0x80,0x00,0x00,
 0x04,0x90,0x80,0x14,0x89,0x48,0x84,0x00,0x00,0x80,0x00,0x20,0x00,0x00,0x00,
 0x00,0x40,0x00,0x80,0x00,0x04,0x80,0x08,0x40,0x00,0x04,0x80,0x00,0x08,0x01,
 0x00,0x00,0x10,0x40,0x00,0x00,0x00,0x20,0x00,0x10,0xa0,0x08,0x92,0x04,0x00,
 0x00,0x00,0x00,0x00,0x00,0x00,0x00,0x00,0x00,0x00,0x00,0x00,0x00,0x00,0x00,
 0x41,0x00,0x42,0x02,0x00,0x00,0x00,0x00,0x02,0x00,0x00,0x00,0x00,0x00,0x00};
