#define noname_width 155
#define noname_height 290
static char noname_bits[] = {
 0x52,0xa1,0x24,0x22,0x95,0x94,0x2a,0x25,0x11,0xa5,0xa4,0x2a,0x29,0x51,0x15,
 0x4a,0x92,0x84,0x44,0x00,0x15,0x55,0x52,0x95,0x52,0x4a,0x91,0x92,0xaa,0x52,
 0x2a,0x49,0x4a,0x15,0x49,0x25,0x49,0x2a,0x29,0x05,0x52,0x4a,0x95,0x54,0xa4,
 0x92,0x2a,0x29,0x25,0x95,0x44,0x92,0x94,0x48,0x55,0x48,0x92,0x48,0x52,0x02,
 0x49,0x25,0x49,0xa5,0x2a,0x69,0xa4,0xaa,0xa8,0xa4,0x52,0x55,0x25,0x55,0x49,
 0x2b,0xa9,0x52,0x29,0x01,0x2a,0xa9,0x92,0x48,0x49,0x85,0x4a,0x52,0x25,0x49,
 0x4a,0x24,0xa9,0x10,0x92,0xa4,0x42,0x8a,0x42,0x02,0x92,0x94,0x54,0x55,0xaa,
 0x54,0x25,0x95,0x52,0x55,0xa9,0x92,0x4a,0x4d,0x49,0x49,0x9a,0x52,0xa8,0x02,
 0xaa,0x52,0x25,0x49,0x49,0x29,0x52,0x22,0x25,0x49,0x45,0x55,0x24,0x51,0x95,
 0x92,0x28,0xa4,0x0a,0x01,0x45,0x2a,0x52,0xa5,0x54,0x4a,0x49,0xa9,0x54,0x25,
 0x29,0x92,0x92,0x54,0x52,0x49,0x85,0x12,0x65,0x02,0x54,0x49,0x95,0x94,0xa2,
 0x52,0x95,0x4a,0x09,0x55,0xaa,0x24,0x55,0xa5,0x24,0x2a,0xaa,0xa4,0x88,0x04,
 0x25,0xa5,0x52,0x52,0x2a,0x2a,0x52,0x2a,0x65,0x29,0x49,0x55,0x49,0x92,0x52,
 0x95,0x52,0x2a,0x55,0x02,0x4a,0x2a,0xa5,0x4a,0x55,0xc9,0x4a,0x51,0x8a,0x44,
 0x25,0x89,0x92,0x14,0x45,0x55,0xa4,0x48,0x90,0x04,0x52,0x95,0x54,0x29,0x49,
 0x25,0xa9,0x94,0xb2,0xaa,0x52,0xa5,0x54,0xa5,0xb2,0xaa,0x12,0x25,0x4b,0x02,
 0x2a,0xa9,0x92,0x52,0x95,0xaa,0x92,0xaa,0x44,0x12,0x95,0x2a,0x89,0x94,0xec,
 0x7f,0xa5,0x94,0x24,0x01,0x92,0x4a,0x49,0x4a,0x52,0x92,0x54,0x45,0x2a,0x55,
 0x49,0x91,0x54,0x4a,0x55,0x55,0x2b,0x49,0x92,0x02,0x2a,0x29,0x55,0x55,0xa5,
 0x24,0x25,0x94,0xaa,0x48,0x52,0xaa,0x52,0x51,0xff,0xff,0x56,0x52,0x49,0x04,
 0xa5,0x54,0x55,0x29,0x29,0x55,0x95,0xaa,0x92,0xa6,0x2a,0x25,0x95,0xaa,0xaa,
 0xaa,0x55,0x89,0xa4,0x02,0xaa,0x92,0x24,0x45,0x55,0xa9,0x54,0x25,0x25,0x29,
 0xa5,0x4a,0x52,0xea,0xff,0x7f,0xbf,0x52,0x12,0x01,0x92,0xaa,0xaa,0xb2,0x4a,
 0x55,0xaa,0xaa,0xaa,0xaa,0x52,0x52,0x29,0xd5,0xd5,0xd6,0xd5,0x29,0x49,0x02,
 0x6d,0x55,0x55,0x4d,0x55,0x95,0x49,0x29,0x49,0x92,0x94,0x94,0x52,0x7a,0x7f,
 0x7b,0x7f,0x4b,0xaa,0x04,0xb6,0xda,0xb6,0x6a,0x55,0x55,0x55,0x55,0x55,0x55,
 0x55,0x55,0x4a,0xe9,0xdd,0xbf,0xab,0x55,0x49,0x02,0xff,0xff,0xff,0xff,0xff,
 0xff,0xff,0xff,0xbf,0xdb,0xb6,0xb5,0xb5,0xbe,0xff,0xef,0x6e,0xab,0x92,0x02,
 0xff,0xff,0xff,0xff,0xbf,0xbb,0xbd,0xaa,0xea,0xb6,0x6d,0x5b,0xad,0xea,0xf7,
 0xfd,0xb7,0x56,0xaa,0x02,0xff,0xff,0xff,0xff,0xff,0xff,0xff,0xff,0xff,0xff,
 0xff,0xff,0xff,0xbf,0x5d,0xbf,0x9d,0xfe,0xff,0x07,0xff,0xdf,0xf7,0x77,0xfb,
 0xff,0xff,0xff,0xff,0xff,0xff,0xff,0xff,0xef,0xff,0xef,0xaf,0xb5,0xfb,0x06,
 0xdf,0xff,0xff,0xff,0xff,0xff,0xff,0xff,0x7f,0xff,0xf7,0xff,0xff,0x7b,0xf7,
 0x7a,0xab,0xfe,0xff,0x07,0xff,0xff,0x7f,0xff,0xff,0xff,0xff,0xff,0xff,0xff,
 0xfe,0x77,0xb7,0xdf,0xbf,0xef,0x5f,0xfd,0xff,0x07,0xff,0xff,0xfe,0xff,0xff,
 0xff,0xfb,0xff,0xff,0xf7,0xbf,0xfd,0xff,0xfd,0xda,0xb4,0xa2,0xf6,0xdf,0x07,
 0xff,0xfe,0xff,0xff,0xbf,0xbb,0x7f,0xff,0xf7,0xff,0xff,0xff,0xff,0xdf,0xff,
 0xfe,0x5f,0xfd,0xff,0x07,0xff,0xff,0xff,0xef,0xff,0xff,0xff,0xef,0xff,0x7f,
 0xf7,0xff,0xff,0xf7,0xab,0x55,0x90,0xfe,0xff,0x07,0xff,0xff,0x7f,0xff,0xfb,
 0xff,0xff,0xff,0xbf,0xff,0xff,0x7f,0xf7,0xfe,0x7e,0xbb,0x6f,0xfd,0xff,0x07,
 0xfb,0xf7,0xff,0xff,0xff,0xff,0xff,0xff,0xff,0xfb,0xff,0xfb,0xff,0xdf,0x57,
 0xad,0xd0,0xff,0xfd,0x07,0xdf,0xbf,0xfb,0xff,0xff,0xff,0xdf,0xff,0xfe,0xff,
 0x7f,0xff,0xff,0xf7,0xbf,0xaf,0xad,0xf6,0x7f,0x07,0xff,0xff,0xff,0xff,0xbf,
 0xbf,0xff,0xfe,0xff,0xdf,0xfe,0xdf,0xdf,0xbf,0x6d,0x51,0xd5,0xff,0xff,0x07,
 0xff,0xff,0xff,0x7b,0xff,0xfd,0xff,0xff,0xff,0xff,0xff,0xff,0xfb,0xf7,0xdf,
 0xde,0x6a,0xfd,0xff,0x07,0xff,0xff,0xff,0xff,0xf7,0xff,0xfb,0xdf,0xf7,0xfe,
 0xff,0xff,0xff,0xff,0xf6,0xa9,0xd5,0x7f,0xef,0x07,0xff,0xfd,0xbf,0xff,0xff,
 0xff,0xff,0xff,0xff,0xff,0xef,0xfd,0xff,0xbd,0xaf,0x6e,0x55,0xf5,0xff,0x07,
 0xff,0xdf,0xfb,0xff,0xff,0xff,0xff,0xff,0xff,0xff,0xff,0xef,0xff,0xef,0xda,
 0xb5,0x6f,0xfd,0xff,0x07,0xdf,0xff,0xff,0xff,0xff,0x7f,0xff,0xfb,0xff,0xff,
 0xfe,0xff,0xdf,0xbf,0x6b,0x6f,0xb5,0xf6,0xff,0x07,0xff,0xff,0xff,0xdd,0xff,
 0xfb,0xbf,0xff,0x7e,0xf7,0xff,0x7f,0xff,0x6f,0xad,0xdd,0xda,0xfa,0xff,0x07,
 0xff,0xff,0xff,0xff,0xff,0xff,0xfb,0xff,0xff,0xff,0xff,0xff,0xff,0xbb,0x75,
 0x6b,0xb7,0xf6,0xff,0x07,0xff,0xff,0xef,0xff,0xff,0xff,0xff,0xff,0xef,0xff,
 0xb7,0xff,0xff,0x4f,0xaa,0xbd,0xed,0xfd,0xff,0x07,0xff,0xfd,0xfe,0xff,0xbf,
 0xff,0xff,0xff,0xff,0xff,0xff,0xfb,0xbf,0xbf,0x6a,0xef,0xaa,0xfe,0xdf,0x07,
 0xff,0xff,0xff,0x7f,0xff,0xef,0xff,0xf7,0xff,0xbf,0xff,0xdf,0xfa,0x56,0xa8,
 0xbd,0x77,0xff,0xff,0x07,0xef,0xff,0xff,0xff,0xfb,0xff,0xff,0xff,0xfe,0xfb,
 0xff,0xff,0xef,0xbf,0x6a,0xfb,0xad,0xef,0xfe,0x07,0xff,0xff,0xff,0xfe,0xff,
 0x7f,0x7f,0xff,0xff,0xff,0xff,0xff,0xbf,0x7b,0xd5,0x6f,0xf7,0xfe,0xff,0x07,
 0x7f,0xef,0xf7,0xff,0xff,0xfe,0xff,0xff,0xf7,0xff,0xfb,0xb6,0xf6,0xbe,0xa9,
 0xfa,0xbd,0xff,0xff,0x07,0xff,0xff,0xfe,0xef,0xff,0xff,0xfb,0xdf,0xff,0xef,
 0xaf,0xff,0xdf,0xf7,0xb7,0xdd,0xf7,0xff,0xdf,0x07,0xff,0xff,0xbf,0xff,0xde,
 0xf7,0xff,0xff,0xff,0xfe,0xff,0xdb,0xf6,0xfe,0xdd,0xf6,0x5e,0xff,0xff,0x07,
 0xff,0xff,0xff,0xff,0xff,0xbf,0xbf,0xfb,0xff,0x7f,0xfb,0xfe,0xff,0xdb,0xb7,
 0xfb,0xfb,0xff,0xff,0x07,0xef,0xff,0xff,0xff,0xff,0xff,0xff,0xff,0xfd,0xff,
 0xbf,0x7f,0x5b,0x7f,0x6f,0xbd,0xdf,0xdf,0xfd,0x07,0xff,0xdd,0xff,0xfd,0xff,
 0xff,0xff,0xff,0xff,0xff,0xff,0xfb,0xff,0xff,0xbf,0xeb,0xf6,0xfd,0xff,0x07,
 0xff,0xff,0xff,0xff,0xff,0xff,0xfb,0xde,0xbf,0xdf,0xef,0xde,0xfb,0xed,0xef,
 0xb6,0xff,0xff,0x77,0x07,0xff,0xff,0xf7,0xff,0xbd,0xff,0xff,0xff,0xff,0xfd,
 0xfe,0x7f,0xdf,0x7f,0xbf,0xda,0xdf,0xff,0xff,0x07,0xbb,0xff,0xff,0xdf,0xff,
 0xdf,0xff,0xff,0xfd,0xff,0xb7,0xed,0xff,0xff,0xfd,0xf6,0xfb,0xff,0xff,0x07,
 0xff,0x7f,0x7f,0xff,0xff,0xfd,0xff,0xff,0xff,0xbf,0xff,0xff,0xfd,0xf7,0xbf,
 0xfe,0xff,0xff,0xff,0x07,0xff,0xf7,0xff,0xff,0xff,0xff,0x7f,0xff,0xff,0xff,
 0xdb,0x7f,0xff,0xff,0x7f,0x7b,0xff,0xee,0xff,0x07,0xff,0xff,0xff,0xff,0xff,
 0xff,0xff,0xff,0xff,0xd7,0xfe,0xfa,0xef,0xbe,0xff,0xff,0xf7,0x7f,0x77,0x07,
 0xff,0xff,0xff,0xff,0xf7,0xff,0xfb,0xff,0xff,0xff,0xff,0xdf,0xff,0xff,0xdf,
 0xff,0xff,0xff,0xff,0x07,0x52,0xaa,0xaa,0xaa,0xae,0x56,0xef,0xaa,0xaa,0xdd,
 0xdb,0xff,0xff,0xff,0xff,0xff,0xff,0xff,0xff,0x07,0xad,0xdb,0xb6,0xdd,0xf5,
 0xff,0xbd,0xff,0xff,0x7f,0xff,0xfe,0xfb,0x7b,0xff,0xff,0xff,0xff,0xff,0x07,
 0x55,0xaa,0xaa,0x32,0x4b,0xaa,0xaa,0xaa,0xaa,0xf7,0xff,0xff,0xff,0xff,0x77,
 0x91,0xaa,0xaa,0x6d,0x07,0xad,0xad,0xaa,0xd6,0xb5,0xd5,0xd6,0x56,0xed,0xfe,
 0xdb,0x7f,0xbf,0xff,0xff,0x6e,0x6d,0x7f,0xdf,0x05,0x6a,0xd5,0xb6,0x2a,0xad,
 0xaa,0x5a,0xb5,0xfa,0xdf,0xff,0xf7,0xff,0xff,0xff,0xa9,0xaa,0x48,0xa9,0x02,
 0x55,0x55,0x55,0xdb,0x55,0x5b,0x6b,0xab,0xad,0xfb,0xfe,0xff,0xff,0xbb,0xff,
 0xaa,0x55,0xd7,0x6a,0x05,0xad,0x5a,0x55,0x25,0xb5,0xaa,0xaa,0xaa,0xf6,0xff,
 0xf7,0xff,0xff,0xff,0xbb,0xad,0x6a,0xb5,0x56,0x05,0x55,0x6b,0x55,0x75,0x55,
 0x55,0x55,0xb5,0xfd,0xff,0xff,0xff,0xfb,0xff,0x7f,0x55,0xad,0xaa,0xaa,0x02,
 0xaa,0xaa,0xd6,0x4a,0x55,0x55,0x55,0xad,0x7f,0xb7,0xff,0xfe,0xdf,0xff,0xff,
 0xaa,0x52,0x55,0x55,0x03,0x55,0x55,0x55,0xb5,0xaa,0xad,0xaa,0x55,0xff,0xff,
 0xfd,0xff,0xff,0xff,0x7f,0x55,0xad,0xaa,0x6a,0x05,0xaa,0xaa,0xaa,0xaa,0xaa,
 0xd2,0xb6,0xfa,0xdb,0xfb,0xef,0xff,0xff,0x77,0xb7,0xaa,0xaa,0xd6,0xaa,0x02,
 0xaa,0xaa,0xaa,0x56,0xab,0x5a,0x55,0xd5,0xff,0xbf,0xff,0xff,0xff,0xff,0x7f,
 0x55,0x55,0x55,0x55,0x05,0x55,0x55,0x55,0x55,0x55,0x55,0x55,0x45,0xff,0xfe,
 0xff,0x7f,0xff,0xff,0xff,0xaa,0xaa,0xaa,0xaa,0x02,0x55,0x55,0xb5,0xaa,0xaa,
 0xaa,0xaa,0xd2,0xff,0xef,0xff,0xff,0xff,0xff,0x5f,0x55,0x55,0x55,0x55,0x05,
 0xaa,0xaa,0xaa,0xaa,0xaa,0xaa,0xaa,0x08,0xfd,0xff,0xff,0xff,0x77,0x7f,0xff,
 0xaa,0xaa,0xaa,0xaa,0x02,0x55,0x55,0x55,0x55,0x55,0x55,0x55,0xa2,0xfe,0xff,
 0xfe,0xfb,0xff,0xff,0xbf,0x55,0x55,0x55,0x55,0x05,0xaa,0xaa,0xaa,0xaa,0xaa,
 0xaa,0xaa,0x08,0xf5,0xfd,0xff,0xff,0xff,0xdf,0xff,0xaa,0xaa,0xaa,0xaa,0x02,
 0x4a,0x55,0x55,0x55,0x55,0x55,0x55,0x44,0xfa,0xff,0xff,0xff,0xff,0xff,0xfb,
 0x55,0x55,0x55,0x55,0x05,0x92,0x94,0x92,0x52,0xa5,0x52,0x0a,0x91,0xaa,0xff,
 0xff,0xff,0xff,0xfd,0x7f,0x88,0xa4,0x54,0x55,0x01,0xaa,0xaa,0x54,0x4a,0xaa,
 0x54,0x55,0x20,0xfd,0xf7,0xff,0xff,0xff,0xff,0x7f,0x55,0x55,0x2a,0x29,0x05,
 0xaa,0x52,0xa5,0xaa,0x2a,0xa5,0x14,0x45,0xf5,0xfe,0xff,0xff,0xff,0xbf,0x5f,
 0x22,0x92,0xa2,0x52,0x02,0x49,0xa9,0xaa,0x52,0x4a,0x95,0x4a,0xa8,0xda,0xff,
 0xff,0xff,0xff,0xff,0xbf,0x54,0x49,0x55,0x4a,0x01,0x2a,0x25,0x55,0xaa,0x52,
 0xaa,0x92,0x50,0xff,0xff,0xff,0xff,0xbb,0xfd,0x86,0x92,0x2a,0x8a,0xa4,0x02,
 0xa5,0x94,0x92,0x4a,0xaa,0x52,0x25,0x8a,0xfe,0xff,0xff,0xff,0xff,0xef,0x5f,
 0xa9,0x94,0x51,0x95,0x04,0xaa,0xaa,0xa4,0xaa,0x4a,0x25,0x09,0x70,0xff,0xff,
 0xff,0xdf,0xff,0xff,0x27,0x42,0x22,0x2a,0x29,0x01,0x55,0x4a,0x55,0x52,0xa9,
 0xaa,0xa2,0xaa,0xfd,0xff,0xff,0xff,0xff,0xff,0x4f,0xa9,0xaa,0x95,0x54,0x05,
 0x44,0xa9,0xaa,0x8a,0x2a,0x29,0x09,0xe4,0xff,0xff,0xdf,0xfd,0xff,0xff,0x53,
 0x2a,0x55,0xa8,0xa2,0x04,0x33,0x95,0x24,0x69,0x4a,0x95,0x02,0x55,0xff,0xff,
 0xff,0xff,0xff,0xbb,0x2b,0x95,0x22,0x25,0x55,0x02,0x54,0xa5,0x4a,0x95,0x52,
 0x2a,0xa4,0xb4,0xff,0xff,0xff,0xff,0xee,0xff,0x45,0x22,0x55,0x55,0x8a,0x02,
 0x4a,0x55,0xaa,0x54,0x55,0xa5,0x11,0xda,0xff,0xff,0xff,0xff,0x7f,0xff,0x53,
 0xa9,0x90,0x24,0xa5,0x02,0x2a,0xa9,0x54,0x49,0x4a,0x29,0xc4,0xf5,0xff,0xff,
 0xff,0xdf,0xff,0x7f,0x88,0x4a,0x55,0x49,0x28,0x01,0xa5,0x2a,0x25,0x55,0xa9,
 0xaa,0x22,0xad,0xff,0xff,0xff,0xff,0xff,0xf7,0xab,0x24,0x25,0x55,0xab,0x04,
 0xaa,0xa4,0x4a,0xa9,0x12,0x15,0xd4,0xfa,0xff,0xff,0xfd,0xff,0xef,0xbd,0x90,
 0x52,0x4a,0x52,0x24,0x05,0x25,0x95,0x52,0x95,0xd4,0xa4,0xa2,0xd6,0xff,0xff,
 0xff,0xfb,0xfe,0x7f,0x4a,0x94,0x52,0x95,0xaa,0x02,0xaa,0xaa,0x54,0x52,0x95,
 0x4a,0x5a,0xfb,0xff,0xff,0xdf,0xff,0xff,0x5f,0x55,0x29,0xa5,0xa8,0x92,0x04,
 0x52,0x92,0xaa,0xaa,0xaa,0xaa,0xa4,0xfd,0xff,0xff,0xff,0xff,0xbf,0x5f,0x22,
 0x95,0x28,0x25,0x49,0x02,0x4a,0x55,0x92,0x24,0x91,0x04,0x55,0xff,0xff,0xff,
 0xff,0xdf,0xfb,0x2f,0x95,0x52,0x4b,0x55,0xaa,0x02,0x24,0x29,0x49,0x55,0x55,
 0xb5,0xea,0xfa,0xdf,0xdf,0xff,0xff,0xff,0x9f,0xa2,0x94,0xa4,0x4a,0xa5,0x02,
 0x92,0x44,0x12,0x81,0x08,0x41,0x5a,0xff,0xff,0xfd,0xff,0x7d,0xff,0x4b,0x08,
 0x21,0x12,0x10,0x08,0x04,0x49,0x22,0xa9,0x34,0xa5,0x94,0xaa,0xff,0xff,0xff,
 0xff,0xff,0x7f,0x8f,0xa4,0x94,0xa4,0x4a,0x45,0x01,0x24,0x49,0x02,0x81,0x10,
 0xa9,0xda,0xff,0xff,0xff,0xbb,0xef,0xf7,0x03,0x10,0x40,0x00,0x24,0x10,0x02,
 0x42,0x92,0xa8,0x54,0x4a,0x42,0xb5,0xfd,0xff,0xff,0xff,0xff,0xff,0x27,0x05,
 0x15,0xaa,0x82,0x8a,0x00,0x28,0x44,0x42,0x22,0x90,0x88,0xea,0xff,0xff,0xff,
 0xff,0x7f,0xff,0x80,0x50,0x40,0x00,0x08,0x20,0x02,0x8a,0x92,0x94,0x48,0x25,
 0xa5,0xba,0xff,0xff,0xff,0xff,0xfb,0xff,0x2b,0x84,0x14,0x55,0xa5,0x8a,0x00,
 0x10,0x44,0x10,0x05,0x09,0xa8,0xea,0xff,0xff,0xff,0xdf,0xdf,0x7f,0x00,0x11,
 0x20,0x00,0x10,0x20,0x02,0x4a,0x29,0xa5,0x50,0x52,0x55,0xfd,0xff,0xf7,0xdf,
 0xff,0xff,0xfb,0x40,0x44,0x8a,0x2a,0x45,0x8a,0x00,0x22,0x82,0x08,0x45,0x44,
 0x49,0xeb,0xff,0xff,0xff,0xff,0xff,0x5f,0x0a,0x10,0x21,0x40,0x10,0x21,0x02,
 0x48,0x29,0xa5,0x90,0x22,0xaa,0xfa,0xff,0x7f,0xff,0xfb,0xfb,0x7f,0x40,0x05,
 0x10,0x15,0x45,0x88,0x00,0x12,0x12,0x10,0x25,0x94,0x55,0xfd,0xbf,0xff,0xff,
 0xff,0xff,0x1f,0x12,0x50,0x45,0x40,0x10,0x21,0x02,0xa4,0xa4,0x8a,0x90,0x42,
 0xa5,0xfe,0xff,0xff,0xff,0xff,0xbf,0xaf,0x80,0x04,0x10,0x14,0x45,0x88,0x00,
 0x82,0x10,0x51,0x4a,0xaa,0x55,0xf5,0xff,0xff,0xf7,0x7f,0xff,0x0f,0x2a,0x52,
 0x45,0x21,0x88,0x22,0x02,0x28,0x45,0x0a,0x11,0x51,0xa5,0xfe,0xff,0xff,0xff,
 0xfd,0xff,0x97,0x80,0x08,0x20,0x88,0x22,0x88,0x00,0x42,0x14,0x21,0x22,0xe4,
 0xaa,0xff,0xff,0xff,0xff,0xff,0xff,0x01,0x12,0xa2,0x8a,0x22,0x88,0x22,0x02,
 0x94,0x42,0x94,0x94,0x52,0xa1,0xfe,0xff,0xff,0xff,0xdf,0xef,0xa7,0x04,0x11,
 0x40,0x10,0x45,0x08,0x00,0x22,0x28,0x21,0x21,0xb4,0xaa,0xff,0xff,0xff,0xdf,
 0xff,0x7f,0x00,0x50,0x44,0x15,0x45,0x10,0xa1,0x04,0x90,0x4a,0x4a,0x4a,0xd5,
 0xaa,0xfe,0xff,0xff,0xfd,0xfb,0xff,0x22,0x05,0x11,0x40,0x90,0x44,0x14,0x01,
 0x4a,0x20,0x88,0x10,0xb4,0xd4,0xff,0xff,0xff,0xff,0xff,0x0f,0x08,0x10,0x44,
 0x05,0x01,0x12,0x01,0x04,0x01,0x8a,0x52,0x4a,0x69,0x55,0xff,0xff,0xff,0xff,
 0xff,0x9f,0xa2,0x44,0x21,0xa8,0x54,0x41,0x50,0x01,0x54,0x11,0x01,0x21,0x5a,
 0xd5,0xdf,0xff,0xff,0xff,0xbf,0x00,0x08,0x12,0x8a,0x00,0x02,0x14,0x05,0x00,
 0x22,0x48,0x54,0x14,0x55,0xea,0xff,0xff,0xff,0xff,0xff,0x4f,0x22,0x81,0x20,
 0xaa,0x50,0x41,0xa0,0x02,0x84,0x22,0x21,0xa1,0x24,0x75,0xff,0xfb,0xfb,0xbf,
 0xbf,0x80,0x88,0x54,0x92,0x00,0x05,0x0a,0x09,0x00,0x51,0x48,0x4a,0x14,0x95,
 0xd4,0xff,0xff,0xff,0xff,0xff,0x20,0x02,0x00,0x04,0x54,0xa0,0x40,0x42,0x02,
 0x84,0x22,0x91,0x20,0x54,0xd5,0xff,0xff,0xff,0xfd,0xff,0x09,0xa8,0xaa,0x50,
 0x81,0x0a,0x0a,0x08,0x00,0x52,0x48,0x08,0x95,0x22,0x55,0xfd,0xff,0xff,0xff,
 0xfb,0x23,0x05,0x00,0x25,0x28,0x40,0xa1,0xa2,0x02,0x08,0x25,0x25,0x42,0x94,
 0xd4,0xff,0xff,0xff,0xff,0xff,0x82,0x50,0x15,0x80,0x42,0x15,0x04,0x08,0x00,
 0xa2,0x48,0x90,0x28,0xa2,0xaa,0xfe,0xff,0xff,0xff,0xff,0x0b,0x04,0xa0,0x54,
 0x10,0x20,0xa9,0x82,0x02,0x04,0x81,0x22,0x81,0x14,0x49,0xfd,0xff,0xff,0xff,
 0xff,0x43,0x90,0x04,0x81,0x4a,0x89,0x00,0x28,0x00,0x52,0x2a,0x48,0x54,0xa2,
 0xaa,0xfe,0xff,0xff,0xff,0xff,0x07,0x25,0x51,0x28,0x00,0x22,0xa8,0x42,0x02,
 0x88,0x48,0x25,0x91,0x2a,0x55,0xfb,0xff,0xfb,0xff,0xff,0x12,0x80,0x84,0x42,
 0x55,0x88,0x02,0x08,0x00,0x52,0x22,0x88,0x24,0x55,0xd5,0xfe,0xff,0xff,0xbf,
 0xfb,0x43,0x29,0x20,0x10,0x00,0x22,0x24,0x85,0x02,0x04,0x49,0x11,0x49,0x55,
 0x6d,0xff,0xff,0x7f,0xff,0xff,0x05,0x84,0x8a,0x4a,0x55,0x88,0x80,0x10,0x00,
 0xa9,0x24,0x4a,0xa2,0x56,0xb5,0xff,0xfe,0xff,0xf7,0xff,0x23,0x41,0x40,0x20,
 0x00,0x05,0x29,0xa4,0x02,0x00,0x92,0x20,0x49,0xad,0x5d,0xfd,0xff,0xff,0xff,
 0xff,0x15,0x14,0x15,0x85,0x2a,0x50,0x84,0x00,0x00,0xaa,0x24,0x8a,0x50,0xd5,
 0xfe,0xff,0xff,0xff,0xff,0xff,0x47,0x81,0x80,0x20,0x41,0x05,0x21,0x55,0x02,
 0x20,0x41,0x28,0xa2,0x5a,0xab,0xfe,0xef,0xff,0xff,0xf7,0x07,0x24,0x2a,0x15,
 0x14,0x48,0x04,0x00,0x00,0x4a,0x14,0x85,0x14,0xd5,0x7e,0xf7,0xff,0xff,0xff,
 0xff,0x2f,0x09,0x41,0x40,0x85,0x12,0xa9,0x92,0x02,0x24,0xa1,0x10,0xa1,0x5a,
 0xff,0xfd,0xff,0xfe,0x7e,0x7f,0x17,0x20,0x14,0x05,0x10,0x40,0x00,0x00,0x00,
 0x89,0x14,0xa4,0x14,0xd5,0x5d,0xff,0xff,0xff,0xff,0xff,0x4f,0x92,0x82,0x50,
 0x45,0x15,0xa4,0x54,0x02,0x24,0xa2,0x02,0xa2,0x6e,0xff,0xff,0xff,0xff,0xff,
 0xff,0x1f,0x08,0x28,0x02,0x08,0xa0,0x08,0x02,0x01,0x82,0x10,0x54,0x11,0x59,
 0xff,0x7d,0xff,0xef,0xef,0xef,0x2f,0x41,0x85,0xa8,0xa2,0x0a,0x82,0x48,0x00,
 0x28,0x45,0x21,0xa4,0xd6,0xfd,0xff,0xff,0xff,0xff,0xff,0x5f,0x08,0x10,0x02,
 0x04,0x50,0x14,0x20,0x02,0x4a,0x28,0x94,0x12,0x69,0xff,0xff,0xf7,0xff,0xff,
 0xff,0x3f,0x92,0x44,0x51,0x51,0x05,0x81,0x8a,0x00,0x20,0x41,0x41,0x48,0xd4,
 0xfe,0xff,0xff,0xff,0xff,0xfd,0x9f,0x00,0x10,0x04,0x02,0x48,0x14,0x00,0x02,
 0x4a,0x2a,0x14,0x85,0x6a,0xfb,0xff,0xff,0xff,0xff,0xff,0x7f,0x48,0x25,0xa1,
 0xa8,0x12,0x82,0xa4,0x00,0x10,0x81,0x50,0x10,0xd8,0xff,0xff,0xff,0xff,0xfe,
 0x7f,0x7f,0x02,0x80,0x04,0x02,0x40,0x28,0x10,0x02,0x4a,0x54,0x0a,0x4a,0xe5,
 0xff,0xff,0xff,0xff,0xef,0xff,0xbf,0x20,0x29,0xa0,0x48,0x95,0x02,0x85,0x00,
 0x24,0x11,0x51,0x21,0xf4,0xff,0xff,0xdf,0xff,0xff,0xff,0xff,0x45,0x44,0x05,
 0x22,0x00,0x48,0x10,0x02,0x89,0x44,0x08,0x14,0xe9,0xff,0xff,0xff,0xfb,0xff,
 0xff,0xff,0x10,0x11,0xa8,0x88,0xa4,0x12,0x8a,0x00,0x20,0x12,0xa5,0xa0,0xb4,
 0xff,0xff,0xff,0xff,0xff,0xee,0x7b,0x02,0x84,0x00,0x01,0x02,0x40,0x20,0x04,
 0x95,0xa4,0x10,0x15,0xe9,0xff,0xff,0xff,0xff,0xff,0xff,0xff,0x49,0x41,0x54,
 0xa8,0x50,0x12,0x09,0x01,0x20,0x02,0x42,0x40,0xf4,0xff,0xff,0xfe,0xff,0xff,
 0xff,0xbf,0x20,0x14,0x81,0x02,0x02,0x41,0x20,0x00,0x95,0xa8,0x94,0x2a,0xe9,
 0xff,0xff,0x7f,0xff,0xff,0xff,0xfe,0x0a,0x41,0x28,0xa8,0x48,0x14,0x0a,0x02,
 0x40,0x42,0x22,0x84,0xf4,0xff,0xff,0xff,0xff,0xff,0xff,0xff,0x21,0x04,0x81,
 0x00,0x02,0x41,0xa0,0x00,0x15,0x91,0x10,0x29,0xd2,0xff,0xff,0xff,0xff,0xff,
 0xff,0xff,0x0b,0x51,0x2a,0xaa,0x50,0x28,0x0a,0x00,0x50,0x44,0x42,0x40,0xe8,
 0x7f,0xff,0xff,0xf7,0xdd,0xfd,0xfb,0x22,0x00,0x80,0x00,0x02,0x81,0x20,0x05,
 0x0a,0x29,0x94,0x2a,0xf5,0xff,0xff,0xef,0xff,0xff,0xbf,0xff,0x85,0x94,0x52,
 0xa4,0x48,0x24,0x48,0x00,0x50,0x84,0x10,0x84,0xc8,0xff,0xbf,0x7f,0xff,0xff,
 0xff,0xff,0x03,0x42,0x08,0x11,0x20,0x90,0x02,0x01,0x8a,0x22,0xa5,0x22,0xf2,
 0xff,0xff,0xff,0xff,0xff,0xff,0xff,0xab,0x10,0x42,0x84,0x0a,0x05,0x40,0x00,
 0x20,0x48,0x08,0x88,0xf4,0xff,0xff,0xff,0xff,0xff,0xff,0xdd,0x05,0x42,0x08,
 0x10,0x20,0x90,0x14,0x05,0x15,0x25,0x92,0x52,0xd2,0xff,0xff,0xff,0xbf,0xff,
 0xff,0xff,0x47,0x08,0x22,0x45,0x8a,0x04,0x41,0x00,0x40,0x90,0x40,0x04,0xf9,
 0xff,0xff,0xff,0xff,0xff,0xff,0xff,0x09,0x20,0x80,0x10,0x00,0x10,0x04,0x01,
 0x2a,0x25,0x2a,0x51,0xe4,0xff,0xff,0xbf,0xfb,0xef,0xde,0xff,0x07,0x89,0x2a,
 0x84,0x52,0x45,0x51,0x00,0x80,0x88,0x84,0x04,0xf9,0xff,0xff,0x7b,0xff,0xff,
 0xff,0xff,0x4f,0x24,0x80,0x10,0x08,0x10,0x04,0x01,0x55,0x44,0x22,0xa2,0xd4,
 0xff,0xff,0xbf,0xfe,0xfe,0xff,0xdf,0x17,0x00,0x24,0x84,0x42,0x04,0x41,0x00,
 0x80,0x12,0x89,0x08,0xf9,0xff,0xbf,0xbf,0xfe,0xff,0xff,0xfd,0x87,0xa2,0x90,
 0x28,0x08,0x51,0x04,0x01,0x55,0xa0,0x40,0xa4,0xf4,0xff,0xff,0x5f,0xfd,0xff,
 0xff,0xff,0x2f,0x08,0x05,0x42,0x42,0x04,0x51,0x02,0x88,0x0a,0x15,0x11,0xfa,
 0xff,0xff,0x3f,0xfd,0xff,0xf7,0xff,0x0e,0x00,0x50,0x08,0x08,0x10,0x00,0x00,
 0x52,0xa0,0xa0,0x44,0xed,0xff,0xff,0x5f,0xfa,0x7f,0xff,0xff,0x4f,0xa9,0x04,
 0x82,0x22,0x85,0x54,0x02,0x08,0x05,0x15,0x12,0xfa,0xff,0xff,0x3f,0xfa,0xfb,
 0xbf,0xdf,0x17,0x00,0x92,0x28,0x88,0x20,0x00,0x00,0x45,0x52,0x82,0x84,0xfa,
 0xff,0xff,0x3f,0xf5,0xff,0xff,0xff,0x1f,0xa5,0x20,0x02,0x22,0x08,0x8a,0x02,
 0x90,0x88,0x28,0x12,0xec,0xff,0xff,0x5f,0xb4,0xff,0xff,0xfb,0x57,0x00,0x82,
 0x48,0x80,0xa4,0x20,0x00,0x25,0x25,0x45,0xa1,0xfa,0xdf,0xff,0x7f,0xf4,0xff,
 0xff,0xff,0x2f,0x94,0x28,0x11,0x29,0x01,0x08,0x02,0x88,0x10,0x08,0x04,0xf5,
 0xff,0xff,0x2f,0xe8,0xff,0xff,0xff,0xbf,0x40,0x00,0x04,0x00,0xa4,0x22,0x00,
 0x22,0x44,0xa5,0x52,0xfa,0xff,0xff,0x5f,0xf2,0xff,0xff,0xff,0x3f,0x12,0x24,
 0x81,0x4a,0x01,0x88,0x02,0x44,0x09,0x10,0x24,0xfd,0xff,0xfb,0x1b,0xe8,0xff,
 0xff,0xbf,0x5f,0x80,0x80,0x28,0x00,0x14,0x21,0x00,0x29,0xa2,0x4a,0x89,0xfc,
 0xff,0xff,0x5f,0xd4,0xff,0xff,0xff,0x3f,0x10,0x29,0x82,0x28,0x41,0x08,0x01,
 0x84,0x48,0x00,0x20,0xff,0xff,0xff,0x47,0xf0,0xff,0xbf,0xff,0x5f,0x01,0x00,
 0x08,0x82,0x08,0x21,0x00,0x21,0x92,0xaa,0x0a,0xfa,0xff,0xff,0x1d,0xc9,0xff,
 0xff,0xff,0x7f,0x24,0x49,0x82,0x20,0x42,0x08,0x02,0x94,0x08,0x10,0x51,0xee,
 0xff,0xff,0x27,0x64,0xef,0xfb,0xff,0x2f,0x00,0x00,0x28,0x04,0x08,0xa1,0x00,
 0x42,0x52,0x45,0x8a,0xfa,0xff,0xff,0x4f,0xd1,0xff,0xff,0xff,0x7f,0x21,0xa5,
 0x02,0x91,0x42,0x08,0x00,0x08,0x81,0x28,0x20,0xfe,0xff,0xff,0x1b,0xc4,0xff,
 0xff,0xb7,0xbf,0x04,0x00,0x48,0x44,0x08,0x21,0x01,0xa5,0x54,0x84,0x8a,0xfa,
 0xff,0xbf,0x2f,0x51,0xff,0xff,0xff,0x7f,0x10,0x29,0x02,0x11,0x42,0x08,0x02,
 0x08,0x81,0x12,0x10,0xfe,0xff,0xff,0x47,0xc0,0xff,0xff,0xff,0x5f,0x44,0x80,
 0x10,0x80,0x08,0x45,0x00,0x52,0x2a,0xa1,0x4a,0xf5,0xff,0xff,0x3b,0x94,0xfe,
 0xff,0xff,0x7f,0x01,0x24,0x84,0x2a,0x40,0x10,0x01,0x08,0x91,0x04,0x24,0xfa,
 0xff,0xfd,0x87,0x00,0xff,0xff,0xff,0xbe,0x48,0x81,0x10,0x80,0x12,0x01,0x00,
 0x45,0x24,0x52,0x89,0xfc,0xef,0xff,0x2b,0x55,0xfd,0xff,0xfb,0x7f,0x02,0x28,
 0x84,0x24,0x44,0x48,0x02,0x28,0x41,0x88,0x20,0xfd,0xff,0xff,0x12,0x00,0xfd,
 0xff,0xff,0x5f,0x48,0x80,0x10,0x10,0x01,0x22,0x00,0x85,0x94,0x52,0x14,0xea,
 0xff,0xff,0x0b,0xa9,0xfc,0xff,0xff,0xff,0x02,0x25,0x44,0x45,0xa4,0x08,0x02,
 0x28,0x22,0x04,0x41,0x74,0xff,0xff,0x45,0x00,0xfb,0xff,0xff,0x3b,0x10,0x80,
 0x00,0x00,0x00,0x42,0x00,0x05,0x11,0xa1,0x94,0xfa,0xff,0xff,0x12,0x94,0xfc,
 0xdf,0xbf,0xbf,0x84,0x24,0xa8,0x94,0x94,0x10,0x02,0x50,0xa4,0x14,0x22,0xfe,
 0xdf,0xbf,0x42,0x41,0xf6,0xff,0xff,0x3f,0x20,0x80,0x02,0x00,0x00,0x44,0x00,
 0x8a,0x12,0x42,0x91,0xfa,0xff,0x7f,0x11,0x14,0xfd,0xff,0xff,0x5f,0x09,0x29,
 0x40,0xaa,0x4a,0x01,0x02,0x50,0x44,0x14,0x84,0xfe,0xff,0x7f,0x44,0x40,0xf4,
 0xff,0xff,0x3f,0x00,0x00,0x09,0x00,0x20,0x28,0x00,0x0a,0x91,0x82,0x52,0xfa,
 0xff,0x5f,0x01,0x15,0xfa,0xff,0xff,0x2f,0x52,0x49,0x20,0x25,0x09,0x82,0x02,
 0x20,0x4a,0x28,0x88,0xff,0xff,0x1f,0x94,0xa0,0xf4,0xff,0xff,0x3f,0x00,0x00,
 0x85,0x00,0x20,0x11,0x00,0x4a,0x21,0x8a,0xa2,0xfe,0xff,0x6f,0x21,0x08,0xe9,
 0xff,0xff,0x5f,0x49,0x52,0x20,0xa8,0x0a,0x40,0x02,0x24,0x84,0x20,0xc4,0xfb,
 0xff,0x06,0x80,0x22,0xf4,0xff,0xff,0x1f,0x00,0x04,0x89,0x02,0x20,0x05,0x00,
 0x89,0x52,0x4a,0x29,0xff,0xff,0x5f,0x2a,0x88,0xd2,0xff,0xf7,0x5f,0x4a,0x41,
 0x20,0x20,0x49,0x20,0x01,0x24,0x04,0x01,0xd0,0xff,0xef,0x03,0x41,0x11,0xd4,
 0xff,0xbf,0x2f,0x00,0x14,0x09,0x09,0x04,0x09,0x04,0x09,0x51,0xaa,0x4a,0xff,
 0xff,0x57,0x10,0x44,0xe1,0xff,0xff,0x1f,0x10,0x01,0x40,0x20,0x21,0x40,0x01,
 0xa0,0x04,0x00,0xb0,0xff,0xff,0x09,0x49,0x12,0x94,0xff,0xff,0x2f,0x41,0x48,
 0x01,0x05,0x84,0x04,0x00,0x15,0xa2,0xaa,0xca,0xff,0xff,0x27,0x82,0x40,0xc9,
 0xff,0xff,0x5f,0x10,0x02,0x54,0x40,0x11,0x41,0x02,0x48,0x04,0x10,0xf2,0xff,
 0xff,0x02,0x08,0x0a,0xa0,0xff,0xff,0x1f,0x05,0x28,0x01,0x09,0x00,0x08,0x00,
 0x22,0xa9,0x8a,0xa8,0xff,0xff,0x95,0xa2,0xa0,0xaa,0xff,0xff,0x5f,0x80,0x02,
 0x48,0x40,0x4a,0x92,0x02,0x84,0x44,0x20,0xf5,0xff,0xff,0x45,0x08,0x12,0xd0,
 0xff,0xff,0x17,0x12,0x48,0x02,0x15,0x20,0x00,0x00,0x29,0x21,0x4a,0xd4,0xff,
 0xff,0x13,0x92,0x84,0x4a,0xff,0xff,0xaf,0x40,0x82,0x40,0x00,0x09,0x49,0x01,
 0x40,0x94,0x10,0xf9,0xff,0x7f,0x45,0x40,0x10,0xa0,0xff,0xff,0x1f,0x04,0x10,
 0x14,0x29,0x44,0x00,0x00,0x2a,0x22,0x45,0xea,0xff,0xff,0x13,0x15,0x45,0xaa,
 0xff,0xff,0x1f,0x91,0x04,0x01,0x02,0x11,0x52,0x02,0x84,0x04,0x28,0xf5,0xff,
 0xff,0x46,0x00,0x10,0x40,0xff,0xff,0x57,0x00,0x10,0x24,0x90,0x40,0x00,0x00,
 0x29,0x51,0x05,0xea,0xff,0xfe,0x15,0xa9,0x8a,0xaa,0xff,0xff,0x1f,0xa4,0x44,
 0x81,0x04,0x12,0x49,0x02,0x40,0x04,0x52,0xfc,0xff,0xff,0x13,0x00,0x20,0xc0,
 0xfe,0xf7,0x17,0x00,0x00,0x24,0x10,0x00,0x00,0x00,0x2a,0xa9,0x84,0xea,0xff,
 0xff,0x8b,0xa4,0x8a,0x54,0xff,0xff,0x2f,0x49,0x92,0x08,0x44,0x49,0x95,0x02,
 0x90,0x00,0x11,0xfd,0xff,0xff,0x25,0x02,0x20,0x40,0xff,0xff,0x1f,0x00,0x00,
 0x20,0x01,0x20,0x00,0x00,0x25,0x54,0xa4,0xf2,0xff,0xff,0x0b,0x50,0x8a,0xaa,
 0xdf,0xff,0x0f,0x20,0xa9,0x04,0x50,0x0a,0x24,0x01,0x90,0x42,0x11,0xfa,0xfe,
 0xff,0xa2,0x02,0x21,0x40,0xfe,0xff,0x2b,0x09,0x00,0x90,0x02,0x20,0x01,0x04,
 0x45,0x28,0x44,0xfd,0xff,0xff,0x0b,0x50,0x08,0x2a,0xff,0xff,0x17,0x02,0x25,
 0x05,0x10,0x09,0x28,0x01,0x08,0x81,0x08,0xf5,0xff,0xbf,0x90,0x04,0xa1,0xc0,
 0xfe,0xff,0x4f,0x50,0x00,0x90,0x44,0x40,0x82,0x00,0xa5,0x54,0x52,0xfa,0xff,
 0xff,0x0b,0x41,0x14,0x12,0xfd,0xff,0x2f,0x04,0x92,0x24,0x00,0x92,0x20,0x00,
 0x10,0x02,0x81,0xfa,0xff,0x7f,0x21,0x14,0x41,0x48,0xff,0xf7,0x0b,0x01,0x00,
 0x82,0x12,0x00,0x82,0x02,0x8a,0x54,0x54,0xf5,0xff,0xff,0x4a,0x81,0x94,0x92,
 0xfe,0xff,0x57,0xa0,0xa4,0x20,0x44,0x95,0x28,0x00,0x20,0x22,0x21,0xff,0xff,
 0x5e,0x00,0x14,0x00,0xa0,0xff,0xff,0x15,0x08,0x00,0x02,0x00,0x40,0x00,0x01,
 0x95,0x48,0x94,0xfc,0xff,0x7f,0x95,0x42,0x55,0x8a,0xfe,0xff,0x0b,0x22,0x95,
 0x90,0x52,0x12,0x4a,0x00,0x48,0x82,0xa0,0xff,0xf7,0x5f,0x42,0x08,0x08,0xa1,
 0xff,0xff,0x07,0x00,0x00,0x04,0x00,0x40,0x00,0x05,0x85,0x28,0x4a,0xfa,0xff,
 0xbf,0x10,0xa2,0x42,0xa8,0xfe,0xff,0x53,0x29,0x91,0xa0,0x94,0x14,0x51,0x00,
 0x10,0x42,0x20,0xed,0xff,0xbf,0x42,0x08,0x88,0x42,0x7d,0xff,0x0d,0x00,0x04,
 0x02,0x00,0x00,0x04,0x00,0x4a,0x29,0x95,0xfe,0xff,0xbf,0x10,0x82,0x22,0x20,
 0xff,0xff,0x17,0x84,0x90,0x20,0xa5,0x52,0x81,0x02,0x10,0x84,0xa0,0xfa,0xff,
 0x57,0x44,0x29,0x88,0x8a,0xfe,0xff,0x43,0x10,0x00,0x12,0x00,0x00,0x14,0x00,
 0x4a,0x29,0x15,0xfd,0xff,0x5f,0x11,0x40,0x22,0x40,0xfd,0xff,0x1f,0x02,0xa5,
 0x80,0x94,0x24,0x41,0x02,0x20,0x82,0xe8,0xff,0xff,0x17,0x44,0x15,0x89,0xaa,
 0xff,0xbf,0x41,0x48,0x00,0x0a,0x00,0x00,0x00,0x00,0x15,0x51,0x04,0xff,0xff,
 0x5b,0x21,0x40,0x42,0x40,0xfe,0xff,0x17,0x10,0x90,0xa0,0x52,0x4a,0x2a,0x01,
 0x40,0x04,0xf1,0xfd,0xff,0x23,0x84,0x12,0x28,0x95,0xfd,0xff,0x8b,0x82,0x02,
 0x04,0x00,0x00,0x00,0x04,0x14,0xa1,0x08,0xff,0xff,0x1a,0x21,0x84,0x42,0x80,
 0xfe,0xff,0x25,0x20,0x28,0x91,0x94,0x92,0x48,0x01,0x42,0x04,0xa2,0xfe,0xff,
 0x03,0x08,0x00,0x00,0x02,0xfb,0xff,0x0b,0x00,0x00,0x00,0x00,0x00,0x00,0x00,
 0x10,0xa9,0x40,0xfd,0xff,0x4a,0x02,0x49,0x90,0x50,0xfd,0xff,0x27,0x08,0x00,
 0x00,0x00,0x00,0x00,0x00,0xd7,0xaa,0xae,0xf6,0xff,0x95,0x54,0x92,0x25,0x25,
 0xed,0xff,0x8f,0xa2,0xaa,0x4a,0x49,0x92,0x2a,0x01,0x54,0xa9,0x52,0xfd,0x7f,
 0x57,0x55,0x55,0x94,0x92,0xfa,0xff,0x57,0x10,0x00,0x10,0x90,0x20,0x40,0x00,
 0xb5,0x56,0xad,0x92,0xaa,0x54,0x55,0x55,0x6b,0x6d,0xfd,0xff,0xad,0xff,0xff,
 0xf7,0x57,0xdf,0x5f,0x07,0xaa,0x5a,0x55,0x6d,0x5b,0xab,0xaa,0xaa,0xaa,0xaa,
 0xea,0xff,0xab,0x24,0x55,0x2d,0xd9,0xaa,0xaa,0x02,0x55,0xd5,0xaa,0xaa,0xaa,
 0xaa,0x6a,0xd5,0xaa,0xaa,0xfe,0xff,0x57,0xdb,0x6a,0xdb,0xb6,0xfd,0x5d,0x05,
 0x6d,0x55,0x55,0xab,0x6d,0x55,0x55,0x55,0x55,0x55,0xeb,0xfe,0x55,0x6d,0xdb,
 0xb6,0x55,0xab,0xd6,0x02,0x55,0xb5,0xb6,0xaa,0x9a,0xb6,0x6a,0x5b,0x55,0xd5,
 0xda,0xab,0xaa,0xda,0xaa,0xdb,0xde,0xb6,0xbb,0x02,0x55,0xab,0x55,0x6d,0x6d,
 0x55,0x5b,0x55,0xab,0x56,0x75,0xff,0x55,0x6f,0xed,0xfe,0x6b,0xdb,0x56,0x05,
 0x6d,0x6d,0x6b,0xd5,0xaa,0xaa,0xaa,0x6d,0x55,0x55,0xdb,0x2a,0x55,0xa9,0xb5,
 0xa5,0xde,0xb6,0xdd,0x02,0x55,0x55,0xad,0x55,0x57,0xab,0xaa,0xaa,0x6a,0x55,
 0xad,0xdb,0x6a,0xdd,0x6e,0xdd,0x77,0x6b,0x57,0x05,0x20,0x92,0x92,0xb6,0xad,
 0xda,0xda,0xda,0x5d,0xdb,0x7a,0x25,0xb5,0xab,0xda,0x77,0xed,0xfd,0xbe,0x03,
 0x4a,0x49,0xa9,0x6a,0xd5,0xaa,0x6a,0xad,0x56,0x55,0xab,0xad,0xda,0x6c,0xb7,
 0xba,0x7b,0xb7,0x6b,0x05,0x00,0x00,0x00,0x54,0x01,0x00,0x00,0x00,0x00,0x00,
 0x6e,0x55,0x00,0x00,0x00,0x00,0x00,0x00,0x00,0x00,0x92,0x24,0x00,0xaa,0x0d,
 0x00,0x00,0x00,0x00,0x80,0x5a,0x2b,0x01,0x00,0x00,0x00,0x00,0x00,0x00,0x00,
 0x08,0x82,0xaa,0x6a,0x55,0x49,0x82,0x20,0xa9,0x24,0xb5,0xaa,0x04,0x22,0x40,
 0x40,0x00,0x08,0x08,0x00,0xa2,0x50,0x90,0x94,0x52,0x24,0x29,0x4a,0x45,0x81,
 0xde,0x55,0xa1,0x08,0x15,0x15,0xaa,0x42,0x82,0x02,0x04,0x05,0x45,0xb5,0x0a,
 0x00,0x00,0x00,0x10,0x48,0xa9,0x2a,0x02,0x40,0x00,0x00,0x00,0x00,0x00,0x00,
 0xa9,0xa0,0xa0,0x4a,0x45,0x02,0x48,0x91,0xa4,0x92,0x7e,0x55,0x09,0x10,0x00,
 0x00,0x01,0x10,0x48,0x00,0x00,0x12,0x0a,0x92,0x28,0xa8,0x02,0x44,0x00,0x40,
 0xd5,0x55,0x24,0x02,0x54,0x2a,0x24,0x41,0x01,0x01,0xaa,0x84,0x50,0x49,0x85,
 0x02,0x24,0x11,0x92,0x00,0xb5,0xaa,0x02,0x20,0x01,0x80,0x00,0x08,0x20,0x00,
 0x04,0x12,0x42,0x04,0x10,0x20,0x01,0x84,0x08,0x2a,0xaa,0x2d,0x49,0x84,0x90,
 0x08,0xaa,0x44,0x02,0x01,0xa2,0x84,0x94,0x22,0x45,0x09,0x48,0x21,0xa2,0x40,
 0x69,0xab,0x12,0x21,0x04,0x92,0x00,0x10,0x48,0x00,0x08,0x28,0x50,0x14,0x08,
 0xa4,0x10,0x02,0x00,0x12,0x80,0x5a,0x45,0x84,0xa8,0x40,0x92,0x42,0x21,0x02,
 0x52,0x85,0x8a,0x82,0x42,0x11,0x8a,0x54,0x95,0x40,0xaa,0xaa,0x12,0x29,0x05,
 0x10,0x20,0x10,0x08,0x00,0x00,0x10,0x12,0x48,0x28,0x45,0x50,0x00,0x48,0x0a,
 0x01,0x54,0x25,0x00,0x28,0x85,0x8a,0x42,0xa1,0x04,0x2a,0xa5,0xa4,0x12,0x8a,
 0xa0,0x8a,0xaa,0x12,0x41,0x44,0xaa,0x14,0xa9,0x42,0x20,0x40,0x10,0x0a,0x00,
 0x40,0x80,0x08,0x41,0x10,0x15,0x20,0x00,0x00,0x14,0x10,0x50,0x49,0x00,0x00,
 0x09,0x11,0x02,0x20,0x01,0x15,0x2a,0x52,0x14,0x45,0x42,0x15,0x2a,0x49,0x81,
 0x82,0x54,0x25,0x12,0x24,0x40,0x80,0x48,0x49,0x00,0x80,0x00,0x00,0x41,0x10,
 0x94,0xa4,0xa4,0x12,0x2a,0x24,0x22,0x90,0x40,0x00,0x09,0x12,0x00,0x00,0x01,
 0x20,0x20,0x49,0x10,0x4a,0x49,0x92,0x92,0x48,0x49,0x09,0x50,0x05,0x12,0x49,
 0x00,0x00,0x49,0x12,0x00,0x8a,0x82,0x00,0x05,0x00,0x00,0x00,0x08,0x92,0x24,
 0xa2,0x8a,0x50,0x08,0x00,0x44,0x00,0x00,0x40,0x00,0x20,0x28,0xa8,0x90,0x40,
 0x55,0x55,0x45,0x49,0x92,0x54,0x52,0x8a,0x22,0x25,0x01,0x49,0x24,0x01,0x02,
 0x02,0x00,0x00,0x00,0x08,0x00,0x08,0x52,0xaa,0xa4,0x92,0x48,0x21,0x88,0x90,
 0x08,0x00,0x01,0x08,0x00,0x28,0x05,0x45,0x8a,0x00,0x54,0xa5,0x24,0x25,0x95,
 0x24,0x25,0x15,0x22,0x04,0x22,0x49,0x08,0x80,0x00,0x80,0x50,0x00,0x20,0xa2,
 0x20,0x12,0x49,0x48,0xa8,0x4a,0xaa,0x82,0x80,0x50,0x88,0x10,0x21,0x11,0x04,
 0x14,0x04,0x90,0x0a,0x00,0x95,0x44,0x92,0x52,0x25,0xa9,0x52,0x2d,0x28,0x04,
 0x22,0x44,0x04,0x04,0x00,0x00,0x00,0x49,0x52,0x09,0x40,0x2a,0x49,0x0a,0x89,
 0x04,0xa4,0xea,0x97,0x10,0x40,0x10,0x20,0x40,0x00,0x00,0x40,0x10,0x15,0xa0,
 0x14,0x41,0x12,0xa1,0x24,0xa9,0x92,0x2a,0x29,0x42,0x12,0x05,0x09,0x11,0x00,
 0x40,0x02,0x40,0xd2,0x0a,0x42,0x04,0x00,0x04,0x00,0x00,0x00,0x80,0x04,0x00,
 0x00,0x40,0x00,0x80,0x04,0x08,0x08,0x10,0x29,0x42,0x11,0x29,0x49,0x41,0x12,
 0x00,0x40,0x50,0x22,0x00,0x00,0x08,0x42,0x12,0x00,0x00,0x00,0x01,0xa2,0x5a,
 0xad,0x00,0x00,0x08,0x40,0x44,0x04,0x05,0x00,0x04,0x29,0x00,0x00,0x00,0x00,
 0x22,0x21,0x80,0x54,0x55,0x25,0x82,0x44,0x80,0x04,0x10,0x40,0x00,0x88,0x20,
 0x80,0x00,0x00,0x00,0x00,0x00,0x00,0x00,0x00,0x08,0x09,0x08,0x10,0x09,0x90,
 0x40,0x02,0x20,0x00,0x00,0x00,0x00,0x08,0x00,0x00,0x00,0x00,0x00,0x00,0xa5,
 0xa2,0xa2,0x04,0x40,0x02,0x14,0x90,0x0a,0x22,0x04,0x01,0x00,0x40,0x40,0x00,
 0x00,0x04,0x82,0x10,0x00,0x00,0x00,0x00,0x02,0x08,0x81,0x00,0x00,0x00,0x00,
 0x00,0x10,0x00,0x04,0x00,0x10,0x20,0x10,0x80,0x10,0x10,0x10,0x90,0x10,0x41,
 0x00,0x08,0x40,0x80,0x00,0x00,0x00,0x00,0x00,0x00,0x80,0x00,0x00,0x02,0x00,
 0x80,0x80,0x00,0x00,0x00,0x48,0x20,0x01,0x09,0x22,0x00,0x00,0x00,0x00,0x00,
 0x00,0x00,0x40,0x10,0x00,0x04,0x04,0x00,0x00,0x08,0x01,0x09,0x10,0x00,0x00,
 0x09,0x00,0x00,0x00,0x00,0x00,0x00,0x00,0x00,0x00,0x00,0x00,0x00,0x20,0x00,
 0x00,0x40,0x00,0x00,0x00,0x00,0x00,0x00,0x00,0x00,0x00,0x00,0x04,0x00,0x80,
 0x00,0x00,0x00,0x04,0x00,0x48,0x10,0x04,0x00,0x00,0x00,0x00,0x00,0x00,0x00,
 0x00,0x00,0x00,0x00,0x00,0x00,0x00,0x11,0x80,0x00,0x01,0x02,0x00,0x00,0x00,
 0x00,0x80,0x40,0x88,0x00,0x00,0x00,0x00,0x00,0x00,0x20,0x08,0x00,0x00,0x20,
 0x20,0x40,0x00,0x00,0x00,0x00,0x09,0x08,0x00,0x00,0x10,0x04,0x00,0x00,0x00,
 0x00,0x00,0x00,0x00,0x00,0x82,0x08,0x91,0x48,0x00,0x00,0x00,0x00,0x00,0x00,
 0x00,0x00,0x80,0x00,0x10,0x00,0x00,0x00,0x02,0x84,0x10,0x00,0x00,0x00,0x10,
 0x00,0x00,0x00,0x02,0x00,0x00,0x00,0x00,0x00,0x00,0x00,0x00,0x00,0x40,0x00,
 0x00,0x09,0x00,0x00,0x00,0x00,0x00,0x00,0x00,0x00,0x00,0x00,0x00,0x00,0x00,
 0x00,0x00,0x10,0x00,0x00,0x20,0x20,0x02,0x00,0x00,0x00,0x00,0x00,0x00,0x00,
 0x00,0x00,0x00,0x00,0x00,0x11,0x49,0x02,0x00,0x20,0x02,0x01,0x00,0x00,0x00,
 0x00,0x00,0x00,0x00,0x00,0x00,0x00,0x00,0x00,0x00,0x00,0x00,0x00,0x08,0x00,
 0x20,0x08,0x10,0x00,0x00,0x04,0x00,0x02,0x10,0x00};
