#define noname_width 165
#define noname_height 175
static char noname_bits[] = {
 0x90,0x40,0x92,0x24,0x22,0x09,0x45,0x90,0x44,0x21,0x91,0x24,0x02,0x12,0x21,
 0x80,0x04,0x81,0x20,0x04,0x01,0x4a,0x94,0x24,0x89,0x48,0xa2,0x20,0x25,0x29,
 0x4a,0x24,0x91,0x54,0x89,0x88,0x2a,0x51,0x28,0x0a,0x41,0x08,0x24,0x49,0x92,
 0x24,0x25,0x49,0x95,0x94,0x44,0x88,0x10,0x4a,0x22,0x52,0x12,0x49,0x84,0x42,
 0x50,0x2a,0x05,0x42,0x92,0x48,0x92,0x48,0x28,0x48,0x22,0x21,0x25,0x8a,0x00,
 0x91,0x84,0x48,0x12,0x51,0x28,0x85,0x40,0x00,0x94,0x48,0x22,0x49,0x22,0x45,
 0x25,0x49,0x4a,0x92,0x50,0xaa,0x24,0x29,0x25,0xa1,0x84,0x82,0x28,0x0a,0x15,
 0x25,0x12,0x49,0x92,0x14,0x29,0x49,0x12,0x91,0x48,0x0a,0x11,0x49,0x42,0x48,
 0x14,0x22,0x28,0x02,0xa1,0x00,0x48,0x49,0x12,0x49,0xa2,0x44,0x92,0xa4,0x44,
 0x22,0x51,0x22,0x92,0x94,0x22,0xa1,0x94,0x42,0x54,0x04,0x0a,0x12,0x92,0x48,
 0x22,0x49,0x92,0x24,0x09,0x12,0x49,0x88,0x94,0x24,0x22,0x88,0x08,0x21,0x14,
 0x01,0xa2,0x00,0xa4,0x24,0x25,0x49,0x92,0x24,0x89,0xa4,0x24,0x12,0x25,0x42,
 0x92,0x88,0x12,0x25,0x8a,0x20,0xaa,0x08,0x05,0x49,0x88,0x48,0x92,0x24,0x49,
 0x22,0x10,0x89,0xa4,0x88,0x28,0x01,0x45,0xa4,0x48,0x41,0x4a,0x01,0xa2,0x00,
 0x92,0x52,0x92,0x24,0x49,0x12,0x49,0x25,0x24,0x12,0x25,0x41,0x54,0x28,0x11,
 0x22,0x94,0x08,0xaa,0x08,0x15,0x24,0x84,0x04,0x49,0x92,0x44,0xa2,0xfe,0xbb,
 0x80,0x40,0x14,0x09,0x85,0x44,0x89,0x22,0xa2,0x00,0x44,0x00,0x42,0x29,0x52,
 0x22,0x44,0x92,0x54,0xdb,0x57,0x2a,0x15,0x49,0x52,0x28,0x12,0x24,0x94,0x04,
 0x55,0x91,0x04,0x28,0x82,0x94,0x94,0x92,0x48,0xe8,0xff,0xbe,0x41,0x40,0x92,
 0x04,0x85,0xa4,0x82,0x02,0xa9,0x00,0x04,0x01,0x4a,0x29,0x21,0x21,0x49,0x92,
 0x7a,0xed,0x7f,0x14,0x15,0x21,0x52,0x52,0x02,0x54,0x28,0x04,0x55,0x51,0x14,
 0x21,0x4a,0x4a,0x4a,0x92,0x24,0xd5,0xbb,0xd6,0x83,0x40,0x88,0x88,0x88,0xa8,
 0x02,0x45,0x51,0x00,0x08,0x01,0x4a,0x10,0x91,0x28,0x49,0x92,0x7c,0xff,0xff,
 0x2a,0x8a,0x12,0x51,0x22,0x42,0x54,0x08,0x82,0xaa,0x12,0x0a,0x20,0xa5,0x24,
 0x45,0x92,0x24,0xdf,0x6f,0xdb,0x17,0x22,0x44,0x8a,0x10,0x29,0x02,0xa5,0x54,
 0x00,0xa0,0x00,0x95,0x12,0x49,0x88,0x24,0x91,0x7a,0xfd,0xff,0x4a,0x49,0x91,
 0x10,0xa5,0x84,0x54,0x12,0x01,0x55,0x05,0x05,0x44,0xa4,0x24,0x25,0x49,0x8a,
 0xee,0xbf,0xb5,0x3f,0x10,0x48,0x44,0x08,0x21,0x89,0x40,0x54,0x02,0x50,0x08,
 0x92,0x08,0x49,0xaa,0x24,0xa1,0xbd,0xfb,0xff,0xad,0xa2,0x22,0x89,0x52,0x94,
 0x50,0x2a,0x11,0xa9,0x82,0x00,0x24,0xa5,0x24,0x01,0x82,0x54,0xff,0xef,0xbf,
 0x7f,0x08,0x48,0x52,0x84,0x42,0x04,0x44,0xa4,0x10,0x28,0x0a,0x92,0x48,0x92,
 0xaa,0x54,0xa2,0xdb,0x7e,0xf7,0xbf,0xa4,0x22,0x09,0x11,0x2a,0xa9,0x10,0x01,
 0xa2,0x82,0x00,0x24,0x92,0x44,0x24,0x89,0xd4,0xff,0xdf,0xff,0x7f,0x01,0x08,
 0xa0,0x48,0x41,0x04,0x0a,0x54,0x09,0x50,0x08,0x92,0x24,0x92,0x48,0x52,0xa2,
 0x6e,0xfb,0xdd,0xf6,0x54,0x51,0x05,0x25,0x0a,0x51,0x51,0x01,0xa4,0x02,0x01,
 0x44,0x49,0x49,0x92,0x08,0xd1,0xff,0xea,0xff,0xfd,0x01,0x08,0xa8,0x10,0xa1,
 0x24,0x04,0xa8,0x02,0x54,0x0a,0x12,0x12,0x25,0x45,0x52,0xaa,0xad,0xfd,0xff,
 0xbf,0xa8,0xa2,0x02,0x45,0x0a,0x92,0x52,0x05,0xa8,0x80,0x00,0xa4,0xa4,0x88,
 0x20,0x89,0x44,0xff,0xd6,0xee,0xea,0x03,0x10,0xa0,0x90,0x50,0x21,0x08,0x50,
 0x05,0x2a,0x08,0x92,0x12,0x51,0x4a,0x52,0xf2,0x57,0xff,0xbf,0xfd,0x90,0x4a,
 0x15,0x25,0x05,0x8a,0xa2,0x02,0xa8,0x40,0x01,0x48,0x44,0x8a,0x94,0x88,0x88,
 0xba,0xdd,0x76,0xd7,0x25,0x00,0x42,0x48,0x50,0x41,0x48,0xa8,0x02,0x14,0x0a,
 0x12,0xa9,0x24,0x21,0x25,0xf5,0xaf,0xfe,0xfb,0x7a,0x81,0xaa,0x28,0x21,0x05,
 0x2a,0x25,0x05,0xa9,0x20,0x00,0xa4,0x04,0x91,0x14,0x91,0x40,0xa0,0x4f,0x96,
 0xae,0x28,0x00,0x44,0x8a,0x50,0x41,0x08,0x50,0x00,0x0a,0x09,0x12,0xa9,0x24,
 0x49,0x4a,0xaa,0xd7,0xbd,0x7d,0xab,0x42,0x55,0x11,0x11,0x05,0x8a,0xa2,0x82,
 0xaa,0x20,0x04,0x44,0x22,0x92,0x24,0x91,0x12,0x50,0x4b,0xcb,0x16,0x11,0x00,
 0x4a,0x44,0xa2,0x20,0x10,0x28,0x00,0x4a,0x01,0x92,0x94,0x44,0x52,0x4a,0xa4,
 0xaa,0xf7,0xf6,0x4b,0xa4,0xaa,0x20,0x29,0x94,0x4a,0x45,0x41,0x55,0x00,0x14,
 0x24,0x22,0x29,0x09,0x01,0xd1,0xd6,0xae,0x79,0x17,0x09,0x10,0x4a,0x04,0x21,
 0x10,0x20,0x2a,0x00,0x29,0x01,0x92,0x94,0x44,0x52,0x2a,0xba,0xad,0x6b,0xd7,
 0x4b,0xa4,0xa2,0x88,0x52,0x8a,0xa2,0x4a,0x80,0x4a,0x44,0x04,0x48,0x42,0x22,
 0x09,0xd9,0xff,0xff,0xda,0xf5,0x03,0x09,0x09,0x22,0x80,0x40,0x08,0x04,0x55,
 0x10,0x01,0x01,0x92,0x94,0x94,0xa4,0xb4,0xfe,0xff,0xb7,0x6e,0x2b,0x20,0xa4,
 0x94,0x2a,0x95,0x52,0x51,0x80,0x42,0x14,0x0a,0x49,0x22,0x49,0x12,0xfd,0xff,
 0x7f,0xff,0xfb,0x81,0x4a,0x11,0x42,0x44,0x20,0x08,0x08,0x2a,0x10,0xa1,0x00,
 0x92,0x94,0xa4,0x48,0xfe,0xef,0xfb,0xbf,0xef,0x11,0x10,0xa2,0x88,0x90,0x4a,
 0xa5,0x52,0x41,0x45,0x04,0x0a,0x24,0x22,0x11,0xa2,0xff,0xff,0xfe,0xfd,0x7d,
 0x05,0x85,0x08,0x52,0x0a,0x10,0x00,0x04,0x14,0x10,0xa1,0x00,0x92,0x94,0xa4,
 0xd4,0xff,0xfe,0xef,0xef,0xef,0x51,0x28,0xa2,0x08,0xa1,0x4a,0x55,0x51,0xa2,
 0x42,0x04,0x12,0x44,0x22,0x49,0xea,0xef,0xb7,0xbf,0xff,0xff,0x5f,0x82,0x10,
 0x44,0x10,0x20,0x88,0x88,0x08,0x10,0xa9,0x04,0x92,0x94,0x24,0xf5,0xfe,0xff,
 0xff,0xff,0x6f,0x57,0x11,0xa5,0x92,0x4a,0x45,0x11,0x25,0xa2,0x4a,0x00,0x00,
 0x24,0x22,0x11,0xff,0x7f,0xff,0xfb,0xff,0xfb,0xff,0x4f,0x00,0x20,0x20,0x10,
 0x04,0x80,0x10,0x00,0xa4,0x0a,0x92,0x44,0x4a,0xfd,0xff,0xdb,0xfe,0xdd,0xdf,
 0xbd,0x25,0xaa,0x8a,0x8a,0x4a,0x11,0x28,0x45,0x55,0x01,0x00,0x24,0x29,0xa1,
 0x7f,0xef,0xff,0x7f,0xff,0xfe,0xff,0xff,0x01,0x40,0x20,0x21,0x04,0x00,0x20,
 0x00,0x54,0x09,0x92,0x44,0xca,0xff,0x7f,0xff,0xef,0xf7,0xfb,0xf7,0x3b,0x4a,
 0x8a,0x8a,0x94,0x28,0x80,0x8a,0x2a,0x01,0x04,0x24,0x29,0x61,0xef,0xfb,0xbb,
 0xfd,0xff,0x7f,0xdf,0xee,0x7f,0x21,0x10,0x00,0x05,0x00,0x40,0x40,0x50,0x01,
 0x92,0x44,0xda,0xff,0xff,0xff,0xff,0xbf,0xff,0xff,0xff,0x15,0x44,0x01,0x00,
 0x14,0xc0,0x2a,0x05,0x05,0x14,0x24,0x29,0xf1,0xff,0xdf,0xdf,0xff,0xfe,0xff,
 0x7d,0xff,0xff,0x1f,0x00,0x00,0x00,0x90,0x05,0xa0,0x40,0x01,0x92,0x44,0xda,
 0xbf,0xff,0xfd,0xf6,0xff,0xfb,0xef,0xdb,0xfe,0x0b,0x00,0x40,0x80,0x40,0xa9,
 0x0a,0x2a,0x04,0x24,0x91,0xf4,0xf7,0xfb,0xff,0xdf,0xf7,0xbf,0xff,0xff,0xef,
 0x07,0x20,0x00,0x20,0xb6,0x12,0xa0,0x00,0x01,0x92,0x24,0xfa,0xff,0xdf,0xdf,
 0xff,0xff,0xff,0xfd,0xff,0xff,0x03,0x00,0x00,0x85,0xaa,0x40,0x05,0x92,0x14,
 0x24,0x92,0xfa,0xfd,0xff,0xfd,0xff,0xbe,0xfd,0xff,0xdd,0xfd,0x46,0x44,0xaa,
 0xa8,0x15,0x14,0x90,0x04,0x00,0x92,0x44,0xee,0xdf,0xfd,0xff,0xff,0xff,0xff,
 0xff,0xff,0xdf,0x13,0x11,0x90,0x52,0x55,0x41,0x45,0x50,0x02,0x24,0x29,0xfd,
 0xff,0x7f,0xff,0xfd,0xef,0xf7,0xff,0xff,0xff,0xaa,0x4a,0xaf,0x5a,0x02,0x10,
 0x10,0x04,0x08,0x92,0x84,0xfe,0xff,0xef,0xdb,0xdf,0x7b,0xff,0xff,0xff,0xff,
 0x53,0x85,0x54,0xa5,0xa8,0x42,0x42,0x51,0x01,0x44,0x52,0xfd,0xf6,0xff,0xff,
 0xff,0xff,0xbf,0xdb,0xff,0xff,0x55,0x75,0x55,0x15,0x02,0x14,0x10,0x04,0x08,
 0x92,0x44,0xff,0xff,0xfe,0xff,0xf7,0xff,0xfe,0xff,0xff,0xfd,0xdb,0xaa,0xaa,
 0x4a,0x48,0x40,0x49,0x90,0x04,0x48,0x28,0xfe,0xff,0xdf,0xff,0xff,0xdf,0xf7,
 0xff,0xff,0xff,0x54,0x5f,0x55,0x01,0x12,0x12,0x02,0x25,0x00,0x92,0x42,0xff,
 0xdf,0xff,0xee,0xff,0xfe,0xff,0xff,0xfb,0xff,0xd5,0x54,0xab,0x54,0x40,0x48,
 0x28,0x80,0x0a,0x24,0x29,0xdd,0xff,0xfb,0x7f,0xff,0xff,0x7f,0x7b,0xff,0xff,
 0x07,0x49,0x11,0x80,0x94,0x02,0x82,0x24,0x00,0x92,0xa4,0xfe,0xff,0xff,0xff,
 0xff,0xff,0xff,0xff,0xbf,0x7f,0x55,0xaa,0x4a,0x05,0x02,0xa8,0x48,0x90,0x04,
 0x24,0x12,0xff,0xff,0xdf,0xfb,0xff,0xff,0xff,0xff,0xff,0xff,0x03,0x00,0x10,
 0xa0,0x48,0x05,0x10,0x05,0x08,0x92,0xa4,0xfe,0xfd,0xff,0xff,0xfd,0xff,0xdf,
 0xef,0xf7,0xfb,0xa5,0x52,0x45,0x05,0x22,0x50,0x41,0x50,0x01,0x24,0x49,0xff,
 0xff,0x7d,0xbf,0xff,0xff,0xff,0xff,0xfe,0xff,0x01,0x00,0x10,0x50,0x01,0x04,
 0x14,0x04,0x08,0x92,0xa4,0xff,0xff,0xff,0xff,0xef,0xff,0xff,0xff,0xff,0xff,
 0x28,0x25,0x45,0x05,0x54,0x91,0x40,0x51,0x02,0x24,0x49,0xff,0xbf,0xf7,0xef,
 0x7f,0xef,0xff,0xff,0xff,0x7f,0x04,0x48,0x10,0x90,0x02,0x44,0x14,0x84,0x00,
 0x92,0xa4,0xff,0xff,0xff,0xff,0xfd,0xff,0xff,0xff,0xff,0x3f,0x50,0x02,0x45,
 0x41,0x28,0x11,0x41,0x10,0x0a,0x24,0x49,0xdf,0xf7,0xff,0xfb,0xff,0xff,0xfd,
 0x5b,0x55,0x5d,0x02,0x40,0x10,0x14,0x42,0x44,0x10,0x85,0x00,0x92,0xd0,0xff,
 0xff,0xdf,0xbf,0xff,0xff,0xff,0xff,0xff,0x1f,0x91,0x0a,0x41,0x42,0x14,0x11,
 0x45,0x10,0x0a,0x20,0x8a,0xff,0xff,0x7d,0xff,0xff,0xf7,0xff,0x01,0x00,0x40,
 0x04,0x50,0x94,0x10,0x41,0x44,0x10,0x84,0x00,0x8a,0xe4,0xff,0xff,0xff,0xff,
 0xef,0xff,0xff,0x01,0x00,0x0a,0x51,0x02,0x41,0x22,0x12,0x11,0x41,0x11,0x02,
 0x51,0x51,0xff,0xff,0xff,0xf7,0xff,0xff,0xff,0x13,0x82,0x40,0x80,0x50,0x14,
 0x88,0x44,0x44,0x14,0x84,0x08,0x0a,0xa2,0xff,0xff,0xff,0xff,0xfe,0xff,0xff,
 0x42,0x28,0x0a,0x15,0x02,0x41,0x11,0x12,0x11,0x41,0x50,0x02,0x40,0xe9,0xf7,
 0xdd,0xfd,0xff,0xff,0xfe,0xfd,0x13,0x82,0x40,0x80,0x50,0x10,0xa4,0x00,0x40,
 0x10,0x05,0x00,0x95,0xd4,0xff,0xff,0xdf,0xfd,0xff,0xff,0xff,0x48,0x09,0x0a,
 0x29,0x85,0x4a,0x02,0x55,0x05,0x25,0x90,0x14,0x24,0xd1,0xff,0xff,0xff,0xdf,
 0xf7,0xff,0xff,0x03,0xa0,0x50,0x02,0x20,0x80,0x50,0x00,0x50,0x00,0x05,0x01,
 0x92,0xe4,0xff,0xff,0xff,0xff,0xff,0xf7,0xff,0x21,0x05,0x02,0xa8,0x8a,0x2a,
 0x82,0x54,0x01,0x55,0x50,0x04,0x49,0xd2,0xff,0xff,0xfb,0x7f,0xff,0xfe,0xff,
 0x07,0x90,0x48,0x05,0x20,0x80,0x28,0x00,0xa8,0x00,0x04,0x00,0x24,0xe9,0xef,
 0xee,0xbf,0xff,0xff,0xff,0xff,0x53,0x42,0x20,0x92,0x92,0x4a,0x82,0x52,0x01,
 0x4a,0x91,0x0a,0x49,0xa4,0xff,0xff,0xff,0xff,0xef,0xff,0xf7,0x8f,0x10,0x8a,
 0x2a,0x04,0x10,0x28,0x04,0x94,0x10,0x04,0x00,0x92,0xf2,0xff,0xff,0xfe,0xfd,
 0xff,0x7d,0xff,0x03,0x4a,0x50,0x82,0x50,0x41,0x81,0x90,0x40,0x42,0x50,0x12,
 0x44,0xc8,0xff,0xff,0xff,0xdf,0xfd,0xff,0xff,0x9f,0x00,0x8a,0x2d,0x04,0x14,
 0x24,0x22,0x12,0x08,0x85,0x00,0x92,0xf2,0xff,0xff,0xf7,0xff,0xbf,0xdf,0xff,
 0x07,0x92,0x64,0x93,0x50,0x40,0x90,0x88,0x48,0x22,0x10,0x0a,0x24,0xa4,0xff,
 0xff,0xff,0xff,0xff,0xff,0xfd,0xaf,0x00,0x59,0x05,0x84,0x14,0x05,0x02,0x02,
 0x80,0x84,0x00,0x92,0xe8,0xff,0xf7,0xbf,0xbd,0xfb,0xfb,0xff,0x0f,0x12,0xea,
 0x52,0x11,0x22,0x28,0x28,0xa8,0x4a,0x10,0x02,0x24,0xe5,0xff,0x7f,0xff,0xff,
 0xff,0xff,0xff,0x0f,0xc4,0x1e,0x00,0x84,0x80,0x82,0x82,0x02,0x10,0x45,0x08,
 0x92,0xd8,0xbf,0xff,0xf7,0xef,0xbf,0xff,0xdf,0x43,0x90,0x52,0x95,0x10,0x2a,
 0x08,0x48,0x48,0x02,0x10,0x01,0x41,0xe4,0xff,0xff,0xff,0xfd,0xfd,0xff,0xfb,
 0x1f,0xe9,0x29,0x00,0x84,0x00,0xa1,0x02,0x12,0xa4,0x04,0x08,0x94,0xd2,0xff,
 0xff,0xff,0xff,0xff,0xdf,0xff,0x07,0x54,0x85,0xaa,0x10,0x4a,0x04,0x28,0x40,
 0x11,0x52,0x01,0x22,0xd0,0xff,0xff,0xbf,0xff,0xff,0xfb,0xff,0x6f,0xab,0x40,
 0x00,0xa4,0x10,0x91,0x02,0x15,0x80,0x00,0x08,0x94,0x6a,0xff,0xef,0xff,0xff,
 0xef,0xff,0xff,0xaf,0xb6,0x0a,0x55,0x01,0x42,0x44,0x28,0x40,0x25,0x92,0x04,
 0x42,0xc2,0xff,0xff,0xf6,0xef,0xfe,0xff,0xff,0xdf,0x15,0x40,0x00,0xa8,0x10,
 0x01,0x84,0x12,0x80,0x00,0x00,0x94,0xb4,0xff,0xfd,0xff,0xff,0xff,0xff,0xdd,
 0x57,0x2b,0x09,0x49,0x01,0x45,0x54,0x11,0x48,0x0a,0xaa,0x12,0x22,0xc2,0xff,
 0xff,0xff,0xfd,0xff,0xbe,0xff,0xab,0x04,0x40,0x02,0x54,0x08,0x01,0x84,0x02,
 0xa0,0x00,0x00,0x94,0xd4,0xff,0xff,0xbf,0xff,0xff,0xff,0xf7,0x47,0xa9,0x0a,
 0x29,0x01,0x21,0x94,0x10,0xa8,0x12,0x92,0x04,0x42,0xe2,0xff,0xff,0xff,0xff,
 0xff,0xff,0xff,0x0b,0x02,0x40,0x40,0x50,0x10,0x02,0x84,0x02,0x00,0x04,0x08,
 0x2a,0xa9,0xff,0xff,0xff,0xef,0xff,0xff,0xfe,0x47,0x48,0x12,0x05,0x05,0x45,
 0xa8,0x50,0x48,0x4a,0x51,0x01,0x41,0xe4,0xef,0xff,0xff,0xff,0xf7,0xef,0xff,
 0x2f,0x00,0x40,0x50,0x40,0x90,0x02,0x05,0x82,0x20,0x00,0x04,0x94,0xd2,0xff,
 0xff,0xfd,0xff,0xff,0xff,0xff,0x2b,0x91,0x0a,0x09,0x25,0x01,0x48,0x90,0x08,
 0x82,0x4a,0x10,0x49,0xe8,0xff,0xff,0x7f,0xff,0xff,0xfd,0xff,0xff,0x05,0x40,
 0x42,0x08,0xa8,0x12,0x24,0xa0,0x28,0x00,0x04,0x24,0xa5,0xff,0xff,0xff,0xff,
 0xff,0x7f,0xdf,0xff,0x22,0x12,0x08,0xa1,0x02,0x40,0x81,0x0a,0x82,0x54,0x01,
 0x92,0xd0,0xff,0xff,0xff,0xfb,0xff,0xff,0xff,0xff,0xbf,0x00,0x41,0x08,0x90,
 0x14,0x28,0x80,0x10,0x01,0x08,0x24,0xe5,0xff,0xdf,0xff,0xff,0x7f,0xef,0xff,
 0xff,0x2f,0x48,0x14,0xa1,0x42,0xa0,0x82,0x12,0x42,0x24,0x01,0x49,0xa2,0xff,
 0xff,0xff,0xbf,0xf7,0xff,0xff,0xdf,0xfe,0x07,0x00,0x08,0x10,0x0a,0x20,0x80,
 0x10,0x00,0x08,0x22,0xd4,0xff,0xff,0xff,0xff,0xff,0xff,0xfd,0xff,0xff,0x41,
 0x52,0x21,0x45,0x20,0x85,0x2a,0x42,0xa9,0x02,0x88,0xe2,0xff,0xff,0xff,0xff,
 0xff,0xff,0xff,0xff,0xff,0x1f,0x00,0x08,0x80,0x04,0x50,0x80,0x10,0x00,0x00,
 0x52,0xd4,0xff,0xff,0xff,0xff,0xff,0xff,0xff,0xfe,0xff,0x07,0x24,0xa1,0x14,
 0x50,0x02,0x09,0x42,0x92,0x14,0x09,0xe2,0xff,0xff,0xff,0xff,0xff,0xff,0xff,
 0xff,0xf7,0xff,0x02,0x08,0x00,0x05,0x20,0x42,0x10,0x00,0x00,0xa4,0xf4,0xff,
 0xff,0xff,0xff,0xef,0xee,0xef,0xdf,0xff,0x7f,0x81,0xa0,0x52,0x90,0x8a,0x28,
 0x45,0xa5,0x04,0x00,0x81,0xff,0xff,0xff,0xff,0xff,0xff,0xff,0xff,0xbf,0xff,
 0x7f,0x04,0x04,0x44,0x20,0x00,0x10,0x00,0x01,0x2a,0xf4,0xff,0xff,0xff,0x7f,
 0xff,0xff,0xff,0xff,0xff,0xff,0x0f,0x10,0x50,0x09,0x85,0x4a,0x42,0x49,0x04,
 0x81,0xa2,0xff,0xff,0xff,0xff,0xff,0xff,0xfd,0xfe,0xfd,0xff,0xff,0x55,0x01,
 0x40,0x20,0x90,0x10,0x12,0x08,0x2a,0xd4,0xff,0xff,0xf7,0xff,0xff,0xff,0xff,
 0xff,0xff,0xff,0xff,0x1a,0x44,0x95,0x8a,0x02,0x4a,0x40,0x01,0xaa,0xab,0xff,
 0xff,0xff,0xef,0xfd,0xff,0xff,0xef,0xff,0xfb,0xfe,0xff,0x09,0x00,0x00,0x40,
 0x00,0x04,0x00,0x55,0x6a,0xff,0x7f,0xff,0xff,0xff,0xff,0xff,0xff,0xef,0xff,
 0xff,0xff,0x00,0x20,0x10,0x04,0x21,0x10,0x05,0xad,0xd5,0xff,0xff,0xff,0xff,
 0xff,0xee,0xff,0xff,0xff,0xff,0xff,0xff,0xff,0xbf,0xef,0xfb,0xde,0xef,0x1a,
 0x5a,0xed,0xff,0xff,0xff,0xff,0xff,0xff,0xff,0x7f,0xff,0xfe,0xff,0xff,0x7f,
 0x49,0xb5,0x56,0xb5,0xba,0x15,0xd5,0x56,0xff,0xff,0xff,0xfd,0xff,0xff,0x7b,
 0xff,0xff,0xbf,0xef,0xff,0xff,0xff,0xff,0xed,0xef,0xff,0x16,0x55,0xf5,0xff,
 0xff,0xbf,0xff,0xf7,0xff,0xff,0xff,0xff,0xff,0xff,0xee,0xff,0xaf,0xda,0xb7,
 0xba,0xd6,0x0d,0x55,0x55,0xff,0xff,0xff,0xff,0xff,0xff,0xff,0xf7,0xff,0xff,
 0xff,0x7f,0x77,0xff,0x6f,0x7d,0xef,0x7d,0x15,0x6d,0xab,0xff,0xf7,0xfb,0xbf,
 0xff,0x7f,0xff,0xff,0xbb,0xff,0xfd,0xff,0xff,0xff,0xfa,0xeb,0xba,0xd7,0x0a,
 0xaa,0xed,0xfe,0xff,0xff,0xff,0xff,0xf7,0xff,0xff,0xff,0xbf,0xff,0xf7,0xff,
 0xfb,0xbf,0xbe,0xd7,0x7a,0x15,0x5b,0x55,0xff,0xff,0xff,0xff,0x7f,0xff,0xff,
 0xff,0xff,0xff,0xdf,0xff,0xff,0xff,0xdb,0xed,0xbe,0xab,0x0d,0x00,0x00,0xfd,
 0xff,0xff,0xff,0xff,0xff,0x77,0x7f,0xff,0xfb,0xff,0xbf,0xbb,0xdf,0x7e,0xbb,
 0xeb,0xfe,0x16,0xa8,0xaa,0xfa,0xff,0xff,0xff,0xff,0xff,0xff,0xff,0xff,0xff,
 0x7b,0xff,0xff,0xff,0xff,0xed,0xbe,0xab,0x15,0x05,0x00,0xf8,0xff,0xff,0xff,
 0xff,0xff,0xff,0xff,0xff,0xff,0xff,0xff,0xff,0xfd,0xdf,0x03,0x00,0x00,0x00,
 0xa8,0x2a,0xf5,0xff,0xff,0x7f,0xef,0xff,0xff,0xff,0xef,0xdf,0xff,0xfb,0xff,
 0x7f,0xff,0x02,0x00,0x00,0x00,0x42,0x80,0xa8,0xff,0xff,0xfb,0xff,0xff,0xff,
 0xff,0xff,0xff,0xfe,0xff,0xf7,0xef,0xf7,0x07,0x00,0x10,0x00,0x14,0x15,0xf2,
 0xff,0xff,0xff,0xff,0xff,0xfe,0xee,0xff,0xfe,0xf7,0xbf,0xff,0xff,0xff,0x43,
 0x92,0x44,0x0a,0x82,0xa0,0x84,0xff,0xff,0xff,0xff,0xfd,0xff,0xff,0xfd,0xff,
 0xff,0xff,0xbf,0xff,0xff,0x0f,0x00,0x00,0x00,0x54,0x0a,0xd2,0xff,0xff,0xff,
 0xff,0xff,0xdf,0xff,0xff,0xff,0x7f,0xff,0xff,0xff,0xff,0x03,0x00,0x00,0x00,
 0x01,0xa0,0x00,0xfa,0xff,0xff,0xff,0xff,0xff,0xff,0xff,0xff,0xff,0xef,0xff,
 0xfb,0xdf,0x5f,0x01,0x88,0x04,0x54,0x45,0xaa,0xfe,0xff,0xff,0xff,0xef,0xff,
 0xff,0xdf,0xf7,0xff,0xff,0xfe,0xdf,0xfd,0x83,0x00,0x21,0x00,0x01,0x12,0x01,
 0xe9,0xff,0xff,0xfb,0xff,0xff,0x5f,0x25,0x08,0xd4,0xff,0xf7,0xff,0xff,0x27,
 0x04,0x16,0x01,0x54,0xa4,0x54,0xf4,0xff,0xff,0xff,0xff,0xfb,0xf6,0xaa,0xea,
 0xfa,0xff,0xff,0xff,0xff,0x17,0x40,0x0b,0x04,0x02,0x09,0x02,0x01,0xff,0xff,
 0x7f,0x20,0x04,0x00,0x00,0x00,0x00,0xe8,0xff,0xff,0xff,0x16,0x00,0x06,0x01,
 0x54,0x24,0x54,0xa4,0xff,0xff,0xff,0x4a,0xa9,0x02,0x91,0x08,0x49,0xbb,0xff,
 0xff,0xff,0x2b,0x80,0x0b,0x08,0x01,0x81,0x02,0x49,0xa0,0x7f,0xff,0x11,0x02,
 0xa8,0x24,0xa5,0x10,0x00,0x50,0x6d,0x15,0xd4,0x15,0x00,0x04,0x14,0x54,0x54,
 0x92,0xf6,0xff,0x7f,0x40,0xa9,0x02,0x92,0x10,0x45,0xa0,0xaa,0xf7,0x2f,0xb8,
 0x8a,0x02,0x10,0x41,0x09,0x89,0x44,0x40,0xf7,0xed,0x57,0x04,0xa0,0x00,0x44,
 0x00,0x00,0x00,0x00,0x00,0x80,0x6d,0x01,0x00,0x94,0xa4,0x24,0x29,0xd5,0xff,
 0xff,0x21,0x29,0x05,0xaa,0x12,0x91,0x04,0x00,0x00,0x00,0x60,0xab,0x00,0x08,
 0x00,0x00,0x01,0x82,0xe8,0xdf,0xff,0x1f,0x80,0x50,0x45,0x44,0x4a,0x22,0x00,
 0x00,0x40,0xdb,0x7e,0x01,0x00,0x52,0x55,0x54,0x54,0xd2,0xff,0xff,0x2f,0x04,
 0x25,0x28,0x11,0x11,0x89,0x04,0x00,0x08,0xea,0xab,0x02,0x00,0x00,0x80,0xaa,
 0x92,0xec,0x7f,0xbf,0xff,0x53,0x08,0x02,0x44,0x44,0x22,0xb2,0xff,0xf7,0x2a,
 0x6a,0x11,0x05,0x92,0x2a,0x92,0x2a,0xf5,0xff,0xfb,0xff,0x04,0xa1,0xa8,0x10,
 0x29,0x49,0xa5,0x48,0xad,0xd5,0xad,0x42,0x00,0x20,0x40,0x25,0x41,0x75,0xff,
 0xff,0xfb,0xff,0x2d,0x05,0xaa,0xaa,0xf6,0x5a,0xab,0x02,0x00,0x40,0x08,0x00,
 0x82,0x2a,0x49,0x5a,0xfd,0xf7,0xff,0xff,0xbf,0x92,0x68,0xa5,0x54,0x95,0xaa,
 0xaa,0xb4,0xa4,0x2a,0x05,0x00,0x28,0x90,0x24,0xa5,0xea,0xff,0xff,0xdf,0xff,
 0x4f,0x95,0xaa,0x56,0xa5,0x24,0x00,0x00,0x92,0x44,0x40,0x04,0x82,0x2a,0xa9,
 0xaa,0xfa,0xff,0xff,0xff,0xfb,0x2b,0x55,0x55,0x55,0x95,0x92,0x20,0x49,0x54,
 0x12,0x01,0x00,0x00,0x40,0x55,0x55,0xed,0xff,0xff,0xff,0xff,0x57,0x55,0x55,
 0x09,0x20,0x00,0x8a,0x84,0x0a,0x00,0x08,0x00,0xa4,0x2a,0x52,0xb5,0xfe,0xff,
 0xff,0xff,0xff,0x55,0x55,0x25,0xa5,0x02,0x92,0x20,0x12,0x50,0x81,0x00,0x02,
 0x00,0x88,0xa4,0xaa,0xf5,0xff,0xff,0xff,0xbf,0xaf,0x22,0x08,0x00,0x00,0x00,
 0x88,0x20,0x05,0x08,0x40,0x00,0x48,0xa5,0x52,0x6d,0xfd,0xff,0xf7,0xff,0xff,
 0x25,0x45,0x21,0x00,0x40,0x90,0x22,0x82,0x20,0x00,0x00,0x00,0x02,0x40,0x28,
 0x92,0x6a,0xbb,0xff,0xee,0x2a,0x92,0x28,0x08,0x00,0x10,0x44,0x08,0x20,0x00,
 0x00,0x04,0x00,0x20,0x8a,0x42,0x49,0xfd,0xff,0xff,0xff,0xd7,0x24,0x41,0x41,
 0x22,0x82,0x10,0xa1,0x0a,0x09,0x00,0x40,0x00,0x00,0x00,0x08,0x00,0x80,0x48,
 0xa9,0x2a,0x08,0x01,0x08,0x00,0x00,0x00,0x04,0x08,0x00,0x00,0x80,0x00,0x04,
 0x00,0x10,0x20,0x55,0xb5,0xb6,0x56,0xd5,0x52,0x44,0x00,0x14,0x09,0x48,0x50,
 0x42,0x52,0x82,0x04,0x08,0x00,0x08,0x01,0x00,0x00,0x80,0x24,0x29,0x05,0x00,
 0x00,0x00,0x00,0x00,0x00,0x02,0x00,0x00,0x00,0x00,0x00,0x00,0x40,0x40,0x02,
 0x00,0x54,0x49,0x52,0x52,0x02,0x00,0x20,0x00,0x00,0x01,0x80,0x08,0x80,0x00,
 0x00,0x00,0x00,0x00,0x04,0x10,0x91,0x00,0x92,0x80,0x00,0x00,0x04,0x04,0x00,
 0x40,0x54,0x35,0xa5,0x2a,0x00,0x00,0x00,0x01,0x04,0x00,0x00,0x00,0x50,0x00,
 0x15,0x0a,0x48,0x00,0x00,0x40,0x00,0x90,0x48,0x48,0x84,0x04,0x80,0x04,0x00,
 0x00,0x40,0x00,0x00,0x00,0x52,0x00,0x00,0x00,0x80,0x40,0x08,0x92,0x02,0x00,
 0x00,0x00,0x00,0x00,0x00,0x00,0x00,0x00,0x02,0x80,0x80,0x00,0x49,0x00,0x00,
 0x00,0x00,0x00,0x00,0x48,0x82,0x92,0x10,0x00,0x00,0x00,0x00,0x00,0x00,0x00,
 0x00,0x00,0x50,0x02,0x00,0x00,0x00,0x00,0x40,0x24,0x01,0x10,0x00,0x02,0x01,
 0x00,0x20,0x02,0x00,0x00,0x40,0x00,0x00,0x00,0x28,0x00,0x00,0x10,0x02,0x11,
 0x00,0x24,0x02,0x08,0x20,0x90,0x04,0x00,0x00,0x00,0x01,0x00,0x10,0x00,0x14,
 0x81,0x00,0x00,0x00,0x40,0x00,0x52,0x81,0x90,0x42,0x00,0x00,0x80,0x04,0x00,
 0x10,0x10,0x00,0x00,0x44,0x00,0x04,0x80,0x00,0x01,0x10,0x22,0x08,0x0a,0x02,
 0x00,0x08,0x00,0x00,0x80,0x00,0x00,0x00,0x00,0x00,0x00,0x40,0x00,0x00,0x00,
 0x00,0x00,0x08,0x82,0x80,0x20,0x49,0x00,0x00,0x00,0x00,0x00,0x00,0x00,0x00,
 0x00,0x00,0x02,0x91,0x00,0x00,0x40,0x04,0x40,0x28,0x10,0x84,0x00,0x00,0x00,
 0x00,0x00,0x00,0x00,0x00,0x00,0x80,0x00,0x00,0x00,0x92,0x48,0x08,0x40,0x02,
 0x00,0x42,0x00,0x00,0x80,0x00,0x00,0x00,0x00,0x00,0x00,0x08,0x01,0x08,0x08,
 0x22,0x00,0x00,0x00,0x01,0x88,0x82,0x00,0x11,0x00,0x01,0x00,0x00,0x00,0x00};
