/* XPM */
static char * 3D_Menu15_xpm[] = {
"16 16 7 1",
" 	c #D2D2B4B48C8C",
".	c #FFFFEBEBCDCD",
"X	c #8B8B77776565",
"o	c white",
"O	c #6A6A5A5ACDCD",
"+	c #FFFFE4E4E1E1",
"@	c #EEEE8282EEEE",
" ..............X",
". ............XX",
".. ooooooooooX X",
"..oOOOOOOOOOO. X",
"..oO++++++++O. X",
"..oO+@@@@@@+O. X",
"..oO++++++++O. X",
"..oO+@@@@@@+O. X",
"..oO++++++++O. X",
"..oO+@@@@@@+O. X",
"..oO++++++++O. X",
"..oO++++++++O. X",
"..oOOOOOOOOOO. X",
"..X..........X X",
".X            XX",
"XXXXXXXXXXXXXXXX"};
