/* XPM */
static char * arthur [] = {
"64 38 7 1",
" 	s None	c None",
".	c gray85",
"X	c lightskyblue",
"o	c blue",
"O	c gray100",
"+	c black",
"@	c red",
"                    ...............XXXXXXXXX............        ",
"                   ...........XXXXXXXXXXXXXXXXX..........       ",
"                  ..........XXXXXXXoooooooXXXXXX.........       ",
"                  ........XXXXXXXoooooooooooXXXXX..........     ",
"                  .......XXXXXoooooooooooooooXXXXX.........     ",
"                  ......XXXXXooooooOOOoooooooXXXXX.........     ",
"                 ......XXXXXoooooOOOOOOooooooXXXXX.........     ",
"                .......XXXXoooooOOOOOOOooooooXXXXX.........     ",
"               .......XXXXooooooOOOOOOOoooooXXXXXX.........     ",
"               ......XXXXXoooooOOOOOOOoooooXXXXXX.........      ",
"               ......XXXXooooooOOOOOOooooooXXXXXX.........      ",
"              ......XXXXXoooooOOOOOOOooooooXXXXX.........       ",
"             ......XXXXXXooooOOOOOOOOOOooooXXXXX........        ",
"            .....XXXXXXXoooooOOOOOOOOOOOooooXXXX.......         ",
"           .....XXXXXXXooooooOOOOOOOOOOOoooooXXXX.....          ",
"          ....XXXXXooooooooooOOOOO++O++OOooooXXXX....           ",
"         ....XXXXXoooooooooooOOOOO++O++OOooooXXXX...            ",
"         ....XXXXoooooOOOOoooOOOOOOOOOOOOooooXXXX..             ",
"         ...XXXXoooooOOOOOOOoOOOOOO@@@OOOooooXXX...             ",
"         ...XXXXooooOOOOOOOOOOOOOOO@@@OOOoooXXXX...             ",
"         ...XXXXoooOOOOOOOOOOOOOOOOOOOOOooooXXX....             ",
"        ....XXXXoooOOOO+OOOOOOOOOOOOOOOooooXXX......            ",
"        ....XXXXoooOOO+OOOOOOOOOOOOOOooooooXXX......            ",
"       ......XXXooooOO+OOOOOOOOOOOOOOoooooXXXXX.....            ",
"     ........XXXooooooOOOOOOOOOOOOOOOOooooXXXXXX.....           ",
"    .........XXXooooooOOOOOOOOOOOOOOOOoooooXXXXXX....           ",
"   .........XXXoooooooOOOOOOOOOOOOOOOOoooooXXXXXX....           ",
"  .........XXXooooooooOOOOOOOOOOOOOOOOOOooooXXXXX....           ",
"  ........XXXooooOooooOOOOOOOOOOOOooOOOOOoooXXXXX....           ",
" .........XXXoooOOOoooOOOOOOOOOOOOooOOOOOoooXXXX.....           ",
" .........XXXoooOOOooOOOOOOOOOOOOooooOOOooooXXX......           ",
" .........XXXoooOOOOOOOOOOOOOOOOoooooooooooXXXX.....            ",
" ........XXXXXooOOOOOOOOOoooooooooXXXoooooXXXX......            ",
"  .......XXXXXXooOOOOOOoooooooXXXXXXXXXXXXXXX......             ",
"   .......XXXXXoooooooooXXXXXXXXXXXXXXXXXXXX.....               ",
"    .........XXXXoooooXXXXXXXXXXX......XXXX...                  ",
"      ........XXXXXXXXXXXXXXXXXX..............                  ",
"       ........XXXXXXXXXXXXX................                    "};
