/* XPM */
static char * audio_editor_xpm[] = {
"48 48 12 1",
" 	s None	c None",
".	c #000000000000",
"X	c #7F7F7F7F7F7F",
"o	c gray70",
"O	c #FFFFFFFF0000",
"+	c #A6A6A6A6A6A6",
"@	c #FFFF14149393",
"#	c dark olive green",
"$	c lightskyblue",
"%	c gray100",
"&	c dark slate grey",
"*	c #727277778585",
"                                                ",
"                                                ",
"                                                ",
"       ............             ............    ",
"     ..XXXXXXXX..X.           ..XXXXXXXX..X.    ",
"   ............XXX.         ............XXX.    ",
"   .ooOoOoOoo.XXXX.         .ooOoOoOoo.XXXX.    ",
"   .oooO+Oooo.XXXX.         .oooO+Oooo.XXXX.    ",
"   .ooOOOOOoo.XXXX.         .ooOOOOOoo.XXXX.    ",
"   .oooO+Oooo.XXXX.         .oooO+Oooo.XXXX.    ",
"   .ooOoOoOoo.XXXX.         .ooOoOoOoo.XXXX.    ",
"   .ooooooooo.XXXX.         .ooooooooo.XXXX.    ",
"   .ooooOoooo.XXXX.         .ooooOoooo.XXXX.    ",
"   .OoOoOoOoO.XXXX.         .OoOoOoOoO.XXXX.    ",
"   .oOoOOOoOo.XXXX.         .oOoOOOoOo.XXXX.    ",
"   .OoOOOOOoO.XXXX.         .OoOOOOOoO.XXXX.    ",
"   .oOOOOOOOo.XXXX.         .oOOOOOOOo.XXXX.    ",
"  OOOOOOOOOOOOOXXX.        OOOOOOOOOOOOOXXX.    ",
"   .oOOOOOOOo.XXXX.         .oOOOOOOOo.XXXX.    ",
"   .OOO+O+OOO.XXX..         .OOO+O+OOO.XXX..    ",
"   .oOoOOOoOo.X..           .oOoOOOoOo.X..      ",
"   .O...O...O..             .O...O...O..        ",
"        O@       #########       O@             ",
"         @      #$$$$$$$$$#       @             ",
"         @      #$%%$$$$$$#       @             ",
"         @      #$%$$$$$$$#       @             ",
"         @      #$$$$$$$$$#       @             ",
"         @@@@@@@#$$$$$$$$$#@@@@@@@@             ",
"                #$$$$$$$$$#              ..     ",
"                ###########            .. .     ",
"               &&&&&&&&&&&&&         ..  ..     ",
"               &ooooooooooo&       ..  .. .     ",
"               &&&&&&&&&&&&&       . ..   .     ",
"              &%*%*%*%*%*%*%&      ..     .     ",
"    ...      &%*%*%*%*%*%*%*%&     .   ....     ",
"   .....     &&&&&&&&&&&&&&&&&     .  .....     ",
"   .....                           .  .....     ",
"   ....    ...                  ....   ...      ",
"   .      .....                .....            ",
"   .      .....                .....            ",
"   .      ....                  ...             ",
"   ..     .                                     ",
"   . ..   .                                     ",
"   ..  .. .                                     ",
"     ..  ..                                     ",
"       .. .                                     ",
"         ..                                     ",
"                                                "};
