/* XPM */
static char * b5_xpm[] = {
"64 64 4 1",
" 	s None	c None",
".	c gray70",
"X	c gray100",
"o	c gray50",
"                                                                ",
"                                                                ",
"                                                                ",
"                                                                ",
"                                                                ",
"                                                                ",
"                                                                ",
"                                                                ",
"                                                                ",
"                                                                ",
"                                                                ",
"                                                                ",
"                                                                ",
"                                                                ",
"                                                                ",
"                                                                ",
"                                                                ",
"                                                                ",
"                                                                ",
"                                                                ",
"                                                                ",
"                                                                ",
"                                                                ",
"                                                                ",
"                                                                ",
"                      .......                                   ",
"                   .............                                ",
"                  ...............                               ",
"                ...................                             ",
"               .....................                            ",
"               .....XXX.............                            ",
"              .....XXXXX.............                           ",
"             .....XXXXXXX............o                          ",
"             ....XXXXXXXXX...........o                          ",
"             ....XXXXXXXXX...........o                          ",
"            .....XXXXXXXXX...........oo                         ",
"            ......XXXXXXX............oo                         ",
"            .......XXXXX.............oo                         ",
"            ........XXX.............ooo                         ",
"            ........................ooo                         ",
"            ........................ooo                         ",
"            ........................ooo                         ",
"             ......................ooo                          ",
"             ......................ooo                          ",
"             .....................oooo                          ",
"              ...................oooo                           ",
"               .................oooo                            ",
"               ................ooooo                            ",
"                .............oooooo                             ",
"                  .......oooooooo                               ",
"                   ooooooooooooo                                ",
"                      ooooooo                                   ",
"                                                                ",
"                                                                ",
"                                                                ",
"                                                                ",
"                                                                ",
"                                                                ",
"                                                                ",
"                                                                ",
"                                                                ",
"                                                                ",
"                                                                ",
"                                                                "};
