/* XPM */
static char * clipboard_xpm[] = {
"48 48 6 1",
" 	s None	m None	g None	c None",
".	m black	g black	c black",
"X	m white	g gray65	c gray65",
"o	m white	g gray80	c yellow",
"O	m white	g gray90	c gray90",
"+	m white	g white	c gray100",
"                                                ",
"                                                ",
"                                                ",
"                                                ",
"                           ......               ",
"                          .XXXXXX.              ",
"                         .XXXXXXXX.             ",
"   ..                   .XXX....XX.             ",
"  .XX...               .XXX.  ..XX.             ",
"   ..XXX...           .XXX....XXXX.             ",
"     ..XXXX....       .XXX.XXXXXXX.             ",
"       ...XXXXX...   .XXXXXXXXXX..              ",
"          ..XXXXXX....XXXXXXX...                ",
"            ...XXXXXXX..XXX..                   ",
"               ...XXXXXX...                     ",
"            ...XXX..XXXXXX...                   ",
"          ..XXXXX.....XXXXXXX...                ",
"       ...XXXX...    .XXXXXXXXXX..              ",
"     ..XXXX...        .XXX.XXXXXXX.             ",
"   ..XXX...           .XXX....XXXX.             ",
"  .XX...               .XXX.  ..XX.             ",
"   ..                   .XXX....XX.             ",
"                         .XXXXXXXX.             ",
"                          .XXXXXX.              ",
"                           ......               ",
"                                                ",
"                                                ",
"                                             .  ",
"                    ..........................  ",
"                   .oooooooooooooooooooooooo..  ",
"                  .ooooooo...o.ooooooooooooo..  ",
"            .......ooooooo.ooo.ooooooooooooo..  ",
"          ...OOOOO.ooooooo.ooo.o.o.o...ooooo..  ",
"        ..OOOOOOOO.ooooooo.o.o.o.o.o.o.ooooo..  ",
"      O   ...OOOOO.ooooooo.o.o.o.o.o...ooooo..  ",
"     O+O    .......ooooooo.o.o.o.o.o.ooooooo..  ",
"     O+O          .ooooooo...o.o...o...ooooo..  ",
"     O+O           .oooooooooooooooooooooooo..  ",
"      O  O          ..........................  ",
"        O+O                                  .  ",
"         O                                      ",
"    OOO                                         ",
"   O+++OO                                       ",
"   O+++++O                                      ",
"    OO+++O                                      ",
"      OOO                                       ",
"                                                ",
"                                                "};
