/* XPM */
static char * ghostview_xpm[] = {
"48 48 6 1",
" 	s None	c None	g None		m None",
".	c black		g black		m black",
"X	c #FEFEFEFEEFEF	g #FEFEFEFEEFEF m white",
"o	c white		g white		m white",
"O	c red		g gray60	m black",
"+	c blue		g gray70	m black",
"                                                ",
"                                                ",
"                     .........................  ",
"                     .XXXXXXXXXXXXXXXXXXXXXXX.  ",
"                     .XX..XXX.XXXX.X...XX.XXX.  ",
"                   .........................X.  ",
"                  .......XXXXXXXXXXXXXXXXXXXX.  ",
"                 ..ooooo..X.X........X..XXXXX.  ",
"                ..ooooooo..XXXXXXXXXXXXXXXXXX.  ",
"               ..ooooooooo...X.XX.XXX.......X.  ",
"               ..ooOoooOoo..XXXXXXXXXXXXXXXXX.  ",
"              ..ooOOOoOOOo..XXXXXXXXXXXXXXXXX.  ",
"              ..ooOOOoOOOo..X...XX.X.X..XXXXX.  ",
"              ..oooOoooOoo..XXXXXXXXXXXXXXXXX.  ",
"              .ooooooooooo...XXXXXXXXXXXXXXXX.  ",
"             ..oooooooooooo.....X.XX.XX.X.XXX.  ",
"             ..oooooooooooo..XXXXXXXXXXXXXXXX.  ",
"             ..ooo++ooo++oo.......XXX..X.X.XX.  ",
"            ...ooooo+++oooo..XXXXXXXXXXXXXXXX.  ",
"            ..ooooooooooooo..X...........XXXX.  ",
"            ..ooooooooooooo..XXXXXXXXXXXXXXXX.  ",
"            ..ooooooooooooo..XXXXXXXXXXXXXXXX.  ",
"            ..ooooooooooooo.....XX.XX.X...XXX.  ",
"           ...oooooooooooooo..XXXXXXXXXXXXXXX.  ",
"           ..ooooooooooooooo..XXXXXXXXXXXXXXX.  ",
"           ..ooooooooooooooo..X...X.X.X.X..XX.  ",
"           ..ooooooooooooooo...XXXXXXXXXXXXXX.  ",
"           ..oooooooooooooooo..XXXXXXX.XXXXXX.  ",
"           ..oooooooooooooooo..XXXXXXXXXXXXXX.  ",
"           ..oooooooooooooooo...XX..X.XX.XX.X.  ",
"          ..oooooooooooooooooo..XXXXXXXXXXXXX.  ",
"         ...oooooooooooooooooo...XXXXXXXXXXXX.  ",
"       ....oooo.oooo.oooo.ooooo...XX..XX.XX.X.  ",
"      ...oooooo.oooo.ooooo.ooooo...XXXXXXXXXX.  ",
"     ...ooooooo.oooo.ooooo..ooooo.....XXXXXXX.  ",
"     ...ooooooo.oooo..ooooo..ooooo.......XX.X.  ",
"      ...ooooo.oooooo.oooooo..ooooooo....XXXX.  ",
"       ...ooo..ooooooo.oooooo.ooooooooo...XXX.  ",
"        ....o.oooooooo..oooooo..oooooooo..XXX.  ",
"          ....ooooooooo.ooooooo..ooooooo...XX.  ",
"            ....ooooooo.ooooooooo....oooo..XX.  ",
"             .....ooooo..ooooooooooo..oo...XX.  ",
"                ......oo.oooooooooooo..o..XXX.  ",
"                  ........ooooooooooo.....XXX.  ",
"                    ..................XXXXXXX.  ",
"                     .........................  ",
"                                                ",
"                                                "};
