/* XPM */
static char * gnu-emacs[] = {
/* gnu-emacs pixmap
 * width height ncolors chars_per_pixel */
"45 47 5 1 ",
"  s None c None",
"` c darkslategrey m black",
"b c slate blue m black",
"a c white m white",
"o c orange m white",
/* pixels */
"                                             ",
"                              ``````    ```  ",
"                                  ``    ```  ",
"                              `````````````  ",
"                             `oooooooooo```  ",
"                            `oo````````````  ",
"                            `o`         ```  ",
"                           `````        ```  ",
"                                        ```  ",
"                                        ```  ",
"                                        ```  ",
"                                        ```  ",
"                           b    b       ```  ",
"                           bb  bb       ```  ",
"                             bb         ```  ",
"   ````````````````````````````````````````` ",
"  b ```````````````````````````````````````` ",
"  b  ``````````````````````````````````````  ",
"  b   ````aaaa````````````````````````````   ",
"  b   ```a````````````````````````````````   ",
"      ```a``````aaa``a``a`````````````````   ",
"      ```a``aaa`a``a`a``a`````````````````   ",
"  b   ```a````a`a``a`a``a`````````````````   ",
" bb   ```a````a`a``a`a``a`````````````````   ",
"  b   ````aaaa``a``a``aaa`````````````````   ",
"      ````````````````````````````````````   ",
"      ````````````````````````````````````   ",
"      ``````aaaaa`````````````````````````   ",
" b    ``````a`````````````````````````````   ",
" bb   ``````a`````aa`aa``aaa```aa```aaa```   ",
"  b   ``````aaaa``a`a`a`a``a``a``a`a``````   ",
"      ``````a`````a`a`a`a``a``a`````aa````   ",
"      ``````a`````a```a`a``a``a``a````a```   ",
"      ``````aaaaa`a```a``aa`a``aa``aaa````   ",
"      ````````````````````````````````````   ",
"  b    ``````````````````````````````````    ",
"  b     ````````````````````````````````     ",
" bb                ``o``                     ",
"                    `o`    ````              ",
"                    `o`   `oooo`             ",
"                    `o`  `oo``oo`            ",
"                    `o`  `o`  `o`            ",
"  b                 `oo``oo`  `o`            ",
"  b                  `oooo`   `o`            ",
" b b                  ````    `o`            ",
"                              `o`            ",
"                                             "
} ;
