/* XPM */
static char * gnu-emacs3_xpm[] = {
/* gnu-emacs pixmap
 * width height ncolors chars_per_pixel */
"45 47 5 1",
" 	s None	c None",
".	m black	c darkslategrey",
"X	m white	c orange",
"o	m black	c slate blue",
"O	m white	c white",
/* pixels */
"                                             ",
"                              ......    ...  ",
"                                  ..    ...  ",
"                              .............  ",
"                             .XXXXXXXXXX...  ",
"                            .XX............  ",
"                            .X.         ...  ",
"                           .....        ...  ",
"                                        ...  ",
"                                        ...  ",
"                                        ...  ",
"                                        ...  ",
"                                        ...  ",
"                                        ...  ",
"                             oo         ...  ",
"   ......................................... ",
"    ........................................ ",
"     ......................................  ",
"      ....OOOO............................   ",
"  o   ...O................................   ",
"  o   ...O......OOO..O..O.................   ",
"  o   ...O..OOO.O..O.O..O.................   ",
"  o   ...O....O.O..O.O..O.................   ",
"      ...O....O.O..O.O..O.................   ",
"      ....OOOO..O..O..OOO.................   ",
"  o   ....................................   ",
" oo   ....................................   ",
"  o   ......OOOOO.........................   ",
"      ......O.............................   ",
"      ......O.....OO.OO..OOO...OO...OOO...   ",
"      ......OOOO..O.O.O.O..O..O..O.O......   ",
" o    ......O.....O.O.O.O..O..O.....OO....   ",
" oo   ......O.....O...O.O..O..O..O....O...   ",
"  o   ......OOOOO.O...O..OO.O..OO..OOO....   ",
"      ....................................   ",
"       ..................................    ",
"        ................................     ",
"                   ..X..                     ",
"  o                 .X.    ....              ",
"  o                 .X.   .XXXX.             ",
" oo                 .X.  .XX..XX.            ",
"                    .X.  .X.  .X.            ",
"                    .XX..XX.  .X.            ",
"                     .XXXX.   .X.            ",
"                      ....    .X.            ",
"  o                           .X.            ",
"                                             "};
