/* XPM */
static char * gnu-emacs2_xpm[] = {
/* gnu-emacs pixmap
 * width height ncolors chars_per_pixel */
"45 47 5 1",
" 	s None	c None",
".	m black	c DarkSlateGray",
"X	m white	c orange",
"o	m black	c SlateBlue",
"O	m white	c white",
/* pixels */
"                                             ",
"                              ......    ...  ",
"                                  ..    ...  ",
"                              .............  ",
"                             .XXXXXXXXXX...  ",
"                            .XX............  ",
"                            .X.         ...  ",
"                           .....        ...  ",
"                                        ...  ",
"                                        ...  ",
"                                        ...  ",
"                                        ...  ",
"                                        ...  ",
"                          o o  o o      ...  ",
"                         o   oo   o     ...  ",
"   ......................................... ",
"    ........................................ ",
"     ......................................  ",
"  o   ....OOOO............................   ",
"  o   ...O................................   ",
"  o   ...O......OOO..O..O.................   ",
"  o   ...O..OOO.O..O.O..O.................   ",
"      ...O....O.O..O.O..O.................   ",
"      ...O....O.O..O.O..O.................   ",
"  o   ....OOOO..O..O..OOO.................   ",
" oo   ....................................   ",
"  o   ....................................   ",
"      ......OOOOO.........................   ",
"      ......O.............................   ",
"      ......O.....OO.OO..OOO...OO...OOO...   ",
" o    ......OOOO..O.O.O.O..O..O..O.O......   ",
" oo   ......O.....O.O.O.O..O..O.....OO....   ",
"  o   ......O.....O...O.O..O..O..O....O...   ",
"      ......OOOOO.O...O..OO.O..OO..OOO....   ",
"      ....................................   ",
"       ..................................    ",
"        ................................     ",
"  o                ..X..                     ",
"  o                 .X.    ....              ",
" oo                 .X.   .XXXX.             ",
"                    .X.  .XX..XX.            ",
"                    .X.  .X.  .X.            ",
"                    .XX..XX.  .X.            ",
"                     .XXXX.   .X.            ",
"  o                   ....    .X.            ",
"  o                           .X.            ",
"                                             "};
