/* XPM */
static char * gnu-emacs7_xpm[] = {
/* gnu-emacs pixmap
 * width height ncolors chars_per_pixel */
"45 47 5 1",
" 	s None	c None",
".	m black	c darkslategrey",
"X	m white	c orange",
"o	m black	c slate blue",
"O	m white	c white",
/* pixels */
"                                             ",
"                              ......    ...  ",
"                                  ..    ...  ",
"                              .............  ",
"                             .XXXXXXXXXX...  ",
"                            .XX............  ",
"                            .X.         ...  ",
"                           .....        ...  ",
"                                        ...  ",
"                                        ...  ",
"                                        ...  ",
"                                        ...  ",
"                                        ...  ",
"                            o  o        ...  ",
"                             oo         ...  ",
"   ......................................... ",
"  o ........................................ ",
" oo  ......................................  ",
"  o   ....OOOO............................   ",
"      ...O................................   ",
"      ...O......OOO..O..O.................   ",
"      ...O..OOO.O..O.O..O.................   ",
" oo   ...O....O.O..O.O..O.................   ",
"  o   ...O....O.O..O.O..O.................   ",
"  o   ....OOOO..O..O..OOO.................   ",
"      ....................................   ",
"      ....................................   ",
"      ......OOOOO.........................   ",
"  o   ......O.............................   ",
"  o   ......O.....OO.OO..OOO...OO...OOO...   ",
" oo   ......OOOO..O.O.O.O..O..O..O.O......   ",
"      ......O.....O.O.O.O..O..O.....OO....   ",
"      ......O.....O...O.O..O..O..O....O...   ",
"      ......OOOOO.O...O..OO.O..OO..OOO....   ",
"  o   ....................................   ",
" oo    ..................................    ",
"  o     ................................     ",
"                   ..X..                     ",
"                    .X.    ....              ",
"                    .X.   .XXXX.             ",
" o                  .X.  .XX..XX.            ",
" oo                 .X.  .X.  .X.            ",
"  o                 .XX..XX.  .X.            ",
"                     .XXXX.   .X.            ",
"                      ....    .X.            ",
"                              .X.            ",
"                                             "};
