/* XPM */
/*****************************************************************************/
/**       This pixmap is kindly offered by Ion Cionca - 1992 -              **/
/**       Swiss Federal Institute of Technology                             **/
/**       Central Computing Service                                         **/
/*****************************************************************************/

static char * image_name [] = {
/**/
"64 38 9 1",
/**/
" 	s mask	c none",
".	c cyan",
"X	c lightskyblue",
"o	c gray70",
"O	c gray85",
"+	c gray50",
"@	c darkolivegreen",
"#	c white",
"$	c black",
"                                                                ",
"             . ..... ...X                                       ",
"           ... .... ......ooooooooooooooooooooooooooo           ",
"         .... ....      ....OOOOOOOOOOOOOOOOOOOOOOOOOo          ",
"        ...   ....      oo...OOOOOOOOOOOOOOOOOOOOOOOOO++        ",
"       ..    ....       oOOO..@@@@@@@@@@@@@@@@@@@@OOOO++        ",
"      ..     ....       oOO@@..@@@@@@@@@@@@@@@@@@@@OOO+++       ",
"     ..     .....       oOO@@#..##@######@@#@@@@@@@OOO+++       ",
"     ..     ....        oOO@@@..@@@@@@@@@@@@@@@@@@@OOO++++      ",
"    ..      ....        oOO@@##..@@#####@@@@@@@@@@@OOO++++      ",
"    ..     ....         oOO@@@@..@@@@@@@@@@@@@@@@@@OOO+++++     ",
"   ..      ....         oOO@@#@@..@####@#####@@@@@@OOO+++++     ",
"   ..     ........    ........@@..@@@@@@@@@@@@@@@@@OOO+++++     ",
"  X..     .........  ..........@..@##@##@@###@@@@@@OOO+++++     ",
"  ..X     .........  ..........@..@@@@@@@@@@@@@@@@@OOO+++++     ",
"  ..     ....   ... ....oOO....@#..@##@@@@@@@@@@@@@OOO+++++     ",
"  ..     ....   ... ....oOO....@@..@@@@@@@@@@@@@@@@OOO+++++     ",
"  ..    ....   ... .... oO....#@@..####@#@@@@@@@@@@OOO+++++     ",
"  ..    ....   ... .... oO...@@@..X@@@@@@@@@@@@@@@@OOO+++++     ",
"  ...   ...   ... ....  o....#@@..X###@@@#####@@@@@OOO+++++     ",
"  X..  ....   ... ..........@@@@..@@@@@@@@@@@@@@@@OOOO++++      ",
"   ..  ...   ... ...........OOOO..OOOOOOOOOOOOOOOOOOOO+++       ",
"   X. ....   ... ..........OOOO..OOOOOOOOOOOOOOOOOOOO+++        ",
"    ..           ....     +++++..++++++++++++++++++++ooo++      ",
"     ..         ....          ..ooooooooooooooooooooooo+++      ",
"     ..        .....      ++++..++++++++++++++++++++++++++      ",
"      ..       ....       +OO..OOOOOOOOOOOOOOOOOOOOOOO++++oo oo ",
"       ..     .....       +O..OOOOOOOOOOOOOOO$$$$$$$OO++++  o  o",
"        ...   ....      ++...++++++++++++++++++++++OOO+++     o ",
"         ... .....     +....OOOOOOOOOOOOOOOOOOOOOO+++++      o  ",
"           . ....    .....OOOOOOOOOOOOOOOOOOOOOOO++      ++++++ ",
"            ..... ......OOO#################OOOOO++   +++++ooo+ ",
"                 ...++OOOOOOOOOOOOOOOOOOOOOOOOOO++   ++OOO++oo+ ",
"                    +OO####################OOOO++    +OOOOOoo+  ",
"                   +OOOOOOOOOOOOOOOOOOOOOOOOOO++     +ooooo++   ",
"                   ++++++++++++++++++++++++++++      +++++++    ",
"                                                                ",
"                                                                "};
