/* XPM */
static char * IslandW_xpm[] = {
"64 38 18 1",
" 	s None	c None",
".	c #8787C4C47474",
"X	c aquamarine4",
"o	c slate gray",
"O	c gray85",
"+	c gray",
"@	c dark olive green",
"#	c gray70",
"$	c peachpuff4",
"%	c tan",
"&	c orange red",
"*	c red",
"=	c black",
"-	c slate blue",
";	c coral",
":	c yellow",
"?	c gray50",
">	c #727277778585",
"                           ...  .....                           ",
"                          ..... X.....                          ",
"                             .. X.XXX.                          ",
"                          ..XX..XXXXXX.                   oooO  ",
"                        .....XX.XXX.                     Oo+ooO ",
"                        ......XXX@X.....                 O+++oo ",
"                         .XXXXXXXXX.XXXX.           ooo OO++++oO",
"                        ..XXXXXX@@X.X@@@X.         OOOooO++++oo+",
"                        . ..X.X.@.@.@XX@@.         O+++oo+++oooo",
"                        . .X@.X@....@@X @          O++++o+++oooo",
"                         ..X@.@@X@@XX@.      O#### OOO+oooooo+++",
"                          .X  @@ @@@XX      OOOOO##OO##ooo++oo++",
"                          .X  .@ @@@X.$     OOOOO##OOOoo++++ooo+",
"                           .  ...  @ %$     OOOOOOOOOoooo++++oo+",
"                                ..    %$  O######OOO+++Oo++++oo+",
"                                      %$ OOOO####OOOOO++OOOO++++",
"                                      %$OOOOOO####OOOO++OOOOO+++",
"                                      %$OOOOOOO#O###OO++OOOOOOO+",
"                                      %$OOOOOOOOOOOOOOOOOOOOOOOO",
"                                      %$ OOOOOOO###############O",
"         &&&&&                        %$  OOOOOOOO#OOOOOOOOOO#  ",
"        &&***&&                      %$                         ",
"       &&*****&&                     %$                         ",
"       &*******&                     %$                         ",
"       &*******&                   %%$                          ",
"       &*******&                   %$=                          ",
"       &&*****&&               ...%%==@@@@@@                    ",
"        &&***&&             ......%$=$XXXX@@@.                  ",
"--------;&&&&&-----------.........$$=$@@@@@@@@@-----------------",
"---------;;-;;---------............:.@@:@XX@@@@@----------------",
"--------;;-;-;;-------.............:..@:@$XX@@@@?:?>--:---------",
"-------;;-;;---------..............:...:.@@@X@@@@????>:---------",
"---------;;-;-;-----...............:...:.:X::X@@::???::::---:::-",
"-------;-;-;;;------......XXXXXX...:.:X:X::XX:X@?:?>>-:----:---:",
"--------;;;;-;;---------....XXXXXXX:X:X:X:XX.????:??>>:>>--:::::",
"---------;-;;---------------......X:X:X:X:.??????:>>>>:>---:----",
"-----------------------------------::>::?:????>>>:----:--:-:---:",
"-----------------------------------:---:-:------:::----::---:::-"};
