/* XPM */
static char * LRom_xpm[] = {
"68 34 18 1",
" 	s None	c None",
".	c peachpuff4",
"X	c dark slate grey",
"o	c tan",
"O	c gray85",
"+	c yellow",
"@	c cyan",
"#	c green",
"$	c lime green",
"%	c light sky blue",
"&	c orange",
"*	c orange red",
"=	c slate gray",
"-	c black",
";	c blue",
":	c gray",
"?	c violet",
">	c coral",
"                                              ..   ...              ",
"                                       ..  ............  ..  ..     ",
"                                       ..XXXXXXX............  . .   ",
"                                     XXXXXXXX..XoXXXX..o..... . .   ",
"              OOO+@@@@@         .....XXXXXXXXXXXXXXoXXXXXXX.... ... ",
"            #OOOO+@@@@@@@        ...oo..oooXXXXXXXXXoXXXoXX...XX..  ",
"          $$$#OOO+@@@@@@@@@        .....oXXXXXXXXXXXXXXXooXXXXXX.   ",
"         $$$$#OOO+@@@@@@@@@@    ....XXXXXXXXXXXXXXXXXXXXXXXooXXXX.  ",
"        $$$$$$#OO+@@@@@@@@@@@   ....XXX.XXXXXXXXXXXXXXXXXXXXXXXXX.. ",
"       %$$$$$$#OO+@@@@@@@@@@@@        XXXXX...XXXXXXXXXXXXXXXXXXXX. ",
"       &%$$$$$$#O+@@@@@@@@@@@@@       X ...oooXXXXXXXXXXXXXXXXXXXX. ",
"      &&&%%$$$$#OO+@@@@@@@@@@@@         oooooo.XXXXXXXXXXXXXXXXXXX. ",
"      &&&&&%$$$$#O+@@@@@@@@@@@@         oooooooo.XXXXXXXXXXXXXXXXX. ",
"     **&&&&&%$$$=====@@@@@@@@@@@      -----------XXXXXXXXXXXXXXXXX. ",
"     @@***&&&%%==#+@==@@@@@@@@@@      -$-$$$$$$$--XXXXXXX-XXXXXXXX. ",
"     @@@@@****==$XXX@==@@@@@@@@@      -$-$$$-----..XXXXXXXXXXXXXXX  ",
"     @@@@@@@@@=*XXXXX@=@@@@@@@@@      -$----oooooo.XXXXX==XXXXXXXX  ",
"     @@@@@@@@@=@XXXXX@=@@@@@@@@@      -$-;==oooooo..XX=oo==XXXXXXX  ",
"     @@@@@@@@@=@XXXXX*=@@@@@@@@@     o-$-;==ooooooo..Xo:oo=XXXXXX.  ",
"     @@@@@@@@@==@XXX%==****@@@@@    oo-$-oooooooooo..Xo::o=XXXXXX.  ",
"     @@@@@@@@@@==@+O==%&&&&***@@   ooo-$-oooooooooooooo::o=XXXXXX.  ",
"     @@@@@@@@@@@=====$$%&&&&&&**   ooo---ooooooooooooo::===XXXXXX   ",
"      @@@@@@@@@@@@+OO#$$%&&&&&&   ooooooo.oooooooooooo:==..XXXXXX   ",
"      @@@@@@@@@@@@+OO#$$$%%&&&&   oo::ooo..ooooooooooo:...oXXXXXX   ",
"       @@@@@@@@@@@@+OO#$$$$%&&        ::oo..oooooooooooo.oooXXXXX   ",
"       @@@@@@@@@@@@+OO#$$$$$%&        ooooo::ooooooooooo.oooXXXXo   ",
"        @@@@@@@@@@@+OOO#$$$$$         oooooooooooooooooooooooXXXo   ",
"         @@@@@@@@@@+OOO#$$$$          oo???>oooooooooooooooooooooo  ",
"          @@@@@@@@@+OOOO#$$           ???oooooooooooo.ooooooooooooo ",
"            @@@@@@@+OOOO#               ooooooooooooo.ooooooooooooo ",
"              @@@@@+OOO                 ooooooooooo...ooooooooooo   ",
"                                       oooooooooo.....oooooooooo    ",
"                                       oooooooooo  ..oooooooooo     ",
"                                        ooooo       .ooooooooo      "};
