/* XPM */
static char * LRom1_xpm[] = {
"68 34 20 1",
" 	s None	c None",
".	c maroon",
"X	c gray15",
"o	c #8B8B5B5B7A7A",
"O	c peachpuff4",
"+	c dark slate grey",
"@	c white",
"#	c tan",
"$	c slate blue",
"%	c gray85",
"&	c yellow",
"*	c cyan",
"=	c blue",
"-	c green",
";	c lime green",
":	c light sky blue",
"?	c orange",
">	c orange red",
",	c slate gray",
"<	c black",
"            .....                                                   ",
"            .....        XXXXXXXXX              oooooooo            ",
"            .....        XXXXXXXXX              oooooooo            ",
"     OOOOOOO.....        XX+++++XX              oooooooo            ",
"     OOOOOOO.....        XX+@@@+XX              oooooooo            ",
"     OO+++OO.....        XX+@@@+XX              oooooooo #########  ",
"     OO+@+OO.....$$$$$$$$XX+@@@+XX%%%&*****     oooooooo #########  ",
"     OO+@+OO.....$======$XX+++++-%%%%&*******   oooooooo ##OOOOO##  ",
"     OO+@+OO.....$======$XXXXX;;;-%%%&********* oooooooo ##O@@@O##  ",
"     OO+@+OO.....$======$XXXX;;;;-%%%&***********ooooooo ##O@@@O##  ",
"     OO+++OO.....$======$XXX;;;;;;-%%&***********ooooooo ##O@@@O##  ",
"     OOOOOOO.....$======$XX:;;;;;;-%%&************oooooo ##O@@@O##  ",
"     OOOOOOO.....$======$XX?:;;;;;;-%&*************ooooo ##OOOOO##  ",
"     OOOOOOO.....$======$X???::;;;;-%%&************ooooo #########  ",
"     OOOOOOO.....$======$X?????:;;;;-%&************ooooo #########  ",
"     OOOOOOO.....$======$>>?????:;;;,,,,,***********oooo #########  ",
"     OOOOOOO.....$======$**>>>???::,,-&*,,**********oooo #########  ",
"     OOOOOOO.....$======$*****>>>>,,;+++*,,*********oooo #########  ",
"     OOOOOOO.....$======$*********,>+++++*,*********oooo #########  ",
"     OOOOOOO.....$======$*********,*+++++*,*********OOOo #########  ",
"     OOOOOOO.....$======$*********,*+++++>,*********oooo #########  ",
"     O+++++O.....$======$*********,,*+++:,,>>>>*****oooo #########  ",
"     O@@@@@O.<<<.$@@@@@@$**********,,*&%,,:????>>>**OOOo #########  ",
"     O+++++O.@@@.$@@@@@@$***********,,,,,;;:??????>>@@@o #OOOOOOO#  ",
"     OOOOOOO.<<<.$@@@@@@$X************&%%-;;:??????OOOOo #@@@@@@@#  ",
"     O+++++O.....$@@@@@@$X************&%%-;;;::????ooooo #@@@@@@@#  ",
"     OOOOOOO.....$======$X ************&%%-;;;;::?oooooo #OOOOOOO#  ",
"     OOOOOOO.....$======$X ************&%%-;;;;;:?oooooo #########  ",
"     OOOOOOO.....$$$$$$$$XXX***********&%%%-;;;;;ooooooo #########  ",
"  ???????????????????????????**********&%%%-;;;;??????????????????? ",
"  ????????????????????????????*********&%%%%-;;???????????????????? ",
"                                *******&%%%%-                       ",
"                                  *****&%%%                         ",
"                                                                    "};
