/* XPM */
static char * maol0_xpm[] = {
"64 38 11 1",
" 	s None	c None",
".	c #727277778585",
"X	c yellow",
"o	c tan",
"O	c red",
"+	c cyan",
"@	c black",
"#	c dark slate grey",
"$	c gray50",
"%	c gray70",
"&	c gray30",
"                                                                ",
"                                                                ",
"                                                                ",
"                                                                ",
"                                                                ",
"                                                                ",
"                                                                ",
"                                                                ",
"                   ..............................               ",
"                   .XXXXXXXXXXXXXXXXXXXXXXXXXXXXX.              ",
"           .........XXXXXXXXXXXXXXXXXXXXXXXXXXXXX.              ",
"          .oooooooo.XXXXXXXXXXXXXXXXXXXXXXXXXXXXX.              ",
"          ........o.XXXXOOOOOXOOOOOOXOOOOOOXXXXXX.              ",
"          .++++++.o.XXXXOOOOOXOOOOOOXOOOOOOXXXXXX.              ",
"          .+++@@+.o.XXXXOOXOOXXXOOXXXXXOOXXXXXXXX.              ",
"          .+++@@+.o.XXXXOOOOOXXXOOXXXXXOOXXXXXXXX.              ",
"  ...     .+#++##.o.XXXXOOOOOXXXOOXXXXXOOXXXXXXXX.              ",
" .ooo.....o.#####.o.XXXXOOXXXXXXOOXXXXXOOXXXXXXXX.        $$$$  ",
" .ooooooooooo.+##.o.XXXXOOXXXXXXOOXXXXXOOXXXXXXXX.       $$$$$  ",
" .oooooooooooo....o.XXXXXXXXXXXXXXXXXXXXXXXXXXXXX.   %%% $$$$$% ",
" .ooooooooooooooooo.XXXXXXXXXXXXXXXXXXXXXXXXXXXXX.   $$$$$$%$$% ",
" .ooo.......ooooooo.XXXXXXXXXXXXXXXXXXXXXXXXXXXXX.   $$$$$$%%%  ",
" .ooo..&&&...oooooo.XXXXXXXXXXXXXXXXXX............   $$%%%%%%%  ",
" .oo.&&&@&&..oooooo.XXXXXXXXXXXXXXXXX. @@@       %%  $$%%%$$$   ",
" ...&&@@@@@&..ooooo.XXXXXXXXXXXXXXXXX.@@@@@      $$$$$%%$$$$    ",
" ..&&@@@%@@@&&.oooo.XXXXXXXXXXXXXXXX.@@@%@@@%%%  $%%%$$$$%$$    ",
"     @@%%%@@&&&&&&&&&................@@%%%@@%%%%%$$$$$$$$$$%    ",
"     @@@%@@@                 %%%%%   @@@%@@@%%$$$$$$$%%%$%%     ",
" $$$$$@@@@@     %$$$$$$$$$$$$$$$$%%$$%@@@@@%%$%%$$$$$$$$$$      ",
"%%%%%$%@@@%$$$$$$$$%%%%$$$$$$$$$$$$$$$$@@@$$$$$$$%$$$$$$$       ",
"    %$$$$$$$$$$$$$$$$$$%%%%$$$$$$$$$$$$$$$$$%%%%%%$$            ",
"                    $$$$$$$$$$$$$$$ $%$$$$$$$$$$%$$             ",
"                                  $$$$$$$$$$  $$$$              ",
"                                          $$$$$                 ",
"                                                                ",
"                                                                ",
"                                                                ",
"                                                                "};
