/* XPM */
static char * nt2_xpm[] = {
"20 18 3 1",
" 	c #000000000000",
".	c #00000000FFFF",
"X	c #FFFFFFFF0000",
"                    ",
" ..        XX       ",
"  ..        XX      ",
"   ..        XX     ",
"    ..        XX    ",
"     ..        XX   ",
"      ..        XX  ",
"       ..        XX ",
"        ..        XX",
"        ..        XX",
"       ..        XX ",
"      ..        XX  ",
"     ..        XX   ",
"    ..        XX    ",
"   ..        XX     ",
"  ..        XX      ",
" ..        XX       ",
"                    "};


