/* XPM */
static char * pixmap_xpm[] = {
"64 38 17 1",
" 	s None	c None",
".	c tan",
"X	c blue",
"o	c #8B8B5B5B7A7A",
"O	c gray70",
"+	c red",
"@	c black",
"#	c yellow",
"$	c green",
"%	c peachpuff4",
"&	c gray50",
"*	c violet",
"=	c gray100",
"-	c gray85",
";	c cyan",
":	c #727277778585",
"?	c gray30",
"                                                                ",
"                                                                ",
"                                .................               ",
"                           .........................            ",
"                         .............XXXXXX...........         ",
"     oO              .......++++++....XXXXXXXXX.........        ",
"    @ooOO          .......++++++++....XXXXXXXXX..........       ",
"     @@ooOO      ........++++++++........XXX.............       ",
"       @@ooOO  ...........................................      ",
"         @@ooOO....####.........................$$$.......      ",
"           @oooOO######....................$$$$$$$$$$$....      ",
"            @@oooOO####....................$$$$$$$$$$$....      ",
"            ..@@oooO#........................$$$$$$$$$....      ",
"            ....@oooOO....................................      ",
"           %&....@@oooOO.................................       ",
"           %&&&....@@oooOO...............................       ",
"          %%&&&&&....@@oooOO...............**...........        ",
"          %...&&&&&    @ooooOO.........*********......%%        ",
"          %%....&&&&&   @@ooooO.......**********.....%%         ",
"           %......&&&&&...@@oooOO.....***********...%%          ",
"           %%.......&&&&&...@@oo=--....*********..%%            ",
"             ..........&&&&;;;@-===--............%%             ",
"          ...............&&&&&;@--===--.........%%              ",
"      ...........@@@.......&&&&&;@--===--.....%%%               ",
"     ........@@@@@@@@@.......&&&&&;@-====--..%%                 ",
"     ......@@@@@@@@@@@.........&&&&&@--====-- ::::::            ",
"    %.......@@@@@@@@@@.............&&&@--===:?OO---O:           ",
"    %................................&&&@-==:?O????::::         ",
"    %..............................%%%%% :@::?????:?--::        ",
"    %%%......................%%%%%%%%%      :????OO::--::       ",
"      %%%%%.......%%%%%%%%%%%%%%%            ???????O::::O      ",
"          %%%%%%%%%%%%%%%%%%%                ????::???O::::O    ",
"                                              ????:::::??O::::  ",
"                                               ???????:OOO:OOO: ",
"                                                  ????????:::   ",
"                                                                ",
"                                                                ",
"                                                                "};
