/* XPM */
static char * postit_xpm[] = {
"64 38 7 1",
" 	s None	c None",
".	c #727277778585",
"X	c dark olive green",
"o	c yellow",
"O	c gray50",
"+	c dark slate grey",
"@	c red",
"                                                                ",
"                        ..                                      ",
"             X         .oo.                                     ",
"            XX        ..oo..                                    ",
"  X        XX      ...ooooo..                                   ",
" XXXXXXXXXXooX   ...oooooooo...                                 ",
" XooooooooooX   .ooooooooooooo.......                           ",
" XooooooooooX   .ooooooooooooooooooo. OOO                       ",
" XooooooooooX     .ooooooooooooooooo.OoooOOOOO                  ",
" XooooooooooX     ..oooooooooooooooo.oooooooooOOOO              ",
" XooooooooooX      .oooooooooooooooo.ooooooooooooOOOO           ",
" XooooooooooX       .ooooooooooooooo.oooooooooooooooOOOO        ",
" XooooooooooX        .ooooooooooooooo.oooooooooooooooooo..      ",
" XXoooooooooXX   OOOOO.oooooooooooooo..oooooooooooooooo...      ",
"  XooooooooooX   XOOooo.oooooooooooooo.ooooooooooooooo.O.++     ",
"  XXoooooooooXX  X OOooo...oooooooooooo..ooooooooooooO..++@     ",
"   XXXXoXXXXXXX X    OOoooo..oooooooooooo..oooooooooO..++@      ",
"      XXX    XX XX    OOooooo....oooooo...oooooooooO...+@@      ",
"                XX      OOooooooo......ooooooooooo....++@       ",
"               XoX        OOOoooooooooooooooooooo....++@@       ",
"              XXoX          ..oooooooooooooooooo..o.++@@        ",
"             XXooX        O.oo.oooooooooooooo...ooO.+@@         ",
" XXXXX  XXXXXooooX       O.oooo..ooooooooo...ooooO.++@@         ",
" XooooXXXooooooooXX     O.ooooooo...ooo...oooooo.O++@@          ",
" XXoooooooooooooooX    O.ooooooooooo...oooooooooO++@@@          ",
"  XXooooooooooooooX    .ooooooooooooooooooooooo..+@@@           ",
"   XooooooooooooooX    +OOoooooooooooooooooooo..++@@            ",
"   XooooooooooooooX   @+++OOooooooooooooooooo..++@@             ",
"   XooooooooooooooXX   @@+++OOooooooooooooooo.++@@@             ",
"    XooooooooooooooX    @@@+++OOoooooooooooo..+@@@              ",
"    XooooooooooooooX     @@@@+++OOooooooooo.O+@@@               ",
"    XooooooooooooooX      @@@@@+++..oooooo.O++@@                ",
"    XooooooooooooooXX      @@@@@++++..ooooO++@@@                ",
"    XoooooooooooooooX       @@@@@@++++..o..+@@@                 ",
"    XoooooooooooooooX        @@@@@@@++++..+@@@                  ",
"    XXoXXXXXXXXoooooX          @@@@@@@+++++@@                   ",
"     XX        XXXXXXX           @@@@@@@++@@@                   ",
"                    XX             @@@@@@@@@                    "};
