/* XPM */
static char * pirate_xpm[] = {
/* width height ncolors chars_per_pixel */
"16 16 3 1",
/* colors */
" 	c peru",
".	c peach puff",
"X	c black",
/* pixels */
"    ...  XXX    ",
"   ..      XX   ",
"  ..        XX  ",
"  .  ..  ..  X  ",
"  .  .X  .X  X  ",
"  ..        XX  ",
"   ..      XX   ",
"... ..    XX .. ",
". X  .    X  . X",
".  X .    X .  X",
" .  X..  X..  X ",
"  .   XXXX   X  ",
"  .XX      XX.  ",
" .            . ",
".   XXXXXXXX   X",
". XXXX    XXXX X"};
