/* XPM */
static char * spider [] = {
"64 63 6 1",
" 	s None	c None",
".	c peru",
"X	c #4D4D57575E5E",
"o	c #C7C7B6B6A4A4",
"O	c #6C6C62625959",
"+	c darkOliveGreen1",
"                                                                ",
"                                              .                 ",
"               .                            .. .    ..          ",
"        ...   . ..                         .      .. .          ",
"        .  ..     ..                     ..     ..    .         ",
"       .     ..     ..                 ..    ...  .   .         ",
"       .   .   ..     ..              .    ..      .  ..        ",
"       .  .      ...    ..          ..  ...         .  .        ",
"      .  .          ....  . Xoooo.OOo ..             .  .       ",
"      . .               ...Xo......OO.                . .       ",
"      .   ............... Xoo.......OO...............   .       ",
"      .   .              .Xoo.......XO              ..  ..      ",
"     ..  .            ....XXo.......OO...            ..   .     ",
"     .   .           ..  ooooo..ooOOOX   ...          .   .     ",
"    ..  .          ..   ooX......oooOOX     ....       .  . .   ",
"++  . + . ++    ...    oo.....X....oXXOX        ...  + . + . . +",
"  . .   .    ...    + oX.....XX....ooXOO + +       +    .  .  . ",
" .  .  .    ..    +   o......X......ooXOX +  + + +  ... .   .  .",
".  ..  . ...    +  + .o....XXXXXX....o.OX     +   +   .  .  ..  ",
"   .  . ..   +++     oo...XX.X..X....o.OO +   +    +  .  ..  .  ",
"   .  . .   +   ++ + o.......X.......ooXO +    +    + .   .  .  ",
"   .  . .  +   +   + o.......X.......ooXO + ++ ++ +++ . + .. .. ",
"+ .. .. . + + +  ++  o.......X.......o.XO  +        + .   .   . ",
"  .  .  . +    +   + o.......X......ooOOO +     +     . +  .  . ",
"+   ..  .    + + ++ +oo......X......oOOOX  ++++ +   + .    .    ",
"+   .   . + +   +     oo.....X.....ooOOO  +      ++++ . + + . + ",
"   .. + . +      + ++  oo........oo.OOO + +    +      .     .   ",
"++ .    .  +      +     ooooooooooOOOO   + ++  +    + .     ..  ",
"   .  + .  +   ++  +   + ooOOOOOOOOO    +    ++       .      .  ",
"   .  + .   ++      + +              + +        ++  + .    + .. ",
"+ .     .  +  ++     +  ++ +    + ++  +       ++  +++ .       . ",
"  .     . +     +   +     + ++ ++      +            + .    +    ",
"        .       +  +       +     +      +    +        . + +     ",
"     ++ .        +                   +++ +  +      +  .    ++   ",
"   ++   .        ++ + ++   +      +++   + + +     +   .      ++ ",
"  +     . +     +       +  +     +         +          .    +   +",
" +      .  +   +         ++ + +++ +         ++   +    .         ",
"++      .   + +           +       +        + +  +     .  ++     ",
"  ++    .   +                            ++   +       .         ",
"    +   .   ++  +++       +       +   +++      +      . +       ",
"    +   .  +       ++    +         + +          +               ",
"     +     +         ++            + +           ++    +        ",
"     +    +            + +   + ++   +              +  +        +",
"         +             + + +      ++                + +       + ",
"     +  +               + +         +          +++++ ++       + ",
"      +++ ++            +           +        ++       +      +  ",
"     +       +++                            +          +    +   ",
"                ++      +           +     +             +   +   ",
"    +             +    +             +  ++               + +    ",
"   +               +                 + +                  ++    ",
"  +                 +  +             + +                   +    ",
" +                  +  +   ++ ++ +   ++                     +   ",
"+ +++ ++             +++ ++       +++ +                      +  ",
"        ++           + +             +               +++ + + ++ ",
"          ++          +               +            ++          +",
"            ++        +               +          ++             ",
"              +      +                 +      +++               ",
"               +     +                 +     +                  ",
"                +    +                 +    +                   ",
"                 +   +   ++++ + +++    +   +                    ",
"                  + +  ++          +++  + +                     ",
"                   + ++               ++ +                      ",
"                    +                   +                       "};
