/* XPM */
static char * xrn_xpm[] = {
/*blue*/
"64 38 13 1",
" 	s None	c None",
".	c blue",
"X	c green",
"o	c orange red",
"O	c light sky blue",
"+	c cyan",
"@	c violet",
"#	c gray",
"$	c #727277778585",
"%	c yellow",
"&	c gray70",
"*	c gray85",
"=	c navy",
"                                   .....                        ",
"                               .............                    ",
"                             .................                  ",
"                            ...................                 ",
"                          .......................               ",
"                         .XX....XX.............oo.              ",
"                        .XXX....XXX............ooo.             ",
"                        .XXX....XXX...........oooo.             ",
"                       .XXXX...XXXX...........ooooo.            ",
"                      .XXXXXX..XXX............oooooo.           ",
"                      .XXXXXXX.XX......X...ooooooooo.           ",
"                     .XXXXXXXX.........XXX.oooooooooo.          ",
"                     .XXXXXXX..........XXXOOOoooooooo.          ",
"                     .XXXXXX..........XXXOOOOooX++++X.          ",
"                     .XXXXXX..........XXXOOOOXX+++++X.          ",
"                    .XXX.XXX..........XXOOOOOXX+++++...         ",
"                    .X...XX............XO.@@OXX+++XXXX.         ",
"               #####..............X....X..@@XXX+++XXXX.         ",
"      ###     #$$$$$..............XX......@@@XXX+XXXXX.         ",
"      $$$#   #$$    .X.............XXX....@@@XXXXXXXXX.         ",
"     $#  $## #$      ..............XX..o@@@@@XXXX...X.          ",
"     $#  $$$#$$      .X...........XXX.oo@@@%%XXX......          ",
"    $$     $$$       .XX.............oooo%%%%XXXXX....          ",
"    $#               .XX.............ooooo%ooXXXXXX...          ",
"    $#                .XXX...........oooooooo....XXX.           ",
"    $$#######$$$$$$$$$$$$$$$$$$$$$$$$$$$$$$$$$$$$$$$$$$         ",
"     $$$$$$$$&&&&&&&&&&&&&&&&&&&&&&&&&&&&&&&&&&&&&&&&$$         ",
"          $$&&***********=====**********===**=*=*=*=$$$         ",
"         $&&&&==============================*=*====$$$$         ",
"        $&&****************************=&*=*=*=&&&$$$$$         ",
"       $&&&============================&&*=*=*=&&$$$$$          ",
"      $&&**=*************************=&&*=*=*=&&$$$$$===        ",
"    $$&&&============================&&*=*=*=&&$$$$====         ",
"   $&&&&&&&&&&&&&&&&&&&&&&&&&&&&&&&&&&&&&&&&&&$$$$====          ",
"  $$$$$$$$$$$$$$$$$$$$$$$$$$$$$$$$$$$$$$$$$$$$$$$===            ",
"  $$$$$$$$$$$$$$$$$$$$$$$$$$$$$$$$$$$$$$$$$$$$$====             ",
"  $$$$$$$$$$$$$$$$$$$$$$$$$$$$$$$$$$$$$$$$$$$$===               ",
"    ===========================================                 "};
