/* XPM */
static char * xarchie_xpm[] = {
"64 38 12 1",
" 	s None	c None",
".	c dark olive green",
"X	c blue",
"o	c lightskyblue",
"O	c gray85",
"+	c dark slate grey",
"@	c gray70",
"#	c gray100",
"$	c #727277778585",
"%	c red",
"&	c gray15",
"*	c black",
"                                        .........               ",
"                             X         .ooooooooo.              ",
"                           XXXXX       .o  oooooo.              ",
"                          XXXXXXXX     .o ooooooo.              ",
"                        XXXXOOXXXXXX   .ooooooooo.              ",
"                       XXXOOOOOOOXXXXX .ooooooooo.              ",
"                     XXXXOOOOOOOOOXXXX .ooooooooo.              ",
"                    XXXOOOOOOOOOOXXXXX ...........              ",
"                   XXXOOOOOOOOOXXXXXXX+++++++++++++             ",
"                  XXXOOOOOOOOOXXXXXXXX+@@@@@@@@@@@+             ",
"                XXXOOOOOOOOOOXXXXXXXXX+++++++++++++             ",
"               XXXOOOOOOOOOOXX##XXXXXX+$#$#$#$#$#$#+            ",
"              XXOOOOOOOOOOXXX#####XXX+$#$#$#$#$#$#$#+           ",
"            XXXXXOOOOOOOOXXXX######XX++++++++++++++++           ",
"  .........##XXXXXXOOOOOXXXXXX#####XXXXXX%%XXXXXX#&             ",
" .ooooooooo.@##XXXXXXOXXXXXXXXXX##XXXXXXX%%XXXX #&*             ",
" .o  oooooo.#@@##XXXXXXXXXXXXXXXXXXX##XXX%%XXX#&&*&             ",
" .o ooooooo.@##@@##XXXXXXXXXXXXXXXXXX###X%%XX#&**&#             ",
" .ooooooooo. @@##@@##XXXXXXXXXXXXXXXXXX##%% #&*&&#&             ",
" .ooooooooo.%%%%%%%%%%%%%%%%%%%%%%%%%%%%%%% &*&##&*             ",
" .ooooooooo.%%%%%%%%%%%%%%%%%%%%%%%%%%%%%%%&*&#&**.........     ",
" ...........   @@##@@##@@##XXXXXXXXXXXX##%%*&#&* .ooooooooo.    ",
"+++++++++++++    @@##@@##@@##XXXXXXXXX##*%%&#&*  .o  oooooo.    ",
"+@@@@@@@@@@@+      @##.........##XXXX##**%%#&*   .o ooooooo.    ",
"+++++++++++++        .ooooooooo.@#XX#***&%%&*    .ooooooooo.    ",
"#$#$#$#$#$#$#+       .o  oooooo.#@@#***&#%%*     .ooooooooo.    ",
"$#$#$#$#$#$#$#+      .o ooooooo.@##**&&#&%%      .ooooooooo.    ",
"+++++++++++++++      .ooooooooo.#@@*&##&*%%      ...........    ",
"                     .ooooooooo.@##&#&&* %%     +++++++++++++   ",
"                     .ooooooooo.#@@#&**  %%%%%%%+@@@@@@@@@@@+   ",
"                     ...........###&*    %%%%%%%+++++++++++++   ",
"                    +++++++++++++##*     %%     +$#$#$#$#$#$#+  ",
"                    +@@@@@@@@@@@+%%%%%%%%%%    +$#$#$#$#$#$#$#+ ",
"                    +++++++++++++%%%%%%%%%%    ++++++++++++++++ ",
"                   +#$#$#$#$#$#$#+                              ",
"                   +$#$#$#$#$#$#$#+                             ",
"                  +++++++++++++++++                             ",
"                                                                "};
