/* XPM */
static char * xcalc_xpm[] = {
"64 38 9 1",
" 	s None	c None",
".	c gray50",
"X	c white",
"o	c black",
"O	c #727277778585",
"+	c gray70",
"@	c dark slate grey",
"#	c light sky blue",
"$	c gray85",
"                                                                ",
"                                                                ",
"              ............                                      ",
"            ....XXooooXoX.O                                     ",
"            .XX..XXXXXXXXXO                                     ",
"            OXXX.XXooXoooXO                                     ",
"            O....OXXXXXXXXO++++++++++++++++                     ",
"           OO@@@@OXoXooooXO@@@@@@@@@@@@@@@@+                    ",
"          OOO@@+.OXXXXXXXXO.@@@@@@@@@@@@@@@+                    ",
"          OOO@@+oOXoooXooXOo+@@@@@@@@@@@@@@+                    ",
"          OOO@@+oOXXXXXXXXOo++@@@@@@@@@@@@@+                    ",
"          OOO@@++OXoooXooXOoo+@@@@@@@@@@@@@+                    ",
"          OOO@@@+OXXoXoXXXOoo+@@@@@@@@@@@@@+                    ",
"          OOO@@@++++++++++++++@@@@@@@@@@@@@+                    ",
"          OOO@OOOOOOOOOOOOOOOOOOOOOOO@@@@@@+                    ",
"          OOO@OoooooooooooooooooooooO@@@@@@+                    ",
"          OOO@O####################oO@@@@@@+                    ",
"          OOO@O####################oO@@@@@@+                    ",
"          OOO@O####################oO@@@@@@+                    ",
"          OOO@O####################oO@@@@@@+                    ",
"          OOO@OOOOOOOOOOOOOOOOOOOOOOO@@@@@@+                    ",
"          OOO@@@@@@@@@@@@@@@@@@@@@@@@@@@@@@+                    ",
"          OOO@$$$@$$$@$$$@$$$$$$$$@$$$@$$$@+                    ",
"          OOO@$@$@$@$@$@$@$@@@@@@$@$@$@$@$@+                    ",
"          OOO@$$$@$$$@$$$@$@@@@@@$@$$$@$$$@+                    ",
"          OOO@@@@@@@@@@@@@$@@@@@@$@@@@@@@@@+                    ",
"          OOO@$$$@$$$@$$$@$$$$$$$$@$$$@$$$@+                    ",
"          OOO@$@$@$@$@$@$@@@@@@@@@@$@$@$@$@+                    ",
"          OOO@$$$@$$$@$$$@$$$$$$$$@$$$@$$$@+                    ",
"          OOO@@@@@@@@@@@@@$@@@@@@$@@@@@@@@@+                    ",
"          OOO@$$$@$$$@$$$@$@@@@@@$@$$$@$$$@+                    ",
"          OOO@$@$@$@$@$@$@$@@@@@@$@$@$@$@$@+                    ",
"          OOO@$$$@$$$@$$$@$$$$$$$$@$$$@$$$@+                    ",
"          OOO@@@@@@@@@@@@@@@@@@@@@@@@@@@@@@+                    ",
"          OOO@$$$$$$$$$$$@@@@@@@@@@@@@@@@@@+                    ",
"          OOO@$@@@@@@@@@$@@@@@@@@@@@@@@@@@@+                    ",
"          OOOO$$$$$$$$$$$OOOOOOOOOOOOOOOOOOO                    ",
"          OOOOOOOOOOOOOOOOOOOOOOOOOOOOOOOOO                     "};
