/* XPM */
static char * xftp2_xpm[] = {
"64 38 8 1",
"       s None  c None",
".      c black",
"X      c gray85",
"o      c gray55",
"O      c blue",
"+      c red",
"@      c white",
"#      c gray50",
"                                                                ",
"                   ....................... ..................   ",
"                  .XXXXXXXXXXXXXXXXXXXXXX.. XXXXXXXXXXXXXXXX..  ",
"                 .XXXXXXXXXXXXXXXXXXXXXX.X. XXXXXXXXXXXXXXX.X.  ",
"                .oooooooooooooooooooooo.XX. oooooooooooooo.XX.  ",
"               ......................o.oXX. ............o.oXX.  ",
"              .........................oXX. ..............oXX.  ",
"             ...OOOOOOOOOOOOOOOOOOOO...oXX. OOOOOOOOOOO...oXX.  ",
"             ..OOOOOOOOOOOOOOOO+OOOOO..oXX. OOOOOOOOOOOO..oXX.  ",
"             ..OO@@@@@@@@@@@OO++OOOOO..oXX.  @@OOOOOOOOO..oXX.  ",
"             ..OOOOOOOOOOOOOO+++OOOOO..oXX. OOOOOOOOOOOO..oXX.  ",
"             ..OO@@@@@@@@@@@++++@OOOO..oXX.  @@@@@@@OOOO..oXX.  ",
"             ..OOOOOOOOOOOO+++++OOOOO..oXX. OOOOOOOOOOOO..oXX.  ",
"             ..OO@@@OOOOOO+++++++++++++++++++++++OOOOOOO..oXX.  ",
"             ..OOOOOOOOOO++++++++++++++++++++++++OOOOOOO..oXX.  ",
"             ..OO@@@@@@@@++++++++++++++++++++++++@OOOOOO..oXX.  ",
"             ..OOOOOOOOOOO+++++++++++++++++++++++OOOOOOO..oXX.  ",
"             ..OO@@@@@@@@@O+++++OOOOO..oXX. OOOOOOOOOOOO..oXX.  ",
"             ..OOOOOOOOOOOOO++++OOOOO..oXX. OOOOOOOOOOOO..oXX.  ",
"             ..OO@@@@OOOO@@@O+++@@@OO..oX.   @@OOO@@@@OO..oX.   ",
"             ..OOOOOOOOOOOOOOO++OOOOO..o.@OOOOOOOOOOOOOO..o..   ",
"             ..OO@OOOOOOOOOOOOO+OOOOO... OOOOOOOOOOOOOOO...  .  ",
"             ...OOOOOOOOOOOOOOOOOOOO... OOOOOOOOOOOOOOO...    . ",
"              ........................ ..................     . ",
"               ...................... ..................       .",
"                      ooooooo            ooooooo               .",
"          oooooooooooooooooooooooooooooo oooooooooooooooooo   . ",
"          ooo.....ooooooooo.....oo...ooo ooooo.....oo...ooo   . ",
"          ooooooooooooooooooooooo.ooo.oo ooooooooooo.ooo.oo  .  ",
"      ..............................@..................oo.o .   ",
"     .@#@#@#@#@#@#@#@#@#@#@#@#@###.@#@#@# # #@#@#@###.oooo..    ",
"    .############################. #################.           ",
"   .##@#@#@#@#@#@#@#@#@#@#@#@###. # # # # # #@#@###.            ",
"  .############################. #################.             ",
" .############################. #################.              ",
" ............................. ..................               ",
"                                        @@@                     ",
"                                                                "};
