/* XPM */
static char * xgopher_xpm[] = {
/*i.cionca*/
"64 38 14 1",
" 	s None	c None",
".	c blue",
"X	c dark olive green",
"o	c light sky blue",
"O	c white",
"+	c navy",
"@	c green",
"#	c dark slate grey",
"$	c tan",
"%	c gray70",
"&	c peachpuff4",
"*	c #727277778585",
"=	c black",
"-	c red",
"                            .........   XXXXXXXXX               ",
"                          .............XoooooooooX              ",
"                        .................OOooooooX              ",
"                      ..........+..........ooooooX              ",
"                     ......+++++++++++......oooooX              ",
"                    .....+++++++++++++++.....ooooX              ",
"                   ....+++++++++++++++++++....oooX              ",
"                  ....+++++++++++++++++++++....XXX              ",
"                  ...++++++++++++++++++@@@@@@..####             ",
"                 ....+++++++++++++++++@@$$$$@@..%%#             ",
"                 ...+@@@@+++@@@@@@@@+@@$$$$$$@..###             ",
"                ...@@$$$$@@@$$$$$$$@@@$$$$&$$@...*O#            ",
"                ...@$&&&$@$$$$$$$$$$$@$$$&&&$$@..O*O#           ",
"               ...@@$&&&$$$$$$$$$$=$$$$$&&$&$$@...###           ",
"  XXXXXXXXX    ...@$&$&&$$$==$$$$===$$$$&&$$$$@...              ",
" Xooo---oooX   ...@$&&&&$$===$$$$$==$$$&&&&$$@@...              ",
" XoOO---oooX   ...@$&&&&$==$$$$$$$$=$$$&&&&&$@....              ",
" XoOoooooooX   ...@$&$&&$$$$OO$$OO$$$$$&&&$$$@+...              ",
" Xooo---oooX   ========$$$$OOOOOOOO$$$$&&$$$======              ",
" Xoooo--oooX---....@@$$==$$O==OO==O$$$$@====@+....              ",
" Xoooo--oooX---....+@@@@==$O==OO==O$$$===@@+++....XXXXXXXXX     ",
" XXXXX--XXXX   ...======&&&&&----&&&&=$$$==@====.==oo---oooX    ",
"######--#####   ===@$$$==$$$$----$$$$$$===$@++...XoOO---oooX    ",
"#%%%%%--%%%%#  ==..@===$=$$$$$--$$$$$=$$$$$@@....XoOoooooooX    ",
"#####----####    ===$$$$==============$$=====... Xooo---oooX    ",
"O*O*O----*O*O#  ==.@@@$$$$=##OO#OO#==$$$$$$@==.. Xoooo--oooX    ",
"*O*O*O*O*O*O*O# = ...@@@@@$=#OO#OO#=$$$$$$@@...  Xoooo--oooX    ",
"###############   ....++++@$=#####=@@@@@@@+....  XXXXX--XXXX    ",
"                   ....++++@$=====@@++++++....  ######--#####   ",
"                    .....++@@$$$$@@+++++.....---#%%%%%--%%%%#   ",
"                     ......++@@@@@++++......----#####----####   ",
"                    ##..........+..........     #*O*O----*O*O#  ",
"                    #%%%.................--    #*O*O*O*O*O*O*O# ",
"                    ######.............----    ################ ",
"                   #O*O*O*O*.........                           ",
"                   #*O*O*O*O*O*O*O#                             ",
"                  #################                             ",
"                                                                "};
