/* XPM */
static char * xgrab_xpm[] = {
"64 38 9 1",
" 	s None	c None",
".	c #727277778585",
"X	c cadet blue",
"o	c gray70",
"O	c light yellow",
"+	c cyan",
"@	c gray85",
"#	c white",
"$	c red",
"               ..................................               ",
"               .XXXXXXXXXXXXXXXXXXXXXXXXXXXXXXXX.               ",
"             oo.XXXXXXXXXXXXXXXXXXXXXXXXXXXXXXXX.oo             ",
"            oOo.XX++++++++++++++++++++++++++++XX.oOo            ",
"           ooOo.XX+@@@@@@@@@@@@@@@@@@@@@@@@@@+XX.oOoo           ",
"           oOOo.XX+@######@@@@@@@@@@@@@@@@@@@+XX.oOOo           ",
"          oOOoo.XX+@####@@@@@@@@@@@@@@@@@@@@@+XX.ooOOo          ",
"          oOOo .XX+@##@@@@@@@@@@@@@@@@@@@@@@@+XX. oOOo          ",
"         ooOOo .XX+@$$$$$$$@@@@@@@@@@@@@$@@@@+XX. oOOoo         ",
"         oOOOo .XX+@#$$$$$$$@@@@@@@@@@@$@@@@@+XX. oOOOo         ",
"         oOOo  .XX+@#@$$$$$$$@@@@@@@@@$@@@@@@+XX.  oOOo         ",
"        oOOOo  .XX+@#@@$$$$$$$@@@@@@@$@@@@@@@+XX.  oOOOo        ",
"        oOOOo  .XX+@@@@@$$$$$$$@@@@@$@@@@@@@@+XX.  oOOOo        ",
"       oOOOOooo.XX+@@@@@@$$$$$$$@@@$@@@@@@@@@+XX.oooOOOOo       ",
"      ooOOOoooO.XX+@@@@@@@$$$$$@@@$@@@@@@@@@@+XX.OoooOOOoo      ",
"      oOOOOoOOO.XX+@@@@@@@@$$$@@@$@@@@@@@@@@@+XX.OOOoOOOOo      ",
"     ooOOOOoOOo.XX+@@@@@@@@@$@@@$$$@@@@@@@@@@+XX.oOOoOOOOoo     ",
"     oOOOOOoOo .XX+@@@@@@@@$@@@$$$$$@@@@@@@@@+XX. oOoOOOOOo     ",
"    ooOOOOoOoo .XX+@@@@@@@$@@@$$$$$$$@@@@@@@@+XX. ooOoOOOOoo    ",
"    oOOOOOoOo  .XX+@@@@@@$@@@@@$$$$$$$@@@@@@@+XX.  oOoOOOOOo    ",
"   ooOOOOOoo   .XX+@@@@@$@@@@@@@$$$$$$$@@@@@@+XX.   ooOOOOOoo   ",
"   oOOOOOOoo   .XX+@@@@$@@@@@@@@@$$$$$$$@@@@@+XX.   ooOOOOOOo   ",
"   oOOOOOOoo   .XX+@@@$@@@@@@@@@@@$$$$$$$@@@@+XX.   ooOOOOOOo   ",
"   oOOOOOOo    .XX+@@$@@@@@@@@@@@@@$$$$$$$@@@+XX.    oOOOOOOo   ",
"   oOOOOOOo    .XX+@@@@@@@@@@@@@@@@@@@@@@@@@@+XX.    oOOOOOOo   ",
"   oOOOOOOo    .XX+@@@@@@@@@@@@@@@@@@@@@@@@@@+XX.    oOOOOOOo   ",
"  ooOOOOOOo    .XX+@@@@@@@@@@@@@@@@@@@@@@@@@@+XX.    oOOOOOOoo  ",
"  oOOOOOOOo    .XX++++++++++++++++++++++++++++XX.    oOOOOOOOo  ",
"  oOOOOOOOoo   .XXXXXXXXXXXXXXXXXXXXXXXXXXXXXXXX.   ooOOOOOOOo  ",
"  oOOOOOOOOooo .XXXXXXXXXXXXXXXXXXXXXXXXXXXXXXXX. oooOOOOOOOOo  ",
"  oOOOOOOOOOOOooo@XXXXXXXXXXXXXXXXXXXXXXXXXXooooooOOOOOOOOOOOo  ",
" ooOOOOOOOOOOOOOOooooooXXXXXXXXXXXXXXXXooooooOOOOOOOOOOOOOOOOOo ",
" oOOOOOOOOOOOOOOOOOOOOooo..............oOOOOOOOOOOOOOOOOOOOOOOo ",
"oOOOOOOOOOOOOOOOOOOOOOOOoo            ooOOOOOOOOOOOOOOOOOOOOOOo ",
"OOOOOOOOOOOOOOOOOoooooOOoo            ooOOoooooOOOOOOOOOOOOOOOOo",
"OOOOOOOOOOOOOOOooo    ooo              ooo    oooOOOOOOOOOOOOOOO",
"OOOOOOOOOOOOOOoo                                oooooOOOOOOOOOOO",
"OOOOOOOOOOOOOOo                                     oOOOOOOOOOOO"};
