/* XPM */
static char * xhpcalc_xpm[] = {
"64 38 11 1",
" 	s None	c None",
".	c #131392921313",
"X	c dark olive green",
"o	c #727277778585",
"O	c gray85",
"+	c gray100",
"@	c black",
"#	c gray70",
"$	c gray50",
"%	c green",
"&	c yellow",
"                                                                ",
"                                                                ",
"                                                                ",
"                                                                ",
"                                                                ",
"                                                                ",
"    ....................................................        ",
"   ......................................................X      ",
"   .............................................ooooooo..XX     ",
"   ...OOOOOOOOOOOOOOOOOOOOOOOOOOOOOOOOOOO.......o++X++o..XX     ",
"   ...OoooooooooooooooooooooooooooooooooO.......oXXXXXo..XX     ",
"   ...Oo++++++++++++++++++++++++++++++++O.......oX@@XXo..XX     ",
"   ...Oo+++@@@@+@@@@+@@++@@@@+@@++++++++O.......XX@X@@X..XX     ",
"   ...Oo+++@++@+++@@+@@++@++@+@@++++++++O.......oX@X@Xo..XX     ",
"   ...Oo+++@++@++@@@+@@++@@@@+@@++++++++O.......oX@X@Xo..XX     ",
"   ...Oo++++++@++@@@+@@++@@@@+@@@@@+++++O.......o++X++o..XX     ",
"   ...Oo+++++@@++++@+@@++@++@+@@++@+++++O.......o+++++o..XX     ",
"   ...Oo++++@@+++++@+@@++@++@+@@++@+++++O.......ooooooo..XX     ",
"   ...Oo+++@@@@+@@@@+@@++@@@@+@@@@@+@@++O................XX     ",
"   ...Oo++++++++++++++++++++++++++++++++O................XX     ",
"   ...OOOOOOOOOOOOOOOOOOOOOOOOOOOOOOOOOOO................XX     ",
"   ......................................................XX     ",
"   ...##$.##$.##$.##$.##$.##$.##$.####$.##$.##$.##$.##$..XX     ",
"   ...# $.# $.# $.# $.# $.# $.# $.####$.# $.# $.# $.# $..XX     ",
"   ...$$$.$$$.$$$.$$$.$$$.$$$.$$$.####$.$$$.$$$.$$$.$$$..XX     ",
"   ...............................####$..................XX     ",
"   ...##$.##$.##$.##$.##$.##$.##$.####$.##$.##$.##$.##$..XX     ",
"   ...# $.# $.# $.# $.# $.# $.# $.####$.# $.# $.# $.# $..XX     ",
"   ...$$$.$$$.$$$.$$$.$$$.$$$.$$$.####$.$$$.$$$.$$$.$$$..XX     ",
"   ...............................####$..................XX     ",
"   ...##$.##$.##$.##$.##$.##$.##$.####$.##$.##$.##$.##$..XX     ",
"   ...#%$.#&$.# $.# $.# $.# $.# $.####$.# $.# $.# $.# $..XX     ",
"   ...$$$.$$$.$$$.$$$.$$$.$$$.$$$.$$$$$.$$$.$$$.$$$.$$$..XX     ",
"   ......................................................XX     ",
"    ....................................................XXX     ",
"    XXXXXXXXXXXXXXXXXXXXXXXXXXXXXXXXXXXXXXXXXXXXXXXXXXXXXXX     ",
"     XXXXXXXXXXXXXXXXXXXXXXXXXXXXXXXXXXXXXXXXXXXXXXXXXXXXX      ",
"                                                                "};
