/* XPM */
static char * xirc_xpm[] = {
"64 38 6 1",
" 	s None	c None",
".	g gray80	c blue",
"X	g gray20	c green",
"o	g gray55	c deeppink",
"O	c gray60",
"+	c black",
"                .........                                       ",
"              .............                                     ",
"            .................                                   ",
"          XXX.............XXXX              ooooOo              ",
"        XXXXX............XXXXXXX           ooooooOoo            ",
"       XXXXX............XXXXXXXX.          ooooooOooo           ",
"      XXXXXXX...........XXXXXXXXXX         oooooooOooo          ",
"     XXXXXXX.............XXXXXXXXXX        oooooooOoooo         ",
"     XXXXX..........XX...XXXXXX....X       oooooooOooooo        ",
"    ..XX...........XXXX.XXXXXXX...XX        ooooooOoooooo       ",
"    .............XXXXXXXXXXXXX....X.X       oooooOoooooooo      ",
"   ..............XXXXXXXXXXXXX....XXXX       oooo    oooooo     ",
"   ........XX....XXXXXXXXXXXXXXX..XXXX                oooooo    ",
"  ..........X....XXXXXXXXXXXXXXXXX.XXX                 oooooo   ",
"  ..............XXX.XXXXXXXXXXXXX.XXXXX                 ooooo   ",
"  XXX...........XXX..XXXXXXXXXXX..XXXXX                  ooooo  ",
"  XXX...........XXX.XXXXXXX.XXXXXXXXXXX                  OOOooo ",
"  .XXX..........XX..XXXXXXX.XXXXXXXX.XX                oooooOoo ",
"  .XX........XX.....XXXXXXX...XX.....XX               oooooooOo ",
"  ............XX.X.XXXXXXX....XX.....XX               ooooooooO ",
"  ............X...XXXXXXXXX..........XX               ooooooooO ",
"  ...............XXXXXXXXXXX.........XX               ooooooooo ",
"   ..............XXXXXXX.XXXX........XX                ooooooo  ",
"   .............XXXXXXXX..XXXXX......XX                 ooooo   ",
"    ...........XXXXXXXXXX...XXXX....XX                    +     ",
"    .............XXXXXXXX....XX....XXX                    +     ",
"     ............XXXXXXX..X..X.....XX                     +     ",
"      ............XXXXX......X.....XX+                   ++     ",
"       ............XXX............XX +                   +      ",
"       ............XXXXX.........XX  ++                 ++      ",
"        ..........XXXXXX.......XXX    ++               ++       ",
"          ........XXXXXX....XXXXX      +++            ++        ",
"          .........XXXX....XXXXX         ++++       +++         ",
"           .........X....XXXXX              ++++++++            ",
"              .......XXXXXXXX                                   ",
"                 ....XXXXX                                      ",
"                                                                ",
"                                                                "};
