/* XPM */
static char * xmail_xpm[] = {
"64 38 8 1",
" 	s None	c None",
".	c #727277778585",
"X	c light yellow",
"o	c black",
"O	c red",
"+	c gray30",
"@	c dark slate grey",
"#	c #808080808080",
"             .................................                  ",
"           ..XXXXX.XXXXXXXXXXXXXXXXXXXXXXXXXXX..                ",
"          .XXXXXXXXX.XXXXXXXXXXXXXXXXXXXXXXXXXX..               ",
"         ..XXXXXXXXXX.XXXXXXXXXXXXXXXXXXXXXXXXXXX..             ",
"         .XXXXXXXXXXXX.XXXXXXXXXXXXXXXXXXXXXXXXXXX.             ",
"        ..XXXXXXXXXXXX.XXXXXXXXXXXXXXXXXXXXXXXXXXX..            ",
"        .XXXXXXXXXXXXXX.XXXXXXXXXXXXXXXXXXXXXXXXXXX.            ",
"       ..XXXXXXXXXXXXXX.XXXXXXXXXXXXXXXXXXXXXXXXXXX..           ",
"       .XXXXXXXXXXXXXXXX.XXXXXXXXXXXXXXXXXXXXXXXXXXX.           ",
"       .XXXXXXXXXXXXXXXX.XXXXXXXXXXXXXXXXXXXXXXXXXXX.           ",
"       .XXXXXXXXXXXXXXXX.XXXXXXXXXXXXXXXXXXXXXXXXXXX.           ",
"       .XXXXXXXXXXXXXXXX.XXXXXXXXXXXXXXXXXXXXXXXXXXX.           ",
"       .XXXXXXXXXXXXXXXXX.XXXXXXXXXXXXXXXXXXXXXXXXXX.           ",
"       .XXXXXXXXXXXXXXXXX.XXXXXXXXXXXXXXXXXXXXXXXXXX.           ",
"       .XXXXXXXXXXXXXXXXX.XXXXXXXXXXXXXXXXXXXXXoooooo           ",
"       .XXXXXXXXXXXXXXXXX.XXXXXXXXXXXXXXXooooooooooOo           ",
"       .XXXXXXXXXXXXXXXXX.XXXXXXXXooooooooooooooOOOOo           ",
"       .XXXXXXXXXXXXXXXXX.XXXoooooooooooooooXXoOOOOOo           ",
"       .XXXXXXXXXXXXXXXXX.XXoooooooooooo......oOOOOOo           ",
"       .XXXXXXXXXXXXXXXXX.XXoooooooo..........oOOOOOo           ",
"       .XXXXXXXXXXXXXXXXX.XXXoooX.......XXXX..oOOOOOo           ",
"       .XXXXXXXXXXXXXXXXX.XXXXX....XXXXXXXXX..oOOOOOo           ",
"       .XXXXXXXXXXXXXXXXX.XXXXXXXXXXXXXXXXXX..oOOOOOo           ",
"       .XXXXXXXXXXXXXXXXX.XXXXXXXXXXXXXXXXXX..oOOOOOo           ",
"       .XXXXXXXXXXXXXXXXX.XXXXXXXXXXXXXXXXXX..oOOOOOo           ",
"       .XXXXXXXXXXXXXXXXX.XXXXXXXXXXXXXXXXXX..oOOOOOo           ",
"       ..XXXXXXXXXXXXXXXX.XXXXXXXXXXXXXXXXXX..oOOOOOo           ",
"         ...XXXXXXXXXXXXX.XXXXXXXXXXXXXXX...  oOOOOOo           ",
"            ...XXXXXXXXXX.XXXXXXXXXXX....     oOOOoo            ",
"               ..XXXXXXXX.XXXXXXXX...         oOOo              ",
"                 ...XXXXX.XXXXX...++.         ooo               ",
"                    ...XX.X....+++++.         o                 ",
"                       ...@+++++++++.                           ",
"                        .@@@@+++++++.                           ",
"                        @@@@@++++###.                           ",
"                        @@@@@+######.                           ",
"                        @@@@@#######.                           ",
"                        @@@@@#######.                           "};
