/* XPM */
static char * xmosaic_xpm[] = {
"48 48 5 1",
" 	s None	c None",
".	c deeppink",
"X	c cadetblue",
"o	c yellow",
"O	c black",
"                                          ..    ",
"                    .........................   ",
"               ...............................  ",
"              ...............................   ",
"            ......                         .    ",
"           ...                           XX     ",
"          ...      XXXXXXXXXXXXXXXXXXXXXXXXX    ",
"         ..      XXXXXXXXXXXXXXXXXXXXXXXXXXX    ",
"        ..    XXXXXXXXXXXXXXXXXXXXXXXXXXXXXX    ",
"        .    XXXX                        XX     ",
"        .   XXX                                 ",
"           X        ooooooooooooooooooooo       ",
"       .  X      oooooooooooooooooooooooo       ",
"       .  X    oooooooooooooooooooooooooo       ",
"      .  X    ooooo                    o        ",
"      . X    ooo                                ",
"        X   ooo                                 ",
"           oo         OOOOO                     ",
"           o        OOOOOOOOO                   ",
"          o        OOOOOOOOOOO                  ",
"          o       OOOOOOOOOOOOO                 ",
"         o        OOOOOOOOOOOOO                 ",
"         o       OOOOOOOOOOOOOOO                ",
"         o       OOOOOOOOOOOOOOO                ",
"                 OOOOOOOOOOOOOOO                ",
"                 OOOOOOOOOOOOOOO      o         ",
"                 OOOOOOOOOOOOOOO      o         ",
"                  OOOOOOOOOOOOO       o         ",
"                  OOOOOOOOOOOOO      oo         ",
"                   OOOOOOOOOOO      oo  X       ",
"                    OOOOOOOOO      ooo  X       ",
"                      OOOOO        oo   X       ",
"                                oooo   X O      ",
"        o                      oooo   XX        ",
"       oooo               ooooooooo   X  .      ",
"       ooooooooooooooooooooooooo     X   .      ",
"       ooooooooooooooooooooooo      XX   .      ",
"        oo                         XXX  .       ",
"     XXX                        XXX    ..       ",
"     XXXXXXXXXXXXXXXXXXXXXXXXXXXXXX   ..        ",
"     XXXXXXXXXXXXXXXXXXXXXXXXXXXXX    ..        ",
"     XXXXXXXXXXXXXXXXXXXXXXXXXX     ..          ",
"     XX                            ...          ",
"   .                             ....           ",
"  .................................             ",
"  ................................              ",
"  ..............................                ",
"   ..                                           "};
