/* XPM */
static char * xnomail_xpm[] = {
"64 38 11 1",
" 	s None	c None",
".	c gray30",
"X	c #727277778585",
"o	c red",
"O	c dark slate grey",
"+	c yellow",
"@	c gray70",
"#	c gray25",
"$	c white",
"%	c gray50",
"&	c #808080808080",
"            .......XXXXXXXXX.ooooooooooooXXXXX                  ",
"           ..OOOOO..++++++++.oooooooooooo+++++XX                ",
"          ..OOOOOOO..+++++++.oooooooooooo++++++XX               ",
"         .OOOOOOOOOOO.++++++.oooooooooooo++++++++XX             ",
"         .XXXOOOOOOOOO.++@@@.oooooooooooo+++++++++X             ",
"        .XXXXXOOOOOOOOO++@@@.ooooooooooo.+++++++++XX            ",
"        .XXXXXXOOOOOOOO.++@@.ooooooooo..+++++++++++X            ",
"       .XXXXXXXOOOOOOOOO++@@.ooooooo..@@@++++++++++XX           ",
"       .XXXXXXXXOOOOOOOO.+@@.ooooo..@@@@@+++++++++++X           ",
"       .XXXXXXXXOOOOOOOO.+@@.ooo..@@@@++++++++++++++X           ",
"       .XXXXXXXXOOOOOOOO.++@.oo.@@@@++++++++++++++++X           ",
"       .XXXXXXXXXOOOOOOO.++@.oo@@@++++++++++++++++++X           ",
"       .XXXXXXXXXOOOOOO##.+@.oo@++++++++++++++++++++X           ",
"       .XXXXXXXXOOO####$$.+@.oo+++++++++++++++++++++X           ",
"       .XXXXXXX####$$$$$$.+@.oo+++++++++++++++++++++X           ",
"       .XXX####$$$$$$$$$$.+@.oo+++++++++++++++++++++X           ",
"       ####$$$$$$$$$$$$$$.+@.oo+++++++++++++++++++++X           ",
"   ####$$$$$$$$$$$$$$$$$$.+@.oo+++++++++++++++++++++X           ",
" ##$$$$$$$$$$$$$$$$$$$$$$.+@.oo+++++++++++++++++++++X           ",
"  #####$$$$$$$$$$$$$$$$$$.+@.oo+++++++++++++++++++++X           ",
"   #$$$#######$$$$$$$$$$$.+@.oo+++++++++++++++++++++X           ",
"    #$$$$$$$$$#######$$$$.@..ooo++++++++++++++++++++X           ",
"     ##$$$$$$$$$$$$$$####.@.ooooo+++++++++++++++++++X           ",
"       #$$$$$$$$$$$$$$$$$.+.ooooo+++++++++++++++++X%X           ",
"       .#$$$$$$$$$$$$$$$$.+.ooooo+++++++++++++++%%%             ",
"       .O#$$$$$$$$$$$$$$$.+..oooo+++++++++++++XX                ",
"      ...O#$$$$$$$$$$$$$$.++..oo+++++++++++XXX                  ",
"     .++...#$$$$$$$$$$$$$.+++++++++++++++XXX                    ",
"    ..++++++#$$$$$$$$$$$$.++++++++++++XXX                       ",
"   ..++++++++#$$$$$$$$$$$.+++++++++XXX                          ",
"  .+++++++++++##$$$$$$$$$.++++++XXX.X                           ",
"...+++++++++++++#$$$$$$$#.+++XXX....X                           ",
".++++++++++++++++#$$$$##X.XXXX......X                           ",
"++++++++++++++++++#$##+++.XOO.......X                           ",
"+++++++++++++++++++#++++..OOO....&&&X                           ",
"++++++++++++++++++++++...OOOO.&&&&&&X                           ",
"+++++++++++++++++++++.. OOOOO&&&&&&&X                           ",
"++++++++++++++++++++..  OOOOO&&&&&&&X                           "};
