/* XPM */
static char * xrn-compose_xpm[] = {
"64 48 8 1",
" 	s None	c None",
".	c blue",
"X	c green",
"o	c black",
"O	c gray85",
"+	c red",
"@	c yellow",
"#	c white",
"                                                                ",
"                                                                ",
"                                                                ",
"                                                                ",
"                                    .......                     ",
"                                 .............                  ",
"                               .................                ",
"                             XXX.............XXXX               ",
"                           XXXXX............XXXXXXX             ",
"             oooooooo     XXXXX............XXXXXXXX.            ",
"    ooooooooooooooooooo  XXXXXXX...........XXXXXXXXXX           ",
"    oooooooooooooooooooooXXXXXX.............XXXXXXXXXX          ",
"    oOOOOOOOOOOOOOOOOOOOoXXXX..........XX...XXXXXX....X         ",
"    oOoOOoOoooOoOOoOoooOoXX...........XXXX.XXXXXXX...XX         ",
"    oOooOoOoOOOoOOoOoOOOo...........XXXXXXXXXXXXX....X.X        ",
"    oOooooOooOOoOooOoooOo...........XXXXXXXXXXXXX.+++XXXX       ",
"    oOoOooOoOOOoOooOOOoOo.....XX....XXXXXXXXXXXXX++++XXXX       ",
"    oOoOOoOoooOooooOoooOo......X....@XXXXXXXXXXXX++XX.XXX       ",
"    oOOOOOOOOOOOOOOOOOOOo.........@@@X.XXXXXXXXX++XX.XXXXX      ",
"    oOOoooooooooooooooOOo.......@@@@@X..XXXXXXXX++X..++++X      ",
"    oOOOOOOOOOOOOOOOOOOOo....@@@@@@@@X.XXXXXXX.X++++++++++      ",
"    oOoOoooOoOOoOooOoooOo...@@@@@@@@@..XXXXXXX.XX+++++X.++      ",
"    oOOoooOooOOoooOooOoOo@@@@@@@@@@@@..XXXXXXX+..XX.....++      ",
"    oOoOoOooOOOOOoOOooO@@@@@@@@@@@@@@.XXXXXXX+++.XX.....++      ",
"    oOooOoOOoOOooOOoo@@@@@@@@@@@@@@@@XXXXXXXXX+++X..++.++X      ",
"    oOOoOooOoOOooooo@@@@@@@@@@@@@@@@@XXXXXXXXXX+++..++++XX      ",
"    oOOoOOoooOOooOOooooOo....@@@@@@@@XXXXXX.XXXX+++.....XX      ",
"    oOoooOOoOOOOOoOoooOOo...@@@@@@@@@XXXX++..XXXX+++....XX      ",
"    oOooOooOoOOoooOooOoOo..@@@@@.@@@@X++X+++..++++++...XX       ",
"    oOOOOOOOOOOOOOOOOOOOo.@@@@@..@@@@++XXX+++.++++++..XXX       ",
"    oOOOOOOOOOOOOOOOOOOO@@@@@@....@@@+XX+XX+++++......XX        ",
"    oOooOOoOOooooooOoOo@@@@@@@....@@@+++++..++++......XX        ",
"    oOoooOOoOOOOoOOooO@@@@@@@......@@.+++...++++.....XX         ",
"    oOOooOooooOoOoOo@@@@@@@@@+..+++@@.++XX++.++.....XX          ",
"    oOoOooOooOoOooo@@@@@@@@@.++..+++@XX+++++......XXX           ",
"    oOOooOoOOooOo@@@@@@@@@@@.........XXX++.....XXXXX            ",
"    oOoOoOOooo@o@@@@@@@@@@@# .........XXX.....XXXXX             ",
"    oOOOOOOOO@@@@@@@@@@@@@@    .............XXXXX               ",
"    oOOOOOOOOOOOOOOOOO@@@@       .......XXXXXXXX                ",
"    oooooooooooooooooo@@@@          ....XXXXX                   ",
"                      @@@                                       ",
"                      @@@                                       ",
"                      @@@                                       ",
"                      @@                                        ",
"                      @@                                        ",
"                      @                                         ",
"                      @                                         ",
"                                                                "};
