/* XPM */
/*****************************************************************************/
/**       This pixmap is kindly offered by Ion Cionca - 1992 -              **/
/**       Swiss Federal Institute of Technology                             **/
/**       Central Computing Service                                         **/
/*****************************************************************************/
static char * image_name [] = {
/**/
"64 38 9 1",
/**/
" 	s None	c None",
".	c blue",
"X	c green",
"o	c red",
"O	c black",
"+	c cyan",
"@	c grey20",
"#	c gray85",
"$	c white",
"                              .................                 ",
"                            XXX.............XXXX                ",
"                          XXXXX............XXXXXXX              ",
"                         XXXXX............XXXXXXXX.             ",
"                        XXXXXXX...........XXXXXXXXXX            ",
"                       XXXXXXX.............XXXXXXXXXX           ",
"                       XXXXX..........XX...XXXXXX....X          ",
"                      ..XX...........XXXX.XXXXXXX...XX          ",
"                      .............XXXXXXXXXXXXX....X.X         ",
"                      .............XXXXXXXXXXXXX.oooXXXX        ",
"                      .......XX....XXXXXXXXXXXXXooooXXXX        ",
"                     .........X....XXXXXXXXXXXXXooXX.XXX        ",
"          OOOOOOOOOOO.............XXX.XXXXXXXXXooXX.XXXXX       ",
"         O+++++++++++XX...........XXX..XXXXXXXXooX..ooooX       ",
"         O+++++++++++XX...........XXX.XXXXXXX.Xoooooooooo       ",
"         O++@@@@@@@@@XXX..........XX..XXXXXXX.XXoooooX.oo       ",
"         O+@#########XX........XX.....XXXXXXXo..XX.....oo       ",
"         O+@#$$$$$$$#...........XX.X.XXXXXXXooo.XX.....oo       ",
"         O+@#$$$$$###...........X...XXXXXXXXXoooX..oo.ooX       ",
"         O+@#$$$#####..............XXXXXXXXXXXooo..ooooXX       ",
"         O+@#$$######..............XXXXXXX.XXXXooo.....XX       ",
"         O+@#$$#######............XXXXXXoo..XXXXooo....XX       ",
"         O+@#$########...........XXXXooXooo..oooooo...XX        ",
"         O+@#$#########............oooXXXooo.oooooo..XXX        ",
"         O+@#$#########..oo....oo..ooXXoXXooooo......XX         ",
"         O+@############.oooo...o...ooooo..oooo......XX         ",
"         O+@#############.oooooooo...ooo...oooo.....XX          ",
"         O+@#############..oooooooo..ooXXoo.oo.....XX           ",
"         O++@@@@@@@@@@@@@@..oo..ooooXXooooo......XXX            ",
"         O++++++++++++++++++.oo...ooXXXoo.....XXXXX             ",
"          OOOOOOOOOOOOOOOOOOO........XXX.....XXXXX              ",
"        OOOOOOOOOOOOOOOOOOOOOO.............XXXXX                ",
"        O+++++++++++++++++++++++.......XXXXXXXX                 ",
"        O+++++++++++++++OOOOOO++O  ....XXXXX                    ",
"        O+++++++++++++++OOOOOO++O                               ",
"        O+++++++++++++++++++++++O                               ",
"        OOOOOOOOOOOOOOOOOOOOOOOOO                               ",
"                                                                "};
