/* XPM */
static char * xrnnr_xpm[] = {
/*blue*/
"64 38 14 1",
" 	s None	c None",
".	c red",
"X	c blue",
"o	c yellow",
"O	c green",
"+	c orange red",
"@	c light sky blue",
"#	c cyan",
"$	c violet",
"%	c gray",
"&	c #727277778585",
"*	c gray70",
"=	c gray85",
"-	c navy",
"..               ...      ..       XXXXX                   .....",
" .....           .oo...   .o.. XXXXXXXXXXXXX       ........ooo. ",
" .oooo...        .ooooo...oooXXXXXXXXXXXXXXXXX.....oooooooooo.  ",
"  .oooooo...     .ooooooooooXXXXXXXXXXXXXXXXXXXooooooooooooo.   ",
"   .oooooooo.... .ooooooooXXXXXXXXXXXXXXXXXXXXXXXoooooooooo.    ",
"   .oooooooooooo..oooooooXOOXXXXOOXXXXXXXXXXXXX++Xooooooo..     ",
"    .oooooooooooooooooooXOOOXXXXOOOXXXXXXXXXXXX+++Xooooo.       ",
"     .ooooooooooooooooooXOOOXXXXOOOXXXXXXXXXXX++++Xoooo.        ",
"      .ooooooooooooooooXOOOOXXXOOOOXXXXXXXXXXX+++++Xoo.         ",
"      .oooooooooooooooXOOOOOOXXOOOXXXXXXXXXXXX++++++X.          ",
"       .ooooooooooooooXOOOOOOOXOOXXXXXXOXXX+++++++++X           ",
"        .ooooooooooooXOOOOOOOOXXXXXXXXXOOOX++++++++++X          ",
"        .ooooooooooooXOOOOOOOXXXXXXXXXXOOO@@@++++++++X          ",
"         .oooooooooooXOOOOOOXXXXXXXXXXOOO@@@@++O####OX.         ",
"          .ooooooooooXOOOOOOXXXXXXXXXXOOO@@@@OO#####OX ..       ",
"          .oooooooooXOOOXOOOXXXXXXXXXXOO@@@@@OO#####XXXoo.      ",
"           .ooooooooXOXXXOOXXXXXXXXXXXXO@X$$@OO###OOOOXooo..    ",
"          .oooo%%%%%XXXXXXXXXXXXXXOXXXXOXX$$OOO###OOOOXooooo..  ",
"      %%%.oooo%&&&&&XXXXXXXXXXXXXXOOXXXXXX$$$OOO#OOOOOXooooooo. ",
"      &&&%ooo%&&ooooXOXXXXXXXXXXXXXOOOXXXX$$$OOOOOOOOOXoooooo.  ",
"     &%oo&%%o%&ooooooXXXXXXXXXXXXXXOOXX+$$$$$OOOOXXXOXooooo..   ",
"     &%oo&&&%&&ooooooXOXXXXXXXXXXXOOOX++$$$ooOOOXXXXXXoooo.     ",
"    &&ooooo&&&oooooooXOOXXXXXXXXXXXXX++++ooooOOOOOXXXXooo.      ",
"    &%oooooooooooooooXOOXXXXXXXXXXXXX+++++o++OOOOOOXXXo..       ",
"    &%ooooooooooooooooXOOOXXXXXXXXXXX++++++++XXXXOOOX .         ",
"   .&&%%%%%%%&&&&&&&&&&&&&&&&&&&&&&&&&&&&&&&&&&&&&&&&&&         ",
"  .oo&&&&&&&&****************************************&&         ",
"  .ooooooo&&**===========-----==========---==-=-=-=-&&&         ",
" .ooooooo&****------------------------------=-=----&&&&         ",
".ooo....&**============================-*=-=-=-***&&&&&.        ",
"....   &***----------------------------**=-=-=-**&&&&&oo.       ",
"      &**==-=========================-**=-=-=-**&&&&&---.       ",
"    &&***----------------------------**=-=-=-**&&&&----oo.      ",
"   &******************************************&&&&----oooo.     ",
"  &&&&&&&&&&&&&&&&&&&&&&&&&&&&&&&&&&&&&&&&&&&&&&&---ooooooo.    ",
"  &&&&&&&&&&&&&&&&&&&&&&&&&&&&&&&&&&&&&&&&&&&&&----.....ooo.    ",
"  &&&&&&&&&&&&&&&&&&&&&&&&&&&&&&&&&&&&&&&&&&&&---       .....   ",
"    -------------------------------------------                 "};
