#define fight_width 128
#define fight_height 32
static char fight_bits[] = {
   0x00, 0x00, 0x00, 0x00, 0x00, 0x00, 0x00, 0x00, 0x00, 0x00, 0x00, 0x00,
   0x00, 0x70, 0x00, 0x00, 0x00, 0xfe, 0xff, 0xc7, 0xff, 0x07, 0xfe, 0x03,
   0x20, 0x00, 0xc2, 0xff, 0x1f, 0xf8, 0x00, 0x00, 0x00, 0xff, 0xff, 0xe3,
   0xff, 0x03, 0xff, 0x07, 0x30, 0x00, 0xe3, 0xff, 0x0f, 0x8c, 0x01, 0x00,
   0x80, 0xff, 0xff, 0xf1, 0xff, 0x81, 0xff, 0x0f, 0x38, 0x80, 0xf3, 0xff,
   0x07, 0x04, 0x01, 0x00, 0x80, 0x03, 0x00, 0x00, 0x0e, 0xc0, 0x01, 0x1e,
   0x38, 0x80, 0x03, 0x38, 0x00, 0x04, 0x03, 0x00, 0x80, 0x03, 0x00, 0x00,
   0x0e, 0xe0, 0x01, 0x3c, 0x38, 0x80, 0x03, 0x38, 0x00, 0x02, 0x02, 0x00,
   0x80, 0x03, 0x00, 0x00, 0x0e, 0xe0, 0x00, 0x38, 0x38, 0x80, 0x03, 0x38,
   0x00, 0x02, 0x02, 0x00, 0x80, 0x03, 0x00, 0x00, 0x0e, 0x70, 0x00, 0x38,
   0x38, 0x80, 0x03, 0x38, 0x00, 0x02, 0x02, 0x00, 0x80, 0x03, 0x00, 0x00,
   0x0e, 0x70, 0x00, 0x38, 0x38, 0x80, 0x03, 0x38, 0x00, 0x02, 0x02, 0x00,
   0x80, 0x03, 0x00, 0x00, 0x0e, 0x70, 0x00, 0x38, 0x38, 0x80, 0x03, 0x38,
   0x00, 0x02, 0x02, 0x00, 0x80, 0x03, 0x00, 0x00, 0x0e, 0x70, 0x00, 0x38,
   0x38, 0x80, 0x03, 0x38, 0x00, 0x06, 0x03, 0x00, 0x80, 0x03, 0x00, 0x00,
   0x0e, 0x70, 0x00, 0x18, 0x38, 0x80, 0x03, 0x38, 0x00, 0x06, 0x03, 0x00,
   0x80, 0x03, 0x00, 0x00, 0x0e, 0x70, 0x00, 0x08, 0x38, 0x80, 0x03, 0x38,
   0x00, 0x04, 0x01, 0x00, 0x80, 0xff, 0x7f, 0x00, 0x0e, 0x70, 0x00, 0x00,
   0x38, 0x80, 0x03, 0x38, 0x00, 0x04, 0x01, 0x00, 0xc0, 0xff, 0x3f, 0x00,
   0x07, 0x70, 0x00, 0x00, 0x38, 0x80, 0x03, 0x38, 0x00, 0x04, 0x01, 0x00,
   0xc0, 0xff, 0x1f, 0x00, 0x07, 0x38, 0x00, 0xff, 0xfc, 0xff, 0x01, 0x38,
   0x00, 0x04, 0x01, 0x00, 0xc0, 0x03, 0x00, 0x00, 0x07, 0x38, 0x80, 0x7f,
   0xfc, 0xff, 0x01, 0x1c, 0x00, 0x04, 0x01, 0x00, 0xc0, 0x01, 0x00, 0x00,
   0x07, 0x38, 0xc0, 0x3f, 0xfc, 0xff, 0x01, 0x1c, 0x00, 0x8c, 0x01, 0x00,
   0xc0, 0x01, 0x00, 0x00, 0x07, 0x38, 0x00, 0x0e, 0x1c, 0xc0, 0x01, 0x1c,
   0x00, 0x88, 0x00, 0x00, 0xc0, 0x01, 0x00, 0x00, 0x07, 0x38, 0x00, 0x0e,
   0x1c, 0xc0, 0x01, 0x1c, 0x00, 0x88, 0x00, 0x00, 0xc0, 0x01, 0x00, 0x00,
   0x07, 0x38, 0x00, 0x0e, 0x1c, 0xc0, 0x01, 0x1c, 0x00, 0x88, 0x00, 0x00,
   0xc0, 0x01, 0x00, 0x00, 0x07, 0x38, 0x00, 0x0e, 0x1c, 0xc0, 0x01, 0x1c,
   0x00, 0xf8, 0x00, 0x00, 0xc0, 0x01, 0x00, 0x00, 0x07, 0x38, 0x00, 0x0e,
   0x1c, 0xc0, 0x01, 0x1c, 0x00, 0x70, 0x00, 0x00, 0xc0, 0x01, 0x00, 0x00,
   0x07, 0x38, 0x00, 0x0e, 0x1c, 0xc0, 0x01, 0x1c, 0x00, 0x00, 0x00, 0x00,
   0xc0, 0x01, 0x00, 0x00, 0x07, 0x38, 0x00, 0x0e, 0x1c, 0xc0, 0x01, 0x1c,
   0x00, 0x70, 0x00, 0x00, 0xc0, 0x01, 0x00, 0x00, 0x07, 0x38, 0x00, 0x07,
   0x1c, 0xc0, 0x01, 0x1c, 0x00, 0xf8, 0x00, 0x00, 0xc0, 0x01, 0x00, 0x00,
   0x07, 0x38, 0x00, 0x07, 0x1c, 0xc0, 0x01, 0x1c, 0x00, 0xf8, 0x00, 0x00,
   0xc0, 0x00, 0x00, 0xf0, 0xff, 0x79, 0x80, 0x03, 0x1c, 0xc0, 0x01, 0x1c,
   0x00, 0x70, 0x00, 0x00, 0x40, 0x00, 0x00, 0xf8, 0xff, 0xf0, 0xff, 0x03,
   0x1c, 0xc0, 0x01, 0x1c, 0x00, 0x00, 0x00, 0x00, 0x00, 0x00, 0x00, 0xfc,
   0x7f, 0xe0, 0xff, 0x01, 0x0c, 0xc0, 0x00, 0x0c, 0x00, 0x00, 0x00, 0x00,
   0x00, 0x00, 0x00, 0x00, 0x00, 0xc0, 0xff, 0x00, 0x04, 0x40, 0x00, 0x04,
   0x00, 0x00, 0x00, 0x00, 0x00, 0x00, 0x00, 0x00, 0x00, 0x00, 0x00, 0x00,
   0x00, 0x00, 0x00, 0x00, 0x00, 0x00, 0x00, 0x00};
