#define finish_width 224
#define finish_height 32
static char finish_bits[] = {
   0x00, 0x00, 0x00, 0x00, 0x00, 0x00, 0x00, 0x00, 0x00, 0x00, 0x00, 0x00,
   0x00, 0x00, 0x00, 0x00, 0x00, 0x00, 0x00, 0x00, 0x00, 0x00, 0x00, 0x00,
   0x00, 0x00, 0xc0, 0x01, 0x00, 0xfe, 0xff, 0xc7, 0xff, 0x07, 0x0c, 0x00,
   0x04, 0xfc, 0x7f, 0xf0, 0x1f, 0x80, 0x00, 0x08, 0x00, 0x00, 0x04, 0x40,
   0xc0, 0xff, 0x07, 0x06, 0x00, 0x1c, 0xe0, 0x03, 0x00, 0xff, 0xff, 0xe3,
   0xff, 0x03, 0x0e, 0x00, 0x06, 0xfe, 0x3f, 0xf8, 0x3f, 0xc0, 0x00, 0x0c,
   0x00, 0x00, 0x06, 0x60, 0xe0, 0xff, 0x03, 0x07, 0x00, 0x1e, 0x30, 0x06,
   0x80, 0xff, 0xff, 0xf1, 0xff, 0x01, 0x1f, 0x00, 0x07, 0xff, 0x1f, 0x3c,
   0x78, 0xe0, 0x00, 0x0e, 0x00, 0x00, 0x07, 0x70, 0xf0, 0xff, 0x81, 0x0f,
   0x00, 0x1f, 0x10, 0x04, 0x80, 0x03, 0x00, 0x00, 0x0e, 0x00, 0x1f, 0x00,
   0x07, 0xe0, 0x00, 0x1e, 0xf0, 0xe0, 0x00, 0x0e, 0x00, 0x00, 0x07, 0x70,
   0x00, 0x0e, 0x80, 0x0f, 0x00, 0x1f, 0x10, 0x0c, 0x80, 0x03, 0x00, 0x00,
   0x0e, 0x00, 0x3f, 0x00, 0x07, 0xe0, 0x00, 0x0e, 0xe0, 0xe1, 0x00, 0x0e,
   0x00, 0x00, 0x07, 0x70, 0x00, 0x0e, 0x80, 0x1f, 0x80, 0x1f, 0x08, 0x08,
   0x80, 0x03, 0x00, 0x00, 0x0e, 0x00, 0x3f, 0x00, 0x07, 0xe0, 0x00, 0x0f,
   0xc0, 0xe1, 0x00, 0x0e, 0x00, 0x00, 0x07, 0x70, 0x00, 0x0e, 0x80, 0x1f,
   0x80, 0x1f, 0x08, 0x08, 0x80, 0x03, 0x00, 0x00, 0x0e, 0x00, 0x7f, 0x00,
   0x07, 0xe0, 0x00, 0x07, 0xc0, 0xe1, 0x00, 0x0e, 0x00, 0x00, 0x07, 0x70,
   0x00, 0x0e, 0x80, 0x3b, 0xc0, 0x1d, 0x08, 0x08, 0x80, 0x03, 0x00, 0x00,
   0x0e, 0x00, 0x77, 0x00, 0x07, 0xe0, 0x00, 0x07, 0xc0, 0xe1, 0x00, 0x0e,
   0x00, 0x00, 0x07, 0x70, 0x00, 0x0e, 0x80, 0x3b, 0xc0, 0x1d, 0x08, 0x08,
   0x80, 0x03, 0x00, 0x00, 0x0e, 0x00, 0xf7, 0x00, 0x07, 0xe0, 0x00, 0x07,
   0xc0, 0xe1, 0x00, 0x0e, 0x00, 0x00, 0x07, 0x70, 0x00, 0x0e, 0x80, 0x73,
   0xe0, 0x1c, 0x08, 0x08, 0x80, 0x03, 0x00, 0x00, 0x0e, 0x00, 0xe7, 0x00,
   0x07, 0xe0, 0x00, 0x07, 0xc0, 0xe0, 0x00, 0x0e, 0x00, 0x00, 0x07, 0x70,
   0x00, 0x0e, 0x80, 0x73, 0xe0, 0x1c, 0x18, 0x0c, 0x80, 0x03, 0x00, 0x00,
   0x0e, 0x00, 0xe7, 0x01, 0x07, 0xe0, 0x00, 0x07, 0x40, 0xe0, 0x00, 0x0e,
   0x00, 0x00, 0x07, 0x70, 0x00, 0x0e, 0x80, 0xe3, 0x70, 0x1c, 0x18, 0x0c,
   0x80, 0x03, 0x00, 0x00, 0x0e, 0x00, 0xc7, 0x01, 0x07, 0xe0, 0x00, 0x0f,
   0x00, 0xe0, 0x00, 0x0e, 0x00, 0x00, 0x07, 0x70, 0x00, 0x0e, 0x80, 0xe3,
   0x70, 0x1c, 0x10, 0x04, 0x80, 0xff, 0x7f, 0x00, 0x0e, 0x00, 0xc7, 0x03,
   0x07, 0xe0, 0x00, 0x1f, 0x00, 0xe0, 0x00, 0x0e, 0x00, 0x00, 0x07, 0x70,
   0x00, 0x0e, 0x80, 0xc3, 0x39, 0x1c, 0x10, 0x04, 0xc0, 0xff, 0x3f, 0x00,
   0x07, 0x00, 0xc7, 0x03, 0x07, 0x70, 0x00, 0xfc, 0x03, 0xe0, 0x00, 0x0e,
   0x00, 0x00, 0x07, 0x70, 0x00, 0x07, 0x80, 0xc3, 0x39, 0x1c, 0x10, 0x04,
   0xc0, 0xff, 0x1f, 0x00, 0x07, 0x80, 0xc3, 0x83, 0x03, 0x70, 0x00, 0xf0,
   0x1f, 0xf0, 0xff, 0x07, 0x00, 0x80, 0xff, 0x3f, 0x00, 0x07, 0x80, 0xc3,
   0x1f, 0x1c, 0x10, 0x04, 0xc0, 0x03, 0x00, 0x00, 0x07, 0x80, 0xc3, 0x83,
   0x03, 0x70, 0x00, 0xc0, 0x7f, 0xf0, 0xff, 0x07, 0x00, 0x80, 0xff, 0x3f,
   0x00, 0x07, 0xc0, 0x81, 0x0f, 0x0e, 0x10, 0x04, 0xc0, 0x01, 0x00, 0x00,
   0x07, 0x80, 0x83, 0x87, 0x03, 0x70, 0x00, 0x00, 0xfe, 0xf1, 0xff, 0x07,
   0x00, 0x80, 0xff, 0x3f, 0x00, 0x07, 0xc0, 0x81, 0x07, 0x0e, 0x30, 0x06,
   0xc0, 0x01, 0x00, 0x00, 0x07, 0x80, 0x03, 0x87, 0x03, 0x70, 0x00, 0x00,
   0xe0, 0x73, 0x00, 0x07, 0x00, 0x80, 0x03, 0x38, 0x00, 0x07, 0xc0, 0x01,
   0x03, 0x0e, 0x20, 0x02, 0xc0, 0x01, 0x00, 0x00, 0x07, 0x80, 0x03, 0x8e,
   0x03, 0x70, 0x00, 0x00, 0xc0, 0x73, 0x00, 0x07, 0x00, 0x80, 0x03, 0x38,
   0x00, 0x07, 0xc0, 0x01, 0x00, 0x0e, 0x20, 0x02, 0xc0, 0x01, 0x00, 0x00,
   0x07, 0x80, 0x03, 0x8e, 0x03, 0x70, 0x00, 0x08, 0x80, 0x73, 0x00, 0x07,
   0x00, 0x80, 0x03, 0x38, 0x00, 0x07, 0xc0, 0x01, 0x00, 0x0e, 0x20, 0x02,
   0xc0, 0x01, 0x00, 0x00, 0x07, 0x80, 0x03, 0x9c, 0x03, 0x70, 0x00, 0x0c,
   0x80, 0x73, 0x00, 0x07, 0x00, 0x80, 0x03, 0x38, 0x00, 0x07, 0xc0, 0x01,
   0x00, 0x0e, 0xe0, 0x03, 0xc0, 0x01, 0x00, 0x00, 0x07, 0x80, 0x03, 0x9c,
   0x03, 0x70, 0x00, 0x0e, 0x80, 0x73, 0x00, 0x07, 0x00, 0x80, 0x03, 0x38,
   0x00, 0x07, 0xc0, 0x01, 0x00, 0x0e, 0xc0, 0x01, 0xc0, 0x01, 0x00, 0x00,
   0x07, 0x80, 0x03, 0xb8, 0x03, 0x70, 0x00, 0x0e, 0x80, 0x73, 0x00, 0x07,
   0x00, 0x80, 0x03, 0x38, 0x00, 0x07, 0xc0, 0x01, 0x00, 0x0e, 0x00, 0x00,
   0xc0, 0x01, 0x00, 0x00, 0x07, 0x80, 0x03, 0xb8, 0x03, 0x70, 0x00, 0x0e,
   0x80, 0x73, 0x00, 0x07, 0x00, 0x80, 0x03, 0x38, 0x00, 0x07, 0xc0, 0x01,
   0x00, 0x0e, 0xc0, 0x01, 0xc0, 0x01, 0x00, 0x00, 0x07, 0x80, 0x03, 0xf0,
   0x03, 0x70, 0x00, 0x0e, 0xc0, 0x73, 0x00, 0x07, 0x00, 0x80, 0x03, 0x38,
   0x00, 0x07, 0xc0, 0x01, 0x00, 0x0e, 0xe0, 0x03, 0xc0, 0x01, 0x00, 0x00,
   0x07, 0x80, 0x03, 0xf0, 0x03, 0x70, 0x00, 0x1e, 0xc0, 0x71, 0x00, 0x07,
   0x00, 0x80, 0x03, 0x38, 0x00, 0x07, 0xc0, 0x01, 0x00, 0x0e, 0xe0, 0x03,
   0xc0, 0x00, 0x00, 0xf0, 0xff, 0x81, 0x03, 0xe0, 0x03, 0xff, 0x1f, 0x3c,
   0xe0, 0x71, 0x00, 0x07, 0x00, 0x80, 0x03, 0x38, 0xf0, 0xff, 0xc1, 0x01,
   0x00, 0x0e, 0xc0, 0x01, 0x40, 0x00, 0x00, 0xf8, 0xff, 0x80, 0x03, 0xe0,
   0x83, 0xff, 0x0f, 0x78, 0xf0, 0x70, 0x00, 0x07, 0x00, 0x80, 0x03, 0x38,
   0xf8, 0xff, 0xc0, 0x01, 0x00, 0x0e, 0x00, 0x00, 0x00, 0x00, 0x00, 0xfc,
   0x7f, 0x80, 0x01, 0xc0, 0xc1, 0xff, 0x07, 0xf0, 0x7f, 0x30, 0x00, 0x03,
   0x00, 0x80, 0x01, 0x18, 0xfc, 0x7f, 0xc0, 0x00, 0x00, 0x06, 0x00, 0x00,
   0x00, 0x00, 0x00, 0x00, 0x00, 0x80, 0x00, 0xc0, 0x00, 0x00, 0x00, 0xe0,
   0x3f, 0x10, 0x00, 0x01, 0x00, 0x80, 0x00, 0x08, 0x00, 0x00, 0x40, 0x00,
   0x00, 0x02, 0x00, 0x00, 0x00, 0x00, 0x00, 0x00, 0x00, 0x00, 0x00, 0x00,
   0x00, 0x00, 0x00, 0x00, 0x00, 0x00, 0x00, 0x00, 0x00, 0x00, 0x00, 0x00,
   0x00, 0x00, 0x00, 0x00, 0x00, 0x00, 0x00, 0x00};
