#define heart_width 48
#define heart_height 48
static char heart_bits[] = {
   0x00, 0x00, 0x00, 0x00, 0x00, 0x00, 0x00, 0x00, 0x00, 0x00, 0x00, 0x00,
   0x00, 0x00, 0x00, 0x00, 0x00, 0x00, 0x00, 0x00, 0x00, 0x00, 0x00, 0x00,
   0x0c, 0x00, 0x00, 0x00, 0x00, 0x00, 0x14, 0x00, 0x00, 0x00, 0x00, 0x00,
   0x1a, 0x00, 0x00, 0x00, 0x00, 0x00, 0x28, 0x00, 0x00, 0x00, 0x00, 0x00,
   0x10, 0x00, 0x00, 0x50, 0x00, 0x00, 0x20, 0x00, 0x00, 0x78, 0x00, 0x00,
   0x00, 0x00, 0x80, 0x9d, 0x01, 0x00, 0x02, 0x00, 0xc0, 0x57, 0x03, 0x00,
   0x56, 0x00, 0x30, 0x1f, 0x04, 0x00, 0x1a, 0x38, 0x48, 0x5f, 0x0d, 0x00,
   0x00, 0xfc, 0x2c, 0xf7, 0xfd, 0x03, 0x00, 0x9e, 0x07, 0x16, 0xde, 0x03,
   0x80, 0x5f, 0xfe, 0x55, 0xa1, 0x03, 0x80, 0x17, 0x49, 0x14, 0xb4, 0x03,
   0x00, 0xf8, 0x90, 0xbf, 0xe8, 0x03, 0x00, 0xb0, 0x45, 0x5b, 0xf6, 0x01,
   0x00, 0x40, 0x11, 0x3d, 0xb5, 0x01, 0x00, 0x80, 0x4f, 0x5d, 0xfb, 0x01,
   0x00, 0x80, 0x87, 0x9f, 0x1e, 0x00, 0x00, 0xe0, 0x5b, 0x6e, 0x0f, 0x00,
   0x00, 0xb0, 0x8e, 0xec, 0x0f, 0x00, 0x00, 0xd0, 0xb5, 0xde, 0x0d, 0x00,
   0x00, 0xf0, 0x0b, 0x5f, 0x0f, 0x00, 0x00, 0x50, 0xd4, 0xff, 0x05, 0x00,
   0x00, 0x30, 0x81, 0xf7, 0x06, 0x00, 0x00, 0x50, 0xfa, 0xfc, 0x03, 0x00,
   0x00, 0xb0, 0x53, 0x7f, 0x03, 0x00, 0x00, 0xe0, 0xab, 0xfe, 0x02, 0x00,
   0x00, 0x60, 0xe1, 0xbe, 0x01, 0x00, 0x00, 0xe0, 0x5e, 0xfd, 0x03, 0x00,
   0x00, 0xc0, 0x50, 0xbf, 0x05, 0x00, 0x00, 0x40, 0x6d, 0xdd, 0x1b, 0x00,
   0x00, 0x20, 0xfe, 0xfe, 0x35, 0x00, 0x00, 0xd0, 0xbf, 0xfa, 0x2b, 0x00,
   0x00, 0xb8, 0xf6, 0x3f, 0x23, 0x00, 0x00, 0xdc, 0xdf, 0x3e, 0x2f, 0x00,
   0x00, 0xf8, 0xf9, 0x1f, 0x3a, 0x00, 0x00, 0xf0, 0xe0, 0x1f, 0x16, 0x00,
   0x00, 0x60, 0x00, 0x0c, 0x1e, 0x00, 0x00, 0x60, 0x00, 0x00, 0x0e, 0x00,
   0x00, 0x20, 0x00, 0x00, 0x06, 0x00, 0x00, 0x00, 0x00, 0x00, 0x00, 0x00,
   0x00, 0x00, 0x00, 0x00, 0x00, 0x00, 0x00, 0x00, 0x00, 0x00, 0x00, 0x00};
