#define noname_width 125
#define noname_height 260
static char noname_bits[] = {
 0x00,0x00,0x00,0x00,0x00,0x00,0x00,0x00,0x00,0x00,0x00,0x00,0x00,0x00,0x00,
 0x00,0x00,0x00,0x00,0x00,0x00,0x00,0x00,0x00,0x00,0x00,0x00,0x00,0x00,0x00,
 0x00,0x00,0x00,0x00,0x00,0x00,0x00,0x00,0x00,0x00,0x00,0x00,0x00,0x00,0x00,
 0x00,0x00,0x00,0x00,0x00,0x00,0x00,0x00,0x00,0x00,0x00,0x00,0x00,0x00,0x00,
 0x00,0x00,0x00,0x00,0x00,0x00,0x00,0x00,0x00,0x00,0x00,0x00,0x00,0x00,0x00,
 0x00,0x00,0x00,0x00,0x00,0x00,0x00,0x00,0x00,0x00,0x00,0x00,0x00,0x00,0x00,
 0x00,0x00,0x00,0x00,0x00,0x00,0x00,0x00,0x00,0x00,0x00,0x00,0x00,0xf5,0x12,
 0x00,0x00,0x00,0x00,0x00,0x00,0x00,0x00,0x00,0x00,0x00,0x00,0x00,0x40,0x09,
 0x24,0x00,0x00,0x00,0x00,0x00,0x00,0x00,0x00,0x00,0x00,0x00,0x00,0x00,0x28,
 0x92,0x50,0x01,0x00,0x00,0x00,0x00,0x00,0x00,0x00,0x00,0x00,0x00,0x00,0x00,
 0x90,0x0a,0x00,0x00,0x00,0x00,0x00,0x00,0x00,0x00,0x00,0x00,0x00,0x00,0x00,
 0x00,0x0a,0x20,0x05,0x05,0x00,0x00,0x00,0x00,0x00,0x00,0x00,0x00,0x00,0x00,
 0x00,0x00,0x42,0x05,0x00,0x04,0x00,0x00,0x00,0x00,0x00,0x00,0x00,0x00,0x00,
 0x00,0x00,0x00,0x15,0x49,0x00,0x10,0x00,0x00,0x00,0x00,0x00,0x00,0x00,0x00,
 0x00,0x00,0x00,0x00,0x48,0x00,0x00,0x08,0x00,0x00,0x00,0x00,0x00,0x00,0x00,
 0x00,0x00,0x00,0x00,0x80,0xa2,0x14,0x00,0x00,0x00,0x00,0x00,0x00,0x00,0x00,
 0x00,0x00,0x00,0x00,0x00,0x00,0x44,0x03,0x00,0x10,0x00,0x00,0x00,0x00,0x00,
 0x00,0x00,0x00,0x00,0x00,0x00,0x80,0x94,0x0a,0x00,0x10,0x00,0x00,0x00,0x00,
 0x00,0x00,0x00,0x00,0x00,0x00,0x00,0x80,0xaa,0x07,0x55,0x04,0x00,0x00,0x00,
 0x00,0x00,0x00,0x00,0x00,0x00,0x00,0x00,0x00,0x42,0x05,0x22,0x11,0x00,0x00,
 0x00,0x00,0x00,0x00,0x00,0x00,0x00,0x00,0x00,0x00,0xa9,0xfe,0x9b,0x0f,0x00,
 0x00,0x00,0x00,0x00,0x00,0x00,0x00,0x00,0x00,0x00,0x00,0x82,0xf2,0xc3,0x2f,
 0x00,0x00,0x00,0x00,0x00,0x00,0x00,0x00,0x00,0x00,0x00,0x00,0x9a,0xc3,0xc7,
 0x1f,0x00,0x00,0x00,0x00,0x00,0x00,0x00,0x00,0x00,0x00,0x00,0x00,0xa2,0x51,
 0x92,0x4f,0x00,0x00,0x00,0x00,0x00,0x00,0x00,0x00,0x00,0x00,0x00,0x00,0x28,
 0xa1,0x41,0x2a,0x00,0x00,0x00,0x00,0x00,0x00,0x00,0x00,0x00,0x00,0x00,0x00,
 0x1c,0x00,0x70,0x24,0x00,0x00,0x00,0x00,0x00,0x00,0x00,0x00,0x00,0x00,0x00,
 0x00,0x50,0x11,0x90,0x40,0x00,0x00,0x00,0x00,0x00,0x00,0x00,0x00,0x00,0x00,
 0x00,0x00,0x44,0x8b,0xd4,0x12,0x00,0x00,0x00,0x00,0x00,0x00,0x00,0x00,0x00,
 0x00,0x00,0x00,0x88,0x6c,0x21,0x18,0x00,0x00,0x00,0x00,0x00,0x00,0x00,0x00,
 0x00,0x00,0x00,0x00,0x80,0x32,0xa4,0x08,0x00,0x00,0x00,0x00,0x00,0x00,0x00,
 0x00,0x00,0x00,0x00,0x00,0x80,0xa4,0x00,0x04,0x00,0x00,0x00,0x00,0x00,0x00,
 0x00,0x00,0x00,0x00,0x00,0x00,0x00,0x52,0xab,0x04,0x00,0x00,0x00,0x00,0x00,
 0x00,0x00,0x00,0x00,0x00,0x00,0x00,0x00,0xa9,0x24,0x05,0x00,0x00,0x00,0x00,
 0x00,0x00,0x00,0x00,0x00,0x00,0x00,0x00,0x80,0x04,0xb5,0x01,0x00,0x00,0x00,
 0x00,0x00,0x00,0x00,0x00,0x00,0x00,0x00,0x00,0x00,0x30,0x41,0x04,0x00,0x00,
 0x00,0x00,0x00,0x00,0x00,0x00,0x00,0x00,0x00,0x00,0x00,0x0a,0x94,0x00,0x00,
 0x00,0x00,0x00,0x00,0x00,0x00,0x00,0x00,0x00,0x00,0x00,0x00,0x28,0x41,0x00,
 0x00,0x00,0x00,0x00,0x00,0x00,0x00,0x00,0x00,0x00,0x00,0x00,0x00,0x7e,0x00,
 0x01,0x00,0x00,0x00,0x00,0x00,0x00,0x00,0x00,0x00,0x00,0x00,0x00,0x00,0x14,
 0x5b,0x00,0x00,0x00,0x00,0x00,0x00,0x00,0x00,0x00,0x00,0x00,0x00,0x00,0x00,
 0x4c,0x00,0x00,0x00,0x00,0x00,0x00,0x00,0x00,0x00,0x00,0x00,0x00,0x00,0x00,
 0x00,0xa0,0x03,0x00,0x00,0x00,0x00,0x00,0x00,0x00,0x00,0x00,0x00,0x00,0x00,
 0x00,0x00,0x56,0x07,0x00,0x00,0x00,0x00,0x00,0x00,0x00,0x00,0x00,0x00,0x00,
 0x00,0x00,0x00,0xe9,0x00,0x00,0x00,0x00,0x00,0x00,0x00,0x00,0x00,0x00,0x00,
 0x00,0x00,0x00,0x00,0x05,0x0b,0x00,0x00,0x00,0x00,0x00,0x00,0x00,0x00,0x00,
 0x00,0x00,0x00,0x00,0x00,0x5a,0x05,0x00,0x00,0x00,0x00,0x00,0x00,0x00,0x00,
 0x00,0x00,0x00,0x00,0x00,0xa0,0x36,0x11,0x00,0x00,0x00,0x00,0x00,0x00,0x00,
 0x00,0x00,0x00,0x00,0x48,0x92,0x4c,0x81,0x44,0x00,0x00,0x00,0x00,0x00,0x00,
 0x00,0x00,0x00,0x00,0x00,0x01,0x09,0xa0,0x9f,0x12,0x49,0x00,0x00,0x00,0x00,
 0x00,0x00,0x00,0x00,0x00,0x40,0x6a,0x40,0x05,0x04,0x0a,0x90,0x24,0x00,0x00,
 0x00,0x00,0x00,0x00,0x00,0x00,0x20,0x93,0xa9,0x79,0x54,0xe1,0xa7,0x00,0x01,
 0x00,0x00,0x00,0x00,0x00,0x00,0x00,0x48,0x08,0x02,0xc6,0x00,0x50,0x14,0x2a,
 0x04,0x00,0x00,0x00,0x00,0x00,0x00,0x00,0x90,0x50,0x55,0x22,0x22,0x58,0x32,
 0x54,0x09,0x00,0x00,0x00,0x00,0x00,0x00,0x00,0x48,0xc4,0x26,0x4f,0x00,0x12,
 0xa5,0xf7,0x0f,0x00,0x00,0x00,0x00,0x00,0x00,0x00,0xb4,0xa0,0x02,0x3b,0x00,
 0x48,0xe7,0xdf,0x20,0x00,0x00,0x00,0x00,0x00,0x00,0x00,0x54,0x21,0x60,0xd4,
 0x11,0xa4,0x50,0x5f,0x00,0x00,0x00,0x00,0x00,0x00,0x00,0x00,0x54,0x49,0x45,
 0xf0,0x05,0x52,0x10,0x37,0xa9,0x00,0x00,0x00,0x00,0x00,0x00,0x00,0xa8,0x31,
 0xe2,0x03,0x00,0x01,0xae,0x6e,0x52,0x00,0x00,0x00,0x00,0x00,0x00,0x00,0x58,
 0xb4,0x64,0x2f,0x02,0x49,0x9b,0xfa,0x81,0x00,0x00,0x00,0x00,0x00,0x00,0x00,
 0x28,0xf0,0x06,0xfd,0x57,0xd4,0x9d,0x6a,0x13,0x00,0x00,0x00,0x00,0x00,0x00,
 0x00,0x80,0x24,0x16,0x0e,0x04,0x42,0x43,0xba,0x8a,0x00,0x00,0x00,0x00,0x00,
 0x00,0x00,0x2c,0x40,0x3e,0xa0,0x04,0x42,0xd0,0x36,0x46,0x00,0x00,0x00,0x00,
 0x00,0x00,0x00,0x80,0xc0,0xdc,0x02,0x40,0x08,0xec,0x0c,0x02,0x00,0x00,0x00,
 0x00,0x00,0x00,0x00,0x04,0x81,0xa9,0x7f,0x4b,0xd5,0x77,0x1a,0x02,0x00,0x00,
 0x00,0x00,0x00,0x00,0x00,0x00,0x40,0xf2,0x07,0x20,0xc2,0x1a,0x0e,0x42,0x00,
 0x00,0x00,0x00,0x00,0x00,0x00,0x84,0x00,0xc1,0x0a,0x02,0x48,0x05,0x03,0x0a,
 0x00,0x00,0x00,0x00,0x00,0x00,0x00,0x02,0x40,0x0e,0x4a,0x00,0x02,0xa0,0x09,
 0x46,0x00,0x00,0x00,0x00,0x00,0x00,0x00,0x8a,0x40,0x2e,0x00,0xaa,0x68,0xfa,
 0x02,0x02,0x00,0x00,0x00,0x00,0x00,0x00,0x00,0x04,0x80,0xd4,0xb7,0x00,0x82,
 0xd5,0x09,0x46,0x00,0x00,0x00,0x00,0x00,0x00,0x00,0x80,0x80,0xf8,0x45,0x11,
 0x5c,0xd7,0x00,0x02,0x00,0x00,0x00,0x00,0x00,0x00,0x00,0x02,0x20,0x43,0x3f,
 0x02,0xa0,0x3f,0x0a,0x44,0x00,0x00,0x00,0x00,0x00,0x00,0x00,0x44,0x40,0x0f,
 0x82,0x14,0x0a,0x00,0x05,0x0a,0x00,0x00,0x00,0x00,0x00,0x00,0x00,0x0b,0x40,
 0xb2,0x20,0x42,0x89,0xea,0x03,0x42,0x00,0x00,0x00,0x00,0x00,0x00,0x00,0x41,
 0xa0,0xf8,0x16,0x08,0xa0,0xdb,0x08,0x0a,0x00,0x00,0x00,0x00,0x00,0x00,0x00,
 0x04,0x40,0xa9,0x89,0x8a,0x85,0x3f,0x04,0x44,0x00,0x00,0x00,0x00,0x00,0x00,
 0x00,0x43,0x80,0x07,0x00,0x9a,0x05,0x02,0x0a,0x1a,0x00,0x00,0x00,0x00,0x00,
 0x00,0x00,0x24,0xa0,0x92,0x24,0x56,0x51,0xb2,0x0b,0x44,0x00,0x00,0x00,0x00,
 0x00,0x00,0x00,0x03,0x00,0xf9,0x09,0x67,0x83,0x1c,0x11,0x0a,0x00,0x00,0x00,
 0x00,0x00,0x00,0x00,0x20,0x50,0x1c,0x82,0x48,0x04,0xaa,0x1c,0x54,0x00,0x00,
 0x00,0x00,0x00,0x00,0x80,0x02,0x40,0xa8,0x00,0xff,0xc9,0x42,0x04,0x0a,0x00,
 0x00,0x00,0x00,0x00,0x00,0x00,0x12,0x90,0x21,0xa2,0x8b,0x83,0x0d,0x23,0x44,
 0x00,0x00,0x00,0x00,0x00,0x00,0x80,0x03,0x20,0x03,0x85,0x86,0x1d,0xba,0x04,
 0x0c,0x00,0x00,0x00,0x00,0x00,0x00,0x00,0x10,0x20,0x38,0x48,0x22,0x5e,0x02,
 0x10,0x4a,0x00,0x00,0x00,0x00,0x00,0x00,0x40,0x03,0x40,0x9e,0x20,0xee,0x31,
 0xa3,0x03,0x04,0x00,0x00,0x00,0x00,0x00,0x00,0x00,0x11,0xd0,0x20,0x83,0xcb,
 0x22,0xc1,0x09,0x4a,0x00,0x00,0x00,0x00,0x00,0x00,0xc0,0x06,0x80,0x57,0xc9,
 0x46,0x47,0x88,0x00,0x44,0x00,0x00,0x00,0x00,0x00,0x00,0x00,0x11,0x00,0x81,
 0x70,0x6a,0x9a,0x04,0x02,0x4a,0x00,0x00,0x00,0x00,0x00,0x00,0x20,0x04,0x40,
 0x28,0x58,0xb7,0x3d,0x53,0x05,0x46,0x00,0x00,0x00,0x00,0x00,0x00,0x00,0x11,
 0x40,0xc1,0x8c,0x85,0x62,0x14,0x02,0x8a,0x00,0x00,0x00,0x00,0x00,0x00,0x10,
 0x06,0x00,0x5a,0x0a,0x4a,0xc0,0x44,0x00,0x46,0x00,0x00,0x00,0x00,0x00,0x00,
 0x00,0x11,0x80,0x14,0x05,0x56,0x80,0x91,0x00,0xca,0x00,0x00,0x00,0x00,0x00,
 0x00,0x88,0x06,0x00,0x99,0x80,0xf7,0x03,0x60,0x00,0x8a,0x00,0x00,0x00,0x00,
 0x00,0x00,0x00,0x23,0x00,0x08,0x41,0x9f,0x02,0x00,0x00,0x4b,0x01,0x00,0x00,
 0x00,0x00,0x00,0x44,0x0d,0x00,0x00,0x00,0x88,0x00,0x00,0x00,0x0a,0x01,0x00,
 0x00,0x00,0x00,0x00,0xa0,0x4a,0x00,0x00,0x00,0x83,0x00,0x00,0x00,0xb5,0x02,
 0x00,0x00,0x00,0x00,0x00,0x58,0x17,0x00,0x00,0x00,0x5c,0x00,0x00,0x80,0x28,
 0x05,0x00,0x00,0x00,0x00,0x00,0x02,0x60,0x00,0x00,0xc0,0x53,0x05,0x00,0xa0,
 0xf8,0x08,0x00,0x00,0x00,0x00,0x00,0x82,0x22,0x00,0x00,0x20,0x8f,0x0b,0x00,
 0x50,0x06,0x05,0x00,0x00,0x00,0x00,0x00,0x42,0x0a,0x00,0x00,0x00,0x91,0x02,
 0x00,0xc0,0xd0,0x08,0x00,0x00,0x00,0x00,0x00,0xa8,0x20,0x00,0x00,0x00,0x85,
 0x00,0x00,0x80,0xba,0x0e,0x00,0x00,0x00,0x00,0x00,0x11,0x11,0x00,0x00,0x00,
 0xa5,0x01,0x00,0x00,0xe3,0x02,0x00,0x00,0x00,0x00,0x00,0x84,0x00,0x00,0x00,
 0x40,0x55,0x0d,0x00,0x00,0xa9,0x05,0x00,0x00,0x00,0x00,0x00,0x82,0x04,0x00,
 0x00,0xa0,0xab,0x03,0x00,0x00,0xb5,0x01,0x00,0x00,0x00,0x00,0x00,0x80,0x00,
 0x00,0xe8,0x07,0x5b,0x01,0x00,0x00,0xec,0x0a,0x00,0x00,0x00,0x00,0x00,0x88,
 0x02,0x00,0x04,0x88,0x11,0x01,0x4a,0x0a,0xd8,0x02,0x00,0x00,0x00,0x00,0x00,
 0x00,0x00,0x00,0x45,0x5b,0x77,0xad,0x2c,0x25,0x70,0x11,0x00,0x00,0x00,0x00,
 0x00,0x88,0x02,0x00,0x52,0xd4,0xc3,0x17,0xd1,0x16,0xd0,0x05,0x00,0x00,0x00,
 0x00,0x00,0x80,0x00,0x80,0x22,0x57,0x2f,0x5a,0x2a,0x8c,0xa0,0x22,0x00,0x00,
 0x00,0x00,0x00,0x10,0x02,0x80,0x02,0x34,0xab,0xa6,0x74,0x35,0xe0,0x04,0x00,
 0x00,0x00,0x00,0x00,0x00,0x00,0x80,0x00,0x58,0x51,0x58,0xaa,0x8e,0xa0,0x45,
 0x00,0x00,0x00,0x00,0x00,0x08,0x01,0x40,0x01,0xa1,0xa6,0x83,0x75,0x1d,0xc0,
 0x0c,0x00,0x00,0x00,0x00,0x00,0x10,0x00,0x80,0x00,0x4c,0x29,0x00,0x55,0x87,
 0x80,0x47,0x00,0x00,0x00,0x00,0x00,0x10,0x01,0x80,0x02,0x08,0x00,0x80,0xb5,
 0x25,0xc0,0x14,0x00,0x00,0x00,0x00,0x00,0x28,0x00,0x00,0x02,0x20,0x00,0x00,
 0x22,0x0b,0x80,0x8b,0x00,0x00,0x00,0x00,0x00,0x10,0x02,0x00,0x0a,0x10,0x4b,
 0x95,0x95,0x15,0x80,0x30,0x00,0x00,0x00,0x00,0x00,0x60,0x00,0x00,0x08,0x35,
 0x00,0x40,0x85,0x03,0x80,0x92,0x00,0x00,0x00,0x00,0x00,0x50,0x02,0x00,0xa8,
 0x28,0x08,0x08,0xb5,0x08,0x80,0x25,0x01,0x00,0x00,0x00,0x00,0xa0,0x00,0x00,
 0x50,0x8a,0x20,0x41,0xc4,0x05,0x00,0x11,0x00,0x00,0x00,0x00,0x00,0x50,0x02,
 0x00,0xa0,0x88,0x0a,0x24,0x2a,0x02,0x00,0x25,0x01,0x00,0x00,0x00,0x00,0x90,
 0x00,0x00,0x40,0x23,0x81,0x08,0x85,0x14,0x00,0x23,0x00,0x00,0x00,0x00,0x00,
 0x50,0x02,0x00,0x30,0x04,0x2a,0xc2,0x28,0x01,0x00,0x4a,0x00,0x00,0x00,0x00,
 0x00,0xd0,0x00,0x00,0x0c,0xa9,0x14,0x51,0x54,0x24,0x00,0x42,0x02,0x00,0x00,
 0x00,0x00,0x20,0x02,0x00,0x2c,0xa2,0xc5,0xae,0xaa,0x20,0x00,0x96,0x00,0x00,
 0x00,0x00,0x00,0xd0,0x00,0x00,0x7b,0x51,0x2c,0x10,0x15,0x48,0x02,0x44,0x02,
 0x00,0x00,0x00,0x00,0x20,0x05,0xc0,0xde,0x4c,0x90,0x34,0x1a,0x20,0x05,0x16,
 0x00,0x00,0x00,0x00,0x00,0xa0,0x00,0x40,0x8b,0xa3,0x30,0x08,0x64,0x85,0x14,
 0x4c,0x05,0x00,0x00,0x00,0x00,0xa0,0x02,0xa0,0xd1,0x4c,0xa0,0x04,0x24,0x0a,
 0x12,0x88,0x00,0x00,0x00,0x00,0x00,0xa0,0x08,0x40,0x15,0xa4,0x50,0x12,0x0a,
 0xaa,0x00,0x28,0x05,0x00,0x00,0x00,0x00,0x80,0x02,0x40,0x12,0x10,0x87,0x74,
 0x51,0x54,0x12,0xc8,0x08,0x00,0x00,0x00,0x00,0xd0,0x14,0x80,0x29,0x44,0x20,
 0x82,0x24,0x05,0x04,0x48,0x02,0x00,0x00,0x00,0x00,0x40,0x01,0x00,0x25,0x08,
 0x0a,0x48,0x84,0x02,0x04,0x68,0x09,0x00,0x00,0x00,0x00,0xe0,0x54,0x80,0x92,
 0xb0,0x01,0x20,0x0b,0x05,0x03,0xf8,0x0a,0x00,0x00,0x00,0x00,0x80,0x17,0x00,
 0x21,0x00,0x00,0x00,0x80,0x02,0x01,0x50,0x05,0x00,0x00,0x00,0x00,0x80,0x85,
 0x00,0x49,0x00,0x00,0x00,0x80,0x82,0x00,0xb8,0x12,0x00,0x00,0x00,0x00,0x40,
 0xb7,0x80,0x10,0x00,0x00,0x00,0x00,0x01,0x00,0x50,0x25,0x00,0x00,0x00,0x00,
 0x80,0x3a,0x80,0x21,0x00,0x00,0x00,0x00,0x45,0x00,0xb0,0x1d,0x00,0x00,0x00,
 0x00,0x80,0x27,0x82,0x10,0x00,0x00,0x00,0x80,0x01,0x00,0x10,0x51,0x00,0x00,
 0x00,0x00,0x80,0xa7,0x84,0x08,0x00,0x00,0x00,0x00,0x22,0x00,0xe0,0x5a,0x00,
 0x00,0x00,0x00,0x80,0xc7,0x80,0x00,0x00,0x00,0x00,0x80,0x01,0x00,0x10,0x45,
 0x02,0x00,0x00,0x00,0x80,0x09,0x84,0x10,0x00,0x00,0x00,0x40,0x20,0x00,0x40,
 0x59,0x01,0x00,0x00,0x00,0x00,0x2f,0x80,0x00,0x00,0x00,0x00,0x40,0x01,0x00,
 0x10,0x00,0x0a,0x00,0x00,0x00,0x00,0x05,0x8a,0x08,0x00,0x00,0x00,0x40,0x10,
 0x00,0xa0,0xb2,0x08,0x00,0x00,0x00,0x00,0x27,0x80,0x00,0x00,0x00,0x00,0xc0,
 0x00,0x00,0x50,0x81,0x04,0x00,0x00,0x00,0x00,0x0a,0x90,0x08,0x00,0x00,0x00,
 0x40,0x10,0x00,0x10,0x54,0x10,0x00,0x00,0x00,0x00,0x4f,0x48,0x00,0x00,0x00,
 0x00,0x20,0x00,0x00,0xa0,0x11,0x09,0x00,0x00,0x00,0x00,0x15,0xa0,0x08,0x00,
 0x00,0x00,0x40,0x08,0x00,0x20,0x84,0x30,0x00,0x00,0x00,0x00,0xb6,0x48,0x00,
 0x00,0x00,0x00,0x60,0x00,0x00,0x88,0x28,0x41,0x00,0x00,0x00,0x00,0x1e,0xa0,
 0x08,0x00,0x00,0x00,0x40,0x08,0x00,0xa0,0x8a,0x12,0x00,0x00,0x00,0x00,0xaa,
 0x48,0x00,0x00,0x00,0x00,0x30,0x00,0x00,0x10,0x20,0x10,0x00,0x00,0x00,0x00,
 0x36,0x50,0x08,0x00,0x00,0x00,0x40,0x04,0x00,0x20,0x12,0x02,0x00,0x00,0x00,
 0x00,0xac,0x48,0x00,0x00,0x00,0x00,0x50,0x00,0x00,0x10,0x29,0x01,0x00,0x00,
 0x00,0x00,0x58,0x40,0x08,0x00,0x00,0x00,0x30,0x04,0x00,0x20,0x02,0x02,0x00,
 0x00,0x00,0x00,0xdc,0x40,0x00,0x00,0x00,0x00,0x10,0x00,0x00,0x80,0x30,0x01,
 0x00,0x00,0x00,0x00,0xb0,0x42,0x08,0x00,0x00,0x00,0x10,0x02,0x00,0x00,0x02,
 0x05,0x00,0x00,0x00,0x00,0x38,0x41,0x00,0x00,0x00,0x00,0x48,0x00,0x00,0x00,
 0x55,0x04,0x00,0x00,0x00,0x00,0xe0,0x42,0x08,0x00,0x00,0x00,0x10,0x02,0x00,
 0x00,0x12,0x02,0x00,0x00,0x00,0x00,0x20,0x45,0x00,0x00,0x00,0x00,0x08,0x00,
 0x00,0x00,0x40,0x04,0x00,0x00,0x00,0x00,0x80,0x44,0x08,0x00,0x00,0x00,0x08,
 0x01,0x00,0x00,0x20,0x02,0x00,0x00,0x00,0x00,0x00,0x21,0x00,0x00,0x00,0x00,
 0x14,0x00,0x00,0x00,0x00,0x00,0x00,0x00,0x00,0x00,0x00,0xa0,0x08,0x00,0x00,
 0x00,0x08,0x01,0x00,0x00,0x00,0x00,0x00,0x00,0x00,0x00,0x00,0x40,0x00,0x00,
 0x00,0x00,0x04,0x00,0x00,0x00,0x00,0x00,0x00,0x00,0x00,0x00,0x00,0x40,0x08,
 0x00,0x00,0x00,0x8a,0x00,0x00,0x00,0x00,0x00,0x00,0x00,0x00,0x00,0x00,0x20,
 0x00,0x00,0x00,0x00,0x04,0x00,0x00,0x00,0x00,0x00,0x00,0x00,0x00,0x00,0x00,
 0x40,0x08,0x00,0x00,0x00,0x82,0x00,0x00,0x00,0x00,0x00,0x00,0x00,0x00,0x00,
 0x00,0xa0,0x00,0x00,0x00,0x00,0x0a,0x00,0x00,0x00,0x00,0x00,0x00,0x00,0x00,
 0x00,0x00,0x20,0x08,0x00,0x00,0x00,0x81,0x00,0x00,0x00,0x00,0x00,0x00,0x00,
 0x00,0x00,0x00,0xa0,0x00,0x00,0x00,0x00,0x05,0x00,0x00,0x00,0x00,0x00,0x00,
 0x00,0x00,0x00,0x00,0x40,0x08,0x00,0x00,0x00,0x41,0x00,0x00,0x00,0x00,0x00,
 0x00,0x00,0x00,0x00,0x00,0xa0,0x00,0x00,0x00,0x80,0x01,0x00,0x00,0x00,0x00,
 0x00,0x00,0x00,0x00,0x00,0x00,0x40,0x08,0x00,0x00,0x80,0x42,0x00,0x00,0x00,
 0x00,0x00,0x00,0x00,0x00,0x00,0x00,0x90,0x00,0x00,0x00,0xc0,0x04,0x00,0x00,
 0x00,0x00,0x00,0x00,0x00,0x00,0x00,0x00,0x50,0x08,0x00,0x00,0x80,0x22,0x00,
 0x00,0x00,0x00,0x00,0x00,0x00,0x00,0x00,0x00,0xa0,0x00,0x00,0x00,0xe0,0x00,
 0x00,0x00,0x00,0x00,0x00,0x00,0x00,0x00,0x00,0x00,0x20,0x10,0x00,0x00,0x60,
 0x24,0x00,0x00,0x00,0x00,0x00,0x00,0x00,0x00,0x00,0x00,0x50,0x00,0x00,0x00,
 0x90,0x02,0x00,0x00,0x00,0x00,0x00,0x00,0x00,0x00,0x00,0x00,0xa0,0x10,0x00,
 0x00,0x28,0x20,0x00,0x00,0x00,0x00,0x00,0x00,0x00,0x00,0x00,0x00,0x98,0x00,
 0x00,0x00,0x54,0x01,0x00,0x00,0x00,0x00,0x00,0x00,0x00,0x00,0x00,0x00,0xa0,
 0x20,0x00,0x00,0x15,0x21,0x00,0x00,0x00,0x00,0x00,0x00,0x00,0x00,0x00,0x00,
 0x18,0x02,0x00,0x80,0x0b,0x0a,0x00,0x00,0x00,0x00,0x00,0x00,0x00,0x00,0x00,
 0x00,0x54,0x41,0x00,0x80,0xb4,0x24,0x00,0x00,0x00,0x00,0x00,0x00,0x00,0x00,
 0x00,0x00,0xaa,0x08,0x00,0xc0,0x4a,0x8a,0x00,0x00,0x00,0x00,0x00,0x00,0x00,
 0x00,0x00,0x00,0xa0,0x04,0x01,0x80,0x9a,0x48,0x00,0x00,0x00,0x00,0x00,0x00,
 0x00,0x00,0x00,0x00,0x4a,0x22,0x01,0xc0,0x5a,0xa9,0x00,0x00,0x00,0x00,0x00,
 0x00,0x00,0x00,0x00,0x00,0x4a,0xa1,0x00,0x00,0x15,0x54,0x00,0x00,0x00,0x00,
 0x00,0x00,0x00,0x00,0x00,0x00,0x50,0x08,0x01,0x80,0xbe,0x46,0x00,0x00,0x00,
 0x00,0x00,0x00,0x00,0x00,0x00,0x00,0xca,0xa2,0x00,0x00,0x4e,0x2f,0x00,0x00,
 0x00,0x00,0x00,0x00,0x00,0x00,0x00,0x00,0xe8,0x29,0x01,0x00,0x09,0x10,0x00,
 0x00,0x00,0x00,0x00,0x00,0x00,0x00,0x00,0x00,0x10,0x94,0x01,0x00,0xa7,0x24,
 0x00,0x00,0x00,0x00,0x00,0x00,0x00,0x00,0x00,0x00,0x48,0x25,0x01,0x00,0x09,
 0x10,0x00,0x00,0x00,0x00,0x00,0x00,0x00,0x00,0x00,0x00,0x48,0x80,0x00,0x00,
 0x96,0x92,0x00,0x00,0x00,0x00,0x00,0x00,0x00,0x00,0x00,0x00,0x20,0xa9,0x00,
 0x00,0x0a,0x08,0x00,0x00,0x00,0x00,0x00,0x00,0x00,0x00,0x00,0x00,0x10,0x54,
 0x00,0x00,0xbc,0xd2,0x00,0x00,0x00,0x00,0x00,0x00,0x00,0x00,0x00,0x00,0x20,
 0x40,0x00,0x00,0x54,0x29,0x00,0x00,0x00,0x00,0x00,0x00,0x00,0x00,0x00,0x00,
 0x40,0x64,0x00,0x00,0x4c,0x34,0x00,0x00,0x00,0x00,0x00,0x00,0x00,0x00,0x00,
 0x00,0x40,0x40,0x00,0x00,0x14,0x12,0x00,0x00,0x00,0x00,0x00,0x00,0x00,0x00,
 0x00,0x00,0x40,0x80,0x00,0x00,0x94,0x28,0x00,0x00,0x00,0x00,0x00,0x00,0x00,
 0x00,0x00,0x00,0x80,0xc0,0x00,0x00,0x40,0x05,0x00,0x00,0x00,0x00,0x00,0x00,
 0x00,0x00,0x00,0x00,0x00,0x81,0x00,0x00,0x54,0x14,0x00,0x00,0x00,0x00,0x00,
 0x00,0x00,0x00,0x00,0x00,0x80,0x80,0x00,0x00,0x04,0x08,0x00,0x00,0x00,0x00,
 0x00,0x00,0x00,0x00,0x00,0x00,0x00,0x82,0x01,0x00,0x28,0x12,0x00,0x00,0x00,
 0x00,0x00,0x00,0x00,0x00,0x00,0x00,0x00,0x01,0x01,0x00,0x44,0x04,0x00,0x00,
 0x00,0x00,0x00,0x00,0x00,0x00,0x00,0x00,0x00,0x82,0x02,0x00,0x08,0x0a,0x00,
 0x00,0x00,0x00,0x00,0x00,0x00,0x00,0x00,0x00,0x00,0x00,0x03,0x00,0x24,0x0a,
 0x00,0x00,0x00,0x00,0x00,0x00,0x00,0x00,0x00,0x00,0x00,0x04,0x02,0x00,0x28,
 0x02,0x00,0x00,0x00,0x00,0x00,0x00,0x00,0x00,0x00,0x00,0x00,0x04,0x05,0x00,
 0x04,0x04,0x00,0x00,0x00,0x00,0x00,0x00,0x00,0x00,0x00,0x00,0x00,0x04,0x06,
 0x00,0x28,0x0b,0x00,0x00,0x00,0x00,0x00,0x00,0x00,0x00,0x00,0x00,0x00,0x08,
 0x02,0x00,0x04,0x02,0x00,0x00,0x00,0x00,0x00,0x00,0x00,0x00,0x00,0x00,0x00,
 0x10,0x0e,0x00,0x28,0x01,0x00,0x00,0x00,0x00,0x00,0x00,0x00,0x00,0x00,0x00,
 0x00,0x08,0x08,0x00,0x04,0x09,0x00,0x00,0x00,0x00,0x00,0x00,0x00,0x00,0x00,
 0x00,0x00,0x10,0x0a,0x00,0x0c,0x05,0x00,0x00,0x00,0x00,0x00,0x00,0x00,0x00,
 0x00,0x00,0x00,0x00,0x0c,0x00,0x20,0x01,0x00,0x00,0x00,0x00,0x00,0x00,0x00,
 0x00,0x00,0x00,0x00,0x20,0x08,0x00,0x0c,0x05,0x00,0x00,0x00,0x00,0x00,0x00,
 0x00,0x00,0x00,0x00,0x00,0x20,0x0c,0x00,0x00,0x02,0x00,0x00,0x00,0x00,0x00,
 0x00,0x00,0x00,0x00,0x00,0x00,0x40,0x14,0x00,0x0c,0x05,0x00,0x00,0x00,0x00,
 0x00,0x00,0x00,0x00,0x00,0x00,0x00,0x80,0x18,0x00,0x00,0x01,0x00,0x00,0x00,
 0x00,0x00,0x00,0x00,0x00,0x00,0x00,0x00,0x40,0x18,0x00,0x0c,0x01,0x00,0x00,
 0x00,0x00,0x00,0x00,0x00,0x00,0x00,0x00,0x00,0x80,0x10,0x00,0x04,0x04,0x00,
 0x00,0x00,0x00,0x00,0x00,0x00,0x00,0x00,0x00,0x00,0x00,0x28,0x00,0x04,0x02,
 0x00,0x00,0x00,0x00,0x00,0x00,0x00,0x00,0x00,0x00,0x00,0x80,0x30,0x00,0x08,
 0x01,0x00,0x00,0x00,0x00,0x00,0x00,0x00,0x00,0x00,0x00,0x00,0x00,0x21,0x00,
 0x04,0x02,0x00,0x00,0x00,0x00,0x00,0x00,0x00,0x00,0x00,0x00,0x00,0x00,0x22,
 0x00,0x84,0x00,0x00,0x00,0x00,0x00,0x00,0x00,0x00,0x00,0x00,0x00,0x00,0x00,
 0x60,0x00,0x08,0x02,0x00,0x00,0x00,0x00,0x00,0x00,0x00,0x00,0x00,0x00,0x00,
 0x00,0x42,0x00,0x84,0x00,0x00,0x00,0x00,0x00,0x00,0x00,0x00,0x00,0x00,0x00,
 0x00,0x00,0x42,0x00,0x04,0x01,0x00,0x00,0x00,0x00,0x00,0x00,0x00,0x00,0x00,
 0x00,0x00,0x00,0x44,0x00,0x84,0x00,0x00,0x00,0x00,0x00,0x00,0x00,0x00,0x00,
 0x00,0x00,0x00,0x00,0x8a,0x00,0x88,0x00,0x00,0x00,0x00,0x00,0x00,0x00,0x00,
 0x00,0x00,0x00,0x00,0x00,0x24,0x01,0x84,0x00,0x00,0x00,0x00,0x00,0x00,0x00,
 0x00,0x00,0x00,0x00,0x00,0x00,0x28,0x02,0x84,0x00,0x00,0x00,0x00,0x00,0x00,
 0x00,0x00,0x00,0x00,0x00,0x00,0x00,0x94,0x06,0x84,0x00,0x00,0x00,0x00,0x00,
 0x00,0x00,0x00,0x00,0x00,0x00,0x00,0x00,0x48,0x04,0x84,0x00,0x00,0x00,0x00,
 0x00,0x00,0x00,0x00,0x00,0x00,0x00,0x00,0x00,0x94,0x2a,0x82,0x00,0x00,0x00,
 0x00,0x00,0x00,0x00,0x00,0x00,0x00,0x00,0x00,0x00,0xa8,0x49,0x06,0x01,0x00,
 0x00,0x00,0x00,0x00,0x00,0x00,0x00,0x00,0x00,0x00,0x00,0x24,0x49,0x82,0x00,
 0x00,0x00,0x00,0x00,0x00,0x00,0x00,0x00,0x00,0x00,0x00,0x00,0x50,0x4a,0x03,
 0x01,0x00,0x00,0x00,0x00,0x00,0x00,0x00,0x00,0x00,0x00,0x00,0x00,0x86,0x6a,
 0x01,0x01,0x00,0x00,0x00,0x00,0x00,0x00,0x00,0x00,0x00,0x00,0x00,0x80,0x55,
 0x96,0x02,0x01,0x00,0x00,0x00,0x00,0x00,0x00,0x00,0x00,0x00,0x00,0x00,0xa0,
 0xd4,0x01,0x11,0x01,0x00,0x00,0x00,0x00,0x00,0x00,0x00,0x00,0x00,0x00,0x00,
 0xd0,0x29,0x80,0x82,0x02,0x00,0x00,0x00,0x00,0x00,0x00,0x00,0x00,0x00,0x00,
 0x00,0x3c,0x12,0x80,0x5b,0x01,0x00,0x00,0x00,0x00,0x00,0x00,0x00,0x00,0x00,
 0x00,0x00,0x96,0x0c,0x40,0x02,0x02,0x00,0x00,0x00,0x00,0x00,0x00,0x00,0x00,
 0x00,0x00,0x40,0xa5,0x01,0x40,0xa1,0x01,0x00,0x00,0x00,0x00,0x00,0x00,0x00,
 0x00,0x00,0x00,0xa0,0x69,0x00,0xa0,0x0a,0x01,0x00,0x00,0x00,0x00,0x00,0x00,
 0x00,0x00,0x00,0x00,0xdc,0x14,0x00,0x60,0x7b,0x00,0x00,0x00,0x00,0x00,0x00,
 0x00,0x00,0x00,0x00,0x00,0x16,0x09,0x00,0x80,0x02,0x03,0x00,0x00,0x00,0x00,
 0x00,0x00,0x00,0x00,0x00,0x00,0x61,0x09,0x00,0x00,0x51,0x05,0x00,0x00,0x00,
 0x00,0x00,0x00,0x00,0x00,0x00,0x00,0x16,0x05,0x00,0x00,0x04,0x04,0x00,0x00,
 0x00,0x00,0x00,0x00,0x00,0x00,0x00,0x00,0x00,0x00,0x00,0x00,0x84,0x14,0x00,
 0x00,0x00,0x00,0x00,0x00,0x00,0x00,0x00,0x00,0x00,0x00,0x00,0x00,0x10,0x0a,
 0x00,0x00,0x00,0x00,0x00,0x00,0x00,0x00,0x00,0x00,0x00,0x00,0x00,0x00,0x50,
 0x51,0x00,0x00,0x00,0x00,0x00,0x00,0x00,0x00,0x00,0x00,0x00,0x00,0x00,0x00,
 0x00,0x46,0x01,0x00,0x00,0x00,0x00,0x00,0x00,0x00,0x00,0x00,0x00,0x00,0x00,
 0x00,0x20,0x96,0x02,0x00,0x00,0x00,0x00,0x00,0x00,0x00,0x00,0x00,0x00,0x00,
 0x00,0x00,0x40,0x29,0x00,0x00,0x00,0x00,0x00,0x00,0x00,0x00,0x00,0x00,0x00,
 0x00,0x00,0x00,0x80,0x84,0x06,0x00,0x00,0x00,0x00,0x00,0x00,0x00,0x00,0x00,
 0x00,0x00,0x00,0x00,0x00,0x44,0x05,0x00,0x00,0x00,0x00,0x00,0x00,0x00,0x00,
 0x00,0x00,0x00,0x00,0x00,0x00,0x91,0x02,0x00,0x00,0x00,0x00,0x00,0x00,0x00,
 0x00,0x00,0x00,0x00,0x00,0x00,0x00,0x14,0x00,0x00,0x00,0x00,0x00,0x00,0x00,
 0x00,0x00,0x00,0x00,0x00,0x00,0x00,0x00,0x00,0x00,0x00,0x00,0x00,0x00,0x00,
 0x00,0x00,0x00,0x00,0x00,0x00,0x00,0x00,0x00,0x00,0x00,0x00,0x00,0x00,0x00,
 0x00,0x00,0x00,0x00,0x00,0x00,0x00,0x00,0x00,0x00,0x00,0x00,0x00,0x00,0x00,
 0x00,0x00,0x00,0x00,0x00,0x00,0x00,0x00,0x00,0x00,0x00,0x00,0x00,0x00,0x00,
 0x00,0x00,0x00,0x00,0x00,0x00,0x00,0x00,0x00,0x00,0x00,0x00,0x00,0x00,0x00,
 0x00,0x00,0x00,0x00,0x00,0x00,0x00,0x00,0x00,0x00,0x00,0x00,0x00,0x00,0x00,
 0x00,0x00,0x00,0x00,0x00};
