#define tshot1_width 16
#define tshot1_height 16
static char tshot1_bits[] = {
   0x00, 0x00, 0x00, 0x00, 0x00, 0x3c, 0x00, 0x77, 0xc0, 0xcf, 0xf0, 0xea,
   0xf8, 0xef, 0x7f, 0xcf, 0x5f, 0xee, 0xaf, 0xc5, 0xde, 0xc7, 0xf0, 0x7e,
   0x80, 0x7f, 0x00, 0x3e, 0x00, 0x00, 0x00, 0x00};
