#define nine_width 32
#define nine_height 32
static char nine_bits[] = {
   0x00, 0x00, 0x00, 0x00, 0x00, 0x00, 0x00, 0x00, 0x00, 0x00, 0x00, 0x00,
   0x00, 0xf8, 0x03, 0x00, 0x00, 0xfc, 0x0f, 0x00, 0x00, 0xfe, 0x1f, 0x00,
   0x00, 0x0f, 0x3c, 0x00, 0x00, 0x07, 0x38, 0x00, 0x80, 0x03, 0x78, 0x00,
   0x80, 0x03, 0x70, 0x00, 0x80, 0x03, 0x70, 0x00, 0x80, 0x03, 0x70, 0x00,
   0x80, 0x03, 0x70, 0x00, 0x80, 0x03, 0x70, 0x00, 0x80, 0x03, 0x38, 0x00,
   0x80, 0x07, 0x3c, 0x00, 0x00, 0xff, 0x3f, 0x00, 0x00, 0xfe, 0x3f, 0x00,
   0x00, 0xfc, 0x3b, 0x00, 0x00, 0x00, 0x38, 0x00, 0x00, 0x00, 0x38, 0x00,
   0x00, 0x00, 0x38, 0x00, 0x00, 0x00, 0x38, 0x00, 0x00, 0x00, 0x1c, 0x00,
   0x00, 0x00, 0x1e, 0x00, 0x00, 0x00, 0x0f, 0x00, 0x00, 0x80, 0x07, 0x00,
   0x00, 0xff, 0x03, 0x00, 0x80, 0xff, 0x01, 0x00, 0xc0, 0x7f, 0x00, 0x00,
   0x00, 0x00, 0x00, 0x00, 0x00, 0x00, 0x00, 0x00};
