#define cedit_width 16
#define cedit_height 16
static char cedit_bits[] = {
   0x00, 0x00, 0x70, 0x07, 0xc8, 0x09, 0x80, 0x00, 0x80, 0x00, 0x80, 0x00,
   0x80, 0x00, 0x80, 0x00, 0x80, 0x00, 0x80, 0x00, 0x80, 0x00, 0x80, 0x00,
   0x80, 0x00, 0xc8, 0x09, 0x70, 0x07, 0x00, 0x00};
