#define kill_width 16
#define kill_height 16
#define kill_x_hot -1
#define kill_y_hot -1
static char kill_bits[] = {
   0x00, 0x00, 0xe0, 0x03, 0x18, 0x0c, 0x0c, 0x18, 0x04, 0x10, 0x74, 0x17,
   0x74, 0x17, 0x04, 0x10, 0x44, 0x11, 0x08, 0x08, 0x90, 0x04, 0x50, 0x05,
   0x50, 0x05, 0x50, 0x05, 0x20, 0x02, 0xc0, 0x01};
