#define mcadr_width 8
#define mcadr_height 8
static char mcadr_bits[] = {
   0xff, 0x11, 0x11, 0x11, 0xff, 0x11, 0x11, 0x11};
