#define mgray7_width 16
#define mgray7_height 16
static char mgray7_bits[] = {
   0x77, 0x77, 0xdd, 0xdd, 0x77, 0x77, 0xdd, 0xdd, 0x77, 0x77, 0xdd, 0xdd,
   0x77, 0x77, 0xdd, 0xdd, 0x77, 0x77, 0xdd, 0xdd, 0x77, 0x77, 0xdd, 0xdd,
   0x77, 0x77, 0xdd, 0xdd, 0x77, 0x77, 0xdd, 0xdd};
