#define mpyr_width 16
#define mpyr_height 16
#define mpyr_x_hot -1
#define mpyr_y_hot -1
static char mpyr_bits[] = {
   0xff, 0xff, 0x07, 0xe0, 0x0d, 0xb0, 0x19, 0x98, 0x31, 0x8c, 0x61, 0x86,
   0xc1, 0x83, 0x81, 0x81, 0x81, 0x81, 0xc1, 0x83, 0x61, 0x86, 0x31, 0x8c,
   0x19, 0x98, 0x0d, 0xb0, 0x07, 0xe0, 0xff, 0xff};
