#define StrokeArcOff_width 48
#define StrokeArcOff_height 48
static char StrokeArcOff_bits[] = {
   0x00, 0x00, 0x00, 0x00, 0x00, 0x00, 0x00, 0x00, 0x00, 0x00, 0x00, 0x00,
   0x00, 0x00, 0x00, 0x00, 0x00, 0x00, 0x00, 0x00, 0x00, 0x00, 0x00, 0x00,
   0x00, 0x00, 0x00, 0x00, 0x00, 0x00, 0x00, 0x7e, 0x00, 0x00, 0x00, 0x00,
   0x00, 0xfe, 0x07, 0x00, 0x00, 0x00, 0x00, 0x80, 0x3f, 0x00, 0x00, 0x00,
   0x00, 0x00, 0xf8, 0x00, 0x00, 0x00, 0x00, 0x00, 0xc0, 0x03, 0x00, 0x00,
   0x00, 0x00, 0x00, 0x0f, 0x00, 0x00, 0x00, 0x00, 0x00, 0x1c, 0x00, 0x00,
   0x00, 0x00, 0x00, 0x70, 0x00, 0x00, 0x00, 0x00, 0x00, 0xe0, 0x00, 0x00,
   0x00, 0x00, 0x00, 0xc0, 0x01, 0x00, 0x00, 0x3e, 0x00, 0x80, 0x03, 0x00,
   0x00, 0xfe, 0x03, 0x00, 0x07, 0x00, 0x00, 0xc0, 0x0f, 0x00, 0x0e, 0x00,
   0x00, 0x00, 0x3c, 0x00, 0x0c, 0x00, 0x00, 0x00, 0x70, 0x00, 0x18, 0x00,
   0x00, 0x00, 0xc0, 0x01, 0x30, 0x00, 0x00, 0x00, 0x80, 0x03, 0x30, 0x00,
   0x00, 0x00, 0x00, 0x07, 0x60, 0x00, 0x00, 0x00, 0x00, 0x0e, 0x60, 0x00,
   0x00, 0x00, 0x00, 0x0c, 0xc0, 0x00, 0x00, 0x1e, 0x00, 0x18, 0xc0, 0x00,
   0x00, 0xfe, 0x00, 0x30, 0x80, 0x01, 0x00, 0xe0, 0x01, 0x30, 0x80, 0x01,
   0x00, 0x80, 0x07, 0x60, 0x80, 0x01, 0x00, 0x00, 0x0e, 0x60, 0x00, 0x03,
   0x00, 0x00, 0x0c, 0xc0, 0x00, 0x03, 0x00, 0x00, 0x18, 0xc0, 0x00, 0x03,
   0x00, 0x00, 0x38, 0xc0, 0x00, 0x03, 0x00, 0x00, 0x30, 0xc0, 0x00, 0x06,
   0x00, 0x00, 0x30, 0x80, 0x01, 0x06, 0x00, 0x00, 0x60, 0x80, 0x01, 0x06,
   0x00, 0x00, 0x60, 0x80, 0x01, 0x06, 0x00, 0x00, 0x60, 0x80, 0x01, 0x06,
   0x00, 0x00, 0x60, 0x80, 0x01, 0x06, 0x00, 0x00, 0x00, 0x00, 0x00, 0x00,
   0x00, 0x00, 0x00, 0x00, 0x00, 0x00, 0x00, 0x00, 0x00, 0x00, 0x00, 0x00,
   0x00, 0x00, 0x00, 0x00, 0x00, 0x00, 0x00, 0x00, 0x00, 0x00, 0x00, 0x00,
   0x00, 0x00, 0x00, 0x00, 0x00, 0x00, 0x00, 0x00, 0x00, 0x00, 0x00, 0x00,
   0x00, 0x00, 0x00, 0x00, 0x00, 0x00, 0x00, 0x00, 0x00, 0x00, 0x00, 0x00};
