#define StrokeVertOff_width 48
#define StrokeVertOff_height 48
static char StrokeVertOff_bits[] = {
   0x00, 0x00, 0x00, 0x00, 0x00, 0x00, 0x00, 0x00, 0x00, 0x00, 0x00, 0x00,
   0x00, 0x00, 0x00, 0x00, 0x00, 0x00, 0x00, 0x00, 0x00, 0x00, 0x00, 0x00,
   0x00, 0x00, 0x00, 0x00, 0x00, 0x00, 0x00, 0x00, 0x00, 0x00, 0x00, 0x00,
   0x00, 0x00, 0x00, 0x00, 0x00, 0x00, 0x00, 0x00, 0x00, 0x00, 0x00, 0x00,
   0x00, 0x00, 0x00, 0x00, 0x00, 0x00, 0x00, 0x06, 0x80, 0x01, 0x60, 0x00,
   0x00, 0x06, 0x80, 0x01, 0x60, 0x00, 0x00, 0x06, 0x80, 0x01, 0x60, 0x00,
   0x00, 0x06, 0x80, 0x01, 0x60, 0x00, 0x00, 0x06, 0x80, 0x01, 0x60, 0x00,
   0x00, 0x06, 0x80, 0x01, 0x60, 0x00, 0x00, 0x06, 0x80, 0x01, 0x60, 0x00,
   0x00, 0x06, 0x80, 0x01, 0x60, 0x00, 0x00, 0x06, 0x80, 0x01, 0x60, 0x00,
   0x00, 0x06, 0x80, 0x01, 0x60, 0x00, 0x00, 0x06, 0x80, 0x01, 0x60, 0x00,
   0x00, 0x06, 0x80, 0x01, 0x60, 0x00, 0x00, 0x06, 0x80, 0x01, 0x60, 0x00,
   0x00, 0x06, 0x80, 0x01, 0x60, 0x00, 0x00, 0x06, 0x80, 0x01, 0x60, 0x00,
   0x00, 0x06, 0x80, 0x01, 0x60, 0x00, 0x00, 0x06, 0x80, 0x01, 0x60, 0x00,
   0x00, 0x06, 0x80, 0x01, 0x60, 0x00, 0x00, 0x06, 0x80, 0x01, 0x60, 0x00,
   0x00, 0x06, 0x80, 0x01, 0x60, 0x00, 0x00, 0x06, 0x80, 0x01, 0x60, 0x00,
   0x00, 0x06, 0x80, 0x01, 0x60, 0x00, 0x00, 0x06, 0x80, 0x01, 0x60, 0x00,
   0x00, 0x06, 0x80, 0x01, 0x60, 0x00, 0x00, 0x06, 0x80, 0x01, 0x60, 0x00,
   0x00, 0x06, 0x80, 0x01, 0x60, 0x00, 0x00, 0x06, 0x80, 0x01, 0x60, 0x00,
   0x00, 0x06, 0x80, 0x01, 0x60, 0x00, 0x00, 0x06, 0x80, 0x01, 0x60, 0x00,
   0x00, 0x06, 0x80, 0x01, 0x60, 0x00, 0x00, 0x00, 0x00, 0x00, 0x00, 0x00,
   0x00, 0x00, 0x00, 0x00, 0x00, 0x00, 0x00, 0x00, 0x00, 0x00, 0x00, 0x00,
   0x00, 0x00, 0x00, 0x00, 0x00, 0x00, 0x00, 0x00, 0x00, 0x00, 0x00, 0x00,
   0x00, 0x00, 0x00, 0x00, 0x00, 0x00, 0x00, 0x00, 0x00, 0x00, 0x00, 0x00,
   0x00, 0x00, 0x00, 0x00, 0x00, 0x00, 0x00, 0x00, 0x00, 0x00, 0x00, 0x00};
