/* XPM */
static char * vtx_xpm[] = {
/* width height ncolors chars_per_pixel */
"55 30 8 1",
/* colors */
" 	s None	c None",
".	c white",
"X	c #c0c0c0",
"o	c black",
"O	c #404f8a",
"+	c #c0dfc0",
"@	c #008080",
"#	c #00ff00",
/* pixels */
"        ......................................         ",
"       .XXXXXXXXXXXXXXXXXXXXXXXXXXXXXXXXXXXXXXo        ",
"       .XXXXXXXXXXXXXXXXXXXXXXXXXXXXXXXXXXXXXXo        ",
"       .XXoooooooooooooooooooooooooooooooooXXXo        ",
"       .XXoOOOooooooooooOOOOOOOOOOooooooooOOOOo        ",
"       .XOO+++OoooooOOOO++++++++++OooooOOO++++O   O    ",
"       OO+++++OOooOO++++++++++++++OOoOO+++++++OO O+O   ",
"     OO+++++++O@OO+++++++++++++++++OO+++++++++O@O++OO  ",
"   OO+++++++++O@O++++++++++++++++++O++++++O+++OO++O@@O ",
"  O++++++++++O@O+++++++++++OOOOOO++++++OOOO+++O++O@@@@O",
" O++++++OO++O@@O++++++OOOOO@@@@O+++++OO@@@O+++++O@@@@@O",
"O+++++OOO+++O@@O++++++O@@@@@@@O++O++++O@@@O++++O@@@@@O ",
"O++++O@@O++O@@O++OOOOO@@@@@@@O++OO++OO@@@@O+++O@@@@@O  ",
"O+++OO@O+++O@O+++O@@@@@@@OOOO+++O@OO@@@@@OO++O@@@@@O   ",
"O++O@@@O++O@@O++O@@@@@@@OoooO++O@@@@@@@@OO+++O@@@@O    ",
" OO@@@O++O@@O++O@@@@OOOOoooO+++O@@@OO@@O+++++O@@@O     ",
"  O@@@O++O@O++O@@@@@OoooooO+++O@@@@OoOO+++O++O@@O      ",
"   O@O+++OO+++O@@@@OoooooO+++O@@@@OoOO+++OO++O@@O      ",
"    OO++O@O++O@@@@OooooooO+++O@@@@OO++++OO+++O@OO      ",
"     O++OO++O@@@@OooooooO++++O@@@OO++++O@O+++OO++O     ",
"     O+++++O@@@@@OooooooO+++O@@@OoO+++O@@O++++++O@O    ",
"     O+++++O@@@@OooooooO++++O@@@OO++OO@@@O+++++O@@@O   ",
"      O++OO@@@@OooooooooO++O@@@@OoOO@@@@@@O++OO@@@@@O  ",
"       OO@@@@@OooooooooooOO@@@@OoooO@@@@@OoOO@@@@@@O   ",
"       .O@@@@@OoooooooooooO@@@@OooooO@@OOoo.O@@@@@O    ",
"       .XO@@OOoooooooooooooO@@OooooooOOoooo.XO@@OO     ",
"       .XXOO................OO.............XXXOO       ",
"       .XXXXXXXXXXXXXXXXXXXXXXXXXXXXXXXXX##XXXo        ",
"       .XXXXXXXXXXXXXXXXXXXXXXXXXXXXXXXXX##XXXo        ",
"        oooooooooooooooooooooooooooooooooooooo         "};
