/* XPM */
static char * vtx_3_xpm[] = {
"48 48 12 1",
" 	s None	c None",
".	c #555555555555",
"X	c #AAAAAAAAAAAA",
"o	c black",
"O	c white",
"+	c #FFFFFFFF0000",
"@	c #FBEE69A6A699",
"#	c #0000FFFF0000",
"$	c #145128A2FBEE",
"%	c #B2CA28A2FBEE",
"&	c #FFFF00000000",
"*	c #FFFF0000FFFF",
"                                                ",
"               . X           X .                ",
"                                                ",
"               X .           . X                ",
"                                                ",
"                  .         .                   ",
"                                                ",
"                   .       .                    ",
"                                                ",
"                    .     .                     ",
"                                                ",
"                     .   .                      ",
"                                                ",
"                      X.X                       ",
"                   X.X.X.X.X                    ",
"                  X.X.X.X.X.X                   ",
"      o.o.o.o.o.o.o.o.o.o.o.o.o.o.o.o.o.o       ",
"     oOXOXOXOXOXOXOXOXOXOXOXOXOXOXOXOXOXOo      ",
"    oOXOXOXOXOXOXOXOXOXOXOXOXOXOXOXoooooXOo     ",
"    .XOXO+++++++++++++++++++++OXOXOXOXOXOX.     ",
"    oOX+++++++++++++++++++++++++XOoooooooOo     ",
"    .XO+++++++++++++++++++++++++OXOXOXOXOX.     ",
"    oO+++++++++++++++++++++++++++OoooooooOo     ",
"    .X+ooo@o#+#ooo$+%%+oo+@o###o+XOXOXOXOX.     ",
"    oO+%o@@@o+##o$$+o%+%o+@@o###+OXoooooXOo     ",
"    .X+++@@+++#++++++o%o++++oo+++XOXOXOXOX.     ",
"    oO+++@o+++o$$++++oo@++++oo+++OXOXOXOXOo     ",
"    .X+++o%+++$++++++o@@++++oo+++XOXO&o&OX.     ",
"    oO+++%%+++$$o##+o@+@o+++o$+++OXOXo&oXOo     ",
"    .X+++o%+++$ooo#+#o+oo+++%o+++XOXO&o&OX.     ",
"    oO+++++++++++++++++++++++++++OXOXOXOXOo     ",
"    .X+++++++++++++++++++++++++++XOXO&o&OX.     ",
"    oO+#o$$$o+%%o@@+o#+#o+$$o%%%+OXOXo&oXOo     ",
"    .X+o$$$oo+%o@@@+oo+o$+$ooo%o+XOXO&o&OX.     ",
"    oO+++$o+++o++++++oo$++++oo+++OXOXOXOXOo     ",
"    .X+++o#+++@@@++++o$$++++oo+++XOXOXOXOX.     ",
"    oO+++##+++@++++++$$$++++o@+++OXO*o*OXOo     ",
"    .X+++o#+++@ooo%+%o+oo+++#o+++XO*o*o*OX.     ",
"    oO+++oo+++ooooo+%%+oo+++##+++OXo*X*oXOo     ",
"    .XO+++++++++++++++++++++++++OXO*o*o*OX.     ",
"    oOX+++++++++++++++++++++++++XOXO*o*OXOo     ",
"    .XOXO+++++++++++++++++++++OXOXOXOXOXOX.     ",
"    oOXOXOXOXOXOXOXOXOXOXOXOXOXOXOXOXOXOXOo     ",
"     oOXOXOXOXOXOXOXOXOXOXOXOXOXOXOXOXOXOo      ",
"      o.o.o.o.o.o.o.o.o.o.o.o.o.o.o.o.o.o       ",
"          .o.                     .o.           ",
"         .o.o.                   .o.o.          ",
"                                                "};
