/* XPM */
static char * vtx_1_xpm[] = {
"66 46 8 1",
" 	s None	c None",
".	c white",
"X	c #c0c0c0",
"o	c black",
"O	c #00ffff",
"+	c #ff3f3f",
"@	c #ffff00",
"#	c #00ff00",
"     ........................................................     ",
"    .XXXXXXXXXXXXXXXXXXXXXXXXXXXXXXXXXXXXXXXXXXXXXXXXXXXXXXXXo    ",
"    .XXXXXXXXXXXXXXXXXXXXXXXXXXXXXXXXXXXXXXXXXXXXXXXXXXXXXXXXo    ",
"    .XXXXXXXXXXXXXXXXXXXXXXXXXXXXXXXXXXXXXXXXXXXXXXXXXXXXXXXXo    ",
"    .XXXXooooooooooooooooooooooooooooooooooooooooooooooooXXXXo    ",
"    .XXXooOoOoOoOoOoOoOoOoOoOoOoOoOoOoOoOoOoOoOoOoOoOoOoO.XXXo    ",
"oooooooooooooooooooooooooooooooooooooooooooooOoOoOoOoOoOo.XXXo    ",
"o+++++++++++++++++++++++++++++++++++++++++++ooOoOoOoOoOoO.XXXo    ",
"o+++++++++++++++++++++++++++++++++++++++++++oooOoOoOoOoOo.XXXo    ",
"o++@@++++@@+++@@++++++++@@++++++++++++++++++ooooOoOoOoOoO.XXXo    ",
"o++@@++++@@+++@@++++++++@@++++++++++++++++++oooOoOoOoOoOo.XXXo    ",
"o++@@++++@@+++++++++++++@@++++++++++++++++++ooooOoOoOoOoO.XXXo    ",
"o++@@++++@@+++++++++++++@@++++++++++++++++++oooOoOoOoOoOo.XXXo    ",
"o++@@++++@@+@@@@+++++@@@@@++@@@@@+++@@@@@+++ooooOoOoOoOoO.XXXo    ",
"o+++@@++@@++@@@@++++@@@@@@+@@@@@@@+@@@@@@@++oooOoOoOoOoOo.XXXo    ",
"o+++@@++@@++++@@+++@@@++@@+@@+++@@+@@+++@@++ooooOoOoOoOoO.XXXo    ",
"o+++@@++@@++++@@+++@@+++@@+@@+++@@+@@+++@@++oooOoOoOoOoOo.XXXo    ",
"o++++@@@@+++++@@+++@@+++@@+@@@@@@@+@@+++@@++ooooOoOoOoOoO.XXXo    ",
"o++++@@@@+++++@@+++@@+++@@+@@@@@@++@@+++@@++oooooooooooooooooooo  ",
"o++++@@@@+++++@@+++@@+++@@+@@++++++@@+++@@+++++++++++++++++++++o  ",
"o+++++@@++++++@@+++@@@++@@+@@@++++++@+++@@+++++++++++++++++++++ooo",
"o+++++@@++++@@@@@@++@@@@@@++@@@@+..+@@@@@@++++...+++++.++..++++ooo",
"o+++++@@++++@@@@@@+++@@@@@+++@@@+..+@@@@@+++++...+++++.++..++++ooo",
"o++++++++++++++++++++++++++++++++..++++++++++++...+++.+++..++++ooo",
"o++++++++++++++++++++++++++++++......++++++++++...+++.+......++ooo",
"ooooooooooooooooooooooooooooo++......++.....++++...+.++......++ooo",
"  ooooooooooooooooooooooooooo++++..+++.......+++...+.++++..++++ooo",
"  ooooooooooooooooooooooooooo++++..+++..+++..++++.+.+++++..++++ooo",
"    .XXXooOoOoOoOoOoOoOoOoOoo++++..+++..+++..++++.+.+++++..++++ooo",
"    .XXXoOoOoOoOoOoOoOoOoOoOo++++..+++.......+++.+...++++..++++ooo",
"    .XXXooOoOoOoOoOoOoOoOoOoo++++..+++......++++.+...++++..++++ooo",
"    .XXXoOoOoOoOoOoOoOoOoOoOo++++..+++..+++++++.+++...+++..++++ooo",
"    .XXXooOoOoOoOoOoOoOoOoOoo++++..+++...++++++.+++...+++..++++ooo",
"    .XXXoOoOoOoOoOoOoOoOoOoOo++++....++......+.+++++...++....++ooo",
"    .XXXooOoOoOoOoOoOoOoOoOoo+++++...+++.....+.+++++...+++...++ooo",
"    .XXXoOoOoOoOoOoOoOoOoOoOo++++++++++++++++++++++++++++++++++ooo",
"    .XXXooOoOoOoOoOoOoOoOoOoo++++++++++++++++++++++++++++++++++ooo",
"    .XXXoOoOoOoOoOoOoOoOoOoOoooooooooooooooooooooooooooooooooooooo",
"    .XXXooOoOoOoOoOoOoOoOoOoOooooooooooooooooooooooooooooooooooooo",
"    .XXXoOoOoOoOoOoOoOoOoOoOoOoooooooooooooooooooooooooooooooooooo",
"    .XXXooOoOoOoOoOoOoOoOoOoOoOoOoOoOoOoOoOoOoOoOoOoOoOoO.XXXo    ",
"    .XXXX................................................XXXXo    ",
"    .XXXXXXXXXXXXXXXXXXXXXXXXXXXXXXXXXXXXXXXXXXXXXXXXXXXXXXXXo    ",
"    .XXXXXXXXXXXXXXXXXXXXXXXXXXXXXXXXXXXXXXXXXXXXXXXXX##XXXXXo    ",
"    .XXXXXXXXXXXXXXXXXXXXXXXXXXXXXXXXXXXXXXXXXXXXXXXXXXXXXXXXo    ",
"     oooooooooooooooooooooooooooooooooooooooooooooooooooooooo     "};
