#define filemask_width 18
#define filemask_height 22
static char filemask_bits[] = {
   0xff, 0x0f, 0x00, 0xff, 0x1f, 0x00, 0xff, 0x3f, 0x00, 0xff, 0x7f, 0x00,
   0xff, 0xff, 0x00, 0xff, 0xff, 0x01, 0xff, 0xff, 0x03, 0xff, 0xff, 0x03,
   0xff, 0xff, 0x03, 0xff, 0xff, 0x03, 0xff, 0xff, 0x03, 0xff, 0xff, 0x03,
   0xff, 0xff, 0x03, 0xff, 0xff, 0x03, 0xff, 0xff, 0x03, 0xff, 0xff, 0x03,
   0xff, 0xff, 0x03, 0xff, 0xff, 0x03, 0xff, 0xff, 0x03, 0xff, 0xff, 0x03,
   0xff, 0xff, 0x03, 0xff, 0xff, 0x03};
